<svg id="Layer_1" data-name="Layer 1" xmlns="http://www.w3.org/2000/svg" viewBox="0 0 472.43 267.97"><defs><style>.cls-1{fill:#fff;}.cls-2{fill:#e4e4e4;}.cls-3{fill:#10c0e8;}.cls-4{fill:#ee4693;}.cls-5{fill:#cacaca;}.cls-6{fill:#2f2e41;}.cls-7{fill:#ffb6b6;}.cls-8{fill:#ffb8b8;}.cls-9{fill:#f0f0f0;}</style></defs><title>Artboard 36</title><rect class="cls-1" x="198.84" y="0.53" width="273.05" height="177.4"/><path class="cls-2" d="M472.43,178.46H198.31V0H472.43ZM199.37,177.4h272V1.06h-272Z"/><path class="cls-3" d="M318.21,17.88c8,.14,8,12.07,0,12.2C310.19,30,310.19,18,318.21,17.88Z"/><path class="cls-4" d="M335.37,17.88c8,.14,8,12.07,0,12.2C327.35,30,327.35,18,335.37,17.88Z"/><path class="cls-5" d="M352.53,17.88c8,.14,8,12.07,0,12.2C344.51,30,344.51,18,352.53,17.88Z"/><rect class="cls-5" x="246.01" y="64.6" width="54.61" height="0.66"/><path class="cls-5" d="M425.06,160.58H349.93V90.41h75.13Zm-74.47-.66H424.4V91.08H350.59Z"/><rect class="cls-5" x="387.17" y="74.57" width="0.66" height="101.86" transform="translate(31.35 323.15) rotate(-46.97)"/><rect class="cls-5" x="336.57" y="125.17" width="101.86" height="0.66" transform="translate(18.58 298.13) rotate(-43.02)"/><path class="cls-5" d="M425.06,55.33H245.68V43.09H425.06Zm-178.72-.66H424.4V43.75H246.34Z"/><path class="cls-5" d="M312,109.46H246.21V97.22H312Zm-65.16-.66h64.49V97.88H246.87Z"/><path class="cls-5" d="M312,130.16H246.21V117.91H312Zm-65.16-.66h64.49V118.57H246.87Z"/><path class="cls-5" d="M312,150.86H246.21V138.61H312Zm-65.16-.67h64.49V139.27H246.87Z"/><path class="cls-4" d="M263.44,79.77H245.79a41,41,0,0,0,0-17.65h17.65A21.63,21.63,0,0,0,263.44,79.77Z"/><rect class="cls-1" x="248.47" y="65.86" width="10.7" height="2.14"/><rect class="cls-1" x="248.47" y="70.14" width="10.7" height="2.14"/><rect class="cls-1" x="248.47" y="74.42" width="10.7" height="2.14"/><path class="cls-3" d="M396.38,106.43H378.73a41,41,0,0,0,0-17.65h17.65A22,22,0,0,0,396.38,106.43Z"/><rect class="cls-1" x="381.41" y="92.52" width="10.7" height="2.14"/><rect class="cls-1" x="381.41" y="96.8" width="10.7" height="2.14"/><rect class="cls-1" x="381.41" y="101.08" width="10.7" height="2.14"/><path class="cls-4" d="M419.08,68.6H401.43a41,41,0,0,0,0-17.65h17.65A22,22,0,0,0,419.08,68.6Z"/><rect class="cls-1" x="404.1" y="54.7" width="10.7" height="2.14"/><rect class="cls-1" x="404.1" y="58.98" width="10.7" height="2.14"/><rect class="cls-1" x="404.1" y="63.26" width="10.7" height="2.14"/><path class="cls-6" d="M109.64,81.43H79.39V65.25a15.13,15.13,0,1,1,30.25,0Z"/><polygon class="cls-7" points="123.14 261.52 129.65 261.52 132.74 236.42 123.14 236.42 123.14 261.52"/><path class="cls-6" d="M121.48,259.39H134.3a8.16,8.16,0,0,1,8.16,8.17v.26h-21Z"/><polygon class="cls-7" points="45.37 252.84 51.03 256.03 66.07 235.7 57.7 230.98 45.37 252.84"/><path class="cls-6" d="M45,250.17l11.15,6.3h0a8.16,8.16,0,0,1,3.09,11.12l-.13.24L40.82,257.51Z"/><path class="cls-6" d="M87,148.66l-.5,2.51s-1.51,1.5-.76,2.26.51,4.26.51,4.26c-.43,6.41-8.8,42.42-10.3,49.46a75.7,75.7,0,0,0-20.58,22.34c-9,14.81-9.29,18.58-9.29,18.58l10,4.27L81.18,222s7-4.27,9.53-8,18.08-42.68,18.08-42.68l8.79,40.67s-.51,14.81,1.75,24.35a102,102,0,0,1,2.51,18.32l11.8-1.25s-.75-35.65-2-39.41c0,0,5.28-43.43-5.27-60.75l-8.5-22.66-8.32-3.2Z"/><path class="cls-8" d="M94.36,54.08c15.84.27,15.84,23.83,0,24.1C78.52,77.91,78.52,54.35,94.36,54.08Z"/><path class="cls-6" d="M106.55,65.5h-2.69l-.74-1.83.37,1.83H88.77l.48-3.83L85.67,65.5H82.1V63.43a12.23,12.23,0,1,1,24.45,0V65.5Z"/><path class="cls-2" d="M110.69,85.22l-29.93.24,6.32,64.17s35-1.85,35-12.54l-3.28-9.49Z"/><path id="a921541c-c001-4299-8f7c-75c007cac120" class="cls-1" d="M166.4,197.18,62.05,218.79c-1.06.22-2.29-1.37-2.75-3.55l-11-53c-.46-2.19,0-4.13,1.11-4.36l104.34-21.61c1.07-.21,2.3,1.37,2.75,3.56l11,53C168,195,167.46,197,166.4,197.18Z"/><g id="a63949a2-a794-48d0-a35a-8c12e4616a27"><circle id="bdfdee77-367c-420e-9119-e33862087a46" class="cls-9" cx="87.35" cy="171.94" r="9.32"/><path id="f21c0c69-10dc-4e04-b124-1a0d4dcadc3b" class="cls-2" d="M121.78,194.13,77,203.4a.47.47,0,0,1-.17,0l13.58-41a1.52,1.52,0,0,1,1.9-1,1.51,1.51,0,0,1,.68.45l19.3,21.66.93,1Z"/><path id="a63814cd-9c0a-4ddf-af41-edb1ac5f3322" class="cls-2" d="M146.71,189,108,197l5.25-12.45.37-.9,6.84-16.22a2,2,0,0,1,2.71-.89l.19.1.18.15Z"/></g><path id="e00a8b63-2679-46d7-8caf-93b6261f662d" class="cls-5" d="M166.4,197.18,62.05,218.79c-1.06.22-2.29-1.37-2.75-3.55l-11-53c-.46-2.19,0-4.13,1.11-4.36l104.34-21.61c1.07-.21,2.3,1.37,2.75,3.56l11,53C168,195,167.46,197,166.4,197.18ZM49.78,159.5c-.64.14-.94,1.31-.67,2.62l11,53c.27,1.31,1,2.26,1.65,2.13L166.07,195.6c.64-.13.94-1.3.67-2.61l-11-53c-.27-1.31-1-2.27-1.65-2.13Z"/><path class="cls-7" d="M135.53,148.16a5,5,0,0,1-2.39-6.62,4.33,4.33,0,0,1,.44-.75l-6.06-9.63,4.94-5.11,8.37,13.71a5,5,0,0,1-5.3,8.4Z"/><path class="cls-2" d="M106.09,87.74l4.35-2.86s3.35.75,6.91,7.61S135.29,130,135.29,130l-5.91,6-15.76-24Z"/><path class="cls-7" d="M79.48,155.83a5,5,0,0,0-.71-7,4.44,4.44,0,0,0-.73-.49l1.3-11.3-6.67-2.47-1.61,16a5,5,0,0,0,8.42,5.28Z"/><path class="cls-2" d="M84.7,91l-3.94-5.51s-2.7-.6-5.88,3.12-5,50.15-5,50.15l11.67,2.65,6.9-32.9Z"/><path class="cls-5" d="M202.72,268H.53a.53.53,0,0,1,0-1.06H202.72a.53.53,0,1,1,0,1.06Z"/><path class="cls-4" d="M72.63,171.94l-17.27,3.67a41,41,0,0,0-3.67-17.27L69,154.67A21.93,21.93,0,0,0,72.63,171.94Z"/><rect class="cls-1" x="55.19" y="160.31" width="10.7" height="2.14" transform="translate(-32.2 16.09) rotate(-11.99)"/><rect class="cls-1" x="56.08" y="164.5" width="10.7" height="2.14" transform="translate(-33.05 16.37) rotate(-11.99)"/><rect class="cls-1" x="56.97" y="168.69" width="10.7" height="2.14" transform="translate(-33.9 16.64) rotate(-11.99)"/></svg>