<svg id="Layer_1" data-name="Layer 1" xmlns="http://www.w3.org/2000/svg" viewBox="0 0 484.95 330"><defs><style>.cls-1{fill:#3f3d56;}.cls-2{fill:#ee4693;}.cls-3{fill:#10c0e8;}.cls-4{fill:#2f2e41;}.cls-5{fill:#8985a8;}.cls-6{opacity:0.1;isolation:isolate;}.cls-7{fill:#f2f2f2;}.cls-8{fill:#ffb8b8;}</style></defs><title>Artboard 33</title><rect class="cls-1" width="407.21" height="219.05"/><rect class="cls-2" x="73.61" y="30.88" width="3.59" height="5.75"/><rect class="cls-2" x="85.82" y="29.45" width="3.59" height="5.75"/><rect class="cls-3" x="92.29" y="29.45" width="3.59" height="5.75"/><rect class="cls-2" x="92.29" y="46.68" width="3.59" height="5.75"/><rect class="cls-2" x="99.47" y="38.06" width="3.59" height="5.75"/><rect class="cls-2" x="99.47" y="47.4" width="3.59" height="5.75"/><rect class="cls-2" x="92.29" y="65.36" width="3.59" height="5.75"/><rect class="cls-3" x="99.47" y="74.69" width="3.59" height="5.75"/><rect class="cls-2" x="92.29" y="109.88" width="3.59" height="5.75"/><rect class="cls-2" x="85.82" y="74.69" width="3.59" height="5.75"/><rect class="cls-2" x="73.61" y="40.22" width="3.59" height="5.75"/><rect class="cls-3" x="73.61" y="129.99" width="3.59" height="5.75"/><rect class="cls-2" x="73.61" y="148.67" width="3.59" height="5.75"/><rect class="cls-2" x="73.61" y="158" width="3.59" height="5.75"/><rect class="cls-2" x="72.18" y="50.27" width="5.03" height="0.72"/><rect class="cls-2" x="91.57" y="58.89" width="5.03" height="0.72"/><rect class="cls-2" x="72.18" y="96.24" width="5.03" height="0.72"/><rect class="cls-2" x="72.18" y="104.14" width="5.03" height="0.72"/><rect class="cls-2" x="91.57" y="150.1" width="5.03" height="0.72"/><rect class="cls-2" x="85.82" y="167.34" width="5.03" height="0.72"/><polygon class="cls-2" points="73.61 56.74 73.61 58.17 75.05 58.17 75.05 61.05 73.61 61.05 73.61 62.48 77.2 62.48 77.2 56.74 73.61 56.74"/><polygon class="cls-2" points="85.82 46.68 85.82 48.12 87.26 48.12 87.26 50.99 85.82 50.99 85.82 52.43 89.42 52.43 89.42 46.68 85.82 46.68"/><polygon class="cls-2" points="99.47 56.02 99.47 57.45 100.91 57.45 100.91 60.33 99.47 60.33 99.47 61.76 103.06 61.76 103.06 56.02 99.47 56.02"/><polygon class="cls-2" points="99.47 84.03 99.47 85.46 100.91 85.46 100.91 88.34 99.47 88.34 99.47 89.77 103.06 89.77 103.06 84.03 99.47 84.03"/><polygon class="cls-2" points="99.47 93.36 99.47 94.8 100.91 94.8 100.91 97.67 99.47 97.67 99.47 99.11 103.06 99.11 103.06 93.36 99.47 93.36"/><polygon class="cls-2" points="99.47 64.64 99.47 66.07 100.91 66.07 100.91 68.95 99.47 68.95 99.47 70.38 103.06 70.38 103.06 64.64 99.47 64.64"/><polygon class="cls-2" points="92.29 38.06 92.29 39.5 93.72 39.5 93.72 42.37 92.29 42.37 92.29 43.81 95.88 43.81 95.88 38.06 92.29 38.06"/><rect class="cls-2" x="92.29" y="84.03" width="3.59" height="5.75"/><rect class="cls-2" x="92.29" y="101.26" width="3.59" height="5.75"/><polygon class="cls-2" points="92.29 92.65 92.29 94.08 93.72 94.08 93.72 96.95 92.29 96.95 92.29 98.39 95.88 98.39 95.88 92.65 92.29 92.65"/><polygon class="cls-2" points="85.82 56.02 85.82 57.45 87.26 57.45 87.26 60.33 85.82 60.33 85.82 61.76 89.42 61.76 89.42 56.02 85.82 56.02"/><polygon class="cls-2" points="85.82 65.36 85.82 66.79 87.26 66.79 87.26 69.66 85.82 69.66 85.82 71.1 89.42 71.1 89.42 65.36 85.82 65.36"/><rect class="cls-2" x="85.82" y="93.36" width="3.59" height="5.75"/><polygon class="cls-2" points="85.82 84.03 85.82 85.46 87.26 85.46 87.26 88.34 85.82 88.34 85.82 89.77 89.42 89.77 89.42 84.03 85.82 84.03"/><rect class="cls-2" x="85.82" y="112.04" width="3.59" height="5.75"/><polygon class="cls-2" points="85.82 102.7 85.82 104.14 87.26 104.14 87.26 107.01 85.82 107.01 85.82 108.45 89.42 108.45 89.42 102.7 85.82 102.7"/><rect class="cls-2" x="85.82" y="130.71" width="3.59" height="5.75"/><rect class="cls-2" x="92.29" y="129.27" width="3.59" height="5.75"/><polygon class="cls-2" points="85.82 121.37 85.82 122.81 87.26 122.81 87.26 125.68 85.82 125.68 85.82 127.12 89.42 127.12 89.42 121.37 85.82 121.37"/><polygon class="cls-2" points="99.47 121.37 99.47 122.81 100.91 122.81 100.91 125.68 99.47 125.68 99.47 127.12 103.06 127.12 103.06 121.37 99.47 121.37"/><rect class="cls-2" x="136.1" y="38.06" width="3.59" height="5.75"/><rect class="cls-2" x="136.1" y="47.4" width="3.59" height="5.75"/><rect class="cls-2" x="136.1" y="74.69" width="3.59" height="5.75"/><polygon class="cls-2" points="136.1 56.02 136.1 57.45 137.53 57.45 137.53 60.33 136.1 60.33 136.1 61.76 139.69 61.76 139.69 56.02 136.1 56.02"/><polygon class="cls-2" points="136.1 84.03 136.1 85.46 137.53 85.46 137.53 88.34 136.1 88.34 136.1 89.77 139.69 89.77 139.69 84.03 136.1 84.03"/><polygon class="cls-2" points="136.1 93.36 136.1 94.8 137.53 94.8 137.53 97.67 136.1 97.67 136.1 99.11 139.69 99.11 139.69 93.36 136.1 93.36"/><polygon class="cls-2" points="136.1 64.64 136.1 66.07 137.53 66.07 137.53 68.95 136.1 68.95 136.1 70.38 139.69 70.38 139.69 64.64 136.1 64.64"/><polygon class="cls-2" points="136.1 121.37 136.1 122.81 137.53 122.81 137.53 125.68 136.1 125.68 136.1 127.12 139.69 127.12 139.69 121.37 136.1 121.37"/><rect class="cls-2" x="85.82" y="149.38" width="3.59" height="5.75"/><rect class="cls-2" x="92.29" y="138.61" width="3.59" height="5.75"/><rect class="cls-3" x="85.82" y="173.8" width="3.59" height="5.75"/><rect class="cls-2" x="92.29" y="156.57" width="3.59" height="5.75"/><polygon class="cls-2" points="85.82 140.05 85.82 141.48 87.26 141.48 87.26 144.36 85.82 144.36 85.82 145.79 89.42 145.79 89.42 140.05 85.82 140.05"/><polygon class="cls-2" points="85.82 183.86 85.82 185.29 87.26 185.29 87.26 188.16 85.82 188.16 85.82 189.6 89.42 189.6 89.42 183.86 85.82 183.86"/><rect class="cls-2" x="125.32" y="29.45" width="3.59" height="5.75"/><rect class="cls-2" x="125.32" y="74.69" width="3.59" height="5.75"/><rect class="cls-2" x="125.32" y="167.34" width="5.03" height="0.72"/><polygon class="cls-2" points="125.32 46.68 125.32 48.12 126.76 48.12 126.76 50.99 125.32 50.99 125.32 52.43 128.91 52.43 128.91 46.68 125.32 46.68"/><polygon class="cls-2" points="125.32 56.02 125.32 57.45 126.76 57.45 126.76 60.33 125.32 60.33 125.32 61.76 128.91 61.76 128.91 56.02 125.32 56.02"/><polygon class="cls-2" points="125.32 65.36 125.32 66.79 126.76 66.79 126.76 69.66 125.32 69.66 125.32 71.1 128.91 71.1 128.91 65.36 125.32 65.36"/><rect class="cls-2" x="125.32" y="93.36" width="3.59" height="5.75"/><polygon class="cls-2" points="125.32 84.03 125.32 85.46 126.76 85.46 126.76 88.34 125.32 88.34 125.32 89.77 128.91 89.77 128.91 84.03 125.32 84.03"/><rect class="cls-2" x="125.32" y="112.04" width="3.59" height="5.75"/><polygon class="cls-2" points="125.32 102.7 125.32 104.14 126.76 104.14 126.76 107.01 125.32 107.01 125.32 108.45 128.91 108.45 128.91 102.7 125.32 102.7"/><rect class="cls-2" x="125.32" y="130.71" width="3.59" height="5.75"/><polygon class="cls-2" points="125.32 121.37 125.32 122.81 126.76 122.81 126.76 125.68 125.32 125.68 125.32 127.12 128.91 127.12 128.91 121.37 125.32 121.37"/><rect class="cls-3" x="125.32" y="149.38" width="3.59" height="5.75"/><rect class="cls-2" x="125.32" y="173.8" width="3.59" height="5.75"/><polygon class="cls-2" points="125.32 140.05 125.32 141.48 126.76 141.48 126.76 144.36 125.32 144.36 125.32 145.79 128.91 145.79 128.91 140.05 125.32 140.05"/><polygon class="cls-2" points="125.32 183.86 125.32 185.29 126.76 185.29 126.76 188.16 125.32 188.16 125.32 189.6 128.91 189.6 128.91 183.86 125.32 183.86"/><rect class="cls-2" x="142.56" y="29.45" width="3.59" height="5.75"/><rect class="cls-3" x="142.56" y="74.69" width="3.59" height="5.75"/><rect class="cls-2" x="142.56" y="167.34" width="5.03" height="0.72"/><polygon class="cls-2" points="142.56 46.68 142.56 48.12 144 48.12 144 50.99 142.56 50.99 142.56 52.43 146.15 52.43 146.15 46.68 142.56 46.68"/><polygon class="cls-2" points="142.56 56.02 142.56 57.45 144 57.45 144 60.33 142.56 60.33 142.56 61.76 146.15 61.76 146.15 56.02 142.56 56.02"/><polygon class="cls-2" points="142.56 65.36 142.56 66.79 144 66.79 144 69.66 142.56 69.66 142.56 71.1 146.15 71.1 146.15 65.36 142.56 65.36"/><rect class="cls-2" x="142.56" y="93.36" width="3.59" height="5.75"/><polygon class="cls-2" points="142.56 84.03 142.56 85.46 144 85.46 144 88.34 142.56 88.34 142.56 89.77 146.15 89.77 146.15 84.03 142.56 84.03"/><rect class="cls-3" x="142.56" y="112.04" width="3.59" height="5.75"/><polygon class="cls-2" points="142.56 102.7 142.56 104.14 144 104.14 144 107.01 142.56 107.01 142.56 108.45 146.15 108.45 146.15 102.7 142.56 102.7"/><rect class="cls-2" x="142.56" y="130.71" width="3.59" height="5.75"/><polygon class="cls-2" points="142.56 121.37 142.56 122.81 144 122.81 144 125.68 142.56 125.68 142.56 127.12 146.15 127.12 146.15 121.37 142.56 121.37"/><rect class="cls-2" x="142.56" y="149.38" width="3.59" height="5.75"/><rect class="cls-2" x="142.56" y="173.8" width="3.59" height="5.75"/><polygon class="cls-2" points="142.56 140.05 142.56 141.48 144 141.48 144 144.36 142.56 144.36 142.56 145.79 146.15 145.79 146.15 140.05 142.56 140.05"/><polygon class="cls-2" points="142.56 183.86 142.56 185.29 144 185.29 144 188.16 142.56 188.16 142.56 189.6 146.15 189.6 146.15 183.86 142.56 183.86"/><polygon class="cls-2" points="92.29 173.8 92.29 175.24 93.72 175.24 93.72 178.11 92.29 178.11 92.29 179.55 95.88 179.55 95.88 173.8 92.29 173.8"/><polygon class="cls-2" points="92.29 183.14 92.29 184.57 93.72 184.57 93.72 187.45 92.29 187.45 92.29 188.88 95.88 188.88 95.88 183.14 92.29 183.14"/><polygon class="cls-2" points="73.61 74.69 73.61 76.13 75.05 76.13 75.05 79 73.61 79 73.61 80.44 77.2 80.44 77.2 74.69 73.61 74.69"/><polygon class="cls-2" points="73.61 111.32 73.61 112.76 75.05 112.76 75.05 115.63 73.61 115.63 73.61 117.06 77.2 117.06 77.2 111.32 73.61 111.32"/><polygon class="cls-2" points="73.61 120.66 73.61 122.09 75.05 122.09 75.05 124.97 73.61 124.97 73.61 126.4 77.2 126.4 77.2 120.66 73.61 120.66"/><polygon class="cls-2" points="73.61 139.33 73.61 140.76 75.05 140.76 75.05 143.64 73.61 143.64 73.61 145.07 77.2 145.07 77.2 139.33 73.61 139.33"/><polygon class="cls-2" points="73.61 165.9 73.61 167.34 75.05 167.34 75.05 170.21 73.61 170.21 73.61 171.65 77.2 171.65 77.2 165.9 73.61 165.9"/><polygon class="cls-2" points="73.61 173.8 73.61 175.24 75.05 175.24 75.05 178.11 73.61 178.11 73.61 179.55 77.2 179.55 77.2 173.8 73.61 173.8"/><rect class="cls-2" x="110.96" y="30.88" width="3.59" height="5.75"/><rect class="cls-2" x="110.96" y="40.22" width="3.59" height="5.75"/><rect class="cls-2" x="109.52" y="50.27" width="5.03" height="0.72"/><rect class="cls-2" x="109.52" y="96.24" width="5.03" height="0.72"/><rect class="cls-2" x="109.52" y="104.14" width="5.03" height="0.72"/><polygon class="cls-2" points="110.96 56.74 110.96 58.17 112.4 58.17 112.4 61.05 110.96 61.05 110.96 62.48 114.55 62.48 114.55 56.74 110.96 56.74"/><polygon class="cls-2" points="110.96 74.69 110.96 76.13 112.4 76.13 112.4 79 110.96 79 110.96 80.44 114.55 80.44 114.55 74.69 110.96 74.69"/><polygon class="cls-2" points="110.96 111.32 110.96 112.76 112.4 112.76 112.4 115.63 110.96 115.63 110.96 117.06 114.55 117.06 114.55 111.32 110.96 111.32"/><rect class="cls-2" x="151.9" y="93.36" width="3.59" height="5.75"/><rect class="cls-2" x="151.9" y="102.7" width="3.59" height="5.75"/><rect class="cls-2" x="150.46" y="112.76" width="5.03" height="0.72"/><rect class="cls-2" x="150.46" y="158.72" width="5.03" height="0.72"/><rect class="cls-2" x="150.46" y="166.62" width="5.03" height="0.72"/><polygon class="cls-2" points="151.9 119.22 151.9 120.66 153.33 120.66 153.33 123.53 151.9 123.53 151.9 124.97 155.49 124.97 155.49 119.22 151.9 119.22"/><polygon class="cls-2" points="151.9 137.17 151.9 138.61 153.33 138.61 153.33 141.48 151.9 141.48 151.9 142.92 155.49 142.92 155.49 137.17 151.9 137.17"/><polygon class="cls-2" points="151.9 173.8 151.9 175.24 153.33 175.24 153.33 178.11 151.9 178.11 151.9 179.55 155.49 179.55 155.49 173.8 151.9 173.8"/><rect class="cls-2" x="163.39" y="30.88" width="3.59" height="5.75"/><rect class="cls-2" x="175.6" y="29.45" width="3.59" height="5.75"/><rect class="cls-2" x="182.06" y="29.45" width="3.59" height="5.75"/><rect class="cls-3" x="182.06" y="46.68" width="3.59" height="5.75"/><rect class="cls-2" x="189.24" y="38.06" width="3.59" height="5.75"/><rect class="cls-2" x="189.24" y="47.4" width="3.59" height="5.75"/><rect class="cls-2" x="182.06" y="65.36" width="3.59" height="5.75"/><rect class="cls-2" x="189.24" y="74.69" width="3.59" height="5.75"/><rect class="cls-2" x="182.06" y="109.88" width="3.59" height="5.75"/><rect class="cls-2" x="175.6" y="74.69" width="3.59" height="5.75"/><rect class="cls-2" x="163.39" y="40.22" width="3.59" height="5.75"/><rect class="cls-2" x="163.39" y="129.99" width="3.59" height="5.75"/><rect class="cls-2" x="163.39" y="148.67" width="3.59" height="5.75"/><rect class="cls-2" x="163.39" y="158" width="3.59" height="5.75"/><rect class="cls-2" x="161.95" y="50.27" width="5.03" height="0.72"/><rect class="cls-2" x="181.34" y="58.89" width="5.03" height="0.72"/><rect class="cls-2" x="161.95" y="96.24" width="5.03" height="0.72"/><rect class="cls-2" x="161.95" y="104.14" width="5.03" height="0.72"/><rect class="cls-2" x="181.34" y="150.1" width="5.03" height="0.72"/><rect class="cls-2" x="175.6" y="167.34" width="5.03" height="0.72"/><polygon class="cls-2" points="163.39 56.74 163.39 58.17 164.82 58.17 164.82 61.05 163.39 61.05 163.39 62.48 166.98 62.48 166.98 56.74 163.39 56.74"/><polygon class="cls-2" points="175.6 46.68 175.6 48.12 177.03 48.12 177.03 50.99 175.6 50.99 175.6 52.43 179.19 52.43 179.19 46.68 175.6 46.68"/><polygon class="cls-2" points="189.24 56.02 189.24 57.45 190.68 57.45 190.68 60.33 189.24 60.33 189.24 61.76 192.83 61.76 192.83 56.02 189.24 56.02"/><polygon class="cls-2" points="189.24 84.03 189.24 85.46 190.68 85.46 190.68 88.34 189.24 88.34 189.24 89.77 192.83 89.77 192.83 84.03 189.24 84.03"/><polygon class="cls-2" points="189.24 93.36 189.24 94.8 190.68 94.8 190.68 97.67 189.24 97.67 189.24 99.11 192.83 99.11 192.83 93.36 189.24 93.36"/><polygon class="cls-2" points="189.24 64.64 189.24 66.07 190.68 66.07 190.68 68.95 189.24 68.95 189.24 70.38 192.83 70.38 192.83 64.64 189.24 64.64"/><polygon class="cls-2" points="182.06 38.06 182.06 39.5 183.5 39.5 183.5 42.37 182.06 42.37 182.06 43.81 185.65 43.81 185.65 38.06 182.06 38.06"/><rect class="cls-2" x="182.06" y="84.03" width="3.59" height="5.75"/><rect class="cls-2" x="182.06" y="101.26" width="3.59" height="5.75"/><polygon class="cls-2" points="182.06 92.65 182.06 94.08 183.5 94.08 183.5 96.95 182.06 96.95 182.06 98.39 185.65 98.39 185.65 92.65 182.06 92.65"/><polygon class="cls-2" points="175.6 56.02 175.6 57.45 177.03 57.45 177.03 60.33 175.6 60.33 175.6 61.76 179.19 61.76 179.19 56.02 175.6 56.02"/><polygon class="cls-2" points="175.6 65.36 175.6 66.79 177.03 66.79 177.03 69.66 175.6 69.66 175.6 71.1 179.19 71.1 179.19 65.36 175.6 65.36"/><rect class="cls-2" x="175.6" y="93.36" width="3.59" height="5.75"/><polygon class="cls-2" points="175.6 84.03 175.6 85.46 177.03 85.46 177.03 88.34 175.6 88.34 175.6 89.77 179.19 89.77 179.19 84.03 175.6 84.03"/><rect class="cls-2" x="175.6" y="112.04" width="3.59" height="5.75"/><polygon class="cls-2" points="175.6 102.7 175.6 104.14 177.03 104.14 177.03 107.01 175.6 107.01 175.6 108.45 179.19 108.45 179.19 102.7 175.6 102.7"/><rect class="cls-2" x="175.6" y="130.71" width="3.59" height="5.75"/><rect class="cls-2" x="182.06" y="129.27" width="3.59" height="5.75"/><polygon class="cls-2" points="175.6 121.37 175.6 122.81 177.03 122.81 177.03 125.68 175.6 125.68 175.6 127.12 179.19 127.12 179.19 121.37 175.6 121.37"/><polygon class="cls-2" points="189.24 121.37 189.24 122.81 190.68 122.81 190.68 125.68 189.24 125.68 189.24 127.12 192.83 127.12 192.83 121.37 189.24 121.37"/><rect class="cls-2" x="225.87" y="38.06" width="3.59" height="5.75"/><rect class="cls-2" x="225.87" y="47.4" width="3.59" height="5.75"/><rect class="cls-2" x="225.87" y="74.69" width="3.59" height="5.75"/><polygon class="cls-2" points="225.87 56.02 225.87 57.45 227.31 57.45 227.31 60.33 225.87 60.33 225.87 61.76 229.46 61.76 229.46 56.02 225.87 56.02"/><polygon class="cls-2" points="225.87 84.03 225.87 85.46 227.31 85.46 227.31 88.34 225.87 88.34 225.87 89.77 229.46 89.77 229.46 84.03 225.87 84.03"/><polygon class="cls-2" points="225.87 93.36 225.87 94.8 227.31 94.8 227.31 97.67 225.87 97.67 225.87 99.11 229.46 99.11 229.46 93.36 225.87 93.36"/><polygon class="cls-2" points="225.87 64.64 225.87 66.07 227.31 66.07 227.31 68.95 225.87 68.95 225.87 70.38 229.46 70.38 229.46 64.64 225.87 64.64"/><polygon class="cls-2" points="225.87 121.37 225.87 122.81 227.31 122.81 227.31 125.68 225.87 125.68 225.87 127.12 229.46 127.12 229.46 121.37 225.87 121.37"/><rect class="cls-2" x="175.6" y="149.38" width="3.59" height="5.75"/><rect class="cls-2" x="182.06" y="138.61" width="3.59" height="5.75"/><rect class="cls-2" x="175.6" y="173.8" width="3.59" height="5.75"/><rect class="cls-2" x="182.06" y="156.57" width="3.59" height="5.75"/><polygon class="cls-2" points="175.6 140.05 175.6 141.48 177.03 141.48 177.03 144.36 175.6 144.36 175.6 145.79 179.19 145.79 179.19 140.05 175.6 140.05"/><polygon class="cls-2" points="175.6 183.86 175.6 185.29 177.03 185.29 177.03 188.16 175.6 188.16 175.6 189.6 179.19 189.6 179.19 183.86 175.6 183.86"/><rect class="cls-2" x="215.1" y="29.45" width="3.59" height="5.75"/><rect class="cls-2" x="215.1" y="74.69" width="3.59" height="5.75"/><rect class="cls-2" x="215.1" y="167.34" width="5.03" height="0.72"/><polygon class="cls-2" points="215.1 46.68 215.1 48.12 216.53 48.12 216.53 50.99 215.1 50.99 215.1 52.43 218.69 52.43 218.69 46.68 215.1 46.68"/><polygon class="cls-2" points="215.1 56.02 215.1 57.45 216.53 57.45 216.53 60.33 215.1 60.33 215.1 61.76 218.69 61.76 218.69 56.02 215.1 56.02"/><polygon class="cls-2" points="215.1 65.36 215.1 66.79 216.53 66.79 216.53 69.66 215.1 69.66 215.1 71.1 218.69 71.1 218.69 65.36 215.1 65.36"/><rect class="cls-2" x="215.1" y="93.36" width="3.59" height="5.75"/><polygon class="cls-2" points="215.1 84.03 215.1 85.46 216.53 85.46 216.53 88.34 215.1 88.34 215.1 89.77 218.69 89.77 218.69 84.03 215.1 84.03"/><rect class="cls-2" x="215.1" y="112.04" width="3.59" height="5.75"/><polygon class="cls-2" points="215.1 102.7 215.1 104.14 216.53 104.14 216.53 107.01 215.1 107.01 215.1 108.45 218.69 108.45 218.69 102.7 215.1 102.7"/><rect class="cls-2" x="215.1" y="130.71" width="3.59" height="5.75"/><polygon class="cls-2" points="215.1 121.37 215.1 122.81 216.53 122.81 216.53 125.68 215.1 125.68 215.1 127.12 218.69 127.12 218.69 121.37 215.1 121.37"/><rect class="cls-2" x="215.1" y="149.38" width="3.59" height="5.75"/><rect class="cls-2" x="215.1" y="173.8" width="3.59" height="5.75"/><polygon class="cls-2" points="215.1 140.05 215.1 141.48 216.53 141.48 216.53 144.36 215.1 144.36 215.1 145.79 218.69 145.79 218.69 140.05 215.1 140.05"/><polygon class="cls-2" points="215.1 183.86 215.1 185.29 216.53 185.29 216.53 188.16 215.1 188.16 215.1 189.6 218.69 189.6 218.69 183.86 215.1 183.86"/><rect class="cls-2" x="232.33" y="29.45" width="3.59" height="5.75"/><rect class="cls-2" x="232.33" y="74.69" width="3.59" height="5.75"/><rect class="cls-2" x="232.33" y="167.34" width="5.03" height="0.72"/><polygon class="cls-2" points="232.33 46.68 232.33 48.12 233.77 48.12 233.77 50.99 232.33 50.99 232.33 52.43 235.93 52.43 235.93 46.68 232.33 46.68"/><polygon class="cls-2" points="232.33 56.02 232.33 57.45 233.77 57.45 233.77 60.33 232.33 60.33 232.33 61.76 235.93 61.76 235.93 56.02 232.33 56.02"/><polygon class="cls-2" points="232.33 65.36 232.33 66.79 233.77 66.79 233.77 69.66 232.33 69.66 232.33 71.1 235.93 71.1 235.93 65.36 232.33 65.36"/><rect class="cls-2" x="232.33" y="93.36" width="3.59" height="5.75"/><polygon class="cls-2" points="232.33 84.03 232.33 85.46 233.77 85.46 233.77 88.34 232.33 88.34 232.33 89.77 235.93 89.77 235.93 84.03 232.33 84.03"/><rect class="cls-2" x="232.33" y="112.04" width="3.59" height="5.75"/><polygon class="cls-2" points="232.33 102.7 232.33 104.14 233.77 104.14 233.77 107.01 232.33 107.01 232.33 108.45 235.93 108.45 235.93 102.7 232.33 102.7"/><rect class="cls-2" x="232.33" y="130.71" width="3.59" height="5.75"/><polygon class="cls-2" points="232.33 121.37 232.33 122.81 233.77 122.81 233.77 125.68 232.33 125.68 232.33 127.12 235.93 127.12 235.93 121.37 232.33 121.37"/><rect class="cls-2" x="232.33" y="149.38" width="3.59" height="5.75"/><rect class="cls-2" x="232.33" y="173.8" width="3.59" height="5.75"/><polygon class="cls-2" points="232.33 140.05 232.33 141.48 233.77 141.48 233.77 144.36 232.33 144.36 232.33 145.79 235.93 145.79 235.93 140.05 232.33 140.05"/><polygon class="cls-2" points="232.33 183.86 232.33 185.29 233.77 185.29 233.77 188.16 232.33 188.16 232.33 189.6 235.93 189.6 235.93 183.86 232.33 183.86"/><polygon class="cls-2" points="182.06 173.8 182.06 175.24 183.5 175.24 183.5 178.11 182.06 178.11 182.06 179.55 185.65 179.55 185.65 173.8 182.06 173.8"/><polygon class="cls-2" points="182.06 183.14 182.06 184.57 183.5 184.57 183.5 187.45 182.06 187.45 182.06 188.88 185.65 188.88 185.65 183.14 182.06 183.14"/><polygon class="cls-2" points="163.39 74.69 163.39 76.13 164.82 76.13 164.82 79 163.39 79 163.39 80.44 166.98 80.44 166.98 74.69 163.39 74.69"/><polygon class="cls-2" points="163.39 111.32 163.39 112.76 164.82 112.76 164.82 115.63 163.39 115.63 163.39 117.06 166.98 117.06 166.98 111.32 163.39 111.32"/><polygon class="cls-2" points="163.39 120.66 163.39 122.09 164.82 122.09 164.82 124.97 163.39 124.97 163.39 126.4 166.98 126.4 166.98 120.66 163.39 120.66"/><polygon class="cls-2" points="163.39 139.33 163.39 140.76 164.82 140.76 164.82 143.64 163.39 143.64 163.39 145.07 166.98 145.07 166.98 139.33 163.39 139.33"/><polygon class="cls-2" points="163.39 165.9 163.39 167.34 164.82 167.34 164.82 170.21 163.39 170.21 163.39 171.65 166.98 171.65 166.98 165.9 163.39 165.9"/><polygon class="cls-2" points="163.39 173.8 163.39 175.24 164.82 175.24 164.82 178.11 163.39 178.11 163.39 179.55 166.98 179.55 166.98 173.8 163.39 173.8"/><rect class="cls-2" x="200.73" y="30.88" width="3.59" height="5.75"/><rect class="cls-2" x="200.73" y="40.22" width="3.59" height="5.75"/><rect class="cls-2" x="199.3" y="50.27" width="5.03" height="0.72"/><rect class="cls-2" x="199.3" y="96.24" width="5.03" height="0.72"/><rect class="cls-2" x="199.3" y="104.14" width="5.03" height="0.72"/><polygon class="cls-2" points="200.73 56.74 200.73 58.17 202.17 58.17 202.17 61.05 200.73 61.05 200.73 62.48 204.32 62.48 204.32 56.74 200.73 56.74"/><polygon class="cls-2" points="200.73 74.69 200.73 76.13 202.17 76.13 202.17 79 200.73 79 200.73 80.44 204.32 80.44 204.32 74.69 200.73 74.69"/><polygon class="cls-2" points="200.73 111.32 200.73 112.76 202.17 112.76 202.17 115.63 200.73 115.63 200.73 117.06 204.32 117.06 204.32 111.32 200.73 111.32"/><rect class="cls-2" x="241.67" y="93.36" width="3.59" height="5.75"/><rect class="cls-3" x="241.67" y="102.7" width="3.59" height="5.75"/><rect class="cls-2" x="240.23" y="112.76" width="5.03" height="0.72"/><rect class="cls-2" x="240.23" y="158.72" width="5.03" height="0.72"/><rect class="cls-2" x="240.23" y="166.62" width="5.03" height="0.72"/><polygon class="cls-2" points="241.67 119.22 241.67 120.66 243.11 120.66 243.11 123.53 241.67 123.53 241.67 124.97 245.26 124.97 245.26 119.22 241.67 119.22"/><polygon class="cls-2" points="241.67 137.17 241.67 138.61 243.11 138.61 243.11 141.48 241.67 141.48 241.67 142.92 245.26 142.92 245.26 137.17 241.67 137.17"/><polygon class="cls-2" points="241.67 173.8 241.67 175.24 243.11 175.24 243.11 178.11 241.67 178.11 241.67 179.55 245.26 179.55 245.26 173.8 241.67 173.8"/><rect class="cls-2" x="253.16" y="30.88" width="3.59" height="5.75"/><rect class="cls-2" x="265.37" y="29.45" width="3.59" height="5.75"/><rect class="cls-2" x="271.83" y="29.45" width="3.59" height="5.75"/><rect class="cls-2" x="271.83" y="46.68" width="3.59" height="5.75"/><rect class="cls-2" x="279.02" y="38.06" width="3.59" height="5.75"/><rect class="cls-2" x="279.02" y="47.4" width="3.59" height="5.75"/><rect class="cls-2" x="271.83" y="65.36" width="3.59" height="5.75"/><rect class="cls-2" x="279.02" y="74.69" width="3.59" height="5.75"/><rect class="cls-2" x="271.83" y="109.88" width="3.59" height="5.75"/><rect class="cls-2" x="265.37" y="74.69" width="3.59" height="5.75"/><rect class="cls-3" x="253.16" y="40.22" width="3.59" height="5.75"/><rect class="cls-2" x="253.16" y="129.99" width="3.59" height="5.75"/><rect class="cls-3" x="253.16" y="148.67" width="3.59" height="5.75"/><rect class="cls-2" x="253.16" y="158" width="3.59" height="5.75"/><rect class="cls-2" x="251.73" y="50.27" width="5.03" height="0.72"/><rect class="cls-2" x="271.12" y="58.89" width="5.03" height="0.72"/><rect class="cls-2" x="251.73" y="96.24" width="5.03" height="0.72"/><rect class="cls-2" x="251.73" y="104.14" width="5.03" height="0.72"/><rect class="cls-2" x="271.12" y="150.1" width="5.03" height="0.72"/><rect class="cls-2" x="265.37" y="167.34" width="5.03" height="0.72"/><polygon class="cls-2" points="253.16 56.74 253.16 58.17 254.6 58.17 254.6 61.05 253.16 61.05 253.16 62.48 256.75 62.48 256.75 56.74 253.16 56.74"/><polygon class="cls-2" points="265.37 46.68 265.37 48.12 266.81 48.12 266.81 50.99 265.37 50.99 265.37 52.43 268.96 52.43 268.96 46.68 265.37 46.68"/><polygon class="cls-2" points="279.02 56.02 279.02 57.45 280.45 57.45 280.45 60.33 279.02 60.33 279.02 61.76 282.61 61.76 282.61 56.02 279.02 56.02"/><polygon class="cls-2" points="279.02 84.03 279.02 85.46 280.45 85.46 280.45 88.34 279.02 88.34 279.02 89.77 282.61 89.77 282.61 84.03 279.02 84.03"/><polygon class="cls-2" points="279.02 93.36 279.02 94.8 280.45 94.8 280.45 97.67 279.02 97.67 279.02 99.11 282.61 99.11 282.61 93.36 279.02 93.36"/><polygon class="cls-2" points="279.02 64.64 279.02 66.07 280.45 66.07 280.45 68.95 279.02 68.95 279.02 70.38 282.61 70.38 282.61 64.64 279.02 64.64"/><polygon class="cls-2" points="271.83 38.06 271.83 39.5 273.27 39.5 273.27 42.37 271.83 42.37 271.83 43.81 275.43 43.81 275.43 38.06 271.83 38.06"/><rect class="cls-2" x="271.83" y="84.03" width="3.59" height="5.75"/><rect class="cls-2" x="271.83" y="101.26" width="3.59" height="5.75"/><polygon class="cls-2" points="271.83 92.65 271.83 94.08 273.27 94.08 273.27 96.95 271.83 96.95 271.83 98.39 275.43 98.39 275.43 92.65 271.83 92.65"/><polygon class="cls-2" points="265.37 56.02 265.37 57.45 266.81 57.45 266.81 60.33 265.37 60.33 265.37 61.76 268.96 61.76 268.96 56.02 265.37 56.02"/><polygon class="cls-2" points="265.37 65.36 265.37 66.79 266.81 66.79 266.81 69.66 265.37 69.66 265.37 71.1 268.96 71.1 268.96 65.36 265.37 65.36"/><rect class="cls-2" x="265.37" y="93.36" width="3.59" height="5.75"/><polygon class="cls-2" points="265.37 84.03 265.37 85.46 266.81 85.46 266.81 88.34 265.37 88.34 265.37 89.77 268.96 89.77 268.96 84.03 265.37 84.03"/><rect class="cls-2" x="265.37" y="112.04" width="3.59" height="5.75"/><polygon class="cls-2" points="265.37 102.7 265.37 104.14 266.81 104.14 266.81 107.01 265.37 107.01 265.37 108.45 268.96 108.45 268.96 102.7 265.37 102.7"/><rect class="cls-2" x="265.37" y="130.71" width="3.59" height="5.75"/><rect class="cls-2" x="271.83" y="129.27" width="3.59" height="5.75"/><polygon class="cls-2" points="265.37 121.37 265.37 122.81 266.81 122.81 266.81 125.68 265.37 125.68 265.37 127.12 268.96 127.12 268.96 121.37 265.37 121.37"/><polygon class="cls-2" points="279.02 121.37 279.02 122.81 280.45 122.81 280.45 125.68 279.02 125.68 279.02 127.12 282.61 127.12 282.61 121.37 279.02 121.37"/><rect class="cls-3" x="315.64" y="38.06" width="3.59" height="5.75"/><rect class="cls-2" x="315.64" y="47.4" width="3.59" height="5.75"/><rect class="cls-2" x="315.64" y="74.69" width="3.59" height="5.75"/><polygon class="cls-2" points="315.64 56.02 315.64 57.45 317.08 57.45 317.08 60.33 315.64 60.33 315.64 61.76 319.24 61.76 319.24 56.02 315.64 56.02"/><polygon class="cls-2" points="315.64 84.03 315.64 85.46 317.08 85.46 317.08 88.34 315.64 88.34 315.64 89.77 319.24 89.77 319.24 84.03 315.64 84.03"/><polygon class="cls-2" points="315.64 93.36 315.64 94.8 317.08 94.8 317.08 97.67 315.64 97.67 315.64 99.11 319.24 99.11 319.24 93.36 315.64 93.36"/><polygon class="cls-2" points="315.64 64.64 315.64 66.07 317.08 66.07 317.08 68.95 315.64 68.95 315.64 70.38 319.24 70.38 319.24 64.64 315.64 64.64"/><polygon class="cls-2" points="315.64 121.37 315.64 122.81 317.08 122.81 317.08 125.68 315.64 125.68 315.64 127.12 319.24 127.12 319.24 121.37 315.64 121.37"/><rect class="cls-2" x="265.37" y="149.38" width="3.59" height="5.75"/><rect class="cls-2" x="271.83" y="138.61" width="3.59" height="5.75"/><rect class="cls-2" x="265.37" y="173.8" width="3.59" height="5.75"/><rect class="cls-2" x="271.83" y="156.57" width="3.59" height="5.75"/><polygon class="cls-2" points="265.37 140.05 265.37 141.48 266.81 141.48 266.81 144.36 265.37 144.36 265.37 145.79 268.96 145.79 268.96 140.05 265.37 140.05"/><polygon class="cls-2" points="265.37 183.86 265.37 185.29 266.81 185.29 266.81 188.16 265.37 188.16 265.37 189.6 268.96 189.6 268.96 183.86 265.37 183.86"/><rect class="cls-2" x="304.87" y="29.45" width="3.59" height="5.75"/><rect class="cls-3" x="304.87" y="74.69" width="3.59" height="5.75"/><rect class="cls-2" x="304.87" y="167.34" width="5.03" height="0.72"/><polygon class="cls-2" points="304.87 46.68 304.87 48.12 306.31 48.12 306.31 50.99 304.87 50.99 304.87 52.43 308.46 52.43 308.46 46.68 304.87 46.68"/><polygon class="cls-2" points="304.87 56.02 304.87 57.45 306.31 57.45 306.31 60.33 304.87 60.33 304.87 61.76 308.46 61.76 308.46 56.02 304.87 56.02"/><polygon class="cls-2" points="304.87 65.36 304.87 66.79 306.31 66.79 306.31 69.66 304.87 69.66 304.87 71.1 308.46 71.1 308.46 65.36 304.87 65.36"/><rect class="cls-2" x="304.87" y="93.36" width="3.59" height="5.75"/><polygon class="cls-2" points="304.87 84.03 304.87 85.46 306.31 85.46 306.31 88.34 304.87 88.34 304.87 89.77 308.46 89.77 308.46 84.03 304.87 84.03"/><rect class="cls-2" x="304.87" y="112.04" width="3.59" height="5.75"/><polygon class="cls-2" points="304.87 102.7 304.87 104.14 306.31 104.14 306.31 107.01 304.87 107.01 304.87 108.45 308.46 108.45 308.46 102.7 304.87 102.7"/><rect class="cls-2" x="304.87" y="130.71" width="3.59" height="5.75"/><polygon class="cls-2" points="304.87 121.37 304.87 122.81 306.31 122.81 306.31 125.68 304.87 125.68 304.87 127.12 308.46 127.12 308.46 121.37 304.87 121.37"/><rect class="cls-2" x="304.87" y="149.38" width="3.59" height="5.75"/><rect class="cls-3" x="304.87" y="173.8" width="3.59" height="5.75"/><polygon class="cls-2" points="304.87 140.05 304.87 141.48 306.31 141.48 306.31 144.36 304.87 144.36 304.87 145.79 308.46 145.79 308.46 140.05 304.87 140.05"/><polygon class="cls-2" points="304.87 183.86 304.87 185.29 306.31 185.29 306.31 188.16 304.87 188.16 304.87 189.6 308.46 189.6 308.46 183.86 304.87 183.86"/><rect class="cls-2" x="322.11" y="29.45" width="3.59" height="5.75"/><rect class="cls-2" x="322.11" y="74.69" width="3.59" height="5.75"/><rect class="cls-2" x="322.11" y="167.34" width="5.03" height="0.72"/><polygon class="cls-2" points="322.11 46.68 322.11 48.12 323.54 48.12 323.54 50.99 322.11 50.99 322.11 52.43 325.7 52.43 325.7 46.68 322.11 46.68"/><polygon class="cls-2" points="322.11 56.02 322.11 57.45 323.54 57.45 323.54 60.33 322.11 60.33 322.11 61.76 325.7 61.76 325.7 56.02 322.11 56.02"/><polygon class="cls-2" points="322.11 65.36 322.11 66.79 323.54 66.79 323.54 69.66 322.11 69.66 322.11 71.1 325.7 71.1 325.7 65.36 322.11 65.36"/><rect class="cls-2" x="322.11" y="93.36" width="3.59" height="5.75"/><polygon class="cls-2" points="322.11 84.03 322.11 85.46 323.54 85.46 323.54 88.34 322.11 88.34 322.11 89.77 325.7 89.77 325.7 84.03 322.11 84.03"/><rect class="cls-3" x="322.11" y="112.04" width="3.59" height="5.75"/><polygon class="cls-2" points="322.11 102.7 322.11 104.14 323.54 104.14 323.54 107.01 322.11 107.01 322.11 108.45 325.7 108.45 325.7 102.7 322.11 102.7"/><rect class="cls-2" x="322.11" y="130.71" width="3.59" height="5.75"/><polygon class="cls-2" points="322.11 121.37 322.11 122.81 323.54 122.81 323.54 125.68 322.11 125.68 322.11 127.12 325.7 127.12 325.7 121.37 322.11 121.37"/><rect class="cls-2" x="322.11" y="149.38" width="3.59" height="5.75"/><rect class="cls-2" x="322.11" y="173.8" width="3.59" height="5.75"/><polygon class="cls-2" points="322.11 140.05 322.11 141.48 323.54 141.48 323.54 144.36 322.11 144.36 322.11 145.79 325.7 145.79 325.7 140.05 322.11 140.05"/><polygon class="cls-2" points="322.11 183.86 322.11 185.29 323.54 185.29 323.54 188.16 322.11 188.16 322.11 189.6 325.7 189.6 325.7 183.86 322.11 183.86"/><polygon class="cls-2" points="271.83 173.8 271.83 175.24 273.27 175.24 273.27 178.11 271.83 178.11 271.83 179.55 275.43 179.55 275.43 173.8 271.83 173.8"/><polygon class="cls-2" points="271.83 183.14 271.83 184.57 273.27 184.57 273.27 187.45 271.83 187.45 271.83 188.88 275.43 188.88 275.43 183.14 271.83 183.14"/><polygon class="cls-2" points="253.16 74.69 253.16 76.13 254.6 76.13 254.6 79 253.16 79 253.16 80.44 256.75 80.44 256.75 74.69 253.16 74.69"/><polygon class="cls-2" points="253.16 111.32 253.16 112.76 254.6 112.76 254.6 115.63 253.16 115.63 253.16 117.06 256.75 117.06 256.75 111.32 253.16 111.32"/><polygon class="cls-2" points="253.16 120.66 253.16 122.09 254.6 122.09 254.6 124.97 253.16 124.97 253.16 126.4 256.75 126.4 256.75 120.66 253.16 120.66"/><polygon class="cls-2" points="253.16 139.33 253.16 140.76 254.6 140.76 254.6 143.64 253.16 143.64 253.16 145.07 256.75 145.07 256.75 139.33 253.16 139.33"/><polygon class="cls-2" points="253.16 165.9 253.16 167.34 254.6 167.34 254.6 170.21 253.16 170.21 253.16 171.65 256.75 171.65 256.75 165.9 253.16 165.9"/><polygon class="cls-2" points="253.16 173.8 253.16 175.24 254.6 175.24 254.6 178.11 253.16 178.11 253.16 179.55 256.75 179.55 256.75 173.8 253.16 173.8"/><rect class="cls-2" x="290.51" y="30.88" width="3.59" height="5.75"/><rect class="cls-2" x="290.51" y="40.22" width="3.59" height="5.75"/><rect class="cls-2" x="289.07" y="50.27" width="5.03" height="0.72"/><rect class="cls-2" x="289.07" y="96.24" width="5.03" height="0.72"/><rect class="cls-2" x="289.07" y="104.14" width="5.03" height="0.72"/><polygon class="cls-2" points="290.51 56.74 290.51 58.17 291.94 58.17 291.94 61.05 290.51 61.05 290.51 62.48 294.1 62.48 294.1 56.74 290.51 56.74"/><polygon class="cls-2" points="290.51 74.69 290.51 76.13 291.94 76.13 291.94 79 290.51 79 290.51 80.44 294.1 80.44 294.1 74.69 290.51 74.69"/><polygon class="cls-2" points="290.51 111.32 290.51 112.76 291.94 112.76 291.94 115.63 290.51 115.63 290.51 117.06 294.1 117.06 294.1 111.32 290.51 111.32"/><rect class="cls-2" x="331.44" y="93.36" width="3.59" height="5.75"/><rect class="cls-2" x="331.44" y="102.7" width="3.59" height="5.75"/><rect class="cls-2" x="330.01" y="112.76" width="5.03" height="0.72"/><rect class="cls-2" x="330.01" y="158.72" width="5.03" height="0.72"/><rect class="cls-2" x="330.01" y="166.62" width="5.03" height="0.72"/><polygon class="cls-2" points="331.44 119.22 331.44 120.66 332.88 120.66 332.88 123.53 331.44 123.53 331.44 124.97 335.04 124.97 335.04 119.22 331.44 119.22"/><polygon class="cls-2" points="331.44 137.17 331.44 138.61 332.88 138.61 332.88 141.48 331.44 141.48 331.44 142.92 335.04 142.92 335.04 137.17 331.44 137.17"/><polygon class="cls-2" points="331.44 173.8 331.44 175.24 332.88 175.24 332.88 178.11 331.44 178.11 331.44 179.55 335.04 179.55 335.04 173.8 331.44 173.8"/><rect class="cls-4" x="99.79" y="328.81" width="385.16" height="1.19"/><path class="cls-4" d="M179.41,188.17v24.2l3.25,14.9s-.46,9.3,0,12.1-.46,7.44-3.25,7.44-4.19,7-4.19,7-.93,2.8-3.26,3.26-2.33,0-2.33,0l-1.86,4.66L129.14,287.3l7.45,18.62s11.64-4.19,12.57-5.59,8.84,1.86,8.84-1.39,1.39-11.64,4.19-12.1,26.06-11.17,26.06-11.17,12.1-13.5,13-18.62,5.12-19.55,5.12-19.55L218,257.05v39.09l-1.86,20.95,20.48-2.8s-1.86-13,0-14.89,4.65-24.2,2.79-27,.93-15.36,0-17.22-.46-15.36-2.79-19.08-16.29-41.89-16.29-41.89Z"/><path class="cls-4" d="M219,316.16s-7,11.63-2.32,13,13.49,0,14.42,0,17.69.46,17.69.46,11.17-2.33,11.17-5.58-7-3.26-9.31-3.73-16.75-6-16.75-6Z"/><path class="cls-4" d="M131.28,287.83s-13.45-1.78-12.88,3,5.36,12.38,5.73,13.24c.25.58,3.19,7.9,5.07,12.57a27.1,27.1,0,0,0,6,9.14c1.83,1.83,3.82,3.3,5.13,2.73,3-1.29.21-7.7-.28-10s-1.11-17.78-1.11-17.78Z"/><path class="cls-5" d="M224.78,111.15l14.89-34.44s-1.39-3.25-4.65-2.79c0,0-4.42-11.4-12.8-11.4,0,0-12.56-7-16.29,0,0,0-7.91,7-7.44,13.5s.93,11.17.93,11.17-7.45.93-6,4.65,1.86,3.72,0,5.12l-1.86,1.39s-38.63,34.91-17.22,86.1l1.86,7.91v7.45s47,.46,47,0-.93-3.26.93-5.12a7.26,7.26,0,0,0,1.86-4.65s-1.86-9.31-.93-12.1,1.4-14.9-.46-17.69-.93-25.13-.93-25.13l4.19-7.91-1.4-4.66L225,117.9Z"/><path class="cls-6" d="M220.83,204.46s-5.59-15.36-5.12-18.15-.93-8.37-.93-8.37l-1.87-37.7s7.92-33.51-9.77-39.09c0,0-4.47,1.95-8.14,8.23-3.63,1.62-8,5.7-9.08,16-1.86,18.15,6.52,64.69,10.71,72.6s7,13.49,7,13.49L208,209.5l.28.55Z"/><circle class="cls-7" cx="223.39" cy="105.57" r="1.4"/><rect class="cls-1" x="222.92" y="105.57" width="0.93" height="21.87"/><path class="cls-8" d="M206.63,206.09l3.72,7.91s8.38-2.79,8.38-4.19-3.72-7.44-3.72-7.44Z"/><path class="cls-5" d="M201.28,101.15s-10.7,4.65-12.57,22.8,6.52,64.69,10.71,72.6,7,13.5,7,13.5L219,204.46s-5.58-15.36-5.12-18.15-.93-8.37-.93-8.37l-1.86-37.7S219,106.73,201.28,101.15Z"/></svg>