<svg id="Layer_1" data-name="Layer 1" xmlns="http://www.w3.org/2000/svg" viewBox="0 0 459.8 233.53"><defs><style>.cls-1{fill:#f2f2f2;}.cls-2{fill:#fff;}.cls-3{fill:#3f3d56;}.cls-4{fill:#ee4693;}.cls-5{fill:#ccc;}.cls-6{fill:#a0616a;}.cls-7{fill:#10c0e8;}.cls-8{fill:#2f2e41;}</style></defs><title>Artboard 55</title><path class="cls-1" d="M440.75,224.12c-13.38,9.65-30.72,10.13-47.49,8.95q-3.51-.25-7-.57h0l-.33,0-1.42-.13.11.21.35.66-.38-.66-.11-.19c-4.34-7.56-8.65-15.4-9.75-24-1.14-8.95,2.06-19.1,9.94-23.5a16.67,16.67,0,0,1,3.26-1.37q.7-.21,1.44-.36a17.06,17.06,0,0,1,19.83,22.17c6.68-6.86,5.43-18,3.13-27.27s-5.11-19.63-.41-28a18.42,18.42,0,0,1,12.36-8.69l.47-.1a24.9,24.9,0,0,1,17.88,3.13c9.86,6.21,14.92,18,16.56,29.52C461.83,192.45,456,213.16,440.75,224.12Z"/><path class="cls-2" d="M436.43,194.37a42.3,42.3,0,0,1-2.92,11.92,36.34,36.34,0,0,1-5.7,9.31,47,47,0,0,1-18.08,13,68,68,0,0,1-16.47,4.43q-3.51-.25-7-.57h0l-.33,0-1.42-.13.11.21.35.66-.38-.66-.11-.19a37.12,37.12,0,0,0,3.45-48.9q.7-.21,1.44-.36a39.43,39.43,0,0,1,3.57,5.92,38.32,38.32,0,0,1,3.31,23.86,39.27,39.27,0,0,1-9.94,19.57l1.34-.11A68.89,68.89,0,0,0,412,226.14a43.85,43.85,0,0,0,16.4-13.46c4.6-6.34,6.62-14,7-21.72a91.74,91.74,0,0,0-2.6-24.81A103.73,103.73,0,0,0,424,142.32a.75.75,0,0,1,.3-1,.61.61,0,0,1,.47-.1.55.55,0,0,1,.37.31c.48.94.95,1.87,1.4,2.82a105.12,105.12,0,0,1,8.24,24.73A84.57,84.57,0,0,1,436.43,194.37Z"/><path class="cls-1" d="M261.69,228.38c6.83,4.93,15.69,5.18,24.26,4.57,1.19-.08,2.38-.18,3.56-.29h0l.17,0,.72-.06-.05.1-.18.34.19-.33.06-.11c2.22-3.86,4.42-7.86,5-12.27.58-4.57-1.05-9.75-5.08-12a7.88,7.88,0,0,0-1.67-.7l-.73-.19a8.72,8.72,0,0,0-10.13,11.33c-3.41-3.5-2.77-9.18-1.6-13.93s2.61-10,.21-14.29a9.42,9.42,0,0,0-6.31-4.44l-.24-.05a12.73,12.73,0,0,0-9.14,1.6c-5,3.17-7.62,9.19-8.46,15.08C250.92,212.2,253.91,222.78,261.69,228.38Z"/><path class="cls-2" d="M263.89,213.18a21.24,21.24,0,0,0,1.5,6.09A18.44,18.44,0,0,0,268.3,224a24.06,24.06,0,0,0,9.23,6.66A34.16,34.16,0,0,0,286,233c1.19-.08,2.38-.18,3.56-.29h0l.17,0,.72-.06-.05.1-.18.34.19-.33.06-.11a19,19,0,0,1-1.77-25l-.73-.19a21.15,21.15,0,0,0-1.82,3,19.58,19.58,0,0,0-1.69,12.19,20,20,0,0,0,5.07,10l-.68,0a35.2,35.2,0,0,1-12.42-3.17,22.45,22.45,0,0,1-8.38-6.87,20.24,20.24,0,0,1-3.56-11.1,46.65,46.65,0,0,1,1.33-12.67,53.64,53.64,0,0,1,4.47-12.18.38.38,0,0,0-.15-.5.3.3,0,0,0-.24-.05.26.26,0,0,0-.19.16c-.25.48-.49,1-.72,1.44a54,54,0,0,0-4.21,12.63A43.42,43.42,0,0,0,263.89,213.18Z"/><path class="cls-3" d="M79.4,6.4H8.23A8.25,8.25,0,0,0,0,14.63V126.48a8.25,8.25,0,0,0,8.23,8.23H79.4a8.25,8.25,0,0,0,8.24-8.23V14.63A8.25,8.25,0,0,0,79.4,6.4Zm7.27,120.08a7.28,7.28,0,0,1-7.27,7.26H8.23A7.27,7.27,0,0,1,1,126.48V14.63A7.26,7.26,0,0,1,8.23,7.37H79.4a7.27,7.27,0,0,1,7.27,7.26Z"/><path class="cls-3" d="M231.92,134.71H160.75a8.25,8.25,0,0,1-8.24-8.23V14.63a8.25,8.25,0,0,1,8.24-8.23h71.17a8.25,8.25,0,0,1,8.23,8.23V126.48A8.25,8.25,0,0,1,231.92,134.71ZM160.75,7.37a7.27,7.27,0,0,0-7.27,7.26V126.48a7.28,7.28,0,0,0,7.27,7.26h71.17a7.27,7.27,0,0,0,7.26-7.26V14.63a7.26,7.26,0,0,0-7.26-7.26Z"/><path class="cls-3" d="M129.76,71.28H100.22a.49.49,0,0,1,0-1h29.54a.49.49,0,0,1,0,1Z"/><path class="cls-3" d="M123.46,84.56a.49.49,0,0,1-.48-.48.48.48,0,0,1,.19-.39L138.58,72a1.44,1.44,0,0,0,.27-2,1.2,1.2,0,0,0-.27-.28L123.17,57.9a.49.49,0,1,1,.59-.77h0l15.41,11.74a2.42,2.42,0,0,1,.45,3.39,2.18,2.18,0,0,1-.45.46L123.76,84.46A.54.54,0,0,1,123.46,84.56Z"/><path class="cls-3" d="M281.79,71.28H252.25a.49.49,0,0,1,0-1h29.54a.49.49,0,0,1,0,1Z"/><path class="cls-3" d="M275.5,84.56a.49.49,0,0,1-.49-.48.48.48,0,0,1,.19-.39L290.61,72a1.44,1.44,0,0,0,.27-2,1.2,1.2,0,0,0-.27-.28L275.2,57.9a.49.49,0,0,1,.59-.77h0L291.2,68.87a2.41,2.41,0,0,1,.45,3.39,2.18,2.18,0,0,1-.45.46L275.79,84.46A.53.53,0,0,1,275.5,84.56Z"/><path class="cls-4" d="M205.05,51.67h-17A4.11,4.11,0,0,1,184,47.56V31.09A4.11,4.11,0,0,1,188.1,27h17a4.11,4.11,0,0,1,4.11,4.11V47.56A4.11,4.11,0,0,1,205.05,51.67Z"/><path class="cls-2" d="M208.19,51.43a.49.49,0,0,1-.34-.14L184.61,28.05a.49.49,0,1,1,.69-.69L208.54,50.6a.49.49,0,0,1,0,.69.5.5,0,0,1-.35.14Z"/><path class="cls-2" d="M185,51.43a.49.49,0,0,1-.48-.49.49.49,0,0,1,.14-.34l23.24-23.24a.49.49,0,1,1,.69.69h0L185.3,51.29A.5.5,0,0,1,185,51.43Z"/><path class="cls-3" d="M212.07,77.09H180.6a6.05,6.05,0,1,1,0-12.1h31.47a6,6,0,1,1,0,12.1ZM180.6,66a5.09,5.09,0,1,0,0,10.17h31.47a5.09,5.09,0,0,0,0-10.17Z"/><path class="cls-3" d="M212.07,95.49H180.6a6.06,6.06,0,1,1,0-12.11h31.47a6.06,6.06,0,0,1,0,12.11ZM180.6,84.35a5.09,5.09,0,1,0,0,10.17h31.47a5.09,5.09,0,0,0,0-10.17Z"/><path class="cls-3" d="M212.07,113.89H180.6a6.06,6.06,0,1,1,0-12.11h31.47a6.06,6.06,0,0,1,0,12.11ZM180.6,102.75a5.09,5.09,0,1,0,0,10.17h31.47a5.09,5.09,0,0,0,0-10.17Z"/><path class="cls-3" d="M378.06.11,307.84,11.76a8.25,8.25,0,0,0-6.77,9.47l18.31,110.34a8.24,8.24,0,0,0,9.47,6.77l70.21-11.65a8.26,8.26,0,0,0,6.78-9.47L387.53,6.88A8.24,8.24,0,0,0,378.06.11Zm26.82,117.27a7.27,7.27,0,0,1-6,8.35l-70.22,11.65a7.27,7.27,0,0,1-8.35-6L302,21.07a7.27,7.27,0,0,1,6-8.35L378.22,1.07a7.26,7.26,0,0,1,8.35,6Z"/><path class="cls-5" d="M365.69,45.35l-31.05,5.16a6.05,6.05,0,0,1-2-11.94h0l31-5.16a6.05,6.05,0,0,1,2,11.94Zm-32.87-5.83a5.08,5.08,0,0,0,1.66,10l31-5.15a5.08,5.08,0,0,0-1.66-10Z"/><path class="cls-5" d="M369.34,67.32l-31,5.16a6.05,6.05,0,1,1-2-11.94h0l31-5.16a6.05,6.05,0,1,1,2,11.94Zm-32.87-5.83a5.08,5.08,0,0,0,1.66,10l31.05-5.15a5.08,5.08,0,0,0-1.67-10Z"/><path class="cls-5" d="M373,89.3l-31,5.15a6.05,6.05,0,1,1-2-11.94h0L371,77.36a6.05,6.05,0,1,1,2,11.94Zm-32.87-5.84a5.09,5.09,0,0,0,1.66,10h0l31-5.15a5.08,5.08,0,0,0-1.65-10h0Z"/><path class="cls-5" d="M376.63,111.27l-31.05,5.15a6.05,6.05,0,0,1-2-11.94h0l31-5.15a6.05,6.05,0,0,1,2,11.94Zm-32.87-5.84a5.09,5.09,0,0,0,1.66,10h0l31.05-5.16a5.08,5.08,0,0,0-1.66-10Z"/><path class="cls-3" d="M388.11,13.36l-85.5,14.19a.49.49,0,0,1-.56-.4.5.5,0,0,1,.4-.56h0L388,12.4a.5.5,0,0,1,.56.4.49.49,0,0,1-.4.56Z"/><circle class="cls-4" cx="311.9" cy="18.45" r="3.39"/><path class="cls-3" d="M379.41,5.29l-9.56,1.58a.48.48,0,0,1-.15-1l9.55-1.59a.49.49,0,1,1,.16,1Z"/><path class="cls-3" d="M379.88,8.15l-9.55,1.59a.5.5,0,0,1-.56-.4.49.49,0,0,1,.4-.56l9.55-1.58a.48.48,0,1,1,.16,1Z"/><path class="cls-3" d="M380.36,11l-9.55,1.58a.48.48,0,1,1-.16-.95h0l9.55-1.59a.49.49,0,1,1,.16,1Z"/><path class="cls-4" d="M62,79.27H25.66a4.11,4.11,0,0,1-4.11-4.12V38.36a4.11,4.11,0,0,1,4.11-4.12H62a4.11,4.11,0,0,1,4.12,4.12V75.15A4.11,4.11,0,0,1,62,79.27Z"/><path class="cls-3" d="M59.31,106.63H27.84a6.06,6.06,0,0,1,0-12.11H59.31a6.06,6.06,0,0,1,0,12.11ZM27.84,95.49a5.09,5.09,0,0,0,0,10.17H59.31a5.09,5.09,0,1,0,0-10.17Z"/><path class="cls-2" d="M65.12,78.54a.48.48,0,0,1-.34-.14L22.17,35.79a.48.48,0,0,1,0-.68.49.49,0,0,1,.68,0h0l42.6,42.61a.48.48,0,0,1-.34.82Z"/><path class="cls-2" d="M22.51,78.54a.48.48,0,0,1-.34-.82L64.78,35.11a.48.48,0,1,1,.69.68h0L22.86,78.4A.5.5,0,0,1,22.51,78.54Z"/><path class="cls-6" d="M396.56,128a5.19,5.19,0,0,0-3.43-6.5,5.81,5.81,0,0,0-.9-.2l-24.85-29-5.8,6.09,24.76,27.85a5.23,5.23,0,0,0,10.22,1.8Z"/><path class="cls-7" d="M374.58,98.4l-8.89,6.49a2.17,2.17,0,0,1-3-.47,2,2,0,0,1-.17-.27l-5.11-9.71a6,6,0,0,1,9.79-7.11l7.68,7.78a2.17,2.17,0,0,1,0,3.08,2.25,2.25,0,0,1-.24.21Z"/><circle class="cls-6" cx="357.43" cy="67.11" r="11.89"/><path class="cls-8" d="M362.6,120.76a2.22,2.22,0,0,1-.37,0l-20.87-3.52a2.16,2.16,0,0,1-1.81-2.11c-.07-4.77.29-16.83,5-25.6a12.83,12.83,0,0,1,23.82,8.9,190.78,190.78,0,0,0-3.59,20.44,2.18,2.18,0,0,1-2.15,1.92Z"/><path class="cls-6" d="M318.85,81.6a5.39,5.39,0,0,1,.12.79l20.8,12,5.05-2.91,5.39,7.06-8.45,6a3.87,3.87,0,0,1-4.64-.11L315.67,87.53a5.09,5.09,0,1,1,3-6.53,5.94,5.94,0,0,1,.18.6Z"/><path class="cls-7" d="M340.05,93.19a2.19,2.19,0,0,1,1.07-1.46l9.55-5.34A6.05,6.05,0,0,1,358.09,96l-7.61,7.9a2.17,2.17,0,0,1-3.08.06,1.7,1.7,0,0,1-.22-.24L340.46,95A2.16,2.16,0,0,1,340.05,93.19Z"/><polygon class="cls-6" points="329.98 227.41 324.05 227.41 322.65 204.59 329.98 204.51 329.98 227.41"/><path class="cls-8" d="M331.5,233.16H312.36v-.24a7.45,7.45,0,0,1,7.45-7.45H331.5Z"/><polygon class="cls-6" points="386.63 227.41 380.69 227.41 377.87 204.51 386.63 204.51 386.63 227.41"/><path class="cls-8" d="M388.14,233.16H369v-.24a7.46,7.46,0,0,1,7.45-7.45h11.69Z"/><path class="cls-8" d="M379.88,215.54a2.21,2.21,0,0,1-2.06-1.46L358.91,160a1.22,1.22,0,0,0-1.55-.74,1.21,1.21,0,0,0-.56.41l-18.46,24.61a1.69,1.69,0,0,0-.29.64l-5.88,26.24a2.2,2.2,0,0,1-2,1.7l-7,.32a2.18,2.18,0,0,1-2.28-2.29L322.05,187a55.84,55.84,0,0,1,5.86-22.25,125.69,125.69,0,0,0,13.14-49.48V115l21.67,3.44,3.25,4.51a64,64,0,0,0,4.71,5.82c4.14,4.49,5.39,10.49,5.7,14.74A125.28,125.28,0,0,0,378.6,159l10.75,52.8a2.18,2.18,0,0,1-1.54,2.67,1.4,1.4,0,0,1-.28.06l-7.37,1Z"/><path class="cls-8" d="M370.58,58.85a52.87,52.87,0,0,1-2.08-8.78,5.94,5.94,0,0,1,1.57-4.81c2.36-2.24,6.39-1.17,8.86,1,3.58,3.07,5.36,7.78,6,12.44s.37,9.41.54,14.12.83,9.55,3.23,13.6,6.86,7.17,11.56,6.82A8.15,8.15,0,0,0,405.39,91a5.91,5.91,0,0,0,1.77-5.13c2.4,4.3,1.18,10.13-2.4,13.51a14.32,14.32,0,0,1-13.8,2.9,19.09,19.09,0,0,1-10.9-9.42,28.74,28.74,0,0,1-3-14.29c.09-3.78.73-7.59.1-11.32s-3-7.52-6.66-8.39Z"/><path class="cls-8" d="M354.06,63.75a4.72,4.72,0,0,1-5.19,3,6.11,6.11,0,0,1-4.59-4.22A8.7,8.7,0,0,1,345,56.2a9.92,9.92,0,0,1,5.68-5.05,8.13,8.13,0,0,1,7.4,1.18,2.72,2.72,0,0,1,1.9-2,5.24,5.24,0,0,1,2.86,0,11.78,11.78,0,0,1,6.54,4.77,19,19,0,0,1,3,7.65c.73,4.1.46,8.58-1.84,12s-7,5.52-10.84,3.86a5.06,5.06,0,0,1,1-3.5,10.73,10.73,0,0,0,1.68-3.3,2.66,2.66,0,0,0-1.41-3.1c-1-.34-2.07.21-3.13.28a3.43,3.43,0,0,1-3.63-3.21,3.48,3.48,0,0,1,.34-1.74Z"/><path class="cls-5" d="M441.48,233.48H257a.49.49,0,1,1,0-1H441.48a.49.49,0,0,1,0,1Z"/></svg>