<svg id="Layer_1" data-name="Layer 1" xmlns="http://www.w3.org/2000/svg" viewBox="0 0 430.5 259.19"><defs><style>.cls-1{fill:#e6e6e6;}.cls-2{fill:#fff;}.cls-3{fill:#ee4693;}.cls-4{opacity:0.2;isolation:isolate;}</style></defs><title>Artboard 64</title><path class="cls-1" d="M430.5,202.26a6.55,6.55,0,0,1-6.52,6.58H137.51a6.55,6.55,0,0,1-6.52-6.58V6.58A6.54,6.54,0,0,1,137.5,0H424a6.55,6.55,0,0,1,6.52,6.58h0Z"/><path class="cls-2" d="M427.12,199.06a6.37,6.37,0,0,1-6.37,6.36H140.93a6.36,6.36,0,0,1-6.36-6.36V9.87a6.36,6.36,0,0,1,6.36-6.36H420.77a6.36,6.36,0,0,1,6.35,6.36Z"/><path id="a90d98f2-fe2a-41dc-85de-0aa221261a3e" class="cls-1" d="M149.53,11.73H412.46a3.77,3.77,0,0,1,3.78,3.77V192.7a3.77,3.77,0,0,1-3.78,3.77H149.53a3.77,3.77,0,0,1-3.78-3.77h0V15.5a3.77,3.77,0,0,1,3.78-3.77Z"/><path class="cls-2" d="M152.85,16h256a3.77,3.77,0,0,1,3.77,3.77V187.49a3.77,3.77,0,0,1-3.77,3.78h-256a3.77,3.77,0,0,1-3.77-3.78h0V19.75A3.77,3.77,0,0,1,152.85,16Z"/><path class="cls-1" d="M364.36,225.73a6.54,6.54,0,0,1-6.51,6.58H71.37a6.54,6.54,0,0,1-6.51-6.58h0V30.05a6.54,6.54,0,0,1,6.51-6.58H357.85a6.54,6.54,0,0,1,6.51,6.58h0Z"/><path class="cls-2" d="M361,222.53a6.36,6.36,0,0,1-6.36,6.36H74.79a6.36,6.36,0,0,1-6.36-6.36V33.34A6.36,6.36,0,0,1,74.79,27H354.63A6.36,6.36,0,0,1,361,33.34Z"/><path id="b54624cf-b287-45f0-8f58-93aafc1fcbba" class="cls-1" d="M83.39,35.19H346.32A3.78,3.78,0,0,1,350.1,39v177.2a3.77,3.77,0,0,1-3.78,3.77H83.39a3.77,3.77,0,0,1-3.78-3.77h0V39a3.78,3.78,0,0,1,3.78-3.78Z"/><path class="cls-2" d="M86.72,39.44h256a3.78,3.78,0,0,1,3.78,3.78V211a3.78,3.78,0,0,1-3.78,3.78h-256A3.78,3.78,0,0,1,82.94,211h0V43.22a3.78,3.78,0,0,1,3.78-3.78Z"/><path class="cls-1" d="M299.5,252.61a6.54,6.54,0,0,1-6.51,6.58H6.51A6.54,6.54,0,0,1,0,252.61V56.93a6.54,6.54,0,0,1,6.51-6.58H293a6.54,6.54,0,0,1,6.51,6.58h0Z"/><path class="cls-2" d="M296.12,249.41a6.36,6.36,0,0,1-6.36,6.36H9.94a6.36,6.36,0,0,1-6.36-6.36V60.22a6.36,6.36,0,0,1,6.36-6.36H289.77a6.36,6.36,0,0,1,6.35,6.36Z"/><path id="a665a07e-790f-4a9c-be99-8c13ca89238c" class="cls-1" d="M18.53,62.07H281.47a3.78,3.78,0,0,1,3.77,3.78v177.2a3.77,3.77,0,0,1-3.77,3.77H18.53a3.77,3.77,0,0,1-3.77-3.77V65.85a3.78,3.78,0,0,1,3.77-3.78Z"/><path class="cls-2" d="M21.86,66.32h256a3.78,3.78,0,0,1,3.78,3.78V237.84a3.78,3.78,0,0,1-3.78,3.78h-256a3.78,3.78,0,0,1-3.78-3.78V70.1a3.78,3.78,0,0,1,3.78-3.78Z"/><path class="cls-3" d="M211,102.66V218.72a2.56,2.56,0,0,1-2.56,2.56H86.87a2.57,2.57,0,0,1-2.56-2.56V89a2.56,2.56,0,0,1,2.56-2.56H193.12Z"/><path id="b3cdc3b1-5d0a-4cee-b54c-a38ee088c012" class="cls-2" d="M105.84,114.69a1.61,1.61,0,0,0,0,3.21h42.24a1.61,1.61,0,0,0,.07-3.21H105.84Z"/><path id="b79c0997-055d-434d-8704-cfc1ccad2281" class="cls-2" d="M105.84,129.72a1.6,1.6,0,0,0,0,3.2h83.63a1.6,1.6,0,0,0,.05-3.2H105.84Z"/><path id="ed7d1f14-d1d4-40af-b9ad-7b5b5ece23df" class="cls-2" d="M105.84,144.75a1.6,1.6,0,0,0,0,3.2h83.63a1.6,1.6,0,0,0,.06-3.2H105.84Z"/><path id="ba3b747a-a6b2-4f39-a169-6ef4c21cd2ce" class="cls-2" d="M105.84,159.78a1.6,1.6,0,0,0,0,3.2h83.63a1.6,1.6,0,0,0,.07-3.2h-83.7Z"/><path id="b6e4b743-2497-479e-800a-91c8b21b3df9" class="cls-2" d="M105.84,174.8a1.61,1.61,0,0,0,0,3.21h83.63a1.61,1.61,0,0,0,.07-3.21h-83.7Z"/><path id="f91f499d-e7c9-446d-84c9-bf78465468f6" class="cls-2" d="M105.84,189.83a1.6,1.6,0,0,0,0,3.2h83.63a1.6,1.6,0,0,0,.07-3.2h-83.7Z"/><path class="cls-3" d="M211,102.66H194.83a1.7,1.7,0,0,1-1.71-1.71V86.45h0Z"/><path class="cls-4" d="M211,102.66H194.83a1.7,1.7,0,0,1-1.71-1.71V86.45h0Z"/></svg>