<svg id="Layer_1" data-name="Layer 1" xmlns="http://www.w3.org/2000/svg" viewBox="0 0 471.52 330"><defs><style>.cls-1{fill:#ffb8b8;}.cls-2{fill:#2f2e41;}.cls-3{opacity:0.28;isolation:isolate;}.cls-4{fill:#ee4693;}.cls-5{fill:#fff;}.cls-6{fill:#3f3d56;}.cls-7{fill:#e6e6e6;}.cls-8{fill:#575a89;}.cls-9{fill:#10c0e8;}.cls-10{fill:#ccc;}</style></defs><title>Artboard 39</title><polygon class="cls-1" points="416.4 321.7 408.51 321.7 404.76 291.28 416.4 291.28 416.4 321.7"/><path class="cls-2" d="M418.41,329.35H393V329a9.9,9.9,0,0,1,9.9-9.9h15.54Z"/><polygon class="cls-1" points="451.21 302.31 446.09 308.31 420.51 291.42 428.07 282.56 451.21 302.31"/><path class="cls-2" d="M458.34,305.74l-16.51,19.35-.25-.21a9.89,9.89,0,0,1-1.1-13.95h0l10.08-11.82Z"/><polygon class="cls-2" points="360.39 172.07 357.93 194.72 457.19 193.3 413.91 122.76 378.56 121.49 360.39 172.07"/><polygon class="cls-3" points="360.39 172.07 357.93 194.72 457.19 193.3 413.91 122.76 378.56 121.49 360.39 172.07"/><path class="cls-2" d="M379.91,176l-3.51,20.72V215.2l28.26,9.22s-3.31,71.94,1.1,76.53L405.65,312l12.33.56.1-7.79,5.22-58.18,3.08-42.73-5-32.39Z"/><path class="cls-2" d="M401.8,193.79,376.4,215.2s-1.48,38.62,2.29,43.15c3.24,3.89,45.4,37.44,45.4,37.44s7.5,6.88,11.7,7,9.08-8.7,9.08-8.7l-9.73-7.39S410,263.17,402.47,253.82c-3-3.77-3-4.15-3-4.15l1-15.7,10.38-29.13Z"/><polygon class="cls-2" points="374.83 91.26 363.89 90.25 353.95 91.9 332.93 91.91 331.13 107.15 350.32 111.45 355 109.15 374.5 116.58 374.83 91.26"/><path class="cls-4" d="M387.91,91.21s23.24-2.18,28.52,2S433,179.62,433,179.62l-45.13,2.54-8.09-5.56,2.3-41.08Z"/><polygon class="cls-2" points="395 90.7 369.37 91.26 345.48 199.24 364.35 203.4 395 90.7"/><polygon class="cls-2" points="413.23 89.79 433.42 96.11 432.27 140.47 457.19 193.52 427.89 196.6 404.73 139.33 413.23 89.79"/><path class="cls-1" d="M446.52,198.9a6.45,6.45,0,0,0,.58-9.1,6,6,0,0,0-.82-.78l4.06-14.17-8-4.57-5.46,20.09a6.49,6.49,0,0,0,9.65,8.53Z"/><path class="cls-2" d="M421.72,97.34l11.94-1s10.73,11.22,13.17,19.91,5.08,35.86,5.08,35.86l-1.1,39.75-14-9.48-.93-34.2Z"/><circle class="cls-1" cx="403.97" cy="69.23" r="16.94" transform="translate(149.45 390.49) rotate(-61.34)"/><path class="cls-2" d="M402.09,62.16c-2.23-.51-4.53.06-6.78.43s-4.73.49-6.64-.77a10.49,10.49,0,0,1-3.08-3.93,4.55,4.55,0,0,1-.66-1.74,4.06,4.06,0,0,1,1.33-2.9c3.43-3.76,8.43-5.82,13.48-6.48a23.3,23.3,0,0,1,12.3,1.5,16.09,16.09,0,0,1,8.63,8.66A24.29,24.29,0,0,1,422,63.12a18.33,18.33,0,0,1,.09,4.68,19.72,19.72,0,0,1-.91,3.39l-2.49,7.54a5.09,5.09,0,0,1-1,1.94,1.71,1.71,0,0,1-2,.44,6.2,6.2,0,0,0,.09-2.5,2.11,2.11,0,0,0-1.67-1.68c-.92-.1-1.7.61-2.57.92a3.16,3.16,0,0,1-3.94-2.14,2.17,2.17,0,0,1-.07-.24,11.06,11.06,0,0,0-.23-2.59c-.38-.95-1.4-1.45-2.16-2.13a5,5,0,0,1-1.36-5.16c.2-.63.78-.92.66-1.64C404.28,63,402.89,62.35,402.09,62.16Z"/><path class="cls-5" d="M213.81,133.75H0V0H213.81Z"/><path class="cls-6" d="M213.81,133.75H0V0H213.81ZM1,132.77H212.83V1H1Z"/><path class="cls-5" d="M187.69,319h-122V185.25h122Z"/><path class="cls-6" d="M187.69,319h-122V185.25h122ZM66.63,318H186.71V186.23H66.63Z"/><rect class="cls-6" x="145.71" y="306.37" width="25.38" height="1.03"/><rect class="cls-6" x="145.71" y="309.46" width="25.38" height="1.03"/><rect class="cls-6" x="145.71" y="312.54" width="25.38" height="1.03"/><path class="cls-7" d="M126.67,209.17v10.74a32.22,32.22,0,0,1,22.78,55l7.6,7.59a43,43,0,0,0-30.38-73.33Z"/><path class="cls-8" d="M157.05,282.5l-7.6-7.59a32.21,32.21,0,0,1-42.27,2.86l-6.5,8.56A43,43,0,0,0,157.05,282.5Z"/><path class="cls-4" d="M94.46,252.13a32.21,32.21,0,0,1,32.21-32.22h0V209.17a43,43,0,0,0-26,77.16l6.5-8.56A32.14,32.14,0,0,1,94.46,252.13Z"/><path class="cls-5" d="M368.3,236h-122V102.27h122Z"/><path class="cls-6" d="M368.3,236h-122V102.27h122Zm-121.06-1H367.33V103.24H247.24Z"/><rect class="cls-8" x="263.84" y="184.03" width="21.97" height="35.15"/><rect class="cls-7" x="295.57" y="160.11" width="21.97" height="59.07"/><rect class="cls-9" x="327.3" y="132.29" width="21.97" height="86.89"/><polygon class="cls-6" points="356.59 220.15 257.98 220.15 257.98 118.13 258.96 118.13 258.96 219.18 356.59 219.18 356.59 220.15"/><circle class="cls-1" cx="332.81" cy="99.1" r="6.72"/><path class="cls-10" d="M471,330H366.19a.56.56,0,0,1,0-1.12H471a.56.56,0,0,1,0,1.12Z"/><path class="cls-6" d="M184.11,105.78H29.69a.49.49,0,0,1-.48-.48v-74a.48.48,0,0,1,.48-.48.49.49,0,0,1,.49.48v73.53H184.11a.49.49,0,0,1,.49.48.48.48,0,0,1-.48.49Z"/><path class="cls-4" d="M62.69,100.46h-14A1.43,1.43,0,0,1,47.21,99V79.67a1.43,1.43,0,0,1,1.43-1.44h14a1.43,1.43,0,0,1,1.43,1.44V99A1.43,1.43,0,0,1,62.69,100.46Z"/><path class="cls-4" d="M88.3,100.46h-14A1.43,1.43,0,0,1,72.82,99V61.3a1.43,1.43,0,0,1,1.43-1.43h14a1.43,1.43,0,0,1,1.43,1.43V99A1.43,1.43,0,0,1,88.3,100.46Z"/><path class="cls-4" d="M113.91,100.46h-14A1.43,1.43,0,0,1,98.43,99V79.67a1.43,1.43,0,0,1,1.44-1.44h14a1.44,1.44,0,0,1,1.44,1.44V99A1.44,1.44,0,0,1,113.91,100.46Z"/><path class="cls-4" d="M139.53,100.46h-14a1.39,1.39,0,0,1-1.43-1.37V54a1.39,1.39,0,0,1,1.43-1.37h14A1.4,1.4,0,0,1,141,54v45.1A1.4,1.4,0,0,1,139.53,100.46Z"/><path class="cls-4" d="M165.14,100.46h-14A1.43,1.43,0,0,1,149.66,99V41a1.43,1.43,0,0,1,1.43-1.44h14A1.43,1.43,0,0,1,166.57,41V99A1.43,1.43,0,0,1,165.14,100.46Z"/><circle class="cls-6" cx="55.66" cy="69.53" r="2.9"/><circle class="cls-6" cx="81.28" cy="50.69" r="2.9"/><circle class="cls-6" cx="106.89" cy="69.53" r="2.9"/><circle class="cls-6" cx="132.5" cy="41.5" r="2.9"/><circle class="cls-6" cx="158.12" cy="30.87" r="2.9"/><polygon class="cls-6" points="106.95 70.18 81.28 50.95 55.95 69.92 55.37 69.15 81.28 49.74 106.83 68.88 132.22 41.1 132.32 41.06 157.94 30.73 158.3 31.63 132.78 41.91 106.95 70.18"/></svg>