<svg id="Layer_1" data-name="Layer 1" xmlns="http://www.w3.org/2000/svg" viewBox="0 0 339.97 330"><defs><style>.cls-1{fill:#f2f2f2;}.cls-2{fill:#fff;}.cls-3{fill:#cbcbca;}.cls-4{fill:#ed4792;}.cls-5{fill:#10c0e8;}.cls-6{fill:#f7b3b5;}.cls-7{fill:#2f2e41;}.cls-8{fill:#e3e3e3;}.cls-9{fill:#ed4592;}.cls-10{opacity:0.1;isolation:isolate;}.cls-11{fill:#c9c9c9;}</style></defs><title>Artboard 23</title><path class="cls-1" d="M238.59,328.89l-1.1,1.11h-42.7c-.35-.36-.69-.73-1-1.11l0-.05c-4.64-5.14-7.56-12.61-9.38-20.49-.12-.47-.22-1-.32-1.44-.48-2.22-.87-4.45-1.19-6.67,0-.38-.11-.77-.16-1.15-.43-3.19-.72-6.32-.9-9.27,0-.38,0-.75-.07-1.12a149.6,149.6,0,0,1,0-17.59h.16l2.18.11c3,.19,8.82.66,15.6,1.76l1.12.19a119,119,0,0,1,16.93,4.1l1,.36v0L223,299l1.76-19c1.4.63,2.76,1.3,4.07,2l1.07.6a34,34,0,0,1,8,6.34C251.81,304.39,248.83,318.18,238.59,328.89Z"/><path class="cls-2" d="M220.75,301.88l.74.82c8.55,9.57,13.66,18.46,15.23,26.54,0,.12,0,.24.07.36l-.55.1-.53.09c-1.6-8.81-7.58-17.92-15-26.27-.24-.28-.48-.55-.73-.82-3.19-3.51-6.62-6.87-10.08-10l-.82-.74c-4.6-4.13-9.22-7.86-13.35-11l-.87-.66c-7-5.31-12.44-8.82-13.65-9.59l-.25-.16.29-.46h0l.29-.46s.3.18.8.51c1.88,1.22,6.95,4.56,13.25,9.32l.87.66c3.35,2.55,7,5.47,10.72,8.67.93.81,1.84,1.61,2.72,2.41l.82.73Q216.31,297,220.75,301.88Z"/><path class="cls-2" d="M200,272.07c-.12.31-.26.61-.4.91a29.19,29.19,0,0,1-4.07,6.44l-.73.85c-.69.75-1.41,1.48-2.18,2.18a29.21,29.21,0,0,1-10.95,6.25,3.43,3.43,0,0,1-.39.12c0,.37,0,.74.07,1.12l.39-.12a30.46,30.46,0,0,0,11.61-6.56,32,32,0,0,0,2.32-2.34c.26-.27.5-.56.73-.84a30,30,0,0,0,4.32-6.91l.39-.9Z"/><path class="cls-2" d="M217.86,276.45c-.06.27-.12.55-.19.82a29.32,29.32,0,0,1-7.81,13.89c-.27.27-.54.53-.82.78l-.25.24a29.52,29.52,0,0,1-26.13,6.91l-.32-.07c0,.38.1.77.16,1.15l.32.07a30.62,30.62,0,0,0,26.7-7.25c.11-.1.23-.2.33-.31.29-.26.56-.52.83-.78a30.45,30.45,0,0,0,8-14.25c.08-.28.14-.56.2-.84C218.55,276.68,218.21,276.56,217.86,276.45Z"/><path class="cls-2" d="M228.78,281.22v.8a29.38,29.38,0,0,1-8,19.86l-.81.82c-.29.29-.59.57-.89.84a29.56,29.56,0,0,1-35,3.37,1.75,1.75,0,0,1-.27-.16c.11.5.22,1,.34,1.47l.25.13a30.67,30.67,0,0,0,35.45-4c.3-.28.6-.55.89-.84s.55-.54.81-.82a30.55,30.55,0,0,0,8.37-20.08c0-.25,0-.5,0-.75Z"/><path class="cls-2" d="M134.16,77.49H51.89a2.59,2.59,0,0,1-2.58-2.58V12.44a2.59,2.59,0,0,1,2.58-2.58h101a2.59,2.59,0,0,1,2.59,2.58V56.2A21.32,21.32,0,0,1,134.16,77.49Z"/><path class="cls-3" d="M134.16,77.73H51.89a2.83,2.83,0,0,1-2.81-2.82V12.44a2.81,2.81,0,0,1,2.81-2.81h101a2.81,2.81,0,0,1,2.82,2.81V56.2A21.56,21.56,0,0,1,134.16,77.73ZM51.89,10.56A1.88,1.88,0,0,0,50,12.44V74.91a1.88,1.88,0,0,0,1.88,1.88h82.27A20.61,20.61,0,0,0,154.75,56.2V12.44a1.88,1.88,0,0,0-1.88-1.88Z"/><path class="cls-3" d="M132.91,31H71.85a2.12,2.12,0,0,1,0-4.23h61.06a2.12,2.12,0,0,1,0,4.23Z"/><path class="cls-3" d="M132.91,45.52H71.85a2.12,2.12,0,0,1,0-4.23h61.06a2.12,2.12,0,1,1,0,4.23Z"/><path class="cls-3" d="M132.91,60.49H71.85a2.11,2.11,0,0,1,0-4.22h61.06a2.11,2.11,0,1,1,0,4.22Z"/><circle class="cls-4" cx="152.12" cy="12.62" r="12.62"/><path class="cls-2" d="M150.39,19.19a1.42,1.42,0,0,1-1.12-.56L145.83,14a1.4,1.4,0,1,1,2.24-1.69h0l2.26,3,5.78-8.68a1.41,1.41,0,0,1,2.34,1.56l-6.89,10.33a1.41,1.41,0,0,1-1.13.62Z"/><path class="cls-2" d="M103.8,131.75H21.53a21.33,21.33,0,0,1-21.3-21.3V66.7a2.6,2.6,0,0,1,2.59-2.59h101a2.59,2.59,0,0,1,2.58,2.59v62.46A2.59,2.59,0,0,1,103.8,131.75Z"/><path class="cls-3" d="M103.8,132H21.53A21.54,21.54,0,0,1,0,110.45V66.7a2.82,2.82,0,0,1,2.82-2.82h101a2.81,2.81,0,0,1,2.81,2.82v62.46A2.81,2.81,0,0,1,103.8,132ZM2.82,64.82A1.88,1.88,0,0,0,.94,66.7v43.75A20.6,20.6,0,0,0,21.53,131H103.8a1.88,1.88,0,0,0,1.88-1.88V66.7a1.88,1.88,0,0,0-1.88-1.88Z"/><path class="cls-3" d="M83.84,85.21H22.78a2.12,2.12,0,0,1,0-4.23H83.84a2.12,2.12,0,0,1,0,4.23Z"/><path class="cls-3" d="M83.84,99.77H22.78a2.12,2.12,0,0,1,0-4.23H83.84a2.12,2.12,0,0,1,0,4.23Z"/><path class="cls-3" d="M83.84,114.75H22.78a2.12,2.12,0,0,1,0-4.23H83.84a2.12,2.12,0,0,1,0,4.23Z"/><circle class="cls-5" cx="103.91" cy="67.38" r="12.62"/><path class="cls-2" d="M102.19,74a1.4,1.4,0,0,1-1.12-.56l-3.45-4.6a1.4,1.4,0,0,1,2.25-1.68l2.25,3,5.79-8.68A1.4,1.4,0,1,1,110.24,63h0l-6.88,10.33a1.45,1.45,0,0,1-1.13.63Z"/><path class="cls-2" d="M206.3,190H91.19a21.32,21.32,0,0,1-21.3-21.29V104.32A3.34,3.34,0,0,1,73.22,101H206.3a3.33,3.33,0,0,1,3.33,3.33v82.32A3.33,3.33,0,0,1,206.3,190Z"/><path class="cls-3" d="M206.3,190.21H91.19a21.56,21.56,0,0,1-21.53-21.53V104.32a3.56,3.56,0,0,1,3.56-3.56H206.3a3.56,3.56,0,0,1,3.56,3.56v82.32A3.57,3.57,0,0,1,206.3,190.21ZM73.22,101.69a2.63,2.63,0,0,0-2.62,2.63v64.36a20.6,20.6,0,0,0,20.59,20.59H206.3a2.63,2.63,0,0,0,2.63-2.63V104.32a2.64,2.64,0,0,0-2.63-2.63Z"/><path class="cls-3" d="M180,128.72H99.53a2.79,2.79,0,1,1,0-5.57H180a2.79,2.79,0,0,1,0,5.57Z"/><path class="cls-3" d="M180,147.91H99.53a2.79,2.79,0,1,1,0-5.57H180a2.79,2.79,0,0,1,0,5.57Z"/><path class="cls-3" d="M180,167.64H99.53a2.79,2.79,0,1,1,0-5.57H180a2.79,2.79,0,0,1,0,5.57Z"/><circle class="cls-4" cx="206.72" cy="106.03" r="15.98"/><path class="cls-2" d="M204.54,114.35a1.79,1.79,0,0,1-1.42-.71l-4.36-5.82a1.78,1.78,0,0,1,2.84-2.13h0l2.85,3.8,7.33-11a1.78,1.78,0,1,1,3,2L206,113.55a1.79,1.79,0,0,1-1.43.8Z"/><polygon class="cls-6" points="248.11 317.25 241.61 319.42 230.13 295.38 239.73 292.17 248.11 317.25"/><path class="cls-7" d="M251.88,323l-21,5.61-.09-.27c-.73-2.18-.57-3.11.46-5.16a8.52,8.52,0,0,1,5-4.32h0l2.85-4.19,8.12.52,1.83-.61Z"/><polygon class="cls-6" points="264.17 323.36 257.32 323.36 254.06 296.92 264.17 296.92 264.17 323.36"/><path class="cls-7" d="M265.92,328.6h-22.1v-.28c0-2.3.89-3.06,2.52-4.68a8.52,8.52,0,0,1,6.08-2.52h0l4-3.06,7.53,3.06h1.93Z"/><path class="cls-6" d="M212,111.53a5,5,0,0,0,5.87,4,4.89,4.89,0,0,0,.85-.25l7.91,8.26,6.2-3.58L221.5,108.4a5,5,0,0,0-9.49,3.13Z"/><polygon class="cls-8" points="263.22 153.07 266.78 149.38 246.15 130.28 225.39 111.74 219.64 119.86 241.4 140.17 263.22 153.07"/><path class="cls-9" d="M250.54,278.45c0-4.64.09-7.95.17-10.6.21-7.78.27-9.88-2.71-23.27l-.76-3.44-4.51,13.52a42.34,42.34,0,0,0-2.18,13.39l6.95,41.71H233.29l-10.4-45.1V250.87a5.08,5.08,0,0,1,0-7.07l3.46-20.67,3.5-27.85h38.33s6.77,14,0,27.93v55.26l-3.47,38.21H254Z"/><path class="cls-8" d="M265.83,198.65l-35.86-3h-.18l2.86-51.51a16.18,16.18,0,0,1,11-14.5V126a3.36,3.36,0,0,1,3.36-3.36h5.24a3.34,3.34,0,0,1,3,1.86l2.56,5.12,9.69,7.75c4.78,3.83.93,42.21.72,44.23l2.35,11.71a4.45,4.45,0,0,1-3.49,5.24,4.17,4.17,0,0,1-.86.08Z"/><path class="cls-6" d="M227.86,212.25a5,5,0,0,0,.71-7.05,6.15,6.15,0,0,0-.62-.63l3.56-10.87-6.08-3.77-4.81,15.42a5,5,0,0,0,7.24,6.9Z"/><polygon class="cls-8" points="240.36 138.34 235.42 136.69 228.29 168.5 221.73 200.13 231.6 201.59 239.26 167.95 240.36 138.34"/><circle class="cls-6" cx="245.75" cy="107.6" r="11.78" transform="translate(100.17 332.94) rotate(-80.78)"/><path class="cls-7" d="M229.91,101.83a8.52,8.52,0,0,1,.94-3.19c.55,1.19,2.27,1.4,3.44.81a9.64,9.64,0,0,0,2.8-2.75,13.83,13.83,0,0,1,8.72-5.25c3.46-.39,7.26,1.35,8.57,4.58a2.16,2.16,0,0,1,2.72-.44A5,5,0,0,1,259,97.85a14.44,14.44,0,0,1,.48,11.52c-1.46,3.69-5.05,8.64-8.76,10-2.25.85-4.52-.23-6.91,0,.12-2.61.63-5.83.75-8.44.07-1.43.08-3-.89-4.08a2.83,2.83,0,0,0-4,.11,3,3,0,0,0-.32.39,6.5,6.5,0,0,0-.8-2.3A2.2,2.2,0,0,0,236.5,104c-1,.16-1.62,1.19-2.53,1.62a2.74,2.74,0,0,1-3.06-.7A4.12,4.12,0,0,1,229.91,101.83Z"/><polygon class="cls-10" points="247.28 167.81 233.44 195.47 243.82 195.47 247.28 167.81"/><path class="cls-11" d="M340,329.44a.56.56,0,0,1-.55.56H75.32a.56.56,0,0,1,0-1.11H339.41a.55.55,0,0,1,.56.55Z"/></svg>