<svg id="Layer_1" data-name="Layer 1" xmlns="http://www.w3.org/2000/svg" viewBox="0 0 430.54 330"><defs><style>.cls-1{fill:#3f3d56;}.cls-2,.cls-7{fill:#ee4693;}.cls-3{fill:#2f2e41;}.cls-4{fill:#ffb8b8;}.cls-5{opacity:0.1;}.cls-5,.cls-7{isolation:isolate;}.cls-6,.cls-8{fill:#10c0e8;}.cls-7{opacity:0.3;}.cls-8{opacity:0.3;}.cls-9{fill:#f0f0f0;}</style></defs><title>Artboard 30</title><ellipse class="cls-1" cx="365.42" cy="319.25" rx="65.12" ry="10.75"/><path class="cls-2" d="M420.5,279.68c-.13,23.09-13.9,31.08-30.83,31-.39,0-.78,0-1.17,0-.79,0-1.56-.06-2.33-.12-15.28-1.16-27.11-9.7-27-31.18.13-22.22,28.68-50.11,30.83-52.17h0l.12-.12S420.63,256.59,420.5,279.68Z"/><path class="cls-1" d="M388.57,307.13l11.3-15.61-11.33,17.33,0,1.79c-.79,0-1.56-.06-2.33-.12l1.33-23.09v-.18l0,0,.12-2.18-11.17-17.5,11.22,15.86,0,.46,1-17.44-9.55-18.07,9.69,15L390,227.17v0l-.32,28.53,9.67-11.26-9.72,13.72-.34,15.63,9.05-15-9.1,17.24-.19,8.69L402.19,264,389,287.8Z"/><circle class="cls-3" cx="359.29" cy="83.59" r="20.52"/><circle class="cls-4" cx="356.24" cy="90.76" r="13.94"/><path class="cls-4" d="M348,98.29s6,13.94,3,15.45-4.52,8.28-4.52,8.28l7.91,16.58,10.93,6.78h6.4s6.41-28.63,4.15-32-10.55-5.27-10.55-5.27-1.88-4.52-1.13-8.67S348,98.29,348,98.29Z"/><path class="cls-4" d="M338.91,137.84l-9.79-7.91s-17.71-12.43-15.45-3.39,12.43,9.8,12.43,9.8l16.95,13.56Z"/><path class="cls-3" d="M338.16,179.28s-4.52,18.83,0,44.45L340,233.9s0,7.91,1.88,10.92c0,0,4.9,44.83,7.54,44.83s10.92-1.51,11.67-2.64S346.44,177.4,346.44,177.4Z"/><path class="cls-5" d="M338.16,179.28s-4.52,18.83,0,44.45L340,233.9s0,7.91,1.88,10.92c0,0,4.9,44.83,7.54,44.83s10.92-1.51,11.67-2.64S346.44,177.4,346.44,177.4Z"/><path class="cls-3" d="M350.53,286.64l-5.84,21.62s-11.67,6.87-4.46,8.24,14.42-1.37,14.42-1.37l3.43-9.95,3.43-2.06v10.64h1l2.4-14.08s-.34-7.2-2.4-7.89-3.09-4.46-3.09-4.46Z"/><path class="cls-5" d="M350.53,286.64l-5.84,21.62s-11.67,6.87-4.46,8.24,14.42-1.37,14.42-1.37l3.43-9.95,3.43-2.06v10.64h1l2.4-14.08s-.34-7.2-2.4-7.89-3.09-4.46-3.09-4.46Z"/><path class="cls-3" d="M336.65,178.53s3,11.3,4.14,13.18c0,0,1.51,32,6.41,42.94l5.27,13.94s8.66,41.06,6.4,45.58c0,0,11.68,2.64,12.44,0,0,0-.38-21.85.75-24.86s3-19.59-6-31.64V201.13s14.32-12.06,6-27.5S336.65,178.53,336.65,178.53Z"/><path class="cls-3" d="M360,291.91l-6.4,23.73s-12.81,7.53-4.9,9,15.83-1.51,15.83-1.51l3.76-10.92,3.77-2.26v11.68h1.13l2.64-15.45s-.38-7.91-2.64-8.66-3.39-4.9-3.39-4.9Z"/><path class="cls-6" d="M351.78,110.92s-9.48,5.45-9.48,5.83,1.13,6.4,1.13,6.4-11.68,11.68-3.77,21.85c0,0,2.64,1.88,2.64,7.91v6s-22.22,13.94-16.57,18.46,11.67,3.76,13.56,6.4,12.8-2.26,15.06-3,2.64-1.51,4.52,1.13S371.31,180,371.31,180s6.78-1.88,8.28-1.88a5.24,5.24,0,0,0,2.64-.75L366,160.82l8.1-20.53s-23.92-14.88-23.92-19A53.91,53.91,0,0,1,351.78,110.92Z"/><path class="cls-4" d="M366.41,111.85s-4.9,6.78-1.13,16.2a219,219,0,0,0,9.79,20.34l-9.41,3H357s-18.08-3-16.2,3.77,14.69,3.77,14.69,3.77H363s17,1.88,19.21-1.13c0,0,6-.38,3.39-12.43s-10.34-32.69-10.34-32.69Z"/><ellipse class="cls-3" cx="353.53" cy="77.82" rx="13.14" ry="6.69"/><ellipse class="cls-4" cx="369.99" cy="89.82" rx="1.88" ry="4.14"/><circle class="cls-3" cx="368.48" cy="65.33" r="11.3"/><circle class="cls-7" cx="127.71" cy="70.37" r="46.36"/><circle class="cls-8" cx="37.93" cy="199.34" r="27.4"/><circle class="cls-7" cx="213.69" cy="199.34" r="56.06"/><path class="cls-2" d="M27.87,108.76l-.82-.18c.17-.83.36-1.65.55-2.47l.82.19C28.23,107.11,28.05,107.93,27.87,108.76Z"/><path class="cls-2" d="M293.3,101.79c-.43-1.6-.9-3.22-1.39-4.82l.8-.25c.5,1.61,1,3.24,1.41,4.85Zm-263.65-.37-.81-.22c.44-1.62.92-3.25,1.42-4.86l.8.25c-.5,1.6-1,3.22-1.41,4.83Zm260.69-9.2c-.55-1.58-1.14-3.16-1.74-4.7l.78-.31c.61,1.55,1.2,3.14,1.76,4.73ZM32.66,91.81l-.8-.28c.56-1.58,1.16-3.18,1.78-4.74l.78.31C33.81,88.65,33.21,90.24,32.66,91.81Zm254-8.92c-.67-1.53-1.37-3.06-2.09-4.56l.76-.37c.73,1.51,1.43,3.06,2.1,4.59ZM36.36,82.46l-.77-.34c.68-1.54,1.39-3.09,2.12-4.6l.76.37C37.75,79.39,37,80.93,36.36,82.46Zm246-8.61c-.78-1.48-1.59-3-2.42-4.4l.73-.42c.83,1.45,1.65,2.94,2.43,4.42ZM40.75,73.4,40,73q1.18-2.24,2.45-4.43l.73.43C42.36,70.45,41.53,71.93,40.75,73.4Zm236.59-8.25c-.88-1.41-1.8-2.83-2.74-4.21l.7-.47c.94,1.39,1.87,2.81,2.75,4.23ZM45.79,64.7l-.71-.45c.89-1.42,1.83-2.84,2.77-4.23l.7.48C47.61,61.88,46.68,63.29,45.79,64.7Zm225.92-7.86c-1-1.34-2-2.69-3-4l.66-.52c1,1.32,2.07,2.67,3.05,4ZM51.46,56.4l-.68-.5c1-1.35,2-2.7,3.08-4l.66.52C53.48,53.71,52.45,55.06,51.46,56.4Zm214-7.45c-1.08-1.26-2.19-2.53-3.32-3.76l.62-.57c1.13,1.24,2.26,2.51,3.34,3.79ZM57.72,48.54,57.08,48c1.09-1.28,2.22-2.55,3.36-3.78l.62.57c-1.13,1.23-2.26,2.49-3.34,3.76Zm201-7c-1.17-1.19-2.38-2.37-3.59-3.52l.58-.61c1.22,1.15,2.43,2.34,3.61,3.54Zm-194.18-.4-.59-.59c1.18-1.19,2.4-2.38,3.62-3.52l.58.61C66.92,38.79,65.71,40,64.53,41.15Zm186.87-6.5c-1.25-1.1-2.54-2.19-3.84-3.24l.53-.65c1.31,1,2.6,2.15,3.87,3.26ZM71.87,34.29l-.56-.64c1.27-1.1,2.57-2.19,3.88-3.24l.53.65C74.42,32.11,73.13,33.2,71.87,34.29Zm171.74-6c-1.33-1-2.7-2-4.07-2.95l.48-.7c1.38,1,2.76,2,4.09,3ZM79.68,28l-.5-.67c1.34-1,2.72-2,4.1-2.95l.48.69C82.39,26,81,27,79.68,28Zm155.69-5.43c-1.41-.9-2.84-1.79-4.28-2.65l.43-.72c1.44.86,2.89,1.75,4.3,2.66ZM87.93,22.27l-.45-.71c1.41-.91,2.86-1.8,4.3-2.65l.43.73q-2.16,1.27-4.28,2.63Zm138.79-4.85c-1.46-.8-3-1.59-4.46-2.33l.38-.76c1.5.75,3,1.54,4.48,2.35ZM96.58,17.17l-.4-.74c1.47-.79,3-1.57,4.48-2.32l.37.76C99.54,15.61,98,16.38,96.58,17.17Zm121.14-4.24c-1.52-.69-3.08-1.36-4.62-2l.31-.78c1.56.63,3.13,1.31,4.65,2Zm-112.15-.2-.35-.77c1.53-.68,3.09-1.35,4.64-2l.32.78C108.64,11.39,107.09,12.05,105.57,12.73ZM208.4,9.12c-1.57-.58-3.17-1.13-4.76-1.65l.26-.8c1.6.52,3.21,1.08,4.79,1.66ZM114.86,9l-.29-.79c1.58-.57,3.18-1.12,4.77-1.63l.26.8C118,7.86,116.42,8.4,114.86,9Zm84-3c-1.6-.46-3.23-.89-4.85-1.29l.2-.81c1.63.39,3.27.83,4.88,1.29ZM124.41,5.9l-.23-.81c1.62-.45,3.26-.88,4.89-1.28l.2.82C127.65,5,126,5.45,124.41,5.9Zm64.66-2.28c-1.64-.33-3.3-.64-4.94-.92l.14-.83c1.65.28,3.32.59,5,.93Zm-54.89-.08L134,2.72c1.64-.34,3.32-.64,5-.91l.14.83C137.47,2.91,135.81,3.21,134.18,3.54Zm45-1.58c-1.66-.21-3.34-.4-5-.55l.07-.84c1.67.15,3.36.34,5,.56Zm-35.07-.05L144,1.08c1.66-.21,3.35-.4,5-.55l.07.84C147.42,1.52,145.74,1.7,144.09,1.91ZM169.16,1c-1.66-.09-3.35-.16-5-.19V0c1.68,0,3.38.09,5,.19ZM154.09,1l0-.84c1.67-.09,3.37-.15,5-.18V.84C157.45.87,155.76.93,154.09,1Z"/><path class="cls-2" d="M295.08,109.22q-.25-1.23-.54-2.46l.82-.19c.19.83.37,1.65.55,2.48Z"/><path class="cls-2" d="M296.22,164.19l-.83-.17c.16-.82.32-1.65.47-2.47l.83.14C296.54,162.53,296.38,163.36,296.22,164.19Z"/><path class="cls-2" d="M161.43,274.79c-.92,0-1.83,0-2.74,0v-.84c1.67,0,3.35,0,5,0l0,.85Zm7.34-.2-.05-.84c1.67-.09,3.35-.21,5-.35l.08.84C172.14,274.39,170.44,274.51,168.77,274.59Zm-15.12,0c-1.68-.09-3.37-.22-5-.37l.08-.84c1.65.15,3.33.28,5,.37Zm25.16-.87-.11-.84c1.66-.21,3.33-.45,5-.72l.14.83c-1.64.27-3.32.52-5,.73Zm-35.2-.06c-1.67-.21-3.35-.46-5-.74l.14-.83c1.63.27,3.3.52,5,.73Zm45.15-1.57-.17-.83c1.64-.33,3.29-.69,4.9-1.08l.19.82C192.06,271.37,190.41,271.74,188.76,272.07Zm-55.1-.09c-1.64-.34-3.3-.71-4.92-1.11l.2-.81c1.61.39,3.26.76,4.89,1.09Zm64.9-2.27-.22-.81c1.6-.45,3.21-.94,4.8-1.44l.25.8c-1.59.51-3.22,1-4.83,1.45Zm-74.69-.12c-1.61-.46-3.24-.95-4.84-1.47l.26-.8c1.59.51,3.21,1,4.81,1.46Zm84.28-2.95-.28-.8c1.55-.56,3.13-1.16,4.67-1.78l.31.78c-1.55.63-3.13,1.23-4.7,1.8Zm-93.9-.17c-1.58-.57-3.16-1.19-4.71-1.82l.32-.78c1.54.63,3.11,1.24,4.68,1.81Zm103.23-3.6-.34-.77c1.51-.68,3-1.39,4.53-2.13l.37.76c-1.5.74-3,1.46-4.56,2.14Zm-112.58-.22c-1.53-.69-3.07-1.41-4.57-2.16l.38-.75c1.49.74,3,1.46,4.53,2.15Zm121.61-4.23-.4-.74c1.47-.79,2.94-1.61,4.36-2.45l.43.72c-1.44.85-2.91,1.68-4.39,2.47Zm-130.66-.26c-1.47-.8-2.95-1.64-4.39-2.5l.43-.72c1.43.85,2.9,1.68,4.37,2.48Zm139.35-4.84-.46-.71c1.4-.89,2.8-1.82,4.18-2.77l.47.7c-1.38,1-2.79,1.89-4.19,2.78Zm-148-.31c-1.41-.9-2.82-1.85-4.19-2.81l.48-.69c1.36,1,2.77,1.89,4.17,2.79Zm156.32-5.41-.51-.68c1.33-1,2.67-2,4-3.06l.53.65c-1.3,1.05-2.64,2.09-4,3.09Zm-164.6-.36c-1.34-1-2.67-2.05-4-3.1l.54-.66c1.29,1.05,2.62,2.09,4,3.09Zm172.45-6-.55-.63c1.26-1.09,2.51-2.22,3.73-3.35l.57.61c-1.22,1.15-2.48,2.28-3.75,3.37Zm-180.28-.39c-1.27-1.11-2.52-2.25-3.74-3.39l.58-.61c1.21,1.13,2.46,2.27,3.71,3.36Zm187.66-6.48-.6-.59c1.18-1.19,2.35-2.4,3.47-3.62l.62.58C261.08,232,259.9,233.22,258.72,234.41Zm-195-.43c-1.17-1.19-2.35-2.42-3.48-3.65l.62-.57c1.13,1.23,2.29,2.45,3.46,3.63Zm201.86-7-.64-.55c1.09-1.27,2.17-2.57,3.21-3.86l.65.52C267.75,224.44,266.67,225.74,265.57,227Zm-208.68-.46c-1.09-1.27-2.16-2.58-3.2-3.9l.66-.52c1,1.3,2.1,2.61,3.18,3.87Zm215-7.42-.67-.51c1-1.34,2-2.71,2.91-4.08l.69.48C273.86,216.4,272.87,217.79,271.87,219.14Zm-221.24-.48c-1-1.35-2-2.73-2.91-4.12l.7-.47c.93,1.37,1.9,2.75,2.89,4.09Zm227-7.84-.71-.46c.89-1.4,1.77-2.84,2.61-4.28l.73.42C279.36,208,278.48,209.4,277.58,210.82ZM45,210.33c-.88-1.42-1.76-2.87-2.59-4.32l.73-.42c.83,1.44,1.7,2.88,2.58,4.29Zm237.71-8.23-.75-.4c.79-1.48,1.56-3,2.29-4.47l.76.37C284.23,199.1,283.46,200.61,282.67,202.1Zm-242.74-.49c-.78-1.48-1.55-3-2.28-4.49l.76-.37c.72,1.49,1.48,3,2.26,4.46ZM287.1,193l-.77-.34c.67-1.52,1.33-3.08,1.95-4.63l.78.32c-.62,1.55-1.28,3.12-2,4.65Zm-251.55-.47c-.68-1.53-1.33-3.1-1.94-4.65l.78-.31c.61,1.54,1.26,3.1,1.93,4.62Zm255.3-8.91-.79-.28c.56-1.58,1.1-3.18,1.6-4.77l.8.26C292,180.45,291.41,182.06,290.85,183.64Zm-259-.45c-.56-1.58-1.1-3.18-1.6-4.78l.81-.25c.49,1.58,1,3.18,1.58,4.75Zm262-9.19-.82-.22c.45-1.6.86-3.24,1.25-4.86l.82.2C294.76,170.75,294.34,172.39,293.9,174Zm-265.06-.43c-.44-1.61-.85-3.26-1.23-4.89l.82-.19c.37,1.62.79,3.25,1.22,4.86Z"/><path class="cls-2" d="M26.53,163.66q-.24-1.24-.45-2.49l.83-.15c.14.83.29,1.66.45,2.48Z"/><path class="cls-2" d="M230.24,164.57l-.78-.31c.3-.77.6-1.56.88-2.35l.79.28C230.85,163,230.55,163.79,230.24,164.57Z"/><path class="cls-2" d="M161.43,211.35c-1,0-2,0-3-.06l0-.84c1.66.07,3.36.08,5,0l0,.85Zm7.11-.33-.08-.84c1.66-.16,3.34-.38,5-.65l.13.83C171.91,210.64,170.22,210.86,168.54,211Zm-15.2-.1c-1.68-.19-3.37-.43-5-.73l.15-.83c1.64.3,3.31.54,5,.72Zm25.21-1.56-.19-.82c1.62-.38,3.25-.83,4.84-1.33l.25.81c-1.61.5-3.26.95-4.9,1.34Zm-35.2-.23c-1.64-.41-3.28-.89-4.88-1.41l.26-.8c1.58.52,3.21,1,4.82,1.39Zm44.89-2.79-.31-.78c1.56-.61,3.11-1.27,4.62-2l.35.76c-1.52.72-3.09,1.39-4.66,2ZM133.7,206c-1.57-.63-3.13-1.33-4.64-2.07l.37-.75c1.5.73,3,1.41,4.58,2Zm63.72-4-.41-.73c1.46-.82,2.9-1.69,4.3-2.6l.46.71C200.35,200.32,198.89,201.2,197.42,202Zm-72.85-.49c-1.46-.84-2.91-1.74-4.31-2.68l.47-.7c1.39.93,2.82,1.82,4.27,2.65Zm81.35-5.05-.51-.67c1.34-1,2.65-2.07,3.91-3.16l.55.64C208.6,194.39,207.27,195.46,205.92,196.48Zm-89.77-.6c-1.34-1-2.65-2.13-3.91-3.25l.56-.63c1.25,1.11,2.54,2.19,3.86,3.21Zm97.44-6-.6-.6c1.19-1.17,2.34-2.4,3.44-3.66l.63.56c-1.11,1.27-2.28,2.51-3.47,3.7Zm-105-.7c-1.18-1.2-2.33-2.46-3.43-3.75l.65-.54c1.08,1.26,2.22,2.51,3.38,3.7Zm111.71-6.93-.67-.51c1-1.32,2-2.7,2.9-4.09l.71.46C222.29,179.47,221.3,180.86,220.28,182.2ZM102,181.41c-1-1.35-2-2.76-2.88-4.18l.71-.45c.9,1.4,1.86,2.79,2.85,4.13Zm123.89-7.68-.74-.41c.82-1.45,1.6-2.95,2.32-4.46l.76.37c-.73,1.52-1.52,3-2.34,4.5Zm-129.36-.86c-.81-1.48-1.58-3-2.29-4.54L95,168c.7,1.51,1.46,3,2.26,4.48Z"/><path class="cls-2" d="M92.25,163.63c-.3-.79-.59-1.6-.86-2.4l.79-.27c.27.79.56,1.59.86,2.37Z"/><path class="cls-2" d="M93.55,110.12l-.78-.31c.31-.79.65-1.57,1-2.34l.77.34C94.19,108.57,93.86,109.35,93.55,110.12Z"/><path class="cls-2" d="M96.74,103.24l-.74-.39c.79-1.51,1.65-3,2.55-4.45l.72.44C98.38,100.27,97.53,101.75,96.74,103.24ZM225.45,102c-.82-1.47-1.7-2.93-2.61-4.35l.7-.46c.93,1.44,1.82,2.92,2.64,4.41ZM102.1,94.63l-.69-.5c1-1.38,2.06-2.74,3.15-4l.65.54C104.13,91.91,103.08,93.26,102.1,94.63ZM219.93,93.5c-1-1.34-2.08-2.67-3.19-4l.64-.55c1.12,1.29,2.2,2.63,3.22,4ZM108.59,86.83l-.61-.58c1.18-1.23,2.41-2.44,3.67-3.58l.57.62C111,84.42,109.75,85.61,108.59,86.83Zm104.7-1c-1.18-1.19-2.43-2.36-3.7-3.47l.56-.63c1.28,1.12,2.54,2.3,3.74,3.51ZM116.09,80l-.53-.66c1.34-1,2.73-2.08,4.14-3l.47.7C118.78,78,117.41,79,116.09,80Zm89.57-.85c-1.34-1-2.73-2-4.14-2.93l.46-.71c1.43.94,2.84,1.94,4.19,3Zm-81.2-4.87-.43-.73c1.47-.86,3-1.68,4.51-2.44l.38.75C127.41,72.61,125.91,73.42,124.46,74.28Zm72.73-.7c-1.47-.82-3-1.61-4.51-2.33l.36-.76c1.54.73,3.07,1.52,4.56,2.36Zm-63.65-3.82-.32-.78c1.57-.65,3.19-1.25,4.81-1.79l.26.8C136.69,68.52,135.1,69.12,133.54,69.76ZM188,69.24c-1.57-.61-3.18-1.18-4.79-1.68l.25-.8c1.63.5,3.26,1.08,4.85,1.7Zm-44.86-2.68-.21-.82c1.65-.42,3.33-.8,5-1.1l.15.83C146.46,65.77,144.79,66.14,143.16,66.56Zm35.18-.34c-1.64-.39-3.31-.72-5-1l.14-.84c1.68.28,3.37.62,5,1Zm-25.21-1.5-.09-.84c1.69-.19,3.41-.32,5.11-.4l0,.85C156.5,64.4,154.8,64.53,153.13,64.72Zm15.2-.14c-1.67-.16-3.38-.26-5.06-.3l0-.84c1.7,0,3.43.14,5.12.3Z"/><path class="cls-2" d="M228.78,108.86c-.32-.77-.67-1.54-1-2.3l.76-.35c.36.76.71,1.54,1,2.32Z"/><path class="cls-1" d="M239.66,137.28a4.78,4.78,0,1,0,3.37,1.4A4.79,4.79,0,0,0,239.66,137.28Z"/><path class="cls-1" d="M220.59,137.28a4.78,4.78,0,1,0,3.37,1.4A4.79,4.79,0,0,0,220.59,137.28Z"/><path class="cls-1" d="M230.13,110.83a24,24,0,1,0,24,24A24,24,0,0,0,230.13,110.83Zm4.67,10a2.3,2.3,0,0,1,2.32,2.27v0a2.34,2.34,0,1,1-2.35-2.32Zm-14.21,28a6.81,6.81,0,1,1,6.81-6.81h0a6.82,6.82,0,0,1-6.81,6.81Zm10.71-13.57v6.57a1.18,1.18,0,0,1-1.17,1.16,1.16,1.16,0,0,1-1.17-1.16v-4.81c0-1-1.17-1.17-4.49-3.08a2.17,2.17,0,0,1-1.34-2,2.37,2.37,0,0,1,.67-1.63l5.23-5a2.28,2.28,0,0,1,3.23,0,2.69,2.69,0,0,1,.39.5l2.15,4.39h3.5a1.17,1.17,0,0,1,0,2.33h-4.19c-.78,0-1.41-1.68-2.77-3.76l-3.57,3.76c1.31,1,3.53,1.81,3.53,2.77Zm8.36,13.56a6.81,6.81,0,1,1,6.81-6.8,6.79,6.79,0,0,1-6.81,6.8Z"/><path class="cls-1" d="M298.41,110.83a24,24,0,1,0,24,24A24,24,0,0,0,298.41,110.83ZM292,128a3.74,3.74,0,1,1-3.82,3.74A3.74,3.74,0,0,1,292,128Zm20.37,16.19h-2.54v-3.73H287v3.73H284.4V125.52H287v11.2h10.18V128h10.19a5,5,0,0,1,5.09,5h0Z"/><path class="cls-1" d="M32.49,128.43H25.34a.31.31,0,0,0-.29.3v10.21a.29.29,0,0,0,.29.29h7.15a1.16,1.16,0,0,0,1.16-1.17V129.6A1.18,1.18,0,0,0,32.49,128.43Z"/><path class="cls-1" d="M30.88,141.42a1.76,1.76,0,1,0,.28,0Z"/><path class="cls-1" d="M16.88,141.42a1.76,1.76,0,1,0,.28,0Z"/><path class="cls-1" d="M22.71,128.43H15.58a1.2,1.2,0,0,0-1.18,1.19v8.43a1.18,1.18,0,0,0,1.18,1.18h7.13a.29.29,0,0,0,.29-.29V128.73A.31.31,0,0,0,22.71,128.43Z"/><path class="cls-1" d="M24,110.83a24,24,0,1,0,24,24A24,24,0,0,0,24,110.83Zm11.68,33.8a2.94,2.94,0,0,1-2.92,2.92H15.27a2.94,2.94,0,0,1-2.92-2.92V124.5a2.36,2.36,0,0,1,2.34-2.34H33.36a2.36,2.36,0,0,1,2.34,2.34Z"/><path class="cls-1" d="M32.56,124.2H15.49a1,1,0,0,0-1.09,1,1,1,0,0,0,.95,1.1H32.56a1,1,0,0,0,.14-2Z"/><path class="cls-1" d="M95.94,135.51c-.49,0-.88.72-.88,1.61s.39,1.6.88,1.6.87-.71.87-1.6S96.42,135.51,95.94,135.51Z"/><path class="cls-1" d="M89.52,135.51c-.49,0-.88.72-.88,1.61s.39,1.6.88,1.6.87-.71.87-1.6S90,135.51,89.52,135.51Z"/><path class="cls-1" d="M92.73,110.83a24,24,0,1,0,24,24A24,24,0,0,0,92.73,110.83ZM81.49,134,82.82,127c.34-1.92,1.23-3.43,2.9-3.43h2.51l.15-.58a2.33,2.33,0,0,1,2.26-1.76H94.8A2.34,2.34,0,0,1,97.06,123l.14.59h2.53c1.63,0,2.5,1.48,2.91,3.42h0L104,134a.29.29,0,0,1-.22.35.36.36,0,0,1-.18,0l-1.86-.86a.24.24,0,0,1-.16-.21l-1.19-6.24c-.22-.81-.52-1.17-1.17-1.17H86.27c-.64,0-1,.39-1.17,1.17l-1.19,6.24a.29.29,0,0,1-.16.21l-1.85.85a.29.29,0,0,1-.39-.15A.32.32,0,0,1,81.49,134Zm25.73,4.54-4,9.92a8.29,8.29,0,0,1-4.14-1.61,17.54,17.54,0,0,1-5.78,1.36H92.14a17.54,17.54,0,0,1-5.78-1.36,8.29,8.29,0,0,1-4.14,1.61l-4-9.92a1.33,1.33,0,0,1-.09-.49,1.31,1.31,0,0,1,.76-1.19l13.58-6.24a.6.6,0,0,1,.49,0l13.58,6.24a1.31,1.31,0,0,1,.77,1.19A1.58,1.58,0,0,1,107.22,138.58Z"/><path class="cls-1" d="M161.43,110.83a24,24,0,1,0,24,24A24,24,0,0,0,161.43,110.83Zm11.06,26.37c-.24,0-1.07,0-1.31,0l-4.73-.12a.15.15,0,0,0-.13.07l-7.1,10.62a1.2,1.2,0,0,1-1,.54H156.5c-.4,0-.54-.41-.4-.79l3.66-10.43a.14.14,0,0,0-.09-.18h0l-8.88-.2a.59.59,0,0,0-.48.23l-2.75,3.33a1.22,1.22,0,0,1-.92.45h-1.22a.29.29,0,0,1-.29-.29.31.31,0,0,1,0-.1l1.45-5a1.19,1.19,0,0,0,0-.87l-1.45-5a.29.29,0,0,1,.18-.37l.1,0h1.22a1.15,1.15,0,0,1,.92.45l2.7,3.28a.62.62,0,0,0,.48.23l8.93-.14a.15.15,0,0,0,.15-.14.08.08,0,0,0,0-.05l-3.65-10.42c-.15-.38,0-.79.4-.79h1.73a1.17,1.17,0,0,1,1,.54l7.1,10.63a.17.17,0,0,0,.13.07l4.73-.13,1.31,0c3.24,0,5.28,1,5.28,2.34S175.73,137.2,172.49,137.2Z"/><path class="cls-9" d="M27.68,215.84a5.06,5.06,0,1,1,5.06-5.06A5.07,5.07,0,0,1,27.68,215.84Zm0-9.28a4.22,4.22,0,1,0,4.21,4.22A4.22,4.22,0,0,0,27.68,206.56Z"/><path class="cls-9" d="M134.31,102.46a5.06,5.06,0,1,1,5.06-5.06A5.06,5.06,0,0,1,134.31,102.46Zm0-9.27a4.21,4.21,0,1,0,4.22,4.21A4.21,4.21,0,0,0,134.31,93.19Z"/><path class="cls-9" d="M228.5,241.28l-5.67-6.08,6.08-5.68,5.68,6.09Zm-4.77-6.05,4.8,5.15,5.15-4.81-4.8-5.14Z"/></svg>