<svg id="Layer_1" data-name="Layer 1" xmlns="http://www.w3.org/2000/svg" viewBox="0 0 453.32 290.08"><defs><style>.cls-1{fill:#e6e6e6;}.cls-2{fill:#f2f2f2;}.cls-3{fill:#ccc;}.cls-4{fill:#a0616a;}.cls-5{fill:#2f2e41;}.cls-6{fill:#ee4693;}.cls-7{fill:#3f3d56;}.cls-8{fill:#fff;}.cls-9{fill:#ffb8b8;}.cls-10{fill:#10c0e8;}</style></defs><title>Artboard 45</title><path class="cls-1" d="M68.25,79.21a74.48,74.48,0,0,1,6.18-23.57q1.39-3.12,3.07-6.1a.44.44,0,0,0-.19-.61.45.45,0,0,0-.6.15,75.69,75.69,0,0,0-8.42,23.25q-.63,3.42-1,6.88C67.28,79.8,68.19,79.79,68.25,79.21Z"/><circle class="cls-1" cx="79.7" cy="45.24" r="5.76"/><path class="cls-1" d="M68.84,79.37a48.34,48.34,0,0,1,4-15.3c.6-1.35,1.26-2.66,2-3.95a.29.29,0,0,0-.12-.4.29.29,0,0,0-.39.1A49.18,49.18,0,0,0,68.86,74.9c-.27,1.48-.48,3-.61,4.47C68.21,79.74,68.8,79.74,68.84,79.37Z"/><circle class="cls-1" cx="76.27" cy="57.33" r="3.74"/><path class="cls-1" d="M68.09,79a48.36,48.36,0,0,1-6.24-14.52c-.36-1.44-.64-2.88-.87-4.35a.29.29,0,0,0-.34-.24.3.3,0,0,0-.24.32,49.25,49.25,0,0,0,5,15.26q1,2,2.26,3.9C67.83,79.7,68.29,79.33,68.09,79Z"/><circle class="cls-1" cx="60.39" cy="57.06" r="3.74"/><path class="cls-2" d="M56.61,82.32V75a2.77,2.77,0,0,1,2.76-2.76H76.51A2.76,2.76,0,0,1,79.26,75v7.34a2.75,2.75,0,0,1-2.75,2.75H59.37A2.76,2.76,0,0,1,56.61,82.32Z"/><path class="cls-2" d="M75.89,35.5H68.55a2.76,2.76,0,0,1-2.75-2.76v-30A2.75,2.75,0,0,1,68.55,0h7.34a2.76,2.76,0,0,1,2.76,2.75v30A2.77,2.77,0,0,1,75.89,35.5Z"/><rect class="cls-3" x="66.1" y="5.81" width="12.24" height="2.45"/><rect class="cls-3" x="66.1" y="24.79" width="12.24" height="2.45"/><path class="cls-2" d="M94.26,35.5H86.91a2.76,2.76,0,0,1-2.75-2.76v-30A2.75,2.75,0,0,1,86.91,0h7.35A2.75,2.75,0,0,1,97,2.75v30A2.76,2.76,0,0,1,94.26,35.5Z"/><rect class="cls-3" x="84.46" y="5.81" width="12.24" height="2.45"/><rect class="cls-3" x="84.46" y="24.79" width="12.24" height="2.45"/><path class="cls-2" d="M112.62,35.5h-7.35a2.76,2.76,0,0,1-2.75-2.76v-30A2.75,2.75,0,0,1,105.27,0h7.35a2.75,2.75,0,0,1,2.75,2.75v30A2.76,2.76,0,0,1,112.62,35.5Z"/><rect class="cls-3" x="102.82" y="5.81" width="12.24" height="2.45"/><rect class="cls-3" x="102.82" y="24.79" width="12.24" height="2.45"/><path class="cls-2" d="M122.41,85.07h-7.34a2.75,2.75,0,0,1-2.76-2.75v-30a2.75,2.75,0,0,1,2.76-2.75h7.34a2.75,2.75,0,0,1,2.75,2.75v30A2.75,2.75,0,0,1,122.41,85.07Z"/><rect class="cls-3" x="112.62" y="55.39" width="12.24" height="2.45"/><rect class="cls-3" x="112.62" y="74.36" width="12.24" height="2.45"/><path class="cls-2" d="M140.77,85.07h-7.34a2.76,2.76,0,0,1-2.76-2.75v-30a2.76,2.76,0,0,1,2.76-2.75h7.34a2.76,2.76,0,0,1,2.76,2.75v30A2.76,2.76,0,0,1,140.77,85.07Z"/><rect class="cls-3" x="130.98" y="55.39" width="12.24" height="2.45"/><rect class="cls-3" x="130.98" y="74.36" width="12.24" height="2.45"/><path class="cls-2" d="M159.13,85.07h-7.34A2.76,2.76,0,0,1,149,82.32v-30a2.76,2.76,0,0,1,2.76-2.75h7.34a2.76,2.76,0,0,1,2.76,2.75v30A2.76,2.76,0,0,1,159.13,85.07Z"/><rect class="cls-3" x="149.34" y="55.39" width="12.24" height="2.45"/><rect class="cls-3" x="149.34" y="74.36" width="12.24" height="2.45"/><path class="cls-2" d="M74.06,134.65H66.71A2.75,2.75,0,0,1,64,131.9v-30a2.76,2.76,0,0,1,2.75-2.76h7.35a2.76,2.76,0,0,1,2.75,2.76v30A2.75,2.75,0,0,1,74.06,134.65Z"/><rect class="cls-3" x="64.27" y="104.97" width="12.24" height="2.45"/><rect class="cls-3" x="64.27" y="123.94" width="12.24" height="2.45"/><path class="cls-2" d="M92.42,134.65H85.07a2.75,2.75,0,0,1-2.75-2.75v-30a2.76,2.76,0,0,1,2.75-2.76h7.35a2.76,2.76,0,0,1,2.75,2.76v30A2.75,2.75,0,0,1,92.42,134.65Z"/><rect class="cls-3" x="82.63" y="104.97" width="12.24" height="2.45"/><rect class="cls-3" x="82.63" y="123.94" width="12.24" height="2.45"/><path class="cls-2" d="M110.78,134.65h-7.34a2.76,2.76,0,0,1-2.76-2.75v-30a2.77,2.77,0,0,1,2.76-2.76h7.34a2.77,2.77,0,0,1,2.76,2.76v30A2.76,2.76,0,0,1,110.78,134.65Z"/><rect class="cls-3" x="100.99" y="104.97" width="12.24" height="2.45"/><rect class="cls-3" x="100.99" y="123.94" width="12.24" height="2.45"/><path class="cls-2" d="M131,35.5h-7.35a2.76,2.76,0,0,1-2.75-2.76v-30A2.75,2.75,0,0,1,123.63,0H131a2.75,2.75,0,0,1,2.75,2.75v30A2.76,2.76,0,0,1,131,35.5Z"/><rect class="cls-3" x="121.19" y="5.81" width="12.24" height="2.45"/><rect class="cls-3" x="121.19" y="24.79" width="12.24" height="2.45"/><path class="cls-2" d="M149.34,35.5H142a2.76,2.76,0,0,1-2.76-2.76v-30A2.75,2.75,0,0,1,142,0h7.34a2.75,2.75,0,0,1,2.75,2.75v30A2.76,2.76,0,0,1,149.34,35.5Z"/><rect class="cls-3" x="139.55" y="5.81" width="12.24" height="2.45"/><rect class="cls-3" x="139.55" y="24.79" width="12.24" height="2.45"/><path class="cls-2" d="M167.7,35.5h-7.34a2.77,2.77,0,0,1-2.76-2.76v-30A2.76,2.76,0,0,1,160.36,0h7.34a2.76,2.76,0,0,1,2.76,2.75v30A2.77,2.77,0,0,1,167.7,35.5Z"/><rect class="cls-3" x="157.91" y="5.81" width="12.24" height="2.45"/><rect class="cls-3" x="157.91" y="24.79" width="12.24" height="2.45"/><path class="cls-2" d="M186.06,35.5h-7.34A2.77,2.77,0,0,1,176,32.74v-30A2.76,2.76,0,0,1,178.72,0h7.34a2.76,2.76,0,0,1,2.76,2.75v30A2.77,2.77,0,0,1,186.06,35.5Z"/><rect class="cls-3" x="176.27" y="5.81" width="12.24" height="2.45"/><rect class="cls-3" x="176.27" y="24.79" width="12.24" height="2.45"/><path class="cls-3" d="M213.57,36.42H39.14a.62.62,0,1,1,0-1.23H213.57a.62.62,0,0,1,0,1.23Z"/><path class="cls-3" d="M213.57,86H39.14a.61.61,0,1,1,0-1.22H213.57a.61.61,0,1,1,0,1.22Z"/><path class="cls-3" d="M213.57,135.57H39.14a.62.62,0,1,1,0-1.23H213.57a.62.62,0,0,1,0,1.23Z"/><path class="cls-3" d="M203.24,231.65c0-4.73-17.81-8.57-39.78-8.57s-39.79,3.84-39.79,8.57c0,3,7.33,5.69,18.36,7.22v46.94a4,4,0,0,0,8,0v-46.1c4.21.33,8.74.51,13.47.51s9.25-.18,13.46-.51v46.1a4,4,0,1,0,8,0V238.87C195.92,237.34,203.24,234.68,203.24,231.65Z"/><polygon class="cls-4" points="195.58 282.1 203.09 282.1 206.66 253.15 195.58 253.15 195.58 282.1"/><path class="cls-5" d="M217.56,289.06H194V280h14.47a9.11,9.11,0,0,1,9.11,9.11Z"/><polygon class="cls-4" points="207.3 277.91 214.46 275.66 209.2 246.98 198.63 250.29 207.3 277.91"/><path class="cls-5" d="M230.35,278,207.85,285h0l-2.73-8.7h0L218.93,272a9.11,9.11,0,0,1,11.42,6Z"/><path class="cls-5" d="M202.28,264.59l-13.73-36c-3.08.73-28.9,6.44-37.55-2.77-3-3.15-3.55-7.73-1.72-13.59l5.05-6.34h.15c1.91.1,46.78,2.61,49.86,16.15,2.59,11.41,7.33,32.68,8.72,38.93a2.78,2.78,0,0,1-1.72,3.18l-5.52,2.07a2.9,2.9,0,0,1-1,.17A2.77,2.77,0,0,1,202.28,264.59Z"/><path class="cls-5" d="M194.32,268.87l-13.73-36c-3.08.72-28.9,6.44-37.55-2.77-3-3.16-3.54-7.73-1.72-13.59l5.05-6.35h.16c1.9.1,46.78,2.62,49.85,16.15,2.6,11.41,7.33,32.69,8.72,38.94a2.76,2.76,0,0,1-1.72,3.17l-5.52,2.07a2.63,2.63,0,0,1-1,.17A2.76,2.76,0,0,1,194.32,268.87Z"/><path class="cls-4" d="M212.87,182.5a6.91,6.91,0,0,0-.54.86l-30.19,3.18-4.34-6L168,186l8.53,14.46,37-9.44a6.42,6.42,0,1,0-.11-9.09,6,6,0,0,0-.52.61Z"/><path class="cls-6" d="M141.13,218.38a2.75,2.75,0,0,1-1.12-2.66c1.71-11.23-.25-27.31-2.2-38.83a15.17,15.17,0,0,1,16.87-17.6,48.25,48.25,0,0,1,6.07,1.2h0a15,15,0,0,1,11.37,15c-.29,11.11,2,25,2.95,30.42a2.76,2.76,0,0,1-.51,2.15,2.66,2.66,0,0,1-1.89,1.07c-10.9,1.11-22.66,6.43-28.69,9.5a2.75,2.75,0,0,1-1.26.3A2.68,2.68,0,0,1,141.13,218.38Z"/><path class="cls-6" d="M170.55,189.42A2.74,2.74,0,0,1,169,188l-6.07-14a7,7,0,1,1,12.91-5.59l6.08,14a2.75,2.75,0,0,1-1.43,3.62l-7.86,3.41a2.76,2.76,0,0,1-2.11,0Z"/><path class="cls-4" d="M184.1,181.27a6.91,6.91,0,0,0-.54.86l-30.18,3.18-4.35-6-9.85,5.39,8.54,14.45,37-9.44a6.42,6.42,0,1,0-.12-9.08,7.45,7.45,0,0,0-.52.6Z"/><path class="cls-6" d="M141.78,190a2.7,2.7,0,0,1-1.51-1.46l-6.08-14a7,7,0,0,1,12.91-5.6h0l6.08,14a2.77,2.77,0,0,1-1.44,3.63l-7.86,3.4a2.76,2.76,0,0,1-2.11,0Z"/><circle class="cls-4" cx="153.56" cy="139.48" r="15.03"/><path class="cls-5" d="M142.81,149.8a1.31,1.31,0,0,1,.82-1.66,1.14,1.14,0,0,1,.32-.07,3.08,3.08,0,0,1,2.13,1.05,8.57,8.57,0,0,0,1.88,1.62,1.63,1.63,0,0,0,2.13-.39,3,3,0,0,0-.12-2.3,22.47,22.47,0,0,1-1-6,10.54,10.54,0,0,1,1.5-6.39c1.62-2.28,4.51-3.15,7.25-3.08s5.43.9,8.15,1.44c.93.18,2,.28,2.66-.45s.42-2,.14-3.06c-.74-2.7-1.52-5.5-3.23-7.68a11.53,11.53,0,0,0-7.38-4.16,17.78,17.78,0,0,0-8.24.94A22.07,22.07,0,0,0,139,127.17a17.86,17.86,0,0,0-3.41,13.22,16.27,16.27,0,0,0,6.05,10.31Z"/><path class="cls-7" d="M85.42,186a74.47,74.47,0,0,1,6.18-23.58q1.4-3.12,3.07-6.09a.46.46,0,0,0-.18-.62.46.46,0,0,0-.61.16,75.64,75.64,0,0,0-8.42,23.24q-.63,3.42-.95,6.89C84.45,186.57,85.36,186.57,85.42,186Z"/><circle class="cls-6" cx="96.87" cy="152.01" r="5.76"/><path class="cls-7" d="M86,186.14a48.28,48.28,0,0,1,4-15.29c.6-1.35,1.26-2.67,2-4a.3.3,0,0,0-.51-.3A49.28,49.28,0,0,0,86,181.67c-.27,1.48-.48,3-.61,4.47C85.38,186.52,86,186.52,86,186.14Z"/><circle class="cls-6" cx="93.44" cy="164.1" r="3.74"/><path class="cls-7" d="M85.26,185.79A48.52,48.52,0,0,1,79,171.26c-.36-1.43-.64-2.88-.86-4.34a.29.29,0,0,0-.34-.24.29.29,0,0,0-.25.32,49.19,49.19,0,0,0,5,15.25q1,2,2.26,3.9c.2.32.67-.05.46-.36Z"/><circle class="cls-6" cx="77.57" cy="163.84" r="3.74"/><path class="cls-3" d="M73.79,189.09v-7.34A2.75,2.75,0,0,1,76.54,179H93.68a2.75,2.75,0,0,1,2.75,2.75v7.34a2.76,2.76,0,0,1-2.75,2.76H76.54A2.76,2.76,0,0,1,73.79,189.09Z"/><path class="cls-3" d="M179.06,187h48.35a2.14,2.14,0,0,1,2.15,2.14h0a2.14,2.14,0,0,1-2.15,2.14H179.06a2.14,2.14,0,0,1-2.14-2.14h0A2.14,2.14,0,0,1,179.06,187Z"/><path class="cls-3" d="M259.85,191.25H205.38a4,4,0,0,1-4-4v-30a4,4,0,0,1,4-4h54.47a4,4,0,0,1,4,4v30A4,4,0,0,1,259.85,191.25Z"/><circle class="cls-8" cx="232.62" cy="172.28" r="3.67"/><path class="cls-3" d="M398.48,231.65c0-4.73-17.81-8.57-39.78-8.57s-39.78,3.84-39.78,8.57c0,3,7.32,5.69,18.36,7.22v46.94a4,4,0,1,0,8,0v-46.1c4.21.33,8.74.51,13.47.51s9.26-.18,13.46-.51v46.1a4,4,0,0,0,8,0V238.87C391.16,237.34,398.48,234.68,398.48,231.65Z"/><circle class="cls-5" cx="363.1" cy="136.08" r="17.14"/><polygon class="cls-9" points="320.45 282.71 312.95 282.71 309.38 253.76 320.45 253.76 320.45 282.71"/><path class="cls-5" d="M307.59,280.56h14.47v9.12H298.47a9.12,9.12,0,0,1,9.12-9.12Z"/><polygon class="cls-9" points="308.74 278.52 301.58 276.27 306.84 247.59 317.4 250.91 308.74 278.52"/><path class="cls-5" d="M297.11,272.62l13.8,4.34h0l-2.73,8.69h0l-22.5-7.06h0A9.13,9.13,0,0,1,297.11,272.62Z"/><path class="cls-5" d="M311.18,267a2.81,2.81,0,0,1-1-.17l-5.52-2.07a2.77,2.77,0,0,1-1.73-3.18c1.39-6.24,6.13-27.52,8.72-38.93,3.08-13.54,47.95-16.05,49.86-16.15h.16l5.05,6.34c1.82,5.87,1.24,10.44-1.72,13.6-8.65,9.2-34.48,3.49-37.56,2.77l-13.72,36A2.76,2.76,0,0,1,311.18,267Z"/><path class="cls-5" d="M319.13,271.26a2.68,2.68,0,0,1-1-.18L312.65,269a2.76,2.76,0,0,1-1.72-3.17c1.39-6.25,6.13-27.53,8.72-38.94,3.08-13.53,48-16.05,49.86-16.15h.15l5,6.35c1.83,5.86,1.25,10.43-1.72,13.59-8.65,9.21-34.47,3.49-37.55,2.77l-13.73,36A2.76,2.76,0,0,1,319.13,271.26Z"/><path class="cls-9" d="M303.16,183.11a5.16,5.16,0,0,1,.54.86l30.19,3.18,4.35-6,9.84,5.38L339.55,201l-37-9.44a6.42,6.42,0,1,1,.11-9.08,5.88,5.88,0,0,1,.52.6Z"/><path class="cls-10" d="M373.31,219.52a2.82,2.82,0,0,1-1.25-.31c-6-3.07-17.79-8.39-28.69-9.5a2.68,2.68,0,0,1-1.9-1.07,2.79,2.79,0,0,1-.51-2.15c1-5.44,3.24-19.31,3-30.42a15.06,15.06,0,0,1,11.37-15h0a48.61,48.61,0,0,1,6.07-1.2,15.19,15.19,0,0,1,16.87,17.6c-1.94,11.52-3.9,27.6-2.2,38.83a2.77,2.77,0,0,1-2.71,3.19Z"/><path class="cls-10" d="M344.47,190.23a2.7,2.7,0,0,1-1.09-.23l-7.87-3.4a2.77,2.77,0,0,1-1.43-3.63l6.08-14a7,7,0,1,1,12.92,5.58h0l-6.08,14a2.77,2.77,0,0,1-2.53,1.66Z"/><circle class="cls-9" cx="362.47" cy="140.09" r="15.03"/><path class="cls-5" d="M347.17,132.71a54.35,54.35,0,0,0,23.45,7.73l-2.47-3a18.29,18.29,0,0,0,5.62,1.12,6.16,6.16,0,0,0,5-2.35,5.74,5.74,0,0,0,.38-5.28,10.91,10.91,0,0,0-3.41-4.26,20.27,20.27,0,0,0-18.88-3.37,12.16,12.16,0,0,0-5.64,3.61c-1.42,1.76-4.16,3.33-3.43,5.47Z"/><path class="cls-5" d="M365,120.57a46.26,46.26,0,0,0-16.81-10.86c-4.06-1.51-8.49-2.44-12.73-1.58s-8.27,3.79-9.45,8c-1,3.4,0,7.07,1.53,10.28s3.51,6.19,4.73,9.51A21.71,21.71,0,0,1,310.43,165c4.17.56,8,2.52,12.1,3.57s8.89,1,11.92-1.95c3.21-3.09,3.27-8.12,3.12-12.57l-.69-19.86c-.12-3.38-.22-6.86,1-10s4.11-5.91,7.49-5.88c2.56,0,4.82,1.57,6.87,3.1s4.23,3.16,6.78,3.39,5.46-1.66,5.27-4.22"/><polygon class="cls-1" points="295.12 172.04 329.74 172.85 334.75 209.86 302.79 210.57 295.12 172.04"/><path class="cls-9" d="M331.93,181.89a6.79,6.79,0,0,1,.54.85l30.19,3.18L367,180l9.85,5.38-8.53,14.46-37-9.44a6.42,6.42,0,1,1,.12-9.09,5.07,5.07,0,0,1,.52.61Z"/><path class="cls-10" d="M373.24,190.84a2.78,2.78,0,0,1-1.1-.23l-7.86-3.4a2.75,2.75,0,0,1-1.43-3.62l6.07-14.05a7,7,0,0,1,12.93,5.58v0l-6.07,14a2.76,2.76,0,0,1-2.53,1.66Z"/><path class="cls-7" d="M302.08,190.64H58.49a4,4,0,0,0,0,8h7v86.6a4,4,0,1,0,8,0v-79l44.61,80.84a4,4,0,0,0,6.89-4L78.35,198.6h213v.05L244.78,283.1a4,4,0,1,0,6.89,4h0l39.7-72V285.2a4,4,0,0,0,8,0V200.7l1.16-2.1h1.59a4,4,0,1,0,0-8Z"/><path class="cls-7" d="M452.6,290.08H.72a.73.73,0,0,1,0-1.46H452.6a.73.73,0,0,1,0,1.46Z"/></svg>