<svg id="Layer_1" data-name="Layer 1" xmlns="http://www.w3.org/2000/svg" xmlns:xlink="http://www.w3.org/1999/xlink" viewBox="0 0 481.38 267.65"><defs><style>.cls-1{fill:none;}.cls-2{clip-path:url(#clip-path);}.cls-3{fill:#ffb7b7;}.cls-4{fill:#fff;}.cls-5{fill:#3f3d56;}.cls-6{fill:#ee4693;}.cls-7{fill:#10c0e8;}.cls-8{fill:#e6e6e6;}.cls-9{opacity:0.15;}.cls-10,.cls-9{isolation:isolate;}.cls-10{opacity:0.1;}</style><clipPath id="clip-path"><rect class="cls-1" x="3.28" width="478.09" height="267.65"/></clipPath></defs><title>Artboard 49</title><g class="cls-2"><path class="cls-3" d="M128.15,220,80.7,230.7s-9.67-1.1-.5-14.61c.83-1.22,1.8-2.53,3-4l24.59-12.06-.23-1.63-5.23-36.92-2-14.28,15.44-14.35,2.94-2.74,39.17,36.23-.28.51-16.37,29.59Z"/><path class="cls-3" d="M110.6,209.24l-47.44,10.7a5.07,5.07,0,0,1-4.46-5.61,4.17,4.17,0,0,1,.1-.6,14.19,14.19,0,0,1,1.28-4,43.26,43.26,0,0,1,5.53-8.38L90.2,189.32l-3-21.27-1.5-10.6-1-6.86-2-14.1,18.38-17.09,20,18.51,19.15,17.72-2.59,4.66-3.08,5.58L119.8,192.61l-3,5.45Z"/><path class="cls-3" d="M193.09,201.76s-17.78-1.18-24.43-13.21a21.71,21.71,0,0,1-2.32-13l-7.24-14.32-10.32-20.41-26.3-4.15-1.37,1.22L102,154.85,96.2,160l-9,8-43.7,38.83a32.28,32.28,0,0,1-6.62,8.27,44.07,44.07,0,0,1-8,5.89c-8.34,4.84-20.81,8.6-38.73,6.63l-94.49,25.15-9.24-63.37,79.26-26.06,116.23-76,78.46,20.08,36.38,51.66Z"/><path class="cls-4" d="M461.76,33.15H130.86a4.8,4.8,0,0,0-4.79,4.8V233.88a4.79,4.79,0,0,0,4.79,4.8h330.9a4.79,4.79,0,0,0,4.79-4.8V38A4.8,4.8,0,0,0,461.76,33.15Z"/><path class="cls-5" d="M461.76,33.15H130.86a4.8,4.8,0,0,0-4.79,4.8V233.88a4.79,4.79,0,0,0,4.79,4.8h330.9a4.79,4.79,0,0,0,4.79-4.8V38A4.8,4.8,0,0,0,461.76,33.15Zm3.42,200.73a3.43,3.43,0,0,1-3.42,3.43H130.86a3.43,3.43,0,0,1-3.42-3.43V38a3.43,3.43,0,0,1,3.42-3.43h330.9A3.43,3.43,0,0,1,465.18,38Z"/><path class="cls-6" d="M163.06,59.87a8.22,8.22,0,1,1,8.22-8.22h0A8.22,8.22,0,0,1,163.06,59.87Zm0-15.07a6.85,6.85,0,1,0,6.85,6.85h0A6.85,6.85,0,0,0,163.06,44.8Z"/><path class="cls-6" d="M150.28,51.65a7.54,7.54,0,0,1,5.08-7.12,7.54,7.54,0,0,0-4.92,14.25,7.67,7.67,0,0,0,4.92,0A7.54,7.54,0,0,1,150.28,51.65Z"/><path class="cls-6" d="M196.38,148.78a6.16,6.16,0,0,1-6.16-6.16v-18.5a6.17,6.17,0,1,1,12.33,0v18.5A6.16,6.16,0,0,1,196.38,148.78Z"/><path class="cls-7" d="M212.83,148.78a6.16,6.16,0,0,1-6.17-6.16v-18.5a6.17,6.17,0,1,1,12.33,0v18.5A6.16,6.16,0,0,1,212.83,148.78Z"/><path class="cls-6" d="M229.27,148.78a6.17,6.17,0,0,1-6.17-6.16v-18.5a6.17,6.17,0,1,1,12.33,0v18.5A6.16,6.16,0,0,1,229.27,148.78Z"/><path class="cls-6" d="M254.62,148.78a6.16,6.16,0,0,1-6.17-6.16v-18.5a6.17,6.17,0,1,1,12.33,0v18.5A6.16,6.16,0,0,1,254.62,148.78Z"/><path class="cls-6" d="M271.06,148.78a6.17,6.17,0,0,1-6.17-6.16v-18.5a6.17,6.17,0,1,1,12.33,0v18.5A6.16,6.16,0,0,1,271.06,148.78Z"/><path class="cls-7" d="M287.5,148.78a6.18,6.18,0,0,1-6.17-6.16v-18.5a6.17,6.17,0,0,1,12.34,0v18.5A6.18,6.18,0,0,1,287.5,148.78Z"/><path class="cls-6" d="M312.85,148.78a6.17,6.17,0,0,1-6.17-6.16v-18.5a6.17,6.17,0,1,1,12.33,0v18.5A6.16,6.16,0,0,1,312.85,148.78Z"/><path class="cls-7" d="M329.29,148.78a6.18,6.18,0,0,1-6.17-6.16v-18.5a6.17,6.17,0,1,1,12.34,0v18.5A6.18,6.18,0,0,1,329.29,148.78Z"/><path class="cls-6" d="M345.73,148.78a6.16,6.16,0,0,1-6.16-6.16v-18.5a6.17,6.17,0,1,1,12.33,0v18.5A6.17,6.17,0,0,1,345.73,148.78Z"/><path class="cls-6" d="M371.08,148.78a6.18,6.18,0,0,1-6.17-6.16v-18.5a6.17,6.17,0,0,1,12.34,0v18.5A6.18,6.18,0,0,1,371.08,148.78Z"/><path class="cls-7" d="M387.52,148.78a6.16,6.16,0,0,1-6.16-6.16v-18.5a6.17,6.17,0,1,1,12.33,0v18.5A6.17,6.17,0,0,1,387.52,148.78Z"/><path class="cls-7" d="M404,148.78a6.16,6.16,0,0,1-6.16-6.16v-18.5a6.17,6.17,0,1,1,12.33,0v18.5A6.16,6.16,0,0,1,404,148.78Z"/><path class="cls-8" d="M238.19,217.41H149.51a4.15,4.15,0,1,1,0-8.29h88.68a4.15,4.15,0,0,1,0,8.29Z"/><path class="cls-8" d="M209.75,199.59H177.94a4.14,4.14,0,1,1,0-8.28h31.81a4.14,4.14,0,1,1,0,8.28Z"/><rect class="cls-5" x="127.19" y="74.11" width="337.75" height="1.37"/><polygon class="cls-9" points="88.57 213.05 87.85 211.43 117.13 198.44 124.11 173.95 113.59 165.44 114.71 164.06 126.14 173.31 118.61 199.73 88.57 213.05"/><path class="cls-10" d="M60.08,209.76l-7.69,3.75-15.53,1.64a44.07,44.07,0,0,1-8,5.89l-13.62-.45-23-.72L70,153.6l15.67,3.85S59.36,211.31,60.08,209.76Z"/><path class="cls-3" d="M168.66,188.55c-2,.39-4.27.72-6.75,1-12.76,1.27-39.73,3-42.11,3.09-16,.75-26,.74-26,.74l-33.7,16.41-7.69,3.75L-10,220.12l84.48-72,10.23,2.51L102,154.85l19.08,4.7,16.56.74,21.43,1,17.31.78a11.37,11.37,0,0,1,11,11.68C187.11,179.43,183.15,185.74,168.66,188.55Z"/><path class="cls-9" d="M175.23,184.21c-.28-.09-6.78-2.13-8.85-7.86C165,172.5,166,168,169.29,163l1.48,1c-3,4.53-3.9,8.5-2.72,11.8,1.75,4.89,7.64,6.75,7.7,6.77Z"/><rect class="cls-9" x="59.95" y="200.86" width="33.16" height="1.77" transform="translate(-80.62 53.89) rotate(-25.97)"/><polygon class="cls-9" points="79.92 152.52 122.15 135.86 122.8 137.52 86.31 151.91 117.33 157.7 117 159.45 79.92 152.52"/></g></svg>