<svg id="Layer_1" data-name="Layer 1" xmlns="http://www.w3.org/2000/svg" viewBox="0 0 474.31 330"><defs><style>.cls-1{fill:#e5e5e4;}.cls-2{fill:#2f2e41;}.cls-3{fill:#403d56;}.cls-4{fill:#fff;}.cls-5{fill:#ed4792;}.cls-6{fill:#f8b5b7;}</style></defs><title>Artboard 25</title><ellipse class="cls-1" cx="94.5" cy="322.82" rx="94.5" ry="7.18"/><path class="cls-2" d="M72.24,73.22c16.44-7,36.93-2.56,56.93.51.19-3.72,2.44-8.25.08-10.85-2.87-3.16-2.61-6.48-.88-9.81,4.42-8.54-1.91-17.62-8.3-25.16a14.15,14.15,0,0,0-11.82-5l-11.84.84A14.17,14.17,0,0,0,83.82,33.93h0c-2.83,3.84-4.34,7.68-3.39,11.49-4.24,2.9-5,6.39-3,10.33A5.94,5.94,0,0,1,77.31,63a33.57,33.57,0,0,0-5,9.87Z"/><path class="cls-2" d="M463.07,285.28H127.87A11.24,11.24,0,0,1,116.63,274h0q182.27-21.18,357.68,0h0a11.24,11.24,0,0,1-11.24,11.24Z"/><path class="cls-3" d="M474.31,274.7,116.63,274l41.46-69.75.19-.33V50.24A14.21,14.21,0,0,1,172.49,36h244a14.21,14.21,0,0,1,14.21,14.21h0V205Z"/><path class="cls-4" d="M172.17,46a4.63,4.63,0,0,0-4.63,4.63V190.74a4.64,4.64,0,0,0,4.63,4.63h246.6a4.64,4.64,0,0,0,4.63-4.63V50.58A4.63,4.63,0,0,0,418.77,46Z"/><path class="cls-2" d="M173.2,213.88a2,2,0,0,0-1.8,1.15L158.63,242.8a2,2,0,0,0,1.8,2.81H429a2,2,0,0,0,1.77-2.87L416.93,215a2,2,0,0,0-1.78-1.09Z"/><circle class="cls-4" cx="294.48" cy="40.66" r="2.98"/><path class="cls-2" d="M268.08,250.9a2,2,0,0,0-1.92,1.47l-3.2,11.9a2,2,0,0,0,1.4,2.43,2.16,2.16,0,0,0,.51.07H325.8a2,2,0,0,0,1.88-2.63l-4.12-11.9a2,2,0,0,0-1.88-1.34Z"/><polygon class="cls-2" points="430.67 201.65 430.67 204.29 158.09 204.29 158.29 203.96 158.29 201.65 430.67 201.65"/><circle class="cls-5" cx="423.07" cy="46.28" r="46.28"/><path class="cls-4" d="M442.24,66.44H403.9a2.65,2.65,0,0,1-2.65-2.64V40.66A2.65,2.65,0,0,1,403.9,38h38.34a2.65,2.65,0,0,1,2.65,2.64V63.8A2.65,2.65,0,0,1,442.24,66.44ZM403.9,40.66V63.8h38.34V40.66Z"/><path class="cls-4" d="M435,40.66h-23.8V30.08c0-7.66,5-13.22,11.9-13.22S435,22.42,435,30.08ZM413.81,38h18.51V30.08c0-6.23-3.8-10.58-9.25-10.58s-9.26,4.35-9.26,10.58Z"/><circle class="cls-4" cx="423.07" cy="51.57" r="2.64"/><path class="cls-1" d="M390.76,147.82H200.18a3.53,3.53,0,0,1-3.53-3.53V97a3.53,3.53,0,0,1,3.53-3.53H390.76A3.53,3.53,0,0,1,394.29,97v47.27A3.53,3.53,0,0,1,390.76,147.82ZM200.18,94.9A2.12,2.12,0,0,0,198.06,97v47.27a2.12,2.12,0,0,0,2.12,2.12H390.76a2.12,2.12,0,0,0,2.12-2.12V97a2.12,2.12,0,0,0-2.12-2.12Z"/><circle class="cls-1" cx="229.79" cy="118.84" r="14.38"/><path class="cls-1" d="M263,109.26a2.4,2.4,0,0,0,0,4.79H376a2.4,2.4,0,1,0,0-4.79Z"/><path class="cls-1" d="M263,123.64a2.4,2.4,0,0,0,0,4.79H311.6a2.4,2.4,0,1,0,0-4.79Z"/><path class="cls-6" d="M157.62,124.6l-35.23,18.74-.45-15.61A104.45,104.45,0,0,0,154.5,117l3.68-9.1a6.19,6.19,0,0,1,8-3.41,6.25,6.25,0,0,1,2.45,1.81h0a6.17,6.17,0,0,1-.54,8.41Z"/><path class="cls-2" d="M71.53,232.75h0a6.91,6.91,0,0,1,.88-5.6l7.74-11.88a13.53,13.53,0,0,1,17.55-4.63h0c-3.26,5.54-2.8,10.39,1.12,14.61a70.32,70.32,0,0,0-16.71,11.4,6.94,6.94,0,0,1-9.62-1.82A7.28,7.28,0,0,1,71.53,232.75Z"/><path class="cls-2" d="M159.22,217.22h0a13.26,13.26,0,0,1-11.29,6.44l-51.41.39-2.23-12.93L117,204.43,97.86,189.71l21-24.52,38.07,35.48A13.28,13.28,0,0,1,159.22,217.22Z"/><path class="cls-2" d="M88.49,305.66h-12c-10.81-74.1-21.81-148.41,10.71-176.15l38.35,6.24-4.91,32.56L99.2,192.84Z"/><path class="cls-2" d="M99.08,322.45h0a6.91,6.91,0,0,1-5.6-.88L80.4,319.82a13.53,13.53,0,0,1-4.63-17.55h0c5.54,3.25,10.4,2.8,14.62-1.12,3,6,7.89,5.65,12.59,10.72a6.93,6.93,0,0,1-1.82,9.62A6.78,6.78,0,0,1,99.08,322.45Z"/><path class="cls-6" d="M117,80,94.74,74.66c3.7-7.58,4-16,2.23-25l15.16-.44C112.6,60.38,114,70.79,117,80Z"/><path class="cls-5" d="M123.16,149.18c-16.23,11.06-27.7.38-36.45-16.1,1.22-10.09-.75-22.16-4.4-35.27A24,24,0,0,1,97,68.86h0l19.17,8c16.29,13.27,19.49,27.65,13.38,42.81Z"/><path class="cls-6" d="M76.45,91.16l-17.84,9.36,31.67,18.73,4.4,10.87a5.76,5.76,0,0,1-3.17,7.51l-.29.11h0a5.75,5.75,0,0,1-7.63-5.12l-.45-7.57L42.9,111.77A9.43,9.43,0,0,1,37,106h0a9.42,9.42,0,0,1,3.53-11l32.36-22.2Z"/><path class="cls-5" d="M94.29,92.94c-7.44-3.26-14.2.28-22.74,3.12L70.21,72.43c8.48-4.52,16.56-5.74,24.08-2.23Z"/><circle class="cls-6" cx="103.19" cy="46.71" r="14.24"/><path class="cls-2" d="M120.22,44.91c-14.09,1.38-24.83-.92-31.7-7.49V32.14H119Z"/></svg>