<svg id="Layer_1" data-name="Layer 1" xmlns="http://www.w3.org/2000/svg" viewBox="0 0 455.38 293.77"><defs><style>.cls-1{fill:#ccc;}.cls-2{fill:#ee4693;}.cls-3{fill:#3f3d56;}.cls-4{fill:#10c0e8;}.cls-5{fill:#f2f2f2;}.cls-6{fill:#fff;}.cls-7{fill:#ffb8b8;}.cls-8{fill:#2f2e41;}</style></defs><title>Artboard 38</title><path class="cls-1" d="M214.49,46.21h-42.8a2.44,2.44,0,0,1,0-4.87h42.8a2.44,2.44,0,0,1,0,4.87Z"/><path class="cls-1" d="M247.56,63.23H171.69a2.44,2.44,0,0,1,0-4.87h75.87a2.44,2.44,0,1,1,0,4.87Z"/><path class="cls-1" d="M228.6,80.25H171.69a2.43,2.43,0,0,1,0-4.86H228.6a2.43,2.43,0,1,1,0,4.86Z"/><path class="cls-1" d="M247.56,97.27H171.69a2.43,2.43,0,0,1,0-4.86h75.87a2.43,2.43,0,1,1,0,4.86Z"/><circle class="cls-2" cx="72.62" cy="68.36" r="43.52"/><path class="cls-3" d="M75.05,27.3H70.19V22.43h4.86Zm-3.89-1h2.92V23.41H71.16Z"/><rect class="cls-3" x="74.19" y="24.38" width="25.78" height="0.97"/><circle class="cls-3" cx="99.97" cy="24.87" r="1.01"/><rect class="cls-3" x="45.49" y="24.38" width="25.29" height="0.97"/><circle class="cls-3" cx="45.49" cy="24.87" r="1.01"/><path class="cls-3" d="M118.45,70.67h-4.86V65.81h4.86Zm-3.89-1h2.92V66.78h-2.92Z"/><rect class="cls-3" x="115.53" y="70.3" width="0.97" height="25.29"/><circle class="cls-3" cx="116.02" cy="95.59" r="1.01"/><rect class="cls-3" x="115.53" y="41.12" width="0.97" height="25.29"/><circle class="cls-3" cx="116.02" cy="41.12" r="1.01"/><path class="cls-3" d="M31.39,70.67H26.53V65.81h4.86Zm-3.89-1h2.92V66.78H27.5Z"/><rect class="cls-3" x="28.47" y="70.3" width="0.97" height="25.29"/><circle class="cls-3" cx="28.96" cy="95.59" r="1.01"/><rect class="cls-3" x="28.47" y="40.15" width="0.97" height="26.26"/><circle class="cls-3" cx="28.96" cy="41.12" r="1.01"/><path class="cls-3" d="M75.05,114.36H70.19v-4.87h4.86Zm-3.89-1h2.92v-2.92H71.16Z"/><rect class="cls-3" x="74.68" y="111.44" width="25.78" height="0.97"/><circle class="cls-3" cx="99.97" cy="111.93" r="1.01"/><rect class="cls-3" x="45.49" y="111.44" width="25.29" height="0.97"/><circle class="cls-3" cx="45.49" cy="111.93" r="1.01"/><path class="cls-3" d="M273.34,148.34H8.27A8.27,8.27,0,0,1,0,140.08V8.27A8.28,8.28,0,0,1,8.27,0H273.34a8.28,8.28,0,0,1,8.27,8.27V140.08A8.27,8.27,0,0,1,273.34,148.34ZM8.27,1A7.32,7.32,0,0,0,1,8.27V140.08a7.31,7.31,0,0,0,7.3,7.29H273.34a7.31,7.31,0,0,0,7.3-7.29V8.27a7.32,7.32,0,0,0-7.3-7.3Z"/><circle class="cls-1" cx="160.5" cy="43.77" r="2.43"/><circle class="cls-1" cx="160.5" cy="60.8" r="2.43"/><circle class="cls-1" cx="160.5" cy="77.82" r="2.43"/><circle class="cls-1" cx="160.5" cy="94.84" r="2.43"/><path class="cls-4" d="M213.06,116.26H198.21a1.83,1.83,0,0,1-1.83-1.83V96.9a1.83,1.83,0,0,1,1.83-1.83h14.85a1.83,1.83,0,0,1,1.83,1.83v17.53A1.83,1.83,0,0,1,213.06,116.26Z"/><path class="cls-5" d="M368.09,293.06l-1.65.41,2.23.3h27.5c2.07-.26,4.12-.59,6.16-1a95.9,95.9,0,0,0,34.51-13.68c6.45-4.19,12.61-9.35,16-16.28,4.53-9.42,2.95-21.33-3.53-29.53a29.64,29.64,0,0,0-8.55-7.29c-.5-.28-1-.55-1.5-.81A32.12,32.12,0,0,0,421.46,222,35.19,35.19,0,0,0,396,238.3c-6.11,9.79-7.29,21.76-8.31,33.26-1.85-6-8.81-9.61-14.91-8.29s-10.81,7-11.57,13.2a19.23,19.23,0,0,0,6.6,16.33C367.88,292.88,368,293,368.09,293.06Z"/><path class="cls-6" d="M389.3,293.77h1.37a1,1,0,0,0,.31-.41c.08-.19.15-.38.23-.56a168,168,0,0,1,49.17-66.06.82.82,0,0,0,.33-.72,1.07,1.07,0,0,0-1.72-.67A170.16,170.16,0,0,0,389.1,292.8s0,0,0,0A.74.74,0,0,0,389.3,293.77Z"/><path class="cls-7" d="M341.08,185.81a5.55,5.55,0,0,1,5.54-5.54h.16l17.12-13.65-12.27-12.27a5.41,5.41,0,1,1,7.64-7.67h0L379,166.43,352.15,186a5.54,5.54,0,0,1-11.07-.15Z"/><polygon class="cls-7" points="320.98 286.98 315.19 284.82 320.77 261.45 329.32 264.65 320.98 286.98"/><path class="cls-8" d="M311.42,281.53l11.42,4.26h0l-2.63,7h0L302,286h0l.09-.25A7.24,7.24,0,0,1,311.42,281.53Z"/><polygon class="cls-7" points="373.08 287.07 366.9 287.07 363.96 263.23 373.08 263.23 373.08 287.07"/><path class="cls-8" d="M362.22,285.31H374.4v7.5H355v-.26A7.24,7.24,0,0,1,362.22,285.31Z"/><path class="cls-8" d="M364.89,278a2.19,2.19,0,0,1-.66-1.71c1.1-18.21-8.5-51.31-11.47-61a1.64,1.64,0,0,0-1.15-1.13,1.72,1.72,0,0,0-1.61.36c-16,14-20.81,53.36-21.61,61.12a2.19,2.19,0,0,1-2.4,1.95h-.05l-8-1a2.18,2.18,0,0,1-1.9-2.44l0-.19,21-97v-.06l0,0c5.08-6.09,19.78-3.72,20.4-3.61h.06l.05,0c18.88,15.65,17.92,88.21,17.54,102.6a2.2,2.2,0,0,1-2,2.12l-6.55.62h-.21A2.2,2.2,0,0,1,364.89,278Z"/><circle class="cls-7" cx="353.8" cy="122.22" r="11.95"/><path class="cls-2" d="M365.53,144.72s-11.1-13.11-20.17-2.52h0a36,36,0,0,0-8.66,24.52l.34,11.53L358,175Z"/><path class="cls-8" d="M351.86,124.29l-5.13-6.05c-1.32-1.56-2.71-3.26-2.9-5.29a6.47,6.47,0,0,1,3-5.66,13.13,13.13,0,0,1,6.37-1.9c4.14-.32,8.5.36,11.91,2.74s5.63,6.68,4.8,10.76c-.65,3.2-3.06,6.27-2.13,9.41,1,3.43,5.23,4.48,8.66,5.5,5.76,1.72,11.26,5.1,14.28,10.3s3,12.36-1,16.82a15.15,15.15,0,0,1-10.42,4.58,30.59,30.59,0,0,1-11.44-1.95,26.8,26.8,0,0,1-9.42-5,12.6,12.6,0,0,1-4.51-9.38c.08-3.42,1.91-6.53,2.66-9.86a16.14,16.14,0,0,0-5.06-15.43"/><path class="cls-2" d="M339.18,232.16H324.32a1.84,1.84,0,0,1-1.83-1.83V212.81a1.84,1.84,0,0,1,1.83-1.83h14.86a1.82,1.82,0,0,1,1.82,1.83v17.52A1.82,1.82,0,0,1,339.18,232.16Z"/><path class="cls-7" d="M334.77,217.17a5.4,5.4,0,0,1,1.08-7L344,146.06a5.67,5.67,0,0,1,5.62-4.95h.08a5.66,5.66,0,0,1,5.59,5.74,4.91,4.91,0,0,1-.09.94l-11.43,63.26h0a5.42,5.42,0,0,1-1.16,7.59,6.32,6.32,0,0,1-1,.57,5.37,5.37,0,0,1-2.2.47A5.51,5.51,0,0,1,334.77,217.17Z"/><path class="cls-3" d="M415.57,293.77h-125a.49.49,0,0,1-.49-.49.48.48,0,0,1,.49-.48h125a.47.47,0,0,1,.48.48A.48.48,0,0,1,415.57,293.77Z"/></svg>