<svg id="Layer_1" data-name="Layer 1" xmlns="http://www.w3.org/2000/svg" viewBox="0 0 439.98 330"><defs><style>.cls-1{fill:#ee4693;}.cls-2{fill:#f0f0f0;}.cls-3{fill:#3f3d56;}.cls-4{opacity:0.1;isolation:isolate;}.cls-5{fill:#10c0e8;}.cls-6{fill:#fff;}.cls-7{fill:#f2f2f2;}.cls-8{fill:#2f2e41;}.cls-9{fill:#ffb9b9;}</style></defs><title>Artboard 43</title><rect class="cls-1" y="135.59" width="409.75" height="194.41"/><rect class="cls-2" x="67.74" y="214.34" width="274.27" height="115.66"/><rect class="cls-3" x="67.74" y="221.4" width="274.27" height="1.1"/><circle class="cls-3" cx="72.69" cy="218.19" r="1.97"/><circle class="cls-3" cx="79.45" cy="218.19" r="1.97"/><circle class="cls-3" cx="86.21" cy="218.19" r="1.97"/><polygon class="cls-1" points="219.22 273.37 222.14 279.29 228.67 280.24 223.94 284.85 225.06 291.35 219.22 288.28 213.38 291.35 214.49 284.85 209.77 280.24 216.3 279.29 219.22 273.37"/><polygon class="cls-1" points="245.49 273.37 248.41 279.29 254.94 280.24 250.21 284.85 251.33 291.35 245.49 288.28 239.65 291.35 240.76 284.85 236.04 280.24 242.57 279.29 245.49 273.37"/><polygon class="cls-1" points="271.76 273.37 274.68 279.29 281.21 280.24 276.48 284.85 277.6 291.35 271.76 288.28 265.92 291.35 267.03 284.85 262.31 280.24 268.84 279.29 271.76 273.37"/><polygon class="cls-1" points="298.03 273.37 300.95 279.29 307.48 280.24 302.75 284.85 303.87 291.35 298.03 288.28 292.19 291.35 293.31 284.85 288.58 280.24 295.11 279.29 298.03 273.37"/><polygon class="cls-1" points="324.3 273.37 327.22 279.29 333.75 280.24 329.02 284.85 330.14 291.35 324.3 288.28 318.46 291.35 319.57 284.85 314.85 280.24 321.38 279.29 324.3 273.37"/><rect class="cls-3" x="86.47" y="248.49" width="106.84" height="67.74"/><polygon class="cls-4" points="108.25 135.59 0 209.91 0 171.83 52.79 135.59 108.25 135.59"/><polygon class="cls-4" points="231.37 135.59 0 294.43 0 256.35 175.91 135.59 231.37 135.59"/><path class="cls-2" d="M62.59,191l-7.42-8,7.95-7.42,7.42,7.95Zm-6.24-7.91,6.28,6.72,6.73-6.27-6.28-6.73Z"/><path class="cls-5" d="M307.31,186H296.44V175.14h10.87Zm-10-.83h9.2V176h-9.2Z"/><circle class="cls-2" cx="374.67" cy="273.25" r="5.55"/><path class="cls-5" d="M374.67,289.29a16,16,0,1,1,16-16A16,16,0,0,1,374.67,289.29Zm0-30.84a14.8,14.8,0,1,0,14.81,14.8A14.8,14.8,0,0,0,374.67,258.45Z"/><path class="cls-6" d="M126.12,301.38c2.55,9.43,11.28,15.26,11.28,15.26s4.6-9.44,2-18.87-11.28-15.26-11.28-15.26S123.57,292,126.12,301.38Z"/><path class="cls-1" d="M129.87,299.36c7,6.81,7.85,17.28,7.85,17.28s-10.49-.58-17.49-7.39S112.38,292,112.38,292,122.87,292.55,129.87,299.36Z"/><path class="cls-6" d="M149.31,301.38c-2.54,9.43-11.28,15.26-11.28,15.26s-4.6-9.44-2.05-18.87,11.28-15.26,11.28-15.26S151.86,292,149.31,301.38Z"/><path class="cls-1" d="M145.57,299.36c-7,6.81-7.85,17.28-7.85,17.28s10.49-.58,17.48-7.39S163.05,292,163.05,292,152.56,292.55,145.57,299.36Z"/><rect class="cls-7" x="312.35" y="10.5" width="43.24" height="50.38"/><path class="cls-3" d="M340.89,136.17l-.6-.59a30.69,30.69,0,0,0,6.16-10.77c2-6.14,3-15.85-3.81-27.19-7-11.61-7.32-21-6.35-26.9a24,24,0,0,1,3.86-10.1l.66.51a23.83,23.83,0,0,0-3.7,9.78c-.94,5.72-.61,14.91,6.25,26.27,7,11.63,6,21.61,3.87,27.94A30.72,30.72,0,0,1,340.89,136.17Z"/><path class="cls-3" d="M372.39,61.29H311.93V.84h60.46Zm-59.62-.83h58.78V1.68H312.77Z"/><rect class="cls-3" x="324.53" y="18.47" width="36.94" height="0.84"/><rect class="cls-3" x="324.53" y="27.71" width="36.94" height="0.84"/><rect class="cls-3" x="324.53" y="36.94" width="36.94" height="0.84"/><rect class="cls-7" x="379.94" y="47.02" width="43.24" height="50.38"/><path class="cls-3" d="M408.48,172.7l-.6-.59A30.62,30.62,0,0,0,414,161.34c2-6.15,3-15.86-3.81-27.2-7-11.6-7.32-21-6.35-26.89a24,24,0,0,1,3.86-10.11l.67.51a23.76,23.76,0,0,0-3.71,9.79c-.93,5.71-.61,14.91,6.25,26.27,7,11.63,6,21.61,3.87,27.93A30.82,30.82,0,0,1,408.48,172.7Z"/><path class="cls-3" d="M440,97.82H379.52V37.36H440ZM380.36,97h58.78V38.2H380.36Z"/><rect class="cls-3" x="392.12" y="55" width="36.94" height="0.84"/><rect class="cls-3" x="392.12" y="64.23" width="36.94" height="0.84"/><rect class="cls-3" x="392.12" y="73.47" width="36.94" height="0.84"/><rect class="cls-7" x="58.36" y="9.66" width="43.24" height="50.38"/><path class="cls-3" d="M86.9,135.33l-.6-.59A30.71,30.71,0,0,0,92.45,124c2-6.15,3-15.86-3.81-27.2-7-11.61-7.32-21-6.35-26.89a24.28,24.28,0,0,1,3.86-10.11l.67.51a23.67,23.67,0,0,0-3.71,9.78c-.93,5.72-.61,14.91,6.25,26.27,7,11.63,6,21.61,3.88,27.94A31.05,31.05,0,0,1,86.9,135.33Z"/><path class="cls-3" d="M118.39,60.46H57.94V0h60.45Zm-59.61-.84h58.77V.84H58.78Z"/><rect class="cls-3" x="70.53" y="17.63" width="36.94" height="0.84"/><rect class="cls-3" x="70.53" y="26.87" width="36.94" height="0.84"/><rect class="cls-3" x="70.53" y="36.11" width="36.94" height="0.84"/><polygon class="cls-2" points="197.09 153.72 200.01 159.64 206.54 160.59 201.82 165.19 202.93 171.7 197.09 168.63 191.25 171.7 192.37 165.19 187.64 160.59 194.17 159.64 197.09 153.72"/><path class="cls-8" d="M207.65,20.32h0c10.09,0,18.27,9.08,18.27,20.28V54.82h-4.38L219,49.55l.63,5.27H191.52L189.22,50l.57,4.79h-3.16V43.65C186.63,30.77,196,20.32,207.65,20.32Z"/><path class="cls-8" d="M228.58,113.27,239.8,118l39,31.69a11.41,11.41,0,0,1,2.53,6.17c.28,3.65,12.06,22.71,7.85,25.24S269.8,191.22,269,186.18s-5.33-26.64-5.33-26.64l-37.57-33.65Z"/><path class="cls-8" d="M272.6,182l4.77,14s-5.05,5.33-2.52,9.81v15.43h3.92l1.13-8.13s4.47,8,6.73,8.13c4.73.21,14.11,1.9,14.39-.63s-7.1-5-7.1-5L286.06,194l-3.36-13.18Z"/><path class="cls-8" d="M199.42,109.62s-2.53,24.68,4.76,29.17,39.54,18.78,39.54,18.78-13.74,12.9-10.93,16,15.42,11.49,17.1,9.81,20.47-21.87,18.23-28.32-33.37-27.48-33.37-27.48l-3.65-13.18L230,103.73,218.2,96.16Z"/><circle class="cls-9" cx="212.26" cy="40.48" r="11.69"/><path class="cls-9" d="M203.2,45.27s.56,10.65-8.13,14,21.59,25.24,21.59,25.24V60.13s-3.92-4.21,0-10.66Z"/><path class="cls-9" d="M184.55,95.32l2.25,10.94,6.73,37.57s-5.61,16,2,15.71,3.93-17.39,3.93-17.39L195.49,111V99Z"/><path class="cls-9" d="M232.79,90l2.52,9.82,11.5,27.76s7.85,13.18,1.4,12.9-6.45-12.9-6.45-12.9l-13.18-22.43V92.52Z"/><path class="cls-8" d="M234.75,171.87l-9.25,8.7s-6.45-1.4-9,6.17-4.2,12.33-4.2,12.33l3.36,2,4.21-5.89s2.52,10.65,5,11.5,15.15,6.45,14,0l-6.17-9s-.85-10.09,1.68-10.93,9.25-9.26,9.25-9.26Z"/><path class="cls-3" d="M199,118.32s26.36-9.54,28-8.7a12.67,12.67,0,0,0,4,1l0-3.83s-8.69-3.09-13.46-1.12-19.35,10.65-19.35,10.65Z"/><path class="cls-5" d="M215,78.92s-7.57-8.7-9.81-14a13.77,13.77,0,0,0-7.28-7.16s-16.84,3.79-16.56,10.52S192,85.37,192,85.37s-1.41,37.29,6.17,36.73a16.26,16.26,0,0,0,3.36-6.73c.84-3.92,26.92-8.13,26.92-8.13s2.24,3.92,2.52,2.24-2.24-42.9-2.24-42.9l-13.37-8.84Z"/><path class="cls-5" d="M183.49,65.55l-.19.11a3.85,3.85,0,0,0-2,3.37V89.84a3.87,3.87,0,0,1-1.39,3c-1.08.92-2.08,2.24,0,2.93,3.36,1.12,16.54,6.73,16.82,4.77s.84-4.21,0-4.21c-.66,0-4.58-20.11-7.73-28.7a3.88,3.88,0,0,0-5-2.31A4,4,0,0,0,183.49,65.55Z"/><path class="cls-5" d="M224.93,65.6l3.93,1.12,4.49,19.35s5.32,1.12,3.64,3.08-8.69,7-8.69,7Z"/><path class="cls-8" d="M202.45,25.91A9.61,9.61,0,0,1,210,22.05h.36c6.92,0,12.52,6.26,12.52,14h-2.31l-.38-2.85L219.65,36H205.91l-1.15-2.41.29,2.41h-2.71q-1.89,9.39,5.44,18.79h-4.6L200.87,50l.58,4.82h-8.78l-1.73-11.08C190.94,35.44,195.77,28.4,202.45,25.91Z"/></svg>