<svg id="Layer_1" data-name="Layer 1" xmlns="http://www.w3.org/2000/svg" xmlns:xlink="http://www.w3.org/1999/xlink" viewBox="0 0 451.95 329.44"><defs><style>.cls-1{fill:#10c0e8;}.cls-2{fill:#444053;}.cls-3,.cls-4{fill:none;stroke:#444053;stroke-miterlimit:10;}.cls-3{stroke-width:0.41px;}.cls-4{stroke-width:0.31px;}.cls-21,.cls-5{fill:#ee4693;}.cls-6{fill:#e8eaf2;}.cls-7{fill:#65617d;}.cls-8{fill:#fa5959;}.cls-10,.cls-8,.cls-9{opacity:0.8;}.cls-10,.cls-12,.cls-14,.cls-21,.cls-8,.cls-9{isolation:isolate;}.cls-9{fill:#fed253;}.cls-10{fill:#8ccf4d;}.cls-11{fill:url(#linear-gradient);}.cls-12{opacity:0.05;}.cls-13{fill:#3f3d56;}.cls-14,.cls-19{opacity:0.1;}.cls-15{fill:#ee8e9e;}.cls-16{fill:#e3e8f4;}.cls-17{fill:#e6e8ec;}.cls-18{fill:#565387;}.cls-20{fill:#fff;}.cls-21{opacity:0.2;}.cls-22{fill:#dfe3ef;}</style><linearGradient id="linear-gradient" x1="424.2" y1="-5805.01" x2="424.2" y2="-5717.48" gradientTransform="matrix(1, 0, 0, -1, -54.62, -5475.89)" gradientUnits="userSpaceOnUse"><stop offset="0" stop-color="gray" stop-opacity="0.25"/><stop offset="0.54" stop-color="gray" stop-opacity="0.12"/><stop offset="1" stop-color="gray" stop-opacity="0.1"/></linearGradient></defs><title>Artboard 59</title><path class="cls-1" d="M452,100s-6.31-2.57-26.38,6.63-22.58,8-27.78,6.63-8.09-1.75-13.68-9.44c0,0-3.92-21.29-7.73-24.6s-20,1.89-20,1.89-19.37,4.44-23.06-21.44c0,0,2.62-19.52-.95-25.5,0,0,7.2,3.1,19.08-1.91s21.4,5.38,21.4,5.38,3,7.76,2.69,12.39,1.58,6.36,7.25,4.14c0,0,2.78-4-1.16-10.51S374.91,32.27,376,27.18s4.27-12.13,14.44-15.66,24-4.2,30.6-7S429.29,0,429.29,0s-4.08,4.09,5.53,21.41,3.48,24.86,3.48,24.86-5.11,12.18-27.68,11.19c0,0-21.75.8-9.89,10,0,0,7.59-1.55,18.94-5.16S439.22,73.61,441.26,84,452,100,452,100Z"/><path class="cls-2" d="M422.72,13.14l.12,0c.87,3.32-8.85,16.58-17.15,27.16l-.1-.08C417.31,25.29,423.39,15.69,422.72,13.14Z"/><path class="cls-2" d="M405.76,40l.05.14c-6.63,8.43-15,18.5-21.67,26-.63.71-1.26,1.46-1.87,2.22l-.19-.15c.61-.77,1.24-1.52,1.88-2.23C390.64,58.45,399.13,48.41,405.76,40Z"/><path class="cls-2" d="M382.24,67.93l.13.23c-12.16,15.18-13,38.75-13,39l-2.56-3C366.86,103.94,370,83.22,382.24,67.93Z"/><path class="cls-3" d="M437.85,91.8s-14.33-7.46-25.5-4.78S376,77.57,376,77.57s-10.67-4.34-12.84-9.29c0,0-7.33-7.74-7.75-11.76s-7.55-14.08-12.2-14.47"/><path class="cls-3" d="M435.78,99s-7.22-4.86-6.38-10.53"/><path class="cls-3" d="M424.7,105.25s-10.32-3.75-11.36-18.44"/><path class="cls-3" d="M408,109.06a23.13,23.13,0,0,1-6.59-22.49"/><path class="cls-3" d="M388,105.06s-6.58-13.78-.73-22.75"/><path class="cls-3" d="M438,82.71s-7.46,2.37-5.86,6.3"/><path class="cls-3" d="M429,69.16s-10,3.17-10.23,17.3"/><path class="cls-3" d="M415.08,65.9S406,77.12,406.65,87.33"/><path class="cls-3" d="M399.18,70.3s-9,8.64-7.88,13.44"/><path class="cls-3" d="M393.71,67.25s-8.47,1.52-9.66-1.24"/><path class="cls-3" d="M382.7,57s4.28,5.66,5.39,4.4"/><path class="cls-3" d="M425.12,53.44S403.77,55,398.94,48.56"/><path class="cls-3" d="M378.21,28.47s10,21.5,17.29,24.24"/><path class="cls-3" d="M388.72,18.23s6.15,19.78,13.77,26"/><path class="cls-4" d="M434.1,37.1s-16.23,7-26-.07"/><path class="cls-4" d="M403.18,14s3.71,14.54,8.7,18.05"/><path class="cls-4" d="M431.66,20.83s-9.12,3.45-12.54.83"/><path class="cls-3" d="M374.89,61.78s0,12.67-3.46,13.57"/><path class="cls-3" d="M346.68,78.2s13.7,1.17,20-5.88"/><path class="cls-3" d="M371.35,46.8S368,59.65,358.89,63.12"/><path class="cls-3" d="M338.46,64.66s9.7,3.37,18-5.22"/><path class="cls-3" d="M360.56,35.75s-.91,10.92-6.84,16"/><path class="cls-3" d="M338.83,48s8.05.06,9.94-2.57"/><path class="cls-5" d="M77.87,307.69s5.52-3.63,11-1c0,0-1.68,3.24-8.6,2.93Z"/><path class="cls-5" d="M77.2,307.89s-1.68,6.41,2.52,10.73c0,0,2.53-2.63,0-9.08Z"/><path class="cls-5" d="M70.32,301.76s.41-5.44,12.68-3.64c0,0,0,3.51-4.26,5.17S72.47,303.55,70.32,301.76Z"/><path class="cls-5" d="M69.56,301.72s-5.18,1.66-.56,13.17c0,0,3.42-.76,4-5.34S71.81,303.39,69.56,301.72Z"/><path class="cls-5" d="M62.61,294s-.7-8.94,11.84-8c0,0,.89,8.09-9.62,10.17Z"/><path class="cls-5" d="M54.33,283.92s1.72-10.13,14.25-7.11c0,0,0,8.76-12.21,9.53Z"/><path class="cls-5" d="M48.27,273.48s2.9-9.89,15.3-6.91c0,0-3,8.87-14.47,8.74Z"/><path class="cls-5" d="M42.52,263.29s2.82-10.24,14.8-7.17c0,0-4,9.74-14,8.91Z"/><path class="cls-5" d="M38.82,253.61s2.16-12.53,13.34-9.76c0,0-3.25,11.4-12.52,11.58Z"/><path class="cls-5" d="M35.34,241.91s2.6-12.62,13.9-8.95c0,0-4.44,11.93-13.11,10.69Z"/><path class="cls-5" d="M33.19,231s4.12-12.63,12.86-12.28c0,0-4.21,13.34-12.13,14.82Z"/><path class="cls-5" d="M31.82,220.4s4.48-15.2,11.6-14c0,0-3.1,11.6-11.35,16.39Z"/><path class="cls-5" d="M31,207.72s4.21-12.67,11.23-13.17c0,0-2.86,12.47-11.07,16.46Z"/><path class="cls-5" d="M30.19,195.9s5.25-12.68,9.89-13c0,0-2.28,12.49-9.42,15Z"/><path class="cls-5" d="M29.61,184.9s3.22-13.77,7.87-14.91c0,0-.63,11.26-7.4,15.94Z"/><path class="cls-5" d="M27.87,170.52s3.39-11,7.14-12.65c0,0-.74,12.94-6.27,15.33Z"/><path class="cls-5" d="M26.41,161.05l-.68-19.36s7,14.61,1.2,22.77Z"/><path class="cls-5" d="M21,141.82s-5-14.14-6.26-14.92c0,0,9.91,9.17,8.94,21Z"/><path class="cls-5" d="M62.27,294s-8.89-1.17-8.62,11.4c0,0,8,1.31,10.66-9.08Z"/><path class="cls-5" d="M53.91,283.58s-10.28,0-9.44,12.84c0,0,8.62,1.55,11.47-10.4Z"/><path class="cls-5" d="M48.17,274.32s-9.32-4.36-15.29,6.91c0,0,8.62,3.64,16.12-5.09Z"/><path class="cls-5" d="M42.32,263.39s-9.55-4.66-15.16,6.37c0,0,9.94,3.42,15.94-4.63Z"/><path class="cls-5" d="M38.94,253.88s-9.19-8.78-16.53.1c0,0,9.39,7.23,17,1.86Z"/><path class="cls-5" d="M35.86,241.61s-9.25-9-16.53.42c0,0,10.39,7.36,16.86,1.47Z"/><path class="cls-5" d="M34.15,230.67S27,219.48,18.63,222c0,0,7.39,11.88,15.44,11.35Z"/><path class="cls-5" d="M32,220.33s-7.19-14.12-14-11.67c0,0,5.18,10.86,14.15,14.05Z"/><path class="cls-5" d="M31.54,207s-7.38-11.12-14.3-9.76c0,0,6,11.27,15,13Z"/><path class="cls-5" d="M31,195.65s-5.72-12.47-10.36-12.58c0,0,2.75,12.39,10,14.68Z"/><path class="cls-5" d="M29.84,184.63S23.48,172,18.7,172c0,0,3.26,10.8,10.93,13.77Z"/><path class="cls-5" d="M28.88,171.28s-4.75-10.46-8.7-11.64c0,0,2.38,12.74,8.17,14.41Z"/><path class="cls-5" d="M25.86,160.68,15.22,144.5s2.72,16,12.18,19.27Z"/><path class="cls-5" d="M18.55,143.12S6.2,134.59,5.76,133.23c0,0,6.3,12,17.94,14.05Z"/><path class="cls-5" d="M17.82,139.28S3.63,125.65,0,125.66c0,0,11.7.54,18.14,12.9Z"/><path class="cls-2" d="M28.76,173.3l-.52.07c-2.66-20.86-6.55-33.19-10.94-34.71l.17-.5C22.13,139.78,26,151.93,28.76,173.3Z"/><path class="cls-2" d="M32.66,223.18l-.78.07c-.16-1.95-.29-3.94-.37-5.93-.75-17.27-1.9-33.12-3.42-45l.45-.55c1.52,11.9,3,28.24,3.73,45.53C32.38,219.26,32.49,221.24,32.66,223.18Z"/><path class="cls-2" d="M92.43,317.61c-.13-.06-13.87-6.19-28.14-20.83a113.56,113.56,0,0,1-20.57-29.15c-6.59-13.41-10.61-29.91-12-45.94l.83.38c3,36,19.41,60.58,32.44,74,14.12,14.5,27.71,20.58,27.84,20.64Z"/><path class="cls-6" d="M414.61,55.22V305.83c0,7.46-7.18,13.51-16.06,13.51h-340c-8.88,0-16.06-6.06-16.06-13.51V55.22c0-7.46,7.18-15.07,16.06-15.07l340,.82C407.4,41,414.61,47.76,414.61,55.22Z"/><path class="cls-7" d="M414.61,55.3V66.9H42.47V55.3A15.15,15.15,0,0,1,57.62,40.15H399.45a15.14,15.14,0,0,1,15.16,15.14Z"/><circle class="cls-8" cx="60.49" cy="53.52" r="5.35"/><circle class="cls-9" cx="76.08" cy="53.52" r="5.35"/><circle class="cls-10" cx="91.66" cy="53.52" r="5.35"/><path class="cls-11" d="M406.35,314.14,397.3,301s-.17-3.25-.76-4-.12-2.44-.12-2.44.63-.93.08-1-.08-2.15-.08-2.15l-.05-3.29s.51-3.16.09-3.92a1.23,1.23,0,0,1,0-1.34s.5-1.82,0-2.28-.38-3.29-.25-5.52a8.33,8.33,0,0,0-.89-3.84c0-.34-3.34-3.63-3.34-3.92s-2.11-1.52-3.38-1.86-1.9-.59-1.86-.76-2-.82-2-.82a4,4,0,0,1-2.45-1c-.67-.89-2.74-1.14-2.8-1.15s0-.12,0-.18l0-.19a8.21,8.21,0,0,0,.44-.83l.12-.26a3.55,3.55,0,0,0,2.07-.64,2.85,2.85,0,0,0,1-2,4.37,4.37,0,0,0-.49-2.24,3.87,3.87,0,0,1-.73-2.37,10,10,0,0,1,.42-1,2.67,2.67,0,0,0-.31-2c-.32-.62-.76-1.15-1.12-1.75a6.66,6.66,0,0,1-.89-2.48,3.93,3.93,0,0,0-.33-1.35,2.78,2.78,0,0,0-.74-.75,7.43,7.43,0,0,0-4.56-1.37,22.14,22.14,0,0,1-3.44.21,12.38,12.38,0,0,1-2-.53,5.24,5.24,0,0,0-4.29.22c-1.23.81-1.72,2.41-2.56,3.65a29.44,29.44,0,0,0-2.38,3.2V249a3.63,3.63,0,0,0-.32.85,6,6,0,0,0,.19,2.79,2,2,0,0,0,.68,1.25,4.19,4.19,0,0,0,1.48.29,1.4,1.4,0,0,1-.06.24,9.63,9.63,0,0,0,6.7,11.25v.26a5.79,5.79,0,0,1,0,.72h0s-4.25-.87-5.39-.28-3.38,1.06-3.73,1.4-1.18.08-1.95,2.07-.83,4-1.81,4.93-1.48,1.56-1.52,2.24.12.82-.26,1.05-.93,1.1-.76,1.43a1.2,1.2,0,0,1-.46,1.27,1.38,1.38,0,0,0-.59,1.24s-.26.93-.83,1.14-1,1.6-1,1.6l-1.91,2.2-3.8-4.2a1.61,1.61,0,0,0-2.26-.11l-1.87,1.65a3.69,3.69,0,0,0-1.86,1.12,4.64,4.64,0,0,0-1,1.43l-1,.92a2.6,2.6,0,0,0-.26,2.87l2.43,2.69v0a4.35,4.35,0,0,0-2.3,1c-3.64,3.21-3.68,6.16-3.13,7.51s5.15,6.53,5.15,6.53a20.64,20.64,0,0,0,6.54,5.33h0l0,0-.23.27-.06.08-.06.08-.06.1-.06.08-.07.13-.05.07-.08.17,0,0-.11.23,0,.09a1.11,1.11,0,0,1-.07.16l0,.12c0,.05,0,.1-.06.16l0,.12-.05.18a.28.28,0,0,1,0,.12s0,.2-.06.3,0,.08,0,.12l0,.22a.39.39,0,0,1,0,.15l0,.21v1c-.08,4.94.21,5.66.21,5.66a2.73,2.73,0,0,0,2.24,1.68,2.9,2.9,0,0,0,.72,0c2.2-.38,7.35-1.27,9.17-.93a15.5,15.5,0,0,0,4.56-.37l.38-.07.27.83.83-.23.71.41c.18.12.34.2.45.26.82,2.83,4.21,1.87,4.21,1.87l.81.46,8.15.21a16.44,16.44,0,0,0,2.9,1.39l.42.09a19.07,19.07,0,0,0,2.27,0c.63,0,1.11,0,1.11,0s-.09-2.22-.2-4.7a65.68,65.68,0,0,0,7.55-.62c4.36-.76,6.18-4.72,6.84-6.84a19.21,19.21,0,0,1,.42,2.63,20.48,20.48,0,0,0,.67,2.28,7.89,7.89,0,0,0,.93,1.68c3.22-1.1,1.27-2.74.6-3.46s.46-1.3.46-1.3.89-.6.8-1.14-.12-1.14,2.75-1.1S406.35,314.14,406.35,314.14Zm-44.63-26.93a20.07,20.07,0,0,0,.8,3.52,4.66,4.66,0,0,1,.1,1.39c-1.71-.13-3.48-.21-3.48-.21a.47.47,0,0,1,.09.22l-.27-.06-.38-.1,3.13-4.76Zm-6.21,9.89,2.95.46.24.05a10.74,10.74,0,0,0-.15,1.39s.07.09.16.16a4,4,0,0,0-.06.69,8.27,8.27,0,0,0,3,1.16,2.17,2.17,0,0,1-.07.24h0c-1.39-.74-3.59-1.08-3.84-1.62s-7.74-3.15-7.74-3.15-.27-.15-.74-.37l2,.37.54-.06a29.17,29.17,0,0,0,3.73.69Z"/><path class="cls-7" d="M396.73,316s-1.18,7.08-7.13,8.13-25.8.83-25.8.83-11.34-1.66-15.45-11.23-6.74-13.4-3.22-13.57,22.49,6.41,23.58,6.49S397.78,292.06,396.73,316Z"/><path class="cls-12" d="M396.73,316s-1.18,7.08-7.13,8.13-25.8.83-25.8.83-11.34-1.66-15.45-11.23-6.74-13.4-3.22-13.57,22.49,6.41,23.58,6.49S397.78,292.06,396.73,316Z"/><path class="cls-13" d="M343.49,323.85a2.72,2.72,0,0,0,2.22,1.66,3.35,3.35,0,0,0,.71,0c2.18-.38,7.29-1.24,9.09-.92a15.6,15.6,0,0,0,4.52-.37c.94-.18,1.65-.34,1.65-.34s-1.68-5.58-1.88-5.74-7.54-4.56-7.54-4.56l-5.8-.41h0a3.08,3.08,0,0,0-2,1.15,6.12,6.12,0,0,0-1.17,4C343.2,323.14,343.49,323.85,343.49,323.85Z"/><path class="cls-12" d="M343.49,323.85a2.72,2.72,0,0,0,2.22,1.66,25.34,25.34,0,0,1-1.58-2.3l0-4.06a7.19,7.19,0,0,1,2.28-6h0s-3.06.21-3.14,5.11S343.49,323.85,343.49,323.85Z"/><path class="cls-14" d="M368.66,315l5.39-4.23,8.5-8.38-2.3-.1c-.34.22-1.31.91-1.35,1.75,0,1-2.29.07-3.47.66s-6.91,7.93-7.91,7.87-1.81-.51-2.22.2l0,.05Z"/><path class="cls-14" d="M344.45,314.3l.59.26c4.1,1.76,9.17,5.45,9.53,6.12.23.41,3.17,2.19,5.44,3.53.95-.18,1.66-.35,1.66-.35s-1.68-5.57-1.89-5.74-7.54-4.55-7.54-4.55l-5.8-.42h0A3.07,3.07,0,0,0,344.45,314.3Z"/><path class="cls-7" d="M333.06,302.28c.55,1.34,5.11,6.49,5.11,6.49a20.14,20.14,0,0,0,7,5.53c4.09,1.76,9.17,5.44,9.55,6.11.24.42,3.51,2.4,5.8,3.76l.52.3,1.14.66.6.35,2.8-2.26c1.38-1.11,2.75-2.24,2.77-2.3s.59-1.55.46-1.64-.35-.62-.88-1.29a5.76,5.76,0,0,0-2.13-1.76,6.09,6.09,0,0,1-2.77-2.9,5.33,5.33,0,0,0-.46-.31,5.66,5.66,0,0,0-1.88-.83c-.92-.12-2.64-2-2.64-2a5.16,5.16,0,0,1-1.63-1.72c-.44-.92-6.94-5.38-7.54-5.8l15.74,10.12,3.77,2.42,5.39-4.23,8.5-8.38-2.81-.13c-4.14-.17-11.46-.46-12.39-.24a7.18,7.18,0,0,1-2.31.14,8.05,8.05,0,0,1-3.47-.63c-1.41-.74-3.56-1.07-3.81-1.62s-7.67-3.13-7.67-3.13-10.09-5.36-13.7-2.18S332.52,300.94,333.06,302.28Z"/><path class="cls-15" d="M365.61,271.54l1.3,4.31,1.66,9.71,6.16.42,1.78-3,1.78-2.95s1.11-3.93,1.9-7.73c.71-3.36,1.17-6.63.42-7s-1.13-1.44-1.42-2.66c0-.15-.07-.3-.1-.46a23.39,23.39,0,0,1-.42-3.12s-12.9-.67-11.1,4.65a8.3,8.3,0,0,1,.49,2.83c0,.24,0,.48,0,.72A6,6,0,0,1,365.61,271.54Z"/><path class="cls-16" d="M362.93,270.82l.46,7.33,1,6.24,1.18,2.9,1,15.82s10.1,1.17,12.56,0a1.16,1.16,0,0,0,.44-.35c3-4.49,2-17.45,2-17.45l1.13-8.37-.75-4.35-1.83-.19-1.4-.16s-.32.39-.77,1c-1.24,1.66-3.53,4.86-3.37,6.21.2,1.85-.26,3.73-1,4s-1.3.79-1.43.29a2.36,2.36,0,0,1-.12-1.34,11.4,11.4,0,0,0-.54-2.9,12.18,12.18,0,0,1-1.05-3.64,4.28,4.28,0,0,0-.46-2.64c-.34-.3-.8-.59-.41-1.93s-1.66-3.95-1.66-3.95Z"/><path class="cls-14" d="M376.27,289.13l.41,12.52L379.1,303a1,1,0,0,0,.44-.34c3-4.49,2-17.46,2-17.46l1.13-8.38-.76-4.34-1.81-.2c.7-3.36,1.16-6.63.41-7s-1.13-1.45-1.42-2.66h0l-1.3,8.85s.11.8.14,1.63a4.55,4.55,0,0,1-.1,1.56,5.23,5.23,0,0,0-.08,2.09c-.76,1.33-1.14,3.8-1.32,6.18A61,61,0,0,0,376.27,289.13Z"/><path class="cls-13" d="M379.12,262.43s2.11.27,2.78,1.15a4,4,0,0,0,2.43,1,9.38,9.38,0,0,1,2,.83c0,.16.58.42,1.84.76s3.35,1.55,3.35,1.84,3.31,3.56,3.31,3.89a8.35,8.35,0,0,1,.88,3.82c-.13,2.22-.25,5,.26,5.48s0,2.26,0,2.26a1.25,1.25,0,0,0-.05,1.34c.42.76-.08,3.9-.08,3.9l0,3.27s-.46,2.07.09,2.13-.09,1-.09,1-.46,1.65.13,2.43.75,4,.75,4l9,13s.13,2.39-2.72,2.35-2.8.54-2.72,1.09-.8,1.13-.8,1.13-1.13.58-.46,1.3,2.6,2.34-.58,3.43a7.1,7.1,0,0,1-.92-1.66,19.44,19.44,0,0,1-.68-2.25s-.29-3.19-.87-3.61-.49-2.44-.49-2.44.83-1.63-.34-2.3-18.18-10.1-18.18-10.1L376.52,289s-.29-9.26,1.46-12.36a5.3,5.3,0,0,1,.09-2.09,11,11,0,0,0-.05-3.19Z"/><path class="cls-14" d="M368.14,267.48s-4.21-.87-5.34-.29-3.35,1.05-3.69,1.39-1.17.08-1.92,2.07-.83,4-1.81,4.9-1.46,1.55-1.5,2.22.13.83-.25,1.05-.93,1.09-.76,1.42,8.71,7.71,8.71,7.71a19.67,19.67,0,0,0,.79,3.52c.38.7-.41,10.51-1.24,11.18s5.65.61,5.65.61.3-6.43.55-6.76-.17-7.21-.17-7.21,0-5.86.5-7.42.49-6.7.49-6.7.48-3.09,1.06-3.81S368.14,267.48,368.14,267.48Z"/><path class="cls-13" d="M368,267.33s-4.22-.87-5.35-.28-3.34,1.05-3.68,1.39-1.17.08-1.93,2.05-.83,4-1.8,4.9-1.47,1.55-1.51,2.22.13.82-.25,1-.92,1.09-.75,1.43,8.72,7.7,8.72,7.7a20.08,20.08,0,0,0,.8,3.52c.38.71-.42,10.51-1.25,11.18s5.63.63,5.63.63.3-6.43.55-6.77-.17-7.2-.17-7.2,0-5.87.5-7.42.49-6.7.49-6.7.48-3.09,1.06-3.81S368,267.33,368,267.33Z"/><path class="cls-14" d="M367.57,263.79a8.2,8.2,0,0,1,.49,2.82,9.59,9.59,0,0,0,11-4.35,25.29,25.29,0,0,1-.41-3.13S365.77,258.47,367.57,263.79Z"/><path class="cls-15" d="M361.21,257.17a9.59,9.59,0,1,0,.21-2A9.57,9.57,0,0,0,361.21,257.17Z"/><path class="cls-13" d="M355.05,279.37l-2.28.71a1.19,1.19,0,0,1-.46,1.24,1.43,1.43,0,0,0-.59,1.25s-.25.92-.83,1.13-1,1.59-1,1.59L348,287.51s-.71.59-.58.88-.76.38-.76.38l.46,7.46,4,.75,2.49-.25,2-.76,1.75-1,.8-2.07,3.52-5.36Z"/><path class="cls-15" d="M347.22,289.38s-5.11-7.37-8.92-3.4,1.55,10.43,2.8,10.23,7.25-.56,7.25-.56Z"/><rect class="cls-13" x="332.85" y="276.31" width="20.77" height="26.75" rx="0.64" transform="translate(-70.82 463.71) rotate(-62.96)"/><rect class="cls-5" x="334.8" y="278.42" width="16.94" height="22.48" transform="translate(-70.78 463.73) rotate(-62.96)"/><circle class="cls-17" cx="332.51" cy="284.14" r="0.37"/><circle class="cls-17" cx="354.18" cy="295.24" r="0.61"/><path class="cls-15" d="M343.91,290.93c0,5.53,11.39,6.7,11.39,6.7l2.9.46,1.31.21.55-5.39s-.6-.09-1.35-.26c-1.11-.26-2.54-.7-2.84-1.33C355.38,290.26,344,285.4,343.91,290.93Z"/><path class="cls-14" d="M361.42,255.17a1.11,1.11,0,0,1,.7.32c.33.34.34.95.76,1.16a.86.86,0,0,0,.5.06c1.12-.16,1.76-1.42,2.83-1.76a2.87,2.87,0,0,1,1.87.16,1.38,1.38,0,0,1,.62.41c.36.47.11,1.15.28,1.71.23.78,1.16,1.08,2,1.19a3.43,3.43,0,0,1,2.24.76,2,2,0,0,1,.42,1.62,1.22,1.22,0,0,0,0,.6c.22.63,1.31.54,1.59,0s.15-.66.63-.76a2,2,0,0,1,1,.18,7.46,7.46,0,0,0,2.65.41,9.59,9.59,0,0,0-17.37-8.14,9.33,9.33,0,0,0-.69,2.07Z"/><path class="cls-13" d="M373.58,261.14a1.26,1.26,0,0,1,0-.61,2,2,0,0,0-.42-1.62,3.43,3.43,0,0,0-2.24-.76c-.81-.1-1.73-.42-2-1.19-.16-.56.09-1.24-.27-1.7a1.32,1.32,0,0,0-.62-.42,2.87,2.87,0,0,0-1.87-.16c-1.07.34-1.71,1.6-2.83,1.76a.86.86,0,0,1-.5-.06c-.41-.21-.44-.83-.76-1.16-.51-.54-1.47-.19-2.1-.59a1.94,1.94,0,0,1-.67-1.24,6.09,6.09,0,0,1-.19-2.78c.36-1.56,1.76-2.63,2.65-4s1.29-2.8,2.54-3.62a5,5,0,0,1,4.24-.22,13.87,13.87,0,0,0,2,.52,21.69,21.69,0,0,0,3.41-.21,7.35,7.35,0,0,1,4.51,1.37,2.57,2.57,0,0,1,.73.74,3.83,3.83,0,0,1,.33,1.33,6.79,6.79,0,0,0,.88,2.46c.35.58.79,1.12,1.11,1.73a2.65,2.65,0,0,1,.3,2c-.11.35-.32.66-.41,1a3.71,3.71,0,0,0,.72,2.35,4.56,4.56,0,0,1,.49,2.24,2.81,2.81,0,0,1-1,2,3.63,3.63,0,0,1-2.12.64,7.36,7.36,0,0,1-2.71-.42,2.1,2.1,0,0,0-1-.17c-.49.1-.41.41-.63.76C374.89,261.67,373.8,261.76,373.58,261.14Z"/><path class="cls-14" d="M368.41,315.22,373.8,311l8.5-8.38-2.8-.12a1.85,1.85,0,0,0-.6,1.14c0,1-2.29.07-3.47.66s-6.91,7.93-7.91,7.87-1.81-.51-2.22.2l0,.05a1.24,1.24,0,0,1-.64.38Z"/><path class="cls-7" d="M357.52,314.93l2.71,8.66.41,1.37,1.3-.36,2.85-.78,12.69-3.49a11,11,0,0,0,4.56-1.24,13.83,13.83,0,0,1,7.87-1.72c1.66.16,3.54-.57,5.09-3.43,0,0,3.52-10.38-5.36-13.36s-9.3,1.58-9.3,1.58l-.12.08c-.35.22-1.31.91-1.35,1.75,0,1-2.3.07-3.47.66s-6.91,7.93-7.92,7.87-1.8-.51-2.22.2l0,0c-.31.41-1.24.52-1.86.54h-.58l-.08,0-.64.19Z"/><path class="cls-14" d="M358.22,298.09l1.31.21.55-5.39s-.6-.09-1.35-.26C358.93,293.39,358.48,296.3,358.22,298.09Z"/><path class="cls-14" d="M392.48,272.86s3.89-1.13,2.93,9.95a30.89,30.89,0,0,1-8.17,18.05s-8.29,3.64-12,3.06-6.45-.72-6.45-.72a9.52,9.52,0,0,0-3.77-1c-2.07-.09-6.49-1.38-6.57-1.81s1.09-6.57.58-7c0,0,5.87.24,6.45.67s1.43.12,2.07,0,2.56-1.8,6.37-.33a3.91,3.91,0,0,0,1.8-.21,1.85,1.85,0,0,1,1.31-.09,3.54,3.54,0,0,0,.91-.46c.12-.16,1.13,0,1.13,0a.43.43,0,0,0,.59-.2.36.36,0,0,0,0-.09,2.64,2.64,0,0,1,.59-.92s1.13-6.37,3.26-8.76a1.35,1.35,0,0,0,.46-1.21C383.8,281.05,387.45,271.5,392.48,272.86Z"/><path class="cls-13" d="M392.37,272s3.9-1.14,2.93,9.94A30.84,30.84,0,0,1,387.14,300s-8.29,3.64-12,3.06-6.45-.71-6.45-.71a9.37,9.37,0,0,0-3.77-1c-2.07-.08-6.49-1.38-6.58-1.8s1.09-6.58.59-7c0,0,5.86.24,6.45.67s1.42.12,2.07,0,2.55-1.8,6.36-.33a4,4,0,0,0,1.81-.21,1.8,1.8,0,0,1,1.31-.08,3.89,3.89,0,0,0,.91-.46c.12-.17,1.13,0,1.13,0a.45.45,0,0,0,.59-.21.16.16,0,0,0,0-.09,3.08,3.08,0,0,1,.59-.92s1.13-6.37,3.27-8.75a1.37,1.37,0,0,0,.46-1.22C383.7,280.2,387.35,270.65,392.37,272Z"/><path class="cls-14" d="M362.12,313.55l5.53,6.69,0,0a6.9,6.9,0,0,0,.46-1.64,7.86,7.86,0,0,0-3-3.06,5.65,5.65,0,0,1-2.37-2.15Z"/><path class="cls-14" d="M362.2,325.13l.6.35,2.8-2.26c1.38-1.11,2.75-2.24,2.77-2.3s.59-1.55.46-1.64-.35-.62-.88-1.29c-3.73-1.05-1.36,1.55-1.05,1.65a3.82,3.82,0,0,0-4.81,3.93A5.45,5.45,0,0,0,362.2,325.13Z"/><path class="cls-13" d="M366.82,327.24l.8.46,8.08.21a17.11,17.11,0,0,0,2.86,1.38l.42.09a18.78,18.78,0,0,0,2.25,0c.62,0,1.1,0,1.1,0s-.39-10.2-.67-11.27c-.14-.51-.83-.41-1.49-.14a10.36,10.36,0,0,0-1.45.73,25.19,25.19,0,0,0-4,.63c-.55.3-2.1-.17-3.06,0s-2.68-1.14-2.68-1.14c-4.69-1.55-2.07,1.35-1.72,1.47a3.82,3.82,0,0,0-4.82,3.92C362.22,328.56,366.82,327.24,366.82,327.24Z"/><path class="cls-18" d="M378.5,323.3c.1,2.12,1.74,4.73,2.72,6.12.62,0,1.1,0,1.1,0s-.38-10.2-.67-11.27c-.14-.51-.83-.41-1.48-.14A12.05,12.05,0,0,0,378.5,323.3Z"/><path class="cls-14" d="M378.5,323.3c.1,2.12,1.74,4.73,2.72,6.12.62,0,1.1,0,1.1,0s-.38-10.2-.67-11.27c-.14-.51-.83-.41-1.48-.14A12.05,12.05,0,0,0,378.5,323.3Z"/><path class="cls-12" d="M377.13,323.58c.55,2,.55,4.33,1.43,5.71l.42.09a18.78,18.78,0,0,0,2.25,0c.62,0,1.1,0,1.1,0s-.39-10.2-.67-11.27c-.14-.51-.83-.41-1.49-.14a10.36,10.36,0,0,0-1.45.73S376.41,321,377.13,323.58Z"/><path class="cls-14" d="M349.24,302.92a16.68,16.68,0,0,1,7.41,5.93Z"/><g class="cls-19"><path d="M381.87,252.66l0,.09c0,.12-.09.23-.14.35A2.35,2.35,0,0,1,381.87,252.66Z"/><path d="M359.15,250.63a3.45,3.45,0,0,1,.31-.83.83.83,0,0,1-.06.21,6,6,0,0,0,.19,2.79,2,2,0,0,0,.67,1.24c.62.41,1.59.05,2.1.59.32.34.34,1,.76,1.16a.86.86,0,0,0,.5.06c1.11-.16,1.76-1.42,2.83-1.76a2.81,2.81,0,0,1,1.87.16,1.38,1.38,0,0,1,.62.41c.36.47.11,1.15.28,1.71.22.78,1.15,1.09,2,1.19a3.48,3.48,0,0,1,2.25.76,2.1,2.1,0,0,1,.41,1.62,1.22,1.22,0,0,0,0,.6c.22.63,1.3.54,1.59,0s.15-.66.63-.76a2,2,0,0,1,1,.18,7.51,7.51,0,0,0,2.7.41,3.59,3.59,0,0,0,2.13-.64,2.59,2.59,0,0,0,.65-.79,2.72,2.72,0,0,1-.9,1.42,3.68,3.68,0,0,1-2.13.64,7.54,7.54,0,0,1-2.7-.41,2,2,0,0,0-1-.18c-.49.1-.41.41-.63.76-.28.5-1.37.59-1.59,0a1.22,1.22,0,0,1,0-.6,2,2,0,0,0-.42-1.62,3.38,3.38,0,0,0-2.24-.76c-.81-.1-1.74-.42-2-1.19-.16-.56.09-1.25-.27-1.71a1.38,1.38,0,0,0-.62-.41,2.83,2.83,0,0,0-1.88-.16c-1.06.34-1.71,1.6-2.82,1.76a.86.86,0,0,1-.5-.06c-.42-.21-.44-.83-.76-1.16-.51-.54-1.48-.19-2.1-.59a1.93,1.93,0,0,1-.68-1.25A6,6,0,0,1,359.15,250.63Z"/></g><path class="cls-14" d="M382.52,284.15c-.78,1-1.66,2-2.33,3.09a5.94,5.94,0,0,0-1,3.66,9.36,9.36,0,0,0,1.47-2.62,37.14,37.14,0,0,1,2.82-4.24c.18-.27,1.33-1.82.75-1.89S382.78,283.8,382.52,284.15Z"/><path class="cls-20" d="M118.78,149.27H84.5a1.15,1.15,0,1,0-.13,2.29h34.41a1.16,1.16,0,0,0,1.21-1.08,1.14,1.14,0,0,0-1.07-1.21Zm0,3.92H84.5a1.14,1.14,0,0,0-1.14,1.14,1.15,1.15,0,0,0,1.14,1.15h34.28a1.15,1.15,0,0,0,1.14-1.15,1.14,1.14,0,0,0-1.14-1.14Zm-1.72-26.43H86.23a2.87,2.87,0,0,0-2.87,2.87v14.5A2.87,2.87,0,0,0,86.23,147h30.83a2.87,2.87,0,0,0,2.87-2.86v-14.5A2.89,2.89,0,0,0,117.06,126.76Zm-27,17.63H87.11a1.14,1.14,0,0,1,0-2.28h2.94a1.14,1.14,0,1,1,0,2.28Zm0-12.73H87.11a1.15,1.15,0,0,1,0-2.29h2.94a1.15,1.15,0,0,1,0,2.29Zm11.6,11.75a6.53,6.53,0,1,1,6.53-6.53,6.53,6.53,0,0,1-6.53,6.53Zm14.53,1h-2.93a1.13,1.13,0,0,1-1.14-1.14,1.14,1.14,0,0,1,1.14-1.14h2.93a1.14,1.14,0,0,1,1.15,1.14A1.15,1.15,0,0,1,116.18,144.39Zm0-12.73h-2.93a1.15,1.15,0,0,1,0-2.29h2.93a1.15,1.15,0,1,1,0,2.29Z"/><circle class="cls-20" cx="101.65" cy="137.04" r="4.33"/><rect class="cls-21" x="167.17" y="97.9" width="155.66" height="86.42"/><rect class="cls-21" x="167.17" y="203.66" width="155.66" height="86.42"/><rect class="cls-20" x="197.78" y="158.08" width="4.71" height="15.79"/><rect class="cls-20" x="206.75" y="138.54" width="4.71" height="35.33"/><rect class="cls-22" x="215.73" y="120.93" width="4.71" height="52.94"/><rect class="cls-20" x="224.7" y="108.37" width="4.71" height="65.5"/><rect class="cls-1" x="215.73" y="108.37" width="4.71" height="65.5"/><rect class="cls-5" x="233.67" y="137.86" width="4.71" height="36.01"/><rect class="cls-21" x="242.65" y="128.56" width="4.71" height="45.31"/><rect class="cls-5" x="251.62" y="114.42" width="4.71" height="59.44"/><rect class="cls-21" x="260.59" y="147.4" width="4.71" height="26.47"/><rect class="cls-1" x="269.57" y="135.17" width="4.71" height="38.69"/><rect class="cls-21" x="278.54" y="120.93" width="4.71" height="52.94"/><rect class="cls-5" x="287.51" y="120.93" width="4.71" height="52.94"/><path class="cls-20" d="M119.91,236.42a2.61,2.61,0,0,0-2.61-2.61H86a2.62,2.62,0,0,0-2.61,2.61v3.92h36.55Zm-36.56,20.9A2.61,2.61,0,0,0,86,259.93H117.3a2.61,2.61,0,0,0,2.61-2.61v-13H83.36ZM95,253.4h13.39a1.14,1.14,0,1,1,.13,2.28H95a1.14,1.14,0,0,1,0-2.28Zm-5.88,0h1a1.14,1.14,0,0,1,.14,2.28H89.07a1.14,1.14,0,0,1-1.21-1.07,1.16,1.16,0,0,1,1.08-1.21Z"/><rect class="cls-20" x="197.78" y="263.83" width="4.71" height="15.79"/><rect class="cls-20" x="206.75" y="244.29" width="4.71" height="35.33"/><rect class="cls-22" x="215.73" y="226.68" width="4.71" height="52.94"/><rect class="cls-20" x="224.7" y="214.12" width="4.71" height="65.5"/><rect class="cls-5" x="215.73" y="214.12" width="4.71" height="65.5"/><rect class="cls-1" x="233.67" y="243.61" width="4.71" height="36.01"/><rect class="cls-20" x="242.65" y="234.31" width="4.71" height="45.31"/><rect class="cls-20" x="251.62" y="220.17" width="4.71" height="59.44"/><rect class="cls-21" x="260.59" y="253.15" width="4.71" height="26.47"/><rect class="cls-21" x="269.57" y="240.92" width="4.71" height="38.69"/><rect class="cls-21" x="278.54" y="226.68" width="4.71" height="52.94"/><rect class="cls-21" x="287.51" y="226.68" width="4.71" height="52.94"/></svg>