<svg id="Layer_1" data-name="Layer 1" xmlns="http://www.w3.org/2000/svg" viewBox="0 0 466.96 330"><defs><style>.cls-1{fill:#10c0e8;}.cls-2{fill:#f2f2f2;}.cls-3{fill:#403d56;}.cls-4{fill:#fff;}.cls-5{fill:#e3e3e3;}.cls-6{fill:#ed4792;}.cls-7{fill:#f7b3b5;}.cls-8{fill:#2f2e41;}.cls-9{fill:#c9c9c9;}</style></defs><title>Artboard 24</title><path id="a435875b-2c1c-4448-a2d6-7c6fccbb74a3" class="cls-1" d="M14,309.94a12.25,12.25,0,0,0,11.83-2.08c4.15-3.48,5.45-9.21,6.51-14.52l3.12-15.7-6.54,4.51c-4.71,3.24-9.53,6.59-12.79,11.29S11.4,304.54,14,309.63"/><path id="a4b268fa-75d0-4ac1-9d87-14bdca948464" class="cls-2" d="M14.51,329c-.66-4.83-1.35-9.72-.88-14.6a22.85,22.85,0,0,1,4.43-12,19.82,19.82,0,0,1,5.13-4.66c.52-.32,1,.49.48.81a19,19,0,0,0-7.53,9.09,30.52,30.52,0,0,0-1.62,13.14c.17,2.68.53,5.34.9,8a.49.49,0,0,1-.33.58.48.48,0,0,1-.58-.33Z"/><path class="cls-3" d="M293.31,329.36H91.13a18.1,18.1,0,0,1-18.08-18.07V18.07A18.1,18.1,0,0,1,91.13,0H293.31a18.09,18.09,0,0,1,18.07,18.07V311.29A18.09,18.09,0,0,1,293.31,329.36Z"/><path class="cls-4" d="M293.67,317.83H90.77a5.58,5.58,0,0,1-5.57-5.57V17.1a5.58,5.58,0,0,1,5.57-5.57h202.9a5.59,5.59,0,0,1,5.57,5.57V312.26A5.58,5.58,0,0,1,293.67,317.83Z"/><circle class="cls-4" cx="191.45" cy="5.54" r="1.54"/><path class="cls-5" d="M98.63,147.18H271.56V117.54a23.43,23.43,0,0,0-7.19-16.71l-.05,0c-3.09-3.1-13.41-11-24.09-10.3-5.64.35-10.47,3.07-14.36,8.08-12.09,15.61-28,10.34-36.36,5.81a43.41,43.41,0,0,0-22.45-5.57c-10.5.42-25.29,4.29-36.07,20.39-4.12,6.15-13.08,14.49-32.36,19.39Z"/><path class="cls-3" d="M281.35,147.87H99a.57.57,0,0,1-.57-.57l.28-.63,182.68.06a.57.57,0,1,1,0,1.14Z"/><rect class="cls-3" x="132.54" y="114.26" width="1.12" height="32.81"/><rect class="cls-3" x="166.05" y="98.93" width="1.12" height="48.14"/><rect class="cls-3" x="199.64" y="109.01" width="1.12" height="38.06"/><rect class="cls-3" x="233.22" y="90.54" width="1.12" height="56.53"/><rect class="cls-3" x="266.81" y="103.41" width="1.12" height="43.66"/><circle class="cls-6" cx="166.68" cy="99.7" r="3.42"/><circle class="cls-6" cx="233.85" cy="90.75" r="3.42"/><circle class="cls-6" cx="200.27" cy="109.22" r="3.42"/><circle class="cls-6" cx="133.1" cy="114.26" r="3.42"/><circle class="cls-6" cx="267.44" cy="103.06" r="3.42"/><path id="ba0cc859-1ca5-421a-9acf-7fb9aa3b4e23" class="cls-3" d="M165.72,266.6v-58a1.34,1.34,0,0,1,1.34-1.35h6a1.34,1.34,0,0,1,1.35,1.35h0v58.12Z"/><path id="a524792d-c043-478e-a7da-ec48af772355" class="cls-3" d="M185.56,266.78V220.69a1.34,1.34,0,0,1,1.35-1.35h6a1.34,1.34,0,0,1,1.34,1.35h0v46Z"/><path id="fd6a765d-e5c4-40cb-8615-8d176b643a05" class="cls-3" d="M225.25,266.58V199.76a1.46,1.46,0,0,1,1.35-1.55h6a1.46,1.46,0,0,1,1.35,1.55v67Z"/><path id="bd64d803-c830-42f7-b93c-47122685f128" class="cls-3" d="M145.87,266.67V234.41c0-.41.61-.75,1.35-.75h6c.74,0,1.35.34,1.35.75v32.34Z"/><path id="f4fc54bd-288c-4bcd-8f44-6b7e88ac2463" class="cls-6" d="M205.41,266.56V190.73a1.59,1.59,0,0,1,1.34-1.76h6a1.6,1.6,0,0,1,1.35,1.76v76Z"/><path class="cls-3" d="M259.84,267.45H124a.54.54,0,0,1,0-1.08H259.84a.54.54,0,1,1,0,1.08Z"/><polygon class="cls-7" points="421.75 323.23 415.39 323.23 412.36 298.69 421.75 298.69 421.75 323.23"/><path class="cls-8" d="M423.37,329.4H402.86v-.26a8,8,0,0,1,8-8h12.53Z"/><polygon class="cls-7" points="373.41 323.02 367.26 321.38 370.68 296.88 379.75 299.31 373.41 323.02"/><path class="cls-8" d="M373.38,329.4l-19.82-5.3.07-.25a8,8,0,0,1,9.78-5.65h0l12.1,3.23Z"/><polygon class="cls-8" points="425.41 185.68 430.74 191.87 423.85 317.71 409.12 317.71 401.7 220.88 378.68 320.31 363.38 316.55 377.29 190.27 425.41 185.68"/><path class="cls-1" d="M380.85,104.43l14.66-7.35,22.55.4,19.4,9.92-11,55.13,4.77,28.75h0a117.53,117.53,0,0,1-56.23.46l-.15,0s11-38.89,6.3-50.76Z"/><path class="cls-7" d="M423.27,75.05a16.61,16.61,0,1,0,0,.12Z"/><path class="cls-8" d="M399.22,65.56a4.68,4.68,0,0,1,3.17-1.28c1.78-.06,4.44.57,5.57,2,.91,1.16,1,2.76,1,4.23v4.07a7.8,7.8,0,0,0,.57,3.53,2.65,2.65,0,0,0,2.95,1.52c1.36-.43,1.95-2.24,3.34-2.57a2.45,2.45,0,0,1,2.58,1.49,6.54,6.54,0,0,1,.37,3.16c-.13,2.13-3.19,3-3.62,5.07-.25,1.2-1.13,3.61,0,3.11,5.19-.52,7.47-3.55,9.84-6.41l5.36-6.43a6.32,6.32,0,0,0,1.38-2.24,6.24,6.24,0,0,0,.14-1.78c0-1.6-.07-3.2-.13-4.79-.05-1.4-.4-3.16-1.77-3.45-.71-.15-1.65.11-2-.51a1.41,1.41,0,0,1-.06-1c.3-1.6.81-3.27.29-4.81-.8-2.32-3.53-3.27-5.94-3.71S417.07,54,415.56,52a22.12,22.12,0,0,0-1.32-1.85A5.1,5.1,0,0,0,411.78,49a13.64,13.64,0,0,0-9,.79,8,8,0,0,1-3.62,1.17c-1.33-.08-2.47-1-3.78-1.25-2.12-.36-4.14,1.22-5.19,3.1-1.29,2.33-1.41,5.53.42,7.47.91,1,2.27,1.63,2.65,2.9.15.52.12,1.08.25,1.6a2.9,2.9,0,0,0,2.33,2A4.11,4.11,0,0,0,399.22,65.56Z"/><path class="cls-7" d="M378.83,144.63a5.94,5.94,0,0,0,7.7,3.38,5.45,5.45,0,0,0,.94-.46l29.77,15.74,1-7.26L389.28,139a6,6,0,0,0-10.45,5.65Z"/><path class="cls-7" d="M418.5,145.88a6,6,0,0,1-8.26,1.62,5.7,5.7,0,0,1-.81-.66l-32.49,8.84.28-9.2,32.32-8.4a6,6,0,0,1,9,7.8Z"/><path class="cls-1" d="M431.13,107.8l6.33-.4s7.42,9.79,3.3,20.41c0,0,.72,38.15-15.71,36.58s-21.62-1.56-21.62-1.56l4.93-13.76,11-3.4s-3.4-15,3-21.24Z"/><path class="cls-1" d="M385.38,107.47l-.89-4.59s-13.21-.31-15.82,19.69c0,0-11.87,30-.24,33.81s24.45,0,24.45,0l-1-13.21-12.8-2.61s6.61-8.56,3-16Z"/><path class="cls-9" d="M466.42,330H.54a.54.54,0,0,1,0-1.08H466.42a.54.54,0,1,1,0,1.08Z"/></svg>