<svg id="Layer_1" data-name="Layer 1" xmlns="http://www.w3.org/2000/svg" viewBox="0 0 484.8 276.97"><defs><style>.cls-1{fill:#f0f0f0;}.cls-2{fill:#e6e6e6;}.cls-3{fill:#f2f2f2;}.cls-4{fill:#cacaca;}.cls-5{fill:#ccc;}.cls-6{fill:#e4e4e4;}.cls-7{fill:#fff;}.cls-8{fill:#3f3d56;}.cls-9{fill:#9e616a;}.cls-10{fill:#ee4693;}.cls-11{fill:#2f2e41;}.cls-12{fill:#ffb6b6;}.cls-13{fill:#ffb8b8;}.cls-14{fill:#10c0e8;}</style></defs><title>Artboard 46</title><path class="cls-1" d="M79.68,125.94V48.1a4.2,4.2,0,0,1,8.39,0v77.84a4.2,4.2,0,0,1-8.39,0Z"/><path class="cls-1" d="M69.65,125.94V48.1a4.2,4.2,0,0,1,8.39,0v77.84a4.2,4.2,0,0,1-8.39,0Z"/><path class="cls-1" d="M59.63,125.94V48.1a4.19,4.19,0,1,1,8.38,0v77.84a4.19,4.19,0,0,1-8.38,0Z"/><path class="cls-2" d="M438.28,250.26a14.69,14.69,0,0,1-4.95-.86l-.24-.09.11-.54c-2.85-5.75-1.85-13.62,2.55-20.1,4-5.88,10.07-10.16,15.44-13.94a4.17,4.17,0,0,1,6.49,4.21l-1.92,9.84c-1.38,7.1-3,13.82-7.91,18A14.93,14.93,0,0,1,438.28,250.26Z"/><path class="cls-2" d="M450.84,267.26a11.12,11.12,0,0,1-9.31-5.13l-.14-.21.33-.29c.86-4.69,4.89-8.86,10.31-10.65,4.93-1.63,10.36-1.36,15.16-1.13h0a3.21,3.21,0,0,1,2,5.58l-5.4,4.87c-3.92,3.53-7.83,6.73-12.54,7Z"/><path class="cls-3" d="M434.11,272.47c-.8-5.93-1.62-11.94-1.06-17.93a28.56,28.56,0,0,1,5.32-14.79,24.34,24.34,0,0,1,6.17-5.72c.62-.4,1.19.6.57,1a23.35,23.35,0,0,0-9.05,11.16c-2,5.12-2.28,10.7-1.94,16.15.2,3.29.64,6.56,1.08,9.82a.61.61,0,0,1-.4.71.57.57,0,0,1-.69-.4Z"/><path class="cls-3" d="M431.86,275.88c3.83-6.94,8.28-14.64,16.22-17.11a17.94,17.94,0,0,1,6.83-.72c.72.07.54,1.21-.18,1.14a16.58,16.58,0,0,0-10.9,2.95,28.7,28.7,0,0,0-7.48,8.26c-1.24,1.93-2.35,3.94-3.46,6-.36.64-1.39.18-1-.47Z"/><path class="cls-4" d="M430.13,275.78l3.87.08L410.66,151.18l-3.87.73,6.09,32.34H393.25l6.09-32.34-3.87-.73L372.33,275.86l3.67-.08,12.17-64.58H418Zm-41.06-69.37L392.35,189h21.44l3.27,17.37Z"/><path class="cls-1" d="M261.11,127.92V87c0-1.22,1.88-2.21,4.19-2.21s4.19,1,4.19,2.21v40.94c0,1.22-1.88,2.21-4.19,2.21S261.11,129.14,261.11,127.92Z"/><path class="cls-1" d="M251.08,127.92V87c0-1.22,1.88-2.21,4.19-2.21s4.19,1,4.19,2.21v40.94c0,1.22-1.88,2.21-4.19,2.21S251.08,129.14,251.08,127.92Z"/><path class="cls-1" d="M241.05,127.92V87c0-1.22,1.88-2.21,4.19-2.21s4.19,1,4.19,2.21v40.94c0,1.22-1.88,2.21-4.19,2.21S241.05,129.14,241.05,127.92Z"/><path class="cls-5" d="M325.42,97.81a.89.89,0,0,0-.39-.62l-31.6-20.86a2.3,2.3,0,0,0,1.14-1h0a2.41,2.41,0,0,0-.88-3.27l-2.59-1.5a2.4,2.4,0,0,0-3.27.88,2.3,2.3,0,0,0-.31,1L264.71,57.37a13.79,13.79,0,0,0-8.54-7.87V42.86h-8.38V49.5a13.77,13.77,0,0,0-9.58,13.12v1.79h8.38a5.39,5.39,0,0,0,10.78,0h8.38V62.62a13.89,13.89,0,0,0-.24-2.57l57.7,38.09-24,29.15h-.56c-1.91,0-3.76,0-5.53.13a2.45,2.45,0,0,0,.14-.93,2.41,2.41,0,0,0-2.52-2.27l-3,.16a2.41,2.41,0,0,0-2.27,2.52,2.48,2.48,0,0,0,.33,1.06c-5.29.56-8.71,1.33-8.71,1.73,0,.64,9.19,0,20.71,0a.89.89,0,0,0,1.14.55.91.91,0,0,0,.39-.28l.23-.27c11.48,0,20.64.64,20.64,0s-8.15-2.12-18.7-2.36l23.69-28.81A.88.88,0,0,0,325.42,97.81Z"/><path class="cls-6" d="M326.29,276.08H252.51a5.63,5.63,0,0,1-5.62-5.63V149.37a5,5,0,0,0-5-5H69.29a5,5,0,0,0-5,5V270.45a5.64,5.64,0,0,1-5.63,5.63H56.12a5.64,5.64,0,0,1-5.63-5.63V142.85A13.49,13.49,0,0,1,64,129.38H318.44a13.48,13.48,0,0,1,13.47,13.47v127.6A5.63,5.63,0,0,1,326.29,276.08Z"/><rect class="cls-7" x="247.19" y="160.81" width="84.43" height="3.59"/><rect class="cls-7" x="247.19" y="209.31" width="84.43" height="3.59"/><path class="cls-2" d="M177.3,128.79l-2.42-1-1.67-12.17H151l-1.8,12.12-2.17,1.08a.52.52,0,0,0,.23,1h29.8a.52.52,0,0,0,.52-.52A.52.52,0,0,0,177.3,128.79Z"/><path class="cls-5" d="M216.69,117.22H107.81a2.16,2.16,0,0,1-2.16-2.16V99.71h113.2v15.35A2.16,2.16,0,0,1,216.69,117.22Z"/><path class="cls-8" d="M219,107H105.55V41.27a2.61,2.61,0,0,1,2.61-2.6h108.2a2.6,2.6,0,0,1,2.6,2.6Z"/><path class="cls-7" d="M212.19,102.2H112.33a2,2,0,0,1-2-2V45.44a2,2,0,0,1,2-2h99.86a2,2,0,0,1,2,2v54.75A2,2,0,0,1,212.19,102.2Z"/><path class="cls-9" d="M324.13,49.72a6.63,6.63,0,0,1,7.54,6.76l21.89,8.42L343.64,72,324.37,62.9a6.64,6.64,0,0,1-.24-13.18Z"/><path class="cls-10" d="M407.26,45.58l3.7,6.74a19.28,19.28,0,0,1-6.56,10.9c-5.67,4.78-35.32,22.6-35.32,22.6L331.64,67l6.55-8.7,29.39,9.85h0A96.31,96.31,0,0,1,406,46Z"/><ellipse class="cls-4" cx="400.37" cy="147.5" rx="29.21" ry="9.52"/><polygon class="cls-9" points="334.83 267.71 327.08 265.56 331.65 234.62 343.11 237.79 334.83 267.71"/><path class="cls-11" d="M334.73,275.78l-25-6.92.09-.32a10.09,10.09,0,0,1,12.42-7h0l15.28,4.22Z"/><polygon class="cls-9" points="312.34 267.81 304.98 264.56 314.01 234.61 324.88 239.41 312.34 267.81"/><path class="cls-11" d="M311.07,275.78l-23.74-10.49.13-.3a10.11,10.11,0,0,1,13.32-5.16h0l14.5,6.41Z"/><path class="cls-11" d="M423.11,124.22s3.9,12.09-20,27.38l-30.84,30.73-32,76.65-19-8.53,3.73-10,2.5-6.68,1.28-3.42,1.37-3.67,20.37-54.36,17.11-30,.49-16.25,4.21-11.46,30.53-10.83Z"/><path class="cls-11" d="M407.54,124.82s3.9,12.09-20,27.38l-30.84,30.73-32,76.65-19-8.53,3.73-10,2.5-6.68,1.28-3.42,1.38-3.67L334.85,173l5.73-10a182.9,182.9,0,0,1,27.33-36.41l5.62-5.8.59-9,13.07-7.27Z"/><path class="cls-10" d="M389.09,65.63l9.58-20.36L415.39,43A56.11,56.11,0,0,1,425,83a191.8,191.8,0,0,0-2.4,25.15c0,2,1.77,3,1.8,4.79s-3.38,4.76-2.39,6a10.55,10.55,0,0,1,2.39,6c-1.19,2.82-37.1-12.48-52.19-10.21Z"/><circle class="cls-9" cx="399.84" cy="25.02" r="15.12"/><path class="cls-11" d="M409.51,19.59c0,.4-.07.92-.12,1.52a8,8,0,0,0,1.32,4.6c.85,1.43-.16,10.07-.16,10.07,24.77-17.27,5.19-34.61-2.46-33.07C408.25.51,402,1.38,402,1.38c-2.37-3.7-7.59,1.22-7.59,1.22l1-1.7c-4.05,1-8.05,13.54-8.05,13.54C388.74,19.84,409.67,17.39,409.51,19.59Z"/><path class="cls-5" d="M313.42,73.64A138.75,138.75,0,0,0,333.37,36.4a3.56,3.56,0,0,0-1.68-4.29L302.56,16.5a3.53,3.53,0,0,0-3.09-.12,3.59,3.59,0,0,0-2,2.39,84.76,84.76,0,0,1-18.6,34.71,3.61,3.61,0,0,0-.86,3,3.53,3.53,0,0,0,1.82,2.5l29.12,15.6A3.56,3.56,0,0,0,313.42,73.64Z"/><path class="cls-7" d="M311.43,72.15a1.06,1.06,0,0,1-1.34.27L281,56.82a1,1,0,0,1-.54-.75,1.1,1.1,0,0,1,.27-.93A87.34,87.34,0,0,0,299.84,19.4a1.07,1.07,0,0,1,.63-.74,1,1,0,0,1,.92,0L330.51,34.3a1.08,1.08,0,0,1,.52,1.27A136.44,136.44,0,0,1,311.43,72.15Z"/><path class="cls-10" d="M301.24,33.52,321.33,45.3a1.8,1.8,0,0,0,1.81-3.1L303.05,30.42a1.8,1.8,0,0,0-1.81,3.1Z"/><path class="cls-10" d="M297.65,40.11l20.09,11.77a1.8,1.8,0,0,0,1.81-3.1L299.46,37a1.8,1.8,0,0,0-1.81,3.1Z"/><path class="cls-10" d="M293.46,47.29l20.09,11.78a1.8,1.8,0,0,0,1.81-3.1L295.27,44.19a1.8,1.8,0,0,0-1.81,3.1Z"/><path class="cls-10" d="M289.27,53.28l20.09,11.78A1.8,1.8,0,0,0,311.17,62L291.08,50.18a1.8,1.8,0,0,0-1.81,3.1Z"/><path class="cls-10" d="M380.85,122.54l7.54,17a2.69,2.69,0,0,1-2.91,3.75,2.33,2.33,0,0,1-.52-.13,2.71,2.71,0,0,1-1.49-1.43l-7.54-17a2.69,2.69,0,0,1,4.92-2.19Z"/><path class="cls-8" d="M387.78,138.14l1.51,3.42.78,4.85a1.46,1.46,0,0,1-1.22,1.68,1.44,1.44,0,0,1-1.37-.52l-3.13-3.89-1.49-3.35Z"/><path class="cls-8" d="M374.25,117.83l1.08,6.79a1.48,1.48,0,0,0,1.68,1.22,1.58,1.58,0,0,0,.37-.11l1.07-.48,2.07,4.65a.6.6,0,1,0,1.09-.49l-2.07-4.65,1.07-.47a1.47,1.47,0,0,0,.75-1.94,1.38,1.38,0,0,0-.2-.33l-4.32-5.35a1.46,1.46,0,0,0-2.06-.22A1.48,1.48,0,0,0,374.25,117.83Z"/><path class="cls-9" d="M377.38,130.08a6.59,6.59,0,0,1,7.66-5.33,6.17,6.17,0,0,1,1.12.3l14.89-18.13,3.61,11.65L390,134a6.64,6.64,0,0,1-12.59-3.92Z"/><path class="cls-10" d="M396.12,128.9l-6.55-9.47L408.19,94.6l-9.6-20.55.7-24.45,7.93-1.47.1,0A19.5,19.5,0,0,1,415.76,58c2,4.94,6.39,23.5,8.85,34.12a12.38,12.38,0,0,1-3.33,11.61Z"/><path class="cls-12" d="M211.49,83.14a8,8,0,0,0-.06,1.38L177.86,109l-9.23-4.08-8,13.11,15.63,8.81a6.69,6.69,0,0,0,8-1l33.79-33a8.79,8.79,0,1,0-6.35-10.69,7.9,7.9,0,0,0-.2,1.08Z"/><path class="cls-10" d="M176.77,109.84,167,126.16a3.77,3.77,0,0,1-5.17,1.29,3.65,3.65,0,0,1-.45-.32l-14.66-12a10.46,10.46,0,0,1,10.82-17.91L175,104.42a3.77,3.77,0,0,1,2,4.93,3.23,3.23,0,0,1-.25.49Z"/><rect class="cls-4" x="134.82" y="219.85" width="19.19" height="31.8"/><rect class="cls-4" x="172.66" y="226.28" width="4.39" height="55.66" transform="translate(-133.6 256.12) rotate(-55.84)"/><rect class="cls-4" x="86.15" y="251.92" width="55.66" height="4.39" transform="translate(-123.02 107.84) rotate(-34.16)"/><circle class="cls-4" cx="197.88" cy="269.74" r="6.03"/><circle class="cls-4" cx="144.14" cy="269.74" r="6.03"/><circle class="cls-4" cx="90.95" cy="269.74" r="6.03"/><rect class="cls-4" x="141.95" y="238.49" width="4.39" height="31.26"/><rect class="cls-4" x="140.31" y="191.88" width="8.23" height="42.22"/><path class="cls-8" d="M120.84,198.46v-9.87a6.85,6.85,0,0,1,6.85-6.85h36.74a6.86,6.86,0,0,1,6.86,6.85v9.87a6.86,6.86,0,0,1-6.86,6.85H127.69A6.85,6.85,0,0,1,120.84,198.46Z"/><polygon class="cls-13" points="187.19 265.93 197.35 265.93 202.19 239.57 187.19 239.57 187.19 265.93"/><path class="cls-11" d="M184.6,275.78h32.76v-.41a12.75,12.75,0,0,0-12.75-12.75h-20Z"/><path class="cls-11" d="M202.39,249.59l20.26-45.43a16.66,16.66,0,0,0-7.31-21.37L171.4,159.23l-20.05-1.7-18.49-1.68-.13.22c-.17.29-4.15,7.16-1.46,14.69,2,5.71,7.34,10.18,15.76,13.26,19.65,7.21,42.36,13.37,51.21,15.68a2.85,2.85,0,0,1,1.83,1.46,2.93,2.93,0,0,1,.16,2.32l-18.82,42.28a3.73,3.73,0,0,0,2.22,4.78,3.78,3.78,0,0,0,.94.22l14.06,1,.36,0A3.73,3.73,0,0,0,202.39,249.59Z"/><polygon class="cls-13" points="180.56 265.93 190.72 265.93 195.56 239.57 180.56 239.57 180.56 265.93"/><path class="cls-11" d="M178,275.78h32.76v-.41A12.75,12.75,0,0,0,198,262.61H178Z"/><path class="cls-11" d="M194.93,252.07l20.26-45.42a16.66,16.66,0,0,0-7.31-21.37l-43.94-23.56L143.89,160l-14.48-1.26v-.2c-.17.29-4.15,7.16-1.46,14.69,2,5.71,3.2,10.17,11.62,13.26,19.65,7.21,42.36,13.36,51.21,15.68a2.85,2.85,0,0,1,1.83,1.46,2.93,2.93,0,0,1,.16,2.32L174,248.24a3.73,3.73,0,0,0,3.16,5l14.06,1h.36A3.71,3.71,0,0,0,194.93,252.07Z"/><circle class="cls-13" cx="162.42" cy="51.72" r="20.36"/><path class="cls-5" d="M232.59,129.92a138.84,138.84,0,0,0,19.95-37.23,3.59,3.59,0,0,0-1.68-4.3l-29.13-15.6a3.5,3.5,0,0,0-3.09-.13,3.59,3.59,0,0,0-2,2.39A84.8,84.8,0,0,1,198,109.77a3.56,3.56,0,0,0,.95,5.52l29.13,15.61A3.56,3.56,0,0,0,232.59,129.92Z"/><path class="cls-7" d="M230.6,128.43a1.09,1.09,0,0,1-1.35.28L200.13,113.1a1,1,0,0,1-.54-.74,1.11,1.11,0,0,1,.27-.94A87.27,87.27,0,0,0,219,75.68a1.08,1.08,0,0,1,.62-.74,1,1,0,0,1,.92,0l29.13,15.6a1.08,1.08,0,0,1,.51,1.28A136.07,136.07,0,0,1,230.6,128.43Z"/><path class="cls-5" d="M220.41,89.81l20.09,11.77a1.8,1.8,0,0,0,1.81-3.1L222.22,86.7a1.8,1.8,0,0,0-1.81,3.11Z"/><path class="cls-5" d="M216.82,96.39l20.09,11.78a1.8,1.8,0,0,0,1.81-3.1L218.63,93.29a1.8,1.8,0,0,0-1.81,3.1Z"/><path class="cls-5" d="M214,103l18.27,10.85c1.82,1.08,3.77-1.15,2-2.23l-18.27-10.85C214.12,99.64,212.18,101.88,214,103Z"/><path class="cls-5" d="M208.43,109.56l20.09,11.78a1.8,1.8,0,0,0,1.82-3.1l-20.09-11.78a1.8,1.8,0,0,0-1.82,3.1Z"/><path class="cls-14" d="M174.16,160.88l-40.28-.24v-.28c-.77-20.21,1.7-38.52,7.55-56,.08-.66.17-1.35.26-2,1-7.81,1.79-14,9.21-16.31a5.32,5.32,0,0,1-1-2.84,5.1,5.1,0,0,1,1.28-3.77,4.94,4.94,0,0,1,3.44-1.68l14.34-.49A3.32,3.32,0,0,1,171,78a5.72,5.72,0,0,1,1.67,7.23c-.17.33-.23.49-.26.55.51,2.67,2,5.85,3.62,9.2,2.3,4.81,4.89,10.26,5.56,16.09a29.5,29.5,0,0,1-.44,9.42,18.73,18.73,0,0,0-.21,5.07c.13,2.5.26,4.86-1.16,7.15-.36.62-.77,1.28-1.26,2l-2,4.76Z"/><path class="cls-8" d="M113.71,189.17V106.86a10.14,10.14,0,0,1,10.12-10.12h2.79a10.14,10.14,0,0,1,10.12,10.12v82.31a10.12,10.12,0,0,1-10.12,10.11h-2.79A10.12,10.12,0,0,1,113.71,189.17Z"/><path class="cls-12" d="M221.73,115.08a8.83,8.83,0,0,0-.78,1.14l-41.41,3-5.68-8.34-13.7,6.93,8.62,15.73a6.69,6.69,0,0,0,7.32,3.32l46.12-10.19a8.79,8.79,0,1,0,.25-12.43A7.11,7.11,0,0,0,221.73,115.08Z"/><path class="cls-14" d="M178.15,119.43l-16.93,8.69a3.77,3.77,0,0,1-5.07-1.63,3.92,3.92,0,0,1-.22-.51l-6.09-18a10.47,10.47,0,0,1,4.55-14c-7.5,3.86,8.13-7.08,14.09,4.54l11,15.37a3.76,3.76,0,0,1-.87,5.25,3.31,3.31,0,0,1-.47.29Z"/><path class="cls-11" d="M153.23,71.52a6.93,6.93,0,0,1-4.1-1.79,26.06,26.06,0,0,1-7.95-30.55,17.37,17.37,0,0,1,6.76-8.36,22.79,22.79,0,0,1,8.23-2.45c2.28-.35,4.59-.62,6.86-.81,2.72-.23,5.85-.39,8.71.7a21.78,21.78,0,0,1,5.61,3.56c.6.47,1.22,1,1.84,1.42a13.73,13.73,0,0,0,5.11,2.48,2.78,2.78,0,0,1,1.87,1.37,2.84,2.84,0,0,1,.2,2.35,2.21,2.21,0,0,0,0,2.17,1.93,1.93,0,0,0,1.62.83,1,1,0,0,1,.85.44,1,1,0,0,1,.11.95l-.08.21a1.29,1.29,0,0,1,1,.66,1.35,1.35,0,0,1-.25,1.66,13.48,13.48,0,0,1-6.54,3.42,13,13,0,0,1-5.08,0l-.27,0,0-.3C171,47,164.84,51.1,161.34,55.8l-.5-.32a1.48,1.48,0,0,0,.06-1.13,1.75,1.75,0,0,0-.87-1,2.28,2.28,0,0,0-2.48.49,3.36,3.36,0,0,0-.93,2.57,9.08,9.08,0,0,0,.75,2.88c.16.43.33.88.47,1.34a11,11,0,0,1-.58,7.8,5.22,5.22,0,0,1-3,3A3.7,3.7,0,0,1,153.23,71.52Z"/><path class="cls-4" d="M484.09,277H.71a.71.71,0,0,1,0-1.42H484.09a.71.71,0,0,1,0,1.42Z"/></svg>