<svg id="Layer_1" data-name="Layer 1" xmlns="http://www.w3.org/2000/svg" viewBox="0 0 471.97 330"><defs><style>.cls-1{fill:#ffb8b8;}.cls-2{fill:#3f3d56;}.cls-3{fill:#2f2e41;}.cls-4{fill:#10c0e8;}.cls-5{fill:#e6e6e6;}.cls-6{fill:#fff;}.cls-7{fill:#ee4693;}</style></defs><title>Artboard 35</title><path class="cls-1" d="M398.5,229.17a5,5,0,0,1,.35-7,5.35,5.35,0,0,1,.7-.53l-3.95-17.26,8.61,3.23,2.43,15.89a5,5,0,0,1-8.14,5.71Z"/><path class="cls-2" d="M397.9,215.47l-7.58-14.65,1-36.88.48,1c.57,1.19,13.86,29.33,12.92,38.76l1.52,8.6Z"/><polygon class="cls-1" points="392.96 323.71 399.04 323.71 401.92 300.28 392.96 300.28 392.96 323.71"/><path class="cls-3" d="M391.41,321.73h12a7.63,7.63,0,0,1,7.63,7.62v.25H391.41Z"/><polygon class="cls-1" points="332.94 319.1 338.79 320.72 347.85 298.93 339.21 296.52 332.94 319.1"/><path class="cls-3" d="M332,316.77,343.5,320h0a7.62,7.62,0,0,1,5.31,9.38l-.07.24-18.87-5.24Z"/><path class="cls-3" d="M386.9,314.58,374.64,226.8l-26.48,87.28L327.34,307,357.18,190.1l.2,0,31.26-2.17,22.59,119.57Z"/><path class="cls-4" d="M383.66,148.74a46.5,46.5,0,0,0-26.76-3.47s-8.17,19.72,0,27.57l2.23,19.75s20.81,12.38,27.75-2l-1-16.35s5-7.84,1-13.58A19,19,0,0,1,383.66,148.74Z"/><path class="cls-2" d="M385.1,238.54l2-41.51-5.66-49.37.26,0c7.43-1.12,9.81,11.67,9.91,12.22l12.92,73.07Z"/><path class="cls-2" d="M359.9,239l-22.85-2.54v-.25c.08-3.38,2.05-82.92,7.56-88.55s16-3.21,16.45-3.11l.22.06-1.88,33.65Z"/><path class="cls-1" d="M364.11,191.43a5,5,0,0,1-6.28-3.18,4,4,0,0,1-.2-.85L340.25,184l6.45-6.56,15.51,4.24a5,5,0,0,1,1.9,9.76Z"/><path class="cls-2" d="M354.84,187.45l-5.66-1.22c-8.36,2.52-22.95-6.33-28.85-10.26-1.11-.74-1.46-2.21-1.07-4.36a12.69,12.69,0,0,1,4.67-7.58l20.77-16.47,5.24-.87,1.56,8.82-13.23,14.21,19.47,10.6Z"/><path class="cls-3" d="M352.6,137.8V126.36a18.25,18.25,0,0,1,36.5,0V137.8a2.45,2.45,0,0,1-2.45,2.45h-31.6A2.45,2.45,0,0,1,352.6,137.8Z"/><circle class="cls-1" cx="370.12" cy="126.76" r="13.38"/><path class="cls-3" d="M356.37,126.7a1.36,1.36,0,0,1-.32-1.08l1.59-11a1.34,1.34,0,0,1,.77-1,27.59,27.59,0,0,1,24.38,0,1.38,1.38,0,0,1,.78,1.11l1.06,11.05a1.37,1.37,0,0,1-1.23,1.49h-2.81a1.37,1.37,0,0,1-1.24-.78l-1.15-2.48a.82.82,0,0,0-1.09-.4.81.81,0,0,0-.46.64l-.23,1.83a1.37,1.37,0,0,1-1.35,1.19H357.4A1.35,1.35,0,0,1,356.37,126.7Z"/><rect class="cls-5" y="21.99" width="300.18" height="186.92"/><rect class="cls-6" x="20.13" y="58" width="54.98" height="35.74"/><rect class="cls-6" x="88.44" y="58" width="54.98" height="35.74"/><rect class="cls-6" x="156.76" y="58" width="54.98" height="35.74"/><rect class="cls-6" x="225.07" y="58" width="54.98" height="35.74"/><rect class="cls-6" x="20.13" y="108.58" width="54.98" height="35.74"/><rect class="cls-6" x="88.44" y="108.58" width="54.98" height="35.74"/><rect class="cls-6" x="156.76" y="108.58" width="54.98" height="35.74"/><rect class="cls-6" x="225.07" y="108.58" width="54.98" height="35.74"/><rect class="cls-6" x="20.13" y="159.16" width="54.98" height="35.74"/><rect class="cls-6" x="88.44" y="159.16" width="54.98" height="35.74"/><rect class="cls-6" x="156.76" y="159.16" width="54.98" height="35.74"/><rect class="cls-6" x="225.07" y="159.16" width="54.98" height="35.74"/><circle class="cls-6" cx="78.62" cy="35.74" r="8.25"/><circle class="cls-6" cx="214.96" cy="35.74" r="8.25"/><rect class="cls-5" x="75.32" width="6.6" height="37.93"/><rect class="cls-5" x="211.66" width="6.6" height="37.93"/><path class="cls-7" d="M265,75.87a12.4,12.4,0,1,1-1.92-6.64A12.38,12.38,0,0,1,265,75.87Z"/><path class="cls-6" d="M263.07,69.23,250.83,81.46c-.77-1.19-5.05-6.72-5.05-6.72a17.16,17.16,0,0,1,1.75-1.55l3.56,4.74,10.55-10.55A12.85,12.85,0,0,1,263.07,69.23Z"/><path class="cls-4" d="M128.36,126.45a12.4,12.4,0,1,1-1.92-6.64A12.38,12.38,0,0,1,128.36,126.45Z"/><path class="cls-6" d="M126.44,119.81,114.21,132c-.77-1.19-5.06-6.72-5.06-6.72a18.3,18.3,0,0,1,1.75-1.55l3.56,4.74L125,118A11.57,11.57,0,0,1,126.44,119.81Z"/><path class="cls-7" d="M60.05,126.45a12.4,12.4,0,1,1-1.92-6.64A12.39,12.39,0,0,1,60.05,126.45Z"/><path class="cls-6" d="M58.13,119.81,45.89,132c-.77-1.19-5-6.72-5-6.72a17.16,17.16,0,0,1,1.75-1.55l3.55,4.74L56.7,118A12.85,12.85,0,0,1,58.13,119.81Z"/><path class="cls-2" d="M471.42,330H263.86a.55.55,0,1,1,0-1.09H471.42a.55.55,0,1,1,0,1.09Z"/></svg>