<svg id="Layer_1" data-name="Layer 1" xmlns="http://www.w3.org/2000/svg" viewBox="0 0 401.79 330"><defs><style>.cls-1{fill:#e6e6e6;}.cls-2{fill:#9f616a;}.cls-3{fill:#2f2e41;}.cls-4{fill:#ee4693;}.cls-5{fill:#d0cde1;}.cls-6{fill:#10c0e8;}.cls-7{fill:#fff;}</style></defs><title>Artboard 34</title><path class="cls-1" d="M401.79,319.91c.13,12.86-80.89,14-82.43,0C319.23,307.06,400.25,305.88,401.79,319.91Z"/><polygon class="cls-2" points="338.41 275.28 332.38 278.56 336.22 291.15 342.24 291.7 345.52 284.58 338.41 275.28"/><polygon class="cls-2" points="357.02 300.46 357.02 306.48 366.32 305.93 366.19 300.97 357.02 300.46"/><polygon class="cls-3" points="336.22 203.03 339.5 244.08 349.9 304.29 366.32 302.1 360.85 254.48 363.04 210.69 336.22 203.03"/><path class="cls-3" d="M380,172.37l-39.41.55L336.22,203,363,215.62l6.57,24.08-33.39,35.58,13.13,16.42s18.61-25.18,32.3-39.41,7.11-57.47,7.11-57.47Z"/><circle class="cls-2" cx="356.47" cy="82.61" r="12.04"/><path class="cls-2" d="M352.09,90.82v12L360.3,116s12.59-9.31,9.85-11.5-3.28-19.16-3.28-19.16Z"/><polygon class="cls-4" points="352.09 100.67 343.88 110.52 347.16 178.94 372.89 178.4 377.27 118.73 371.8 103.41 368.04 98.3 361.4 108.33 352.09 100.67"/><path class="cls-3" d="M339,136.25l-6,23,6,23-9.85,13.13-8.76-41.6s6.57-33.93,7.12-37.76,1.64-4.38,1.64-4.38l4.38.55Z"/><polygon class="cls-3" points="382.74 145.01 386.57 152.12 387.67 164.16 385.48 177.85 393.14 190.44 400.81 155.95 392.6 111.62 389.31 111.62 382.74 145.01"/><path class="cls-3" d="M336.22,274.73s-7.67,2.19-10.4,2.74,1.64,10.95,1.64,10.95,2.74,14.23,3.28,17,4.38,12.05,9.31,13.14,1.64-19.16,1.64-19.16,2.19-6.57,2.19-8.76-3.28-1.09-3.28-1.09C331.84,288.42,336.22,274.73,336.22,274.73Z"/><path class="cls-3" d="M354.28,316.88c.55,3.28-.55,3.28,8.21,4.38s6.57-6,6.57-6a46.24,46.24,0,0,0-2.19-9.86c-1.64-4.38-10.4,1.1-10.4,1.1S353.73,313.59,354.28,316.88Z"/><path class="cls-3" d="M366.88,85.73l.29,4.86a55.1,55.1,0,0,0,4.08-16.19c.55-8.21-8.76-9.86-14.23-10.4s-14.78,3.28-14.78,7.66,9.85,3.28,13.68,2.19,5.48,8.21,5.48,8.21l2.19.55Z"/><polygon class="cls-5" points="348.86 104.55 352.09 100.67 361.4 108.33 352.09 114.9 348.86 104.55"/><polygon class="cls-5" points="371.8 103.41 367.96 98.48 361.4 108.33 369.61 114.36 371.8 103.41"/><path class="cls-3" d="M337.31,143.91l2.19,20.8-4.38,12.59-2.73,12s0,11.5,10.94,12,20.26-34.49,20.26-34.49,1.64,7.66,2.73,12S386,200.84,386,200.84s4.38-.55,8.21-9.31-7.67-17-7.67-17l-3.28-11.49,1.09-14.23,7.67-37.22L369.33,99.85l2.47,31.47L363.59,156l-12.32-54.46-4.11,3-17.51,7.12Z"/><path class="cls-5" d="M121,226.7c-1.08,0-2.18,0-3.25,0l0-1.08c1.06,0,2.15.05,3.22.05s2.16,0,3.25-.06l0,1.09C123.18,226.68,122.07,226.7,121,226.7Zm-9.77-.46c-2.16-.2-4.34-.48-6.48-.82l.17-1.07c2.11.34,4.27.61,6.41.81Zm19.57,0-.1-1.08c2.13-.2,4.29-.48,6.41-.82l.17,1.07c-2.14.35-4.32.63-6.48.83Zm-32.47-2c-2.11-.48-4.24-1-6.32-1.65l.3-1c2.06.61,4.17,1.16,6.26,1.63Zm45.37,0-.24-1.06c2.09-.48,4.2-1,6.25-1.64l.31,1c-2.08.62-4.2,1.17-6.32,1.66Zm-57.9-3.68c-2-.75-4.08-1.57-6.06-2.45l.44-1c2,.86,4,1.68,6,2.42Zm70.42,0-.38-1c2-.74,4-1.56,6-2.43l.44,1C160.27,218.87,158.24,219.69,156.21,220.44Zm-82.38-5.25c-1.92-1-3.84-2.08-5.7-3.21l.57-.93c1.84,1.12,3.73,2.18,5.63,3.18Zm94.3,0-.5-1c1.89-1,3.79-2.06,5.62-3.18l.57.93C172,213.07,170.05,214.15,168.13,215.15ZM62.65,208.41c-1.77-1.24-3.54-2.56-5.23-3.91l.67-.85c1.68,1.34,3.43,2.64,5.19,3.87Zm116.64,0-.63-.89c1.76-1.23,3.51-2.53,5.18-3.87l.68.85C182.82,205.81,181.06,207.13,179.29,208.37ZM52.44,200.26c-1.61-1.46-3.19-3-4.7-4.54l.78-.76c1.49,1.54,3.06,3,4.65,4.5Zm137.05,0-.73-.8c1.59-1.44,3.15-3,4.65-4.5l.77.76C192.67,197.24,191.09,198.77,189.49,200.22ZM43.34,190.88c-1.4-1.65-2.77-3.36-4.07-5.1l.86-.65c1.29,1.72,2.65,3.42,4,5.05Zm155.24,0-.83-.7c1.4-1.64,2.76-3.34,4-5.06l.87.65c-1.3,1.74-2.67,3.46-4.08,5.11ZM35.52,180.43c-1.19-1.82-2.33-3.69-3.39-5.58l.94-.53c1.06,1.86,2.18,3.72,3.36,5.52Zm170.89-.06-.91-.59c1.17-1.8,2.3-3.66,3.36-5.53l.94.53c-1.07,1.89-2.21,3.77-3.39,5.59ZM29.1,169.07c-1-1.95-1.84-4-2.65-6l1-.41c.81,2,1.69,4,2.62,5.9ZM212.83,169l-1-.48c.94-1.93,1.82-3.92,2.63-5.91l1,.4C214.67,165,213.77,167,212.83,169ZM24.18,157c-.68-2.06-1.31-4.17-1.86-6.27l1.05-.27c.54,2.07,1.16,4.16,1.84,6.19Zm193.56-.12-1-.34c.68-2,1.29-4.12,1.84-6.2l1,.28C219.05,152.7,218.42,154.81,217.74,156.86ZM20.87,144.34c-.42-2.12-.77-4.29-1.05-6.45l1.08-.13c.27,2.12.62,4.27,1,6.38ZM221,144.22,220,144c.41-2.11.75-4.25,1-6.38l1.08.13c-.28,2.16-.62,4.33-1,6.45ZM19.2,131.39c-.14-2.16-.22-4.36-.22-6.53h1.09c0,2.15.07,4.32.21,6.46Zm203.5-.12-1.08-.07c.13-2.14.2-4.31.2-6.46v-.24h1.08v.24c0,2.17-.06,4.37-.2,6.53ZM20.26,118.4l-1.08-.07c.14-2.17.34-4.35.61-6.5l1.08.13C20.6,114.09,20.4,116.25,20.26,118.4ZM221.6,118c-.14-2.14-.35-4.31-.63-6.43l1.08-.14c.28,2.15.49,4.33.63,6.5ZM21.88,105.58l-1.06-.21c.41-2.13.89-4.27,1.44-6.37l1,.27C22.77,101.35,22.29,103.47,21.88,105.58Zm198.05-.35c-.41-2.11-.9-4.23-1.44-6.3l1-.28c.55,2.1,1,4.24,1.46,6.37ZM25.14,93.07l-1-.34c.68-2.06,1.44-4.13,2.25-6.14l1,.4C26.56,89,25.81,91,25.14,93.07Zm191.5-.34c-.68-2-1.44-4.07-2.25-6.06l1-.41c.81,2,1.58,4.07,2.27,6.13ZM30,81.07l-1-.47c.94-1.95,1.95-3.91,3-5.8l.94.53C31.92,77.21,30.91,79.14,30,81.07Zm181.78-.29c-.93-1.93-1.94-3.85-3-5.72l.94-.54c1.07,1.89,2.09,3.84,3,5.78ZM36.33,69.8l-.91-.59c1.18-1.82,2.44-3.63,3.74-5.37l.87.65C38.74,66.21,37.5,68,36.33,69.8Zm169.06-.26c-1.17-1.79-2.42-3.57-3.71-5.29l.87-.65c1.3,1.74,2.57,3.54,3.75,5.35ZM44.06,59.43l-.83-.7c1.4-1.65,2.88-3.28,4.39-4.84l.78.75C46.91,56.19,45.45,57.8,44.06,59.43Zm153.58-.22c-1.39-1.63-2.86-3.24-4.36-4.78l.78-.75c1.51,1.55,3,3.18,4.4,4.83ZM53,50.14l-.73-.8c1.6-1.46,3.27-2.89,5-4.25l.67.85C56.28,47.28,54.63,48.69,53,50.14Zm135.59-.2c-1.59-1.44-3.25-2.85-4.93-4.18l.68-.85c1.7,1.35,3.37,2.77,5,4.23ZM63.13,42.07l-.63-.89c1.78-1.25,3.62-2.45,5.47-3.58l.56.93C66.7,39.65,64.88,40.84,63.13,42.07Zm115.38-.18c-1.76-1.23-3.59-2.41-5.42-3.52l.56-.93c1.85,1.12,3.7,2.32,5.48,3.56ZM74.15,35.35l-.5-1c1.92-1,3.89-2,5.87-2.85l.45,1C78,33.41,76.05,34.35,74.15,35.35Zm93.3-.15c-1.91-1-3.87-1.94-5.84-2.8l.44-1c2,.88,4,1.83,5.9,2.84ZM85.94,30.1l-.37-1c2-.75,4.12-1.45,6.2-2.07l.31,1C90,28.67,88,29.36,85.94,30.1ZM155.61,30c-2-.74-4.08-1.42-6.14-2l.31-1c2.08.61,4.16,1.3,6.2,2.05ZM98.33,26.41l-.25-1.06c2.11-.48,4.27-.9,6.42-1.25l.17,1.07C102.55,25.51,100.41,25.93,98.33,26.41Zm44.88-.08c-2.09-.47-4.22-.88-6.35-1.22L137,24c2.15.34,4.31.75,6.42,1.23Zm-32.13-2-.1-1.08c2.15-.21,4.34-.35,6.52-.42l0,1.08c-2.15.07-4.32.21-6.45.42Zm19.37,0c-2.13-.2-4.3-.34-6.45-.4l0-1.09c2.17.07,4.36.2,6.52.41Z"/><circle class="cls-6" cx="117.15" cy="25.49" r="25.49"/><circle class="cls-4" cx="215.85" cy="94.91" r="25.49"/><circle class="cls-4" cx="184.94" cy="201.21" r="25.49"/><circle class="cls-6" cx="62.37" cy="205.55" r="25.49"/><circle class="cls-4" cx="25.49" cy="94.91" r="25.49"/><path class="cls-7" d="M128.07,23.46h-8.89a3.06,3.06,0,0,1-3.05-3.05V11.52a.26.26,0,0,0-.25-.26H110A4.07,4.07,0,0,0,106,15.33V35.65A4.07,4.07,0,0,0,110,39.72h14.23a4.07,4.07,0,0,0,4.06-4.07h0V23.71a.25.25,0,0,0-.25-.25Zm-5.84,10.16H112.07a1,1,0,1,1,0-2h10.16a1,1,0,0,1,0,2Zm0-5.08H112.07a1,1,0,1,1,0-2h10.16a1,1,0,0,1,0,2Z"/><path class="cls-7" d="M127.51,21.21l-9.13-9.13a.13.13,0,0,0-.22.09v8.24a1,1,0,0,0,1,1h8.24a.13.13,0,0,0,.13-.13.1.1,0,0,0,0-.09Z"/><path class="cls-7" d="M188.63,196.19a1.35,1.35,0,1,0,1,.39A1.35,1.35,0,0,0,188.63,196.19Z"/><path class="cls-7" d="M196.15,190.79h0a1,1,0,0,0-.77-.77c-1.51-.37-3.88,0-6.51,1.08a20.79,20.79,0,0,0-6.81,4.31,16.24,16.24,0,0,0-1.5,1.71,6.53,6.53,0,0,0-3,.48c-2.92,1.28-3.76,4.58-4,5.93a1.26,1.26,0,0,0,1,1.45,1,1,0,0,0,.34,0h0l3.26-.35s0,.08,0,.11a1.73,1.73,0,0,0,.5,1l1.59,1.59a1.73,1.73,0,0,0,1,.5h.11l-.36,3.26h0a1.27,1.27,0,0,0,1.13,1.39h.12l.21,0c1.36-.22,4.65-1,5.93-4a6.79,6.79,0,0,0,.48-3,16.35,16.35,0,0,0,1.72-1.5,20.82,20.82,0,0,0,4.32-6.76C196.11,194.74,196.51,192.35,196.15,190.79Zm-5.42,8.85a3,3,0,1,1,0-4.21h0a3,3,0,0,1,0,4.18h0Z"/><path class="cls-7" d="M180.18,207.81a.86.86,0,0,0-.56.14l-1,.65a.76.76,0,0,1-1.07-1l.62-1.06a.82.82,0,0,0-.21-1.13.8.8,0,0,0-.56-.13,3,3,0,0,0-1.8.88c-.19.18-.75.75-1,2.9a16.48,16.48,0,0,0-.17,1.86.81.81,0,0,0,.79.83h0c.63,0,1.25-.08,1.87-.16,2.14-.31,2.71-.87,2.89-1.06a3,3,0,0,0,.88-1.81A.81.81,0,0,0,180.18,207.81Z"/><path class="cls-7" d="M53.6,219.4H51.75A1.38,1.38,0,0,1,50.37,218h0v-8.31a1.38,1.38,0,0,1,1.38-1.39H53.6A1.38,1.38,0,0,1,55,209.71h0V218a1.38,1.38,0,0,1-1.38,1.38Z"/><path class="cls-7" d="M66.53,219.4H64.68A1.38,1.38,0,0,1,63.29,218h0V204.16a1.38,1.38,0,0,1,1.39-1.38h1.85a1.38,1.38,0,0,1,1.38,1.38h0V218a1.38,1.38,0,0,1-1.38,1.38Z"/><path class="cls-7" d="M73,219.4H71.14A1.38,1.38,0,0,1,69.76,218h0V197.7a1.38,1.38,0,0,1,1.38-1.38H73a1.38,1.38,0,0,1,1.38,1.38V218A1.38,1.38,0,0,1,73,219.4Z"/><path class="cls-7" d="M60.06,219.4H58.21A1.38,1.38,0,0,1,56.83,218h0V193.08a1.38,1.38,0,0,1,1.38-1.38h1.85a1.38,1.38,0,0,1,1.39,1.38V218a1.38,1.38,0,0,1-1.39,1.38Z"/><path class="cls-7" d="M217.08,94.24l-1.32-1.32a1.62,1.62,0,0,0-2.29,0l-9.17,8.46a1.7,1.7,0,0,0-.57,1.17,1.64,1.64,0,0,0,.46,1.21l2,2h0a1.58,1.58,0,0,0,1.14.48h.06a1.69,1.69,0,0,0,1.17-.56l8.53-9.14a1.61,1.61,0,0,0,0-2.28Z"/><path class="cls-7" d="M227.68,91.58l0,0-1.73-1.71a1.06,1.06,0,0,0-.77-.32,1.1,1.1,0,0,0-.65.21s0,0,0-.06a1.9,1.9,0,0,0-.26-1.28A13.36,13.36,0,0,0,223,87h0a13.68,13.68,0,0,0-4.38-2.83,7.12,7.12,0,0,0-2.69-.53,5.14,5.14,0,0,0-3.27,1.15,6.31,6.31,0,0,0-.72.82.81.81,0,0,0,.18,1.13.85.85,0,0,0,.77.1,3.09,3.09,0,0,1,.43-.14,3.23,3.23,0,0,1,.93-.05,3.82,3.82,0,0,1,1.81.66,2.58,2.58,0,0,1,.92,2.07,5.48,5.48,0,0,1-1,1.75.81.81,0,0,0,.07,1.06l1.74,1.74a.82.82,0,0,0,1.11,0,19.63,19.63,0,0,1,1.51-1.27,1.77,1.77,0,0,1,.74-.29.94.94,0,0,1,.57.12.08.08,0,0,1,0,0l-.09.09h0a1.09,1.09,0,0,0,0,1.54h0l1.73,1.72a1,1,0,0,0,.77.31,1.09,1.09,0,0,0,.77-.31l2.81-2.77,0,0A1.1,1.1,0,0,0,227.68,91.58Z"/><path class="cls-7" d="M29.54,93.39a1,1,0,0,1-1-1,1,1,0,0,1,.29-.71l2.32-2.32L28.82,87a1,1,0,0,1,0-1.43,1,1,0,0,1,1.42,0l3,3a1,1,0,0,1,0,1.43h0l-3,3A1,1,0,0,1,29.54,93.39Z"/><path class="cls-7" d="M13.35,96.43a1,1,0,0,1-1-1h0v-1a6.1,6.1,0,0,1,6.06-6.07H31.56a1,1,0,1,1,0,2H18.41a4.07,4.07,0,0,0-4.05,4v1a1,1,0,0,1-1,1Z"/><path class="cls-7" d="M21.44,104.52a1,1,0,0,1-.71-.29l-3-3a1,1,0,0,1,0-1.43h0l3-3a1,1,0,0,1,1.43,1.44l-2.32,2.32,2.32,2.32a1,1,0,0,1-.72,1.72Z"/><path class="cls-7" d="M19.42,101.49a1,1,0,0,1,0-2H32.57a4.07,4.07,0,0,0,4-4v-1a1,1,0,0,1,2,0v1a6.1,6.1,0,0,1-6.06,6.07Z"/></svg>