<svg id="Layer_1" data-name="Layer 1" xmlns="http://www.w3.org/2000/svg" viewBox="0 0 635 448"><defs><style>.cls-1{fill:#3f3d56;}.cls-2{fill:#fff;}.cls-3{fill:#f2f2f2;}.cls-4{fill:#e6e6e6;}.cls-5{fill:#f54394;}.cls-6{fill:#ccc;}.cls-7{fill:#ffb6b6;}.cls-8{fill:#12c2e9;}.cls-9{fill:#2f2e41;}</style></defs><rect class="cls-1" x="135.67" y="1.57" width="243.19" height="443.12" rx="43.81"/><path class="cls-2" d="M374.77,45.38v355.5a39.76,39.76,0,0,1-39.71,39.71H179.49a39.75,39.75,0,0,1-39.71-39.71V45.38a39.74,39.74,0,0,1,39.71-39.7h20.34v7a12,12,0,0,0,12,12h90.89a12,12,0,0,0,12-12v-7h20.35A39.75,39.75,0,0,1,374.77,45.38Z"/><path class="cls-3" d="M308.21,197.11c-9-4.06-19.07,5.14-12.38,13.75-22.6,20.59-56.16,27.83-85.38,19.22-.72,1.74-1.48,3.46-2.26,5.18a211.89,211.89,0,0,1-48.91,68c27.22-22.64,60.76-3.51,89.61,3.94a10.25,10.25,0,0,1,4.52,18.22,59.13,59.13,0,0,0-11.34-3,8.94,8.94,0,0,0-7.95,14.86c-30.21,14.49-67.8,9.15-93.73-11.66V313.34a212.9,212.9,0,0,0,63.77-80,209.36,209.36,0,0,0,12.28-34.26,199.37,199.37,0,0,0,6.2-39.29c-5-14.65-4.13-31.86,4.14-45.17,3.42,6.21,13.27,7.82,14.31-.79.22-3.47.39-7,.59-10.4,37.13-2.87,30.79,49.12-14.64,57.25a208.35,208.35,0,0,1-6.47,39.53c-.31,1.29-.66,2.57-1,3.84a88.85,88.85,0,0,1,31.73-26.87c12-5.62,26-6.82,39.29-9C306.77,165.59,318.24,184.1,308.21,197.11Z"/><path class="cls-1" d="M134.56,91.46a3,3,0,0,1-3-3v-6a3,3,0,0,1,6,0v6A3,3,0,0,1,134.56,91.46Z"/><path class="cls-1" d="M134.56,122.06a3,3,0,0,1-3-3V102.65a3,3,0,0,1,6,0v16.43A3,3,0,0,1,134.56,122.06Z"/><path class="cls-1" d="M134.56,146.67a3,3,0,0,1-3-3V127.25a3,3,0,0,1,6,0v16.43A3,3,0,0,1,134.56,146.67Z"/><path class="cls-1" d="M379.24,133.24a3,3,0,0,1-3-3V90.17a3,3,0,0,1,6,0v40.08A3,3,0,0,1,379.24,133.24Z"/><path class="cls-2" d="M263.68,15.26H240.56a1.87,1.87,0,1,1,0-3.73h23.12a1.87,1.87,0,1,1,0,3.73Z"/><circle class="cls-2" cx="275.62" cy="13.39" r="1.49"/><path class="cls-4" d="M206.44,113.87H180.53A13.54,13.54,0,0,1,167,100.34V74.43A13.54,13.54,0,0,1,180.53,60.9h25.91A13.55,13.55,0,0,1,220,74.43v25.91A13.55,13.55,0,0,1,206.44,113.87ZM180.53,62.39a12.05,12.05,0,0,0-12,12v25.91a12,12,0,0,0,12,12h25.91a12,12,0,0,0,12-12V74.43a12.05,12.05,0,0,0-12-12Z"/><path class="cls-4" d="M270.23,114.24H244.32a13.55,13.55,0,0,1-13.53-13.53V74.8a13.55,13.55,0,0,1,13.53-13.53h25.91A13.54,13.54,0,0,1,283.75,74.8v25.91A13.54,13.54,0,0,1,270.23,114.24ZM244.32,62.76a12.06,12.06,0,0,0-12,12v25.91a12.06,12.06,0,0,0,12,12h25.91a12.06,12.06,0,0,0,12-12V74.8a12.06,12.06,0,0,0-12-12Z"/><path class="cls-4" d="M334,114.61H308.1a13.55,13.55,0,0,1-13.53-13.53V75.17A13.54,13.54,0,0,1,308.1,61.65H334a13.54,13.54,0,0,1,13.53,13.52v25.91A13.55,13.55,0,0,1,334,114.61ZM308.1,63.14a12.05,12.05,0,0,0-12,12v25.91a12.05,12.05,0,0,0,12,12H334a12,12,0,0,0,12-12V75.17a12,12,0,0,0-12-12Z"/><path class="cls-4" d="M206.44,187.72H180.53A13.54,13.54,0,0,1,167,174.19V148.28a13.54,13.54,0,0,1,13.52-13.53h25.91A13.55,13.55,0,0,1,220,148.28v25.91A13.55,13.55,0,0,1,206.44,187.72Zm-25.91-51.47a12,12,0,0,0-12,12v25.91a12.06,12.06,0,0,0,12,12h25.91a12.06,12.06,0,0,0,12-12V148.28a12,12,0,0,0-12-12Z"/><path class="cls-4" d="M270.23,188.09H244.32a13.55,13.55,0,0,1-13.53-13.53V148.65a13.54,13.54,0,0,1,13.53-13.52h25.91a13.53,13.53,0,0,1,13.52,13.52v25.91A13.54,13.54,0,0,1,270.23,188.09Zm-25.91-51.47a12.05,12.05,0,0,0-12,12v25.91a12.05,12.05,0,0,0,12,12h25.91a12.05,12.05,0,0,0,12-12V148.65a12,12,0,0,0-12-12Z"/><path class="cls-4" d="M334,188.46H308.1a13.54,13.54,0,0,1-13.53-13.52V149A13.55,13.55,0,0,1,308.1,135.5H334A13.55,13.55,0,0,1,347.54,149v25.91A13.54,13.54,0,0,1,334,188.46ZM308.1,137a12.05,12.05,0,0,0-12,12v25.91a12,12,0,0,0,12,12H334a12,12,0,0,0,12-12V149a12,12,0,0,0-12-12Z"/><path class="cls-5" d="M206.44,411.52H180.53a12.8,12.8,0,0,1-12.78-12.78V372.83A12.81,12.81,0,0,1,180.53,360h25.91a12.81,12.81,0,0,1,12.79,12.79v25.91A12.81,12.81,0,0,1,206.44,411.52Z"/><path class="cls-4" d="M270.23,411.89H244.32a12.81,12.81,0,0,1-12.79-12.78V373.2a12.79,12.79,0,0,1,12.79-12.78h25.91A12.79,12.79,0,0,1,283,373.2v25.91A12.8,12.8,0,0,1,270.23,411.89Z"/><path class="cls-4" d="M334,412.26H308.1a12.78,12.78,0,0,1-12.78-12.78V373.57a12.79,12.79,0,0,1,12.78-12.78H334a12.8,12.8,0,0,1,12.78,12.78v25.91A12.79,12.79,0,0,1,334,412.26Z"/><circle class="cls-6" cx="243.84" cy="335.05" r="3.73"/><circle class="cls-4" cx="257.27" cy="335.05" r="3.73"/><circle class="cls-4" cx="270.7" cy="335.05" r="3.73"/><path class="cls-4" d="M346.48,420.1H168.26a15.35,15.35,0,0,1-15.33-15.33v-38a15.35,15.35,0,0,1,15.33-15.33H346.48a15.35,15.35,0,0,1,15.33,15.33v38A15.35,15.35,0,0,1,346.48,420.1ZM168.26,353a13.85,13.85,0,0,0-13.84,13.83v38a13.84,13.84,0,0,0,13.84,13.83H346.48a13.84,13.84,0,0,0,13.84-13.83v-38A13.85,13.85,0,0,0,346.48,353Z"/><path class="cls-7" d="M501.41,98.32a5.78,5.78,0,0,0-4.85,6.43,5.36,5.36,0,0,0,.21.9l-16,12.21,3.33,10.31,20.16-19.1a5.74,5.74,0,0,0,3.55-6.07,5.51,5.51,0,0,0-6.21-4.71h0Z"/><path class="cls-8" d="M390.78,154.92h0a9.7,9.7,0,0,0,9.84,9.3l30.28-.46L469.19,146s12.48-10.6,16-10.85,5.33,3,4.54,0-1.83-4.93.84-4.66,2.25-5.18,2.85-7.24-7.55-9.52-7.55-9.52-5.86.12-6.25.89,1,2.71-2.2,2.63-5.56,0-5.65,1.51.13,2.6-1.62,3.74-9.63,7-9.63,7l-62.37,15.61A9.7,9.7,0,0,0,390.78,154.92Z"/><polygon class="cls-7" points="406.99 430.36 415.23 430.36 419.14 398.6 406.99 398.6 406.99 430.36"/><path class="cls-9" d="M404.31,424.72l13.15-.78v5.64L430,438.21a3.52,3.52,0,0,1-2,6.42H412.3l-2.69-5.57-1.06,5.57h-5.9Z"/><polygon class="cls-7" points="420.74 226.88 425.22 199.28 393.89 191.82 393.89 220.42 420.74 226.88"/><path class="cls-9" d="M381.58,253.37l15.32,99.57S396,396.22,403,406.1l1.74,10.64h15.72s-.29-6.53,1.32-10.35,3.85-1.29,1.61-4.8-2.47-3.11-1.61-5.92,1.37-130,1.37-130Z"/><polygon class="cls-7" points="390.91 381.46 395.68 388.17 423.84 372.96 416.79 363.06 390.91 381.46"/><path class="cls-9" d="M394,376l8.26,10.27-4.59,3.27.21,15.19a3.52,3.52,0,0,1-6.39,2.09l-9.08-12.76,3-5.43L380.19,391l-3.43-4.81Z"/><path class="cls-9" d="M392.4,203.76l-.22,11.55s-28.31,24.85-7,55.14c0,0,2.69,8.72,6.42,8.31s5.64,1.68,4.69,3.62S431.68,308,431.68,308s-23.93,52.75-29.59,64.4l3.73,11.94s-2,4.62,1.07,2.87,1.54-2,4.9-2.62,7.5-2.06,7.29-2.84S460.85,316,460.85,316s10-10.7,2.69-23.24c-1-.23-1.05,0-1.05,0l-36-41-4.26-27.12Z"/><path class="cls-8" d="M424.78,129.7l-18.13-8.5-5.43,9.45s-14.58,20.8-14.79,35.81,2.37,19.47,2.37,19.47-6.28,4.7-3.14,7.57,10.1,4.11,4.76,5.36-4,13.85,2,16.09,38,2.22,38,2.22a5.73,5.73,0,0,1,1.41-5.62c2.49-2.5,4.73-.71,2.49-4.59s-6-1.64-3-6.86,3-6.78,3-6.78,7.27-12.53-3.08-24.14-.09-.79-.09-.79l-7.4-24.79Z"/><path class="cls-5" d="M498.23,203H472.32a12.78,12.78,0,0,1-12.78-12.78V164.32a12.78,12.78,0,0,1,12.78-12.78h25.91A12.8,12.8,0,0,1,511,164.32v25.91A12.8,12.8,0,0,1,498.23,203Z"/><path class="cls-5" d="M511.66,104.54H485.75A12.81,12.81,0,0,1,473,91.76V65.85a12.79,12.79,0,0,1,12.79-12.78h25.91a12.79,12.79,0,0,1,12.78,12.78V91.76A12.8,12.8,0,0,1,511.66,104.54Z"/><path id="bbee2bee-8faa-4e0b-8a29-1ed5e19a1a55-776" class="cls-9" d="M441.54,119.82h0a3.16,3.16,0,0,0,2.78-3.52l-2.07-17.6a23.67,23.67,0,0,0-2.94-9,24.05,24.05,0,0,0-14.05-11.15,23.8,23.8,0,0,0-9.46-.81c-13,1.51-17.09,5.16-20.8,26.28s2.08,17.62,2.08,17.62a3.19,3.19,0,0,0,.39,1.21,3.23,3.23,0,0,0,3.16,1.6c15.88.61,31.94,1.39,40.9-4.66Z"/><path id="af2c28ec-c1d2-4535-bf5a-7c25bf61990b-777" class="cls-7" d="M407.27,96.69a17.47,17.47,0,0,0,23,22.63,17.26,17.26,0,0,0,9.34-9.48,17.47,17.47,0,0,0-23-22.62,17.28,17.28,0,0,0-9.36,9.47Z"/><path id="ed097037-2d04-403a-be41-ce5d2710356f-778" class="cls-9" d="M448,99.46a18.81,18.81,0,0,0-2.32-7.09c-1.4-5.69-4.17-10.52-11.11-8.81a18.7,18.7,0,0,0-7.44-.64l-3.52.39-.12,0a18.69,18.69,0,0,0-16.37,20.77h0l0,.36,7.45-.85,1.71-7.4,1.34,7.05,3.85-.44.86-3.73.68,3.56c6.66,3.73,15.21,2.17,25-2.84Z"/><path id="b879d9dd-b2ba-47e8-86a3-e5c83aca3b22-779" class="cls-9" d="M428.15,120.83a3.05,3.05,0,0,1,.07,1.72,3.1,3.1,0,0,1-.32.83,3.92,3.92,0,0,1-.45.62,3.16,3.16,0,0,1-2,1h-.57l-2.7-.17-4.56-7.36.84,7.13-12.28-.74L402.65,93.6l20.17-2.28-.43.64a14,14,0,0,0-2.33,7.19,23,23,0,0,0,1.05,7.68,41.45,41.45,0,0,0,3,7.25,63.39,63.39,0,0,0,3.61,6A2.94,2.94,0,0,1,428.15,120.83Z"/><path class="cls-7" d="M475.63,148.76a5.78,5.78,0,0,0-3.31,7.35,5.18,5.18,0,0,0,.4.82l-13,15.44,5.52,9.33,15.46-23.06a5.77,5.77,0,0,0,2.13-6.71,5.51,5.51,0,0,0-7.1-3.22h0Z"/><path class="cls-8" d="M407.77,145.66h0a10,10,0,0,0-5,13.2,8.82,8.82,0,0,0,.7,1.28l12.41,19.37L445,205.62s23.87-17.16,24.62-23.12-1.5-7.46.74-6,4.48.74,3.73,0-.45-.79.15-1.89,2.84-6.32,2.84-6.32l-7.93-7.83s-8.49,4.1-9.23,6.34,2.24,1.49-.75,2.24-7-2.64-3.86.92,2.86,5.1,0,5.07-8.07,7.44-8.07,7.44l-27.61-34A10,10,0,0,0,407.77,145.66Z"/><path class="cls-3" d="M496.66,426.82a2.66,2.66,0,0,0,1.88-4.63l-.19-.72a7.14,7.14,0,0,1,13.24-.25c3.22,7.34,7.37,14.94,5.42,23.08,13.13-28.52,8.24-63.79-11.79-87.88-5.5-3-10-8.27-11.2-14.48,2.72.89,6.07-1.34,4-4.18-.9-1.08-1.8-2.15-2.69-3.23,10.18-11.06,22.6,6,11.42,20.94a85.35,85.35,0,0,1,9.72,14.88,35.8,35.8,0,0,1,2-16.66c2-5,5.8-9.16,9.14-13.46,4.06-5.25,12.54-2.93,13.16,3.67-3.78,1.28-4.22,6.77.12,7.48a36.69,36.69,0,0,1-19.94,29.15,85.72,85.72,0,0,1,5,35.73c1.81-14.19,17-17.77,27.56-23.5a4.14,4.14,0,0,1,6.35,4.13,24.29,24.29,0,0,0-4.17,2.25,3.61,3.61,0,0,0,1.74,6.58c-5.23,13.31-19,22.35-33.22,22.43a87.66,87.66,0,0,1-5.74,17.31l-21.11.2c-.08-.23-.15-.47-.22-.71a23.87,23.87,0,0,0,5.84-.4c-5.23-6.07-9.26-9.16-6.33-17.73Z"/><path class="cls-6" d="M58.2,445.54a.88.88,0,0,0,.88.89H592.69a.89.89,0,0,0,0-1.78H59.09a.89.89,0,0,0-.89.89Z"/><path class="cls-4" d="M190.94,23.26H170.8a3.73,3.73,0,0,1,0-7.46h20.14a3.73,3.73,0,0,1,0,7.46Z"/><circle class="cls-4" cx="322.98" cy="19.53" r="3.36"/><circle class="cls-4" cx="333.43" cy="19.53" r="3.36"/><circle class="cls-4" cx="343.87" cy="19.53" r="3.36"/><circle class="cls-6" cx="214.44" cy="139.26" r="8.95"/><circle class="cls-6" cx="279.34" cy="366.04" r="8.95"/><path class="cls-4" d="M206.44,261.57H180.53A13.54,13.54,0,0,1,167,248V222.13a13.53,13.53,0,0,1,13.52-13.52h25.91A13.54,13.54,0,0,1,220,222.13V248A13.55,13.55,0,0,1,206.44,261.57ZM180.53,210.1a12,12,0,0,0-12,12V248a12.05,12.05,0,0,0,12,12h25.91a12.05,12.05,0,0,0,12-12V222.13a12.05,12.05,0,0,0-12-12Z"/><path class="cls-4" d="M270.23,262H244.32a13.55,13.55,0,0,1-13.53-13.53V222.51A13.55,13.55,0,0,1,244.32,209h25.91a13.54,13.54,0,0,1,13.52,13.53v25.91A13.54,13.54,0,0,1,270.23,262Zm-25.91-51.48a12.05,12.05,0,0,0-12,12v25.91a12,12,0,0,0,12,12h25.91a12,12,0,0,0,12-12V222.51a12.05,12.05,0,0,0-12-12Z"/><path class="cls-4" d="M334,262.32H308.1a13.55,13.55,0,0,1-13.53-13.53V222.88a13.55,13.55,0,0,1,13.53-13.53H334a13.55,13.55,0,0,1,13.53,13.53v25.91A13.55,13.55,0,0,1,334,262.32ZM308.1,210.84a12.06,12.06,0,0,0-12,12v25.91a12.06,12.06,0,0,0,12,12H334a12.05,12.05,0,0,0,12-12V222.88a12.05,12.05,0,0,0-12-12Z"/><circle class="cls-6" cx="279.34" cy="214.61" r="8.95"/></svg>