<svg id="Layer_1" data-name="Layer 1" xmlns="http://www.w3.org/2000/svg" viewBox="0 0 635 448"><defs><style>.cls-1{fill:#f2f2f2;}.cls-2{fill:#e6e6e6;}.cls-3{fill:#ccc;}.cls-4{fill:#3f3d56;}.cls-5{fill:#fff;}.cls-6{fill:#cacaca;}.cls-7{fill:#f54394;}.cls-8{fill:#12c2e9;}.cls-9{fill:#a0616a;}.cls-10{fill:#2f2e41;}</style></defs><path class="cls-1" d="M89.89,373.64a41.65,41.65,0,0,1,7.72,7.17A43.46,43.46,0,0,1,106.77,416l-8.09-5a26,26,0,0,1-19-12c-6.56-10.63-5.35-25.86-15-33.76a43.2,43.2,0,0,1,20.12,5.1l.59,13.35S88,378.74,89.89,373.64Z"/><path class="cls-1" d="M510.91,372a64.18,64.18,0,0,1-7.69,14.11,66.28,66.28,0,0,1-48.62,26.81l4.27-13.82a39.57,39.57,0,0,1,10.56-32.63c13.23-13.69,36.19-17.64,44.23-34.9a65.84,65.84,0,0,1,.05,31.66l-19.51,5.91S502.63,371.08,510.91,372Z"/><path class="cls-2" d="M153.32,286.79,153.4,276l.2-30.48.07-9.71.11-16.29c0-1.25,0-2.5.15-3.74,0,0,0-.09,0-.13a30.48,30.48,0,0,1,3.2-12.11,11.3,11.3,0,0,1,1.69-2.32,5.33,5.33,0,0,1,1.73-1.2,3.39,3.39,0,0,1,1.4-.3H548.79c3.3,0,6.2,4.79,7.48,11.85a44.4,44.4,0,0,1,.57,4.58c.08,1.12.12,2.25.12,3.37V412.1a1.57,1.57,0,0,1-.16.71c-.34.65-.68,1.29-1,1.92h0l-2-.16h-.09q-1.84-.15-3.69-.33a1.54,1.54,0,0,1-1.38-1.51V229.08c0-4.08-1.36-7.38-3.05-7.39H165.19c-1.68,0-3.05,3.31-3.05,7.39V413.87a1.51,1.51,0,0,1-1.52,1.51h-6.11a1.52,1.52,0,0,1-1.52-1.52Z"/><path class="cls-3" d="M294.15,143.35a2.07,2.07,0,0,0-2.07,2.07v61.23H335V145.42a2.07,2.07,0,0,0-2.06-2.07Zm14.68,30.21V166.5a4.58,4.58,0,1,1,9.15,0v7.06a4.58,4.58,0,1,1-9.15,0Z"/><path class="cls-4" d="M292,204.69v5.91a1.17,1.17,0,0,0,1.16,1.16H334a1.16,1.16,0,0,0,1.16-1.16v-5.91Z"/><path class="cls-2" d="M224.6,53.16V165a5.37,5.37,0,0,0,5.37,5.37H395.66A5.37,5.37,0,0,0,401,165V53.16a5.36,5.36,0,0,0-5.37-5.37H230A5.36,5.36,0,0,0,224.6,53.16Z"/><path class="cls-5" d="M228.48,54.54v109a2.88,2.88,0,0,0,2.87,2.88H394.28a2.88,2.88,0,0,0,2.87-2.88v-109a2.88,2.88,0,0,0-2.87-2.88H231.35A2.88,2.88,0,0,0,228.48,54.54Z"/><path class="cls-3" d="M262.72,213.78a1.79,1.79,0,0,1-1.38-2.12l1.5-7.14a1.82,1.82,0,0,1,1.75-1.42h93.93a1.81,1.81,0,0,1,1.74,1.42l1.51,7.14a2.31,2.31,0,0,1,0,.37,1.77,1.77,0,0,1-1.78,1.78H263.09A2.22,2.22,0,0,1,262.72,213.78Z"/><rect class="cls-2" x="354.84" y="204.39" width="2.99" height="1.79" rx="0.37"/><rect class="cls-2" x="348.87" y="204.39" width="2.99" height="1.79" rx="0.37"/><rect class="cls-2" x="342.9" y="204.39" width="2.99" height="1.79" rx="0.37"/><rect class="cls-2" x="336.93" y="204.39" width="2.99" height="1.79" rx="0.37"/><rect class="cls-2" x="330.96" y="204.39" width="2.99" height="1.79" rx="0.37"/><rect class="cls-2" x="324.99" y="204.39" width="2.99" height="1.79" rx="0.37"/><rect class="cls-2" x="319.02" y="204.39" width="2.99" height="1.79" rx="0.37"/><rect class="cls-2" x="313.05" y="204.39" width="2.99" height="1.79" rx="0.37"/><rect class="cls-2" x="307.07" y="204.39" width="2.99" height="1.79" rx="0.37"/><rect class="cls-2" x="301.1" y="204.39" width="2.99" height="1.79" rx="0.37"/><rect class="cls-2" x="295.13" y="204.39" width="2.99" height="1.79" rx="0.37"/><rect class="cls-2" x="289.16" y="204.39" width="2.99" height="1.79" rx="0.37"/><rect class="cls-2" x="283.19" y="204.39" width="2.99" height="1.79" rx="0.37"/><rect class="cls-2" x="277.22" y="204.39" width="2.99" height="1.79" rx="0.37"/><rect class="cls-2" x="271.25" y="204.39" width="2.99" height="1.79" rx="0.37"/><rect class="cls-2" x="265.28" y="204.39" width="2.99" height="1.79" rx="0.37"/><rect class="cls-2" x="354.91" y="207.38" width="2.99" height="1.79" rx="0.37"/><rect class="cls-2" x="348.94" y="207.38" width="2.99" height="1.79" rx="0.37"/><rect class="cls-2" x="342.97" y="207.38" width="2.99" height="1.79" rx="0.37"/><rect class="cls-2" x="337" y="207.38" width="2.99" height="1.79" rx="0.37"/><rect class="cls-2" x="331.03" y="207.38" width="2.99" height="1.79" rx="0.37"/><rect class="cls-2" x="325.06" y="207.38" width="2.99" height="1.79" rx="0.37"/><rect class="cls-2" x="319.09" y="207.38" width="2.99" height="1.79" rx="0.37"/><rect class="cls-2" x="313.12" y="207.38" width="2.99" height="1.79" rx="0.37"/><rect class="cls-2" x="307.15" y="207.38" width="2.99" height="1.79" rx="0.37"/><rect class="cls-2" x="301.17" y="207.38" width="2.99" height="1.79" rx="0.37"/><rect class="cls-2" x="295.2" y="207.38" width="2.99" height="1.79" rx="0.37"/><rect class="cls-2" x="289.23" y="207.38" width="2.99" height="1.79" rx="0.37"/><rect class="cls-2" x="283.26" y="207.38" width="2.99" height="1.79" rx="0.37"/><rect class="cls-2" x="277.29" y="207.38" width="2.99" height="1.79" rx="0.37"/><rect class="cls-2" x="271.32" y="207.38" width="2.99" height="1.79" rx="0.37"/><rect class="cls-2" x="265.35" y="207.38" width="2.99" height="1.79" rx="0.37"/><rect class="cls-2" x="305.35" y="210.96" width="23.88" height="1.79" rx="0.37"/><path class="cls-6" d="M239,66.09a.59.59,0,0,1,.59-.61H392a.6.6,0,0,1,.6.59.62.62,0,0,1-.6.62H239.54A.61.61,0,0,1,239,66.09Z"/><ellipse class="cls-3" cx="381.62" cy="58.75" rx="3.55" ry="3.63"/><ellipse class="cls-3" cx="369.34" cy="58.75" rx="3.55" ry="3.63"/><ellipse class="cls-3" cx="357.07" cy="58.75" rx="3.55" ry="3.63"/><polygon class="cls-4" points="252.95 43.16 253.44 41.72 316.42 74.44 315.92 75.88 252.95 43.16"/><polygon class="cls-4" points="88.04 103.93 88.53 102.49 126.42 135.04 125.93 136.48 88.04 103.93"/><polygon class="cls-4" points="198.23 142.62 261.2 109.9 261.7 111.34 198.73 144.06 198.23 142.62"/><polygon class="cls-4" points="165.32 120.32 202.24 59.71 203.41 60.69 166.49 121.29 165.32 120.32"/><polygon class="cls-4" points="137.68 40.8 173.63 40.64 173.63 42.16 137.68 42.32 137.68 40.8"/><path class="cls-7" d="M72.55,51.75a9.88,9.88,0,1,1,0-19.76h40.28a9.88,9.88,0,0,1,0,19.76Z"/><path class="cls-7" d="M12.52,99.63a9.87,9.87,0,0,1,9.87-9.88H62.67a9.88,9.88,0,0,1,0,19.76H22.39A9.87,9.87,0,0,1,12.52,99.63Z"/><polygon class="cls-4" points="87.52 148.72 123.48 148.55 123.48 150.07 87.52 150.24 87.52 148.72"/><path class="cls-7" d="M12.52,149.79a9.87,9.87,0,0,1,9.87-9.88H62.67a9.88,9.88,0,0,1,0,19.76H22.39A9.88,9.88,0,0,1,12.52,149.79Z"/><path class="cls-8" d="M130.31,143a9.88,9.88,0,0,1,9.88-9.88h40.28a9.88,9.88,0,0,1,0,19.76H140.19A9.88,9.88,0,0,1,130.31,143Z"/><path class="cls-7" d="M185,41.14a9.88,9.88,0,0,1,9.88-9.88h40.28a9.88,9.88,0,0,1,0,19.76H194.91A9.88,9.88,0,0,1,185,41.14Z"/><path class="cls-4" d="M387.44,220.63a6.08,6.08,0,1,0,0,12.16h16.72v47.12h12.15V232.79H433a6.08,6.08,0,1,0,0-12.16Z"/><path class="cls-4" d="M356.18,306c-11.83-.51-17.18-9.75-17.14-18.12,0-8.59,5.6-18,17.72-18.44,45.09-1.54,69.86-9.58,77.94-25.3,8.35-16.25.2-41.35-26.45-81.38a38.23,38.23,0,0,1-2.17-39.16,37.11,37.11,0,0,1,32.1-20.46q.74,0,1.47,0h75.86c.5,0,1,0,1.48,0,12.43.42,50.55,2.58,58.21,12.54a2.34,2.34,0,0,0,.24.31c9.54,12.37,5.34,25.21-2.83,38.47a356.26,356.26,0,0,0-40.41,93.41l-4.32,15.88A49.26,49.26,0,0,1,479.3,306h-122C357,306,356.56,306,356.18,306Z"/><path class="cls-4" d="M464.66,408.23a6.08,6.08,0,0,0-6.08-6.08H441.87V299.55H429.71v102.6H413a6.08,6.08,0,0,0,0,12.16h45.59A6.08,6.08,0,0,0,464.66,408.23Z"/><polygon class="cls-9" points="400.26 342.16 388.66 348.46 409.46 377.21 417.31 372.94 400.26 342.16"/><path class="cls-8" d="M423.31,383.13l-6.26,2.38L413.69,380l-.62,7-16.6,6.31a4,4,0,0,1-4.71-6l9.78-14.19-2.27-6,14.26-4.46Z"/><path class="cls-9" d="M397.47,83a8.87,8.87,0,0,1,17.62.35l31.18,60.94-9.5,13.25L406.48,93.09a8.78,8.78,0,0,1-9-10.09Z"/><path class="cls-7" d="M447.25,137.66c-.53-9.26-9.32-22.31-20.5-36.45l-9.06,15.32s10.41,41.58,16,44.88,39.63,24.83,52.36,22.62S498,170.57,498,170.57Z"/><path class="cls-9" d="M483.27,209.35l-44.34-8.14c.06,13.28-4.41,30.84-4.41,30.84s42.13,4,44.05,2,2-12.9,2-12.9l2.74-11.81Z"/><path class="cls-10" d="M359.93,259.29c0-.49.06-1,.12-1.48,0,0,0-.08,0-.12a16.63,16.63,0,0,1,18.49-14.54l45.1,5.84,9.1-20.12c14.52-5,30.4-3.43,47.11,2.28,6.36,10.34-.55,16.24,2.53,25.64.13.41.25.82.35,1.24a16.65,16.65,0,0,1-11.9,20.1c-25.75,6.57-55.53,4.83-87.08-.6,14.11,28,26,54.8,25.72,74.58l-15.2,8.36C379.27,340.51,369.05,302,359.93,259.29Z"/><path class="cls-7" d="M489.4,134.55c1.75,1.75.46,7.2,2.89,7.71,1.08.2,2.24,1.36,3.36,2.92a21.66,21.66,0,0,1,3.07,18.22l-15.9,58.43s-2.33,10.23-4.25,12.23c-1,1-11.43-4.79-21.46-10.75-.65-.39-2.15,0-2.8-.4-1.29-.77-1.73-2.31-3-3.06-7.27-4.41-19.07,12.18-19.07,12.18s2.85-30.73,2.87-44,8.1-23.56,8.1-23.56l20.4-16.86,4.91-11.9a3.54,3.54,0,0,1,3.47-2.18l17.38,1Z"/><polygon class="cls-9" points="361.71 368.78 350.88 361.25 334.27 392.6 341.6 397.69 361.71 368.78"/><path class="cls-10" d="M366.4,299.66q-.3-.68-.54-1.38l-.05-.12A16.62,16.62,0,0,1,376,277l43-14.56-1.44-6.56,22.89-24.47c10.25,6.49,27.75,5.14,34.65,12.23.29.31.58.63.85,1,5.85,7.06.71,14.51-6.14,20.31-20.2,17.2-43.33,31.69-74,40.68-11.71,32.43-25.53,61-43.8,81.36L340.5,376.66Z"/><path class="cls-8" d="M334.54,415.23l-5.5-3.82,2.63-5.87L325.55,409,311,398.85a4,4,0,0,1,2.29-7.27l17.23.05,3.65-5.25,11.74,9.25Z"/><path class="cls-9" d="M463.74,281.81a8.88,8.88,0,0,1-8.85-15.25l35.87-58.29L507,209.5l-39.33,59.36a10,10,0,0,1,.73,1.37,8.84,8.84,0,0,1-4.68,11.58Z"/><path class="cls-7" d="M486.36,150.43l-1.77,60.44c-11.64,11.42-20.7,23.23-20.5,36.46l17.8-.22s4.44-4.5,9.91-10.41c1.15-1.24,4.62-1,5.83-2.39s.18-4.23,1.39-5.62c2.09-2.4,4.13-4.81,6-7.09,4-5.06,7-9.45,7-11.48-.08-6.5.63-46.76-7.88-56.49s-17.69-3.2-17.69-3.2Z"/><path class="cls-10" d="M506.62,95.06A16,16,0,0,1,496.21,88a8.85,8.85,0,0,1-1.56-4.55,4.79,4.79,0,0,1,2.1-4.16,5.11,5.11,0,0,1,4.45-.15,15.09,15.09,0,0,1,3.86,2.49l6.29,5c2,1.59,4.19,3.81,3.49,6.26-.57,2-3,3-5,2.69S506,94,504.3,92.83"/><path class="cls-4" d="M456.59,223.67a6.08,6.08,0,1,0,0,12.16h16.72V283h12.16V235.83h16.72a6.08,6.08,0,0,0,0-12.16Z"/><path class="cls-10" d="M511.33,91.31c2.11-2.59,1.67-2.86,5-2.81,4.39.08,7,5.07,7.39,9.44s-.51,9,1.2,13a12.13,12.13,0,0,0,8.41,6.86,14,14,0,0,0,5.69.09,11.85,11.85,0,0,0-.45-4.19,14.44,14.44,0,0,1,2.1,3.78,16,16,0,0,0,3.49-1.53,13.73,13.73,0,0,0,6-7,10,10,0,0,0-1-9c-2.79,3.6-8.41,4-12.45,1.87s-6.75-6.11-8.78-10.19-3.58-8.44-6.16-12.19-6.5-7-11-7.25-9.41,3.32-9.23,7.88"/><path class="cls-10" d="M490.92,84.26c10.92,0,21.28,5,21.28,16s-10.36,23.56-21.28,23.56a19.76,19.76,0,1,1,0-39.52Z"/><circle class="cls-9" cx="484.97" cy="109.23" r="18.85"/><path class="cls-10" d="M479.52,88.06H500.8v9.88h7.6l2.28,4.56c0,12.19,0,25.08-19,24.32,0,0,6.3-6,7.09-10.45a2.81,2.81,0,0,0,1.9-1.23,7.15,7.15,0,0,0,.95-3.08,2.78,2.78,0,0,0,.05-1,1,1,0,0,0-.49-.77,1.47,1.47,0,0,0-1.21.11,6.14,6.14,0,0,0-.88.46,10.68,10.68,0,0,0-1.33-4.61c-5.69,1.9-12.28,1.54-19.33,0a23.31,23.31,0,0,1-1.39-5.82,17.08,17.08,0,0,0-2.36,5.82c-2.18,3.12-7.82,1.53-13.4,0A18.26,18.26,0,0,1,479.52,88.06Z"/><path class="cls-6" d="M287.23,415.6a.9.9,0,0,1,.9-.9l333.45.23h0a.91.91,0,0,1,0,1.81l-333.45-.24A.9.9,0,0,1,287.23,415.6Z"/><path class="cls-6" d="M65.45,416.5a.9.9,0,1,1,0-1.8l172.32.23h0a.91.91,0,1,1,0,1.81L65.46,416.5Z"/><path class="cls-2" d="M270.24,133.46V90.18A10.28,10.28,0,0,1,280.51,79.9h65.33a10.28,10.28,0,0,1,10.27,10.28v43.28a10.29,10.29,0,0,1-10.27,10.28H280.51A10.29,10.29,0,0,1,270.24,133.46Zm10.27-52a8.76,8.76,0,0,0-8.75,8.76v43.28a8.76,8.76,0,0,0,8.75,8.76h65.33a8.76,8.76,0,0,0,8.75-8.76V90.18a8.76,8.76,0,0,0-8.75-8.76Z"/><rect class="cls-2" x="326.48" y="93.58" width="17.47" height="1.52"/><rect class="cls-2" x="305.19" y="99.66" width="38.76" height="1.52"/><rect class="cls-2" x="305.19" y="104.98" width="38.76" height="1.52"/><rect class="cls-2" x="294.55" y="110.3" width="49.4" height="1.52"/><rect class="cls-2" x="318.11" y="115.62" width="25.84" height="1.52"/><rect class="cls-2" x="296.83" y="120.94" width="47.12" height="1.52"/><rect class="cls-2" x="335.59" y="126.26" width="8.36" height="1.52"/><path class="cls-3" d="M344.52,60.87a.32.32,0,0,1-.2-.08.28.28,0,0,1,0-.4l1.43-1.46-1.43-1.46a.28.28,0,0,1,0-.4.3.3,0,0,1,.41,0l1.62,1.66a.28.28,0,0,1,0,.4l-1.62,1.65a.29.29,0,0,1-.21.09Z"/><path class="cls-3" d="M341.8,60.87a.29.29,0,0,1-.21-.09L340,59.13a.28.28,0,0,1,0-.4l1.62-1.66a.3.3,0,0,1,.41,0,.28.28,0,0,1,0,.4l-1.43,1.46L342,60.39a.28.28,0,0,1,0,.4.32.32,0,0,1-.2.08Z"/><path class="cls-3" d="M256.34,57.38v3A.63.63,0,0,0,257,61h3a.62.62,0,0,0,.62-.62v-3a.61.61,0,0,0-.62-.62h-3A.62.62,0,0,0,256.34,57.38Z"/><path class="cls-3" d="M263.73,57.38v3a.62.62,0,0,0,.62.62h3a.62.62,0,0,0,.62-.62v-3a.62.62,0,0,0-.62-.62h-3A.62.62,0,0,0,263.73,57.38Z"/><path class="cls-3" d="M249.38,57.52v3a.62.62,0,0,0,.62.62h3a.62.62,0,0,0,.62-.62v-3a.62.62,0,0,0-.62-.62h-3A.62.62,0,0,0,249.38,57.52Z"/><path class="cls-3" d="M294.69,58.8a.76.76,0,0,0,.76.76h24.1a.76.76,0,1,0,0-1.51h-24.1A.76.76,0,0,0,294.69,58.8Z"/></svg>