<svg id="Layer_1" data-name="Layer 1" xmlns="http://www.w3.org/2000/svg" viewBox="0 0 635 448"><defs><style>.cls-1{fill:#f2f2f2;}.cls-2{fill:#ccc;}.cls-3{fill:#e6e6e6;}.cls-4{fill:#fff;}.cls-5{fill:#f54394;}.cls-6{opacity:0.2;isolation:isolate;}.cls-7{fill:#3f3d56;}.cls-8{fill:#ffb7b7;}.cls-9{fill:#12c2e9;}.cls-10{fill:#2f2e41;}</style></defs><path class="cls-1" d="M511,344l21,3.29a68.91,68.91,0,0,0,14.31-29.81c-15.39,12.59-38.79,5.9-57.44,12.78a41.29,41.29,0,0,0-24.73,25.92l-10.28,11.06a69.25,69.25,0,0,0,57.9-3.18,66.84,66.84,0,0,0,13.63-9.79C518.09,349.62,511,344,511,344Z"/><path class="cls-1" d="M503.55,310.34l20.3-6.44a68.73,68.73,0,0,0-.49-33.06c-8.15,18.13-32.08,22.58-45.71,37.05a41.31,41.31,0,0,0-10.57,34.23l-4.27,14.49a69.29,69.29,0,0,0,50.4-28.68,66.47,66.47,0,0,0,7.84-14.84C512.39,312.23,503.55,310.34,503.55,310.34Z"/><path class="cls-2" d="M546.48,373.94a.82.82,0,0,1-.82.82H78.27a.83.83,0,1,1,0-1.65H545.65a.83.83,0,0,1,.83.82Z"/><circle class="cls-3" cx="271.12" cy="189.47" r="149.25"/><path class="cls-4" d="M399.54,189.47a128.24,128.24,0,0,1-51.83,103.09c-1.08.81-2.18,1.59-3.28,2.36a128.46,128.46,0,0,1-146.62,0c-1.11-.77-2.2-1.55-3.28-2.36a128.43,128.43,0,0,1,0-206.18c1.08-.81,2.17-1.59,3.28-2.35a128.43,128.43,0,0,1,146.62,0c1.1.76,2.2,1.54,3.28,2.35A128.26,128.26,0,0,1,399.54,189.47Z"/><circle class="cls-5" cx="271.12" cy="189.47" r="117.32"/><path class="cls-6" d="M271.42,72.48c-1.77,0-3.54,0-5.3.13a117.31,117.31,0,0,1-5,234.05q5.09.45,10.27.45a117.32,117.32,0,1,0,0-234.63Z"/><path class="cls-4" d="M271.47,63.82a3.83,3.83,0,0,0-3.82,3.82V84.3a3.82,3.82,0,1,0,7.63,0V67.64A3.83,3.83,0,0,0,271.47,63.82Z"/><path class="cls-4" d="M347.71,86.38c-1.08-.81-2.18-1.59-3.28-2.35a3.81,3.81,0,0,0-3.4,1.65l-9.38,13.77a3.82,3.82,0,0,0,6.31,4.3L347.34,90A3.82,3.82,0,0,0,347.71,86.38Z"/><path class="cls-4" d="M390.32,149.15a3.82,3.82,0,0,0-5-2.1h0l-15.43,6.27a3.82,3.82,0,0,0,2.87,7.07h0l15.44-6.27A3.82,3.82,0,0,0,390.32,149.15Z"/><path class="cls-4" d="M210.59,99.45l-9.38-13.77a3.82,3.82,0,0,0-3.4-1.65c-1.11.76-2.2,1.54-3.28,2.35a3.76,3.76,0,0,0,.37,3.6l9.38,13.77a3.82,3.82,0,0,0,6.31-4.3Z"/><path class="cls-4" d="M172.33,153.32l-15.44-6.27a3.82,3.82,0,1,0-2.87,7.07l15.44,6.27a3.82,3.82,0,0,0,2.87-7.07Z"/><path class="cls-4" d="M271.47,290.82a3.82,3.82,0,0,0-3.82,3.82V311.3a3.82,3.82,0,1,0,7.63,0V294.64A3.82,3.82,0,0,0,271.47,290.82Z"/><path class="cls-4" d="M347.34,289,338,275.19a3.82,3.82,0,0,0-6.31,4.3L341,293.26a3.84,3.84,0,0,0,3.4,1.66c1.1-.77,2.2-1.55,3.28-2.36A3.82,3.82,0,0,0,347.34,289Z"/><path class="cls-4" d="M388.22,224.82l-15.44-6.27a3.82,3.82,0,0,0-2.87,7.07h0l15.43,6.27a3.82,3.82,0,1,0,2.88-7.07Z"/><path class="cls-4" d="M209.58,274.19a3.81,3.81,0,0,0-5.3,1L194.9,289a3.76,3.76,0,0,0-.37,3.6c1.08.81,2.17,1.59,3.28,2.36a3.85,3.85,0,0,0,3.4-1.66l9.38-13.77a3.82,3.82,0,0,0-1-5.3Z"/><path class="cls-4" d="M174.43,220.65a3.82,3.82,0,0,0-5-2.1h0L154,224.82a3.82,3.82,0,1,0,2.87,7.07l15.44-6.27A3.82,3.82,0,0,0,174.43,220.65Z"/><path class="cls-7" d="M276.42,187.58a8,8,0,0,1-6.53,9.2l-67.75,11.53a8,8,0,0,1-2.68-15.74l67.75-11.52A8,8,0,0,1,276.42,187.58Z"/><path class="cls-7" d="M347.72,262.64a5.21,5.21,0,0,1-7.36,0l-72.93-72.36a5.2,5.2,0,1,1,7.33-7.39l72.94,72.36A5.21,5.21,0,0,1,347.72,262.64Z"/><circle class="cls-2" cx="271.12" cy="189.47" r="9.02"/><path class="cls-3" d="M209,33c-13.85,21.78-35,36.23-61.05,45.72a4.89,4.89,0,0,1-6.86-1h0c-14.16-18.9-11-45.92,7.72-60.37a43.1,43.1,0,0,1,60.44,7.79c.11.15.23.3.34.46l.39.52A4.9,4.9,0,0,1,209,33Z"/><path class="cls-3" d="M332.68,25.61A43.09,43.09,0,0,1,393,17l.45.34c18.69,14.45,21.89,41.47,7.73,60.37h0a4.89,4.89,0,0,1-6.86,1h0c-24.2-9.26-44-25.29-61.05-45.72a4.9,4.9,0,0,1-1-6.86Z"/><path class="cls-3" d="M326.61,318.77a3.83,3.83,0,0,0-1.46,5.2l22,39.38a3.82,3.82,0,0,0,6.66-3.73l-22-39.38A3.83,3.83,0,0,0,326.61,318.77Z"/><path class="cls-3" d="M210.43,320.24l-22,39.38a3.82,3.82,0,0,0,6.67,3.73l22-39.38a3.82,3.82,0,1,0-6.66-3.73Z"/><circle class="cls-3" cx="351.64" cy="361.63" r="11.8"/><circle class="cls-3" cx="359.97" cy="59.66" r="11.8"/><circle class="cls-3" cx="270.42" cy="31.89" r="11.8"/><circle class="cls-3" cx="185.04" cy="58.27" r="11.8"/><circle class="cls-3" cx="192.68" cy="361.63" r="11.8"/><path class="cls-8" d="M342.39,256a5.9,5.9,0,0,0,8.16,1.8,7.25,7.25,0,0,0,.83-.63l18.51,9.92-1-10.87-17.43-7.76a5.94,5.94,0,0,0-9.08,7.54Z"/><path class="cls-9" d="M355.88,259.8l7.25-10,35,16.52,43.51-8.16A14.9,14.9,0,0,1,459,270a14.66,14.66,0,0,1,.26,2.72h0a14.94,14.94,0,0,1-14.88,14.94l-49.85.09Z"/><polygon class="cls-8" points="344.7 432.8 337.36 429.29 347.44 398.6 358.28 403.79 344.7 432.8"/><path class="cls-8" d="M393.92,427.86l-1.6,1c-1.08.66-2.16,1.3-3.25,1.94l-1.63.95h-.05l-.83.2-1.19-3.15-.55-1.45-.78-2.05-1.42-3.76-7.5-19.8,11.66-2.87.43,1.79h0l.22.88,4.07,16.51.83,3.38,0,.1.51,2,.43,1.75.48,1.95Z"/><path class="cls-10" d="M463.44,358.35q-1.11,1.78-2.25,3.54c-1.41,2.18-2.86,4.32-4.35,6.44h0a15.9,15.9,0,0,1-2.86,2.09l-.14.08a10.38,10.38,0,0,1-2.4,1l-.91.23c-1.09.26-2.17.48-3.24.67-1.91.34-3.8.58-5.68.74l-.45,0c-7.72.57-15.23-.34-23.07-1.84-3.87-.73-7.83-1.61-11.92-2.52l-4-.89-.32-.07c-1.94-.43-3.91-.85-5.93-1.27-2.55-.52-5.18-1-7.91-1.51l.2,3.85a29,29,0,0,0,1.82,8.64c1.17,3.41,2.09,6.11.14,11.72l-.94,2.72a9.25,9.25,0,0,1-.95,8.21l-.19.29,7.83,19.8.5,1.28H379.08L367,397.37l-.58-1.15v-.06l1.25-46.47c0-.41.05-.83.1-1.24a14.1,14.1,0,0,1,5.38-9.51,13.61,13.61,0,0,1,10.13-2.77l4.13.53,8.43,1.09,5.93.77.12,0,17.51,2.27,1.26-5.13.23-.08,7.37-2.71,25.5-9.34.06,0,1.68-.62.2.33a2.75,2.75,0,0,1,.17.29,49.6,49.6,0,0,1,4,9.35,147.65,147.65,0,0,1,4.24,16.16c0,.24.09.45.13.65v.06a1.54,1.54,0,0,1,0,.16A15.06,15.06,0,0,1,463.44,358.35Z"/><path class="cls-10" d="M464.52,341.23c-.08-.35-.18-.7-.29-1a75.63,75.63,0,0,0-3-7.56c-1.27-2.81-2.8-5.81-4.62-9.06-.87-1.58-1.82-3.21-2.83-4.91-.51-.86-1-1.72-1.58-2.61l-.07-.12-.16-.26-25.23,3.38-9.39,1.26L416.8,325l-.14,1.16h0l-.37,3.16h0l-.51,4.17h0l-13.94-1.81-14.37-1.86-7.71-1a13.63,13.63,0,0,0-10.14,2.77,14.15,14.15,0,0,0-5.37,9.52c0,.37-.08.76-.1,1.15l-7.28,17.25a111.15,111.15,0,0,0-8.23,32.38L343.26,409l.76.07,11.32,1.06,3,.28,6.58-9.61c.75-1.09,1.46-2.22,2.13-3.37a51.3,51.3,0,0,0,2.9-5.85l14.24-33.87,3.26.54q7.49,1.21,14.37,2c14.92,1.67,27.84,1.8,39.35.38Q446,360,450.51,359c1.11-.23,2.2-.48,3.28-.75l.75-.18a13.76,13.76,0,0,0,9.62-9A14,14,0,0,0,464.52,341.23Z"/><path class="cls-10" d="M347.05,427.79,339.1,424l-1.24-.59-2,4.88L322,431.33a3.29,3.29,0,0,0-.54,6.27L335,443.14l4.31-3.88-1.06,5.21,5.11,2.08L349,428.72Z"/><polygon class="cls-10" points="395.87 420.27 396.37 421.55 395.87 421.55 395.87 420.27"/><path class="cls-10" d="M393.1,421.82l-8.32,2.89-1.31.45,2,4.87-7.72,12a3.3,3.3,0,0,0,4,4.84l13.55-5.62.33-5.79,2.91,4.44,5.1-2.11-8.57-16.61Z"/><path class="cls-9" d="M462.44,349a3,3,0,0,1-1.41-.35L417.1,325.74l-.51-2.08-.95-6.58V317l4.18-19.26c-.08-.16-.24-.43-.42-.74-1.86-3.16-7.54-12.78,3.29-26l19-22.17,16.32-.7.19.23a42.52,42.52,0,0,1,7.22,39.49l-1.7,30.7,1.83,6.2a17.12,17.12,0,0,1-.5,11.06l.41,10a3.07,3.07,0,0,1-2.94,3.19Z"/><path class="cls-8" d="M424.34,374.35a5.91,5.91,0,0,0,2.09-8.09,5.72,5.72,0,0,0-.61-.85l10.56-18.16-10.9.61L417.12,365a5.94,5.94,0,0,0,7.22,9.34Z"/><path class="cls-9" d="M428.6,361l-9.75-7.6L436.58,319l-6.65-43.76a14.92,14.92,0,0,1,12.5-17,15.64,15.64,0,0,1,2.73-.16h0a14.93,14.93,0,0,1,14.41,15.39l-1.65,49.83Z"/><path id="f4e08e8b-ef08-4d70-8ad3-b81af8a71ff9-659" class="cls-10" d="M431.25,239.62V223.47a21.65,21.65,0,1,1,43.29,0h0v0c3.81,7.94,1.42,11.72,0,16.15a2.92,2.92,0,0,1-2.91,2.9H434.16A2.9,2.9,0,0,1,431.25,239.62Z"/><circle class="cls-8" cx="445.8" cy="225.27" r="16.2" transform="translate(152.02 629.23) rotate(-80.78)"/><path class="cls-10" d="M462.75,229.52l-.44-.08-7.57-1.34-.23-5.71-3.06,5.11c-7,2.31-13.47,1-19.6-1.87a58,58,0,0,1-5.88-3.24,21.51,21.51,0,0,1,10.55-15.2l.69-.36a0,0,0,0,0,0,0h0c.39-.18.79-.36,1.2-.52a17.84,17.84,0,0,1,18.73,3.63C462.09,214.65,464.32,222.45,462.75,229.52Z"/></svg>