<svg id="Layer_1" data-name="Layer 1" xmlns="http://www.w3.org/2000/svg" viewBox="0 0 635 448"><defs><style>.cls-1{fill:#ffb6b6;}.cls-2{fill:#2f2e41;}.cls-3{fill:#fff;}.cls-4{fill:#e6e6e6;}.cls-5{fill:#f54394;}.cls-6{fill:#f2f2f2;}.cls-7{fill:#3f3d56;}.cls-8{fill:#12c2e9;}</style></defs><polygon class="cls-1" points="510.98 396.81 504.63 395.32 508.47 366.05 517.85 368.25 510.98 396.81"/><path class="cls-2" d="M485.91,404.36h0a1.89,1.89,0,0,0,1.19,2.37L499.63,410a11.67,11.67,0,0,1,8.1-5.46l-1.49,7.17,6.46,1.68,2.17-11.6s3.31-5.65.53-9.7,0-2.86,0-2.86l.42-7.42-10.07-1.39-2.94,11.06-7.6,9.76-7.84,1.63a2,2,0,0,0-1.48,1.51Z"/><polygon class="cls-1" points="571.86 389.9 566.07 392.9 549.95 368.18 558.49 363.75 571.86 389.9"/><path class="cls-2" d="M557.73,412h0a1.87,1.87,0,0,0,2.44,1l11.63-5.68a11.7,11.7,0,0,1,2.6-9.42l3.53,6.43,6-2.93L578,391.14s-1.16-6.44-5.91-7.71-1.85-2.18-1.85-2.18l-4.51-5.91-8.54,5.49,4.95,10.32.59,12.35-4.9,6.34a2,2,0,0,0-.14,2.11Z"/><path id="b-876" class="cls-3" d="M232.2,281.2H400.52a3.84,3.84,0,0,0,3.84-3.84V39.18a3.83,3.83,0,0,0-3.84-3.83H232.2a3.83,3.83,0,0,0-3.83,3.83V277.36a3.84,3.84,0,0,0,3.83,3.84Z"/><path class="cls-4" d="M405.08,281.92H227.65V34.63H405.08Zm-176-1.44H403.64V36.06H229.09Z"/><path id="c-877" class="cls-4" d="M365.2,74.24a1.24,1.24,0,0,1,1.24,1.24h0V78a1.23,1.23,0,0,1-1.24,1.24H267.52A1.23,1.23,0,0,1,266.29,78V75.48a1.24,1.24,0,0,1,1.23-1.24H365.2"/><path id="d-878" class="cls-4" d="M365.2,86a1.23,1.23,0,0,1,1.24,1.24h0V89.7a1.24,1.24,0,0,1-1.24,1.24H267.52a1.24,1.24,0,0,1-1.23-1.24V87.23A1.23,1.23,0,0,1,267.52,86H365.2"/><path id="e-879" class="cls-5" d="M365.2,97.74A1.23,1.23,0,0,1,366.44,99h0v2.48a1.23,1.23,0,0,1-1.24,1.23H267.52a1.23,1.23,0,0,1-1.23-1.23V99a1.23,1.23,0,0,1,1.23-1.23H365.2"/><path id="f-880" class="cls-2" d="M545,128.55h32.45a9.39,9.39,0,0,1,.95-4.41,10.79,10.79,0,0,0,1,4.41h1.47a4.08,4.08,0,0,0,4.08-4.08V103.39c0-10.33-8.82-25.8-18.41-19.33-.31,0-5.18-2.17-5.48-2.17-8.44,0-11.34,7.62-13.89,15.67-2.91-1.34-4.91,4.24-6.35,14.07-.43,2.87-.8,6.1-1.14,9.63a5.62,5.62,0,0,0,5.35,7.3Z"/><path id="g-881" class="cls-1" d="M481.32,249.1c-1.6,3.81-.94,7.73,1.49,8.75s5.69-1.23,7.3-5.05A10.35,10.35,0,0,0,491,248l6.61-16.24-7.69-2.94-5.7,16.32a10.35,10.35,0,0,0-2.86,4Z"/><path id="h-882" class="cls-5" d="M552.42,121.42l15.51,3.24-2.38,7.14,4.75,54.58L562.38,204,514,200,525.9,176.2s-4.76-19.82,1.59-23.79,16.65-23.79,16.65-23.79l8.28-7.2Z"/><path id="i-883" class="cls-2" d="M566.87,127.82l13.74,5.56-4.75,69.78,10.3,60.26L552.86,269s4-133.21,6.34-135.59a53,53,0,0,1,7.67-5.57Z"/><path id="j-884" class="cls-2" d="M540,136.52s-8.94-5.66-13.77-1.47-42,105.43-42,105.43l10,4.35,23-48.23Z"/><path id="k-885" class="cls-2" d="M514.36,307.09l-9.07,69.72,12.68.79s6.6-18,14.13-39.2c1.6-4.49,3.24-9.13,4.86-13.78,1.76-5,3.52-10.08,5.18-14.95,4.12-12,7.72-22.93,9.79-30.07.35-1.25.67-2.39.93-3.39,5.55-21.31,8.72-77,8.72-77l-46-4-.49.62-9.81,12.26.46,2.59L518,279.29l-3.61,27.8Z"/><path id="l-886" class="cls-2" d="M518,279.28l-3.61,27.81,16.26,28.63,1.47,2.68,22.39,40.7,11.07-6.28s-14.4-33.07-23.41-63.15c-1-3.31-1.93-6.58-2.76-9.77-2.45-9.33,1.56-26.37,0-31.06C534.07,253,516.78,221.3,508.76,207l-3,3.75L518,279.28Z"/><path id="m-887" class="cls-2" d="M544.34,128l-16.06,6.16-42,122.9,25.37,4,11.89-71.37Z"/><path id="n-888" class="cls-1" d="M584.49,260.69c.41,4.12,2.87,7.24,5.49,7s4.41-3.81,4-7.93a10.36,10.36,0,0,0-1.55-4.63l-1.95-17.43-8.16,1.09,2.79,17.06a10.45,10.45,0,0,0-.62,4.86Z"/><path id="o-889" class="cls-2" d="M575.06,133.38s10.31-2.38,13.48,3.18,4.76,113.38,4.76,113.38l-10.91.8-5.74-53.13-1.59-64.22Z"/><circle id="p" class="cls-1" cx="561.91" cy="103.01" r="16.48"/><path id="q-890" class="cls-2" d="M568.52,128.55h8.14a.78.78,0,0,0,.79-.73v0a.79.79,0,0,1,1.53-.2,10.33,10.33,0,0,0,.39,1h.8V103.14a7.89,7.89,0,0,0-7.89-7.89h0a7.9,7.9,0,0,0-7.72,6.24s-5.53,6.78-2.27,10.6-1.48,6.92-1.48,6.92a7.88,7.88,0,0,0,7.71,9.54Z"/><path id="r-891" class="cls-6" d="M298.64,158.15a3.82,3.82,0,0,0,.93-5.45l-6-8.24a4.32,4.32,0,0,0-6-1,4.72,4.72,0,0,0-.48.41c-10.14,5.42-15.59,13.33-9.53,22.69a31.57,31.57,0,0,0,.34,4.66,4.57,4.57,0,0,0,.71,1.89,4.29,4.29,0,0,0,4.9,1.69l9.79-3.18a3.84,3.84,0,0,0,2.44-5,7,7,0,0,1,2.9-8.52Z"/><path id="s-892" class="cls-4" d="M321.87,182.45a4.83,4.83,0,0,0-5.22,4.87v8.44a4.89,4.89,0,0,0,.05.66,4.3,4.3,0,0,0,4.92,3.6c13.71,1.69,23.09-4.27,23.65-17.36a3.57,3.57,0,0,0,.23-.57,4.31,4.31,0,0,0-2.77-5.42L334.54,174a4.85,4.85,0,0,0-6.27,3.85c-.44,2.65-2.19,5-6.4,4.59Z"/><path id="t-893" class="cls-7" d="M271.2,190.7C274,207.59,288.86,214,304.31,215a7,7,0,0,0,.92.07,6,6,0,0,0,6-6V194.93a7.13,7.13,0,0,0-7.18-7.07c-3.82,0-6.31-1.84-7.33-5.16a7.17,7.17,0,0,0-9.1-4.56l-12.89,4.18a6.06,6.06,0,0,0-3.7,3.41A6,6,0,0,0,271.2,190.7Z"/><path id="u-894" class="cls-5" d="M350.6,132.32a6,6,0,0,0-8.52.09,6.19,6.19,0,0,0-.58.67l-11.45,15.77a3.86,3.86,0,0,0,1.66,5.81c5.36,2.3,4.8,7.48,3.05,10.64a2.8,2.8,0,0,0,1.54,4l19.3,6.27a6,6,0,0,0,7.6-3.89,5.58,5.58,0,0,0,.23-1,45.17,45.17,0,0,0,.5-6.67c3.26-12.18-1.25-23.65-13.33-31.75Z"/><path id="v-895" class="cls-4" d="M317.46,150.6a4.83,4.83,0,0,0,6.28-1.37l3.84-5.28a4.31,4.31,0,0,0,.7-3.55,4.22,4.22,0,0,0-2.19-2.8c-9-8.16-19.71-8.66-28.77,0a4.34,4.34,0,0,0-2.27,2.86,4.27,4.27,0,0,0,.7,3.53l4.48,6.17a4.8,4.8,0,0,0,6.65,1.14,10.27,10.27,0,0,1,10.58-.66Z"/><rect id="w" class="cls-4" x="10.4" y="412.12" width="610.79" height="1.21"/><path id="x-896" class="cls-7" d="M266.91,257c.35-1.46,2-1.94,3.29-1.88a13.19,13.19,0,0,1,2.48.39c.85.19,1.69.41,2.52.65,1.54.44,3.06,1,4.62,1.31a8,8,0,0,0,4,.06,3.8,3.8,0,0,0,2.64-2.59,2.6,2.6,0,0,0-1.29-3.09,2.17,2.17,0,0,0-2.93.85l0,.05a3.23,3.23,0,0,0,.94,3.61,10.36,10.36,0,0,0,1.76,1.34,6.27,6.27,0,0,0,2.11.94,3.05,3.05,0,0,0,3.34-1.3,2.37,2.37,0,0,0,.25-.86c0-.41-.61-.41-.64,0-.11,1.17-1.49,1.72-2.52,1.59a5.06,5.06,0,0,1-1.94-.75,13.1,13.1,0,0,1-1.62-1.14c-.87-.76-1.69-2-1.1-3.18a1.61,1.61,0,0,1,2.2-.54,1.86,1.86,0,0,1,.28.21,2.27,2.27,0,0,1,.15,3,3.77,3.77,0,0,1-3,1.44,12,12,0,0,1-3.66-.57c-1.47-.42-2.93-.89-4.42-1.28-.84-.23-1.68-.43-2.54-.59a8.9,8.9,0,0,0-2.47-.17,3.37,3.37,0,0,0-3,2.33C266.2,257.2,266.82,257.37,266.91,257Z"/><path id="y-897" class="cls-4" d="M292.26,240.28c.19,0,.35.56.35,1.24V244c0,.68-.16,1.24-.35,1.24H264.65c-.19,0-.35-.56-.35-1.24v-2.47c0-.68.16-1.24.35-1.24h27.61"/><path id="a_-898" data-name="a`-898" class="cls-4" d="M366.09,240.28c.19,0,.35.56.35,1.24V244c0,.68-.16,1.24-.35,1.24H338.48c-.19,0-.35-.56-.35-1.24v-2.47c0-.68.16-1.24.35-1.24h27.61"/><path id="aa-899" class="cls-5" d="M353.8,254.21,348.32,256l-2.74.91a6.13,6.13,0,0,1-2.67.49,1.81,1.81,0,0,1-1.53-1.09,1.56,1.56,0,0,1,.68-1.6c1.3-1,3,0,3.88,1,1.14,1.26,1.78,2.89,2.84,4.21a10.27,10.27,0,0,0,3.51,2.8,8.18,8.18,0,0,0,8.44-.72c2.89-2.23,3.19-6.09,3.2-9.46a.58.58,0,0,0-.6-.57.59.59,0,0,0-.57.57c0,3.05-.19,6.79-3,8.71a7.3,7.3,0,0,1-8.63-.61,14.1,14.1,0,0,1-3.11-4,7.21,7.21,0,0,0-3.62-3.38,3.27,3.27,0,0,0-3.9,1.36,2.53,2.53,0,0,0,1.15,3.55c1.91.91,4.1-.16,5.95-.77l6.48-2.14c.71-.24.41-1.37-.31-1.13Z"/><path class="cls-4" d="M110.27,390.61a.34.34,0,0,0-.17-.09,2.43,2.43,0,0,0-2.13,1.25l-9.62,17.88a2.5,2.5,0,0,0-.33,1.24,2.39,2.39,0,0,0,.35,1.23c.45.77,21.71,1.05,21.71,1.05.9,0,3.35-11-9.81-22.56Z"/><polygon class="cls-1" points="73.47 408.84 80.78 408.77 84.01 380.56 73.22 380.65 73.47 408.84"/><path class="cls-2" d="M98.5,408.45h0a6,6,0,0,1,.37,2.07h0a2.48,2.48,0,0,1-2.46,2.5l-22.63.2a1.69,1.69,0,0,1-1.7-1.68v-.94s-1.15-2.83,1.13-6.34c0,0,2.89,2.71,7.13-1.61l1.24-2.29,9.2,6.6,5.07.58c1.11.12,2.09,0,2.66.91Z"/><polygon class="cls-1" points="101.27 384.48 108.21 386.76 120.31 361.06 110.06 357.7 101.27 384.48"/><path class="cls-2" d="M125.11,392.13h0a6.39,6.39,0,0,1-.32,2.07h0a2.49,2.49,0,0,1-3.13,1.59l-21.5-7.07a1.69,1.69,0,0,1-1.08-2.13l.3-.9s-.18-3,3.1-5.63c0,0,1.86,3.49,7.27.76l1.91-1.78,6.6,9.2,4.61,2.17c1,.48,2,.63,2.24,1.72Z"/><polygon class="cls-2" points="111.07 220.88 125.67 267.69 142.79 309.76 116.84 370.29 102.41 364.67 115.33 312.28 93.25 273.16 82.81 390.59 70.11 389.07 53.61 248.4 56.2 217.81 111.07 220.88"/><path id="ab-900" class="cls-8" d="M96.14,114.3l-15.78-3.81L76,120.83s-21.31,3.6-22.4,19.91c0,0-4.25,21.42-1.53,27.41s9.42,27.14,9.42,27.14-10.61,26.36-7.89,28,61,7.57,61,4.31.67-42,.67-42L113,126.81l-14.68-5.44-2.17-7.07Z"/><circle class="cls-1" cx="93.47" cy="95.77" r="15.9"/><path class="cls-2" d="M82.94,98.14c1.27.69.07,4,.86,4.29S88.06,99,88.1,94.7a14.1,14.1,0,0,1,0-3.44c.37-2,1.51-4.35,2.57-4.29.63,0,1.25.92,1.29,1.72.07,1.11-1,1.55-.86,2.14.3,1.14,4.83,1.93,6.45,0,1.26-1.51.29-4.16.86-4.29.41-.1.86,1.36,2.57,3,.65.62,1.61,1.54,2.15,1.28.79-.37.22-3,.43-3s.29,1.8,1.29,3.43c1.28,2.11,3.92,3.72,5.16,3,.75-.44.81-1.65.86-2.58.09-1.94,2.92-6.42,2.19-8.5-1.5-4.24-4-1.25-5.2-2.67-1.56-1.91-3-.88-5.59-3s-2.58-4.16-4.29-4.3c-1.55-.12-2.09,1.52-3.87,1.29-1.5-.2-1.83-1.48-3-1.29s-1.14,1.3-2.57,1.72c-.92.27-1.12-.12-2.15,0a6.18,6.18,0,0,0-3.87,2.58c-1,1.41-.64,2-1.72,3.43-.93,1.23-3,.71-3.77,1.33-2.54,2-3.63,5.7-3.65,9.91,0,3,.37,4.44,1.23,8.16.65,2.82,3.67,6.47,5.33,8.1.45.43,1.7,1.66,2.58,1.29s.86-1.94.86-2.15c0-.72-.19-1.61-1.72-3.87s-2.24-2.64-2.15-3.43c.18-1.41,2.43-2.71,3.44-2.15Z"/><path class="cls-8" d="M38,256.69c-.55,4.62,1.38,8.65,4.32,9s5.78-3.11,6.33-7.73a11.65,11.65,0,0,0-.58-5.47l2.1-19.62-9.22-.78-1.09,19.42A11.5,11.5,0,0,0,38,256.69Z"/><path class="cls-8" d="M64.56,126.43s-4.78.06-8,6.24C54.93,136,44,194.81,44,194.81l-3.08,18.62,1.58,3.08a15.6,15.6,0,0,0-1.89,13h0l-3,18.18,14.12.08,11-47.65L72,172.48l-7.44-46Z"/><path class="cls-8" d="M136.69,256c.55,4.62-1.39,8.65-4.33,9s-5.77-3.1-6.33-7.73a11.78,11.78,0,0,1,.58-5.47l-2.1-19.61,9.23-.79,1.09,19.42A11.74,11.74,0,0,1,136.69,256Z"/><path class="cls-8" d="M110.12,125.71s4.78.06,7.95,6.24c1.68,3.29,12.62,62.15,12.62,62.15l3.07,18.61-1.58,3.08a15.56,15.56,0,0,1,1.89,13h0l3,18.19L123,247l-11-47.64-9.27-27.64,7.45-46Z"/><path class="cls-2" d="M542.09,100.56c.59,1,3.7-2.55,8.48-2.94,1.21-.1,4,4.56,7.1,4.63,2.09,0,3.37,0,5.94,0,3,0,3.86-.1,4.45-.84,1.13-1.44.2-4,.74-4.21s1.62,1.4,2.22,3.36c1.26,4.12-3.26,9.85-3.71,15.16-.47,5.72,4.2-5.24,3.71,0-.55,5.89-2.51,5.45-2.49,7.58a1.45,1.45,0,0,0,.27.84c.15.22.31.3,3,.84,3.18.65,4.77,1,5.2.84,1.09-.32,2.19-2.09,3-3.37,1.28-2.08.37,0,0-2.52s-1.46-2.78-1.48-5.05c0-2.87,1.74-3.73,3-6.74,2.26-5.56.05-12-.74-14.31A40.88,40.88,0,0,0,578.38,89a14.35,14.35,0,0,0-3.84-4.75,17.89,17.89,0,0,0-8.06-3.62,11.35,11.35,0,0,0-4.88.3L557.47,82a12.72,12.72,0,0,0-4.82,2.53h0a3.26,3.26,0,0,0-3,2.43c0,.15-.09.23-.12.22-7.46-2.64-7.45,5.19-7.37,10.08a8.46,8.46,0,0,1-.06,1.3v0a4,4,0,0,0,0,1.94Z"/><rect class="cls-7" x="366.78" y="143.81" width="78.45" height="1.44"/><path class="cls-7" d="M461,153.84a10.05,10.05,0,1,1,10-10.05A10.06,10.06,0,0,1,461,153.84Zm0-18.66a8.61,8.61,0,1,0,8.61,8.61A8.63,8.63,0,0,0,461,135.18Z"/><circle class="cls-5" cx="461.02" cy="143.79" r="5.02"/><rect class="cls-7" x="187.57" y="196.92" width="78.45" height="1.44"/><path class="cls-7" d="M161.73,196.9a10.05,10.05,0,1,1,10.05,10A10.06,10.06,0,0,1,161.73,196.9Zm1.44,0a8.61,8.61,0,1,0,8.61-8.61A8.62,8.62,0,0,0,163.17,196.9Z"/><circle class="cls-5" cx="171.78" cy="196.9" r="5.02"/></svg>