<svg id="Layer_1" data-name="Layer 1" xmlns="http://www.w3.org/2000/svg" viewBox="0 0 635 448"><defs><style>.cls-1{fill:#e6e6e6;}.cls-2{fill:#3f3d56;}.cls-3{fill:#ccc;}.cls-4{fill:#f54394;}.cls-5{fill:#f2f2f2;}.cls-6{fill:#ff6584;}.cls-7{fill:#a0616a;}.cls-8{fill:#2f2e41;}.cls-9{opacity:0.17;isolation:isolate;}</style></defs><path class="cls-1" d="M385,249.84a4,4,0,0,1,4,4v39H466.3a4,4,0,0,1,0,8.06H389V435.66H381V253.87A4,4,0,0,1,385,249.84Z"/><path class="cls-2" d="M170,434.75l-14.53.4a10.13,10.13,0,0,1-6.21-1.74,4.36,4.36,0,0,1-2-4.35l2.86-14.37c.54-2.71,3.86-4.76,7.9-4.87l8-.22c4-.11,7.46,1.75,8.15,4.43l3.65,14.18a4.38,4.38,0,0,1-1.74,4.46A10.15,10.15,0,0,1,170,434.75Z"/><path class="cls-2" d="M258.32,434.34l-14.53.4a10.15,10.15,0,0,1-6.21-1.74,4.38,4.38,0,0,1-2-4.36l2.86-14.36c.54-2.71,3.86-4.76,7.9-4.87l8-.22c4-.11,7.47,1.75,8.15,4.42l3.65,14.19a4.38,4.38,0,0,1-1.74,4.46A10.15,10.15,0,0,1,258.32,434.34Z"/><path class="cls-2" d="M119.53,312.39a3.18,3.18,0,0,1,1.17-6.09l165.13-4.56a3.17,3.17,0,0,1,3.26,3.08h0a3.17,3.17,0,0,1-3.08,3.26h0l-165.14,4.56A3.08,3.08,0,0,1,119.53,312.39Z"/><rect class="cls-1" x="135.46" y="258.34" width="47.22" height="159.43" transform="translate(-9.27 4.52) rotate(-1.58)"/><polygon class="cls-3" points="181.67 254.85 172.6 279.57 172.6 392.19 183.66 395.36 181.67 254.85"/><path class="cls-2" d="M156.62,216.07c-8.83.25-15.56,15.53-15.4,21.49l.3,10.8,32-.88-.3-10.8C173,230.72,165.46,215.83,156.62,216.07Z"/><path class="cls-2" d="M133.88,325a6.22,6.22,0,0,1-6.39-6L127,301.4a6.23,6.23,0,0,1,12.45-.35l.48,17.58A6.23,6.23,0,0,1,133.88,325Z"/><polyline class="cls-2" points="145.86 259.4 145.64 247.79 148.68 247.71 148.91 259.29 151.66 428 148.62 428.08"/><path class="cls-1" d="M185.89,286.55l-54.75,1.52c-5.22-6.38-5.7-33.54,5.21-38.71l4.28-7.27,33-1.61,3.86,7.65C182.91,252.75,185.7,279.74,185.89,286.55Z"/><path class="cls-4" d="M165.28,273.53l-13.84.38c-2.67.07-4.94-3.39-5.06-7.73s2-7.91,4.62-8l13.85-.38c2.67-.07,4.94,3.39,5.06,7.72S168,273.45,165.28,273.53Z"/><polygon class="cls-1" points="138.47 351.89 109.94 372.05 104.95 417.5 138.24 406.37 138.47 351.89"/><rect class="cls-1" x="226.58" y="256.39" width="47.22" height="159.43" transform="translate(-9.18 7.03) rotate(-1.58)"/><polygon class="cls-3" points="225.52 255.39 235.23 279.86 238.15 392.44 227.18 395.9 225.52 255.39"/><ellipse class="cls-1" cx="295.2" cy="203.22" rx="6.19" ry="8.3"/><path class="cls-2" d="M246.82,214.14c-8.83.25-15.56,15.53-15.4,21.5l.3,10.8,32-.89-.3-10.79C263.23,228.79,255.66,213.9,246.82,214.14Z"/><polyline class="cls-2" points="255.97 263.03 255.74 251.42 258.79 251.34 259.01 262.92 261.77 431.63 258.73 431.72"/><path class="cls-1" d="M276.09,284.63l-54.75,1.51c-1-5.77.29-32.69,5.21-38.71l4.28-7.27,33-1.61,3.86,7.65C277.42,247,280.83,273.45,276.09,284.63Z"/><path class="cls-4" d="M255.55,274l-13.84.38c-2.68.07-5-3.94-5.1-8.94s1.92-9.13,4.59-9.2l13.85-.39c2.67-.07,5,3.94,5.09,8.94S258.22,274,255.55,274Z"/><polygon class="cls-1" points="273.93 340.24 301.51 361.68 304.42 407.31 271.67 394.68 273.93 340.24"/><path class="cls-5" d="M266.22,128.91c-29.6,0-63.61-32.85-93.71-17.24C81.38,158.92,93.93,79.85,67.75,50.44l.86-1.72c19.82,75.6,37.75,196.07,104.3,60.94,16.66-33.85,71.37,18.47,103.58,16.93l.05,2.07Q271.44,128.92,266.22,128.91Z"/><path class="cls-5" d="M337.27,133.56c-23.6,17.87-70.55,12.22-85.12,42.83C208,269.08,170.3,198.47,131.68,190.84l-.36-1.89c38.67,3.2,80.14-1.77,119.94-14.39,36-11.41,68.05-28.38,92.79-49l1.3,1.62Q341.42,130.4,337.27,133.56Z"/><ellipse class="cls-1" cx="80.6" cy="121.19" rx="6.19" ry="8.3"/><ellipse class="cls-1" cx="272.5" cy="53.81" rx="6.19" ry="8.3"/><path class="cls-1" d="M137.24,163c-2.82,1.89-5.72-2.6-2.84-4.4S140.13,161.17,137.24,163Z"/><path class="cls-1" d="M242,15.75c-2.83,1.89-5.72-2.6-2.84-4.4S244.86,14,242,15.75Z"/><polygon class="cls-1" points="303.71 103.04 301.91 102.64 302.3 100.84 301.1 100.58 300.71 102.38 298.91 101.99 298.65 103.19 300.45 103.58 300.05 105.38 301.25 105.64 301.65 103.84 303.45 104.24 303.71 103.04"/><circle class="cls-6" cx="138.76" cy="34.88" r="7.84"/><path class="cls-2" d="M196.09,25c-8.83.25-15.57,15.54-15.41,21.5l.3,10.8,32-.88-.3-10.8C212.49,39.6,204.92,24.72,196.09,25Z"/><path class="cls-2" d="M215.13,433.81l-14.52.4a10.18,10.18,0,0,1-6.22-1.74,4.36,4.36,0,0,1-2-4.36l2.86-14.36c.53-2.71,3.86-4.76,7.89-4.87l8-.22c4-.11,7.47,1.75,8.16,4.42L223,427.27a4.34,4.34,0,0,1-1.74,4.45A10.08,10.08,0,0,1,215.13,433.81Z"/><rect class="cls-1" x="178.84" y="94.28" width="47.22" height="322.28" transform="translate(-6.97 5.69) rotate(-1.58)"/><polyline class="cls-2" points="202.72 249.63 202.5 238.02 205.54 237.94 205.77 249.52 208.53 418.23 205.48 418.31"/><path class="cls-1" d="M230.9,123.17l-64,1.77c-1.11-6.74.33-38.2,6.09-45.23l1.58-8.4,44.16-1.21,2.31,8.18C227.42,83.67,230.69,115.21,230.9,123.17Z"/><path class="cls-1" d="M220.17,71.09l-45.58,1.25c-1.68,0-3.07-.83-3.1-2a1.59,1.59,0,0,1,.07-.48l7.08-21.81a3.06,3.06,0,0,1,2.92-1.66l30.22-.83a3.07,3.07,0,0,1,3,1.49l8.27,21.39c.42,1.09-.56,2.23-2.19,2.54A5.56,5.56,0,0,1,220.17,71.09Z"/><path class="cls-2" d="M179.09,248.15a5.83,5.83,0,0,1-1.16-.67,4.11,4.11,0,0,1-1.74-3.17l-1.66-60c-.07-2.49,2.36-4.58,5.42-4.66l40.8-1.13c3.05-.08,5.6,1.87,5.66,4.35l1.66,60a4.13,4.13,0,0,1-1.56,3.26,6.24,6.24,0,0,1-3.86,1.4l-40.8,1.12A6.39,6.39,0,0,1,179.09,248.15Z"/><path class="cls-4" d="M205.2,67.23l-13.84.38c-2.67.07-4.93-3-5-6.73s2-6.92,4.66-7l13.84-.38c2.67-.08,4.93,2.94,5,6.72S207.87,67.15,205.2,67.23Z"/><path class="cls-1" d="M532.42,422.91H516.3V305.81c13.48-1,23.61-5.09,23.61-10,0-5.66-13.28-10.25-29.66-10.25s-29.67,4.59-29.67,10.25c0,5,10.33,9.15,24,10.07V422.91H488.47a5.86,5.86,0,0,0,0,11.72h43.95a5.86,5.86,0,1,0,0-11.72Z"/><polygon class="cls-7" points="500.07 363.46 494.78 369.23 470.01 351.56 477.82 343.05 500.07 363.46"/><path class="cls-8" d="M486.54,378.68a9.76,9.76,0,0,0,3.17,6.82l.24.22,6.94-7.57,10.12-11-7.47-6.86-1.35,1.47-.14.16-6.73,3.18-1.42.67-.25.12-.53,5.76h0A9.71,9.71,0,0,0,486.54,378.68Z"/><polygon class="cls-7" points="527.49 421 520 423.28 507.66 395.47 518.72 392.11 527.49 421"/><path class="cls-8" d="M507.36,434.71l.09.31,24.16-7.34-3-9.7-1.91.58-.2.06-9-.83-.26,0-3.4,4.69a9.83,9.83,0,0,0-6.55,12.25Z"/><path id="ad16ec3e-8c70-4d69-a6df-f9bf45b483f6-948" class="cls-8" d="M465.73,275.4s-47.83,46.17-17.59,60.46h9.34a61.85,61.85,0,0,1,9.24-18.39c.88-1.15,4.19-.92,5.11-2,5.61-6.88,11.69-12.78,15.88-12.55l-1,31.91-1.63,11.38c-.85,5.88,23.24,57.24,23.24,57.24l15.14-6s-15.77-42.3-16-48.4L520.15,282Z"/><path class="cls-4" d="M461.74,277.68a2.89,2.89,0,0,0,.93.84,6.81,6.81,0,0,0,2,.73c10.77,2.44,45.94,7.51,55.07,5.09,1.12-.29,1.85-.7,2.09-1.25.77-1.71.67-8.94.22-17.68-.08-1.63-1.89-3.41-2-5.12-.08-1.28,1.54-2.49,1.45-3.8-.59-8.83-1.36-17.83-1.88-23.52-.32-3.66-.54-5.95-.54-5.95l5.55-35-.26-.43-.29-.14-17.91-8.87-1-2.49a3.86,3.86,0,0,0-3.57-2.45l-11.8,0a3.8,3.8,0,0,0-3.13,1.59l-3.2,4.43-21.14,13.54.09.25,9.91,30.18.05,2.35h0l.37,18.91-1,2.56,1.15,4.21a19.1,19.1,0,0,1-3.38,8.57c-2.58,3.31-5.86,6.77-7.34,9.58h0C461.32,275.31,461.05,276.66,461.74,277.68Z"/><path id="ef5568b9-6037-4ec0-9cfc-fa22633e4b80-949" class="cls-8" d="M445.84,333.12l2.56,3.23s23.51,16.45,24.31,18l3.72,3.51,9-9.61-4.68-5.86a36.7,36.7,0,0,0-14.07-10.78h0l-7.17-6.35Z"/><path class="cls-7" d="M530.52,288.58l-4.28-41.44-1.13-17,12-2.17s-.48,12.2,1.09,19.08.21,40.67.11,41.58a5.83,5.83,0,1,1-8.23.46C530.21,288.88,530.36,288.73,530.52,288.58Z"/><path class="cls-4" d="M516.25,225.83l3.34,7.14,1.17,2.49,3.14,16.43,1.56,1.66,1.35,5.37.63-.13,11.44-2.37,3.33-.69a6.32,6.32,0,0,0-1.15-7.92c-.23-.21-.41-.41-.41-.6.19-11.43-.51-32.3-6.82-40.89-2-2.72-3.21-5.44-5-7.33h0l-4.26-7-.26-.43-.29-.14Z"/><circle id="af7fa85c-211d-4c02-a612-cf38cfa53f1c" class="cls-7" cx="496.61" cy="158.94" r="15.7"/><path class="cls-8" d="M515.25,155.57c.46-2.64.82-6.06-.5-9.1-1.11-2.56-3.89-5-7-4.63a3.24,3.24,0,0,0-1-3.23,8.44,8.44,0,0,0-3.44-1.61,33.16,33.16,0,0,0-9-1.76,11.22,11.22,0,0,0-8.48,3.29l-.05.07L485.2,140a1.39,1.39,0,0,1-.85.78,1.36,1.36,0,0,1-1.13-.14,1.24,1.24,0,0,0-1.89,1l0,.58-.82-.33a1.24,1.24,0,0,0-1.61.69,1.18,1.18,0,0,0-.07.67l.11.69a1.29,1.29,0,0,0-1,.23,1.22,1.22,0,0,0-.44,1.36,11.5,11.5,0,0,0,3.14,4.69,9.61,9.61,0,0,0,2.13,1.44,4.52,4.52,0,0,0,.5.23A55.82,55.82,0,0,0,503,156.32a11.38,11.38,0,0,0-1.22,3.93,4.3,4.3,0,0,0,1.84,4.06,5.43,5.43,0,0,0,.88.41,4.56,4.56,0,0,1,.84.39,2.64,2.64,0,0,1,.9,3.62,2.68,2.68,0,0,1-1,1s1.16,1.43,1.35,1.4a3.59,3.59,0,0,0,1.92-1.14C511.89,166.64,514.17,161.81,515.25,155.57Z"/><path class="cls-5" d="M584,398.2l.68-15.34A49.57,49.57,0,0,1,607.76,377c-11.1,9.07-9.71,26.57-17.23,38.77a29.83,29.83,0,0,1-21.86,13.77l-9.28,5.68a49.92,49.92,0,0,1,10.52-40.46,48.75,48.75,0,0,1,8.86-8.24C581,392.4,584,398.2,584,398.2Z"/><path class="cls-3" d="M630.67,436a1.13,1.13,0,0,1-1.13,1.14H5.47a1.14,1.14,0,1,1,0-2.27H629.53a1.12,1.12,0,0,1,1.14,1.13Z"/><path class="cls-2" d="M272.76,321.13a6.24,6.24,0,0,1-6.39-6.05l-.49-17.57a6.23,6.23,0,0,1,12.45-.35l.48,17.57A6.22,6.22,0,0,1,272.76,321.13Z"/><path class="cls-3" d="M547.32,385.35q-14.19,0-31.1-1.07C457.91,380.57,382.38,367.7,303.54,348S152,304.23,98.77,280.11C72.84,268.35,53,257.23,39.63,247c-14.09-10.79-20.26-20.19-18.32-27.94,3.77-15.11,37.15-18.42,64.5-18.53v2.2c-37.55.15-59.71,6.14-62.38,16.86-3.41,13.65,24.38,35,76.23,58.48,53.1,24.07,125.69,48.14,204.4,67.79s154.11,32.49,212.29,36.18c56.82,3.61,91.37-2.15,94.77-15.8,2.83-11.34-15.82-28-52.5-47l1-1.95c26.65,13.79,57.6,33.58,53.63,49.5-1.94,7.76-11.8,13.16-29.31,16.06C574,384.52,561.71,385.35,547.32,385.35Z"/><path class="cls-3" d="M45.39,371c-7.51,0-12.38-1.87-14.54-5.58-4.26-7.31,2.87-20.13,21.19-38.12l1.54,1.57c-17,16.71-24.42,29.3-20.84,35.45,2.27,3.89,9,5.28,19.52,4s24.25-5,41.07-11c34.64-12.5,78.09-33.58,122.36-59.37s84.05-53.19,112-77.15c5.37-4.61,10.25-9,14.49-13.16a144.28,144.28,0,0,0,15.36-17.13c6.27-8.51,8.39-15.07,6.12-19-3.78-6.5-19.69-5.89-44.79,1.72l-.64-2.1c26.93-8.17,42.86-8.41,47.33-.73,2.78,4.78.68,12-6.25,21.38a146.18,146.18,0,0,1-15.6,17.39c-4.27,4.16-9.18,8.62-14.59,13.26-28.06,24-67.95,51.53-112.33,77.38s-88,47-122.72,59.54c-17,6.13-31,9.88-41.56,11.14A60.68,60.68,0,0,1,45.39,371Z"/><path class="cls-1" d="M446.42,280.74c-5.43-.11-34.6-.94-39.38-.74-.27-.95-9.34,10.67-9.56,10.75a1.33,1.33,0,0,0,0,1.87,1.53,1.53,0,0,0,.4.26c.53.32,47.55-.55,48.12-.44a1.28,1.28,0,0,0,1.17-.76l.31-.7c0-1.21.43-7.36.08-8.41a1.3,1.3,0,0,0-1.19-1.83Z"/><path class="cls-9" d="M447.53,291c-.27.66-.62,1.49-1.48,1.46l-47.63.54a1.32,1.32,0,0,1-1.3-1.33,1.38,1.38,0,0,1,.16-.6Z"/><path class="cls-1" d="M407.26,279.86C406.75,279,394,216,393,215.44l-8.69-10.64-.78-.58c-1.08-.6-3.67-.2-3.44,1.45h0c2,9.8,15.18,65.57,15.47,74.27L397.09,291a1.36,1.36,0,0,0,1.55,1.15l.14,0a2.62,2.62,0,0,0,2.1-1.52C401,290.22,407.86,280.09,407.26,279.86Z"/><path class="cls-9" d="M384.26,204.8l16.63,85.81c-.56,1.41-3.16,2.4-3.77.55,0,0-17.06-85.43-17.07-85.48C379.86,203.62,383.26,203.55,384.26,204.8Z"/><polygon class="cls-4" points="384.76 208.31 393.2 220.08 402.68 265.1 398.28 268.94 384.76 208.31"/><path class="cls-8" d="M441,286.81l2.34.1a9.26,9.26,0,0,1,.34-2c.35-1.67.66-3.65-.79-3.64-1-.1-1.33,1.15-1.51,2.52A18.56,18.56,0,0,1,441,286.81Z"/><path class="cls-8" d="M427.57,283.67l1.57.06.77,0c0-.84.37-2.56-.58-3a1.1,1.1,0,0,0-.47-.1c-.89-.05-1.15.62-1.23,1.4-.05.47,0,1-.05,1.35A1.85,1.85,0,0,1,427.57,283.67Z"/><path class="cls-8" d="M422.9,283.48l1.59.06.75,0c0-1,.49-3.05-1.05-3.08s-1.23,1.73-1.27,2.75A1.94,1.94,0,0,1,422.9,283.48Z"/><path class="cls-8" d="M418.24,283.29l1.57.06.76,0c0-.95.5-3-1-3.07s-1.24,1.72-1.28,2.75A1.69,1.69,0,0,1,418.24,283.29Z"/><path class="cls-8" d="M413.57,283.1l1.58.07.76,0c0-1,.49-3.05-1.05-3.08s-1.24,1.72-1.27,2.75A1.64,1.64,0,0,1,413.57,283.1Z"/><path class="cls-8" d="M408.91,282.92l1.57.06.76,0c0-.88.41-2.72-.71-3h0a1.19,1.19,0,0,0-.32-.05,1.07,1.07,0,0,0-.4,0h0c-1,.26-.84,1.79-.87,2.72C408.92,282.77,408.91,282.85,408.91,282.92Z"/><path class="cls-8" d="M436.26,282.42l2.34.1c0-.09,0-.18,0-.29a11.78,11.78,0,0,0,0-1.68c-.08-.62-.35-1.1-1.09-1.11s-1.05.43-1.17,1.06a1.65,1.65,0,0,0-.06.32h0C436.26,281.4,436.3,282,436.26,282.42Z"/><path class="cls-8" d="M431.6,282.23l2.33.1a17,17,0,0,0,.05-1.89c-.07-.65-.32-1.17-1.09-1.19s-1.08.48-1.2,1.13A18.33,18.33,0,0,0,431.6,282.23Z"/><path class="cls-8" d="M426.93,282.05l.7,0,1.64.07c0-.36.06-.87.06-1.37a2.34,2.34,0,0,0,0-.46c-.06-.68-.3-1.24-1.1-1.26s-1.1.52-1.2,1.21S427,281.6,426.93,282.05Z"/><path class="cls-8" d="M436.31,286.63l2.33.09c0-1,.49-3.05-1-3.08S436.4,285.67,436.31,286.63Z"/><path class="cls-8" d="M431.64,286.44l2.34.09c0-1,.49-3-1.05-3.08S431.73,285.48,431.64,286.44Z"/><path class="cls-8" d="M427,286.25l2.33.09c0-.68.25-1.94-.17-2.61a.94.94,0,0,0-.87-.46,1,1,0,0,0-.69.16C426.84,283.92,427.05,285.48,427,286.25Z"/><path class="cls-8" d="M422.31,286.06l2.34.1c0-.68.24-1.93-.16-2.62a1,1,0,0,0-.89-.46,1,1,0,0,0-.68.16C422.17,283.75,422.38,285.29,422.31,286.06Z"/><path class="cls-8" d="M417.64,285.88,420,286c0-.68.25-1.94-.17-2.62a1,1,0,0,0-.88-.46,1.08,1.08,0,0,0-.68.17C417.51,283.55,417.72,285.1,417.64,285.88Z"/><path class="cls-8" d="M413,285.69l2.34.1c0-.69.24-1.94-.17-2.62a1,1,0,0,0-.88-.47,1.08,1.08,0,0,0-.68.17C412.84,283.38,413.05,284.92,413,285.69Z"/><path class="cls-8" d="M408.31,285.51l2.34.08c0-.68.24-1.93-.17-2.61a.94.94,0,0,0-.88-.46,1,1,0,0,0-.68.17C408.17,283.19,408.39,284.73,408.31,285.51Z"/><path class="cls-7" d="M434.7,278.74l17.81-37.67,6.73-15.71-10.58-6S445.05,231,441.29,237s-13.71,38.29-13.92,39.18a5.83,5.83,0,1,0,7.61,3.17,5.18,5.18,0,0,0-.28-.58Z"/><path class="cls-4" d="M434.59,243.87,448.06,252l3.05-4.61,2-1,8.42-14.46,7.44-7.58,9.83-31.44-12.79,1.92h0c-2.28,1.21-4.32,3.37-7.11,5.27-8.81,6-16.4,25.46-20,36.3-.06.18-.31.3-.59.42a6.35,6.35,0,0,0-3.72,7.1Z"/></svg>