<svg id="Layer_1" data-name="Layer 1" xmlns="http://www.w3.org/2000/svg" viewBox="0 0 635 448"><defs><style>.cls-1{fill:#f2f2f2;}.cls-2{fill:#cacaca;}.cls-3{fill:#3f3d56;}.cls-4{fill:#f54394;}.cls-5{fill:#ffb8b8;}.cls-6{fill:#2f2e41;}.cls-7{fill:#12c2e9;}.cls-8{fill:#ccc;}.cls-9{fill:#e6e6e6;}.cls-10{fill:#fff;}</style></defs><path class="cls-1" d="M511.16,171.11c0,1.28,0,2.55,0,3.82,0,.83,0,1.66-.07,2.49l0,.7-.06,1.36c-.14,3-.36,5.91-.65,8.83,0,.14,0,.28,0,.42,0,.29-.06.58-.1.86-.09.87-.18,1.74-.29,2.6-.08.58-.15,1.15-.22,1.73,0,.27-.08.55-.11.82s-.09.6-.13.9q0,.18-.06.39c-.06.43-.13.88-.2,1.32s-.17,1.13-.27,1.71-.19,1.13-.29,1.7-.2,1.13-.3,1.69-.21,1.14-.32,1.71c-.56,2.8-1.17,5.58-1.85,8.34-.27,1.08-.55,2.15-.83,3.22-.47,1.74-1,3.46-1.49,5.18l-.44,1.42c-.17.55-.35,1.09-.52,1.62s-.35,1.07-.53,1.61l-.54,1.6c-.18.53-.37,1.06-.56,1.59s-.38,1.06-.58,1.59-.39,1-.59,1.57c-.4,1.06-.81,2.1-1.23,3.14-.2.52-.41,1-.63,1.55-.86,2.07-1.75,4.12-2.69,6.15-.21.45-.41.9-.63,1.34s-.27.59-.41.88l-.71,1.46L493,247.9c-.5,1-1,1.95-1.52,2.92s-1,1.94-1.56,2.9-1.07,1.92-1.62,2.87l-.83,1.42c-1.11,1.88-2.26,3.75-3.45,5.59s-2.39,3.64-3.65,5.43c-.62.9-1.26,1.79-1.9,2.67l-.77,1.05c-.32.44-.65.87-1,1.3A171,171,0,0,1,237.32,308q-3.54-2.66-6.93-5.5-2.82-2.36-5.53-4.82a171.75,171.75,0,0,1-30.05-36c-1-1.67-2.05-3.36-3-5.05A171.14,171.14,0,0,1,483.3,77.48l.84,1.3A170,170,0,0,1,510.73,159Q511.17,165,511.16,171.11Z"/><path class="cls-2" d="M484.14,78.78h-237a.65.65,0,0,1,0-1.3H483.3Z"/><ellipse class="cls-3" cx="261.51" cy="62.46" rx="7.03" ry="7.18"/><ellipse class="cls-3" cx="285.79" cy="62.46" rx="7.03" ry="7.18"/><ellipse class="cls-3" cx="310.06" cy="62.46" rx="7.03" ry="7.18"/><path class="cls-4" d="M510.73,159a44.21,44.21,0,0,0-16.56,13.6,59.53,59.53,0,0,1-17.69,15.76l-.87.47a47.25,47.25,0,0,1-17.69,5.42,53.11,53.11,0,0,1-5.64.27c-.78,0-1.57,0-2.35-.06-1.84-.09-3.67-.27-5.46-.53a81.31,81.31,0,0,1-26.53-9.15,96.57,96.57,0,0,0-30.37-10.63c-1.91-.32-3.81-.56-5.7-.74-.79-.08-1.56-.14-2.34-.19q-2.86-.19-5.73-.18c-1,0-1.95,0-2.92.07-16.43.64-37.86,5.32-57.08,21.68l-.76.66c-.24.2-.48.42-.72.63a97.4,97.4,0,0,0-8.58,8.66,110.07,110.07,0,0,0-8.49,11.1,70.76,70.76,0,0,1-10.7,12.41,59.65,59.65,0,0,0-19.19,43.18v1.37H477.72c.26-.35.52-.69.77-1.05.64-.88,1.28-1.77,1.9-2.67,1.26-1.78,2.47-3.6,3.65-5.43s2.34-3.71,3.45-5.59l.83-1.42c.55-.95,1.09-1.91,1.62-2.87s1.06-1.93,1.56-2.9,1-1.94,1.52-2.92l.73-1.48.71-1.46c.14-.29.27-.58.41-.88s.42-.89.63-1.34c.94-2,1.83-4.08,2.69-6.15.22-.51.43-1,.63-1.55.42-1,.83-2.08,1.23-3.14.2-.52.4-1.05.59-1.57s.39-1.06.58-1.59.38-1.06.56-1.59l.54-1.6c.18-.54.36-1.07.53-1.61s.35-1.07.52-1.62l.44-1.42q.78-2.57,1.49-5.18c.28-1.07.55-2.14.83-3.22.68-2.75,1.29-5.53,1.85-8.34.11-.57.22-1.13.32-1.71s.21-1.13.3-1.69.2-1.14.29-1.7.19-1.14.27-1.71.14-.89.2-1.32q0-.21.06-.39c0-.31.08-.6.12-.9l.12-.82c.07-.58.14-1.15.22-1.73.1-.86.2-1.73.29-2.6h0c0-.28.06-.57.09-.86,0-.14,0-.28,0-.42.29-2.92.51-5.87.65-8.83l.06-1.36,0-.7c0-.83.05-1.66.07-2.49,0-1.27,0-2.54,0-3.82Q511.16,165,510.73,159Z"/><rect class="cls-3" x="309.26" y="202.09" width="2.35" height="68.79"/><rect class="cls-3" x="379.53" y="169.96" width="2.35" height="100.92"/><rect class="cls-3" x="449.93" y="191.09" width="2.35" height="79.8"/><circle class="cls-3" cx="380.84" cy="171.58" r="7.18"/><circle class="cls-3" cx="451.25" cy="191.53" r="7.18"/><circle class="cls-3" cx="309.15" cy="196.3" r="7.18"/><path class="cls-3" d="M478.49,271.7l-.77,1.05c-.32.44-.65.87-1,1.3H265.13V271.7Z"/><polygon class="cls-5" points="205.61 440.73 212.41 440.73 215.64 414.5 205.61 414.5 205.61 440.73"/><path class="cls-6" d="M223.3,441a8.43,8.43,0,0,0-6-2.5l-4-3-.21.08-7.26,3h-1.92v8.81H225.8V447A8.43,8.43,0,0,0,223.3,441Z"/><polygon class="cls-5" points="237.2 440.73 244 440.73 247.24 414.5 237.2 414.5 237.2 440.73"/><path class="cls-6" d="M254.9,441a8.43,8.43,0,0,0-6-2.5l-4-3-.22.09-7.26,2.95h-1.92v8.81h21.92V447A8.48,8.48,0,0,0,254.9,441Z"/><path class="cls-6" d="M242.64,297.18l-53.43,1.4.93,26s-.93,7,.93,8.82,2.78,1.86,1.85,5.11,4,8.57,3.39,9.17a23.46,23.46,0,0,0-2,3.84L199,378s3.26,46,4.19,46.92,1.85,0,.93,2.33-1.86,1.39-.93,2.32,1.59,1.82,2.32,2.79H216.7s.85-4.65.85-5.11.93-3.26.93-3.72-.82-1.29-.82-1.29a15,15,0,0,1-.58-2.89c0-.93-2.78-36.71-2.78-36.71l5.57-46.46,13.48,45.53s0,40,.92,40.89.93.46.47,2.32-2.32,1.4-.93,2.79,1.86-.93,1.39,1.39l-.46,2.33,13.94.2s1.86-3.92.93-5.31-.88-1,.26-3.3,1.6-2.74,1.13-3.21-.46-2.93-.46-2.93l-2.33-44.46s-.46-46.92-.46-48.32a4.68,4.68,0,0,1,.38-2.09v-1.89l-1.78-6.7Z"/><path class="cls-5" d="M303.1,195.85a5.18,5.18,0,0,1-6.63,3.13,4.84,4.84,0,0,1-.83-.39L272.44,218l-1.26-9.49,22.69-17.37a5.21,5.21,0,0,1,9.23,4.69Z"/><circle class="cls-5" cx="200.84" cy="189.47" r="14.4"/><path class="cls-6" d="M212.51,175.13c-1.34-3.19-7.08-5.09-16.18-4.8s-10.68,11.13-10.68,11.13c-5,4.66,3.07,19.24,4.48,17.23s3.76-.11,3.76-.11L191.64,186c2.37.92,4.92,1.53,7.15.47l-3.69-2,9.18,1.14-3.79-2.91.28-.09a13.65,13.65,0,0,0,4.8,1.09,5.25,5.25,0,0,0,4.79-2.68,3.82,3.82,0,0,0,.34-1.52c2.67.86,4.06,4,4.06,4A48.94,48.94,0,0,0,212.51,175.13Z"/><path class="cls-7" d="M212.37,204.52c-3.22,0-5.29.44-10.3,1.28-9.23,1.56-3.7,10.34-3.7,10.34s.42-.22-.72,0-5,3.55-5,3.55l-6.9,6.13c-10.4,8.16-8.07,20.9-8.07,20.9L192.85,262l-6.64,30.63s2.82,4.55,1.36,6.59,12.87,1.45,12.87,1.45c9.89,4.41,44.72.68,44.72.68-.48-1.26-5.15-11-5.15-11,2-3.5.1-8.56.1-8.56s-2-23.91-3.3-27.22,3.29-21.22,6.3-21,22.46-9.72,22.46-9.72-.49-.78,5.93-3.41a31.57,31.57,0,0,0,10-6.28l2.63-5.27c-1.26.49-5.54-7.58-5.54-7.58l-1.87.71-1.08-.31s-8.43,2.4-10.15,4.15-2.31,1.26-3.86,1.65-1.75,1.49-2.24,1.37-1.36,1.35-2,1.16-2.14.59-3.12.78-7.87,3.11-7.87,3.11c-4.27-2.16-15.85-1.28-15.85-1.28s-3.79-2.24-4.86,0a3.67,3.67,0,0,1-3.3,2.14l-4.62-2C217.43,213.71,212.39,203.5,212.37,204.52Z"/><path class="cls-1" d="M160.72,412.34l-.64-14.43a46.62,46.62,0,0,0-21.74-5.51c10.44,8.54,9.13,25,16.21,36.47a28,28,0,0,0,20.56,13l8.74,5.35a47,47,0,0,0-9.9-38.07,46.09,46.09,0,0,0-8.34-7.75C163.51,406.88,160.72,412.34,160.72,412.34Z"/><path class="cls-8" d="M123.84,447.55a.77.77,0,0,0,.76.77H306.84a.77.77,0,0,0,0-1.54H124.6a.76.76,0,0,0-.76.77Z"/><rect class="cls-3" x="310.06" y="194.74" width="3.86" height="1.29"/><path class="cls-3" d="M321.72,194.74V196h7.79v-1.29Zm15.59,0V196h7.79v-1.29Zm15.59,0V196h7.79v-1.29Zm15.58,0V196h7.8v-1.29Zm15.6,0V196h7.79v-1.29Zm15.58,0V196h7.8v-1.29Zm15.59,0V196h7.8v-1.29Zm15.59,0V196h7.79v-1.29Zm15.59,0V196h7.8v-1.29Zm15.59,0V196h7.79v-1.29Zm15.58,0V196h7.8v-1.29Zm15.6,0V196H501v-1.29Zm15.58,0V196h.58q0-.21.06-.39c0-.3.08-.6.13-.9Z"/><rect class="cls-3" x="376.97" y="169.01" width="3.86" height="1.29"/><path class="cls-3" d="M388.62,169v1.29h7.79V169Zm15.59,0v1.29H412V169Zm15.59,0v1.29h7.79V169Zm15.58,0v1.29h7.8V169Zm15.6,0v1.29h7.79V169Zm15.58,0v1.29h7.8V169Zm15.59,0v1.29H490V169Zm15.59,0v1.29h7.79V169Z"/><rect class="cls-3" x="448.37" y="188.31" width="3.86" height="1.29"/><path class="cls-3" d="M460,188.31v1.28h7.8v-1.28Zm15.59,0v1.28h7.79v-1.28Zm15.59,0v1.28H499v-1.28Zm15.59,0v1.28h3.39c0-.28.06-.57.09-.86,0-.14,0-.28,0-.42Z"/><path class="cls-9" d="M222.33,322.48V281.05a3.16,3.16,0,0,1,3.16-3.16h31.29a3.17,3.17,0,0,1,3.17,3.16v41.43a3.18,3.18,0,0,1-3.17,3.17H225.49A3.18,3.18,0,0,1,222.33,322.48Z"/><path class="cls-10" d="M224.73,310V283.33a3,3,0,0,1,3-3h26.89a3,3,0,0,1,3,3V320.2a3,3,0,0,1-3,3H237.92A13.2,13.2,0,0,1,224.73,310Z"/><path class="cls-9" d="M229.08,290.76a2.9,2.9,0,0,1,2.9-2.89h18.65a2.9,2.9,0,1,1,0,5.79H232A2.9,2.9,0,0,1,229.08,290.76Z"/><path class="cls-9" d="M229.08,299.77a2.91,2.91,0,0,1,2.9-2.9h18.65a2.9,2.9,0,1,1,0,5.79H232A2.89,2.89,0,0,1,229.08,299.77Z"/><path class="cls-9" d="M229.08,308.78a2.9,2.9,0,0,1,2.9-2.9h18.65a2.9,2.9,0,1,1,0,5.79H232A2.9,2.9,0,0,1,229.08,308.78Z"/><path class="cls-5" d="M223.07,308a4.86,4.86,0,0,1-4.85-5.57l-26.71-14.63,7.82-4.23,24.76,14.87a4.84,4.84,0,0,1-1,9.56Z"/><path class="cls-7" d="M207.53,297.2l-9.47-1.69-3.39-2.82-2.28-1.16L184.52,286l0-.07L172,249a12.09,12.09,0,0,1,9-14h0a12.08,12.08,0,0,1,14.64,8.81,13.08,13.08,0,0,1,.26,1.39l4,31.65,6.67,6.89,2.91.56.67,3.14,2.55,3.94Z"/></svg>