<svg id="Layer_1" data-name="Layer 1" xmlns="http://www.w3.org/2000/svg" viewBox="0 0 464.99 294.07"><defs><style>.cls-1{fill:#e6e6e6;}.cls-2{fill:#3f3d56;}.cls-3{fill:#ee4693;}.cls-4{fill:#fff;}.cls-5{fill:#10c0e8;}</style></defs><title>Artboard 47</title><path class="cls-1" d="M187.91,135.89H9a9,9,0,0,1-9-9V26.54a9,9,0,0,1,9-9H187.91a9,9,0,0,1,9,9V126.86A9,9,0,0,1,187.91,135.89ZM9,18.58a8,8,0,0,0-8,8V126.86a8,8,0,0,0,8,8H187.91a8,8,0,0,0,8-8V26.54a8,8,0,0,0-8-8Z"/><path class="cls-1" d="M142.57,57.49h-34.5a2.39,2.39,0,1,0,0,4.78h34.5a2.39,2.39,0,1,0,0-4.78Z"/><path class="cls-1" d="M176.21,72.62H107.62a2.44,2.44,0,0,0,0,4.78h68.59a2.44,2.44,0,0,0,0-4.78Z"/><path class="cls-1" d="M176.21,88.11H107.62a2.44,2.44,0,0,0,0,4.78h68.59a2.44,2.44,0,0,0,0-4.78Z"/><path class="cls-1" d="M81.74,113.86H22.29a5.59,5.59,0,0,1-5.57-5.58V41.93a5.58,5.58,0,0,1,5.57-5.57H81.74a5.59,5.59,0,0,1,5.58,5.57v66.35A5.6,5.6,0,0,1,81.74,113.86Z"/><circle class="cls-1" cx="192.15" cy="19.11" r="19.11"/><path class="cls-2" d="M441.63,135.89H262.75a9,9,0,0,1-9-9V26.54a9,9,0,0,1,9-9H441.63a9,9,0,0,1,9,9V126.86A9,9,0,0,1,441.63,135.89ZM262.75,18.58a8,8,0,0,0-8,8V126.86a8,8,0,0,0,8,8H441.63a8,8,0,0,0,8-8V26.54a8,8,0,0,0-8-8Z"/><path class="cls-2" d="M396.3,57.49H361.8a2.39,2.39,0,1,0,0,4.78h34.5a2.39,2.39,0,0,0,0-4.78Z"/><path class="cls-2" d="M429.93,72.62H361.34a2.44,2.44,0,0,0,0,4.78h68.59a2.44,2.44,0,0,0,0-4.78Z"/><path class="cls-2" d="M429.93,88.11H361.34a2.44,2.44,0,0,0,0,4.78h68.59a2.44,2.44,0,0,0,0-4.78Z"/><path class="cls-3" d="M335.47,113.86H276a5.58,5.58,0,0,1-5.57-5.58V41.93A5.57,5.57,0,0,1,276,36.36h59.45A5.57,5.57,0,0,1,341,41.93v66.35A5.58,5.58,0,0,1,335.47,113.86Z"/><circle class="cls-3" cx="445.88" cy="19.11" r="19.11"/><path class="cls-4" d="M444.8,26.84a2.27,2.27,0,0,1-1.44-.48h0l-5.44-4.17a2.42,2.42,0,1,1,2.93-3.85h0l3.53,2.7,8.33-10.86a2.42,2.42,0,0,1,3.39-.45h0L456,9.8l.06-.07a2.42,2.42,0,0,1,.45,3.39l-9.8,12.78A2.39,2.39,0,0,1,444.8,26.84Z"/><path class="cls-2" d="M187.91,294.07H9a9,9,0,0,1-9-9V184.72a9,9,0,0,1,9-9H187.91a9,9,0,0,1,9,9V285A9,9,0,0,1,187.91,294.07ZM9,176.76a8,8,0,0,0-8,8V285a8,8,0,0,0,8,8H187.91a8,8,0,0,0,8-8V184.72a8,8,0,0,0-8-8Z"/><path class="cls-2" d="M142.57,215.67h-34.5a2.39,2.39,0,0,0,0,4.78h34.5a2.39,2.39,0,0,0,0-4.78Z"/><path class="cls-2" d="M176.21,230.8H107.62a2.44,2.44,0,0,0,0,4.78h68.59a2.44,2.44,0,0,0,0-4.78Z"/><path class="cls-2" d="M176.21,246.29H107.62a2.44,2.44,0,0,0,0,4.78h68.59a2.44,2.44,0,0,0,0-4.78Z"/><path class="cls-3" d="M81.74,272H22.29a5.59,5.59,0,0,1-5.57-5.58V200.11a5.58,5.58,0,0,1,5.57-5.57H81.74a5.59,5.59,0,0,1,5.58,5.57v66.35A5.6,5.6,0,0,1,81.74,272Z"/><circle class="cls-3" cx="192.15" cy="177.29" r="19.11"/><path class="cls-4" d="M191.08,185a2.32,2.32,0,0,1-1.45-.48h0l-5.45-4.17a2.42,2.42,0,1,1,2.94-3.84h0l3.52,2.7L199,168.36a2.42,2.42,0,0,1,3.39-.45h0l0,.07,0-.07a2.42,2.42,0,0,1,.45,3.39L193,184.08A2.38,2.38,0,0,1,191.08,185Z"/><path class="cls-2" d="M441.63,294.07H262.75a9,9,0,0,1-9-9V184.72a9,9,0,0,1,9-9H441.63a9,9,0,0,1,9,9V285A9,9,0,0,1,441.63,294.07ZM262.75,176.76a8,8,0,0,0-8,8V285a8,8,0,0,0,8,8H441.63a8,8,0,0,0,8-8V184.72a8,8,0,0,0-8-8Z"/><path class="cls-2" d="M396.3,215.67H361.8a2.39,2.39,0,1,0,0,4.78h34.5a2.39,2.39,0,0,0,0-4.78Z"/><path class="cls-2" d="M429.93,230.8H361.34a2.44,2.44,0,0,0,0,4.78h68.59a2.44,2.44,0,0,0,0-4.78Z"/><path class="cls-2" d="M429.93,246.29H361.34a2.44,2.44,0,0,0,0,4.78h68.59a2.44,2.44,0,0,0,0-4.78Z"/><path class="cls-5" d="M335.47,272H276a5.58,5.58,0,0,1-5.57-5.58V200.11a5.57,5.57,0,0,1,5.57-5.57h59.45a5.57,5.57,0,0,1,5.57,5.57v66.35A5.58,5.58,0,0,1,335.47,272Z"/><circle class="cls-5" cx="445.88" cy="177.29" r="19.11"/><path class="cls-4" d="M444.8,185a2.27,2.27,0,0,1-1.44-.48h0l-5.44-4.17a2.42,2.42,0,0,1,2.93-3.85h0l3.53,2.7,8.33-10.86a2.42,2.42,0,0,1,3.39-.45h0L456,168l.06-.07a2.42,2.42,0,0,1,.45,3.39l-9.8,12.78A2.39,2.39,0,0,1,444.8,185Z"/><path class="cls-4" d="M307.71,100.67a7.37,7.37,0,0,1-4.29-1,3.28,3.28,0,0,1-1.29-2.46,2.22,2.22,0,0,1,.75-1.82,2.84,2.84,0,0,1,2.7-.38l-1.09-8,.8-.11,1.29,9.39-.67-.31a2.45,2.45,0,0,0-2.51,0,1.41,1.41,0,0,0-.46,1.18,2.45,2.45,0,0,0,1,1.83,6.68,6.68,0,0,0,3.83.86Z"/><rect class="cls-4" x="296.16" y="87.69" width="4.36" height="0.81"/><rect class="cls-4" x="309.93" y="87.69" width="4.36" height="0.81"/><path class="cls-4" d="M288.58,76.5c-3.51-.4-6.23-3.76-6.53-7.18-.35-4.06,2-7.92,5.26-10.2A22.36,22.36,0,0,1,299,55.53a32.16,32.16,0,0,1,22,7.25c3.06,2.55,5.93,5.79,7,9.71a9.39,9.39,0,0,1-2.56,9.64,6.45,6.45,0,0,1-5,1.52,12.22,12.22,0,0,1-5.78-2.57c-3.3-2.39-6-5.73-10-7-2.94-.92-6.77-.11-8.57,2.56a4.79,4.79,0,0,0-.77,2,.63.63,0,0,0,.42.75.63.63,0,0,0,.75-.43c.47-3.35,4.6-4.61,7.49-3.84,4.23,1.12,7.06,4.88,10.53,7.28a12.67,12.67,0,0,0,6.12,2.44A7.55,7.55,0,0,0,326,83.24a10.39,10.39,0,0,0,3.44-10c-.76-4.19-3.58-7.79-6.68-10.57A33.36,33.36,0,0,0,300,54.27a25,25,0,0,0-12.44,3.25,13.56,13.56,0,0,0-6.7,10.14A9.57,9.57,0,0,0,286,77a8.42,8.42,0,0,0,2.59.73c.78.09.77-1.13,0-1.22Z"/><path class="cls-4" d="M307.71,256.73a7.45,7.45,0,0,1-4.29-1,3.28,3.28,0,0,1-1.29-2.46,2.22,2.22,0,0,1,.75-1.82,2.84,2.84,0,0,1,2.7-.39l-1.09-8,.8-.11,1.29,9.4-.67-.31a2.45,2.45,0,0,0-2.51,0,1.41,1.41,0,0,0-.46,1.17,2.49,2.49,0,0,0,1,1.84,6.68,6.68,0,0,0,3.83.86Z"/><rect class="cls-4" x="296.16" y="243.74" width="4.36" height="0.81"/><rect class="cls-4" x="309.93" y="243.74" width="4.36" height="0.81"/><path class="cls-4" d="M288.58,232.56c-3.51-.4-6.23-3.76-6.53-7.18-.35-4.06,2-7.92,5.26-10.2a22.46,22.46,0,0,1,11.71-3.6,32.22,32.22,0,0,1,22,7.26c3.06,2.54,5.93,5.79,7,9.7a9.37,9.37,0,0,1-2.56,9.64,6.46,6.46,0,0,1-5,1.53,12.31,12.31,0,0,1-5.78-2.57c-3.3-2.4-6-5.74-10-7-2.94-.92-6.77-.11-8.57,2.55a4.83,4.83,0,0,0-.77,2,.62.62,0,0,0,.42.74.61.61,0,0,0,.75-.42c.47-3.36,4.6-4.61,7.49-3.84,4.23,1.11,7.06,4.88,10.53,7.28a12.76,12.76,0,0,0,6.12,2.44A7.6,7.6,0,0,0,326,239.3a10.42,10.42,0,0,0,3.44-10c-.76-4.19-3.58-7.78-6.68-10.56A33.36,33.36,0,0,0,300,210.33a24.93,24.93,0,0,0-12.44,3.25,13.55,13.55,0,0,0-6.7,10.13,9.57,9.57,0,0,0,5.15,9.34,8.42,8.42,0,0,0,2.59.73c.78.08.77-1.13,0-1.22Z"/><path class="cls-4" d="M51.33,256.73a7.47,7.47,0,0,1-4.29-1,3.28,3.28,0,0,1-1.29-2.46,2.22,2.22,0,0,1,.75-1.82,2.85,2.85,0,0,1,2.7-.39l-1.09-8,.8-.11,1.29,9.4-.67-.31a2.45,2.45,0,0,0-2.51,0,1.41,1.41,0,0,0-.46,1.17,2.53,2.53,0,0,0,1,1.84,6.68,6.68,0,0,0,3.83.86Z"/><rect class="cls-4" x="39.78" y="243.74" width="4.36" height="0.81"/><rect class="cls-4" x="53.55" y="243.74" width="4.36" height="0.81"/><path class="cls-4" d="M32.2,232.56c-3.51-.4-6.23-3.76-6.53-7.18-.35-4.06,2-7.92,5.26-10.2a22.46,22.46,0,0,1,11.71-3.6,32.22,32.22,0,0,1,22,7.26c3.07,2.54,5.93,5.79,7,9.7a9.37,9.37,0,0,1-2.56,9.64,6.46,6.46,0,0,1-5,1.53,12.36,12.36,0,0,1-5.78-2.57c-3.3-2.4-6-5.74-10-7-2.94-.92-6.77-.11-8.57,2.55a4.83,4.83,0,0,0-.77,2,.62.62,0,0,0,.42.74.61.61,0,0,0,.75-.42c.47-3.36,4.6-4.61,7.5-3.84,4.22,1.11,7.05,4.88,10.52,7.28a12.76,12.76,0,0,0,6.12,2.44,7.6,7.6,0,0,0,5.35-1.64,10.42,10.42,0,0,0,3.44-10c-.76-4.19-3.58-7.78-6.68-10.56a33.36,33.36,0,0,0-22.81-8.43,24.93,24.93,0,0,0-12.44,3.25,13.55,13.55,0,0,0-6.7,10.13,9.58,9.58,0,0,0,5.16,9.34,8.28,8.28,0,0,0,2.58.73c.78.08.77-1.13,0-1.22Z"/><path class="cls-2" d="M51.33,101.74a7.48,7.48,0,0,1-4.29-1,3.24,3.24,0,0,1-1.29-2.45,2.19,2.19,0,0,1,.75-1.82,2.85,2.85,0,0,1,2.7-.39l-1.09-8,.8-.11,1.29,9.39L49.53,97a2.5,2.5,0,0,0-2.51,0,1.41,1.41,0,0,0-.46,1.18,2.49,2.49,0,0,0,1,1.83,6.76,6.76,0,0,0,3.83.87Z"/><rect class="cls-2" x="39.78" y="88.75" width="4.36" height="0.81"/><rect class="cls-2" x="53.55" y="88.75" width="4.36" height="0.81"/><path class="cls-2" d="M32.2,77.57c-3.51-.4-6.23-3.77-6.53-7.18-.35-4.07,2-7.93,5.26-10.2a22.37,22.37,0,0,1,11.71-3.6,32.21,32.21,0,0,1,22,7.25c3.07,2.55,5.93,5.79,7,9.71a9.38,9.38,0,0,1-2.56,9.64,6.5,6.5,0,0,1-5,1.53,12.36,12.36,0,0,1-5.78-2.57c-3.3-2.4-6-5.74-10-7-2.94-.92-6.77-.11-8.57,2.56a4.79,4.79,0,0,0-.77,2,.63.63,0,0,0,.42.75.61.61,0,0,0,.75-.43c.47-3.35,4.6-4.61,7.5-3.84,4.22,1.12,7.05,4.89,10.52,7.28A12.78,12.78,0,0,0,64.3,86a7.61,7.61,0,0,0,5.35-1.65,10.39,10.39,0,0,0,3.44-10c-.76-4.19-3.58-7.79-6.68-10.57A33.4,33.4,0,0,0,43.6,55.34a24.92,24.92,0,0,0-12.44,3.24,13.58,13.58,0,0,0-6.7,10.14,9.57,9.57,0,0,0,5.16,9.33,8,8,0,0,0,2.58.73c.78.09.77-1.13,0-1.21Z"/></svg>