<svg id="Layer_1" data-name="Layer 1" xmlns="http://www.w3.org/2000/svg" xmlns:xlink="http://www.w3.org/1999/xlink" viewBox="0 0 444.88 273.89"><defs><style>.cls-1,.cls-16{fill:#ee4693;}.cls-1,.cls-19,.cls-24,.cls-9{opacity:0.1;}.cls-1,.cls-10,.cls-11,.cls-13,.cls-19,.cls-9{isolation:isolate;}.cls-2{fill:#10c0e8;}.cls-3{fill:#444053;}.cls-4,.cls-5{fill:none;stroke:#444053;stroke-miterlimit:10;}.cls-4{stroke-width:0.38px;}.cls-5{stroke-width:0.28px;}.cls-6,.cls-9{fill:#33323d;}.cls-7{fill:#fff;}.cls-8{fill:#504f60;}.cls-10{fill:#8ccf4d;}.cls-10,.cls-11{opacity:0.8;}.cls-11{fill:#fa5959;}.cls-12{fill:#fbbebe;}.cls-13{opacity:0.05;}.cls-14{fill:#3f3d56;}.cls-15{fill:#464353;}.cls-17{fill:url(#linear-gradient);}.cls-18{fill:#65617d;}.cls-20{fill:#ee8e9e;}.cls-21{fill:#e3e8f4;}.cls-22{fill:#e6e8ec;}.cls-23{fill:#565387;}.cls-25{fill:#a1616a;}.cls-26{fill:#514e7f;}.cls-27{fill:url(#linear-gradient-2);}</style><linearGradient id="linear-gradient" x1="126.59" y1="-6500.09" x2="126.59" y2="-6428.01" gradientTransform="matrix(1, 0, 0, -1, -11.09, -6339.57)" gradientUnits="userSpaceOnUse"><stop offset="0" stop-color="gray" stop-opacity="0.25"/><stop offset="0.54" stop-color="gray" stop-opacity="0.12"/><stop offset="1" stop-color="gray" stop-opacity="0.1"/></linearGradient><linearGradient id="linear-gradient-2" x1="215.67" y1="-6574.65" x2="241.95" y2="-6574.65" xlink:href="#linear-gradient"/></defs><title>Artboard 57</title><path class="cls-1" d="M444.88,175.74a91.05,91.05,0,0,1-2.67,22c-.6,2.42-1.29,4.8-2.09,7.13a83.65,83.65,0,0,1-3.37,8.43c-.64,1.38-1.32,2.75-2,4.08a55.09,55.09,0,0,1-4.6,22.1A57,57,0,0,1,402.48,268a58.05,58.05,0,0,1-24.71,5.67H84.46a73.92,73.92,0,0,1-37.17-9.93q-2.51-1.45-4.88-3.09a73.7,73.7,0,0,1-9.66-8,71.29,71.29,0,0,1-10.62-13.17A70.18,70.18,0,0,1,11.33,202,88.32,88.32,0,0,1,0,158.22c0-20.4,6.63-39,17.53-53.09A75.91,75.91,0,0,1,25,96.84a69.36,69.36,0,0,1,8.52-7A65.66,65.66,0,0,1,41,85.34q1.64-.84,3.3-1.56c1-.44,2-.84,3-1.22,1.2-.46,2.42-.88,3.65-1.26s2.45-.72,3.65-1q2.64-.65,5.37-1.05c1.51-.22,3-.37,4.54-.49,1.2-.09,2.41-.14,3.63-.16h.66c1.35,0,2.68.06,4,.15l.43-.84c.53-1,1.08-2,1.63-3v0l.28-.5c.45-.81.91-1.6,1.39-2.39.22-.38.43-.74.66-1.1l.15-.25.69-1.14Q79.81,66.7,81.69,64l.32-.46c.2-.28.38-.55.6-.83.52-.73,1.06-1.46,1.6-2.18.37-.51.75-1,1.16-1.51q1.47-1.91,3-3.78c1-1.25,2.12-2.5,3.22-3.73l.46-.5,1.61-1.76h0l.23-.23h0c.19-.21.37-.42.58-.62.87-.92,1.75-1.82,2.65-2.71a143.84,143.84,0,0,1,14.51-12.62l.61-.46c1-.72,1.93-1.44,2.91-2.14A153.52,153.52,0,0,1,131.94,20c.4-.23.81-.44,1.22-.66A162.79,162.79,0,0,1,149.21,12q4.48-1.77,9.12-3.31c2-.67,4.1-1.3,6.18-1.89q4.83-1.38,9.78-2.5a175,175,0,0,1,29.55-4Q208.37,0,213,0A175.75,175.75,0,0,1,257.2,5.59a1.57,1.57,0,0,0,1.37.71h1.27l1.65.46q4.62,1.34,9.1,2.91l.76.27a163.72,163.72,0,0,1,21.5,9.44,156.81,156.81,0,0,1,18,11.12c.89.64,1.76,1.28,2.62,1.93,1-.68,2.1-1.32,3.18-1.93a62.43,62.43,0,0,1,13.17-5.61,60,60,0,0,1,29.55-1.15,65.36,65.36,0,0,1,33.11,18.67A77.36,77.36,0,0,1,402.42,55c.2.32.41.65.61,1a82.08,82.08,0,0,1,6.32,12.61c.07.16.13.31.19.47a87.43,87.43,0,0,1,3.89,12.6c0,.21.1.43.14.65a89.24,89.24,0,0,1,1.86,12.6,2.37,2.37,0,0,0,0,.46c.16,2.2.24,4.41.24,6.66q0,3-.19,6c0,.22,0,.44-.05.66,0,.58-.08,1.14-.13,1.71A72.67,72.67,0,0,1,423.4,118c1.11,1.2,2.17,2.45,3.2,3.74a78.26,78.26,0,0,1,8.23,12.61A88.65,88.65,0,0,1,444.88,175.74Z"/><path class="cls-1" d="M402.2,250.09c0,8.58-8.9,16.62-24.43,23.54H84.46c-13.57,0-26.28-4.91-37.17-13.47-2.74-3.25-4.19-6.62-4.19-10.07,0-9.13,10.07-17.65,27.46-24.85h0l.49-.19a171.72,171.72,0,0,1,16.4-5.7l.46-.14h0q7.14-2.1,15.19-4l.5-.11c2.07-.49,4.18-.94,6.34-1.4h0l.83-.17a473.68,473.68,0,0,1,52.88-7.6h0q4.07-.37,8.22-.67c3.08-.25,6.19-.46,9.34-.65q3.61-.23,7.29-.41h.06c11-.55,22.41-.84,34.06-.84a627.85,627.85,0,0,1,80.15,4.91h.07q5.56.72,10.9,1.54,1.53.22,3,.48,6,1,11.7,2.05h0C373.18,220.85,402.2,234.6,402.2,250.09Z"/><path class="cls-2" d="M329.18,91.88s-4-1.62-16.71,4.21-14.3,5.09-17.59,4.21-5.12-1.1-8.65-6c0,0-2.49-13.48-4.91-15.58S268.68,80,268.68,80s-12.28,2.81-14.61-13.6c0,0,1.65-12.36-.6-16.15,0,0,4.56,2,12.08-1.21s13.55,3.42,13.55,3.42,1.89,4.91,1.7,7.84,1,4,4.59,2.61c0,0,1.77-2.51-.73-6.65s-4.28-7.24-3.58-10.45,2.7-7.69,9.14-9.92,15.18-2.65,19.38-4.41,5.23-2.89,5.23-2.89-2.59,2.59,3.5,13.56,2.21,15.73,2.21,15.73S317.3,65.55,303,64.92c0,0-13.78.5-6.27,6.34,0,0,4.81-1,12-3.26s12.38,7.15,13.67,13.71A17.22,17.22,0,0,0,329.18,91.88Z"/><path class="cls-3" d="M310.67,36.85l.08,0c.55,2.09-5.61,10.5-10.87,17.19l-.06-.05C307.24,44.55,311.1,38.47,310.67,36.85Z"/><path class="cls-3" d="M299.93,53.85l0,.08c-4.2,5.34-9.49,11.71-13.72,16.44-.4.45-.8.92-1.19,1.41l-.12-.1c.38-.49.79-1,1.2-1.41C290.35,65.56,295.72,59.19,299.93,53.85Z"/><path class="cls-3" d="M285,71.56l.09.14c-7.7,9.61-8.21,24.55-8.23,24.67l-1.62-1.89C275.29,94.36,277.28,81.24,285,71.56Z"/><path class="cls-4" d="M320.27,86.67s-9.06-4.72-16.15-3-23-6-23-6-6.76-2.74-8.12-5.88c0,0-4.64-4.91-4.91-7.44s-4.78-8.92-7.73-9.17"/><path class="cls-4" d="M318.94,91.21s-4.57-3.08-4-6.67"/><path class="cls-4" d="M311.93,95.19s-6.54-2.37-7.18-11.68"/><path class="cls-4" d="M301.39,97.6a14.63,14.63,0,0,1-4.18-14.24"/><path class="cls-4" d="M288.7,95.07s-4.16-8.73-.46-14.4"/><path class="cls-4" d="M320.36,80.92s-4.73,1.51-3.71,4"/><path class="cls-4" d="M314.65,72.35s-6.32,2-6.47,11"/><path class="cls-4" d="M305.83,70.27s-5.76,7.11-5.34,13.57"/><path class="cls-4" d="M295.75,73.06s-5.72,5.47-5,8.51"/><path class="cls-4" d="M292.3,71.13s-5.37,1-6.12-.8"/><path class="cls-4" d="M285.33,64.65s2.71,3.59,3.4,2.79"/><path class="cls-4" d="M312.19,62.38s-13.52,1-16.58-3.09"/><path class="cls-4" d="M282.5,46.57s6.34,13.61,10.95,15.35"/><path class="cls-4" d="M289.14,40.08s3.89,12.53,8.72,16.44"/><path class="cls-5" d="M317.88,52s-10.28,4.42-16.45,0"/><path class="cls-5" d="M298.3,37.41s2.35,9.21,5.51,11.43"/><path class="cls-5" d="M316.33,41.73s-5.78,2.19-7.93.51"/><path class="cls-4" d="M280.38,67.66s0,8-2.19,8.6"/><path class="cls-4" d="M262.52,78.06s8.68.75,12.68-3.74"/><path class="cls-4" d="M278.14,58.18s-2.1,8.14-7.89,10.33"/><path class="cls-4" d="M257.31,69.48a11.36,11.36,0,0,0,11.43-3.3"/><path class="cls-4" d="M271.31,51.18s-.58,6.91-4.34,10.15"/><path class="cls-4" d="M257.55,59s5.09,0,6.28-1.63"/><rect class="cls-6" x="149.28" y="85.2" width="145.12" height="73.25"/><rect class="cls-6" x="104.08" y="180.7" width="235.99" height="48.22"/><polygon class="cls-7" points="160.41 192.76 281.42 192.76 305.53 273.89 134.91 273.89 160.41 192.76"/><polygon class="cls-8" points="97.36 151.96 97.36 177 97.36 182.27 97.36 228.92 142.56 228.92 142.56 184.41 301.58 184.41 301.58 228.92 346.79 228.92 346.79 182.27 346.79 177 346.79 151.96 97.36 151.96"/><rect class="cls-9" x="97.35" y="151.96" width="249.43" height="25.03"/><circle class="cls-10" cx="333.34" cy="164.48" r="3.71"/><circle class="cls-11" cx="316.65" cy="164.48" r="3.71"/><rect class="cls-7" x="154.62" y="67.58" width="134.45" height="79.74"/><path class="cls-12" d="M309.52,184c.28,3.09-2,6.08-1.37,9.11.15.64.43,1.25.53,1.88.28,1.8-.79,3.5-1.81,5l-8.78,12.91a7.8,7.8,0,0,1-1.25,1.55c-1.68,1.51-4.2,1.34-6.4,1.78a11.11,11.11,0,0,0-4.29,1.89.28.28,0,0,0,0,.38,3.67,3.67,0,0,0,3.18,1.51c.23.3,0,.76-.31,1-.48.32-1.14.41-1.22,1.21a1.38,1.38,0,0,0,.16.8,2.48,2.48,0,0,0,1.54,1.07c3,.93,6.32-.7,8.59-2.92s3.91-5,6.14-7.29c1.24-1.25,2.64-2.32,3.91-3.54a43.22,43.22,0,0,0,6.42-8.3,9,9,0,0,0,1.39-2.83c.24-1,.13-2.07.41-3.07a11.21,11.21,0,0,1,2.1-3.43,11.36,11.36,0,0,0,2.39-7.41,7.1,7.1,0,0,0-4.33-6.15,3.9,3.9,0,0,0-2.43-.15,5.76,5.76,0,0,0-2.47,2l-1.67,1.92a4.52,4.52,0,0,0-1,1.48,1.53,1.53,0,0,0,.34,1.64"/><path class="cls-13" d="M309.52,184c.28,3.09-2,6.08-1.37,9.11.15.64.43,1.25.53,1.88.28,1.8-.79,3.5-1.81,5l-8.78,12.91a7.8,7.8,0,0,1-1.25,1.55c-1.68,1.51-4.2,1.34-6.4,1.78a11.11,11.11,0,0,0-4.29,1.89.28.28,0,0,0,0,.38,3.67,3.67,0,0,0,3.18,1.51c.23.3,0,.76-.31,1-.48.32-1.14.41-1.22,1.21a1.38,1.38,0,0,0,.16.8,2.48,2.48,0,0,0,1.54,1.07c3,.93,6.32-.7,8.59-2.92s3.91-5,6.14-7.29c1.24-1.25,2.64-2.32,3.91-3.54a43.22,43.22,0,0,0,6.42-8.3,9,9,0,0,0,1.39-2.83c.24-1,.13-2.07.41-3.07a11.21,11.21,0,0,1,2.1-3.43,11.36,11.36,0,0,0,2.39-7.41,7.1,7.1,0,0,0-4.33-6.15,3.9,3.9,0,0,0-2.43-.15,5.76,5.76,0,0,0-2.47,2l-1.67,1.92a4.52,4.52,0,0,0-1,1.48,1.53,1.53,0,0,0,.34,1.64"/><path class="cls-14" d="M316.17,263.39a10.19,10.19,0,0,1-6.54,1c-.38,0-.78-.07-1,.21s.06,1,.46,1.32a9.76,9.76,0,0,0,4.49,1.84A30.83,30.83,0,0,0,318,268a74,74,0,0,0,12-.44,1.63,1.63,0,0,0,.65-.19,1.2,1.2,0,0,0,.5-.76,3,3,0,0,0-1-2.85,9.24,9.24,0,0,0-2.8-1.51l-3.48-1.36c-.82-.32-2.13-1.16-3-1.09C319.14,260,317.55,262.58,316.17,263.39Z"/><path class="cls-13" d="M316.17,263.39a10.19,10.19,0,0,1-6.54,1c-.38,0-.78-.07-1,.21s.06,1,.46,1.32a9.76,9.76,0,0,0,4.49,1.84A30.83,30.83,0,0,0,318,268a74,74,0,0,0,12-.44,1.63,1.63,0,0,0,.65-.19,1.2,1.2,0,0,0,.5-.76,3,3,0,0,0-1-2.85,9.24,9.24,0,0,0-2.8-1.51l-3.48-1.36c-.82-.32-2.13-1.16-3-1.09C319.14,260,317.55,262.58,316.17,263.39Z"/><path class="cls-15" d="M318.59,217.14c-1.44,1.93-2.95,4.16-2.59,6.55a14.75,14.75,0,0,0,1.45,3.61,25.65,25.65,0,0,1,1.46,5.08c.54,2.53,1.09,5.06,1.42,7.62.38,2.9-1.4,11.28-1.57,14.2a3,3,0,0,1-.61,2c-.19.2-.45.38-.53.63a1.09,1.09,0,0,0,.11.73,8.12,8.12,0,0,0,4.35,4,34.26,34.26,0,0,0,8.4,2.21,1.53,1.53,0,0,0,.79-.11,1.46,1.46,0,0,0,.61-.69c1.46-2.79.06-12.7.08-15.85,0-2.64.64-5.22.53-7.84-.1-2.11-.66-4.16-.86-6.26a36.87,36.87,0,0,1,.92-10.29c.49-2.6,1-5.21,1.59-7.79a15.27,15.27,0,0,1,1.68-4.53c.69-1.08,1.61-2,2.4-3a13.59,13.59,0,0,0,2.67-10c0-.34-5,1.27-5.46,1.46a17.12,17.12,0,0,0-4.87,3.13,45.48,45.48,0,0,0-3.07,3.8q-2.14,2.61-4.23,5.25C321.68,213.06,320.13,215.1,318.59,217.14Z"/><path class="cls-13" d="M318.59,217c-1.44,1.93-2.95,4.15-2.59,6.55a14.91,14.91,0,0,0,1.45,3.61,25.56,25.56,0,0,1,1.46,5.07c.54,2.53,1.09,5.07,1.42,7.63.38,2.9-1.4,11.28-1.57,14.2a3,3,0,0,1-.61,2c-.19.2-.45.38-.53.62a1.06,1.06,0,0,0,.11.76,8.16,8.16,0,0,0,4.35,4,33.16,33.16,0,0,0,8.4,1.57,1.21,1.21,0,0,0,1.4-.8c1.46-2.79.06-12.07.08-15.21,0-2.64.64-5.23.53-7.85-.1-2.1-.66-4.16-.86-6.26a36.77,36.77,0,0,1,.92-10.28c.49-2.61,1-5.22,1.59-7.79a15.23,15.23,0,0,1,1.68-4.54c.69-1.08,1.61-2,2.4-3a13.65,13.65,0,0,0,2.67-10c0-.35-5,1.26-5.46,1.46a16.94,16.94,0,0,0-4.87,3.14,46.86,46.86,0,0,0-3.07,3.78c-1.43,1.73-2.84,3.49-4.23,5.25C321.68,213,320.13,215,318.59,217Z"/><circle class="cls-12" cx="302.47" cy="166.51" r="8.13"/><path class="cls-12" d="M309.79,166.17a10.51,10.51,0,0,0,6.75,4.72l-.61,2.22c-1.06,3.83-2.27,7.87-5.2,10.52a5,5,0,0,0-.83-3.8,14.49,14.49,0,0,0-2.76-2.88l-4.68-4.08a1.37,1.37,0,0,1-.35-.37,1.17,1.17,0,0,1,0-.9c.59-1.85,2.3-3,3.68-4.26a13.62,13.62,0,0,0,1.85-2.16C308.6,163.85,309.17,165.18,309.79,166.17Z"/><path class="cls-15" d="M291.75,158.34l-.18-1.51c1.29.33,2.5-.76,3.32-1.89s1.59-2.46,2.84-2.93c1.51-.57,3.12.34,4.57,1.1a14.61,14.61,0,0,0,5.26,1.72,3.59,3.59,0,0,1,.87.14,3,3,0,0,1,1.53,2.6,10.06,10.06,0,0,0,.57,3.17c.35.73,1,1.27,1.33,2,1,1.93,0,4.56,1.08,6.44l-2.61-2.39c-.24-.22-.57-.44-.83-.26s-.23.47-.31.72a1.37,1.37,0,0,1-1.86.68,5.17,5.17,0,0,1-1.66-1.51,10.07,10.07,0,0,0-4.15-3.14,5.32,5.32,0,0,0-4.38.26c-1.22.69-2.11,2.29-3.6,2.35-2,.07-2.89-3.73-3.84-5.23a1.85,1.85,0,0,0,.54-2.31C290.41,158.26,291.73,158.09,291.75,158.34Z"/><path class="cls-14" d="M325.65,263.33a8.62,8.62,0,0,1-5.85,2.18c-.54,0-1.3.1-1.31.65a.91.91,0,0,0,.16.45,5.36,5.36,0,0,0,3,2.37,10.89,10.89,0,0,0,3.65.23l3.57-.18c.67,0,1.35-.07,2-.16s1.4-.22,2.1-.32a27.39,27.39,0,0,1,5.2-.25,1.53,1.53,0,0,0,1.28-.35c.29-.34.13-1,0-1.47-.22-1,0-2.12-.2-3.16a5.56,5.56,0,0,0-3.64-3.88c-1.61-.61-4.46-1.31-6-.29S327.09,262,325.65,263.33Z"/><path class="cls-15" d="M329.19,202.29c.31,1.51,1.76,2.64,1.8,4.15,0,1.22-.84,2.27-1.46,3.31a21.62,21.62,0,0,0-1.52,3.4,51.51,51.51,0,0,1-4.41,8.74c-.84,1.33-1.77,2.77-1.58,4.33a6.37,6.37,0,0,0,.76,2.07l2.51,5a14.17,14.17,0,0,1,1.28,3.15c.22.95.24,1.93.38,2.9.4,3.06,1.83,6.14,1,9.1-.08.26-.34.57-.55.38a9.4,9.4,0,0,1,1.44,4.87,6.65,6.65,0,0,0,0,2.74,2.85,2.85,0,0,1,.38,1.08c0,.25-.12.49-.14.76a1.6,1.6,0,0,0,1.25,1.51c.68.22,1.41.21,2.09.41,1.31.38,2.24,1.51,3.36,2.3a7.1,7.1,0,0,0,3.86,1.26.92.92,0,0,0,.56-.12.9.9,0,0,0,.32-.69,3.83,3.83,0,0,0-1.38-3.33,1.44,1.44,0,0,1-.51-.53,1.36,1.36,0,0,1-.05-.6,45.35,45.35,0,0,0-.15-8.24,12.85,12.85,0,0,1-.13-2.63,9.48,9.48,0,0,0,.21-2.18,11.3,11.3,0,0,0-.67-2.09,15.24,15.24,0,0,1-.32-3.89,33.85,33.85,0,0,0-1.1-6.69,5,5,0,0,0-1-2.42c-.52-.54-1.37-1.07-1.17-1.79a2.16,2.16,0,0,1,.48-.72,2.85,2.85,0,0,0,.6-2.18,1,1,0,0,0,1.13-.53,17.66,17.66,0,0,0,8.84-10.05,3.25,3.25,0,0,1,.38-.9,4.06,4.06,0,0,1,1.61-1,12.28,12.28,0,0,0,4.26-4.33,7.79,7.79,0,0,0,1.86-5.41l.1-3.94a2.11,2.11,0,0,0-.07-.75,1.81,1.81,0,0,0-.43-.63,7.52,7.52,0,0,0-4.15-2.26,32.09,32.09,0,0,0-3.25-.25c-2.11-.17-4.18-.82-6.29-.67a10,10,0,0,0-7.81,5.46C330.93,201.38,330.36,202.29,329.19,202.29Z"/><path class="cls-16" d="M310.83,176.69a4.18,4.18,0,0,1-.24,1.79,1.26,1.26,0,0,1-1.47.76c.17-.38-.28-.83-.7-.78a1.3,1.3,0,0,0-.93.79,2.93,2.93,0,0,0-.27,1.82,7.28,7.28,0,0,1,.46,2.26c-.09.64-.56,1.29-.31,1.89a3.25,3.25,0,0,0,.6.73,2,2,0,0,1-.21,2.81l6.34.13a4.48,4.48,0,0,0,.78,3.08,19.43,19.43,0,0,0,14.49,9.44,1.27,1.27,0,0,0-.45,1.74,1.33,1.33,0,0,0,.14.19,1.8,1.8,0,0,0,2,.12,15.52,15.52,0,0,0,1.74-1.31,5.31,5.31,0,0,1,3.58-1c.8.07,1.57.33,2.36.37,2.35.13,4.37-1.56,6.62-2.26,1.64-.51,3.51-.51,4.91-1.53a2,2,0,0,0,.91-1.89,3,3,0,0,0-.69-1.11,19.51,19.51,0,0,1-1.83-3.44,20.55,20.55,0,0,0-4.58-6.13,41,41,0,0,0-4.53-3.45,8.66,8.66,0,0,0-1.23-.76,11.7,11.7,0,0,1-1.69-.68,8.61,8.61,0,0,1-1.74-2c-1.26-1.47-3.19-2.14-4.74-3.3-1-.75-1.95-1.79-3.2-2.16-.6-.18-1.24-.2-1.84-.38-1.37-.41-2.37-1.63-3.71-2.12a15.7,15.7,0,0,0-3.36-.43,7.7,7.7,0,0,1-3.45-1.31,4.55,4.55,0,0,0-1.13-.65c-1.7-.52-1.84,2.65-2,3.74A34.36,34.36,0,0,0,310.83,176.69Z"/><path class="cls-12" d="M312.48,187.31c.29,3.08-2,6.07-1.36,9.1.14.65.42,1.26.52,1.89.28,1.79-.79,3.49-1.81,5l-8.78,12.88a7.8,7.8,0,0,1-1.25,1.55c-1.68,1.51-4.2,1.34-6.4,1.78a11.11,11.11,0,0,0-4.29,1.89.28.28,0,0,0-.05.38,3.68,3.68,0,0,0,3.19,1.51c.23.31,0,.75-.32,1-.47.32-1.14.41-1.21,1.21a1.34,1.34,0,0,0,.15.81,2.5,2.5,0,0,0,1.54,1.06c3,.93,6.32-.7,8.59-2.92s3.91-5,6.15-7.29c1.23-1.25,2.64-2.32,3.91-3.53a44.84,44.84,0,0,0,6.42-8.31,9.44,9.44,0,0,0,1.39-2.83c.23-1,.12-2.07.4-3.06a11.14,11.14,0,0,1,2.1-3.44,11.36,11.36,0,0,0,2.39-7.41,7.1,7.1,0,0,0-4.33-6.15,3.82,3.82,0,0,0-2.43-.14,5.72,5.72,0,0,0-2.47,2l-1.67,1.93a4.7,4.7,0,0,0-1,1.47,1.55,1.55,0,0,0,.34,1.64"/><path class="cls-16" d="M316.92,174.63a4.81,4.81,0,0,0-3.24,1,4.63,4.63,0,0,0-.81,1.28,12.82,12.82,0,0,0-1.62,5.09,23.86,23.86,0,0,0,.59,4.26,15.6,15.6,0,0,1-.38,3.57,25.07,25.07,0,0,0,4.62-1.78,15.69,15.69,0,0,1,2.7-1.4c1.38-.46,3.69.33,5,1,.07-.92-.61-2.52-.54-3.44a4,4,0,0,1,.2-1.13,7.28,7.28,0,0,1,.69-1.1,4.5,4.5,0,0,0-.4-5.29,7.3,7.3,0,0,0-4.71-2,21.42,21.42,0,0,0-3.3-.11"/><path class="cls-17" d="M145.8,148.2l-7.44-10.8s-.14-2.67-.63-3.3-.11-2-.11-2,.53-.76.07-.84-.07-1.77-.07-1.77l0-2.71s.42-2.6.07-3.22a1,1,0,0,1,0-1.12s.42-1.49,0-1.89-.31-2.71-.21-4.55a7,7,0,0,0-.73-3.16c0-.27-2.75-3-2.75-3.23a6.62,6.62,0,0,0-2.78-1.51c-1.05-.26-1.57-.49-1.53-.63s-1.64-.69-1.64-.69a3.28,3.28,0,0,1-2-.83c-.56-.73-2.27-.94-2.31-1l0-.15a.8.8,0,0,0,0-.15c.14-.22.26-.45.38-.68l.09-.22a2.94,2.94,0,0,0,1.72-.53,2.33,2.33,0,0,0,.83-1.66,3.59,3.59,0,0,0-.41-1.85c-.3-.63-.75-1.28-.59-2,.06-.29.24-.54.33-.83a2.27,2.27,0,0,0-.25-1.65c-.27-.5-.63-1-.93-1.43a5.74,5.74,0,0,1-.73-2,3.23,3.23,0,0,0-.27-1.1,2.12,2.12,0,0,0-.61-.62A6.13,6.13,0,0,0,119.47,89a17.92,17.92,0,0,1-2.83.17,10.26,10.26,0,0,1-1.65-.43,4.27,4.27,0,0,0-3.54.18c-1,.67-1.42,2-2.11,3a23.1,23.1,0,0,0-2,2.64v0a3,3,0,0,0-.26.7,5,5,0,0,0,.15,2.3,1.6,1.6,0,0,0,.57,1,3,3,0,0,0,1.21.24l0,.2a8,8,0,0,0,5.52,9.25v.21c0,.2,0,.4,0,.59h0s-3.5-.72-4.44-.23-2.79.87-3.07,1.13-1,.08-1.6,1.71-.69,3.29-1.51,4.06-1.22,1.29-1.25,1.84.1.7-.21.87-.76.9-.63,1.18a1,1,0,0,1-.38,1,1.15,1.15,0,0,0-.48,1s-.22.76-.7.94-.8,1.32-.8,1.32l-1.58,1.81-3.13-3.46a1.32,1.32,0,0,0-1.86-.09l-1.54,1.38a3.13,3.13,0,0,0-1.54.92,3.94,3.94,0,0,0-.79,1.18l-.84.76a2.14,2.14,0,0,0-.22,2.36l2,2.22v0a3.51,3.51,0,0,0-1.94.78c-3,2.65-3,5.08-2.58,6.19s4.25,5.38,4.25,5.38a16.83,16.83,0,0,0,5.39,4.39h0l0,0c-.06.06-.12.14-.18.21l0,.07-.05.07-.06.08a.43.43,0,0,0,0,.07l-.06.1,0,.06a.91.91,0,0,0-.07.14.08.08,0,0,0,0,0l-.09.18,0,.07,0,.14a.16.16,0,0,0,0,.09l0,.14,0,.1a1.13,1.13,0,0,1,0,.15.46.46,0,0,1,0,.09s0,.16,0,.25a.18.18,0,0,1,0,.1.74.74,0,0,0,0,.18.56.56,0,0,0,0,.13l0,.17v.13a.68.68,0,0,1,0,.2c0,.07,0,.08,0,.12v.34c-.07,4.06.17,4.65.17,4.65A2.27,2.27,0,0,0,96,157.27a2,2,0,0,0,.59,0c1.81-.31,6-1,7.55-.75a12.65,12.65,0,0,0,3.76-.31l.31-.06.22.69.68-.19.59.34.38.22c.68,2.32,3.47,1.53,3.47,1.53l.66.38,6.72.17a12.64,12.64,0,0,0,2.38,1.13,1.3,1.3,0,0,0,.34.08,14.9,14.9,0,0,0,1.89,0c.51,0,.91,0,.91,0s-.07-1.82-.17-3.87a54.31,54.31,0,0,0,6.23-.51c3.58-.62,5.08-3.89,5.63-5.63a15.68,15.68,0,0,1,.35,2.16,17.81,17.81,0,0,0,.56,1.89,6.26,6.26,0,0,0,.76,1.39c2.64-.9,1-2.27.48-2.85s.38-1.07.38-1.07.73-.49.66-.94-.1-.94,2.27-.9S145.8,148.2,145.8,148.2ZM109,126a18.31,18.31,0,0,0,.66,2.9,3.58,3.58,0,0,1,.08,1.13c-1.4-.11-2.86-.17-2.86-.17a.28.28,0,0,1,.07.17l-.22,0-.32-.08L109,126Zm-5.12,8.14,2.43.38.21,0a8.5,8.5,0,0,0-.13,1.13s0,.08.13.13a2.78,2.78,0,0,0,0,.58,6.84,6.84,0,0,0,2.47,1c0,.07,0,.14,0,.2h0c-1.15-.61-3-.89-3.17-1.34s-6.37-2.6-6.37-2.6l-.61-.31,1.62.31.44,0A24.81,24.81,0,0,0,103.92,134.17Z"/><path class="cls-18" d="M137.88,149.71s-1,5.83-5.86,6.7-21.26.69-21.26.69-9.35-1.35-12.73-9.25-5.56-11-2.64-11.18S113.92,142,114.81,142,138.74,130,137.88,149.71Z"/><path class="cls-13" d="M137.88,149.71s-1,5.83-5.86,6.7-21.26.69-21.26.69-9.35-1.35-12.73-9.25-5.56-11-2.64-11.18S113.92,142,114.81,142,138.74,130,137.88,149.71Z"/><path class="cls-14" d="M94,156.21a2.21,2.21,0,0,0,1.83,1.37,1.94,1.94,0,0,0,.59,0c1.8-.31,6-1,7.49-.76a12.72,12.72,0,0,0,3.72-.3c.78-.14,1.35-.28,1.35-.28s-1.38-4.59-1.55-4.73-6.21-3.78-6.21-3.78l-4.78-.34h0a2.56,2.56,0,0,0-1.63.95,5.13,5.13,0,0,0-1,3.26C93.79,155.61,94,156.21,94,156.21Z"/><path class="cls-13" d="M94,156.21a2.21,2.21,0,0,0,1.83,1.37,20.26,20.26,0,0,1-1.3-1.88l0-3.35a5.93,5.93,0,0,1,1.89-5h0s-2.52.17-2.59,4.21S94,156.21,94,156.21Z"/><path class="cls-19" d="M114.76,148.89l4.46-3.49,7-6.9-1.89-.09c-.28.18-1.08.76-1.11,1.44,0,.85-1.88.07-2.86.54s-5.69,6.54-6.51,6.5-1.49-.42-1.84.17l0,0Z"/><path class="cls-19" d="M94.82,148.32l.48.22c3.38,1.45,7.56,4.49,7.87,5a34.09,34.09,0,0,0,4.48,2.91c.78-.15,1.35-.29,1.35-.29s-1.38-4.59-1.55-4.73-6.21-3.77-6.21-3.77l-4.78-.35h0A2.57,2.57,0,0,0,94.82,148.32Z"/><path class="cls-18" d="M85.44,138.43c.44,1.1,4.21,5.35,4.21,5.35a16.34,16.34,0,0,0,5.76,4.53c3.38,1.43,7.55,4.49,7.86,5a35.39,35.39,0,0,0,4.8,3.09l.42.25.94.55.5.28,2.31-1.85c1.15-.94,2.27-1.85,2.27-1.89s.48-1.28.37-1.35-.29-.51-.72-1.07a5,5,0,0,0-1.76-1.45,5,5,0,0,1-2.27-2.37l-.38-.26a4.56,4.56,0,0,0-1.54-.69c-.76-.1-2.18-1.65-2.18-1.65a4.2,4.2,0,0,1-1.34-1.41c-.38-.76-5.72-4.43-6.21-4.77l13,8.33,3.1,2L119,145.6l7-6.9-2.31-.11c-3.4-.14-9.45-.37-10.2-.2a6,6,0,0,1-1.89.12,6.65,6.65,0,0,1-2.86-.52c-1.14-.6-2.94-.89-3.15-1.33s-6.31-2.58-6.31-2.58S91,129.66,88,132.28,85,137.32,85.44,138.43Z"/><path class="cls-20" d="M112.24,113.11l1.07,3.55,1.39,8,5.07.35,1.45-2.42,1.46-2.43s.92-3.24,1.58-6.36c.57-2.77.95-5.46.32-5.75s-.93-1.19-1.17-2.2c0-.12,0-.25-.08-.37a20.24,20.24,0,0,1-.34-2.58s-10.62-.55-9.14,3.83a6.88,6.88,0,0,1,.4,2.33,3.89,3.89,0,0,1,0,.6A5,5,0,0,1,112.24,113.11Z"/><path class="cls-21" d="M110,112.52l.38,6,.86,5.14,1,2.39.87,13s8.31,1,10.34,0a.88.88,0,0,0,.38-.28c2.44-3.69,1.64-14.38,1.64-14.38l.93-6.9-.62-3.58-1.51-.16-1.16-.13-.63.82c-1,1.35-2.91,4-2.78,5.12.17,1.51-.21,3.07-.8,3.31s-1.07.66-1.17.24a1.88,1.88,0,0,1-.1-1.1,9.17,9.17,0,0,0-.45-2.38,10,10,0,0,1-.86-3,3.66,3.66,0,0,0-.38-2.18c-.28-.24-.66-.48-.35-1.58s-1.36-3.26-1.36-3.26Z"/><path class="cls-19" d="M121,127.6l.34,10.31,2,1.11a.9.9,0,0,0,.38-.29c2.45-3.69,1.64-14.38,1.64-14.38l.94-6.9-.63-3.58-1.51-.16c.59-2.77,1-5.45.33-5.75s-.93-1.19-1.17-2.19h0l-1.07,7.3s.09.66.12,1.34a3.94,3.94,0,0,1-.09,1.28,4.38,4.38,0,0,0-.07,1.73,14.05,14.05,0,0,0-1.08,5.09C121,125.11,121,127.6,121,127.6Z"/><path class="cls-14" d="M123.38,105.59s1.74.22,2.29.94a3.22,3.22,0,0,0,2,.83,7.89,7.89,0,0,1,1.62.69c0,.14.48.35,1.51.62a6.92,6.92,0,0,1,2.76,1.52c0,.23,2.73,2.93,2.73,3.2a7,7,0,0,1,.72,3.14c-.1,1.83-.21,4.16.21,4.53s0,1.87,0,1.87a1,1,0,0,0,0,1.1c.35.62-.07,3.21-.07,3.21l0,2.69s-.38,1.69.07,1.76-.07.83-.07.83-.38,1.38.1,2,.62,3.28.62,3.28l7.39,10.73s.1,2-2.24,1.93-2.32.45-2.25.9-.65.93-.65.93-.93.48-.38,1.07,2.14,1.93-.49,2.83a6.59,6.59,0,0,1-.75-1.38A15.24,15.24,0,0,1,138,153s-.24-2.63-.73-3-.41-2-.41-2,.69-1.35-.28-1.89-15-8.31-15-8.31l-.34-10.32s-.24-7.63,1.21-10.18a4.38,4.38,0,0,1,.06-1.73,8.68,8.68,0,0,0,0-2.62Z"/><path class="cls-19" d="M114.33,109.75s-3.46-.72-4.4-.23-2.75.86-3,1.13-1,.07-1.59,1.69-.68,3.28-1.48,4-1.2,1.28-1.24,1.83.1.69-.21.86-.75.9-.62,1.17,7.18,6.35,7.18,6.35a16.56,16.56,0,0,0,.65,2.9c.31.59-.34,8.66-1,9.21s4.64.51,4.64.51.24-5.29.45-5.58a54.13,54.13,0,0,0-.14-5.93s0-4.83.42-6.11.37-5.52.37-5.52a11.46,11.46,0,0,1,.88-3.14C115.68,112.34,114.33,109.75,114.33,109.75Z"/><path class="cls-14" d="M114.23,109.65s-3.47-.72-4.4-.24-2.76.87-3,1.13-1,.07-1.59,1.7-.69,3.27-1.48,4-1.21,1.28-1.24,1.83.1.69-.21.86-.76.9-.62,1.17,7.17,6.35,7.17,6.35a16.59,16.59,0,0,0,.66,2.9c.32.59-.35,8.66-1,9.21s4.66.51,4.66.51.25-5.29.45-5.58a56.75,56.75,0,0,0-.14-5.93s0-4.83.42-6.11.4-5.52.4-5.52a11.19,11.19,0,0,1,.88-3.14C115.61,112.23,114.23,109.65,114.23,109.65Z"/><path class="cls-19" d="M113.87,106.73a7,7,0,0,1,.4,2.33,7.93,7.93,0,0,0,9.06-3.59,20.32,20.32,0,0,1-.34-2.57S112.38,102.34,113.87,106.73Z"/><path class="cls-20" d="M108.62,101.27a7.94,7.94,0,1,0,.18-1.64A7.56,7.56,0,0,0,108.62,101.27Z"/><path class="cls-14" d="M103.55,119.57l-1.89.58a1,1,0,0,1-.38,1,1.16,1.16,0,0,0-.48,1s-.2.76-.69.94-.79,1.31-.79,1.31l-1.59,1.82s-.59.49-.48.73-.62.31-.62.31l.37,6.14,3.28.62,2-.2,1.65-.62,1.45-.87.66-1.69,2.9-4.42Z"/><path class="cls-20" d="M97.1,127.8s-4.21-6.07-7.35-2.79,1.27,8.59,2.31,8.42,6-.45,6-.45Z"/><rect class="cls-14" x="85.28" y="117.04" width="17.11" height="22.03" rx="0.58" transform="translate(-62.88 153.41) rotate(-62.96)"/><rect class="cls-16" x="86.88" y="118.77" width="13.96" height="18.52" transform="translate(-62.84 153.43) rotate(-62.96)"/><circle class="cls-22" cx="84.98" cy="123.49" r="0.3"/><circle class="cls-22" cx="102.84" cy="132.64" r="0.5"/><path class="cls-20" d="M94.37,129.08c0,4.55,9.39,5.52,9.39,5.52l2.4.38,1.08.17.45-4.45s-.49-.08-1.11-.22c-.91-.21-2.09-.58-2.34-1.1C103.84,128.53,94.4,124.52,94.37,129.08Z"/><path class="cls-19" d="M108.8,99.63a.89.89,0,0,1,.57.26c.27.28.28.78.63,1a.64.64,0,0,0,.41,0c.92-.13,1.45-1.16,2.33-1.45a2.33,2.33,0,0,1,1.54.13,1.29,1.29,0,0,1,.52.33c.29.38.08.94.22,1.41.19.64,1,.89,1.62,1a2.91,2.91,0,0,1,1.85.63,1.74,1.74,0,0,1,.33,1.34,1.06,1.06,0,0,0,0,.5c.18.51,1.07.43,1.31,0s.12-.55.52-.63a1.72,1.72,0,0,1,.84.15,6.3,6.3,0,0,0,2.19.33,7.9,7.9,0,0,0-14.31-6.71,8,8,0,0,0-.57,1.71Z"/><path class="cls-14" d="M118.81,104.54a1.06,1.06,0,0,1,0-.5,1.64,1.64,0,0,0-.33-1.33,2.78,2.78,0,0,0-1.85-.63c-.66-.09-1.42-.34-1.61-1-.14-.46.07-1-.23-1.4a1,1,0,0,0-.51-.33,2.33,2.33,0,0,0-1.54-.14c-.89.29-1.41,1.32-2.33,1.45a.72.72,0,0,1-.41,0c-.35-.18-.38-.68-.63-1-.42-.44-1.22-.16-1.73-.49a1.56,1.56,0,0,1-.56-1,5.06,5.06,0,0,1-.15-2.29c.3-1.28,1.45-2.16,2.18-3.26s1.07-2.31,2.09-3a4.22,4.22,0,0,1,3.5-.18,9.43,9.43,0,0,0,1.64.43,17.67,17.67,0,0,0,2.81-.17,6,6,0,0,1,3.71,1.14,1.94,1.94,0,0,1,.6.61,3,3,0,0,1,.27,1.1,5.53,5.53,0,0,0,.73,2c.29.49.66.93.92,1.43a2.24,2.24,0,0,1,.25,1.64c-.09.28-.27.54-.34.83a3.11,3.11,0,0,0,.6,1.94,3.65,3.65,0,0,1,.4,1.84,2.27,2.27,0,0,1-.83,1.65,2.93,2.93,0,0,1-1.74.53,6.22,6.22,0,0,1-2.23-.33,1.78,1.78,0,0,0-.85-.15c-.4.08-.35.33-.52.63S119,105.06,118.81,104.54Z"/><path class="cls-19" d="M114.56,149.09l4.45-3.48,7-6.9-2.31-.11a1.57,1.57,0,0,0-.49.94c0,.85-1.89.06-2.86.55s-5.69,6.53-6.52,6.49-1.48-.42-1.83.16l0,0a1,1,0,0,1-.53.32Z"/><path class="cls-18" d="M105.58,148.85l2.24,7.14.35,1.13,1.07-.29,2.35-.64L122,153.32a9.06,9.06,0,0,0,3.78-1,11.34,11.34,0,0,1,6.5-1.41c1.38.12,2.92-.47,4.19-2.83,0,0,2.9-8.56-4.41-11s-7.67,1.31-7.67,1.31l-.1.06c-.28.18-1.08.75-1.11,1.44,0,.84-1.88.06-2.86.54s-5.69,6.53-6.51,6.49-1.49-.42-1.84.17l0,0c-.26.35-1,.43-1.53.45H110l-.07,0-.53.15Z"/><path class="cls-19" d="M106.16,135l1.08.17.45-4.45s-.49-.07-1.11-.22A23,23,0,0,1,106.16,135Z"/><path class="cls-19" d="M134.38,114.19s3.2-.94,2.41,8.17a25.41,25.41,0,0,1-6.73,14.87s-6.83,3-9.9,2.52-5.31-.59-5.31-.59a7.69,7.69,0,0,0-3.11-.82c-1.72-.07-5.34-1.14-5.41-1.49s.89-5.41.48-5.79c0,0,4.83.19,5.31.54s1.18.1,1.7,0a5.86,5.86,0,0,1,5.24-.27,3.09,3.09,0,0,0,1.48-.17,1.5,1.5,0,0,1,1.08-.07,2.71,2.71,0,0,0,.76-.38c.1-.13.93,0,.93,0a.38.38,0,0,0,.5-.19s0,0,0-.05a2.19,2.19,0,0,1,.48-.75s.93-5.25,2.69-7.21a1.13,1.13,0,0,0,.38-1C127.24,121,130.24,113.08,134.38,114.19Z"/><path class="cls-14" d="M134.29,113.48s3.21-.93,2.42,8.18A25.48,25.48,0,0,1,130,136.53s-6.83,3-9.9,2.52-5.32-.6-5.32-.6a7.6,7.6,0,0,0-3.1-.82c-1.73-.08-5.35-1.14-5.42-1.49s.9-5.41.49-5.8c0,0,4.83.2,5.31.55s1.17.1,1.69,0a5.86,5.86,0,0,1,5.24-.27,3.13,3.13,0,0,0,1.49-.17,1.49,1.49,0,0,1,1.08-.07,3.11,3.11,0,0,0,.75-.38c.1-.14.93,0,.93,0a.38.38,0,0,0,.5-.19l0-.05a2.33,2.33,0,0,1,.48-.76s.93-5.24,2.69-7.21a1.12,1.12,0,0,0,.38-1C127.15,120.25,130.15,112.39,134.29,113.48Z"/><path class="cls-19" d="M109.37,147.71l4.56,5.52,0,0c0-.11.48-1.28.38-1.35a6.51,6.51,0,0,0-2.49-2.52,4.76,4.76,0,0,1-1.95-1.77Z"/><path class="cls-19" d="M109.43,157.26l.5.28s1.16-.92,2.31-1.86,2.27-1.84,2.27-1.88.48-1.28.37-1.35-.29-.51-.72-1.07c-3.09-.86-1.14,1.28-.87,1.38a3.14,3.14,0,0,0-4,3.23A5.4,5.4,0,0,0,109.43,157.26Z"/><path class="cls-14" d="M113.24,159l.66.38,6.66.17a13.82,13.82,0,0,0,2.36,1.13,2,2,0,0,0,.33.08,14.44,14.44,0,0,0,1.86,0c.51,0,.9,0,.9,0s-.31-8.4-.55-9.28c-.11-.43-.67-.34-1.22-.13a8.45,8.45,0,0,0-1.2.61,20.52,20.52,0,0,0-3.27.52c-.45.24-1.73-.14-2.52,0s-2.21-.94-2.21-.94c-3.86-1.27-1.69,1.11-1.41,1.21a3.15,3.15,0,0,0-4,3.24C109.46,160.07,113.24,159,113.24,159Z"/><path class="cls-23" d="M122.87,155.75c.07,1.74,1.43,3.9,2.24,5,.51,0,.9,0,.9,0s-.31-8.39-.55-9.28c-.11-.42-.67-.33-1.22-.12A9.72,9.72,0,0,0,122.87,155.75Z"/><path class="cls-19" d="M122.87,155.75c.07,1.74,1.43,3.9,2.24,5,.51,0,.9,0,.9,0s-.31-8.39-.55-9.28c-.11-.42-.67-.33-1.22-.12A9.72,9.72,0,0,0,122.87,155.75Z"/><path class="cls-13" d="M121.73,156c.46,1.68.46,3.56,1.19,4.7a1.94,1.94,0,0,0,.33.07,14.44,14.44,0,0,0,1.86,0c.51,0,.9,0,.9,0s-.31-8.39-.55-9.28c-.11-.42-.67-.33-1.22-.12a7.52,7.52,0,0,0-1.2.61S121.15,153.83,121.73,156Z"/><path class="cls-19" d="M98.76,139a13.72,13.72,0,0,1,6.11,4.89Z"/><g class="cls-24"><path d="M125.64,97.55a.12.12,0,0,1,0,.08,1.78,1.78,0,0,1-.12.29A2.35,2.35,0,0,1,125.64,97.55Z"/><path d="M106.93,95.88a2.85,2.85,0,0,1,.25-.69,1.54,1.54,0,0,1-.05.17,5.06,5.06,0,0,0,.15,2.29,1.61,1.61,0,0,0,.56,1c.51.33,1.31,0,1.73.48.26.28.28.79.63,1a.64.64,0,0,0,.41,0c.92-.12,1.45-1.16,2.33-1.45a2.33,2.33,0,0,1,1.54.14,1,1,0,0,1,.51.33c.3.38.09.94.23,1.4.19.64,1,.9,1.61,1a2.8,2.8,0,0,1,1.85.63,1.66,1.66,0,0,1,.33,1.34,1,1,0,0,0,0,.49c.18.52,1.08.44,1.31,0s.12-.54.53-.63a1.72,1.72,0,0,1,.84.15,6.27,6.27,0,0,0,2.23.34,3.05,3.05,0,0,0,1.75-.53,1.89,1.89,0,0,0,.53-.66,2.13,2.13,0,0,1-.75,1.17,3,3,0,0,1-1.75.54,6.5,6.5,0,0,1-2.23-.34,1.72,1.72,0,0,0-.84-.15c-.41.09-.35.33-.52.63s-1.14.49-1.32,0a1.4,1.4,0,0,1,0-.5,1.64,1.64,0,0,0-.33-1.33,2.78,2.78,0,0,0-1.85-.63c-.66-.09-1.42-.34-1.61-1-.14-.46.07-1-.23-1.4a1,1,0,0,0-.51-.33,2.33,2.33,0,0,0-1.54-.14c-.88.29-1.41,1.32-2.33,1.45a.72.72,0,0,1-.41,0c-.35-.18-.38-.68-.63-1-.42-.44-1.21-.16-1.73-.49a1.59,1.59,0,0,1-.55-1A4.8,4.8,0,0,1,106.93,95.88Z"/></g><path class="cls-19" d="M126.17,123.5c-.63.85-1.35,1.64-1.91,2.54a4.85,4.85,0,0,0-.84,3,7.61,7.61,0,0,0,1.21-2.16,30.07,30.07,0,0,1,2.32-3.48c.15-.23,1.1-1.51.62-1.57S126.39,123.21,126.17,123.5Z"/><path class="cls-25" d="M129.57,204.32c.46,1.46.92,2.93,1.49,4.36a37.27,37.27,0,0,0,3.86,7,49.44,49.44,0,0,0,3.19,4.17c1.42,1.68,3,3.36,3.5,5.5a27.93,27.93,0,0,1,.31,3.78,4.66,4.66,0,0,0,1.56,3.35,5.67,5.67,0,0,0,2.56.84c.64.1,1.44.14,1.77-.42a1.52,1.52,0,0,0,.18-.73l.16-1.85c0-.4.17-.91.57-.93s.6.52.94.76a1,1,0,0,0,1.38-.48,2.32,2.32,0,0,0,0-1.62,7.7,7.7,0,0,0-4-4.91,12.15,12.15,0,0,1-1.93-1,6.55,6.55,0,0,1-1.51-1.92c-3.51-5.77-7-11.57-9.5-17.85a13.07,13.07,0,0,1-1-3.52,23.16,23.16,0,0,1,.15-3.72,21.4,21.4,0,0,0-.61-6.62,5.45,5.45,0,0,0-.63-1.61,3.6,3.6,0,0,0-4.91-.71,5.06,5.06,0,0,0-2,3.58c-.11,1.25.61,2.55,1,3.72Q127.9,198.92,129.57,204.32Z"/><path class="cls-13" d="M129.57,204.32c.46,1.46.92,2.93,1.49,4.36a37.27,37.27,0,0,0,3.86,7,49.44,49.44,0,0,0,3.19,4.17c1.42,1.68,3,3.36,3.5,5.5a27.93,27.93,0,0,1,.31,3.78,4.66,4.66,0,0,0,1.56,3.35,5.67,5.67,0,0,0,2.56.84c.64.1,1.44.14,1.77-.42a1.52,1.52,0,0,0,.18-.73l.16-1.85c0-.4.17-.91.57-.93s.6.52.94.76a1,1,0,0,0,1.38-.48,2.32,2.32,0,0,0,0-1.62,7.7,7.7,0,0,0-4-4.91,12.15,12.15,0,0,1-1.93-1,6.55,6.55,0,0,1-1.51-1.92c-3.51-5.77-7-11.57-9.5-17.85a13.07,13.07,0,0,1-1-3.52,23.16,23.16,0,0,1,.15-3.72,21.4,21.4,0,0,0-.61-6.62,5.45,5.45,0,0,0-.63-1.61,3.6,3.6,0,0,0-4.91-.71,5.06,5.06,0,0,0-2,3.58c-.11,1.25.61,2.55,1,3.72Q127.9,198.92,129.57,204.32Z"/><path class="cls-26" d="M107.55,266a5.15,5.15,0,0,0,2.13.26c.06-.59.85-.73,1.44-.7a1.68,1.68,0,0,1,.82.19c.15.1.26.23.4.33a1.78,1.78,0,0,0,.84.22l3.06.25a9.18,9.18,0,0,0,4.08-.26,1.38,1.38,0,0,0,.65-.44c.35-.5,0-1.21-.48-1.57s-1.1-.53-1.58-.9c-1.07-.81-1.22-2.33-1.78-3.55a10.3,10.3,0,0,0-1.47-2.12,7.82,7.82,0,0,0-1.44-1.49c-1.24-.88-2.65-.87-4.09-1-1-.09-2-.15-2.72.75-.9,1.13-.54,3.4-.48,4.72A35,35,0,0,0,107.55,266Z"/><path class="cls-13" d="M107.55,266a5.15,5.15,0,0,0,2.13.26c.06-.59.85-.73,1.44-.7a1.68,1.68,0,0,1,.82.19c.15.1.26.23.4.33a1.78,1.78,0,0,0,.84.22l3.06.25a9.18,9.18,0,0,0,4.08-.26,1.38,1.38,0,0,0,.65-.44c.35-.5,0-1.21-.48-1.57s-1.1-.53-1.58-.9c-1.07-.81-1.22-2.33-1.78-3.55a10.3,10.3,0,0,0-1.47-2.12,7.82,7.82,0,0,0-1.44-1.49c-1.24-.88-2.65-.87-4.09-1-1-.09-2-.15-2.72.75-.9,1.13-.54,3.4-.48,4.72A35,35,0,0,0,107.55,266Z"/><path class="cls-15" d="M108.79,206.37a2.13,2.13,0,0,0-1.17,2.44,8.88,8.88,0,0,0,1.24,2.67c1.36,2.44,2,5.24,3.1,7.79.86,1.89,2,3.66,2.86,5.57a9.53,9.53,0,0,1,.86,6.1c-.25,1-.73,1.89-1.05,2.86A15.37,15.37,0,0,0,114,237a61.64,61.64,0,0,0-.23,11.2,3.47,3.47,0,0,0,.28,1.32c.2.38.53.76.38,1.14-.06.15-.2.26-.27.42-.2.42.2.87.56,1.17a1,1,0,0,1-.61.46,1.43,1.43,0,0,1,.61,1.59c-.32,0-.34.53-.14.79s.52.42.66.71a1,1,0,0,1-.54,1.24,2.58,2.58,0,0,1-1.48.11,16,16,0,0,1-2.47-.55,1.8,1.8,0,0,1-1.45-1.85,28.6,28.6,0,0,1-.17-4.63c.14-7.49,0-15-.32-22.49a25.48,25.48,0,0,0-2.21-8.72,44.22,44.22,0,0,0-2.15-4.16c-1.68-3.08-3.17-6.5-2.78-10,0-.38.17-.83.55-.89a.87.87,0,0,1,.42.07,20.43,20.43,0,0,1,2.25,1.24A8.51,8.51,0,0,0,108.79,206.37Z"/><path class="cls-13" d="M108.79,206.37a2.13,2.13,0,0,0-1.17,2.44,8.88,8.88,0,0,0,1.24,2.67c1.36,2.44,2,5.24,3.1,7.79.86,1.89,2,3.66,2.86,5.57a9.53,9.53,0,0,1,.86,6.1c-.25,1-.73,1.89-1.05,2.86A15.37,15.37,0,0,0,114,237a61.64,61.64,0,0,0-.23,11.2,3.47,3.47,0,0,0,.28,1.32c.2.38.53.76.38,1.14-.06.15-.2.26-.27.42-.2.42.2.87.56,1.17a1,1,0,0,1-.61.46,1.43,1.43,0,0,1,.61,1.59c-.32,0-.34.53-.14.79s.52.42.66.71a1,1,0,0,1-.54,1.24,2.58,2.58,0,0,1-1.48.11,16,16,0,0,1-2.47-.55,1.8,1.8,0,0,1-1.45-1.85,28.6,28.6,0,0,1-.17-4.63c.14-7.49,0-15-.32-22.49a25.48,25.48,0,0,0-2.21-8.72,44.22,44.22,0,0,0-2.15-4.16c-1.68-3.08-3.17-6.5-2.78-10,0-.38.17-.83.55-.89a.87.87,0,0,1,.42.07,20.43,20.43,0,0,1,2.25,1.24A8.51,8.51,0,0,0,108.79,206.37Z"/><path class="cls-15" d="M96.13,197.26a2.47,2.47,0,0,0-3.41.38A18.58,18.58,0,0,0,91,199.19a9.41,9.41,0,0,0-2.1,9.32,18.3,18.3,0,0,0,2.57,4.58l2,2.93c3.11,4.47,6.23,8.94,9.49,13.3a.5.5,0,0,0,.35.48c.12,0,.27,0,.34.12a.45.45,0,0,1,0,.2,3,3,0,0,1-.18.95.4.4,0,0,0,0,.32c.11.25.55.11.69.34s0,.35-.14.47-.28.28-.26.45.33.38.32.6-.11.23-.19.33a.83.83,0,0,0,.1,1.07c.22,2.13-.94,4.16-1.17,6.28-.38,3.35,1.15,6.63,1.33,10a2.64,2.64,0,0,0,.21,1.11c.32.58,1.14.93,1.1,1.59a7.32,7.32,0,0,1-.23.8,5.35,5.35,0,0,0,.12,1.13c0,.38-.33.85-.68.7.26.89.5,1.79.71,2.69l7.14.59a6.18,6.18,0,0,0-.06-1.92c-.15-.7-.46-1.34-.62-2a2.33,2.33,0,0,1,.28-2,.8.8,0,0,1-.79-.65,3.19,3.19,0,0,1,0-1.11c.19-1.86-.59-3.7-.57-5.57a26.81,26.81,0,0,1,.8-4.33c.56-3.1,0-6.46,1.36-9.29.83-1.7,2-3.59,1-5.24-.46-.81-1.28-1.37-1.81-2.14a9,9,0,0,1-1-2.34,78.84,78.84,0,0,0-4.44-9.79,10.32,10.32,0,0,1-1-2.57,13.56,13.56,0,0,1-.12-2.38,35.56,35.56,0,0,0-.26-4.26,4.08,4.08,0,0,0-.52-1.77,3.9,3.9,0,0,0-1.13-1C101.45,199.51,98.66,198.59,96.13,197.26Z"/><path class="cls-26" d="M104.68,268.65a5.19,5.19,0,0,0,2.14.25c.05-.59.84-.72,1.43-.69a1.57,1.57,0,0,1,.82.19c.14.09.26.23.41.33a1.71,1.71,0,0,0,.83.21l3.06.26a9.34,9.34,0,0,0,4.08-.27,1.43,1.43,0,0,0,.65-.43c.35-.5,0-1.21-.48-1.58s-1.1-.53-1.58-.9c-1.07-.81-1.21-2.32-1.78-3.54a10.72,10.72,0,0,0-1.46-2.13,8.46,8.46,0,0,0-1.45-1.48c-1.23-.89-2.65-.87-4.09-1-1-.09-2-.15-2.71.76-.91,1.13-.55,3.39-.49,4.72A35,35,0,0,0,104.68,268.65Z"/><circle class="cls-25" cx="136.32" cy="177.83" r="7.07"/><path class="cls-25" d="M129.65,179.93c-1,.87-2.46.93-3.79,1.07a23.78,23.78,0,0,0-8.17,2.36,3.15,3.15,0,0,0-1,.65,2.77,2.77,0,0,0-.48,1,6.83,6.83,0,0,0-.27,2.46,7.23,7.23,0,0,0,.69,2.32,12.42,12.42,0,0,0,4.38,5,3.27,3.27,0,0,0,1.11.54c.93.19,1.83-.35,2.75-.59a4.45,4.45,0,0,1,2.53.08c.76.26,1.58.72,2.33.41a2.37,2.37,0,0,0,1.05-1.2,39,39,0,0,0,1.93-4.21c.21-.56.44-1.11.7-1.64.82-1.56,2.24-2.77,2.95-4.39a1,1,0,0,0,.06-.82,1.14,1.14,0,0,0-.52-.4,12.34,12.34,0,0,1-2.82-2.22c-.47-.44-1.32-1.65-2-1.75S130.16,179.49,129.65,179.93Z"/><path class="cls-2" d="M129.82,194.29a4.3,4.3,0,0,1-2.68,0,30.64,30.64,0,0,1-6.72-1.95,3.62,3.62,0,0,1-1.65-1.27,4.17,4.17,0,0,1-.46-1.58l-.38-2.64a16.32,16.32,0,0,1,.12-2.7.78.78,0,0,0-.15-.59.61.61,0,0,0-.47-.14c-1.06,0-1.7,1.13-2.44,1.88a4.53,4.53,0,0,1-1.51,1c-.68.28-1.52.47-1.8,1.15-.11.29-.1.61-.22.89-.47,1.13-2.5.76-3,1.89-.15.32-.14.71-.38,1s-.69.25-1.07.31c-1.47.24-2.19,1.94-3.45,2.75-1.06.68-2.43.66-3.57,1.19a13.15,13.15,0,0,1-1.87.95,9,9,0,0,1-2.15.11.53.53,0,0,0-.43.14.56.56,0,0,0-.07.47,13,13,0,0,0,8,10.07,2.77,2.77,0,0,1,.69.34c.64.48.75,1.51,1.48,1.85a1.52,1.52,0,0,0,1.55-.33,13.3,13.3,0,0,0,1.13-1.24,4.48,4.48,0,0,1,2.49-1.31,5.47,5.47,0,0,0,2.56-.57,8.34,8.34,0,0,0,.81-.87A5.1,5.1,0,0,1,116,204a18.52,18.52,0,0,1,5.83-1.28c1.86-.1,3.78.07,5.54-.54a3.28,3.28,0,0,0,1.23-.7,3.81,3.81,0,0,0,.83-1.43A11,11,0,0,0,129.82,194.29Z"/><path class="cls-2" d="M120.7,183.87c.53-.05,1,0,1.58,0s1.22-.15,1.84-.15a4.57,4.57,0,0,1,4.31,3.28.9.9,0,0,1,0,.46.34.34,0,0,1-.36.25,7.18,7.18,0,0,0-.8-1.59,4.49,4.49,0,0,0-2.37-1.66,6.1,6.1,0,0,0-2.91-.1,11.48,11.48,0,0,0-1.19.29l-1.89.52c-.35.09-.7.19-1,.31s-.7.46-1,.47-.07-.3.09-.5a2.46,2.46,0,0,1,1.23-.9A11.07,11.07,0,0,1,120.7,183.87Z"/><path class="cls-25" d="M125.47,205.11c.46,1.47.92,2.94,1.49,4.36a37,37,0,0,0,3.86,7,51.68,51.68,0,0,0,3.18,4.18c1.42,1.67,3,3.35,3.51,5.49a28.2,28.2,0,0,1,.31,3.78,4.67,4.67,0,0,0,1.55,3.35,5.75,5.75,0,0,0,2.57.84c.63.1,1.43.14,1.77-.42a1.67,1.67,0,0,0,.18-.73l.15-1.85c0-.4.18-.91.57-.93s.61.52.95.76a1,1,0,0,0,1.38-.48,2.32,2.32,0,0,0,0-1.62,7.68,7.68,0,0,0-4-4.91,11.82,11.82,0,0,1-1.93-1,6.39,6.39,0,0,1-1.51-1.91c-3.51-5.77-7-11.57-9.5-17.85a13.18,13.18,0,0,1-1-3.52,23.16,23.16,0,0,1,.15-3.72,21.1,21.1,0,0,0-.61-6.62,5.2,5.2,0,0,0-.63-1.61,3.59,3.59,0,0,0-4.91-.71,5,5,0,0,0-2,3.58c-.11,1.25.61,2.55,1,3.72C123.23,197.91,124.35,201.52,125.47,205.11Z"/><path class="cls-15" d="M146.61,172.82c0-.58-.47-1.13-1.07-1.51a13,13,0,0,1-1.82-1.11c-.54-.46-.83-1.07-1.37-1.53a6.21,6.21,0,0,0-2-1,15.62,15.62,0,0,0-4.88-.87,8.42,8.42,0,0,0-4.66,1.24,2.61,2.61,0,0,0-.8.75,3.2,3.2,0,0,0-.37,1.17,24,24,0,0,1-1.22,3.71,8.8,8.8,0,0,1-2.32,3.75c-1.33,1.09-3.35,1.73-4.22,3.06a1,1,0,0,0-.19.86c.12.33.52.56.89.77a12.14,12.14,0,0,1,4.95,4.74,5.49,5.49,0,0,1-.43,5.91c-.5.65-1.18,1.42-.7,2.08.76,1,3.29.42,3.87,1.47a2.08,2.08,0,0,1,.08,1.08c0,1.11,1.06,2.08,2.35,2.59a13.4,13.4,0,0,0,4.23.7,3.76,3.76,0,0,0,.11-2.74,1,1,0,0,1-.11-.62,1.41,1.41,0,0,1,.48-.6c1.55-1.47,1.22-3.62.29-5.36s-2.38-3.33-2.92-5.16a2.69,2.69,0,0,1,.46-2.69,8.38,8.38,0,0,1,1.33-1,5,5,0,0,0,1.87-2.34c.43-1.21.37-2.65,1.64-3.46s2.91-.54,4.25-1.05A4.6,4.6,0,0,0,146.61,172.82Z"/><path class="cls-27" d="M219.85,232c-5.76-2.39-7.46-4.11-7.46-7.56,0-2.64,1.17-5.69,6.27-5.69a14.41,14.41,0,0,1,8,2.26l1.66-4.38a17.64,17.64,0,0,0-8.61-2.32V207.9h-3.35v6.68c-6.09,1-9.62,5.17-9.62,10.66,0,5.76,3.4,8.81,10.17,11.46,4.9,2,7.46,4.25,7.46,7.89s-3.17,6.49-7.88,6.49a20.41,20.41,0,0,1-10.28-2.85l-1.59,4.44a19.34,19.34,0,0,0,10.13,2.91v6.69h5.69v-6.89c6.8-1.13,10.46-6,10.46-11.25C230.86,238.23,226.67,234.79,219.85,232Z"/><path class="cls-16" d="M214.72,260.76v-6.69a19.28,19.28,0,0,1-10.13-2.92l1.59-4.43a20.42,20.42,0,0,0,10.29,2.85c4.7,0,7.86-2.71,7.86-6.49s-2.58-5.89-7.48-7.88c-6.75-2.64-10.17-5.7-10.17-11.46,0-5.49,3.53-9.66,9.62-10.65V206.4h3.35v6.42a17.57,17.57,0,0,1,8.61,2.32l-1.66,4.37a14.37,14.37,0,0,0-8-2.27c-5.1,0-6.26,3-6.26,5.7,0,3.44,1.69,5.16,7.45,7.55,6.82,2.78,11,6.22,11,12.12,0,5.23-3.64,10.13-10.46,11.25v6.9Z"/></svg>