<svg id="Layer_1" data-name="Layer 1" xmlns="http://www.w3.org/2000/svg" xmlns:xlink="http://www.w3.org/1999/xlink" viewBox="0 0 428.75 330"><defs><style>.cls-1,.cls-10{fill:#ee4693;}.cls-1,.cls-11,.cls-5{opacity:0.1;}.cls-1,.cls-5{isolation:isolate;}.cls-2{fill:#d6d6e3;}.cls-3{fill:#aebee1;}.cls-4{fill:#535461;}.cls-6{fill:#e3edf9;}.cls-7{fill:url(#linear-gradient);}.cls-8{fill:#f8b9bf;}.cls-9{fill:#d9dfe8;}.cls-12{fill:#68739d;}.cls-13{fill:#6394e2;}.cls-14{fill:#b96b6b;}.cls-15{fill:none;stroke:#535461;stroke-miterlimit:10;stroke-width:0.77px;}.cls-16{fill:#10c0e8;}.cls-17{fill:url(#linear-gradient-2);}.cls-18{fill:#fa595f;}.cls-19{fill:#f37291;}.cls-20{fill:#96a2d0;}</style><linearGradient id="linear-gradient" x1="392.11" y1="-586.13" x2="392.11" y2="-389.16" gradientTransform="matrix(1, 0.09, 0.09, -1, -10.55, -356.06)" gradientUnits="userSpaceOnUse"><stop offset="0" stop-color="gray" stop-opacity="0.25"/><stop offset="0.54" stop-color="gray" stop-opacity="0.12"/><stop offset="1" stop-color="gray" stop-opacity="0.1"/></linearGradient><linearGradient id="linear-gradient-2" x1="150.58" y1="-636.26" x2="150.58" y2="-440.55" gradientTransform="matrix(1, 0, 0, -1, -39.7, -372.39)" xlink:href="#linear-gradient"/></defs><title>Artboard 27</title><path class="cls-1" d="M401.74,186.81c-15.8,23.76-11.8,56.79-3.85,83,2.68,8.75,5.71,18,3.91,27.69-2.2,11.84-11.17,21-20.37,26.06-16.75,9.31-36.2,8.54-50.63-2-12.46-9.1-20.94-24.63-33.66-33.28-21.27-14.44-49.67-6.72-74.2,5.69-17.35,8.76-36.4,19.94-52.84,12.93-11.57-4.93-19.07-18.23-22.8-32.58-1.8-6.93-3-14.48-6.81-19.82a25.43,25.43,0,0,0-8.53-7.13c-29-16.35-67.18-4.26-95.21-22.65-18.91-12.4-30.16-37.32-34.36-63.78s-2.13-54.6.67-82.29c2-19.68,4.85-40.73,15.83-56.5C30.5,5.43,49.34-1.67,66,.33S97.17,12.24,109.89,24.2c15.89,14.93,30.36,33.85,50.54,39,13.74,3.54,28.54.22,43-1.53,24.15-2.89,48.07-1.28,71.83.63,22.76,1.83,45.66,4,67,11.77,15.12,5.52,26.92,16.5,41.09,23.81,9.24,4.77,19.53,5.6,28.19,11.86,10.67,7.71,20.1,21.69,16.39,39C424.41,165.19,410.12,174.18,401.74,186.81Z"/><rect class="cls-1" x="337" y="98.11" width="15.64" height="23.68"/><rect class="cls-1" x="338.52" y="100.41" width="12.6" height="19.08"/><rect class="cls-1" x="305.24" y="81.66" width="24.03" height="23.68"/><rect class="cls-1" x="307.58" y="83.96" width="19.36" height="19.08"/><rect class="cls-1" x="24.73" y="46.42" width="73.44" height="1.96"/><rect class="cls-1" x="24.73" y="55.98" width="73.44" height="1.96"/><rect class="cls-2" x="148.62" y="173.18" width="7.5" height="83.84"/><path class="cls-3" d="M375.27,182V104.64a8.14,8.14,0,0,1,8.14-8.12h0a8.12,8.12,0,0,1,8.11,8.12v93.6a8.13,8.13,0,0,1-8.13,8.13H333a8.13,8.13,0,0,1-8.13-8.13h0a8.13,8.13,0,0,1,8.13-8.13h34.1A8.13,8.13,0,0,0,375.27,182Z"/><path class="cls-4" d="M375.27,182V104.64a8.14,8.14,0,0,1,8.14-8.12h0a8.12,8.12,0,0,1,8.11,8.12v93.6a8.13,8.13,0,0,1-8.13,8.13H333a8.13,8.13,0,0,1-8.13-8.13h0a8.13,8.13,0,0,1,8.13-8.13h34.1A8.13,8.13,0,0,0,375.27,182Z"/><path class="cls-2" d="M324.92,197.81a8.13,8.13,0,0,1,8.12-7.7h34.1a8.13,8.13,0,0,0,8.13-8.13h0V104.64A8.13,8.13,0,0,1,383,96.52V197.81Z"/><path class="cls-3" d="M73.65,184.59V107.25a8.13,8.13,0,0,0-8.11-8.13h0a8.13,8.13,0,0,0-8.13,8.13v93.6A8.13,8.13,0,0,0,65.52,209h50.37a8.13,8.13,0,0,0,8.13-8.13h0a8.13,8.13,0,0,0-8.13-8.13H81.79a8.15,8.15,0,0,1-8.14-8.13Z"/><path class="cls-4" d="M73.65,184.59V107.25a8.13,8.13,0,0,0-8.11-8.13h0a8.13,8.13,0,0,0-8.13,8.13v93.6A8.13,8.13,0,0,0,65.52,209h50.37a8.13,8.13,0,0,0,8.13-8.13h0a8.13,8.13,0,0,0-8.13-8.13H81.79a8.15,8.15,0,0,1-8.14-8.13Z"/><path class="cls-2" d="M124,200.42a8.13,8.13,0,0,0-8.12-7.7H81.79a8.15,8.15,0,0,1-8.14-8.13h0V107.25a8.14,8.14,0,0,0-7.72-8.12V200.42Z"/><rect class="cls-2" x="297.06" y="173.18" width="7.5" height="85.8"/><rect class="cls-5" x="148.62" y="173.18" width="7.5" height="6.2"/><rect class="cls-5" x="297.06" y="173.18" width="7.5" height="6.2"/><path class="cls-5" d="M175.41,122.12q-.18,2-.45,4H173.9v-4Z"/><path class="cls-4" d="M206.16,163.85a2.33,2.33,0,0,1-2.17,2.48h-22.9v-2.39h19a1.2,1.2,0,0,0,.92-1.79L183.79,127a1.54,1.54,0,0,0-1.34-.87H173.9v-4h10.79a1.08,1.08,0,0,1,.94.61L205.44,161A6.65,6.65,0,0,1,206.16,163.85Z"/><path class="cls-4" d="M164.1,157.48l-.31.53-2.94-2,9.08-69.81h2.34s.1.32.25.93C174.09,93.2,181.77,127.37,164.1,157.48Z"/><path class="cls-5" d="M172.52,87.17l-8.42,70.31-.31.53-2.94-2,9.08-69.81h2.34Z"/><rect class="cls-2" x="129.05" y="119.02" width="72.42" height="5.55" transform="translate(24.67 271.4) rotate(-83.17)"/><path class="cls-6" d="M139.32,163.88a.65.65,0,0,1-.65.65h-1a.65.65,0,0,1-.66-.65v-.08a.66.66,0,0,1,.65-.57h1a.65.65,0,0,1,.63.5A.4.4,0,0,1,139.32,163.88Z"/><path class="cls-6" d="M142.25,163.88a.65.65,0,0,1-.65.65h-1a.65.65,0,0,1-.65-.65,1.1,1.1,0,0,1,0-.18.62.62,0,0,1,.17-.28.64.64,0,0,1,.46-.19h1a.67.67,0,0,1,.6.38A.86.86,0,0,1,142.25,163.88Z"/><path class="cls-6" d="M144.86,163.88a.65.65,0,0,1-.65.65h-1a.65.65,0,0,1-.65-.65.5.5,0,0,1,0-.27.66.66,0,0,1,.6-.38h1a.64.64,0,0,1,.65.64Z"/><path class="cls-6" d="M147.8,163.88a.65.65,0,0,1-.65.65h-1a.66.66,0,0,1-.66-.65.71.71,0,0,1,.12-.37l.08-.09a.66.66,0,0,1,.46-.19h1a.64.64,0,0,1,.47.21A.62.62,0,0,1,147.8,163.88Z"/><path class="cls-5" d="M139.3,163.72a.88.88,0,0,1,0,.16.65.65,0,0,1-.65.65h-1a.65.65,0,0,1-.66-.65v-.08Z"/><path class="cls-5" d="M142.2,163.62a.58.58,0,0,1,.05.26.65.65,0,0,1-.65.65h-1a.65.65,0,0,1-.65-.65,1.1,1.1,0,0,1,0-.18Z"/><path class="cls-5" d="M144.77,163.53a.71.71,0,0,1,.1.35.66.66,0,0,1-.66.65h-1a.65.65,0,0,1-.65-.65.6.6,0,0,1,.06-.27Z"/><path class="cls-5" d="M147.8,163.88a.65.65,0,0,1-.65.65h-1a.66.66,0,0,1-.66-.65.71.71,0,0,1,.12-.37l2-.07A.6.6,0,0,1,147.8,163.88Z"/><path class="cls-2" d="M153.67,166.49H134.75v-.86a1.46,1.46,0,0,1,1.42-1.47l15.18-.53a2.25,2.25,0,0,1,2.32,2.17s0,0,0,.08Z"/><path class="cls-4" d="M247,163.85a2.33,2.33,0,0,0,2.17,2.48h22.91v-2.39H253a1.2,1.2,0,0,1-.92-1.79L269.37,127a1.54,1.54,0,0,1,1.34-.87h8.55v-4H268.48a1.08,1.08,0,0,0-.92.6L247.75,161A6.68,6.68,0,0,0,247,163.85Z"/><path class="cls-4" d="M289.07,157.48l.32.53,2.93-2-9.08-69.81h-2.33s-.1.32-.26.93C279.08,93.2,271.38,127.37,289.07,157.48Z"/><path class="cls-5" d="M280.65,87.17l8.42,70.31.31.53,2.94-2-9.08-69.81h-2.33S280.81,86.57,280.65,87.17Z"/><rect class="cls-2" x="285.15" y="85.58" width="5.55" height="72.42" transform="translate(-12.44 35.1) rotate(-6.83)"/><path class="cls-6" d="M313.85,163.88a.66.66,0,0,0,.66.65h1a.65.65,0,0,0,.65-.65h0v-.08a.66.66,0,0,0-.65-.57h-1a.66.66,0,0,0-.63.5Z"/><path class="cls-6" d="M310.92,163.88a.65.65,0,0,0,.65.65h1a.66.66,0,0,0,.66-.65h0a1.13,1.13,0,0,0,0-.18.62.62,0,0,0-.17-.28.64.64,0,0,0-.46-.19h-1a.65.65,0,0,0-.6.38A.51.51,0,0,0,310.92,163.88Z"/><path class="cls-6" d="M308.31,163.88a.65.65,0,0,0,.65.65h1a.66.66,0,0,0,.66-.65h0a.63.63,0,0,0-.06-.27.66.66,0,0,0-.59-.38h-1a.64.64,0,0,0-.66.64Z"/><path class="cls-6" d="M305.37,163.88a.65.65,0,0,0,.65.65h1a.66.66,0,0,0,.66-.65.63.63,0,0,0-.12-.37l-.08-.09a.64.64,0,0,0-.46-.19h-1a.64.64,0,0,0-.47.21A.62.62,0,0,0,305.37,163.88Z"/><path class="cls-5" d="M313.87,163.72a.88.88,0,0,0,0,.16.66.66,0,0,0,.66.65h1a.65.65,0,0,0,.65-.65h0v-.08Z"/><path class="cls-5" d="M311,163.62a.75.75,0,0,0-.05.26.65.65,0,0,0,.65.65h1a.66.66,0,0,0,.66-.65h0a1.13,1.13,0,0,0,0-.18Z"/><path class="cls-5" d="M308.4,163.53a.71.71,0,0,0-.1.35.66.66,0,0,0,.66.65h1a.65.65,0,0,0,.65-.65h0a.6.6,0,0,0-.06-.27Z"/><path class="cls-5" d="M305.37,163.88a.65.65,0,0,0,.65.65h1a.66.66,0,0,0,.66-.65.63.63,0,0,0-.12-.37l-2-.07A.6.6,0,0,0,305.37,163.88Z"/><path class="cls-2" d="M299.5,166.49h18.92v-.86a1.46,1.46,0,0,0-1.42-1.47l-15.18-.53a2.25,2.25,0,0,0-2.32,2.17v.69Z"/><path class="cls-7" d="M378.69,176.86c8.83-15,5.63-45.17,6-45.75s-.9-14.73-9-18.2c-1.47-2.9-2.91-6.18-2.91-6.18a2,2,0,0,1-.47.35l-.19-.52c-.1-.31-.2-.62-.29-.93a5.84,5.84,0,0,0,.69.18,2.87,2.87,0,0,0,1.85-.17,1.9,1.9,0,0,0,.53-.4,4,4,0,0,0,1.29-1.92l2.36-5.65a43.7,43.7,0,0,0,2.71-7.83,22,22,0,0,0-.95-12.19,7.7,7.7,0,0,0-2.64-3.85c-2.63-1.79-6.29-.55-9.29-1.6-1-.34-1.88-.92-2.86-1.28a8.85,8.85,0,0,0-6.59.6,31.4,31.4,0,0,0-5.51,3.83c-.88.67-2.29,1.37-3.33,2.29a3.36,3.36,0,0,0-1.64,3c.17,1.43,1.68,2.29,3.09,2.63l.71.14a13.77,13.77,0,0,0,5.88,22.88,31.86,31.86,0,0,1,1.86,4.18l.2.59a24.39,24.39,0,0,0-4.5,1.51c-1.09.91,1.21,8.88,1.21,8.88-.59.75-1.19,1.59-1.79,2.5a53.64,53.64,0,0,0-8.48,23.17c-.38,3-.88,6.12-1.51,9.07l-27.42-5.5-.06.68-.65-.17h0l-2.06-.5-.08.46-.32-.15c-5.1-2.39-13.69-5.44-19.51-2.3-6.14,3.31,7.11,7.7,15.62,10a13.77,13.77,0,0,0-7.65,2.4c-6.17,4.62,11.27,7,19.51,7.88l.33,0v.18l2.86.26.67.07.06,1s4.09.67,9.55,1.48a166,166,0,0,1-19.29,3.27,14.13,14.13,0,0,0-12,10.12,9.05,9.05,0,0,0-.14,4.87c1.6,5.56-.35,46.45-.79,55.26l-10.08,5.81s-15.69,1.91-5.24,5.59a22.2,22.2,0,0,0,2.88.76c-1.37.89-1.25,2.05,2.81,3.47,10.45,3.67,34.76-.16,34.76-.16s-.53-4.31-1.4-7.89l.27,0s-2.51-9.34,1.3-14.05-.64-40.55-.64-40.55,6.66-2.76,26.58-2.94c16.07,4.12,23.91-10.64,23.8-18.27A3.07,3.07,0,0,1,378.69,176.86Z"/><path class="cls-8" d="M319.3,153.66l-1.7,6.89s-1.53-.35-3.82-.94c-7.78-2-24.18-6.84-17.6-10.39,5.66-3.06,14-.08,19,2.24,1.81.85,3.18,1.62,3.79,2Z"/><path class="cls-5" d="M318.83,155.6l-1.23,5s-1.53-.35-3.82-.93l1.38-8.16c1.81.86,3.17,1.62,3.78,2Z"/><polygon class="cls-9" points="318.83 161.05 314.08 159.88 315.55 151.17 319.35 152.1 318.83 161.05"/><polygon class="cls-5" points="318.83 161.05 316.78 160.54 317.55 151.66 319.35 152.1 318.83 161.05"/><path class="cls-10" d="M364.68,125s-9.12-5.27-13.18,9.85-4.44,22.09-4.44,22.09l-28.82-5.76-.91,10.53s30.81,9.95,34.69,9.22,16.45-21.81,16.45-21.81S379.9,132.76,364.68,125Z"/><g class="cls-11"><path d="M319.3,153.66l-1.7,6.89s-1.53-.35-3.82-.94c-7.78-2-24.18-6.84-17.6-10.39,5.66-3.06,14-.08,19,2.24,1.81.85,3.18,1.62,3.79,2Z"/><path class="cls-5" d="M318.83,155.6l-1.23,5s-1.53-.35-3.82-.93l1.38-8.16c1.81.86,3.17,1.62,3.78,2Z"/><polygon points="318.83 161.05 314.08 159.88 315.55 151.17 319.35 152.1 318.83 161.05"/><polygon class="cls-5" points="318.83 161.05 316.78 160.54 317.55 151.66 319.35 152.1 318.83 161.05"/><path d="M364.68,125.36s-9.12-5.27-13.18,9.86-4.44,22.09-4.44,22.09l-28.82-5.76-.91,10.52s30.81,10,34.69,9.23,16.45-21.81,16.45-21.81S379.9,133.15,364.68,125.36Z"/></g><path class="cls-12" d="M306.64,242.17,294.87,249s-15.24,1.87-5.08,5.42,33.76-.15,33.76-.15-1.32-10.61-3.14-12.09S306.64,242.17,306.64,242.17Z"/><path class="cls-13" d="M352.49,166.15a81.68,81.68,0,0,1-16.25,5.7,162.87,162.87,0,0,1-19,3.24,13.69,13.69,0,0,0-11.68,9.81,8.78,8.78,0,0,0-.14,4.74c1.74,6.06-.85,55.29-.85,55.29l17.87,1.65s-2.44-9.07,1.26-13.64-.62-39.37-.62-39.37,6.48-2.68,25.82-2.86c17.92,4.59,25.31-15,22.54-20.52S352.49,166.15,352.49,166.15Z"/><g class="cls-11"><path d="M306.64,242.17,294.87,249s-15.24,1.87-5.08,5.42,33.76-.15,33.76-.15-1.32-10.61-3.14-12.09S306.64,242.17,306.64,242.17Z"/><path d="M352.49,166.15a81.68,81.68,0,0,1-16.25,5.7,162.87,162.87,0,0,1-19,3.24,13.69,13.69,0,0,0-11.68,9.81,8.78,8.78,0,0,0-.14,4.74c1.74,6.06-.85,55.29-.85,55.29l17.87,1.65s-2.44-9.07,1.26-13.64-.62-39.37-.62-39.37,6.48-2.68,25.82-2.86c17.92,4.59,25.31-15,22.54-20.52S352.49,166.15,352.49,166.15Z"/></g><path class="cls-12" d="M312.16,246.29l-11.77,6.77s-15.23,1.85-5.09,5.43,33.76-.16,33.76-.16-1.31-10.61-3.14-12.09S312.16,246.29,312.16,246.29Z"/><path class="cls-13" d="M354.41,194.83c-19.35.17-25.82,2.85-25.82,2.85s4.32,34.82.62,39.37S328,250.7,328,250.7L310.08,249s0-.58.08-1.62c.43-8.55,2.31-48.27.76-53.67a8.7,8.7,0,0,1,.14-4.72,13.7,13.7,0,0,1,11.67-9.83,158.76,158.76,0,0,0,19-3.24l.3-.08a80.74,80.74,0,0,0,16-5.63s16.19-1.45,18.95,4.05a6.46,6.46,0,0,1,.57,2.77C377.64,184.49,370,198.83,354.41,194.83Z"/><path class="cls-8" d="M327.46,162.24l-.65,7.08s-1.58-.11-3.91-.35c-8-.83-24.93-3.17-18.94-7.66,5.15-3.85,13.84-2.17,19.09-.61,1.91.58,3.38,1.13,4,1.39Z"/><path class="cls-8" d="M375,116s-2.39,1.87-5.32,3.93c-3.21.73-6.93,1.33-9.62,1.72,1-3.06.38-6.51-.7-9.52a35.9,35.9,0,0,0-4.8-8.84l16.19-5.05c-1.27,3.22-.7,6.89.38,10.08A33.55,33.55,0,0,0,375,116Z"/><path class="cls-5" d="M327.28,164.24l-.47,5.08s-1.58-.11-3.91-.35l.15-8.27c1.91.57,3.38,1.13,4,1.39Z"/><polygon class="cls-9" points="328.09 169.62 323.22 169.17 323.38 160.34 327.28 160.7 328.09 169.62"/><path class="cls-5" d="M375,116s-2.39,1.87-5.32,3.93c-3.21.73-6.93,1.33-9.62,1.72,1-3.06.38-6.51-.7-9.52,4-1.15,9.61-2.64,11.78-3.83A33.65,33.65,0,0,0,375,116Z"/><path class="cls-9" d="M371.75,108.46s2.71,6.15,4.41,8.93-19.82,5.35-19.82,5.35-2.24-7.74-1.17-8.62S370,110.26,371.75,108.46Z"/><path class="cls-5" d="M377.53,177.08a19.89,19.89,0,0,1-3.35,4.34c-9.51,9-25.11-.39-32.14-5.54A80.78,80.78,0,0,0,358,170.25s16.19-1.45,19,4.05A6.63,6.63,0,0,1,377.53,177.08Z"/><path class="cls-10" d="M374.24,180.77c-10.81,10.27-29.46-3.33-34.49-7.34-.81-.65-1.27-1.05-1.27-1.05,2-1.86,3.73-5.8,5.11-10.62a92.38,92.38,0,0,0,2.78-14.07,52.22,52.22,0,0,1,8.24-22.51,29.14,29.14,0,0,1,1.73-2.42c4.08-5.19,10.94-8.49,10.94-8.49,14.48-4.23,16.43,17.24,16,17.86S386.81,168.83,374.24,180.77Z"/><path class="cls-5" d="M375.64,151.41s-9.31,22.73-13,24c-2.13.73-13.52-.67-22.86-2-.81-.65-1.27-1.05-1.27-1.05,2-1.86,3.73-5.8,5.11-10.63l12,.58s-.67-6.94,1.1-22.51,11.57-11.7,11.57-11.7C384.5,133.56,375.64,151.41,375.64,151.41Z"/><polygon class="cls-5" points="328.09 169.62 325.99 169.42 325.43 160.53 327.28 160.7 328.09 169.62"/><path class="cls-10" d="M368.06,127.12s-9.8-3.85-11.57,11.71-1.1,22.51-1.1,22.51L326,159.93l.67,10.55s31.95,5.24,35.67,4,13-24,13-24S384.25,132.55,368.06,127.12Z"/><path class="cls-5" d="M368.71,104.08c-.43-2.32,2-2.29,2.88-4.48l-16.2,5.05a35.34,35.34,0,0,1,3,4.77,13.37,13.37,0,0,0,2.58.5C364.83,110.29,366,106.49,368.71,104.08Z"/><circle class="cls-8" cx="361.33" cy="95.21" r="13.38" transform="translate(233.28 446.24) rotate(-84.72)"/><path class="cls-5" d="M348.13,83.12c.17,1.4,1.64,2.25,3,2.56s2.85.33,4.05,1.06c1.91,1.18,2.43,3.8,2.19,6.05-.14,1.27-.33,2.82.71,3.56a2.75,2.75,0,0,0,1.07.38,10.16,10.16,0,0,0,3.3.12,4.57,4.57,0,0,1,1.91,0,2.89,2.89,0,0,1,1.79,2.37c.2,1,.09,2.08.25,3.11a6.47,6.47,0,0,0,5.09,5.26,2.84,2.84,0,0,0,1.8-.16,3.56,3.56,0,0,0,1.41-2l2.3-5.5a43.7,43.7,0,0,0,2.63-7.59,21.43,21.43,0,0,0-.92-11.84,7.56,7.56,0,0,0-2.57-3.75c-2.55-1.73-6.12-.53-9-1.53-1-.33-1.82-.9-2.78-1.24a8.55,8.55,0,0,0-6.4.58,31,31,0,0,0-5.36,3.73C351.06,79.47,347.85,80.72,348.13,83.12Z"/><path class="cls-14" d="M348.49,82.83c.16,1.39,1.63,2.24,3,2.56s2.85.32,4,1.06c1.91,1.17,2.43,3.79,2.19,6-.14,1.27-.33,2.83.71,3.57a2.75,2.75,0,0,0,1.07.38,9.89,9.89,0,0,0,3.3.11,4.79,4.79,0,0,1,1.92,0,2.93,2.93,0,0,1,1.79,2.37c.19,1,.08,2.09.24,3.12a6.47,6.47,0,0,0,5.1,5.25,2.79,2.79,0,0,0,1.8-.16,3.62,3.62,0,0,0,1.41-2l2.29-5.49A42.19,42.19,0,0,0,380,92a21.35,21.35,0,0,0-.92-11.84,7.58,7.58,0,0,0-2.56-3.74c-2.56-1.74-6.13-.54-9-1.53-1-.34-1.82-.9-2.78-1.24a8.55,8.55,0,0,0-6.4.58A30.47,30.47,0,0,0,352.93,78C351.42,79.17,348.2,80.42,348.49,82.83Z"/><path class="cls-5" d="M359.57,135.67s-5.11,19.84-10.2,21.68-2.84,2.36-2.84,2.36"/><rect class="cls-2" x="354.25" y="208.36" width="5.55" height="36.49"/><rect class="cls-5" x="354.25" y="208.36" width="5.55" height="2.71"/><path class="cls-2" d="M343.15,208.17v.76a1.8,1.8,0,0,0,1.79,1.8h24.18a1.8,1.8,0,0,0,1.79-1.8h0v-.76a1.8,1.8,0,0,0-1.79-1.8H344.94a1.8,1.8,0,0,0-1.79,1.8Z"/><path class="cls-5" d="M343.56,207H370.5a1.78,1.78,0,0,0-1.38-.66H344.94A1.78,1.78,0,0,0,343.56,207Z"/><rect class="cls-2" x="334.23" y="242.86" width="45.61" height="4.36" rx="2.1"/><circle class="cls-4" cx="377.26" cy="250" r="2.78"/><circle class="cls-4" cx="336.8" cy="250" r="2.78"/><circle class="cls-4" cx="357.03" cy="250" r="2.78"/><rect class="cls-2" x="351.13" y="163.54" width="43.63" height="6.74" rx="3.25"/><path class="cls-5" d="M359.81,242.86s-2.18,2.16-5.56,0"/><path class="cls-5" d="M394.76,167v.53a2.78,2.78,0,0,1-2.77,2.78H353.91a2.78,2.78,0,0,1-2.78-2.78V167Z"/><rect class="cls-2" x="314.67" y="173.18" width="7.5" height="95.6"/><rect class="cls-5" x="314.67" y="173.18" width="7.5" height="6.2"/><rect class="cls-2" x="89.13" y="210.97" width="5.55" height="36.49"/><rect class="cls-5" x="89.13" y="210.97" width="5.55" height="2.71"/><path class="cls-2" d="M105.78,210.78v.77a1.79,1.79,0,0,1-1.79,1.79H79.81A1.79,1.79,0,0,1,78,211.55h0v-.77A1.79,1.79,0,0,1,79.81,209H104a1.79,1.79,0,0,1,1.79,1.8h0Z"/><path class="cls-5" d="M105.37,209.64H78.43a1.79,1.79,0,0,1,1.38-.64H104A1.79,1.79,0,0,1,105.37,209.64Z"/><rect class="cls-2" x="69.1" y="245.47" width="45.61" height="4.36" rx="2.1"/><circle class="cls-4" cx="71.68" cy="252.61" r="2.78"/><circle class="cls-4" cx="112.13" cy="252.61" r="2.78"/><circle class="cls-4" cx="91.9" cy="252.61" r="2.78"/><path class="cls-5" d="M89.13,245.47s2.18,2.15,5.55,0"/><path class="cls-15" d="M230.75,135.63s-6.22-11.33-3.95-21.17a19.55,19.55,0,0,0-1.09-12.33,32.93,32.93,0,0,0-2.92-5.26"/><path class="cls-10" d="M224.17,90.66c.33,1.48-1.41,6.38-1.41,6.38s-3.63-3.72-4-5.2a2.75,2.75,0,1,1,5.26-1.6,3.15,3.15,0,0,1,.09.42Z"/><path class="cls-10" d="M230.42,97.9c-.53,1.42-4.65,4.59-4.65,4.59s-1-5.09-.5-6.5a2.75,2.75,0,1,1,5.23,1.7c0,.07-.05.14-.07.21Z"/><path class="cls-10" d="M233.31,112c-1.17,1-6.33,1.61-6.33,1.61s1.68-4.92,2.86-5.88a2.75,2.75,0,0,1,3.51,4.24Z"/><path class="cls-10" d="M233.1,123.14c-1,1.14-6,2.65-6,2.65s.83-5.12,1.83-6.27a2.75,2.75,0,1,1,4.25,3.49l-.11.13Z"/><path class="cls-10" d="M220.19,104c1.29.8,6.49.77,6.49.77s-2.3-4.66-3.59-5.46a2.75,2.75,0,0,0-3,4.6.57.57,0,0,1,.13.08Z"/><path class="cls-10" d="M220.11,117.06c1.48.38,6.42-1.2,6.42-1.2s-3.58-3.75-5.05-4.13a2.75,2.75,0,0,0-1.37,5.33Z"/><path class="cls-10" d="M221.77,129.74c1.39.62,6.53-.09,6.53-.09s-2.9-4.31-4.28-4.93a2.76,2.76,0,1,0-2.25,5Z"/><path class="cls-16" d="M224.17,90.66c.33,1.48-1.41,6.38-1.41,6.38s-3.63-3.72-4-5.2a2.75,2.75,0,1,1,5.26-1.6,3.15,3.15,0,0,1,.09.42Z"/><path class="cls-16" d="M230.42,97.9c-.53,1.42-4.65,4.59-4.65,4.59s-1-5.09-.5-6.5a2.75,2.75,0,1,1,5.23,1.7c0,.07-.05.14-.07.21Z"/><path class="cls-16" d="M233.31,112c-1.17,1-6.33,1.61-6.33,1.61s1.68-4.92,2.86-5.88a2.75,2.75,0,0,1,3.51,4.24Z"/><path class="cls-16" d="M233.1,123.14c-1,1.14-6,2.65-6,2.65s.83-5.12,1.83-6.27a2.75,2.75,0,1,1,4.25,3.49l-.11.13Z"/><path class="cls-16" d="M220.19,104c1.29.8,6.49.77,6.49.77s-2.3-4.66-3.59-5.46a2.75,2.75,0,0,0-3,4.6.57.57,0,0,1,.13.08Z"/><path class="cls-16" d="M220.11,117.06c1.48.38,6.42-1.2,6.42-1.2s-3.58-3.75-5.05-4.13a2.75,2.75,0,0,0-1.37,5.33Z"/><path class="cls-16" d="M221.77,129.74c1.39.62,6.53-.09,6.53-.09s-2.9-4.31-4.28-4.93a2.76,2.76,0,1,0-2.25,5Z"/><path class="cls-16" d="M228.22,167h0a6.56,6.56,0,0,1-6.56-6.56c0-.14,0-.28,0-.42l1.83-29h9.43l1.83,29a6.56,6.56,0,0,1-6.13,7Z"/><rect class="cls-1" x="31.99" y="24.26" width="5.36" height="22.19"/><rect class="cls-1" x="38.87" y="24.26" width="5.36" height="22.19"/><rect class="cls-1" x="45.76" y="24.26" width="5.36" height="22.19"/><rect class="cls-1" x="52.65" y="24.26" width="5.36" height="22.19"/><rect class="cls-1" x="66.42" y="24.26" width="5.36" height="22.19"/><rect class="cls-1" x="73.31" y="24.26" width="5.36" height="22.19"/><rect class="cls-1" x="31.99" y="28.47" width="5.36" height="1.15"/><rect class="cls-1" x="31.99" y="42.25" width="5.36" height="1.15"/><rect class="cls-1" x="38.87" y="28.47" width="5.36" height="1.15"/><rect class="cls-1" x="38.87" y="42.25" width="5.36" height="1.15"/><rect class="cls-1" x="45.76" y="28.47" width="5.36" height="1.15"/><rect class="cls-1" x="45.76" y="42.25" width="5.36" height="1.15"/><rect class="cls-1" x="52.65" y="28.47" width="5.36" height="1.15"/><rect class="cls-1" x="52.65" y="42.25" width="5.36" height="1.15"/><rect class="cls-1" x="59.54" y="28.47" width="5.36" height="1.15"/><rect class="cls-1" x="59.54" y="42.25" width="5.36" height="1.15"/><rect class="cls-1" x="66.42" y="28.47" width="5.36" height="1.15"/><rect class="cls-1" x="66.42" y="42.25" width="5.36" height="1.15"/><rect class="cls-1" x="73.31" y="28.47" width="5.36" height="1.15"/><rect class="cls-1" x="73.31" y="42.25" width="5.36" height="1.15"/><rect class="cls-1" x="59.54" y="24.26" width="5.36" height="22.19"/><rect class="cls-1" x="83.26" y="24.26" width="5.36" height="22.19" transform="translate(-6.9 39.37) rotate(-24.84)"/><rect class="cls-1" x="80.6" y="29.06" width="5.36" height="1.15" transform="translate(-4.74 37.73) rotate(-24.84)"/><rect class="cls-1" x="86.39" y="41.56" width="5.36" height="1.15" transform="translate(-9.46 41.31) rotate(-24.84)"/><path class="cls-17" d="M148.89,253.08l-9.72-6.2c0-8.74-.19-49.29,1.63-54.71a8.9,8.9,0,0,0,.07-4.83,14,14,0,0,0-11.45-10.54,164,164,0,0,1-18.94-4.07c5.44-.56,9.51-1,9.51-1l.11-1,3.5-.17v-.15l.34,0c8.17-.49,25.53-2.11,19.63-7a13.63,13.63,0,0,0-7.44-2.71c8.51-1.94,21.82-5.71,15.89-9.25-5.64-3.35-14.28-.71-19.43,1.43l-.32.14-.06-.47-2.05.42h0l-.66.13,0-.68-28.88,4.46A99.14,99.14,0,0,0,99.41,147c.65-4.31,3.65-10.59,2.59-14-1.23-3.92-6.29-5.2-8.41-8.73-.56-.93-1.12-1.79-1.66-2.55a27.38,27.38,0,0,0-4.07-4.4,18.56,18.56,0,0,1,1.5-6.6,31.32,31.32,0,0,1,2-4.06A13.61,13.61,0,0,0,101.49,91c1.83.78,4.05.86,5.2-.67l-.55-.21a1.37,1.37,0,0,0,.16-.18,10.14,10.14,0,0,1-3.17-1.68,3.84,3.84,0,0,1-.56-.82c-.52-1.07-.46-2.36-1-3.45a3.88,3.88,0,0,0-1-1.29,6.78,6.78,0,0,0-3.23-1.85,40.46,40.46,0,0,1-4.16-1.15,14.08,14.08,0,0,0-15-4.21l-.48.17A6.24,6.24,0,0,0,65.6,72.91a6.21,6.21,0,0,1,1.67-3.72l-.3.25a6.25,6.25,0,0,0-.27,8.83h0l.11.1a6.05,6.05,0,0,0,1.57,1.37,6.25,6.25,0,0,1-4.12-5.11V75a6.24,6.24,0,0,0,6.6,5.87h0l.17,0L71,81a14.06,14.06,0,0,0,1.26,17.39,6.62,6.62,0,0,0,1,1.6,5.21,5.21,0,0,0,.47.47,6,6,0,0,0,4,1.84,11.26,11.26,0,0,0,.81.88,23,23,0,0,1-1,3.15,33.68,33.68,0,0,1-3,5.84c-8.27,2.35-9,16.39-8.7,16.92s-1.23,22.67,4.89,49.29c-.25,7.61,4.19,20.2,20,16.88,19.7,1.05,26.16,4.07,26.16,4.07s-1.87,34.27.8,39.26c1.67,3.13.49,7.72-.76,11a11.72,11.72,0,0,0-1.11,2.54c-.38.81-.66,1.3-.66,1.3h.27c-1,3.5-1.73,7.74-1.73,7.74s23.89,4.85,34.4,1.67c4.07-1.23,4.24-2.37,2.92-3.31a20.26,20.26,0,0,0,2.88-.63C164.34,255.68,148.89,253.08,148.89,253.08Z"/><path class="cls-18" d="M96.92,90.39A13.78,13.78,0,1,1,83.14,76.62,13.78,13.78,0,0,1,96.92,90.39Z"/><path class="cls-8" d="M127.94,155.1l1.4,7s1.55-.27,3.85-.76c7.86-1.66,24.45-5.77,18-9.61-5.52-3.29-14-.7-19,1.4-1.85.77-3.25,1.48-3.87,1.81Z"/><path class="cls-5" d="M128.34,157.07l1,5s1.55-.27,3.85-.76l-1-8.21c-1.85.77-3.25,1.48-3.87,1.81Z"/><polygon class="cls-9" points="128.09 162.51 132.89 161.55 131.81 152.78 127.96 153.55 128.09 162.51"/><polygon class="cls-5" points="128.09 162.51 130.16 162.09 129.78 153.19 127.96 153.55 128.09 162.51"/><path class="cls-10" d="M83.87,124.45s9.34-4.87,12.74,10.42,3.44,22.27,3.44,22.27l29.05-4.49.45,10.55s-31.22,8.59-35.06,7.69S79,148.37,79,148.37,68.33,131.56,83.87,124.45Z"/><g class="cls-11"><path d="M127.94,155.1l1.4,7s1.55-.27,3.85-.76c7.86-1.66,24.45-5.77,18-9.61-5.52-3.29-14-.7-19,1.4-1.85.77-3.25,1.48-3.87,1.81Z"/><path class="cls-5" d="M128.34,157.07l1,5s1.55-.27,3.85-.76l-1-8.21c-1.85.77-3.25,1.48-3.87,1.81Z"/><polygon points="128.09 162.51 132.89 161.55 131.81 152.78 127.96 153.55 128.09 162.51"/><polygon class="cls-5" points="128.09 162.51 130.16 162.09 129.78 153.19 127.96 153.55 128.09 162.51"/><path d="M84.64,125.21s9.34-4.87,12.73,10.43,3.44,22.26,3.44,22.26l29.05-4.49.45,10.56s-31.22,8.58-35,7.69-15.49-22.52-15.49-22.52S69.09,132.32,84.64,125.21Z"/></g><path class="cls-19" d="M136.71,244.09l11.45,7.27S163.31,253.9,153,257s-33.72-1.65-33.72-1.65,1.78-10.54,3.67-11.93S136.71,244.09,136.71,244.09Z"/><path class="cls-20" d="M94.24,166.11a81.63,81.63,0,0,0,16,6.42,160.71,160.71,0,0,0,18.83,4.07,13.69,13.69,0,0,1,11.23,10.33,8.74,8.74,0,0,1-.07,4.73c-2,6-1.59,55.28-1.59,55.28l-17.92.86s2.83-9-.66-13.69,2.36-39.3,2.36-39.3-6.35-3-25.67-4c-18.11,3.82-24.62-16.13-21.61-21.5S94.24,166.11,94.24,166.11Z"/><g class="cls-11"><path d="M136.71,244.09l11.45,7.27S163.31,253.9,153,257s-33.72-1.65-33.72-1.65,1.78-10.54,3.67-11.93S136.71,244.09,136.71,244.09Z"/><path d="M94.24,166.11a81.63,81.63,0,0,0,16,6.42,160.71,160.71,0,0,0,18.83,4.07,13.69,13.69,0,0,1,11.23,10.33,8.74,8.74,0,0,1-.07,4.73c-2,6-1.59,55.28-1.59,55.28l-17.92.86s2.83-9-.66-13.69,2.36-39.3,2.36-39.3-6.35-3-25.67-4c-18.11,3.82-24.62-16.13-21.61-21.5S94.24,166.11,94.24,166.11Z"/></g><path class="cls-19" d="M131,248l11.45,7.27s15.15,2.53,4.85,5.64-33.72-1.64-33.72-1.64,1.78-10.54,3.67-11.93S131,248,131,248Z"/><path class="cls-20" d="M91,194.68c19.32,1,25.67,4,25.67,4s-1.83,33.6.76,38.49c2.78,5.19-2.48,14.5-2.48,14.5l17.93-.86v-1.62c-.06-8.56-.19-48.32,1.59-53.65a8.74,8.74,0,0,0,.07-4.73,13.71,13.71,0,0,0-11.23-10.33,160.28,160.28,0,0,1-18.83-4.07l-.29-.1A80.45,80.45,0,0,1,88.54,170s-11.93-.83-14.92,4.54c-.38.7-2,2.07-2.1,3.18C71.07,185.1,75.28,198,91,194.68Z"/><path class="cls-8" d="M119.42,163.32l.34,7.1s1.57,0,3.92-.18c8-.48,25-2.07,19.26-6.81-5-4.09-13.74-2.79-19-1.46-2,.49-3.45,1-4.1,1.21Z"/><path class="cls-8" d="M74,115s2.3,2,5.14,4.17c3.18.86,6.89,1.63,9.54,2.14-.82-3.12-.09-6.5,1.12-9.48A36,36,0,0,1,95,103.2L79,97.44c1.13,3.27.39,6.92-.83,10A33.29,33.29,0,0,1,74,115Z"/><path class="cls-5" d="M119.51,165.32l.25,5.1s1.57,0,3.92-.18l.22-8.27c-2,.49-3.45,1-4.1,1.21Z"/><polygon class="cls-9" points="118.46 170.66 123.35 170.43 123.58 161.6 119.67 161.78 118.46 170.66"/><path class="cls-10" d="M71.87,179.76c10.33,10.74,29.59-2,34.77-5.8.84-.62,1.31-1,1.31-1-1.91-1.94-5-3.75-6.14-8.62a105.92,105.92,0,0,1-2.28-15.12c-.31-4,3.86-11.73,2.65-15.56s-6.17-5.09-8.25-8.56c-.55-.91-1.09-1.76-1.63-2.5-3.85-5.35-10.55-9-10.55-9-14.29-4.88-15.42,15.53-15.06,16.16S65.41,152.93,71.87,179.76Z"/><path class="cls-5" d="M71.76,150.37s8.3,23.12,12,24.58c2.1.83,13.53-.07,22.92-1,.84-.62,1.31-1,1.31-1-1.91-1.94-3.47-6-4.64-10.83l-12,0s1-6.89-.1-22.53-11-12.21-11-12.21C63.7,132.14,71.76,150.37,71.76,150.37Z"/><polygon class="cls-5" points="118.46 170.66 120.57 170.56 121.53 161.7 119.67 161.78 118.46 170.66"/><path class="cls-10" d="M80.41,126.44s9.94-3.42,11,12.2.12,22.54.12,22.54l29.39-.11-1.13,10.5S87.68,175.4,84,174s-12-24.57-12-24.57S64,131.15,80.41,126.44Z"/><path class="cls-5" d="M80.77,103.4c.53-2.29-1.91-2.37-2.68-4.59l16,5.74a35.65,35.65,0,0,0-3.2,4.63,13.38,13.38,0,0,1-2.6.39C84.37,109.76,83.34,105.92,80.77,103.4Z"/><circle class="cls-8" cx="88.52" cy="94.87" r="13.38"/><path class="cls-5" d="M81.61,136.36s4.23,20,9.23,22.09,2.73,2.48,2.73,2.48"/><path class="cls-5" d="M99.05,147.68s-3.53,1.11-7.65-4.18"/><circle class="cls-18" cx="72.43" cy="76.24" r="6.12"/><path class="cls-18" d="M68.13,79.47a6.11,6.11,0,0,1,0-8.37l-.29.24a6.12,6.12,0,0,0,8.38,8.93h0c.1-.09.18-.19.27-.28A6.12,6.12,0,0,1,68.13,79.47Z"/><path class="cls-18" d="M71.63,81.78a6.12,6.12,0,0,1-6.45-5.35v.38A6.12,6.12,0,1,0,77.4,76a2.45,2.45,0,0,0,0-.38A6.11,6.11,0,0,1,71.63,81.78Z"/><path class="cls-5" d="M93.45,81.56A27.51,27.51,0,0,0,98,82.9a5.73,5.73,0,0,1,3.77,2.7c.49,1.07.44,2.33,1,3.38.74,1.53,2.46,2.23,4,2.83-1.35,1.82-4.26,1.33-6.16.09s-3.53-3.06-5.73-3.54a5.39,5.39,0,0,0-5.67,2.52,13.49,13.49,0,0,0-1.12,3.48c-.76,3.1-2.29,6.2-5,8s-6.67,1.75-8.77-.66a10.88,10.88,0,0,1-2-5.16,10.32,10.32,0,0,1-.29-2.6c.12-2.2,1.58-4.07,3.06-5.7,1.74-1.91,3.59-3.75,5.44-5.57,1.6-1.58,3.45-4.25,5.86-4.44C89.21,78,91.18,80.45,93.45,81.56Z"/><path class="cls-18" d="M93.07,81.18a27.51,27.51,0,0,0,4.59,1.34,5.69,5.69,0,0,1,3.77,2.7c.49,1.06.43,2.32.95,3.38.74,1.53,2.46,2.23,4,2.83-1.35,1.82-4.26,1.32-6.16.09S96.72,88.46,94.51,88a5.38,5.38,0,0,0-5.66,2.52A13.49,13.49,0,0,0,87.73,94c-.77,3.1-2.3,6.19-5,8s-6.67,1.75-8.77-.66a10.78,10.78,0,0,1-2-5.16,10.38,10.38,0,0,1-.3-2.6c.13-2.2,1.59-4.07,3.07-5.7,1.74-1.91,3.59-3.75,5.44-5.58,1.6-1.57,3.44-4.24,5.85-4.43C88.83,77.59,90.79,80.06,93.07,81.18Z"/><rect class="cls-2" x="54.17" y="166.15" width="43.63" height="6.74" rx="3.25"/><path class="cls-5" d="M54.17,169.59v.53A2.77,2.77,0,0,0,57,172.9H95a2.77,2.77,0,0,0,2.77-2.78v-.53Z"/><rect class="cls-2" x="131" y="173.18" width="7.5" height="95.59"/><rect class="cls-5" x="131" y="173.18" width="7.5" height="6.2"/><rect class="cls-2" x="127.41" y="166.33" width="198.35" height="12.4"/></svg>