<svg id="Layer_1" data-name="Layer 1" xmlns="http://www.w3.org/2000/svg" viewBox="0 0 406.66 330"><defs><style>.cls-1{fill:#f2f2f2;}.cls-2{fill:#fff;}.cls-3{fill:#ccc;}.cls-4{fill:#ee4693;}.cls-5{fill:#a0616a;}.cls-6{fill:#2f2e41;}.cls-7{fill:#10c0e8;}.cls-8{fill:#3f3d56;}</style></defs><title>Artboard 41</title><path class="cls-1" d="M388.69,201.57c-.45.86-.91,1.7-1.4,2.54-18.42,32.09-61.27,52-133.54,41.48-41-6.28-58.5,16.74-75.42,40.31l-.88,1.22c-17.72,24.72-35.26,49.51-79.13,41.27C51.82,321,23.12,283.28,18.68,243l-.15-1.47c-2.49-26.14,5.22-53.2,24.89-73.63C55.3,155.52,72.18,149,89.61,149.17A84.7,84.7,0,0,0,105.27,148c1.15-.2,2.25-.42,3.33-.67,22.2-5.07,32.43-20.16,38.71-38.56.14-.44.29-.88.43-1.32C162.15,63.57,155.49,2,233.81,11c70.09,5.17,121.52,44,146.75,88.86l.74,1.36A136.54,136.54,0,0,1,396,141.09c.16.79.3,1.57.43,2.36C400,164.27,397.63,184.51,388.69,201.57Z"/><path class="cls-2" d="M381.3,101.24a107.44,107.44,0,0,1-16.89,16.13c-24.16,18.53-54.76,28.58-85,30.68a168.43,168.43,0,0,1-46.34-3.14c-15.49-3.25-30.26-9-44.57-15.64-13.92-6.49-27.42-13.82-41.24-20.49.14-.44.29-.88.43-1.32,15.08,7.26,29.84,15.25,45.09,22.16,14.37,6.52,29.24,11.83,44.79,14.67a168.29,168.29,0,0,0,47.05,1.85c30.11-3,60.73-14.14,83.88-34a100,100,0,0,0,12-12.25Z"/><path class="cls-3" d="M276.7.46h-.11a70.74,70.74,0,0,0,0,141.2,1.62,1.62,0,0,0,1.22-.44,1.58,1.58,0,0,0,.51-1.17V2.08A1.62,1.62,0,0,0,276.7.46Z"/><path class="cls-3" d="M333.5,118.21a2.08,2.08,0,0,1-1.47-.61l-48-48a2,2,0,0,1-.61-1.46v-66A2,2,0,0,1,284,.57,2.1,2.1,0,0,1,285.6,0a71.21,71.21,0,0,1,49.48,117.49,2.15,2.15,0,0,1-1.5.72Z"/><path class="cls-4" d="M285.47,142.12a2.11,2.11,0,0,1-1.43-.56,2.06,2.06,0,0,1-.65-1.51V80.48A2.08,2.08,0,0,1,286.93,79l41.92,41.92a2.08,2.08,0,0,1,0,2.94l-.08.07a71.33,71.33,0,0,1-43.17,18.18Z"/><path class="cls-2" d="M396.4,143.45a103.29,103.29,0,0,1-27.09,30.78c-24.16,18.53-54.76,28.58-84.95,30.69A168.73,168.73,0,0,1,238,201.77c-15.49-3.25-30.27-9-44.58-15.64-14.57-6.8-28.69-14.51-43.19-21.43s-29.38-12.83-45-16.69c1.15-.2,2.25-.42,3.33-.67,1,.26,2,.54,3.05.82,30.51,8.53,57.44,25.34,86.08,38.32C212.1,193,227,198.31,242.52,201.16a168.66,168.66,0,0,0,47,1.84c30.11-3,60.74-14.14,83.88-34A97.72,97.72,0,0,0,396,141.09C396.13,141.88,396.27,142.66,396.4,143.45Z"/><path class="cls-2" d="M93.51,248.16c30.06,8.4,56.64,24.84,84.82,37.74l-.88,1.22-2.13-1c-14.57-6.8-28.69-14.51-43.2-21.44-14.8-7.07-30-13.07-46-16.93A205.53,205.53,0,0,0,18.68,243l-.15-1.47A206.89,206.89,0,0,1,93.51,248.16Z"/><path class="cls-3" d="M214.33,295.46H.56a.57.57,0,0,1-.56-.57.56.56,0,0,1,.56-.56H214.33a.56.56,0,0,1,.56.56A.57.57,0,0,1,214.33,295.46Z"/><circle class="cls-5" cx="87.03" cy="205.99" r="13.78"/><polygon class="cls-5" points="138.59 303.22 138.91 310.09 112.56 314.6 112.09 304.46 138.59 303.22"/><path class="cls-6" d="M145.17,301.16l.73,15.62h-.28a10.65,10.65,0,0,1-6.18-1.5,5.34,5.34,0,0,1-2.73-4.18h0l-.44-9.54Z"/><polygon class="cls-5" points="137.85 314.53 144.73 314.53 148.01 288 137.85 288 137.85 314.53"/><path class="cls-6" d="M136.1,312.28h13.55a8.63,8.63,0,0,1,8.63,8.63h0v.28H136.1Z"/><path class="cls-5" d="M72.92,308.1a6,6,0,0,0,2-8.28,6.68,6.68,0,0,0-.63-.85l5.49-54.63-13.08.92-1.28,53.4a6.06,6.06,0,0,0,7.47,9.44Z"/><path class="cls-4" d="M79.75,253.81,66.2,252.16a2.68,2.68,0,0,1-2.28-3.4l3.61-13.12a7.5,7.5,0,0,1,14.89,1.86l.35,13.56a2.7,2.7,0,0,1-2.63,2.77,2.55,2.55,0,0,1-.39,0Z"/><path class="cls-6" d="M77.85,315.84a9.36,9.36,0,0,1-8.69-10,9.46,9.46,0,0,1,1.6-4.62l8.85-9.19,32.26-28.89,17.25-14.32a7.73,7.73,0,0,1,12.43,4.09l9,36.46a2.53,2.53,0,0,1-1.6,3l-9.82,3.53a2.51,2.51,0,0,1-3.23-1.52,1.17,1.17,0,0,1-.06-.2l-3.74-14-20.79,19.87,6.48,2.39a2.52,2.52,0,0,1,1.56,3.05l-2.09,7.43a2.52,2.52,0,0,1-2.36,1.84Z"/><path class="cls-4" d="M77,295.12,76.12,264l-5.39-13.67a20.6,20.6,0,0,1,15-27.69l1.32-.27h0a20.57,20.57,0,0,1,24.18,16.17c.13.66.23,1.33.3,2L114,264V264c-4,17.94-15.71,27.81-36.74,31.07Z"/><path class="cls-5" d="M89.7,273.47a5.82,5.82,0,0,1,.93-.07l15.57-23.06-3-6.08,8.6-5.65,6.27,10.26a4.49,4.49,0,0,1-.51,5.36l-21.32,23.4a5.89,5.89,0,1,1-7.3-4,5.62,5.62,0,0,1,.71-.16Z"/><path class="cls-4" d="M104.84,249.91a2.52,2.52,0,0,1-1.61-1.35l-5.38-11.47a7,7,0,0,1,11.66-7.8l8.51,9.45a2.52,2.52,0,0,1-.19,3.56l-.29.23-10.62,7.06A2.55,2.55,0,0,1,104.84,249.91Z"/><path class="cls-3" d="M269.8,216.67H224.32a2.47,2.47,0,0,1,0-4.94H269.8a2.47,2.47,0,1,1,0,4.94Z"/><path class="cls-7" d="M210.72,219.15a5.2,5.2,0,1,1,5.19-5.19A5.2,5.2,0,0,1,210.72,219.15Z"/><path class="cls-3" d="M269.8,231.51H224.32a2.48,2.48,0,0,1,0-4.95H269.8a2.48,2.48,0,1,1,0,4.95Z"/><path class="cls-7" d="M210.72,234a5.19,5.19,0,1,1,5.19-5.19A5.2,5.2,0,0,1,210.72,234Z"/><path class="cls-3" d="M269.8,246.34H224.32a2.48,2.48,0,0,1,0-5H269.8a2.48,2.48,0,1,1,0,5Z"/><path class="cls-7" d="M210.72,248.81a5.19,5.19,0,1,1,5.19-5.19A5.19,5.19,0,0,1,210.72,248.81Z"/><path class="cls-8" d="M282.87,229h18.79a.49.49,0,0,0,.49-.5V112.33a.49.49,0,1,0-1,0V228h-18.3a.49.49,0,0,0-.49.49.5.5,0,0,0,.49.5Z"/><path class="cls-3" d="M363.38,36.42h0a6.38,6.38,0,1,1,5.84-6.87A6.39,6.39,0,0,1,363.38,36.42Zm-.08-1h0a5.39,5.39,0,1,0-5.81-4.94,5.39,5.39,0,0,0,5.81,4.94Z"/><circle class="cls-3" cx="385.32" cy="16.14" r="3.92"/><circle class="cls-3" cx="404.6" cy="3.82" r="2.06"/><path class="cls-3" d="M333.44,161.84a6.37,6.37,0,1,1-1.81-8.83h0A6.39,6.39,0,0,1,333.44,161.84Zm-9.82-6.48a5.39,5.39,0,1,0,7.47-1.53h0a5.4,5.4,0,0,0-7.47,1.53Z"/><circle class="cls-3" cx="341.07" cy="181.36" r="3.92"/><circle class="cls-3" cx="352.01" cy="201.45" r="2.06"/><path class="cls-3" d="M175.21,54.82a6.37,6.37,0,1,1,8.54,2.87h0A6.38,6.38,0,0,1,175.21,54.82Zm10.53-5.24a5.39,5.39,0,1,0-2.43,7.23h0A5.4,5.4,0,0,0,185.74,49.58Z"/><circle class="cls-3" cx="154.5" cy="51.63" r="3.92"/><circle class="cls-3" cx="131.63" cy="51.01" r="2.06"/><path class="cls-6" d="M101.59,207.19l-.57-1.46A12.48,12.48,0,0,0,91.59,198a10.79,10.79,0,0,0-10.46,4.85,23.72,23.72,0,0,0-2.2,5.16c-.18.54-.37.93-.72,1.05s-.78-.11-1.43-.51a.9.9,0,0,0-1.24.29,1,1,0,0,0-.13.6l.69,4.86-.57-.51a10.77,10.77,0,0,1-1.8-13.45l-6.1,1.25.28-.53a20.82,20.82,0,0,1,12.14-10.25l-5.84-1.29.59-.36a16.9,16.9,0,0,1,17.58.22,19.93,19.93,0,0,1,9.18,16.24Z"/></svg>