<svg id="Layer_1" data-name="Layer 1" xmlns="http://www.w3.org/2000/svg" viewBox="0 0 409.14 210.76"><defs><style>.cls-1{fill:#ee4693;}.cls-2{fill:#3f3d56;}.cls-3{fill:#d0cde1;}.cls-4{fill:#10c0e8;}</style></defs><title>Artboard 60</title><rect class="cls-1" x="121.78" y="117.56" width="136.8" height="93.2"/><path class="cls-2" d="M266.21,106.66H131.59A1.63,1.63,0,0,0,130,108.3v91a1.63,1.63,0,0,0,1.63,1.64H266.21a1.63,1.63,0,0,0,1.64-1.64h0v-91A1.64,1.64,0,0,0,266.21,106.66Zm.55,92.65a.55.55,0,0,1-.54.55H131.59a.54.54,0,0,1-.54-.54h0v-91a.55.55,0,0,1,.54-.55H266.21a.55.55,0,0,1,.55.55Z"/><rect class="cls-2" x="137.04" y="170.97" width="61.59" height="7.09" rx="0.8"/><path class="cls-2" d="M254.77,165H235.15a1.64,1.64,0,0,0-1.64,1.63h0v15.25a1.63,1.63,0,0,0,1.64,1.64h19.62a1.63,1.63,0,0,0,1.63-1.64h0V166.62a1.63,1.63,0,0,0-1.63-1.64Zm.54,16.89a.54.54,0,0,1-.54.55H235.15a.55.55,0,0,1-.55-.55V166.62a.54.54,0,0,1,.54-.55h19.63a.54.54,0,0,1,.54.54h0Z"/><rect class="cls-2" x="238.27" y="168.5" width="13.37" height="2.77" rx="0.8"/><rect class="cls-2" x="238.27" y="172.86" width="13.37" height="2.77" rx="0.8"/><rect class="cls-2" x="238.27" y="177.22" width="13.37" height="2.77" rx="0.8"/><rect class="cls-2" x="138.68" y="113.2" width="28.34" height="11.99" rx="0.8"/><path class="cls-1" d="M155,119.2c0,2.1-1,3.81-2.18,3.81s-2.18-1.71-2.18-3.81,2.18-3.82,2.18-3.82S155,117.09,155,119.2Z"/><polygon class="cls-2" points="358.99 64.41 358.19 64.41 358.19 153.41 267.85 153.41 267.85 154.2 358.99 154.2 358.99 64.41"/><polygon class="cls-2" points="121.78 154.2 30.64 154.2 30.64 64.41 31.44 64.41 31.44 153.41 121.78 153.41 121.78 154.2"/><path class="cls-2" d="M408.88,15.05h-.51v-.89h.38a.26.26,0,0,0,.26-.26V9.31a.26.26,0,0,0-.26-.26h-.38V6.45A5.56,5.56,0,0,0,402.82.89h-.57V.26A.25.25,0,0,0,402,0H397.4a.25.25,0,0,0-.25.26h0V.89H314.2a5.55,5.55,0,0,0-5.55,5.56h0v118.2a5.54,5.54,0,0,0,5.55,5.55h88.62a5.55,5.55,0,0,0,5.55-5.55h0V20.15h.51a.26.26,0,0,0,.26-.26V15.3a.26.26,0,0,0-.26-.25Z"/><rect class="cls-3" x="313.24" y="4.53" width="91.31" height="121.15" rx="0.76"/><rect class="cls-2" x="348.41" y="63.9" width="15.66" height="4.64" rx="0.8"/><rect class="cls-2" x="329.47" y="27.76" width="53.54" height="1.99" rx="0.8"/><rect class="cls-2" x="329.47" y="34.06" width="53.54" height="1.99" rx="0.8"/><rect class="cls-2" x="329.47" y="40.36" width="53.54" height="1.99" rx="0.8"/><rect class="cls-2" x="329.47" y="46.66" width="53.54" height="1.99" rx="0.8"/><rect class="cls-2" x="329.47" y="52.96" width="53.54" height="1.99" rx="0.8"/><circle class="cls-4" cx="354.34" cy="104.27" r="16.63"/><path class="cls-2" d="M359.24,117.09a20.85,20.85,0,1,1,20.85-20.85h0A20.87,20.87,0,0,1,359.24,117.09Zm0-40.94a20.09,20.09,0,1,0,20.09,20.09h0A20.12,20.12,0,0,0,359.24,76.15Z"/><path class="cls-2" d="M61.89,35H61.2V16.31A10.82,10.82,0,0,0,50.39,5.49H10.81A10.82,10.82,0,0,0,0,16.31H0V118.79a10.81,10.81,0,0,0,10.81,10.82H50.39A10.81,10.81,0,0,0,61.2,118.79h0V48.29h.69Z"/><path class="cls-3" d="M58.9,16.94V119.28a8.07,8.07,0,0,1-8.07,8.08H11.06A8.08,8.08,0,0,1,3,119.28V16.94a8.07,8.07,0,0,1,8.08-8.07h4.82a3.83,3.83,0,0,0,2.11,5,3.77,3.77,0,0,0,1.44.28H42.11A3.84,3.84,0,0,0,46,10.32a3.79,3.79,0,0,0-.29-1.45h5.17A8.07,8.07,0,0,1,58.9,16.94Z"/><rect class="cls-2" x="25.62" y="69.16" width="10.65" height="3.16" rx="0.8"/><rect class="cls-2" x="12.74" y="44.58" width="36.41" height="1.35" rx="0.68"/><rect class="cls-2" x="12.74" y="48.87" width="36.41" height="1.35" rx="0.68"/><path class="cls-2" d="M13.41,53.15H48.47a.67.67,0,0,1,.68.68h0a.67.67,0,0,1-.68.67H13.41a.67.67,0,0,1-.67-.67h0A.67.67,0,0,1,13.41,53.15Z"/><path class="cls-2" d="M13.41,57.43H48.47a.68.68,0,0,1,.68.68h0a.68.68,0,0,1-.68.68H13.41a.68.68,0,0,1-.67-.68h0A.68.68,0,0,1,13.41,57.43Z"/><path class="cls-2" d="M13.41,61.72H48.47a.67.67,0,0,1,.68.68h0a.67.67,0,0,1-.68.67H13.41a.67.67,0,0,1-.67-.67h0A.67.67,0,0,1,13.41,61.72Z"/><circle class="cls-1" cx="27.81" cy="102.03" r="11.47"/><path class="cls-2" d="M31.19,110.87A14.38,14.38,0,1,1,45.57,96.5h0A14.39,14.39,0,0,1,31.19,110.87Zm0-28.23A13.86,13.86,0,1,0,45,96.5,13.85,13.85,0,0,0,31.19,82.64Z"/><rect class="cls-3" x="58.71" y="149.32" width="11.14" height="11.14"/><path class="cls-2" d="M76.62,154.1H63.08V140.57H76.62Zm-13-.59H76V141.16H63.67Z"/><rect class="cls-3" x="308.25" y="149.32" width="11.14" height="11.14"/><path class="cls-2" d="M326.16,154.1H312.63V140.57h13.53Zm-12.94-.59h12.35V141.16H313.22Z"/></svg>