<svg id="Layer_1" data-name="Layer 1" xmlns="http://www.w3.org/2000/svg" xmlns:xlink="http://www.w3.org/1999/xlink" viewBox="0 0 456.99 304.01"><defs><style>.cls-1{fill:#077b8e;}.cls-2{fill:#f2f2f2;}.cls-3{fill:url(#linear-gradient);}.cls-4{fill:#ee4693;}.cls-5{fill:#f55f44;}.cls-6{fill:#fda57d;}.cls-7{opacity:0.05;}.cls-14,.cls-16,.cls-7{isolation:isolate;}.cls-8{fill:#10c0e8;}.cls-9{opacity:0.7;}.cls-10{fill:url(#linear-gradient-2);}.cls-11{fill:#e0e0e0;}.cls-12{fill:url(#linear-gradient-3);}.cls-13,.cls-16{fill:#535461;}.cls-14,.cls-16{opacity:0.1;}.cls-15{fill:#eee;}.cls-17{opacity:0.5;}.cls-18{fill:url(#linear-gradient-4);}.cls-19{fill:#f5f5f5;}.cls-20{fill:url(#linear-gradient-5);}.cls-21{fill:#fff;}.cls-22{fill:url(#linear-gradient-6);}.cls-23{opacity:0.6;}.cls-24{fill:#bdbdbd;}.cls-25{fill:url(#linear-gradient-7);}.cls-26{fill:url(#linear-gradient-8);}.cls-27{fill:url(#linear-gradient-9);}</style><linearGradient id="linear-gradient" x1="339.77" y1="19.74" x2="339.77" y2="217.46" gradientTransform="matrix(1, 0, 0, -1, -168.58, 277.18)" gradientUnits="userSpaceOnUse"><stop offset="0" stop-color="gray" stop-opacity="0.25"/><stop offset="0.54" stop-color="gray" stop-opacity="0.12"/><stop offset="1" stop-color="gray" stop-opacity="0.1"/></linearGradient><linearGradient id="linear-gradient-2" x1="473.11" y1="-11.89" x2="473.11" y2="20.42" xlink:href="#linear-gradient"/><linearGradient id="linear-gradient-3" x1="170.97" y1="152.51" x2="170.97" y2="236.25" gradientTransform="matrix(1, 0, 0, -1, 0, 440.18)" xlink:href="#linear-gradient"/><linearGradient id="linear-gradient-4" x1="274.94" y1="374.68" x2="274.94" y2="424.66" gradientTransform="matrix(1, 0, 0, -1, 0, 440.18)" xlink:href="#linear-gradient"/><linearGradient id="linear-gradient-5" x1="283.12" y1="363.13" x2="283.12" y2="413.11" gradientTransform="matrix(1, 0, 0, -1, 0, 440.18)" xlink:href="#linear-gradient"/><linearGradient id="linear-gradient-6" x1="347.5" y1="376.88" x2="347.5" y2="405.55" gradientTransform="matrix(1, 0, 0, -1, 0, 440.18)" xlink:href="#linear-gradient"/><linearGradient id="linear-gradient-7" x1="408.62" y1="354.19" x2="408.62" y2="430.63" gradientTransform="matrix(1, 0, 0, -1, 0, 440.18)" xlink:href="#linear-gradient"/><linearGradient id="linear-gradient-8" x1="357.46" y1="300.94" x2="357.46" y2="332.69" gradientTransform="matrix(1, 0, 0, -1, 0, 440.18)" xlink:href="#linear-gradient"/><linearGradient id="linear-gradient-9" x1="337.88" y1="304.99" x2="337.88" y2="344.34" gradientTransform="matrix(1, 0, 0, -1, 0, 440.18)" xlink:href="#linear-gradient"/></defs><title>Artboard 31</title><path class="cls-1" d="M55.83,267.79c0,10-5.94,13.49-13.27,13.49h-.51l-1,0c-6.62-.47-11.76-4.14-11.76-13.44,0-9.62,12.29-21.76,13.22-22.67h0l.06-.05S55.83,257.79,55.83,267.79Z"/><path class="cls-2" d="M42.07,279.75,46.93,273l-4.87,7.53v.78l-1,0,.52-10v-.1l0-.94-4.88-7.55,4.89,6.84v.2l.4-7.56-4.18-7.8,4.23,6.47.41-15.67v0l-.06,12.36,4.15-4.9-4.17,6-.11,6.77,3.88-6.49-3.9,7.49-.06,3.76,5.64-9-5.66,10.35Z"/><path class="cls-3" d="M224.53,210c-3.55-12.88-23.25-22.37-38.62-24.82V179l.85-.33A13.47,13.47,0,0,0,186,175a37.34,37.34,0,0,0,16.35-12.93A42,42,0,0,0,201,102.66a43.1,43.1,0,0,0-7-5.37,8.25,8.25,0,0,0-3.69-15.19,16.1,16.1,0,0,0-25.06-18.7A16.09,16.09,0,0,1,189,77.61c0,.15,0,.28,0,.42a16.09,16.09,0,1,0-31.2,6,8.05,8.05,0,0,0-6.16,9.57,8,8,0,0,0,.84,2.22,42,42,0,0,0-10.25,66.85,37.21,37.21,0,0,0,15.16,12V185c-15.54,2.22-36,11.89-39.56,25.08-3.12,11.5-6.44,24.13-8.1,31.54,14.18,10,43.93,15.82,62.58,15.82,17.71,0,46.67-5.28,60.43-14.35C231.21,235,227.78,221.77,224.53,210ZM196.13,91c0,.14,0,.29,0,.43A8,8,0,0,0,189.43,84c.15-.27.3-.53.44-.81A8.07,8.07,0,0,1,196.13,91Z"/><path class="cls-4" d="M172.24,254.63c17.21,0,45.34-5.13,58.71-13.94-1.45-7.92-4.78-20.72-7.94-32.18-4-14.6-29.4-24.72-44.54-24.72H163.88c-15.19,0-40.6,10.18-44.57,24.84-3,11.17-6.26,23.44-7.87,30.64C125.22,249,154.12,254.63,172.24,254.63Z"/><circle class="cls-5" cx="171.96" cy="133.78" r="40.83"/><path class="cls-6" d="M160.94,162.16H182.3a3.19,3.19,0,0,1,3.19,3.2h0V187.2a13.12,13.12,0,0,1-13.12,13.13h-1.51a13.13,13.13,0,0,1-13.12-13.13h0V165.36a3.2,3.2,0,0,1,3.2-3.2Z"/><path class="cls-7" d="M172.9,180.65a35.87,35.87,0,0,0,13.42-2.58,13.31,13.31,0,0,0-13.27-12.44h-1.13a13.3,13.3,0,0,0-13.25,12.11A35.87,35.87,0,0,0,172.9,180.65Z"/><circle class="cls-6" cx="172.03" cy="141.06" r="36.12"/><circle class="cls-5" cx="159.8" cy="93.82" r="7.82"/><circle class="cls-5" cx="187.6" cy="93.82" r="7.82"/><circle class="cls-5" cx="172.83" cy="80.79" r="15.64"/><path class="cls-5" d="M189.33,84.26A7.8,7.8,0,0,0,185,85.59a7.82,7.82,0,0,1,7,13.85,7.82,7.82,0,0,0-2.63-15.18Z"/><path class="cls-5" d="M175.43,62.55a15.52,15.52,0,0,0-9.94,3.57A15.63,15.63,0,0,1,182.77,92a15.63,15.63,0,0,0-7.34-29.44Z"/><path class="cls-5" d="M145.9,108.59s4.34,28.67,59.07,13L178,98.16Z"/><rect class="cls-8" x="23.95" y="272.76" width="37.63" height="16.01" rx="7.57"/><g class="cls-9"><path class="cls-10" d="M315.2,262.54v-5.78H286.35v26.69a5.63,5.63,0,0,0,5.62,5.63h17.6a5.63,5.63,0,0,0,5.63-5.63v-5.91a7.5,7.5,0,1,0,0-15Zm0,12.11v-9.23a4.62,4.62,0,1,1,0,9.23Z"/></g><path class="cls-4" d="M314.27,263.44a6.85,6.85,0,1,0,6.85,6.85,6.85,6.85,0,0,0-6.85-6.85Zm0,11.06a4.22,4.22,0,1,1,4.22-4.21h0A4.21,4.21,0,0,1,314.27,274.5Z"/><path class="cls-8" d="M314.27,263.44a6.85,6.85,0,1,0,6.85,6.85,6.85,6.85,0,0,0-6.85-6.85Zm0,11.06a4.22,4.22,0,1,1,4.22-4.21h0A4.21,4.21,0,0,1,314.27,274.5Z"/><path class="cls-8" d="M287.93,258.17h26.34v24.34a5.16,5.16,0,0,1-5.16,5.16h-16a5.16,5.16,0,0,1-5.16-5.16V258.17Z"/><rect class="cls-11" y="287.67" width="341.93" height="11.59"/><g class="cls-9"><rect class="cls-12" x="98.26" y="203.94" width="145.41" height="83.73" rx="7.68"/></g><rect class="cls-13" x="100.89" y="205.48" width="140.14" height="82.19" rx="14.21"/><circle class="cls-8" cx="170.97" cy="246.58" r="4.74"/><rect class="cls-11" x="14.49" y="299.26" width="312.95" height="4.74"/><rect class="cls-14" x="14.49" y="299.26" width="312.95" height="1.58"/><path class="cls-14" d="M309.53,258.17v24.37a5.14,5.14,0,0,1-5.14,5.13H307a5.13,5.13,0,0,0,5.13-5.13V258.17Z"/><path class="cls-15" d="M293.13,238.53a1.53,1.53,0,0,0-1.17.59c-.34.63.28,1.33.86,1.76a11.54,11.54,0,0,1,2.88,2.69,3.37,3.37,0,0,1,.16,3.72c-1,1.39-3.47,1.69-3.7,3.4-.16,1.1.79,2,1.75,2.58,2.38,1.36,5.44,1.73,7.15,3.85a5.57,5.57,0,0,1,3.89-2.66c1.59-.37,3.23-.34,4.84-.58a1.71,1.71,0,0,0,1.34-.71c.45-.91-.84-2-.39-2.92.33-.7,1.32-.64,2-.92a2.68,2.68,0,0,0,1.33-3.19,6,6,0,0,0-2.27-2.94,25.42,25.42,0,0,0-9.12-4.22,23.51,23.51,0,0,0-4.85-1.12A24,24,0,0,0,293.13,238.53Z"/><rect class="cls-16" x="226.88" width="230.11" height="157.65"/><g class="cls-17"><rect class="cls-18" x="247.86" y="15.53" width="54.17" height="49.98" rx="2.38"/></g><rect class="cls-19" x="248.52" y="15.91" width="52.92" height="48.76" rx="2.38"/><rect class="cls-4" x="252.6" y="23.95" width="8.92" height="8.03" rx="2.38"/><rect class="cls-11" x="264.2" y="23.95" width="35.48" height="0.89" rx="0.42"/><rect class="cls-11" x="264.2" y="26.62" width="35.48" height="0.89" rx="0.42"/><rect class="cls-11" x="251.7" y="36.34" width="47.97" height="0.89" rx="0.42"/><rect class="cls-11" x="251.7" y="39.02" width="47.97" height="0.89" rx="0.42"/><rect class="cls-11" x="251.7" y="42.59" width="47.97" height="0.89" rx="0.42"/><rect class="cls-11" x="251.7" y="45.27" width="27.67" height="0.89" rx="0.42"/><rect class="cls-11" x="251.7" y="48.83" width="47.97" height="0.89" rx="0.42"/><rect class="cls-11" x="251.7" y="51.5" width="47.97" height="0.89" rx="0.42"/><rect class="cls-11" x="251.7" y="55.07" width="47.97" height="0.89" rx="0.42"/><rect class="cls-11" x="251.7" y="57.75" width="27.67" height="0.89" rx="0.42"/><g class="cls-17"><rect class="cls-20" x="256.03" y="27.08" width="54.17" height="49.98" rx="2.38"/></g><rect class="cls-21" x="256.69" y="27.46" width="52.92" height="48.76" rx="2.38"/><rect class="cls-4" x="260.77" y="35.49" width="8.92" height="8.03" rx="2.38"/><rect class="cls-11" x="272.37" y="35.49" width="35.48" height="0.89" rx="0.42"/><rect class="cls-11" x="272.37" y="38.17" width="35.48" height="0.89" rx="0.42"/><rect class="cls-11" x="259.88" y="47.89" width="47.97" height="0.89" rx="0.42"/><rect class="cls-11" x="259.88" y="50.57" width="47.97" height="0.89" rx="0.42"/><rect class="cls-11" x="259.88" y="54.14" width="47.97" height="0.89" rx="0.42"/><rect class="cls-11" x="259.88" y="56.81" width="27.67" height="0.89" rx="0.42"/><rect class="cls-11" x="259.88" y="60.38" width="47.97" height="0.89" rx="0.42"/><rect class="cls-11" x="259.88" y="63.05" width="47.97" height="0.89" rx="0.42"/><rect class="cls-11" x="259.88" y="66.62" width="47.97" height="0.89" rx="0.42"/><rect class="cls-11" x="259.88" y="69.3" width="27.67" height="0.89" rx="0.42"/><rect class="cls-22" x="332.59" y="34.64" width="29.83" height="28.66"/><rect class="cls-19" x="333.06" y="35.34" width="28.9" height="27.38"/><g class="cls-23"><rect class="cls-4" x="342.53" y="51.6" width="10.41" height="1.4"/></g><rect class="cls-24" x="338.61" y="54.17" width="17.78" height="1.4"/><g class="cls-17"><rect class="cls-25" x="376.09" y="9.55" width="65.06" height="76.44"/></g><rect class="cls-21" x="378.09" y="10.79" width="61.67" height="73.52"/><rect class="cls-11" x="387.31" y="43.04" width="43.37" height="1.85"/><rect class="cls-11" x="387.31" y="55.19" width="43.37" height="1.85"/><rect class="cls-11" x="387.31" y="58.42" width="43.37" height="1.85"/><rect class="cls-11" x="387.31" y="51.96" width="18.3" height="1.85"/><rect class="cls-8" x="417" y="51.96" width="13.69" height="1.85"/><rect class="cls-4" x="402.54" y="65.96" width="13.69" height="1.85"/><g class="cls-17"><rect class="cls-26" x="338.13" y="107.49" width="38.66" height="31.75"/></g><rect class="cls-2" x="338.58" y="108.09" width="37.68" height="30.62"/><rect class="cls-4" x="338.58" y="108.09" width="37.68" height="6.83"/><rect class="cls-14" x="338.58" y="108.09" width="37.68" height="6.83"/><rect class="cls-11" x="341.58" y="117.4" width="31.67" height="3.98"/><rect class="cls-11" x="341.58" y="124.38" width="23.12" height="1.35"/><rect class="cls-11" x="341.58" y="126.71" width="15.01" height="1.35"/><rect class="cls-11" x="341.58" y="129.03" width="19.82" height="1.35"/><rect class="cls-11" x="341.58" y="131.36" width="23.12" height="1.35"/><rect class="cls-11" x="341.58" y="133.69" width="7.73" height="1.35"/><g class="cls-17"><rect class="cls-27" x="313.92" y="95.85" width="47.91" height="39.35"/></g><rect class="cls-21" x="314.48" y="96.59" width="46.7" height="37.96"/><rect class="cls-4" x="314.48" y="96.59" width="46.7" height="8.47"/><rect class="cls-19" x="318.2" y="108.13" width="39.26" height="4.93"/><rect class="cls-11" x="318.2" y="116.78" width="28.65" height="1.67"/><rect class="cls-11" x="318.2" y="119.66" width="18.61" height="1.67"/><rect class="cls-11" x="318.2" y="122.55" width="24.56" height="1.67"/><rect class="cls-11" x="318.2" y="125.43" width="28.65" height="1.67"/><rect class="cls-11" x="318.2" y="128.31" width="9.58" height="1.67"/><rect class="cls-8" x="320.25" y="109.8" width="11.16" height="1.49"/><circle class="cls-16" cx="248.59" cy="193.88" r="6.47"/><circle class="cls-16" cx="260.61" cy="173.09" r="6.47"/></svg>