<svg id="Layer_1" data-name="Layer 1" xmlns="http://www.w3.org/2000/svg" viewBox="0 0 490.68 330"><defs><style>.cls-1{fill:#2f2e41;}.cls-2{fill:#ffb8b8;}.cls-3{fill:#3f3d56;}.cls-4{fill:#10c0e8;}.cls-5{fill:#fff;}.cls-6{fill:#f2f2f2;}.cls-7{fill:#ee4693;}.cls-8{fill:#a0616a;}.cls-9{fill:#cacaca;}</style></defs><title>Artboard 52</title><path class="cls-1" d="M393.77,43.06l1.57-12.62a17,17,0,0,1,33.82,4.19v0l-1.58,12.62a2.29,2.29,0,0,1-2.55,2l-29.28-3.65A2.29,2.29,0,0,1,393.77,43.06Z"/><circle class="cls-2" cx="407.79" cy="34.33" r="12.49"/><path class="cls-1" d="M391.21,31a13.5,13.5,0,0,1,15.05-11.7l2.52.31a13.5,13.5,0,0,1,11.71,15.05l0,.25-5.34-.67-1.18-5.32-1,5.05-2.75-.34-.6-2.69-.51,2.55-17.9-2.23Z"/><path class="cls-2" d="M346.69,78.9a5.75,5.75,0,0,0,7.74,2.51,5.16,5.16,0,0,0,.86-.54l11.34,6.65,5.73-5.91L356.2,72.45a5.79,5.79,0,0,0-9.51,6.45Z"/><path class="cls-3" d="M383.88,90.84c-8.37,0-23.1-3.75-23.92-4l-.25-.06L362,75.08l22.5,4.45,12.22-17.21,14-1.43-.39.52c-.18.24-18.27,24-21.08,28C388.59,90.46,386.56,90.84,383.88,90.84Z"/><path class="cls-3" d="M386.12,134.89l-.33-.16c-.08,0-7.19-3.49-10.87-10.25s13.49-35.22,14.69-37.2l0-9.06,6.17-16.66,7.88-4.45-6.76,15.77Z"/><polygon class="cls-2" points="378.23 232.19 370.71 232.19 367.13 203.17 378.24 203.17 378.23 232.19"/><path class="cls-1" d="M380.15,239.49H355.89v-.31a9.44,9.44,0,0,1,9.45-9.44h14.81Z"/><polygon class="cls-2" points="459.05 225.6 451.9 227.94 439.46 201.48 450.01 198.02 459.05 225.6"/><path class="cls-1" d="M463.14,231.93l-23.05,7.56-.1-.29a9.45,9.45,0,0,1,6-11.92h0l14.08-4.61Z"/><path class="cls-1" d="M444.48,220.86,423,185.05l-18.1-38.26-16.3,33.8-6.47,43.76-22.7.32.09-.36,34.74-138,27.2,4.07-1.24,18,.74,1c6.15,8.73,12.5,17.76,8.86,27.49l10.33,30.68,22.87,51.08Z"/><path class="cls-4" d="M395.53,116.2c-3.94,0-8.44-4.5-6.11-12.18l-.15-.11,5.61-24.76c-4.89-7,1.56-12.77,2.16-13.28l3.08-5.54,13.58-8.62,6.87,57.1-.1.09C415.51,113.65,398.84,116.2,395.53,116.2Z"/><path class="cls-3" d="M423.34,129.09a6.65,6.65,0,0,1-1.6-.17c-.53-.13-1.38-.81-2.7-5.11-5.26-17.1-11.46-68.56-7-73.6l.1-.11,7.4,1.23c.61-.45,3.84-2.71,6.82-2.32a4.52,4.52,0,0,1,3.09,1.83l.05.07,2.36,33.53,8.63,39.46-.2.09C439.83,124.22,429.05,129.09,423.34,129.09Z"/><path class="cls-2" d="M418.37,116a5.75,5.75,0,0,0,5.56-5.94,5.69,5.69,0,0,0-.12-1l10.83-7.46-2.93-7.68-15.15,10.74A5.79,5.79,0,0,0,418.37,116Z"/><path class="cls-3" d="M431.06,107.55l-9.65-7.07L435,82l-10.4-18.36,4.65-13.31.31.57c.14.27,14,26.74,16.46,31,2.52,4.41-14.05,24.62-14.76,25.47Z"/><path class="cls-5" d="M336.35,147l-177.26,6A16.55,16.55,0,0,1,142,137L139.09,50.9a16.55,16.55,0,0,1,16-17.09l177.26-6a16.56,16.56,0,0,1,17.08,16l2.92,86.12A16.54,16.54,0,0,1,336.35,147Z"/><path class="cls-6" d="M352.31,129.89v.46a15.78,15.78,0,0,1-15.24,16.31l-178.14,6a15.8,15.8,0,0,1-16.32-15.25V137Z"/><path class="cls-7" d="M177.32,60.63c-12.77,3.61-24.66-5.9-27-15l.89-.19C162,42.65,174.37,50,177.32,60.63Z"/><path class="cls-3" d="M303.53,122.2a9.1,9.1,0,0,1-6.88-2.32c-3.83-3.68-3.85-11-3.86-16.95,0-1.72,0-3.35-.11-4.71v0a10.09,10.09,0,0,1,9.69-10.37L326.21,87a9,9,0,0,1,6.88,2.31c3.83,3.69,3.85,11,3.86,17,0,1.73,0,3.35.11,4.71a10.1,10.1,0,0,1-9.69,10.4Zm-9.85-24c.1,1.39.11,3,.11,4.76,0,5.73,0,12.85,3.55,16.24a8,8,0,0,0,6.16,2l23.83-.8a9.1,9.1,0,0,0,8.73-9.34c-.1-1.38-.11-3-.11-4.77,0-5.72,0-12.84-3.55-16.23a8,8,0,0,0-6.15-2l-23.84.81A9.1,9.1,0,0,0,293.68,98.16Z"/><path class="cls-3" d="M172.08,61.73a22.46,22.46,0,0,1-11.92-3.06c-5.28-3-9.37-8.06-10.65-13.1l-.13-.5,1.39-.3c10.93-2.8,23.65,4.61,26.69,15.55l.13.49-.47.13A20.94,20.94,0,0,1,172.08,61.73Zm-21.46-15.9c1.35,4.61,5.16,9.16,10,12a20.92,20.92,0,0,0,15.69,2.31c-3.14-10.19-15.07-17-25.34-14.37Z"/><path class="cls-3" d="M160.12,119.1a8.32,8.32,0,0,1-7.64-3.88,10.42,10.42,0,0,1-.35-10.2,8.35,8.35,0,0,1,7.54-4.4l31.77-1.08a8.38,8.38,0,0,1,7.81,3.89,10.42,10.42,0,0,1,.34,10.19,8.37,8.37,0,0,1-7.53,4.4l-31.77,1.07Zm-.57-17.48A7.4,7.4,0,0,0,153,105.5a9.39,9.39,0,0,0,.32,9.18,7.36,7.36,0,0,0,6.92,3.41L192,117a7.39,7.39,0,0,0,6.68-3.87,9.38,9.38,0,0,0-.31-9.19,7.42,7.42,0,0,0-6.92-3.42l-31.79,1.08Z"/><path class="cls-7" d="M310.92,99.46l-10,.34a2.51,2.51,0,1,1-.17-5h0l10-.34a2.51,2.51,0,1,1,.17,5Z"/><path class="cls-7" d="M311.19,107.47l-10,.34a2.5,2.5,0,1,1-.17-5h0l10-.34a2.5,2.5,0,1,1,.17,5Z"/><path class="cls-7" d="M311.47,115.48l-10,.34a2.5,2.5,0,1,1-.17-5l10-.34a2.5,2.5,0,1,1,.17,5Z"/><path class="cls-7" d="M328.45,98.87l-10,.34a2.51,2.51,0,1,1-.17-5h0l10-.34a2.51,2.51,0,0,1,.18,5Z"/><path class="cls-7" d="M328.72,106.88l-10,.34a2.51,2.51,0,1,1-.17-5h0l10-.34a2.51,2.51,0,0,1,.18,5Z"/><path class="cls-7" d="M329,114.89l-10,.34a2.51,2.51,0,1,1-.17-5h0l10-.34a2.51,2.51,0,0,1,.17,5Z"/><rect class="cls-3" x="140.28" y="66.07" width="209.82" height="1" transform="translate(-2.11 8.34) rotate(-1.94)"/><path class="cls-3" d="M336.35,147l-177.26,6A16.55,16.55,0,0,1,142,137L139.09,50.9a16.55,16.55,0,0,1,16-17.09l177.26-6a16.56,16.56,0,0,1,17.08,16l2.92,86.12A16.54,16.54,0,0,1,336.35,147ZM155.08,34.81a15.55,15.55,0,0,0-15,16L143,137a15.55,15.55,0,0,0,16.05,15l177.25-6a15.55,15.55,0,0,0,15-16.05L348.39,43.8a15.55,15.55,0,0,0-16.05-15Z"/><path class="cls-8" d="M82.38,125.67a6,6,0,0,0-6.31-5.74,5.4,5.4,0,0,0-1.06.14l-8-11.24L59,112l11.49,15.72a6.07,6.07,0,0,0,11.87-2.06Z"/><path class="cls-3" d="M66.83,124.83,42.69,93.52l9.05-28.43C52.4,58,56.87,56,57.06,55.87l.29-.13,7.87,21L59.44,92.14,73.63,116Z"/><path class="cls-8" d="M150.66,28.3A6,6,0,0,0,145.42,35a6.24,6.24,0,0,0,.23,1L135.06,44.9l3.79,7.74L153.63,40a6.06,6.06,0,0,0-3-11.67Z"/><path class="cls-3" d="M151,43.87,121.68,70.35l-29-6.82c-7.18-.11-9.51-4.41-9.61-4.59l-.15-.28,20.32-9.47L119,53.76l22.69-16Z"/><polygon class="cls-8" points="100.18 232.16 108.07 232.16 111.82 201.74 100.18 201.74 100.18 232.16"/><path class="cls-1" d="M123.28,239.49H98.49v-9.58h16.3a8.49,8.49,0,0,1,8.49,8.49h0v1.09Z"/><polygon class="cls-8" points="68.66 232.16 76.55 232.16 80.3 201.74 68.66 201.74 68.66 232.16"/><path class="cls-1" d="M91.76,239.49H67v-9.58h16.3a8.49,8.49,0,0,1,8.49,8.49h0v1.09Z"/><polygon class="cls-1" points="65.86 121.12 66.5 166.16 67.14 225.34 81.3 224.05 88.37 142.35 97.38 224.05 111.99 224.05 113.46 141.71 108.31 123.69 65.86 121.12"/><path class="cls-3" d="M93.56,127.17c-15.4,0-29.58-7-29.77-7.06l-.16-.08L62.34,89c-.37-1.09-7.75-22.72-9-29.59S70.42,46.34,72.65,45.63L73.16,40l20.56-2.21L96.33,45l7.38,2.76A3.65,3.65,0,0,1,106,52l-4.1,16.68,10,55.17-2.15.09A39.28,39.28,0,0,1,93.56,127.17Z"/><circle class="cls-8" cx="84.24" cy="19.45" r="14.81"/><path class="cls-1" d="M72.25,33.79c2.82,3,8.06,1.39,8.43-2.72a4.3,4.3,0,0,0,0-.95c-.18-1.82-1.24-3.48-1-5.4a2.79,2.79,0,0,1,.51-1.32c2.25-3,7.53,1.35,9.65-1.38,1.3-1.67-.23-4.3.77-6.17,1.32-2.47,5.22-1.25,7.67-2.6,2.73-1.5,2.56-5.68.77-8.22a13,13,0,0,0-9.81-5A26.44,26.44,0,0,0,78.17,2.2c-4,1.56-8,3.73-10.47,7.26-3,4.29-3.29,10.06-1.79,15.09C66.83,27.6,70,31.33,72.25,33.79Z"/><path class="cls-9" d="M490.08,240.29H.6a.6.6,0,0,1,0-1.2H490.08a.6.6,0,1,1,0,1.2Z"/><polygon class="cls-2" points="272.96 323.11 280.06 323.11 283.44 295.71 272.96 295.71 272.96 323.11"/><path class="cls-1" d="M271.15,320.79h14a8.92,8.92,0,0,1,8.91,8.92V330h-22.9Z"/><polygon class="cls-2" points="206.9 323.11 214 323.11 217.38 295.71 206.9 295.71 206.9 323.11"/><path class="cls-1" d="M205.09,320.79h14a8.92,8.92,0,0,1,8.91,8.92V330h-22.9Z"/><path class="cls-1" d="M275.79,184.06s6,16.18,5.11,23,6,54.52,5.11,58.78.85,25.55,0,29,2.39,7.48.69,10.88-4.1,10.42-4.1,10.42l-11.07-.86-1.7-9.37s-5.11-.85-4.26-6-4.26-39.18-4.26-39.18L246.83,213l-20.45,43.45s-.85,30.66-3.4,34.07,2.55,12.78,0,16.18a56.76,56.76,0,0,0-5.12,9.38H205.09v-6.82s-7.67-4.26,0-17l5.18-76.73,5.11-34.93Z"/><circle class="cls-2" cx="244.03" cy="61.04" r="15.91"/><path class="cls-1" d="M257.57,59.94l-3.36,8.6c-1.38,3.53-3,7.3-6.2,9.27-4,2.43-9.33,1.25-13.19-1.39a20.6,20.6,0,0,1,9.27-37.49l.16,2.88,3.53-3a3.44,3.44,0,0,0,4.7,1.24,3.39,3.39,0,0,0,.64-.49c-.92,1.93.15,4.27,1.69,5.75,1.91,1.81,7.34,4,7.12,7.22C261.78,54.73,258.45,57.7,257.57,59.94Z"/><path class="cls-2" d="M200.24,207.59a6.73,6.73,0,0,1,1.84-9.34,6.64,6.64,0,0,1,1-.57l-.32-15.4,9.3-2.47.15,21.74a6.77,6.77,0,0,1-12,6Z"/><path class="cls-3" d="M232.22,86.78s12.32-6.16,24-2S274,93.63,274,93.63l-7.54,39.73,10.28,53.43s-52.74-4.11-57.54,0-4.79-4.8-4.79-4.8l4.11-50.69L211,99.11Z"/><path class="cls-2" d="M284.25,208.51a6.75,6.75,0,0,1-.85-9.49,5.56,5.56,0,0,1,.84-.84l-4.63-14.69,8.24-5,6.24,20.83a6.78,6.78,0,0,1-9.84,9.18Z"/><path class="cls-3" d="M269.2,93.63H274s7.53,4.8,7.53,11.64,11,87,11,87l-11.64,2.06-10.28-56.17L263,123.08Z"/><path class="cls-3" d="M224,99.11H211s-4.11,4.11-6.16,13.7-4.11,47.26-4.11,47.26l1.37,34.25h10.27l1.37-44.52L220.57,121Z"/></svg>