<svg id="Layer_1" data-name="Layer 1" xmlns="http://www.w3.org/2000/svg" viewBox="0 0 468.3 330"><defs><style>.cls-1{fill:#f2f2f2;}.cls-2{fill:#3f3d56;}.cls-3{fill:#ee4693;}.cls-4{fill:#10c0e8;}.cls-5{fill:#e6e6e6;}.cls-6{fill:#ccc;}.cls-7{fill:#ffb8b8;}.cls-8{fill:#2f2e41;}.cls-9{fill:#a0616a;}</style></defs><title>Artboard 28</title><path class="cls-1" d="M103.77,33.06H73.91A10.84,10.84,0,0,0,63.08,43.89V76.27c-.38,0-.76-.06-1.14-.11A38.18,38.18,0,1,1,103.6,31.92C103.67,32.3,103.72,32.68,103.77,33.06Z"/><path class="cls-2" d="M456.34,31.92H73.91a12,12,0,0,0-12,12V245.64a12,12,0,0,0,12,12H456.34a12,12,0,0,0,12-12V43.89A12,12,0,0,0,456.34,31.92Zm10.82,213.72a10.83,10.83,0,0,1-10.82,10.83H73.91a10.84,10.84,0,0,1-10.83-10.83V43.89A10.84,10.84,0,0,1,73.91,33.06H456.34a10.83,10.83,0,0,1,10.82,10.83Z"/><path class="cls-2" d="M437.53,64.62H92.72a.57.57,0,0,1-.57-.57.56.56,0,0,1,.57-.57H437.53a.57.57,0,0,1,.57.57A.58.58,0,0,1,437.53,64.62Z"/><path class="cls-2" d="M190.18,233.11a.57.57,0,0,1-.57-.57V45a.56.56,0,0,1,.57-.57.57.57,0,0,1,.57.57V232.54A.58.58,0,0,1,190.18,233.11Z"/><path class="cls-2" d="M276.24,233.11a.57.57,0,0,1-.57-.57V45a.56.56,0,0,1,.57-.57.57.57,0,0,1,.57.57V232.54A.58.58,0,0,1,276.24,233.11Z"/><path class="cls-2" d="M362.3,233.11a.57.57,0,0,1-.57-.57V45a.56.56,0,0,1,.57-.57.57.57,0,0,1,.57.57V232.54A.58.58,0,0,1,362.3,233.11Z"/><path class="cls-3" d="M134.85,123.44H114a2.56,2.56,0,0,1-2.56-2.56V96.3A2.56,2.56,0,0,1,114,93.74h20.83a2.56,2.56,0,0,1,2.56,2.56v24.58A2.56,2.56,0,0,1,134.85,123.44Z"/><path class="cls-3" d="M164.48,193.55H143.66a2.58,2.58,0,0,1-2.57-2.57V166.41a2.57,2.57,0,0,1,2.57-2.57h20.82a2.58,2.58,0,0,1,2.57,2.57V191A2.58,2.58,0,0,1,164.48,193.55Z"/><path class="cls-4" d="M231.73,138.26H210.91a2.57,2.57,0,0,1-2.57-2.56V111.12a2.57,2.57,0,0,1,2.57-2.56h20.82a2.57,2.57,0,0,1,2.57,2.56V135.7A2.57,2.57,0,0,1,231.73,138.26Z"/><path class="cls-3" d="M318.93,111.47H298.11a2.57,2.57,0,0,1-2.57-2.56V84.33a2.57,2.57,0,0,1,2.57-2.56h20.82a2.57,2.57,0,0,1,2.57,2.56v24.58A2.56,2.56,0,0,1,318.93,111.47Z"/><path class="cls-3" d="M399.29,111.47H378.47a2.57,2.57,0,0,1-2.57-2.56V84.33a2.57,2.57,0,0,1,2.57-2.56h20.82a2.57,2.57,0,0,1,2.57,2.56v24.58A2.56,2.56,0,0,1,399.29,111.47Z"/><path class="cls-5" d="M436.34,118.31H415.51a2.56,2.56,0,0,1-2.56-2.56V91.17a2.56,2.56,0,0,1,2.56-2.56h20.83a2.56,2.56,0,0,1,2.56,2.56v24.58A2.55,2.55,0,0,1,436.34,118.31Z"/><path class="cls-5" d="M419.81,162.2H399a2.57,2.57,0,0,1-2.57-2.57V135.06a2.58,2.58,0,0,1,2.57-2.57h20.82a2.58,2.58,0,0,1,2.57,2.57v24.57A2.57,2.57,0,0,1,419.81,162.2Z"/><path class="cls-4" d="M349.14,153.08H328.31a2.56,2.56,0,0,1-2.56-2.56V125.94a2.56,2.56,0,0,1,2.56-2.56h20.83a2.55,2.55,0,0,1,2.56,2.56v24.58A2.56,2.56,0,0,1,349.14,153.08Z"/><path class="cls-5" d="M308.67,162.2H287.85a2.58,2.58,0,0,1-2.57-2.57V135.06a2.58,2.58,0,0,1,2.57-2.57h20.82a2.58,2.58,0,0,1,2.57,2.57v24.57A2.57,2.57,0,0,1,308.67,162.2Z"/><path class="cls-5" d="M221.48,201H200.65a2.55,2.55,0,0,1-2.56-2.56V173.81a2.56,2.56,0,0,1,2.56-2.56h20.83a2.56,2.56,0,0,1,2.56,2.56v24.58A2.56,2.56,0,0,1,221.48,201Z"/><path class="cls-4" d="M116,168.47H95.21a2.57,2.57,0,0,1-2.56-2.57V141.33a2.57,2.57,0,0,1,2.56-2.57H116a2.57,2.57,0,0,1,2.56,2.57V165.9A2.57,2.57,0,0,1,116,168.47Z"/><path class="cls-5" d="M174.74,123.44H153.92a2.57,2.57,0,0,1-2.57-2.56V96.3a2.57,2.57,0,0,1,2.57-2.56h20.82a2.57,2.57,0,0,1,2.57,2.56v24.58A2.57,2.57,0,0,1,174.74,123.44Z"/><path class="cls-6" d="M157.69,55.29H125.2a2.28,2.28,0,0,1,0-4.56h32.49a2.28,2.28,0,0,1,0,4.56Z"/><path class="cls-6" d="M249.45,55.29H217a2.28,2.28,0,1,1,0-4.56h32.49a2.28,2.28,0,0,1,0,4.56Z"/><path class="cls-6" d="M335.51,55.29H303a2.28,2.28,0,1,1,0-4.56h32.49a2.28,2.28,0,1,1,0,4.56Z"/><path class="cls-6" d="M415.87,55.29H383.38a2.28,2.28,0,1,1,0-4.56h32.49a2.28,2.28,0,0,1,0,4.56Z"/><path class="cls-7" d="M84.93,222.22A5.75,5.75,0,0,1,79.78,216a6.65,6.65,0,0,1,.19-1l-14.61-13.6,7.73-2,14.36,11.65a5.77,5.77,0,0,1-2.52,11.17Z"/><polygon class="cls-7" points="105.1 322.73 112.09 322.73 115.41 295.78 105.1 295.78 105.1 322.73"/><path class="cls-8" d="M125.56,329.22h-22v-8.49h13.48a8.48,8.48,0,0,1,8.48,8.49Z"/><polygon class="cls-7" points="57.19 317.69 63.95 319.48 74.09 294.29 64.13 291.64 57.19 317.69"/><path class="cls-8" d="M75.3,329.22l-21.22-5.65h0l2.18-8.2h0l13,3.47a8.48,8.48,0,0,1,6,10.38Z"/><path class="cls-8" d="M114,317.63H103.31a2.71,2.71,0,0,1-2.7-2.45L94.14,248a2.14,2.14,0,0,0-4.17-.41l-18.8,62.81a2.7,2.7,0,0,1-3.24,1.85L58,309.74a2.72,2.72,0,0,1-2-3.29h0c.16-.64,16.2-63.28,16.34-63.93,3.63-26.76,8-33.94,10.31-37.79.19-.32.37-.61.53-.89s1.43-3.79,2.21-6a2.75,2.75,0,0,1,1.39-1.7c9.81-5,21.28-1.54,24.57-.36a2.68,2.68,0,0,1,1.33,1c9.85,14.86,5,101.16,4,118.3A2.71,2.71,0,0,1,114,317.63Z"/><circle class="cls-7" cx="86.45" cy="133.38" r="14"/><path class="cls-6" d="M85,200.53l-.1-.1C84.68,200.25,66,182,68.44,165.08c1-7.23,6.88-11.84,16.91-13.35a15.45,15.45,0,0,1,17.1,10.89l9.92,33.91Z"/><path class="cls-6" d="M75.42,213.52l-13.29-13.2a7.5,7.5,0,0,1-2-7.06l6.44-26.18a5.89,5.89,0,0,1,7.13-4.32l.38.11A5.93,5.93,0,0,1,78,170.16l-6.78,23,11,11.76Z"/><path class="cls-7" d="M146.71,168.45a5.73,5.73,0,0,1-7.61,2.8,5.87,5.87,0,0,1-.88-.5L120.48,180l.79-7.82L137,162.4a5.77,5.77,0,0,1,9.72,6Z"/><path class="cls-6" d="M136.29,174.27,119,181.74a7.28,7.28,0,0,1-7.11-.76l-22-15.76A5.89,5.89,0,0,1,88.53,157a3.55,3.55,0,0,1,.23-.31,5.93,5.93,0,0,1,8.21-.89l18.86,14.84,15-5.8Z"/><path class="cls-8" d="M88.77,137.87c1.73-2.17,5-2.28,7.33-3.71,3.11-1.87,4.39-6,3.39-9.53a11.94,11.94,0,0,0-7.34-7.5,20.22,20.22,0,0,0-10.72-.69c-5.32.93-10.56,3.42-13.8,7.73s-4.07,10.64-1.13,15.17c1.35,2.08,3.44,3.8,4,6.22.7,3.18-1.53,6.25-3.92,8.46-2.72,2.53-5.84,4.64-8.23,7.48s-4,6.73-2.88,10.28c.91,3,3.56,5.16,6.47,6.26a27.36,27.36,0,0,0,9.19,1.32c3,0,6.22,0,8.77-1.65a10.19,10.19,0,0,0,4.28-8.28,19.52,19.52,0,0,0-2.42-9.28,37.56,37.56,0,0,1-2.44-5.23,7.36,7.36,0,0,1,.25-5.63,7,7,0,0,1,4.9-3.24l.33-.06a4.21,4.21,0,0,0,3.64-4.72l0-.19A4.11,4.11,0,0,1,88.77,137.87Z"/><polygon class="cls-9" points="275.41 323.33 268.43 323.33 265.1 296.38 275.41 296.38 275.41 323.33"/><path class="cls-8" d="M263.43,321.33h13.48v8.48H255a8.48,8.48,0,0,1,8.48-8.48Z"/><polygon class="cls-9" points="326.11 315.41 319.75 318.31 305.53 295.18 314.91 290.9 326.11 315.41"/><path class="cls-8" d="M314.39,318.57l12.25-5.6h0l3.53,7.72h0l-20,9.12h0A8.49,8.49,0,0,1,314.39,318.57Z"/><path class="cls-9" d="M305.76,232.45a5.73,5.73,0,0,0,1.14-8,6.06,6.06,0,0,0-.68-.75L314.43,205,304,206.81l-6.2,17.43a5.76,5.76,0,0,0,8,8.21Z"/><path class="cls-8" d="M275,316.22h-6.68a2.58,2.58,0,0,1-2.56-2.38l-3.64-97.21a2.56,2.56,0,0,1,2.38-2.74,2.06,2.06,0,0,1,.43,0l38.6,4.1a2.56,2.56,0,0,1,2.32,2.5l.81,42.88a2,2,0,0,0,.13.68l15.84,41.06a2.57,2.57,0,0,1-1.47,3.32h0l-6.76,2.5a2.58,2.58,0,0,1-3.17-1.24l-19.45-37.82a2.25,2.25,0,0,1-.23-.66l-3.33-16a2,2,0,0,0-3.93.18L277.51,314A2.55,2.55,0,0,1,275,316.22Z"/><circle class="cls-9" cx="278.29" cy="126.63" r="14"/><path class="cls-3" d="M287.89,225.52a49.9,49.9,0,0,1-26.71-8.09l-.14-.09v-.17l5.36-62.36a8.78,8.78,0,0,1,8.32-8c6.94-.32,16.26.08,21.25,3.8a24.33,24.33,0,0,1,10,23.2c-2.5,18.93.33,44.47.66,47.32l0,.21-.19.08A43.92,43.92,0,0,1,287.89,225.52Z"/><path class="cls-3" d="M306.55,221.23a2.85,2.85,0,0,1-2.1-.93L301.39,217a2.87,2.87,0,0,1-.63-2.73l7-23.63-10.63-22.31a5.1,5.1,0,0,1-.34-3.35,5,5,0,0,1,9.3-1.19l14.41,23.39a6.78,6.78,0,0,1,.41,6.38l-11.74,26a2.84,2.84,0,0,1-2.15,1.64A3.42,3.42,0,0,1,306.55,221.23Z"/><path class="cls-9" d="M207.88,176.09a5.74,5.74,0,0,0,8-1.18,5.85,5.85,0,0,0,.53-.86l20.2,2.62L232,167.15l-18.46-1a5.76,5.76,0,0,0-5.64,10Z"/><path class="cls-3" d="M252.4,181.28a7.41,7.41,0,0,1-1.05-.07l-31.78-4.41a3.16,3.16,0,0,1-2.42-1.77,3.94,3.94,0,0,1-.18-.48h0a3.14,3.14,0,0,1,.33-2.52l2.63-4.36a3.16,3.16,0,0,1,2.71-1.53h0l27.7,0L271,147.64a5.6,5.6,0,0,1,7.68,8.16l-20.64,22.95A7.6,7.6,0,0,1,252.4,181.28Z"/><path class="cls-8" d="M279.88,139.08c1.28-3,2.36-6.9-.09-9-1.42-1.22-3.47-1.22-5.34-1.37-5.25-.43-10.66-2.84-13.23-7.45s-1.13-11.44,3.71-13.52c3.27-1.4,7-.45,10.43.52l10.26,2.91c3.05.87,6.25,1.82,8.45,4.11,3.5,3.64,3.24,9.81.46,14s-7,8.62-11.77,10.22Z"/><path class="cls-2" d="M421.46,330H.68a.68.68,0,1,1,0-1.36H421.46a.68.68,0,0,1,0,1.36Z"/></svg>