<svg id="Layer_1" data-name="Layer 1" xmlns="http://www.w3.org/2000/svg" viewBox="0 0 395.31 330"><defs><style>.cls-1{fill:#f2f2f2;}.cls-2{fill:#fff;}.cls-3{fill:#3f3d56;}.cls-4{fill:#ccc;}.cls-5{fill:#ee4693;}.cls-6{fill:#2f2e41;}.cls-7{fill:#ffb8b8;}.cls-8{opacity:0.2;isolation:isolate;}</style></defs><title>Artboard 26</title><rect class="cls-1" x="-17.87" y="78.9" width="313.91" height="15.93" transform="matrix(0.86, -0.51, 0.51, 0.86, -24.85, 83.04)"/><rect class="cls-1" x="40.83" y="92.32" width="313.91" height="15.93" transform="translate(-23.49 114.84) rotate(-30.65)"/><rect class="cls-1" x="92.82" y="106.99" width="313.91" height="15.93" transform="translate(-23.71 143.39) rotate(-30.65)"/><circle class="cls-2" cx="175.9" cy="103.04" r="84.55"/><path class="cls-3" d="M90.72,103a85.18,85.18,0,1,1,85.18,85.18A85.27,85.27,0,0,1,90.72,103ZM92,103A83.93,83.93,0,1,0,175.9,19.11,84,84,0,0,0,92,103Z"/><path class="cls-3" d="M160.83,103.4h0a15.08,15.08,0,1,1,15.07,15.08h0a15.08,15.08,0,0,1-15.07-15.08ZM175.9,89.07a14.35,14.35,0,0,0-14.33,14.33h0A14.34,14.34,0,1,0,175.9,89.07Z"/><path class="cls-4" d="M147.23,103.4h0a28.68,28.68,0,1,1,28.67,28.68,28.68,28.68,0,0,1-28.67-28.68ZM175.9,75.47a27.94,27.94,0,1,0,27.94,27.93A27.93,27.93,0,0,0,175.9,75.47Z"/><path class="cls-4" d="M120,103.4a55.88,55.88,0,1,1,55.87,55.88A55.87,55.87,0,0,1,120,103.4ZM175.9,48.26a55.15,55.15,0,1,0,55.15,55.14A55.14,55.14,0,0,0,175.9,48.26Z"/><circle class="cls-5" cx="175.9" cy="103.04" r="6.98"/><circle class="cls-5" cx="157.89" cy="123.26" r="6.98"/><circle class="cls-5" cx="228.17" cy="120.32" r="6.98"/><circle class="cls-6" cx="175.9" cy="103.04" r="3.31"/><circle class="cls-6" cx="228.17" cy="120.32" r="3.31"/><circle class="cls-6" cx="157.89" cy="123.62" r="3.31"/><circle class="cls-5" cx="21.5" cy="65.91" r="3.31"/><polygon class="cls-6" points="175.72 66.09 30.51 66.09 30.51 65.36 176.46 65.36 176.46 103.22 175.72 103.22 175.72 66.09"/><path class="cls-6" d="M12,65.91a9.56,9.56,0,1,1,9.55,9.56A9.55,9.55,0,0,1,12,65.91Zm9.55-8.83a8.83,8.83,0,1,0,8.83,8.83h0a8.85,8.85,0,0,0-8.83-8.83Z"/><circle class="cls-5" cx="43.56" cy="161.12" r="3.31"/><path class="cls-6" d="M34,161.12h0a9.56,9.56,0,1,1,9.56,9.56h0A9.56,9.56,0,0,1,34,161.12Zm9.56-8.82a8.82,8.82,0,1,0,8.82,8.82h0A8.82,8.82,0,0,0,43.56,152.3Z"/><circle class="cls-5" cx="330.73" cy="81.35" r="3.31"/><path class="cls-6" d="M321.17,81.35a9.56,9.56,0,1,1,9.56,9.56,9.56,9.56,0,0,1-9.56-9.56Zm9.56-8.83a8.84,8.84,0,0,0-8.82,8.83h0a8.82,8.82,0,1,0,8.82-8.83Z"/><polygon class="cls-6" points="227.8 82.46 321.54 80.98 321.55 81.72 228.53 83.18 228.53 120.31 227.8 120.31 227.8 82.46"/><polygon class="cls-6" points="52.75 160.75 157.52 160.75 157.52 123.62 158.26 123.62 158.26 161.49 52.75 161.49 52.75 160.75"/><rect class="cls-4" x="1.28" y="83.19" width="40.44" height="2.57"/><rect class="cls-4" x="1.28" y="90.54" width="40.44" height="2.57"/><rect class="cls-4" x="1.28" y="97.89" width="40.44" height="2.57"/><rect class="cls-4" x="23.34" y="178.4" width="40.44" height="2.57"/><rect class="cls-4" x="23.34" y="185.75" width="40.44" height="2.57"/><rect class="cls-4" x="23.34" y="193.1" width="40.44" height="2.57"/><rect class="cls-4" x="310.51" y="98.99" width="40.44" height="2.57"/><rect class="cls-4" x="310.51" y="106.35" width="40.44" height="2.57"/><rect class="cls-4" x="310.51" y="113.7" width="40.44" height="2.57"/><polygon class="cls-7" points="370.2 318.24 364.45 320.3 353.79 299.09 362.27 296.06 370.2 318.24"/><path class="cls-6" d="M355.12,329.92l-.09-.23a7.68,7.68,0,0,1,4.64-9.8L371,315.84l2.66,7.45Z"/><polygon class="cls-7" points="332.81 323.93 326.7 323.93 323.79 300.37 332.81 300.38 332.81 323.93"/><path class="cls-6" d="M334.36,329.85H314.67v-.25a7.66,7.66,0,0,1,7.67-7.66h12Z"/><path class="cls-5" d="M346.72,173.44l-2.65-5.25s-9.9,2.48-10.8,8.21Z"/><polygon class="cls-6" points="357.68 233.45 350.46 273.75 369.64 307.67 358.18 312.15 338.75 279.27 336.26 270.31 334.77 317.13 324.44 316.82 319.7 273.1 327.3 232.45 357.68 233.45"/><path class="cls-3" d="M323.18,240.72c-.22-1-.86-31.47-.86-31.47s10.62-34.88,10.72-35.16l0-.11,8.06-3c.11,0,2.8-1.25,5-.25a4.32,4.32,0,0,1,2.29,2.82c.92.68,7.51,8.06,7.51,18.08l.25,23.64,5.52,25.62-.24,0A66.83,66.83,0,0,1,344,243C338.08,243,323.18,240.72,323.18,240.72Z"/><circle class="cls-7" cx="335.82" cy="155.64" r="10.9"/><polygon class="cls-8" points="351.35 203.66 332.28 230.27 329.46 217.84 351.35 203.66"/><path class="cls-7" d="M317.5,230.84A4.68,4.68,0,0,0,322,226a4.61,4.61,0,0,0-.11-.82l14.17-8.69-7.82-3.66L316,221.63a4.7,4.7,0,0,0,1.53,9.21Z"/><polygon class="cls-5" points="327.3 213.02 322.44 216.42 326.56 223.73 332.28 219 327.3 213.02"/><path class="cls-3" d="M324.75,213.24,336.17,200l-4.37-18.25a8,8,0,0,1,14.79-5.64l.1.18,4,27.1-20.25,20.76Z"/><path class="cls-6" d="M345.1,165.1l-9,.33c-.56,0-2.05-5.94-2.25-7.17a3.37,3.37,0,0,0-3.51-2.73c-.68.07-2.39-1.2-4.15-2.7a6.65,6.65,0,0,1,.5-10.59l.3-.18a16,16,0,0,1,7.69-1.76,14.36,14.36,0,0,1,7,1.41c3.81,2,5.83,6.51,6,10.82s-1.21,8.54-2.78,12.56"/><path class="cls-3" d="M394.81,330H284.72a.5.5,0,0,1-.5-.5.5.5,0,0,1,.5-.5H394.81a.51.51,0,0,1,.5.5A.5.5,0,0,1,394.81,330Z"/></svg>