<svg id="Layer_1" data-name="Layer 1" xmlns="http://www.w3.org/2000/svg" viewBox="0 0 444.99 267.09"><defs><style>.cls-1{fill:#f2f2f2;}.cls-2{fill:#ccc;}.cls-3{fill:#ffb8b8;}.cls-4{fill:#2f2e41;}.cls-5{fill:#ee4693;}.cls-6{fill:#e6e6e6;}.cls-7{fill:#3f3d56;}.cls-8{fill:#fff;}</style></defs><title>Artboard 63</title><path class="cls-1" d="M28,56A28,28,0,1,1,56,28,28,28,0,0,1,28,56ZM28,1.17A26.83,26.83,0,1,0,54.82,28h0A26.85,26.85,0,0,0,28,1.17Z"/><path class="cls-1" d="M218.11,39.66a14,14,0,1,1,14-14A14,14,0,0,1,218.11,39.66Zm0-26.83a12.83,12.83,0,1,0,12.83,12.83A12.82,12.82,0,0,0,218.11,12.83Z"/><path class="cls-1" d="M316.66,107.89a15.75,15.75,0,1,1,15.75-15.75A15.75,15.75,0,0,1,316.66,107.89Zm0-30.33a14.58,14.58,0,1,0,14.58,14.58A14.58,14.58,0,0,0,316.66,77.56Z"/><path class="cls-2" d="M444.41,267.09H313.2a.58.58,0,1,1,0-1.16H444.41a.58.58,0,1,1,0,1.16Z"/><circle class="cls-3" cx="373.76" cy="75.05" r="14.32"/><polygon class="cls-3" points="375.25 245.13 368.48 247.43 356.39 222.41 366.38 219.02 375.25 245.13"/><path class="cls-4" d="M363,247.14,376,242.7h0l2.8,8.22h0l-21.28,7.23h0A8.68,8.68,0,0,1,363,247.14Z"/><polygon class="cls-3" points="390.55 259.26 383.4 259.62 378.62 232.25 389.16 231.72 390.55 259.26"/><path class="cls-4" d="M378.2,257.84l13.77-.69h0l.44,8.67h0L370,266.94h0A8.68,8.68,0,0,1,378.2,257.84Z"/><path class="cls-3" d="M348.05,168.32a5.86,5.86,0,0,0,.48-8.28,6.3,6.3,0,0,0-.75-.71l6.81-19.69-10.49,2.68-4.86,18.29a5.89,5.89,0,0,0,8.81,7.71Z"/><path class="cls-4" d="M389.88,251h-.28l-9.69-1a2.6,2.6,0,0,1-2.33-2.32l-7.49-66.78-5.42,18.28,10.1,35.91A2.63,2.63,0,0,1,373,238.3a3.28,3.28,0,0,1-.41.08l-9.83,1.13a2.65,2.65,0,0,1-2.84-1.94l-10.73-40.41a2.7,2.7,0,0,1-.07-1l4.83-36.27,36,2.88,2.6,85.56A2.62,2.62,0,0,1,390,251Z"/><path class="cls-5" d="M377.44,169c-12.06,0-25.71-4.66-26.54-5l-.24-.08,13.61-69.8h.25c5.39.22,20.1.33,20.24.33H385l5.67,61.59,1,9-.12.1C388.12,168,382.94,169,377.44,169Z"/><path class="cls-4" d="M355.65,162.92l-8.5-3.42L351.48,107a8.63,8.63,0,0,1,3.78-6.47l4.48-3h0A2.82,2.82,0,0,1,361.66,94a2.7,2.7,0,0,1,.89-.12l1.28,0a1.46,1.46,0,0,1,2,.4,1.44,1.44,0,0,1,.2,1.16l-.28,5.55Z"/><path class="cls-4" d="M351.36,153.52l-11.11-.47,3.6-23.15,3-21.78a5.22,5.22,0,0,1,5.58-4.8,5.16,5.16,0,0,1,1.17.23h0a5.19,5.19,0,0,1,3.61,5.62l-3,23.6Z"/><path class="cls-4" d="M369,163.73l-.07-.24c-.06-.16-5.06-16.22,3.31-35.38l4.21-20.89L380,94.1a1.58,1.58,0,0,1,1-1,1.46,1.46,0,0,1,1.54.4h0a10.08,10.08,0,0,1,7.5.75l5,2.66a5.72,5.72,0,0,1,2.91,6.37L391,132.64l3.35,27.47Z"/><path class="cls-3" d="M376.29,152.4a5.86,5.86,0,0,0,6.46-5.19,6,6,0,0,0,0-1l15.6-11.56L392.92,132l-16.83,8.67a5.89,5.89,0,0,0,.2,11.7Z"/><path class="cls-4" d="M386.07,147.23l-5.27-9.84,13-8.55-6.35-22.75a6.88,6.88,0,0,1,4.78-8.47,4.37,4.37,0,0,1,.49-.12h0a6.89,6.89,0,0,1,7.87,4.53l8.56,25.15a2.62,2.62,0,0,1-.88,2.92Z"/><path class="cls-4" d="M374.78,78.08c-1.72.23-3-1.53-3.62-3.15s-1.05-3.52-2.55-4.4c-2-1.19-4.65.25-7-.15-2.63-.44-4.34-3.24-4.48-5.9s.93-5.24,2-7.7l.36,3.06a6.1,6.1,0,0,1,2.65-5.3L361.66,59a4.77,4.77,0,0,1,5.46-4h0l-.07,2.67a44.64,44.64,0,0,1,9.16-.45,14.88,14.88,0,0,1,8.44,3.25c3.46,3,4.72,8,4.29,12.52s-2.3,8.85-4.27,13c-.49,1-1.17,2.22-2.32,2.35a2.34,2.34,0,0,1-2.29-1.73,6.14,6.14,0,0,1,0-3.07,13.1,13.1,0,0,0,.38-4.65,3.78,3.78,0,0,0-2.93-3.25c-1.56-.19-3.15,1.58-2.4,3Z"/><path class="cls-6" d="M187.38,235.35,181.8,233,178,205.06H127l-4.14,27.83-5,2.5a1.18,1.18,0,0,0,.53,2.24h68.48a1.19,1.19,0,0,0,.46-2.28Z"/><path class="cls-2" d="M277.89,208.77H27.69a5,5,0,0,1-5-5V168.54h260.1v35.28A5,5,0,0,1,277.89,208.77Z"/><path class="cls-7" d="M283.1,185.21H22.52v-151a6,6,0,0,1,6-6H277.12a6,6,0,0,1,6,6Z"/><path class="cls-8" d="M267.54,174.25H38.08a4.61,4.61,0,0,1-4.61-4.6V43.84a4.61,4.61,0,0,1,4.61-4.61H267.54a4.6,4.6,0,0,1,4.6,4.61V169.65A4.6,4.6,0,0,1,267.54,174.25Z"/><path class="cls-2" d="M265.38,237.92H43.19a.58.58,0,1,1,0-1.16H265.38a.58.58,0,1,1,0,1.16Z"/><path class="cls-7" d="M246,158.62H59.64a.58.58,0,0,1-.59-.58V68.72a.59.59,0,0,1,1.17,0v88.74H246a.58.58,0,0,1,0,1.16Z"/><path class="cls-5" d="M99.45,152.21h-17a1.73,1.73,0,0,1-1.73-1.73V127.11a1.73,1.73,0,0,1,1.73-1.73h17a1.74,1.74,0,0,1,1.73,1.73v23.37A1.74,1.74,0,0,1,99.45,152.21Z"/><path class="cls-5" d="M130.36,152.21h-17a1.73,1.73,0,0,1-1.73-1.73V105a1.73,1.73,0,0,1,1.73-1.73h17a1.74,1.74,0,0,1,1.73,1.73v45.53A1.74,1.74,0,0,1,130.36,152.21Z"/><path class="cls-5" d="M161.26,152.21H144.32a1.73,1.73,0,0,1-1.73-1.73V127.11a1.73,1.73,0,0,1,1.73-1.73h16.94a1.75,1.75,0,0,1,1.74,1.73v23.37A1.75,1.75,0,0,1,161.26,152.21Z"/><path class="cls-5" d="M192.17,152.21H175.22a1.7,1.7,0,0,1-1.73-1.66V96.13a1.7,1.7,0,0,1,1.73-1.66h16.95a1.69,1.69,0,0,1,1.73,1.66v54.42A1.69,1.69,0,0,1,192.17,152.21Z"/><path class="cls-5" d="M223.08,152.21h-17a1.74,1.74,0,0,1-1.73-1.73v-70a1.73,1.73,0,0,1,1.73-1.73h17a1.72,1.72,0,0,1,1.73,1.73v70A1.73,1.73,0,0,1,223.08,152.21Z"/><circle class="cls-7" cx="90.97" cy="114.88" r="3.5"/><circle class="cls-7" cx="121.88" cy="92.14" r="3.5"/><circle class="cls-7" cx="152.79" cy="114.88" r="3.5"/><circle class="cls-7" cx="183.7" cy="81.06" r="3.5"/><circle class="cls-7" cx="214.61" cy="68.23" r="3.5"/><polygon class="cls-7" points="152.86 115.67 121.88 92.46 91.32 115.35 90.63 114.42 121.88 91 152.72 114.1 183.36 80.57 183.48 80.52 214.39 68.07 214.82 69.15 184.04 81.55 152.86 115.67"/></svg>