<svg id="Layer_1" data-name="Layer 1" xmlns="http://www.w3.org/2000/svg" viewBox="0 0 418.94 330"><defs><style>.cls-1{fill:#f0f0f0;}.cls-2{fill:#fff;}.cls-3{fill:#ffb6b6;}.cls-4{fill:#3f3d56;}.cls-5{fill:#2f2e41;}.cls-6{fill:#ffb7b7;}.cls-7{fill:#10c0e8;}.cls-8{fill:#ccc;}.cls-9{fill:#ee4693;}.cls-10{fill:#cacaca;}.cls-11{fill:#e6e6e6;}</style></defs><title>Artboard 54</title><path class="cls-1" d="M100.58,178.92c-3.35-17.89,1.92-38.25,16.55-49.08a83.85,83.85,0,0,0,17.48,54.86c4.7,6,10.55,12.23,10.37,19.86-.11,4.75-2.68,9.18-6.07,12.51s-7.55,5.74-11.67,8.1l-.64,1C114.52,212.55,103.92,196.82,100.58,178.92Z"/><path class="cls-2" d="M117.4,130.11A71.67,71.67,0,0,0,112.66,174a31.14,31.14,0,0,0,3.27,9.11,17.74,17.74,0,0,0,6.69,6.49c2.55,1.47,5.34,2.68,7.49,4.75a10.89,10.89,0,0,1,3.19,8.28c-.1,3.8-1.57,7.35-3.12,10.76-1.73,3.8-3.58,7.71-3.47,12,0,.52-.78.51-.8,0-.19-7.42,5.17-13.37,6.37-20.49.55-3.32.11-6.83-2.22-9.4-2-2.26-4.91-3.51-7.51-5a19,19,0,0,1-6.78-6.1,28.42,28.42,0,0,1-3.6-9,69.32,69.32,0,0,1-1.58-21.68,72.65,72.65,0,0,1,6.12-24c.21-.47.89-.06.69.41Z"/><path class="cls-2" d="M111.39,169.27A10.76,10.76,0,0,1,100.17,161c-.11-.5.66-.71.78-.2a10,10,0,0,0,10.45,7.65c.52,0,.51.76,0,.8Z"/><path class="cls-2" d="M121.23,189a20.72,20.72,0,0,0,5.19-14.19c0-.52.79-.51.81,0a21.62,21.62,0,0,1-5.44,14.75c-.34.39-.9-.19-.56-.57Z"/><path class="cls-2" d="M112.18,145.92a6.09,6.09,0,0,0,5.41-2c.34-.39.9.19.56.58a6.81,6.81,0,0,1-6,2.26.42.42,0,0,1-.4-.41.39.39,0,0,1,.4-.39Z"/><path class="cls-1" d="M177,144.64l-.61.75A80.84,80.84,0,0,0,169,156.13l-.5.88a84.35,84.35,0,0,0-9.86,29.52,82.19,82.19,0,0,0-.76,12.45c.09,5.75.65,12-1.11,17.26a13.3,13.3,0,0,1-.64,1.62l-28.28,9-.22,0-1.11.41c0-.22,0-.44,0-.66l0-.37a1.79,1.79,0,0,0,0-.24v-.08c0-.07,0-.15,0-.21-.09-1.25-.16-2.5-.23-3.75h0a121.16,121.16,0,0,1,1.59-28.5c0-.28.1-.56.17-.85a77.51,77.51,0,0,1,3.46-12.3c.82-2.19,1.76-4.33,2.79-6.43a57.9,57.9,0,0,1,10.46-14.66c8.43-8.58,19.52-14.37,31.4-14.56Z"/><path class="cls-2" d="M177,145a71.7,71.7,0,0,0-30.18,32.16,30.92,30.92,0,0,0-2.87,9.24,17.77,17.77,0,0,0,1.43,9.21c1.16,2.71,2.65,5.36,3.12,8.3a10.85,10.85,0,0,1-2.44,8.53c-2.37,3-5.67,4.93-9,6.72-3.66,2-7.49,4-10,7.47-.3.42-.94-.07-.64-.49,4.32-6,12.18-7.57,17.42-12.53,2.45-2.32,4.21-5.38,3.89-8.85-.27-3-1.81-5.75-3-8.49a18.8,18.8,0,0,1-1.74-8.95,28.64,28.64,0,0,1,2.5-9.31,69.58,69.58,0,0,1,11.8-18.27,73.37,73.37,0,0,1,19.34-15.49c.45-.25.75.5.3.75Z"/><path class="cls-2" d="M148.64,172.67a10.75,10.75,0,0,1-4-13.34c.21-.47.95-.17.74.3A10,10,0,0,0,149.13,172c.44.28,0,.91-.49.63Z"/><path class="cls-2" d="M144.63,194.33a20.75,20.75,0,0,0,12.69-8.2c.3-.42.94.07.64.49a21.57,21.57,0,0,1-13.23,8.5c-.5.11-.6-.69-.1-.79Z"/><path class="cls-2" d="M163.34,154.5a6.06,6.06,0,0,0,5.54,1.63c.5-.1.6.69.1.8a6.8,6.8,0,0,1-6.13-1.8.4.4,0,1,1,.49-.63Z"/><path class="cls-3" d="M221.38,46.78a7.79,7.79,0,0,1,.19,1.27l33.15,19.13,8.06-4.64,8.6,11.24-13.47,9.6a6.17,6.17,0,0,1-7.41-.18l-34.19-27a8.1,8.1,0,1,1,4.78-10.41,6.26,6.26,0,0,1,.29,1Z"/><path class="cls-4" d="M255.19,65.06a3.45,3.45,0,0,1,1.73-2.31l15.31-8.34a9.65,9.65,0,0,1,11.66,15.37L271.62,82.24a3.47,3.47,0,0,1-4.91,0,3.17,3.17,0,0,1-.34-.39l-10.56-14A3.45,3.45,0,0,1,255.19,65.06Z"/><path class="cls-5" d="M282.53,16.57c2.21-7,7.21-13.45,14.14-15.83S313.74,2,319,7.18c9.52,9.49,11.85,42.1,5.3,52.41-1.3-.07-5.79-.12-7.11-.17l-1.86-6.21v6.15c-10.28-.32-21-.12-31.7.09C282.62,52.15,280.33,23.59,282.53,16.57Z"/><polygon class="cls-3" points="279.59 311.21 270.21 311.21 265.75 275.03 279.59 275.03 279.59 311.21"/><polygon class="cls-3" points="361.69 305.38 352.62 307.74 339.18 273.86 352.57 270.37 361.69 305.38"/><polygon class="cls-3" points="310.01 89 312.13 94.53 311.71 100.05 270.11 114.46 272.18 90.28 276.85 84.75 310.01 89"/><circle class="cls-6" cx="296.85" cy="24.42" r="14.86"/><path class="cls-5" d="M286.65,5.07A18.67,18.67,0,0,1,315,21.36c-8.1,2.07-16.73,2.93-25.88.5l-2.09-5.12-1.23,5.12q-4.2,3-8.1,0A19.06,19.06,0,0,1,286.65,5.07Z"/><path class="cls-5" d="M283.78,329h-6.65l-1.19-6.29-3,6.29H255.24a4,4,0,0,1-2.25-7.24l14.1-9.73V305.7l14.82.88Z"/><path class="cls-5" d="M371.07,321.34,364.63,323l-2.73-5.78-1.36,6.85-17.09,4.45a4,4,0,0,1-4-6.43l11.18-13L349,303l14.57-2.88Z"/><path class="cls-5" d="M360.54,282.62l-27.49-56.51-8.63-68.77c5.95-11.05-5.1-33.54-5.1-33.54v-9.44l-42.81,8.07h0A205.47,205.47,0,0,0,264,197.05l1.72,91.42h-.54a3.39,3.39,0,1,0,0,6.77H282.1a3.39,3.39,0,0,0,0-6.77h-.44l12.16-116.3L308,229.56l34.15,52.85a3.37,3.37,0,0,0,.27,6.74H359.3a3.38,3.38,0,0,0,1.24-6.53Z"/><path class="cls-7" d="M323.19,129.59h0a2.68,2.68,0,0,0-2.44-2c-.57-6.45-4.29-47.83-4.44-49v0L315.23,55.4A3.41,3.41,0,0,0,312,52.16l-5.7-.37a.31.31,0,0,1-.29-.3,4.8,4.8,0,0,0-4.79-4.8H284.37a4.49,4.49,0,0,0-4.45,3.93.3.3,0,0,1-.3.27h0a8,8,0,0,0-8.06,6.65c-2.31,13.43-6.94,43.91-4.65,60.85.8,5.9.43,14.77.13,19.71a3.63,3.63,0,0,0,.91,2.63,2.72,2.72,0,0,0-1.88,3.26h0a2.71,2.71,0,0,0,3.29,2l51.88-13.07A2.71,2.71,0,0,0,323.19,129.59Z"/><path class="cls-2" d="M237.46,226.55a6.42,6.42,0,0,0-5.38-6.29l-92-15.1a6.24,6.24,0,0,0-2.65.12l-21.56,5.57-12.36,3.2L80.71,220a6.43,6.43,0,0,0-4.81,6.22v96.37A6.46,6.46,0,0,0,81,328.82l93.67-1.06a6.57,6.57,0,0,0,3.28-.15L233.59,329a6.39,6.39,0,0,0,4.49-6.18Z"/><path class="cls-8" d="M237.46,226.55a6.42,6.42,0,0,0-5.38-6.29l-92-15.1a6.24,6.24,0,0,0-2.65.12l-21.56,5.57-12.36,3.2L80.71,220a6.43,6.43,0,0,0-4.81,6.22v96.37A6.46,6.46,0,0,0,81,328.82l93.67-1.06a6.57,6.57,0,0,0,3.28-.15L233.59,329a6.39,6.39,0,0,0,4.49-6.18Zm-4.35,100.91-55.66,1.32a4.84,4.84,0,0,1-2.45.12l-93.68-1.65a4.83,4.83,0,0,1-3.81-4.71V226.17a4.81,4.81,0,0,1,3.16-4.52,3,3,0,0,1,.45-.14l24.14-6.24,14.28-3.7,18.32-4.74a4.87,4.87,0,0,1,1.2-.15,4.93,4.93,0,0,1,.78.06l92,15.11a4.77,4.77,0,0,1,4,4.71l.63,96.26A4.81,4.81,0,0,1,233.11,327.46Z"/><path class="cls-8" d="M235.32,224.38l-.21.09-27.05,7.31-8.42,2.28-23.95,6.47a.76.76,0,0,1-.21,0h-.15L78.76,222.94l-.33-.06a.81.81,0,0,1,.29-1.59l2,.36,94.78,17.28,20.64-5.58,11.55-3.12,26.63-7.2.42-.11a.8.8,0,0,1,.94.44.61.61,0,0,1,.05.12A.82.82,0,0,1,235.32,224.38Z"/><path class="cls-8" d="M176.28,328.09c-.44,0-.8-.36-.8,1.91l-.8-87.53c0-3.15.35-3.52.79-3.52h0c.44,0,.8.35.8,3.5l.8,87.54c0-2.27-.35-1.91-.79-1.9Z"/><path class="cls-8" d="M208.29,329.1l-8.65.09-3.55-95.84-90.57-18-.26-.06a3.21,3.21,0,0,1-1.72-1.22l12.36-3.2,3.64.72,85.93,17.1a3.2,3.2,0,0,1,2.17,1.56C207.9,230.69,208.28,328.55,208.29,329.1Z"/><path class="cls-2" d="M277.56,51.12a4.82,4.82,0,0,0-4.05-4.74L204.2,35a4.81,4.81,0,0,0-2,.09L186,39.29l-9.33,2.41-17.2,4.45a4.84,4.84,0,0,0-3.62,4.69v56.81a4.86,4.86,0,0,0,3.83,4.73l70.6,15a4.28,4.28,0,0,0,1,.1,4.58,4.58,0,0,0,1.46-.22L274.65,114a4.84,4.84,0,0,0,3.39-4.66Z"/><path class="cls-9" d="M203.41,39.17l-.15,0L160.5,50.25a.61.61,0,0,0-.46.59v56.8a.62.62,0,0,0,.48.6l70.6,15a.65.65,0,0,0,.31,0L273.38,110a.62.62,0,0,0,.42-.59l-.47-58.26a.61.61,0,0,0-.51-.59L203.51,39.18Z"/><path class="cls-4" d="M277.56,51.12a4.82,4.82,0,0,0-4.05-4.74L204.2,35a4.81,4.81,0,0,0-2,.09L186,39.29l-9.33,2.41-17.2,4.45a4.84,4.84,0,0,0-3.62,4.69v56.81a4.86,4.86,0,0,0,3.83,4.73l70.6,15a4.28,4.28,0,0,0,1,.1,4.58,4.58,0,0,0,1.46-.22L274.65,114a4.84,4.84,0,0,0,3.39-4.66Zm-3.27,61.76-42,13.25a3.63,3.63,0,0,1-1.85.09l-70.6-15a3.66,3.66,0,0,1-2.87-3.55V50.84a3.62,3.62,0,0,1,2.38-3.41l.34-.11,18.19-4.7,10.76-2.79,13.81-3.57a3.11,3.11,0,0,1,.91-.11,3.9,3.9,0,0,1,.59,0l69.31,11.39a3.59,3.59,0,0,1,3,3.55l.48,58.26a3.62,3.62,0,0,1-2.54,3.49Z"/><path class="cls-4" d="M276,49.48a.34.34,0,0,1-.15.07l-20.39,5.51-6.35,1.72L231,61.66l-.16,0h-.11L158,48.4l-.24,0a.62.62,0,0,1-.49-.71.6.6,0,0,1,.7-.49l1.47.27,71.43,13,15.56-4.2,8.7-2.36,20.07-5.42.32-.09a.63.63,0,0,1,.71.33.54.54,0,0,1,0,.1A.59.59,0,0,1,276,49.48Z"/><path class="cls-4" d="M231.46,127.65a.62.62,0,0,1-.61-.6l-.6-66a.6.6,0,0,1,.6-.61h0a.6.6,0,0,1,.61.6l.6,66a.6.6,0,0,1-.6.61Z"/><path class="cls-4" d="M255.41,119.62l-6.35,1.72-2.67-65.09L178.13,42.67l-.2-.05a2.41,2.41,0,0,1-1.3-.92L186,39.29l2.74.54,64.77,12.89a2.39,2.39,0,0,1,1.63,1.17C255.29,54.25,255.4,119.2,255.41,119.62Z"/><path class="cls-3" d="M252.57,82.51a8.6,8.6,0,0,1,.9.91l38-4.44,3.7-8.54,13.6,3.9-5.07,15.74a6.19,6.19,0,0,1-6.06,4.28l-43.53-1.24a8.1,8.1,0,1,1-2.37-11.21,7.7,7.7,0,0,1,.81.6Z"/><path class="cls-4" d="M290.6,77a3.46,3.46,0,0,1,0-2.9l7.3-15.82a9.65,9.65,0,0,1,18.53,5.37L314,81a3.47,3.47,0,0,1-3.92,3,2.78,2.78,0,0,1-.5-.11L292.78,78.9A3.45,3.45,0,0,1,290.6,77Z"/><path class="cls-10" d="M418.14,329.81H.8A.81.81,0,0,1,0,329a.8.8,0,0,1,.8-.8H418.14a.81.81,0,0,1,0,1.61Z"/><circle class="cls-9" cx="81.33" cy="219.88" r="24.25"/><path class="cls-2" d="M78,232.51a2.68,2.68,0,0,1-2.15-1.08l-6.62-8.82a2.7,2.7,0,0,1,4.31-3.25h0l4.32,5.77L89,208.46a2.7,2.7,0,0,1,4.5,3v0L80.27,231.3a2.7,2.7,0,0,1-2.17,1.2Z"/><path class="cls-2" d="M184.59,91.08a.91.91,0,0,1-.23,0l-21-4.74a1,1,0,0,1-.77-1.21,1,1,0,0,1,1.22-.77l21,4.74a1,1,0,0,1-.22,2Z"/><path class="cls-11" d="M103.8,281.86a.9.9,0,0,1-.23,0l-21.51-.36a1,1,0,0,1,0-2l21.52.36a1,1,0,0,1,.19,2Z"/><path class="cls-11" d="M111.25,293.37a.6.6,0,0,1-.23,0L89.5,293a1,1,0,0,1,0-2l21.52.36a1,1,0,0,1,1,1,1,1,0,0,1-.8,1Z"/></svg>