<svg id="Layer_1" data-name="Layer 1" xmlns="http://www.w3.org/2000/svg" viewBox="0 0 393.03 330"><defs><style>.cls-1{fill:#3f3d56;}.cls-2{fill:#10c0e8;}.cls-3{fill:#ee4693;}.cls-4{fill:#fff;}.cls-5{fill:#a0616a;}.cls-6{fill:#d0cde1;}.cls-7{fill:#2f2e41;}.cls-8{opacity:0.15;isolation:isolate;}</style></defs><title>Artboard 56</title><path class="cls-1" d="M104.68,200.62c-1.06,0-2.13,0-3.18-.05l0-.76c1.5,0,3,.06,4.56,0v.76Zm6-.18,0-.76c1.51-.09,3-.21,4.54-.37l.08.76C113.75,200.22,112.21,200.35,110.69,200.44Zm-13.77-.12c-1.52-.11-3.06-.27-4.57-.45l.09-.76c1.5.18,3,.34,4.54.45Zm22.9-.84-.12-.75c1.5-.23,3-.49,4.49-.79l.15.75C122.85,199,121.33,199.25,119.82,199.48Zm-32-.28c-1.5-.25-3-.54-4.5-.87l.16-.74c1.48.32,3,.61,4.47.86Zm41-1.51-.18-.74c1.47-.36,3-.76,4.4-1.19l.22.73C131.8,196.92,130.31,197.33,128.82,197.69Zm-50-.43c-1.47-.4-3-.83-4.41-1.29l.23-.72c1.44.45,2.91.88,4.38,1.27Zm58.8-2.18-.25-.72c1.43-.5,2.86-1,4.27-1.59l.28.7c-1.42.57-2.86,1.11-4.3,1.61Zm-67.57-.6c-1.43-.52-2.87-1.09-4.28-1.68l.3-.71c1.4.59,2.83,1.16,4.25,1.68Zm76.08-2.81-.31-.69c1.37-.62,2.75-1.29,4.1-2l.34.68c-1.36.7-2.74,1.37-4.13,2Zm8.17-4.17-.38-.66c1.31-.75,2.63-1.54,3.9-2.35l.41.65c-1.29.81-2.61,1.61-3.93,2.36Zm7.75-4.9-.44-.63c1.24-.86,2.47-1.77,3.67-2.69l.47.6C164.55,180.81,163.3,181.73,162.06,182.6ZM45.8,181.52c-1.24-.89-2.47-1.83-3.66-2.78l.48-.6c1.18,1,2.4,1.88,3.62,2.77ZM169.33,177l-.49-.59c1.16-1,2.3-2,3.42-3l.51.56C171.65,175,170.5,176,169.33,177ZM38.62,175.79c-1.15-1-2.29-2-3.39-3.1l.53-.55c1.09,1,2.22,2.08,3.36,3.08Zm137.45-5-.54-.53c1.06-1.08,2.12-2.2,3.13-3.32l.56.51C178.21,168.56,177.15,169.68,176.07,170.77ZM32,169.43c-1-1.1-2.09-2.25-3.09-3.4l.58-.5c1,1.14,2,2.28,3.06,3.38ZM182.22,164l-.59-.49c1-1.17,1.91-2.37,2.82-3.59l.61.46c-.92,1.22-1.87,2.44-2.84,3.62ZM26,162.5c-.94-1.19-1.87-2.43-2.76-3.66l.62-.45c.88,1.23,1.8,2.45,2.74,3.64Zm161.75-5.91-.63-.43c.85-1.25,1.69-2.54,2.48-3.83l.65.4c-.8,1.3-1.64,2.6-2.5,3.86ZM20.61,155.05c-.83-1.27-1.64-2.58-2.42-3.9l.66-.38c.77,1.3,1.58,2.6,2.4,3.86Zm171.93-6.3-.67-.36c.73-1.33,1.44-2.69,2.11-4l.69.34C194,146.05,193.27,147.42,192.54,148.75Zm4.07-8.24-.7-.31c.61-1.39,1.19-2.81,1.74-4.22l.71.27C197.81,137.68,197.22,139.11,196.61,140.51ZM12.05,138.86c-.59-1.4-1.15-2.84-1.67-4.27l.72-.26c.52,1.42,1.07,2.85,1.65,4.24Zm187.86-7-.73-.24c.48-1.43.93-2.9,1.34-4.35l.73.2C200.84,129,200.39,130.47,199.91,131.91Zm-191-1.67c-.45-1.45-.88-2.94-1.26-4.41l.73-.2c.39,1.47.81,2.94,1.26,4.39Zm193.48-7.17-.74-.17c.34-1.47.66-3,.93-4.46l.75.14c-.28,1.5-.59,3-.94,4.49ZM6.58,121.36c-.31-1.49-.6-3-.85-4.51l.75-.13c.25,1.5.54,3,.85,4.48ZM204.06,114l-.76-.1c.21-1.49.38-3,.52-4.53l.76.07c-.14,1.52-.32,3.06-.52,4.56Zm-199-1.74c-.18-1.51-.33-3-.44-4.57l.76,0c.11,1.51.26,3,.44,4.53Zm199.81-7.4-.77,0c.07-1.52.11-3.05.11-4.56H205C205,101.83,205,103.38,204.89,104.9ZM4.41,103.14c0-.93,0-1.89,0-2.83,0-.59,0-1.17,0-1.76h.76c0,.58,0,1.17,0,1.75,0,.94,0,1.88,0,2.81ZM5.33,94,4.57,94c.09-1.52.23-3.06.39-4.57l.76.08c-.16,1.5-.29,3-.39,4.54Zm198.4-4.65c-.15-1.51-.36-2.24-.58-3.74l.76-.11c.22,1.51.41,2.66.56,4.18ZM6.31,85l-.75-.12c.23-1.5.5-3,.81-4.52l.74.15C6.81,81.94,6.54,83.45,6.31,85Zm196.07-3.82c-.29-1.49-.62-3-1-4.45l.74-.18c.36,1.48.69,3,1,4.48ZM8.12,76l-.74-.19c.37-1.47.78-3,1.22-4.42l.73.22C8.89,73.08,8.49,74.55,8.12,76Zm192.11-3.74c-.43-1.46-.89-2.92-1.39-4.35l.72-.24c.5,1.44,1,2.91,1.4,4.37Zm-189.49-5L10,67c.5-1.44,1.05-2.89,1.62-4.31l.71.29c-.57,1.4-1.11,2.84-1.62,4.27Zm186.52-3.62c-.55-1.4-1.15-2.81-1.77-4.19l.7-.31c.62,1.38,1.22,2.8,1.78,4.22ZM14.17,58.81l-.69-.31c.63-1.39,1.31-2.78,2-4.14l.68.35C15.47,56.06,14.8,57.44,14.17,58.81Zm179.36-3.44c-.68-1.35-1.41-2.7-2.15-4L192,51c.75,1.33,1.48,2.69,2.17,4ZM18.35,50.7l-.66-.38c.76-1.32,1.57-2.64,2.39-3.93l.64.41c-.81,1.28-1.61,2.59-2.37,3.9Zm170.7-3.25c-.81-1.28-1.65-2.56-2.51-3.8l.63-.44c.86,1.25,1.71,2.54,2.52,3.83ZM23.26,43l-.62-.44c.88-1.25,1.8-2.49,2.73-3.7l.61.47C25.05,40.54,24.14,41.78,23.26,43ZM183.86,40c-.92-1.21-1.88-2.4-2.85-3.56l.59-.49c1,1.17,1.94,2.37,2.87,3.58Zm-155-4.16-.58-.49c1-1.16,2-2.32,3.06-3.43l.56.52C30.85,33.51,29.83,34.66,28.85,35.81ZM178,33c-1-1.11-2.09-2.22-3.16-3.28l.54-.54c1.08,1.07,2.15,2.18,3.18,3.31ZM35.07,29.15l-.53-.55c1.09-1.07,2.22-2.12,3.35-3.13l.51.56C37.27,27,36.15,28.09,35.07,29.15Zm136.47-2.59c-1.12-1-2.28-2-3.44-3l.49-.58c1.17,1,2.34,2,3.47,3ZM41.87,23.08l-.48-.59c1.18-1,2.4-1.91,3.62-2.82l.46.61C44.25,21.18,43,22.12,41.87,23.08Zm7.31-5.42L48.76,17c1.26-.85,2.56-1.68,3.86-2.47l.4.65C51.73,16,50.44,16.81,49.18,17.66ZM57,12.93l-.37-.67c1.34-.74,2.71-1.44,4.08-2.11l.33.68C59.65,11.5,58.29,12.2,57,12.93ZM149,11.16c-1.36-.68-2.75-1.33-4.13-1.94l.31-.7c1.39.62,2.79,1.27,4.16,2ZM65.13,8.93l-.3-.7C66.22,7.62,67.65,7,69.07,6.5l.27.72C67.93,7.75,66.52,8.33,65.13,8.93Zm75.54-1.46c-1.41-.55-2.86-1.07-4.3-1.56l.24-.72c1.45.49,2.91,1,4.33,1.57Zm-67-1.77L73.4,5c1.45-.47,2.93-.92,4.4-1.33l.2.74C76.55,4.78,75.08,5.23,73.64,5.7ZM132,4.56c-1.46-.41-2.94-.8-4.41-1.14l.17-.75c1.49.35,3,.74,4.45,1.16Zm-49.6-1.3-.17-.74c1.49-.34,3-.65,4.5-.92l.13.75C85.4,2.62,83.89,2.92,82.42,3.26Zm40.73-.79c-1.49-.28-3-.52-4.5-.73l.11-.76c1.51.21,3,.46,4.53.74ZM91.39,1.64l-.1-.75c1.51-.2,3-.37,4.56-.51l.07.76C94.41,1.27,92.89,1.44,91.39,1.64Zm22.74-.43c-1.51-.15-3-.26-4.55-.33l0-.76c1.52.07,3.06.18,4.58.33ZM100.47.85l0-.76C101.84,0,103.26,0,104.68,0H105V.76h-.34c-1.41,0-2.82,0-4.21.09Z"/><path class="cls-1" d="M227.41,35.93V283.16a11.12,11.12,0,0,1-11.11,11.1H115.93a11.1,11.1,0,0,1-11.11-11.07V35.93a11.1,11.1,0,0,1,11.11-11.11h15v1.93a9.15,9.15,0,0,0,9.15,9.15h51a9.14,9.14,0,0,0,9.15-9.15V24.82h16a11.11,11.11,0,0,1,11.11,11.1Z"/><rect class="cls-2" x="119.49" y="113.94" width="93.24" height="70.94"/><path class="cls-3" d="M70.4,102c8.3.18,14.9,6.19,14.9,6.19s-6.85,5.73-15.16,5.55-14.9-6.19-14.9-6.19S62.09,101.81,70.4,102Z"/><path class="cls-3" d="M28.66,73.65c7.5,3.57,16.1,1.15,16.1,1.15S41.2,66.61,33.7,63,17.6,61.9,17.6,61.9,21.16,70.09,28.66,73.65Z"/><path class="cls-1" d="M29.42,70.11c8.27-.75,15.51,4.48,15.51,4.48s-6.17,6.46-14.44,7.22S15,77.33,15,77.33,21.15,70.87,29.42,70.11Z"/><path class="cls-1" d="M59.73,71.54c-.79,8.27,4.41,15.53,4.41,15.53s6.49-6.14,7.29-14.41S67,57.14,67,57.14,60.53,63.28,59.73,71.54Z"/><path class="cls-1" d="M98.68,122.24c-4.34,7.08-2.85,15.88-2.85,15.88s8.53-2.67,12.86-9.75,2.85-15.89,2.85-15.89S103,115.15,98.68,122.24Z"/><path class="cls-1" d="M86.09,199.22l.64-.43a19.76,19.76,0,0,1-3.5-11c0-5.74,2.84-11.05,5.57-16.19.5-1,1-1.9,1.49-2.85a62,62,0,0,0,4.85-12.17c4.23-15.72.07-34.28-11.14-49.63C75.1,94.8,61.85,84.15,43.47,74.42l-.36.67c18.28,9.68,31.45,20.25,40.27,32.33,11.07,15.17,15.2,33.48,11,49a61.72,61.72,0,0,1-4.78,12c-.49,1-1,1.89-1.5,2.84-2.77,5.22-5.63,10.62-5.65,16.55A20.58,20.58,0,0,0,86.09,199.22Z"/><circle class="cls-1" cx="7.25" cy="68.17" r="7.25"/><polygon class="cls-3" points="109.26 185.8 63.77 182.01 63.77 115.3 109.26 113.02 109.26 185.8"/><polygon class="cls-3" points="222.97 185.8 268.46 182.01 268.46 115.3 222.97 113.02 222.97 185.8"/><path class="cls-4" d="M181.93,140.57a9.1,9.1,0,0,0-10-1.27,13.68,13.68,0,0,1-4.42,1.27,25.49,25.49,0,0,1,1.8-9.73l.2-.52h-2.68l-.07.28a28.55,28.55,0,0,0-.71,3.33,8.22,8.22,0,0,0-.56-1.42c-1.87-3.71-6.2-5.24-6.39-5.3l-.37-.13-.12.38c0,.18-1.41,4.57.47,8.29a11.57,11.57,0,0,0,5.38,4.88,14,14,0,0,1-5.23-1.4,6.12,6.12,0,0,0-6.46.54A19.2,19.2,0,0,0,144.93,155c0,7.75,5,14.85,12.79,18.09a5.81,5.81,0,0,0,5.21-.39,7.93,7.93,0,0,1,7.94,0,5.87,5.87,0,0,0,5.21.37c7.72-3.25,12.71-10.34,12.71-18.06A18.92,18.92,0,0,0,181.93,140.57Zm-14.49-9.49h1a26.09,26.09,0,0,0-1.66,9.25h-.18a27.73,27.73,0,0,1,.86-9.25Zm-7.66,4.33a11.35,11.35,0,0,1-.52-7.33,11.3,11.3,0,0,1,5.57,4.78c1.43,2.82.8,6.18.53,7.32a11.3,11.3,0,0,1-5.58-4.77Zm16,37a5.1,5.1,0,0,1-4.53-.32,8.67,8.67,0,0,0-8.71,0,5,5,0,0,1-4.52.33c-7.49-3.11-12.32-9.94-12.32-17.38a18.42,18.42,0,0,1,7.55-14.65,5.31,5.31,0,0,1,5.65-.47,15.76,15.76,0,0,0,13.39.07,8.34,8.34,0,0,1,9.14,1.17A18.13,18.13,0,0,1,188,155c0,7.41-4.81,14.22-12.25,17.35Z"/><path class="cls-4" d="M86.39,133.36v-.89h.35v-2.79a1.12,1.12,0,0,0-.6-1,5.45,5.45,0,0,0-5,0,1.15,1.15,0,0,0-.65,1v2.77h.36v.81a6.21,6.21,0,0,0-4.54,6v6l.68.23-.68.45v1.81L77,148l-.68.45v1.82l.68.22-.68.45V164.8a4.07,4.07,0,0,0,4.07,4.06h6a4,4,0,0,0,4-4.05V151l-.68-.45.68-.22v-1.82l-.68-.45.68-.23V146l-.68-.45.68-.23V139A6,6,0,0,0,86.39,133.36Zm-5-4a4.62,4.62,0,0,1,4.35,0,.36.36,0,0,1,.19.33v1.49H81.23V129.7A.35.35,0,0,1,81.44,129.37Zm8.19,15.4-1.64.55,1.64,1.09v.85l-1.64.55,1.64,1.09v.86L88,150.3l1.64,1.09v13.42a3.29,3.29,0,0,1-3.29,3.29h-6A3.31,3.31,0,0,1,77,164.8V151.39l1.64-1.09L77,149.76v-.86l1.64-1.09L77,147.26v-.85l1.64-1.09L77,144.77v-5.48a5.47,5.47,0,0,1,4.25-5.35l.29-.06v-1.41h4v1.46l.28.08a5.21,5.21,0,0,1,3.73,5Z"/><path class="cls-4" d="M265.67,143.81l-1.92-.39.45-.9-.88-.18.15-.91-1-.16v-.87l-.78-.23.74-.92h-1.28l.27-.67-.95-.16.32-1.13h-1v-1.06h-.38c-1.2,0-1.87,1.43-2.09,2-6.64,1.16-25.9,14.5-28.1,16a3.94,3.94,0,0,0-2.55.55l-.44.24.64.65-.19.57,1.18.45-.26.65.75.62-.67.5,1,.61-.18.88,1.13.17V161l.65.13-.32,1.15h.72v.9h.71l.33,1,.33-.06c.76-.16,1.42-1.22,1.68-1.69,6.38-1.14,26.11-15,28-16.37,2.24.26,3.06-.34,3.15-.41l.37-.29-.87-.72Zm-3.94,1.47-.15,0-.12.09c-.22.15-21.85,15.48-28,16.36l-.19,0-.09.17a4.49,4.49,0,0,1-.95,1.29l-.25-.74h-.49v-.91H231l.28-1-.86-.17v-.93l-1-.14.12-.62-.49-.3.53-.4-1.06-.88.34-.86-1.22-.46.11-.33-.24-.24c.57-.23,1.26-.41,1.56-.23l.21.13.21-.15c.21-.15,21.7-15.18,28.16-16.06l.24,0,.07-.23A3.21,3.21,0,0,1,259,137.1v1h.78l-.28,1,.86.14-.34.84h.83l-.47.58,1.33.38v.94l.85.14-.15.9.62.12-.45.91,1.1.21-.57.38.81.67A6,6,0,0,1,261.73,145.28Z"/><circle class="cls-3" cx="166.11" cy="206.24" r="11.06"/><polygon class="cls-4" points="173.08 205.15 167.21 205.15 167.21 199.28 165.02 199.28 165.02 205.15 159.15 205.15 159.15 207.33 165.02 207.33 165.02 213.21 167.21 213.21 167.21 207.33 173.08 207.33 173.08 205.15"/><polygon class="cls-4" points="201 206.62 195.28 203.95 195.28 205.48 181.93 205.48 181.93 207.77 195.28 207.77 195.28 209.29 201 206.62"/><polygon class="cls-4" points="131.23 206.62 136.95 203.95 136.95 205.48 150.3 205.48 150.3 207.77 136.95 207.77 136.95 209.29 131.23 206.62"/><rect class="cls-1" x="26.33" y="294.35" width="279.57" height="0.76"/><rect class="cls-4" x="129.5" y="60.93" width="73.23" height="0.76"/><rect class="cls-4" x="129.68" y="269.17" width="73.23" height="0.76"/><path class="cls-5" d="M320.57,193.85l-1.91,7.24s-6.86,15.26,0,16,7.25-19.83,7.25-19.83Z"/><path class="cls-6" d="M332.39,141.59l-13.73,54.16s5.34,1.53,8,3.44Z"/><path class="cls-7" d="M375.49,182.79l3.81,59.11s9.16,23.27,8.78,45.39c0,0-3.44,8.77-.77,10.3s4.2,2.67,2.67,3.81-2.67,3.82-1.52,4.58,1.52,1.91,1.14,1.91H378.16s2.29-5.73-1.14-7.25-1.53-5.34-1.53-5.34l-25.55-74.76L329.72,289.2s3.44,2.29.77,3.43-3.82-1.14-2.67,1.14-.39,3.44-.39,3.82S316,296.44,316,296.44s5.72-4.95,3.05-6.1-3.81-2.29-3.05-3,3.82-8,3.82-8,1.52-27.46,1.9-28.6,0-6.49,0-9.16-.38-13.35.77-16,2.28-35.47,8.39-39.28S375.49,182.79,375.49,182.79Z"/><path class="cls-7" d="M327.05,295.68s7.63,15.64,2.29,17.55-12.2.38-13.73,2.66-18.31,5-18.69-.76,18.31-16.4,18.31-16.4l2.43-3.92Z"/><path class="cls-7" d="M388.84,307.12s7.63,15.64,2.29,17.55-12.21.38-13.73,2.67-18.31,5-18.69-.77S377,310.17,377,310.17l2.43-3.92Z"/><circle class="cls-5" cx="353.56" cy="98.3" r="12.59"/><polygon class="cls-5" points="362.14 104.98 360.62 116.04 349.17 124.81 346.12 120.62 346.12 106.12 362.14 104.98"/><path class="cls-1" d="M344.22,119.09s11.82,1.15,17.92-3l12.21,72.09s-43.1,3.43-45,1.14v-22.5L337,130.15Z"/><path class="cls-6" d="M361.09,112.59l4.1,3.45s16.78,2.67,15.64,7.25l-4.58,54.16,1.53,18.3s-13-3.43-22.89,0-2-73.76-2-73.76S362,113.72,361.09,112.59Z"/><path class="cls-6" d="M346.12,116.77s-12.2,8.81-13.73,14.53-6.48,66-6.48,66,2.29-1.15,3.43.76S348,119.79,346.12,116.77Z"/><path class="cls-5" d="M379.69,196.52,377,205.44s-.7,16.63-9.85,14.34S369.77,198,369.77,198l2.67-4.19Z"/><path class="cls-7" d="M341,97.76a6.06,6.06,0,0,1-.84-4.25,13,13,0,0,0,.37-3.82,37.79,37.79,0,0,1,2.2-5.56c1.1-2,.58-2.83,4-3.46s2.05-5.13,11.17-.26a2.67,2.67,0,0,0,2.77,1c1.89-.37,2.57,2.25,2.57,2.25S364.51,83,365,84s3.84-.63,3.84,6.44-3.83,13.4-3.83,13.4.28-11.9-6-13.11-12.94-4.72-14.57-.21A34,34,0,0,1,341,97.76Z"/><ellipse class="cls-5" cx="365.13" cy="98.95" rx="1.23" ry="1.64"/><path class="cls-6" d="M377.78,120.62s6.1-1.53,8,8.77S390,169.06,390,169.06L380.83,200s-9.15-5-11.06-4.2l7.2-26.82-6.06-27.34S376.25,120.62,377.78,120.62Z"/><polygon class="cls-8" points="368.91 142.12 376.92 168.81 368.91 195.89 373.48 168.81 368.91 142.12"/></svg>