<svg id="Layer_1" data-name="Layer 1" xmlns="http://www.w3.org/2000/svg" viewBox="0 0 424.01 330"><defs><style>.cls-1{fill:#3f3d56;}.cls-2{fill:#d0cde1;}.cls-3{fill:#2f2e41;}.cls-4{fill:#a0616a;}.cls-5{opacity:0.15;}.cls-5,.cls-6{isolation:isolate;}.cls-6{opacity:0.1;}.cls-7{fill:#ee4693;}</style></defs><title>Artboard 61</title><path class="cls-1" d="M373.58,306.9c0-.14-3-13.77,3.08-25.08s19.13-16.31,19.26-16.36l.6-.23.14.63c0,.13,3,13.76-3.08,25.08s-19.13,16.31-19.27,16.36l-.59.22Zm22.12-40.15c-2.61,1.12-12.91,6-18.06,15.59s-3.6,20.87-3.1,23.66c2.6-1.12,12.9-6,18.06-15.59s3.6-20.86,3.1-23.66Z"/><path class="cls-2" d="M388.91,287c-11,6.6-15.19,19.7-15.19,19.7s13.56,2.41,24.53-4.19,15.19-19.7,15.19-19.7S399.88,280.37,388.91,287Z"/><path class="cls-1" d="M150.62,247.26c-1.3,0-2.62,0-3.91-.06l0-.94c1.85.06,3.75.08,5.61.05l0,.94ZM158,247l-.05-.93c1.86-.11,3.74-.27,5.6-.46l.1.93C161.8,246.78,159.9,246.93,158,247Zm-17-.14c-1.88-.15-3.77-.33-5.64-.56l.12-.94c1.85.23,3.73.42,5.59.56Zm28.22-1-.14-.93c1.85-.28,3.71-.6,5.53-1l.18.92C173,245.25,171.14,245.58,169.28,245.86Zm-39.46-.34c-1.85-.31-3.72-.67-5.55-1.07l.19-.92c1.83.39,3.68.75,5.52,1.06Zm50.56-1.86-.23-.91c1.82-.45,3.64-.95,5.42-1.48l.27.9C184,242.71,182.21,243.21,180.38,243.66Zm-61.62-.54c-1.81-.48-3.64-1-5.43-1.58l.28-.9c1.78.56,3.59,1.09,5.39,1.57Zm72.47-2.68-.31-.89c1.76-.61,3.53-1.27,5.26-2l.35.88C194.79,239.16,193,239.82,191.23,240.44ZM108,239.7c-1.77-.65-3.54-1.35-5.28-2.08l.36-.86c1.73.72,3.49,1.42,5.24,2.06Zm93.77-3.46-.39-.86c1.69-.76,3.39-1.58,5-2.43l.42.83C205.14,234.64,203.43,235.46,201.73,236.24Zm10.06-5.14-.47-.82c1.62-.92,3.24-1.9,4.81-2.89l.5.79C215.05,229.19,213.42,230.17,211.79,231.1Zm9.55-6-.54-.77c1.53-1.06,3-2.18,4.53-3.32l.57.75C224.41,222.85,222.88,224,221.34,225.05ZM78.05,223.73c-1.52-1.1-3-2.26-4.51-3.43l.59-.74c1.46,1.17,3,2.31,4.47,3.41Zm152.26-5.57-.61-.72c1.42-1.2,2.84-2.45,4.21-3.72l.64.69C233.17,215.69,231.74,217,230.31,218.16ZM69.2,216.66c-1.42-1.23-2.82-2.52-4.18-3.82l.65-.68c1.35,1.29,2.74,2.57,4.15,3.8Zm169.41-6.18-.67-.66c1.32-1.33,2.61-2.71,3.86-4.09l.7.63c-1.26,1.39-2.56,2.78-3.89,4.12ZM61,208.83c-1.3-1.37-2.58-2.78-3.81-4.19l.71-.62c1.22,1.41,2.49,2.8,3.78,4.16Zm185.16-6.76-.72-.6c1.18-1.44,2.35-2.93,3.46-4.42l.76.56C248.56,199.11,247.39,200.61,246.19,202.07ZM53.61,200.28c-1.16-1.47-2.31-3-3.4-4.51l.76-.55c1.09,1.51,2.23,3,3.38,4.48ZM253,193l-.77-.53q1.58-2.33,3.05-4.73l.8.5C255.07,189.84,254,191.44,253,193ZM47,191.1c-1-1.57-2-3.18-3-4.8l.81-.48c.94,1.61,1.94,3.21,3,4.77Zm211.89-7.76-.82-.45c.9-1.64,1.78-3.31,2.61-5l.84.42c-.83,1.68-1.72,3.37-2.63,5Zm5-10.16-.87-.38c.75-1.71,1.47-3.46,2.14-5.21l.88.34c-.67,1.76-1.4,3.52-2.15,5.25Zm-227.48-2c-.72-1.73-1.41-3.5-2.05-5.26l.88-.32c.64,1.74,1.33,3.5,2,5.22ZM268,162.59l-.89-.3c.59-1.77,1.14-3.57,1.64-5.37l.91.25c-.51,1.81-1.07,3.63-1.66,5.42Zm-235.4-2.06c-.56-1.8-1.08-3.63-1.56-5.45l.91-.23c.47,1.8,1,3.62,1.55,5.4Zm238.47-8.84-.92-.21c.42-1.81.81-3.67,1.14-5.5l.93.17C271.87,148,271.48,149.86,271.06,151.69ZM29.72,149.58c-.39-1.84-.75-3.71-1.06-5.56l.93-.16c.31,1.84.66,3.7,1.05,5.52Zm243.38-9-.93-.13c.26-1.84.47-3.72.64-5.58l.93.09C273.57,136.81,273.36,138.7,273.1,140.56ZM27.87,138.41c-.23-1.86-.41-3.75-.55-5.63l.94-.07c.14,1.86.32,3.74.54,5.59Zm246.26-9.12-.94,0c.08-1.87.12-3.76.12-5.62h.94C274.25,125.51,274.21,127.41,274.13,129.29ZM27,127.13c0-1.16-.05-2.33-.05-3.5,0-.72,0-1.44,0-2.17l.94,0c0,.72,0,1.43,0,2.15,0,1.16,0,2.33.05,3.47Zm1.13-11.26-.94-.06c.12-1.88.28-3.78.49-5.64l.93.1c-.2,1.85-.36,3.73-.48,5.6Zm244.54-5.74c-.19-1.85-.45-2.75-.72-4.6l.93-.14c.27,1.86.51,3.28.7,5.15ZM29.38,104.7l-.93-.14c.29-1.86.63-3.74,1-5.57l.92.18c-.37,1.83-.7,3.69-1,5.53ZM271,100c-.36-1.83-.76-3.68-1.2-5.48l.91-.22c.44,1.82.85,3.68,1.21,5.52ZM31.61,93.69l-.91-.22c.45-1.82,1-3.66,1.5-5.46l.9.27C32.56,90.07,32.06,91.89,31.61,93.69Zm236.77-4.61c-.52-1.79-1.1-3.59-1.7-5.35l.89-.31c.61,1.78,1.19,3.59,1.71,5.4ZM34.85,82.92,34,82.61c.62-1.78,1.3-3.56,2-5.31l.88.36C36.14,79.39,35.47,81.16,34.85,82.92Zm229.88-4.46c-.69-1.73-1.42-3.47-2.18-5.16l.86-.39c.76,1.71,1.5,3.46,2.19,5.2Zm-225.66-6-.86-.39c.79-1.71,1.62-3.43,2.49-5.1l.83.43C40.67,69.09,39.84,70.79,39.07,72.49Zm221.06-4.25c-.84-1.66-1.73-3.32-2.65-4.94l.82-.46c.92,1.63,1.82,3.3,2.67,5ZM44.23,62.49,43.41,62c.94-1.62,1.93-3.25,2.94-4.84l.79.5C46.14,59.26,45.16,60.88,44.23,62.49Zm210.38-4c-1-1.58-2-3.16-3.1-4.68l.78-.54c1.06,1.54,2.11,3.13,3.11,4.72ZM50.28,53l-.77-.54c1.08-1.54,2.22-3.07,3.37-4.56l.74.58C52.48,50,51.35,51.49,50.28,53Zm197.93-3.76c-1.13-1.48-2.31-3-3.51-4.38l.72-.61c1.21,1.44,2.4,2.92,3.54,4.42Zm-191-5.12-.72-.61c1.22-1.43,2.48-2.85,3.77-4.23l.68.64C59.63,41.31,58.37,42.72,57.17,44.14ZM241,40.65c-1.26-1.37-2.57-2.73-3.89-4l.66-.66c1.33,1.32,2.65,2.69,3.92,4.08ZM64.83,35.92l-.66-.67c1.35-1.31,2.74-2.61,4.14-3.86l.62.7c-1.39,1.24-2.77,2.53-4.1,3.83ZM233,32.74c-1.38-1.26-2.81-2.5-4.24-3.68l.6-.73c1.44,1.2,2.88,2.44,4.27,3.71ZM73.21,28.44l-.6-.73c1.46-1.18,3-2.35,4.47-3.47l.56.76c-1.5,1.11-3,2.27-4.43,3.44Zm9-6.68L81.7,21c1.55-1.05,3.16-2.07,4.76-3.05l.49.81c-1.59,1-3.18,2-4.73,3Zm9.59-5.83-.45-.82c1.64-.91,3.33-1.78,5-2.6l.42.84C95.12,14.17,93.44,15,91.81,15.93Zm113.46-2.18c-1.67-.83-3.39-1.64-5.09-2.39l.38-.86c1.72.76,3.44,1.57,5.13,2.41ZM101.88,11l-.38-.86C103.22,9.4,105,8.68,106.73,8l.34.88C105.33,9.56,103.58,10.26,101.88,11ZM195,9.2c-1.74-.67-3.53-1.32-5.3-1.91l.3-.89c1.79.6,3.58,1.25,5.34,1.93ZM112.36,7l-.29-.89c1.79-.59,3.61-1.14,5.42-1.64l.25.91C116,5.89,114.14,6.44,112.36,7Zm72-1.4c-1.8-.51-3.63-1-5.44-1.41l.22-.91c1.82.43,3.67.91,5.47,1.42ZM123.19,4,123,3.1c1.83-.42,3.69-.8,5.54-1.13l.17.92C126.85,3.23,125,3.6,123.19,4Zm50.19-1c-1.83-.35-3.69-.65-5.54-.91l.13-.93c1.86.26,3.74.57,5.59.91ZM134.24,2l-.13-.93c1.87-.25,3.76-.45,5.63-.62l.08.94C138,1.57,136.09,1.78,134.24,2Zm28-.53c-1.85-.18-3.73-.31-5.6-.4l.05-.94c1.88.09,3.77.22,5.64.4Zm-16.83-.44,0-.94C147.12,0,148.88,0,150.62,0h.43V.94h-.43C148.89.94,147.14,1,145.43,1.05Z"/><rect class="cls-1" x="79.44" y="306.63" width="344.57" height="0.94"/><path class="cls-3" d="M281.11,148.56l4.7,72.86s11.29,28.67,10.82,55.94c0,0-4.23,10.81-.94,12.69s5.17,3.29,3.29,4.7-3.29,4.7-1.88,5.64,1.88,2.35,1.41,2.35H284.4s2.82-7.05-1.41-8.93-1.88-6.58-1.88-6.58L249.62,195.1,224.7,279.71s4.23,2.82.94,4.23-4.7-1.41-3.29,1.41-.47,4.23-.47,4.7-14.1-1.41-14.1-1.41,7.05-6.11,3.76-7.52-4.7-2.82-3.76-3.76,4.7-9.87,4.7-9.87,1.88-33.85,2.35-35.26,0-8,0-11.28-.47-16.45.94-19.74,2.82-43.72,10.34-48.42S281.11,148.56,281.11,148.56Z"/><path class="cls-3" d="M221.41,287.7s9.4,19.27,2.82,21.62-15,.47-16.92,3.3-22.56,6.11-23-.94,22.56-20.22,22.56-20.22l3-4.83Z"/><path class="cls-3" d="M297.57,301.8s9.4,19.28,2.82,21.63-15.05.47-16.93,3.29-22.56,6.11-23-.94S283,305.56,283,305.56l3-4.83Z"/><circle class="cls-4" cx="254.08" cy="44.43" r="15.51"/><polygon class="cls-4" points="264.66 52.66 262.78 66.29 248.68 77.11 244.92 71.93 244.92 54.07 264.66 52.66"/><path class="cls-1" d="M242.57,70.05s14.57,1.41,22.09-3.76l15,88.85s-53.12,4.23-55.47,1.41V128.81l9.41-45.12Z"/><path class="cls-2" d="M263.37,62.05l5.05,4.24s20.68,3.29,19.27,8.93L282.05,142l1.88,22.56s-16-4.23-28.2,0-2.51-90.92-2.51-90.92S264.42,63.44,263.37,62.05Z"/><path class="cls-2" d="M244.92,67.19S229.87,78.05,228,85.1s-8,81.32-8,81.32,2.82-1.41,4.23.94S247.27,70.91,244.92,67.19Z"/><path class="cls-3" d="M238.58,43.76a7.43,7.43,0,0,1-1-5.23,16,16,0,0,0,.46-4.72A45.93,45.93,0,0,1,240.71,27c1.36-2.46.71-3.49,5-4.27s2.52-6.33,13.76-.32a3.3,3.3,0,0,0,3.42,1.29c2.33-.45,3.17,2.78,3.17,2.78s1.55-.91,2.13.39,4.73-.78,4.73,7.94-4.72,16.51-4.72,16.51.35-14.67-7.34-16.15-15.95-5.82-18-.26A42.29,42.29,0,0,1,238.58,43.76Z"/><ellipse class="cls-4" cx="268.34" cy="45.22" rx="1.52" ry="2.02"/><path class="cls-2" d="M204.63,190.59c-3.72-2.23-8.21-2.06-9.91-1.89.65,1.58,2.59,5.63,6.31,7.87s8.21,2.06,9.91,1.89C210.3,196.88,208.35,192.83,204.63,190.59Z"/><path class="cls-2" d="M222.11,235H198.86a5.23,5.23,0,0,0,0,10.46h23.25a5.23,5.23,0,0,0,0-10.46Z"/><path class="cls-2" d="M327.38,179.77H197a11.55,11.55,0,0,0-11.55,11.54h0v63.51A11.55,11.55,0,0,0,197,266.37H327.38a11.55,11.55,0,0,0,11.55-11.55h0V191.31a11.55,11.55,0,0,0-11.55-11.54Zm-133.57,7.87c.26,0,6.36-1.08,11.42,2s7,8.92,7.07,9.17l.21.63-.66.12a19.15,19.15,0,0,1-2.83.21,16.83,16.83,0,0,1-8.59-2.17c-5.05-3-7-8.92-7.07-9.17l-.2-.63Zm28.3,59H198.86a6.39,6.39,0,1,1,0-12.78h23.25a6.39,6.39,0,0,1,0,12.78Zm105.78-1.16a7,7,0,0,1-7,7H303.47a7,7,0,0,1-7-7V235a7,7,0,0,1,7-7h17.44a7,7,0,0,1,7,7Z"/><path class="cls-2" d="M309,243.41h-7.56a2,2,0,0,0,0,4.07H309a2,2,0,0,0,0-4.07Zm0,2.9h-7.56a.87.87,0,1,1,0-1.74H309a.87.87,0,0,1,0,1.74Z"/><path class="cls-2" d="M322.94,243.41h-7.55a2,2,0,1,0,0,4.07h7.56a2,2,0,1,0,0-4.07Zm0,2.9h-7.55a.87.87,0,1,1,0-1.74h7.56a.87.87,0,1,1,0,1.74Z"/><path class="cls-2" d="M309,238.18h-7.56a2,2,0,0,0,0,4.07H309a2,2,0,0,0,0-4.07Zm0,2.9h-7.56a.87.87,0,0,1,0-1.74H309a.87.87,0,0,1,0,1.74Z"/><path class="cls-2" d="M322.94,238.18h-7.55a2,2,0,1,0,0,4.07h7.56a2,2,0,1,0,0-4.07Zm0,2.9h-7.55a.87.87,0,0,1,0-1.74h7.55a.87.87,0,1,1,0,1.74Z"/><path class="cls-2" d="M309,233h-7.56a2,2,0,0,0,0,4.07H309a2,2,0,0,0,0-4.07Zm0,2.9h-7.56a.87.87,0,0,1,0-1.74H309a.87.87,0,1,1,0,1.74Z"/><path class="cls-2" d="M322.94,233h-7.55a2,2,0,1,0,0,4.07h7.56a2,2,0,1,0,0-4.07Zm0,2.9h-7.55a.87.87,0,0,1,0-1.74h7.55a.87.87,0,1,1,0,1.74Z"/><path class="cls-4" d="M286.28,165.48l-3.37,11s-.86,20.5-12.14,17.68,3.29-26.8,3.29-26.8l3.29-5.17Z"/><path class="cls-4" d="M222.35,165.48l-3.37,11s-.86,20.5-12.14,17.68,3.29-26.8,3.29-26.8l3.29-5.17Z"/><path class="cls-2" d="M283.93,71.93s7.52-1.88,9.88,10.82S299,131.63,299,131.63l-11.29,38.08s-11.28-6.11-13.63-5.17l8.88-33.06-7.47-33.69S282.05,71.93,283.93,71.93Z"/><polygon class="cls-5" points="273 98.43 282.87 131.34 273 164.71 278.64 131.34 273 98.43"/><path class="cls-2" d="M228,97.79l-16.92,66.75s8.93,3,12.22,5.3Z"/><circle class="cls-1" cx="50.47" cy="218.53" r="47.01"/><circle class="cls-6" cx="50.47" cy="218.53" r="40.43"/><path class="cls-7" d="M48.53,242.39V236.5a13.56,13.56,0,0,1-7.84-2.56l1.23-3.9a12.52,12.52,0,0,0,7.38,2.5c3.64,0,6.1-2.39,6.1-5.71s-2-5.18-5.79-6.93c-5.23-2.33-8.46-5-8.46-10.08a9.16,9.16,0,0,1,7.74-9.38v-5.88h3.18v5.65a12.48,12.48,0,0,1,6.67,2l-1.29,3.84a11.34,11.34,0,0,0-6.46-2c-4,0-5.43,2.68-5.43,5,0,3,1.89,4.55,6.36,6.64,5.28,2.45,7.95,5.48,7.95,10.67a9.76,9.76,0,0,1-8.11,9.9v6.06Z"/><path class="cls-1" d="M100.13,314.15A339.43,339.43,0,0,1,0,314.15V302.87a377.18,377.18,0,0,0,100.13,0Z"/><path class="cls-1" d="M100.13,296.76A339.43,339.43,0,0,1,0,296.76V285.48a377.18,377.18,0,0,0,100.13,0Z"/><path class="cls-1" d="M100.13,279.37A339.43,339.43,0,0,1,0,279.37V268.08a377.18,377.18,0,0,0,100.13,0Z"/></svg>