<svg id="Layer_1" data-name="Layer 1" xmlns="http://www.w3.org/2000/svg" viewBox="0 0 486.47 298.21"><defs><style>.cls-1{fill:#f2f2f2;}.cls-2{fill:#fff;}.cls-3{fill:#ed4792;}.cls-4{fill:#f7b3b5;}.cls-5{fill:#2f2e41;}.cls-6{fill:#10c0e8;}.cls-7{fill:#f8b6b7;}.cls-8{opacity:0.1;isolation:isolate;}.cls-9{fill:#f0efef;}.cls-10{fill:#403d56;}</style></defs><title>Artboard 29</title><path class="cls-1" d="M293.53,264,276,268.73l17.67-10.87c-.38-17.32-6.43-35.29-6.43-35.29s-37.77,10.94-47.68,29.89-2.11,31.46,11.78,38.73,28.62,6.55,38.54-12.4A37.5,37.5,0,0,0,293.53,264Z"/><path class="cls-2" d="M272.63,267.73l-.49.93c-5.73,10.83-12,18.35-18.71,22.43l-.29.18-.28-.46-.25-.44c7.35-4.36,13.53-12.72,18.53-22.17.17-.3.33-.61.49-.92,2.08-4,4-8.2,5.63-12.34l.39-1c2.17-5.48,4-10.86,5.44-15.59l.3-1c2.42-8,3.77-14.06,4.06-15.39a2,2,0,0,1,.06-.28l.5.11h0l.51.11s-.07.33-.19.88c-.47,2.09-1.78,7.74-3.95,15l-.3,1c-1.18,3.84-2.58,8.09-4.22,12.46-.41,1.1-.83,2.18-1.25,3.24-.12.33-.25.65-.39,1Q275.53,262.13,272.63,267.73Z"/><path class="cls-2" d="M284.39,237.74l-1-.37c-.92-.37-1.81-.78-2.68-1.23a28,28,0,0,1-9.46-8l-1,.43a28.91,28.91,0,0,0,10,8.53,29.54,29.54,0,0,0,2.86,1.31l1,.37a29,29,0,0,0,8.54,1.63c-.06-.36-.13-.71-.19-1.06A27.64,27.64,0,0,1,284.39,237.74Z"/><path class="cls-2" d="M278.62,254.44c-.33-.15-.65-.31-1-.48a2.1,2.1,0,0,1-.3-.15,28.16,28.16,0,0,1-14.88-21.4l-1,.53a29.19,29.19,0,0,0,15.38,21.8l.39.2,1,.47a29.13,29.13,0,0,0,16.23,2.37c0-.35,0-.7,0-1.06A28,28,0,0,1,278.62,254.44Z"/><path class="cls-2" d="M272.63,267.73c-.34-.14-.67-.29-1-.45s-.71-.34-1.05-.52A28.23,28.23,0,0,1,256,236.22l-1.2.8a29.27,29.27,0,0,0,15.28,30.67l1.05.51c.33.17.67.32,1,.46a29.15,29.15,0,0,0,21.42.6c.08-.39.15-.79.22-1.19A28.15,28.15,0,0,1,272.63,267.73Z"/><path class="cls-1" d="M63.1,265.67l17.55,4.71L63,259.51c.38-17.33,6.43-35.29,6.43-35.29s37.77,10.94,47.69,29.89,2.11,31.46-11.79,38.73-28.62,6.54-38.53-12.41A37.46,37.46,0,0,1,63.1,265.67Z"/><path class="cls-2" d="M84,269.37l.49.94c5.74,10.83,12,18.34,18.71,22.42l.3.18.27-.46L104,292c-7.36-4.35-13.53-12.72-18.54-22.16l-.49-.92c-2.08-4-4-8.2-5.62-12.35-.14-.32-.26-.65-.39-1-2.18-5.48-4-10.86-5.44-15.6-.11-.33-.21-.67-.3-1-2.43-8-3.77-14-4.06-15.39a2,2,0,0,1-.06-.28l-.51.11h0l-.5.1s.06.33.19.89c.46,2.09,1.78,7.73,3.94,14.95.1.32.2.66.31,1,1.17,3.85,2.57,8.1,4.21,12.47.41,1.1.83,2.17,1.25,3.23l.39,1Q81.1,263.78,84,269.37Z"/><path class="cls-2" d="M64.19,241c-.06.34-.12.69-.19,1a29,29,0,0,0,8.55-1.63c.33-.11.67-.23,1-.37a28.3,28.3,0,0,0,2.86-1.31,29,29,0,0,0,10-8.52l-1-.44a27.89,27.89,0,0,1-9.46,8A26.8,26.8,0,0,1,73.25,239l-1,.38A28.31,28.31,0,0,1,64.19,241Z"/><path class="cls-2" d="M62.2,258.37l0,1.05a29,29,0,0,0,16.23-2.36l1-.48.39-.2a29.16,29.16,0,0,0,15.37-21.79c-.32-.19-.65-.36-1-.54a28.12,28.12,0,0,1-14.88,21.41l-.29.15-1,.47A27.91,27.91,0,0,1,62.2,258.37Z"/><path class="cls-2" d="M62.86,269.72c.06.4.13.79.21,1.19a29.19,29.19,0,0,0,21.42-.6l1-.46c.36-.16.7-.34,1.05-.52a29.27,29.27,0,0,0,15.28-30.67c-.39-.27-.79-.53-1.2-.8A28.23,28.23,0,0,1,86.06,268.4c-.35.19-.7.36-1.06.53l-1,.44A28.12,28.12,0,0,1,62.86,269.72Z"/><path class="cls-1" d="M145.37,278.94l10.45,2.8-10.53-6.47c.23-10.31,3.83-21,3.83-21s22.49,6.51,28.39,17.79,1.25,18.73-7,23.06-17,3.9-22.94-7.38A22.45,22.45,0,0,1,145.37,278.94Z"/><path class="cls-2" d="M157.81,281.14l.29.56c3.42,6.45,7.15,10.92,11.14,13.35l.18.11.16-.28.15-.26c-4.38-2.59-8-7.57-11-13.19l-.29-.55c-1.24-2.39-2.36-4.88-3.35-7.35-.08-.19-.16-.39-.23-.58-1.3-3.27-2.38-6.47-3.24-9.29l-.18-.59c-1.44-4.78-2.25-8.37-2.42-9.17a1.54,1.54,0,0,1,0-.16l-.3.06h0l-.3.07.11.52c.28,1.25,1.06,4.61,2.35,8.9l.18.59c.7,2.29,1.54,4.82,2.51,7.43l.75,1.92c.07.2.15.39.23.58Q156.09,277.82,157.81,281.14Z"/><path class="cls-2" d="M146,264.22c0,.21-.07.42-.11.63a16.94,16.94,0,0,0,5.08-1c.2-.06.4-.14.6-.22.58-.23,1.15-.49,1.7-.77a17.38,17.38,0,0,0,5.93-5.08l-.58-.26a16.66,16.66,0,0,1-5.64,4.78,16.33,16.33,0,0,1-1.59.74l-.6.22A16.34,16.34,0,0,1,146,264.22Z"/><path class="cls-2" d="M144.83,274.59c0,.21,0,.42,0,.63a17.25,17.25,0,0,0,9.66-1.41l.58-.28.23-.12a17.4,17.4,0,0,0,9.16-13l-.59-.32A16.76,16.76,0,0,1,155,272.86l-.17.09-.58.28A16.68,16.68,0,0,1,144.83,274.59Z"/><path class="cls-2" d="M145.22,281.35c0,.24.08.47.13.71a17.39,17.39,0,0,0,12.75-.36l.6-.27.62-.31a17.43,17.43,0,0,0,9.1-18.26l-.71-.48A16.83,16.83,0,0,1,159,280.57l-.63.31-.6.26A16.73,16.73,0,0,1,145.22,281.35Z"/><path class="cls-2" d="M354,184.1h0c-8.31-1.38-17.54-1.37-28.22,0h0a2,2,0,0,1-2-2h0v-9.67a2,2,0,0,1,2-2,109.66,109.66,0,0,1,28.33,0h0a2,2,0,0,1,2,2v9.67A2,2,0,0,1,354,184.1Z"/><path class="cls-3" d="M354,184.1h0c-8.31-1.38-17.54-1.37-28.22,0h0a2,2,0,0,1-2-2h0v-9.67a2,2,0,0,1,2-2,109.66,109.66,0,0,1,28.33,0h0a2,2,0,0,1,2,2v9.67A2,2,0,0,1,354,184.1ZM339.52,170a102.15,102.15,0,0,0-13.76.92,1.49,1.49,0,0,0-1.5,1.45v9.69a1.46,1.46,0,0,0,1.47,1.46c10.69-1.37,20-1.37,28.32,0a1.46,1.46,0,0,0,1.44-1.46v-9.67A1.47,1.47,0,0,0,354,171a119.1,119.1,0,0,0-14.5-.92Z"/><circle class="cls-3" cx="339.88" cy="176.79" r="3.83"/><path class="cls-3" d="M330,174.79h-3.28a.82.82,0,0,1-.82-.82v-1.1a.82.82,0,0,1,.82-.82H330a.83.83,0,0,1,.83.82V174A.83.83,0,0,1,330,174.79Z"/><path class="cls-3" d="M353,182.46h-3.28a.83.83,0,0,1-.83-.82v-1.1a.83.83,0,0,1,.83-.82H353a.83.83,0,0,1,.83.82v1.1A.83.83,0,0,1,353,182.46Z"/><path class="cls-2" d="M349.35,180.1l0,0c-7.12-4.5-15.63-8.08-26-11h0a2,2,0,0,1-1.11-2.64h0l3.76-8.91a2,2,0,0,1,2.63-1.07,109.42,109.42,0,0,1,26.1,11h0a2,2,0,0,1,1,2.62L352,179A2,2,0,0,1,349.35,180.1Z"/><path class="cls-3" d="M349.35,180.1l0,0c-7.12-4.5-15.63-8.08-26-11h0a2,2,0,0,1-1.11-2.64h0l3.76-8.91a2,2,0,0,1,2.63-1.07,109.42,109.42,0,0,1,26.1,11h0a2,2,0,0,1,1,2.62L352,179A2,2,0,0,1,349.35,180.1Zm-7.9-18.6a99.63,99.63,0,0,0-13-4.5,1.47,1.47,0,0,0-1.95.75h0l-3.76,8.91a1.47,1.47,0,0,0,.78,1.92c10.38,2.89,18.93,6.5,26.09,11a1.47,1.47,0,0,0,1.9-.78l3.76-8.91a1.47,1.47,0,0,0-.78-1.92,116.82,116.82,0,0,0-13-6.49Z"/><circle class="cls-3" cx="339.16" cy="167.86" r="3.83"/><path class="cls-3" d="M330.85,162.18l-3-1.27a.83.83,0,0,1-.44-1.08l.43-1a.83.83,0,0,1,1.08-.44l3,1.28a.83.83,0,0,1,.43,1.08l-.42,1A.83.83,0,0,1,330.85,162.18Z"/><path class="cls-3" d="M349.06,178.2l-3-1.28a.82.82,0,0,1-.44-1.08l.43-1a.81.81,0,0,1,1.07-.43l3,1.27a.83.83,0,0,1,.44,1.08l-.43,1A.83.83,0,0,1,349.06,178.2Z"/><path class="cls-4" d="M356.89,174.81a5.51,5.51,0,0,0,1.88-7.56,5,5,0,0,0-.57-.79l9.7-17-10.15.65-7.66,16a5.54,5.54,0,0,0,6.8,8.65Z"/><polygon class="cls-4" points="431.57 290.72 424.86 290.72 421.66 264.82 431.57 264.82 431.57 290.72"/><path class="cls-5" d="M433.29,297.23H411.63V297a8.43,8.43,0,0,1,8.43-8.43h13.23Z"/><polygon class="cls-4" points="385.56 290.72 378.84 290.72 375.65 264.82 385.56 264.82 385.56 290.72"/><path class="cls-5" d="M387.27,297.23H365.61V297a8.43,8.43,0,0,1,8.43-8.43h13.23Z"/><path class="cls-5" d="M368.29,150.19s-1.85,26.3,1.79,39.55,4.29,93.38,4.29,93.38h12.19l10.57-109.07L421.5,283.5l11.62-.8-6.37-129Z"/><path class="cls-6" d="M421.71,61.51l-9.33-6.81-15.62,3.41-4.23,10-7.29,3.62a16.53,16.53,0,0,0-9,12.43l-10.41,71.89,60.93-2.36,7.37-84.66a6.64,6.64,0,0,0-6-7.19h-.19Z"/><polygon class="cls-6" points="381.39 77.38 375.76 84.97 351.26 159.72 362.74 164.31 381.14 129.48 381.39 77.38"/><circle class="cls-5" cx="401.53" cy="31.66" r="18.65"/><circle class="cls-7" cx="401.79" cy="37.54" r="13.61"/><path class="cls-5" d="M412.12,35.78c-8.67-3.12-11.6-5-21.17,0l-3.53-14.11h28.22Z"/><circle class="cls-5" cx="400.02" cy="13.1" r="10.58"/><path class="cls-5" d="M387.42,10.58A10.57,10.57,0,0,1,397.5,0c-.17,0-.33,0-.5,0a10.59,10.59,0,0,0,0,21.17c.17,0,.33,0,.5,0A10.58,10.58,0,0,1,387.42,10.58Z"/><polygon class="cls-8" points="426.25 81.69 422.46 119.53 409.05 145.96 426.25 81.69"/><rect class="cls-9" x="21.64" y="198.17" width="3.29" height="2.74"/><path class="cls-9" d="M335.83,200.91h-6.47v-2.74h6.47Zm-12.95,0H316.4v-2.74h6.48Zm-13,0h-6.47v-2.74h6.47Zm-12.95,0h-6.48v-2.74H297Zm-13,0h-6.48v-2.74H284Zm-13,0h-6.48v-2.74h6.48Zm-12.95,0h-6.48v-2.74h6.48Zm-13,0h-6.48v-2.74h6.48Zm-13,0h-6.48v-2.74h6.48Zm-13,0h-6.47v-2.74h6.47Zm-13,0h-6.48v-2.74h6.48Zm-13,0h-6.47v-2.74h6.47Zm-13,0H173.9v-2.74h6.48Zm-13,0H161v-2.74h6.48Zm-12.95,0H148v-2.74h6.48Zm-12.95,0H135v-2.74h6.48Zm-13,0h-6.48v-2.74h6.48Zm-13,0h-6.48v-2.74h6.48Zm-13,0H96.18v-2.74h6.47Zm-13,0H83.22v-2.74H89.7Zm-13,0H70.27v-2.74h6.47Zm-12.95,0H57.31v-2.74h6.48Zm-13,0H44.36v-2.74h6.48Zm-12.95,0H31.4v-2.74h6.48Z"/><rect class="cls-9" x="21.64" y="128.59" width="3.29" height="2.74"/><path class="cls-9" d="M335.83,131.33h-6.47v-2.74h6.47Zm-12.95,0H316.4v-2.74h6.48Zm-13,0h-6.47v-2.74h6.47Zm-12.95,0h-6.48v-2.74H297Zm-13,0h-6.48v-2.74H284Zm-13,0h-6.48v-2.74h6.48Zm-12.95,0h-6.48v-2.74h6.48Zm-13,0h-6.48v-2.74h6.48Zm-13,0h-6.48v-2.74h6.48Zm-13,0h-6.47v-2.74h6.47Zm-13,0h-6.48v-2.74h6.48Zm-13,0h-6.47v-2.74h6.47Zm-13,0H173.9v-2.74h6.48Zm-13,0H161v-2.74h6.48Zm-12.95,0H148v-2.74h6.48Zm-12.95,0H135v-2.74h6.48Zm-13,0h-6.48v-2.74h6.48Zm-13,0h-6.48v-2.74h6.48Zm-13,0H96.18v-2.74h6.47Zm-13,0H83.22v-2.74H89.7Zm-13,0H70.27v-2.74h6.47Zm-12.95,0H57.31v-2.74h6.48Zm-13,0H44.36v-2.74h6.48Zm-12.95,0H31.4v-2.74h6.48Z"/><rect class="cls-9" x="21.64" y="59.02" width="3.29" height="2.74"/><path class="cls-9" d="M335.83,61.76h-6.47V59h6.47Zm-12.95,0H316.4V59h6.48Zm-13,0h-6.47V59h6.47Zm-12.95,0h-6.48V59H297Zm-13,0h-6.48V59H284Zm-13,0h-6.48V59h6.48Zm-12.95,0h-6.48V59h6.48Zm-13,0h-6.48V59h6.48Zm-13,0h-6.48V59h6.48Zm-13,0h-6.47V59h6.47Zm-13,0h-6.48V59h6.48Zm-13,0h-6.47V59h6.47Zm-13,0H173.9V59h6.48Zm-13,0H161V59h6.48Zm-12.95,0H148V59h6.48Zm-12.95,0H135V59h6.48Zm-13,0h-6.48V59h6.48Zm-13,0h-6.48V59h6.48Zm-13,0H96.18V59h6.47Zm-13,0H83.22V59H89.7Zm-13,0H70.27V59h6.47Zm-12.95,0H57.31V59h6.48Zm-13,0H44.36V59h6.48Zm-12.95,0H31.4V59h6.48Z"/><rect class="cls-10" x="101.9" y="198.99" width="26.84" height="98.61"/><rect class="cls-3" x="106.83" y="198.99" width="26.84" height="98.61"/><rect class="cls-10" x="165.44" y="129.42" width="26.84" height="168.18"/><rect class="cls-3" x="170.37" y="129.42" width="26.84" height="168.18"/><rect class="cls-10" x="228.99" y="59.84" width="26.84" height="237.76"/><rect class="cls-3" x="233.92" y="59.84" width="26.84" height="237.76"/><circle class="cls-9" cx="21.91" cy="60.39" r="6.57"/><circle class="cls-9" cx="21.91" cy="129.96" r="6.57"/><circle class="cls-9" cx="21.91" cy="199.54" r="6.57"/><rect class="cls-10" y="296.98" width="486.47" height="1.23"/><path class="cls-2" d="M410.45,172.05h0c-8.31-1.37-17.54-1.37-28.22,0h0a2,2,0,0,1-2-2h0v-9.68a2,2,0,0,1,2-2,110.1,110.1,0,0,1,28.33,0h0a2,2,0,0,1,2,2V170A2,2,0,0,1,410.45,172.05Z"/><path class="cls-3" d="M410.45,172.05h0c-8.31-1.37-17.54-1.37-28.22,0h0a2,2,0,0,1-2-2h0v-9.68a2,2,0,0,1,2-2,110.1,110.1,0,0,1,28.33,0h0a2,2,0,0,1,2,2V170A2,2,0,0,1,410.45,172.05ZM395.94,158a100.4,100.4,0,0,0-13.75.92,1.47,1.47,0,0,0-1.5,1.45h0V170a1.46,1.46,0,0,0,1.46,1.46c10.69-1.38,20-1.38,28.32,0a1.46,1.46,0,0,0,1.44-1.46v-9.68a1.46,1.46,0,0,0-1.46-1.46,119.27,119.27,0,0,0-14.51-.92Z"/><circle class="cls-3" cx="396.3" cy="164.74" r="3.83"/><path class="cls-3" d="M386.44,162.74h-3.29a.83.83,0,0,1-.82-.83v-1.09a.82.82,0,0,1,.82-.82h3.29a.82.82,0,0,1,.82.82v1.09A.83.83,0,0,1,386.44,162.74Z"/><path class="cls-3" d="M409.45,170.4h-3.29a.82.82,0,0,1-.82-.82v-1.09a.82.82,0,0,1,.82-.82h3.29a.82.82,0,0,1,.82.82v1.09A.82.82,0,0,1,409.45,170.4Z"/><path class="cls-4" d="M404.29,159.37a5.51,5.51,0,0,1,5.11-5.88,5.24,5.24,0,0,1,1,0l8.35-17.71,5.29,8.69L415.28,160a5.54,5.54,0,0,1-11-.6Z"/><path class="cls-6" d="M427,66.75l3.43-4.49s8.38-1.7,9.8,9.8l-.89,51.15L421,152.1l-11.92-3,15.59-34.32Z"/></svg>