<svg id="Layer_1" data-name="Layer 1" xmlns="http://www.w3.org/2000/svg" viewBox="0 0 384.57 330"><defs><style>.cls-1{fill:#10c0e8;}.cls-2{fill:#f2f2f2;}.cls-3{fill:#fff;}.cls-4{fill:#cacaca;}.cls-5{fill:#e4e4e4;}.cls-6{fill:#ee4693;}.cls-7{fill:#a0616a;}.cls-8{fill:#3f3d56;}.cls-9{fill:#2f2e41;}</style></defs><title>Artboard 44</title><path id="b9ccae5a-ffdd-4f5c-9c1e-05af9f0f3372" class="cls-1" d="M28.88,302.84a13.7,13.7,0,0,0,13.21-2.33c4.62-3.88,6.07-10.28,7.25-16.2l3.49-17.52-7.31,5c-5.25,3.62-10.62,7.36-14.26,12.6S26,296.81,29,302.49"/><path id="f4ad1d06-bd03-4ced-a5c4-c19a65ab4ee5" class="cls-2" d="M30,325.27c-.92-6.7-1.87-13.49-1.22-20.26a31.8,31.8,0,0,1,6.14-16.71,27.79,27.79,0,0,1,7.13-6.46c.72-.45,1.37.68.66,1.12a26.44,26.44,0,0,0-10.45,12.61c-2.28,5.79-2.64,12.1-2.25,18.25.24,3.72.74,7.41,1.25,11.1a.67.67,0,0,1-.46.8.65.65,0,0,1-.8-.45Z"/><path id="baf785f8-b4c6-42cf-85bd-8a16037845f7" class="cls-1" d="M36.63,314.52A10.06,10.06,0,0,0,45.4,319c4.44-.21,8.14-3.31,11.48-6.25l9.85-8.7-6.52-.31c-4.69-.23-9.51-.44-14,1s-8.59,4.93-9.41,9.55"/><path id="a14e4330-7125-4e03-a856-d6453c34f6cc" class="cls-2" d="M27.41,329.12c4.42-7.84,9.56-16.54,18.74-19.33A21,21,0,0,1,54,309c.84.07.63,1.36-.21,1.29a19.45,19.45,0,0,0-12.58,3.33,32.6,32.6,0,0,0-8.64,9.33c-1.44,2.18-2.72,4.45-4,6.72C28.19,330.38,27,329.85,27.41,329.12Z"/><path id="ac20a106-7eb8-4a45-8835-674ef3bf3222" class="cls-3" d="M381.73,232.4H137.6a2.85,2.85,0,0,1-2.84-2.84V2.84A2.84,2.84,0,0,1,137.6,0H381.73a2.84,2.84,0,0,1,2.84,2.84V229.56a2.84,2.84,0,0,1-2.84,2.83Z"/><path id="a8878079-c7cd-406f-a434-8b15b914b9b4" class="cls-4" d="M381.73,232.4H137.6a2.85,2.85,0,0,1-2.84-2.84V2.84A2.84,2.84,0,0,1,137.6,0H381.73a2.84,2.84,0,0,1,2.84,2.84V229.56a2.84,2.84,0,0,1-2.84,2.83ZM137.6,1.13a1.7,1.7,0,0,0-1.7,1.7V229.56a1.7,1.7,0,0,0,1.7,1.7H381.73a1.7,1.7,0,0,0,1.7-1.7V2.84a1.7,1.7,0,0,0-1.7-1.7Z"/><path id="af64f961-e9a2-4c53-a333-5060c7f850d2" class="cls-5" d="M253,58.91a1.93,1.93,0,0,0,0,3.86H358.66a1.93,1.93,0,0,0,0-3.86Z"/><path id="baad4cfb-158d-4439-9cc3-22475bf47b22" class="cls-5" d="M253,70.47a1.93,1.93,0,0,0,0,3.86h54a1.93,1.93,0,0,0,0-3.86Z"/><path id="f3456279-91e5-49ad-aa43-9838b26fb6ca" class="cls-5" d="M160.56,132.64a1.93,1.93,0,0,0,0,3.85h198.2a1.93,1.93,0,0,0,0-3.85Z"/><path id="a3288adf-49f8-485f-8ae9-1e4f1a13d849" class="cls-5" d="M160.56,144.2a1.93,1.93,0,0,0,0,3.85H307a1.93,1.93,0,0,0,0-3.85Z"/><path id="e63a5b48-5a7d-40a2-b9b0-6adec326348a" class="cls-5" d="M160.56,155.49a1.93,1.93,0,0,0,0,3.86h198.2a1.93,1.93,0,0,0,0-3.86Z"/><path id="a1c669b4-dfc3-4cfa-a7be-66b71399844d" class="cls-5" d="M160.56,167.05a1.93,1.93,0,0,0,0,3.86H307a1.93,1.93,0,0,0,0-3.86Z"/><path id="bfec50d1-ffb1-4de6-a9ef-a1085e40e016" class="cls-5" d="M160.56,178.65a1.93,1.93,0,0,0,0,3.86h198.2a1.93,1.93,0,0,0,0-3.86Z"/><path id="bc9696ec-ec99-41d5-9116-3ad9737a38ac" class="cls-5" d="M160.56,190.21a1.93,1.93,0,0,0,0,3.86H307a1.93,1.93,0,0,0,0-3.86Z"/><path class="cls-6" d="M192,94.3a27.68,27.68,0,1,1,27.67-27.68h0A27.71,27.71,0,0,1,192,94.3Z"/><path class="cls-7" d="M107.94,199a6.92,6.92,0,0,0-7.24-6.59,7.19,7.19,0,0,0-1.21.17l-9.14-12.89-9.19,3.65,13.17,18A7,7,0,0,0,107.94,199Z"/><path class="cls-8" d="M90.11,198,62.43,162.08l10.37-32.6c.76-8.19,5.89-10.48,6.11-10.57l.33-.15,9,24.07L81.64,160.5,97.9,187.86Z"/><path class="cls-7" d="M186.24,87.29a6.92,6.92,0,0,0-5.74,8.92l-12.15,10.11,4.35,8.88,17-14.52a7,7,0,0,0-3.41-13.39Z"/><path class="cls-8" d="M186.67,105.14,153,135.51l-33.31-7.82c-8.23-.12-10.9-5.06-11-5.27l-.17-.32,23.3-10.86L150,116.48l26-18.33Z"/><polygon class="cls-7" points="128.36 321.08 137.41 321.08 141.71 286.19 128.36 286.19 128.36 321.08"/><path class="cls-9" d="M154.85,329.48H126.42v-11h20.45a8,8,0,0,1,8,8h0v3Z"/><polygon class="cls-7" points="92.21 321.08 101.25 321.08 105.56 286.19 92.21 286.19 92.21 321.08"/><path class="cls-9" d="M118.7,329.48H90.27v-11h20.45a8,8,0,0,1,8,8h0v3Z"/><polygon class="cls-9" points="88.99 193.74 89.73 245.38 90.47 313.25 106.7 311.78 114.81 218.08 125.14 311.78 141.9 311.78 143.59 217.34 137.69 196.69 88.99 193.74"/><path class="cls-8" d="M120.76,200.67c-17.66,0-33.92-8-34.14-8.1l-.18-.09L85,156.91c-.43-1.25-8.89-26-10.32-33.94s19.59-15,22.14-15.81l.58-6.43L121,98.19l3,8.22,8.46,3.18A4.17,4.17,0,0,1,135,114.5l-4.7,19.13,11.49,63.27-2.48.1A44.81,44.81,0,0,1,120.76,200.67Z"/><circle class="cls-7" cx="110.08" cy="77.14" r="16.98"/><path class="cls-9" d="M96.33,93.58c3.23,3.45,9.24,1.6,9.66-3.11a5.78,5.78,0,0,0,0-1.1c-.22-2.09-1.43-4-1.14-6.18a3.25,3.25,0,0,1,.6-1.52c2.57-3.45,8.63,1.54,11.06-1.58,1.49-1.92-.26-4.94.89-7.08,1.51-2.83,6-1.43,8.79-3,3.12-1.72,2.94-6.52.88-9.43-2.51-3.56-6.9-5.45-11.24-5.73a30.19,30.19,0,0,0-12.71,2.48c-4.61,1.8-9.17,4.28-12,8.33-3.45,4.92-3.78,11.55-2,17.3C90.1,86.49,93.68,90.77,96.33,93.58Z"/><path class="cls-4" d="M215.77,329.91H.56a.56.56,0,0,1-.56-.56.57.57,0,0,1,.56-.57H215.77a.58.58,0,0,1,.57.57A.57.57,0,0,1,215.77,329.91Z"/><path class="cls-3" d="M190.36,77.07a2,2,0,0,1-1.35-.52l-9.12-8.48a2,2,0,0,1,2.69-2.9l7.73,7.18L205.6,57.06a2,2,0,0,1,2.81,2.78h0L191.76,76.49A2,2,0,0,1,190.36,77.07Z"/></svg>