<svg id="Layer_1" data-name="Layer 1" xmlns="http://www.w3.org/2000/svg" viewBox="0 0 316.78 330"><defs><style>.cls-1{fill:#f2f2f2;}.cls-2{fill:#fff;}.cls-3{fill:#ee4693;}.cls-4{fill:#e4e4e4;}.cls-5{fill:#9e616a;}.cls-6{fill:#ccc;}.cls-7{fill:#2f2e41;}.cls-8{fill:#10c0e8;}.cls-9{fill:#cacaca;}</style></defs><title>Artboard 53</title><path class="cls-1" d="M290.54,282.33,276,295.68l11.53-19.34c-9.09-16.48-23.94-30.72-23.94-30.72s-30.83,29.54-30.83,52.75,13.8,31.32,30.83,31.32,30.82-8.1,30.82-31.32C294.44,293.2,292.91,287.72,290.54,282.33Z"/><path class="cls-2" d="M272.3,296.41v1.14c-.07,13.3-2.31,23.68-6.72,31l-.19.32-.49-.3-.47-.3c4.88-7.89,6.61-19,6.67-30.65,0-.37,0-.75,0-1.13,0-4.91-.32-9.88-.8-14.71l-.12-1.13c-.66-6.37-1.63-12.45-2.61-17.74-.07-.37-.14-.74-.22-1.11-1.7-8.94-3.44-15.42-3.84-16.85a1.85,1.85,0,0,0-.08-.29l.54-.16h0l.54-.16s.1.35.26.95c.61,2.24,2.18,8.33,3.73,16.37q.11.54.21,1.11c.8,4.29,1.59,9.08,2.21,14.11.16,1.26.3,2.51.43,3.74l.12,1.13Q272.27,289.57,272.3,296.41Z"/><path class="cls-2" d="M268.52,261.65l-1.16.14a31,31,0,0,1-3.19.16A30.39,30.39,0,0,1,251,259l-.72.91a31.59,31.59,0,0,0,13.87,3.2,32.47,32.47,0,0,0,3.41-.19l1.15-.14a31,31,0,0,0,9-2.74l-.71-.92A30.31,30.31,0,0,1,268.52,261.65Z"/><path class="cls-2" d="M271.37,280.61c-.39,0-.78,0-1.18,0h-.36a30.56,30.56,0,0,1-25.08-13.11c-.23.34-.46.67-.68,1a31.7,31.7,0,0,0,25.76,13.23h.48c.39,0,.79,0,1.18,0a31.45,31.45,0,0,0,16.79-5.89c-.18-.34-.36-.67-.55-1A30.35,30.35,0,0,1,271.37,280.61Z"/><path class="cls-2" d="M272.3,296.41l-1.19.07c-.43,0-.85,0-1.28,0a30.65,30.65,0,0,1-29.38-22.05c-.25.46-.51.91-.75,1.37a31.75,31.75,0,0,0,30.13,21.81c.43,0,.85,0,1.27,0l1.2-.06a31.62,31.62,0,0,0,20.9-10.2c-.12-.42-.25-.83-.39-1.25A30.58,30.58,0,0,1,272.3,296.41Z"/><path id="f3dd3be3-e3f2-4729-8854-c6cb5bd65852" class="cls-3" d="M238.36,71.36,80.53,51.24a9.07,9.07,0,0,0-1.28-.09,10.66,10.66,0,0,0-1.26.08,10.47,10.47,0,0,0-1.24.25,8.61,8.61,0,0,0-1.21.41,9,9,0,0,0-1.13.54,10.76,10.76,0,0,0-1.07.68c-.35.26-.69.53-1,.82s-.64.62-.94,1A13.14,13.14,0,0,0,70.53,56c-.26.38-.52.77-.75,1.18a14,14,0,0,0-.66,1.28c-.2.44-.39.9-.56,1.38s-.32,1-.45,1.5-.24,1-.33,1.56-.15,1.06-.19,1.61-.07,1.09-.07,1.65,0,1.12.07,1.67.11,1.11.19,1.65.2,1.09.33,1.63.28,1.07.46,1.59.35,1,.55,1.49.42,1,.66,1.41.49.9.76,1.33.55.85.85,1.25.62.79.94,1.15.66.7,1,1,.7.62,1.07.9a12.49,12.49,0,0,0,1.13.77,10.81,10.81,0,0,0,1.21.65,11,11,0,0,0,1.24.49,11.17,11.17,0,0,0,1.26.34,11.39,11.39,0,0,0,1.29.17L238.36,95.18a3.89,3.89,0,0,0,1.36-.13,4.7,4.7,0,0,0,.66-.24,5.31,5.31,0,0,0,1.23-.81,7.27,7.27,0,0,0,.56-.55,8.44,8.44,0,0,0,1-1.37,8.69,8.69,0,0,0,.44-.8c.14-.28.27-.58.39-.88s.23-.61.33-.94.2-.65.28-1,.17-.72.23-1.08.12-.74.16-1.12.08-.76.1-1.15,0-.77,0-1.17,0-.79,0-1.18,0-.78-.1-1.17-.09-.77-.16-1.15-.14-.75-.23-1.12-.18-.71-.28-1.06-.21-.67-.33-1-.25-.64-.39-1-.28-.61-.44-.9a9.29,9.29,0,0,0-.48-.82c-.17-.26-.34-.51-.52-.75s-.37-.45-.56-.65a7.94,7.94,0,0,0-.59-.57,6,6,0,0,0-.64-.49,5.32,5.32,0,0,0-.66-.37,3.91,3.91,0,0,0-.67-.27,5.63,5.63,0,0,0-.69-.14"/><path id="f1003c66-3f14-4be1-907c-7cdab0d8529f" class="cls-4" d="M238.36,116.74,80.53,113a10.25,10.25,0,0,0-3.78.63,10.07,10.07,0,0,0-1.21.53,11.5,11.5,0,0,0-1.13.66,11.91,11.91,0,0,0-1.07.8c-.35.29-.69.6-1,.92s-.64.69-.94,1.06-.59.76-.86,1.17-.52.82-.75,1.26a14.08,14.08,0,0,0-.66,1.35c-.2.46-.39.94-.56,1.43s-.32,1-.45,1.55-.24,1.05-.33,1.59-.15,1.08-.19,1.63-.07,1.11-.07,1.66,0,1.12.07,1.67.11,1.09.19,1.63.2,1.06.33,1.58.28,1,.46,1.55.35,1,.55,1.43.42.91.66,1.35a14.34,14.34,0,0,0,.76,1.25c.27.4.55.79.85,1.16s.62.72.94,1.05.66.63,1,.92.7.54,1.07.79a11.42,11.42,0,0,0,1.13.65,13,13,0,0,0,1.21.53c.41.14.82.26,1.24.36a11,11,0,0,0,1.26.2,9.27,9.27,0,0,0,1.29,0l157.82-4.8a3.25,3.25,0,0,0,.69-.08,3.93,3.93,0,0,0,.67-.19,5,5,0,0,0,.66-.31,5.5,5.5,0,0,0,.64-.43,7.19,7.19,0,0,0,.59-.51,8,8,0,0,0,.56-.6c.18-.22.35-.45.52-.69s.33-.51.48-.78.3-.56.44-.86.27-.6.39-.91.23-.65.33-1,.2-.67.28-1,.17-.73.23-1.1.12-.75.16-1.13.08-.77.1-1.16,0-.78,0-1.18,0-.78,0-1.17,0-.78-.1-1.16-.09-.76-.16-1.13-.14-.74-.23-1.11-.18-.69-.28-1-.21-.66-.33-1-.25-.62-.39-.91-.28-.58-.44-.86a8.36,8.36,0,0,0-.48-.77,7.76,7.76,0,0,0-.52-.69,8,8,0,0,0-.56-.6,5.84,5.84,0,0,0-.59-.51,7.06,7.06,0,0,0-.64-.42,5.22,5.22,0,0,0-1.33-.5,4,4,0,0,0-.69-.07"/><path id="e5b3fa8a-e15d-46b1-859f-01f7147e98c8" class="cls-4" d="M238.36,159.28,80.53,170.83a10.46,10.46,0,0,0-2.54.5,13.31,13.31,0,0,0-1.24.49c-.42.2-.82.42-1.21.65s-.77.5-1.13.77a13.06,13.06,0,0,0-1.07.9c-.35.32-.68.66-1,1s-.64.75-.94,1.15-.59.82-.86,1.25-.52.88-.75,1.34-.46.93-.66,1.41-.39,1-.56,1.49-.32,1-.45,1.59-.24,1.08-.33,1.62-.15,1.1-.19,1.65-.07,1.11-.07,1.67,0,1.11.07,1.66.11,1.08.19,1.61.2,1.05.33,1.56a15.3,15.3,0,0,0,.46,1.5c.16.48.35.93.55,1.38a14,14,0,0,0,.66,1.28,13.18,13.18,0,0,0,.76,1.18c.26.37.55.73.85,1.08s.61.65.94.95a9.78,9.78,0,0,0,1,.82,10.84,10.84,0,0,0,1.07.69,10.67,10.67,0,0,0,1.13.54,10.13,10.13,0,0,0,1.21.41,8.76,8.76,0,0,0,1.24.24,8.88,8.88,0,0,0,1.26.08,9.31,9.31,0,0,0,1.29-.08l157.82-20.12a4.22,4.22,0,0,0,.69-.14,4.9,4.9,0,0,0,.67-.26,5.38,5.38,0,0,0,.66-.38,6,6,0,0,0,.64-.49,6.21,6.21,0,0,0,.59-.56c.19-.21.38-.43.56-.66s.35-.48.52-.75a9.29,9.29,0,0,0,.48-.82c.16-.29.3-.59.44-.9s.27-.63.39-1,.23-.67.33-1,.2-.69.28-1.05.17-.75.23-1.13.12-.76.16-1.15.08-.77.1-1.16,0-.79,0-1.19,0-.78,0-1.17,0-.77-.1-1.14-.09-.76-.16-1.12-.14-.73-.23-1.08-.18-.68-.28-1-.21-.63-.33-.94-.25-.59-.39-.87-.28-.55-.44-.81-.32-.5-.48-.73-.34-.43-.52-.63a5.8,5.8,0,0,0-.56-.55,5.31,5.31,0,0,0-1.23-.81,3.71,3.71,0,0,0-.66-.24,4.15,4.15,0,0,0-1.36-.14"/><path id="bafb1f3d-b2ca-45c8-ab7e-ed03dda6d8fc" class="cls-5" d="M152.34,161.4a7.91,7.91,0,0,0,14.32-6.48l30.59-62.84L182.61,83.2,156.19,150l-.3.12-.29.14-.29.15-.28.16a7.92,7.92,0,0,0-2.69,10.88Z"/><path id="a23fb8c4-4f70-46f7-bb51-5893ecfd1d6a" class="cls-6" d="M191.41,116.31l-21.73-5.57s.71-1.6,1.86-4.26,2.77-6.36,4.58-10.57,3.82-8.91,5.79-13.55,3.87-9.24,5.48-13.22,3.43-6.36,5.27-7.7A7.27,7.27,0,0,1,198,60a10.2,10.2,0,0,1,4.12,1.57,10.61,10.61,0,0,1,1.66,1.25l5,9.17Z"/><path id="bf4ad07a-caea-45f0-95a0-f5e060234fe8" class="cls-4" d="M17.51,111.33a13.77,13.77,0,0,0-1.57.21,12.08,12.08,0,0,0-1.55.38,14.57,14.57,0,0,0-1.52.55c-.5.22-1,.46-1.48.73s-.93.55-1.38.87a15.63,15.63,0,0,0-1.31,1c-.43.36-.84.74-1.24,1.14s-.78.83-1.15,1.28-.72.91-1,1.39-.64,1-.93,1.49-.56,1-.81,1.57S3,123,2.84,123.59s-.4,1.18-.56,1.77-.29,1.2-.4,1.81-.19,1.22-.24,1.83-.08,1.23-.08,1.85,0,1.23.08,1.84a17.7,17.7,0,0,0,.24,1.78c.11.59.24,1.16.4,1.72s.35,1.12.56,1.66a16,16,0,0,0,.68,1.52,14.23,14.23,0,0,0,.81,1.41,13.19,13.19,0,0,0,.93,1.29,14.88,14.88,0,0,0,1,1.19,14.31,14.31,0,0,0,1.15,1.05,13.37,13.37,0,0,0,1.24.89,13.21,13.21,0,0,0,2.69,1.33,13.45,13.45,0,0,0,3,.68c.51,0,1,.07,1.55.07s1-.05,1.57-.11,1-.17,1.56-.29,1-.28,1.52-.46a16,16,0,0,0,1.48-.62c.49-.24,1-.51,1.44-.79s.89-.59,1.32-.91.85-.67,1.25-1,.79-.75,1.17-1.16.74-.83,1.08-1.28a15,15,0,0,0,1-1.38c.31-.47.6-1,.87-1.45s.51-1,.74-1.53.44-1,.63-1.6.36-1.12.51-1.7.27-1.14.36-1.72.17-1.17.22-1.75.08-1.18.08-1.77,0-1.17-.08-1.75-.12-1.14-.22-1.7-.22-1.11-.36-1.66-.32-1.07-.51-1.59-.4-1-.63-1.47a16.34,16.34,0,0,0-2.59-3.85,13.51,13.51,0,0,0-1.08-1.06,14.75,14.75,0,0,0-1.16-.93c-.41-.28-.82-.54-1.25-.78a13.53,13.53,0,0,0-1.33-.64,13,13,0,0,0-2.92-.83,12.82,12.82,0,0,0-1.52-.15,13.51,13.51,0,0,0-1.56,0"/><path id="b68b3c2d-1cd9-4a2b-b264-66241f72f014" class="cls-4" d="M17.51,175.43a13.77,13.77,0,0,0-1.57.21,14,14,0,0,0-1.55.38c-.51.16-1,.34-1.52.55s-1,.46-1.48.73-.93.56-1.38.87a15.63,15.63,0,0,0-1.31,1c-.43.36-.84.74-1.24,1.14s-.78.83-1.15,1.28-.72.91-1,1.39-.64,1-.93,1.49-.56,1-.81,1.57-.48,1.09-.68,1.66-.4,1.17-.56,1.77-.29,1.19-.4,1.8-.19,1.22-.24,1.83-.08,1.23-.08,1.85,0,1.24.08,1.84a17.32,17.32,0,0,0,.24,1.78c.11.59.24,1.16.4,1.73s.35,1.11.56,1.65a14.92,14.92,0,0,0,.68,1.52,14.23,14.23,0,0,0,.81,1.41,14.66,14.66,0,0,0,.93,1.3c.33.41.68.8,1,1.18a14.31,14.31,0,0,0,1.15,1,13.37,13.37,0,0,0,1.24.89,12.71,12.71,0,0,0,2.69,1.33,12.91,12.91,0,0,0,3,.68,13.3,13.3,0,0,0,1.55.07c.52,0,1,0,1.57-.11a14.24,14.24,0,0,0,1.56-.29,14,14,0,0,0,1.52-.46,16,16,0,0,0,1.48-.62c.49-.24,1-.5,1.44-.79s.89-.59,1.32-.91.85-.67,1.25-1A16,16,0,0,0,27.25,206c.37-.4.74-.83,1.08-1.28a16.28,16.28,0,0,0,1-1.37c.31-.48.6-1,.87-1.46s.51-1,.74-1.53.44-1.05.63-1.59.36-1.13.51-1.7.27-1.15.36-1.73.17-1.16.22-1.75.08-1.17.08-1.76,0-1.18-.08-1.76-.12-1.14-.22-1.7-.22-1.11-.36-1.65-.32-1.08-.51-1.6-.4-1-.63-1.47a16.34,16.34,0,0,0-2.59-3.85c-.34-.37-.7-.72-1.08-1.06a12.65,12.65,0,0,0-1.16-.92,13.77,13.77,0,0,0-1.25-.79,13.53,13.53,0,0,0-1.33-.64,13,13,0,0,0-2.92-.83,12.82,12.82,0,0,0-1.52-.15,13.5,13.5,0,0,0-1.56,0"/><path id="a5644fa4-417a-45bc-a470-f5aa82f96b47" class="cls-3" d="M17.51,41.89a13.59,13.59,0,0,0-3.12.28,12.94,12.94,0,0,0-1.51.41,15.84,15.84,0,0,0-1.49.58,15.18,15.18,0,0,0-1.38.73,14.27,14.27,0,0,0-1.31.88c-.43.32-.84.66-1.24,1s-.78.76-1.15,1.17a16.4,16.4,0,0,0-1,1.29c-.33.45-.64.92-.93,1.4s-.56,1-.81,1.5a17.08,17.08,0,0,0-.68,1.58c-.21.57-.4,1.14-.56,1.72s-.29,1.17-.4,1.76-.19,1.2-.24,1.81-.08,1.22-.08,1.84,0,1.24.08,1.85a18.09,18.09,0,0,0,.24,1.8c.11.6.24,1.18.4,1.76s.35,1.15.56,1.72a17.08,17.08,0,0,0,.68,1.58c.25.51.52,1,.81,1.48s.6,1,.93,1.39a16.4,16.4,0,0,0,1,1.29c.37.41.76.79,1.15,1.16s.81.7,1.23,1a14.06,14.06,0,0,0,1.31.86,12.19,12.19,0,0,0,1.39.72,13.35,13.35,0,0,0,4.54,1.19,13.64,13.64,0,0,0,3.13-.09c.52-.08,1-.18,1.53-.31a13.42,13.42,0,0,0,1.48-.48,15.48,15.48,0,0,0,1.44-.65c.45-.24.9-.5,1.32-.78a12.56,12.56,0,0,0,1.25-.92,14.27,14.27,0,0,0,1.17-1,15.27,15.27,0,0,0,1.08-1.18,15,15,0,0,0,1-1.28c.31-.44.6-.9.87-1.37a15.37,15.37,0,0,0,.74-1.46q.34-.75.63-1.53t.51-1.65c.14-.56.27-1.12.36-1.69s.17-1.15.22-1.73.08-1.17.08-1.76,0-1.18-.08-1.76-.12-1.16-.22-1.72-.22-1.14-.36-1.69-.32-1.11-.51-1.65-.4-1-.63-1.53A14.38,14.38,0,0,0,30.17,50c-.26-.46-.55-.92-.86-1.36s-.63-.87-1-1.28a14.82,14.82,0,0,0-1.08-1.16,14.14,14.14,0,0,0-1.16-1c-.4-.32-.82-.63-1.25-.91a13.51,13.51,0,0,0-1.33-.77,15.39,15.39,0,0,0-1.44-.64,15,15,0,0,0-1.48-.47,13.17,13.17,0,0,0-1.52-.3,13.67,13.67,0,0,0-1.56-.13m0-1.7a15.09,15.09,0,0,1,6.57,1.7,17.21,17.21,0,0,1,5.27,4.25,20.14,20.14,0,0,1,3.5,6.16,22.46,22.46,0,0,1,0,14.92,20.24,20.24,0,0,1-3.5,6.18,17.31,17.31,0,0,1-5.27,4.28,15.25,15.25,0,0,1-6.57,1.75,15,15,0,0,1-6.71-1.34A17,17,0,0,1,5.22,74a19.9,19.9,0,0,1-3.81-6.3A22.42,22.42,0,0,1,1.41,52a20.1,20.1,0,0,1,3.81-6.32,17.25,17.25,0,0,1,5.58-4.15,15.08,15.08,0,0,1,6.71-1.38Z"/><path id="aeea3032-7d6f-43a2-9023-7da5e46a69d9" class="cls-3" d="M17.51,64.63,12.14,53.44l1.27-.83,4.43,9.19L36.41,40l1.13,1.2Z"/><g id="b65364ff-7d92-487e-8061-939b37583c0d"><path id="efb13e16-1633-4e88-9f48-a8cd4f1f0a11" class="cls-5" d="M213,285.56l-13.29-.05L204,320.26l9,0Z"/><path id="b5b13dc0-906f-47cb-af24-0252d232cfd5" class="cls-7" d="M215.3,329.05l-29-.16v-.36a11,11,0,0,1,.21-2.22,11.15,11.15,0,0,1,1.68-4,11.37,11.37,0,0,1,3.14-3.12,11,11,0,0,1,6.26-1.86h0l17.74.08Z"/></g><g id="b7f9c824-5877-4162-b4d5-ccd00fd098dd"><path id="a1d436e5-b88b-4a37-a10d-47f639496f81" class="cls-5" d="M170.43,285.4l-13.26,0,4.27,34.7,9,0Z"/><path id="aa34d611-dd92-4168-ad92-5f109db8b699" class="cls-7" d="M172.72,328.82l-29-.15v-.37a11.73,11.73,0,0,1,.21-2.21,11.18,11.18,0,0,1,4.81-7.15,11,11,0,0,1,6.24-1.86h0l17.7.08Z"/></g><path id="a2716e79-bed1-4374-9a2b-fced6059ca2b" class="cls-7" d="M169.86,143.38l-22.3,83.21,8.17,79.76,18.07.5-3.94-72,22.55-35.94,4.89,108.45,16.39-1.16,9.12-93.25a106,106,0,0,0,6.77-22.67,100.87,100.87,0,0,0,1.6-18.52,87.13,87.13,0,0,0-1-12.5,45.18,45.18,0,0,0-.9-4.58l-6.65-6.73Z"/><path class="cls-8" d="M199.4,157.3c-3.75,0-7.26-.12-10.45-.36a79.14,79.14,0,0,1-9.71-1.28,34.88,34.88,0,0,1-7.92-2.49,12.72,12.72,0,0,1-5.13-4l-.16-.23,6.1-39.66,6.57-44.6a12.15,12.15,0,0,1,12.4-10.38l20.59.63a11.52,11.52,0,0,1,11.17,11.88c0,.12,0,.23,0,.35l-2.71,44.35,10,43.75-.7.1c-.29,0-1.38.18-3.1.37-2.24.26-4.52.48-6.79.68-3.21.28-6.36.49-9.34.65C206.39,157.2,202.76,157.29,199.4,157.3Z"/><path id="ad5d6a80-02ce-46d1-bab9-e92b7dd0c553" class="cls-7" d="M188,46.37h0a3.29,3.29,0,0,1-3.29-3.29V24.73a24.62,24.62,0,0,1,1.93-9.58A24.94,24.94,0,0,1,199.71,2a24.54,24.54,0,0,1,34.21,22.52V42.88a3.32,3.32,0,0,1-2,3.06,3.49,3.49,0,0,1-1.28.27L188,46.37Z"/><path id="b726e025-86c8-4394-a2c8-021cc2286f1b" class="cls-5" d="M220.42,18.43A18.09,18.09,0,0,1,199.5,44.49a17.88,17.88,0,0,1-10.76-8.62,18.08,18.08,0,0,1,31.68-17.44Z"/><path id="f57fd208-21ef-4a3c-a796-e350b3c4ef74" class="cls-7" d="M178.86,26.22a19.47,19.47,0,0,1,1.53-7.57,19.55,19.55,0,0,1,17.92-12h3.8A19.35,19.35,0,0,1,221.46,26v.37l-7.77,0L211.05,19l-.53,7.42-4,0-1.33-3.74-.27,3.74-26,.12Z"/><path id="a4aedf3a-b803-468c-96e6-3db664c8a6b9" class="cls-5" d="M147.58,64.82a8.53,8.53,0,0,0-3.28,1.61,8.38,8.38,0,0,0-1.9,2.13A8.65,8.65,0,0,0,141.15,74a8.29,8.29,0,0,0,.76,2.75,8.45,8.45,0,0,0,11.23,4,9.42,9.42,0,0,0,.88-.49l.23-.15.21-.15.21-.15.2-.17,42.88,15.26a6.46,6.46,0,0,0,7.41-2.31l10.16-14.08L203,70.25l-6.44,7.33-39.24-7.81-.14-.3c0-.1-.09-.2-.14-.3s-.1-.2-.16-.3a2.75,2.75,0,0,0-.17-.29A8.43,8.43,0,0,0,147.58,64.82Z"/><path id="f92404ba-5ab9-4b2c-8e33-361dae08dca6" class="cls-8" d="M197.28,73c1.28-1.6,3.07-3.67,4.9-5.74s3.67-4.1,5.06-5.63L209.57,59a10.11,10.11,0,0,1,18.36,7.45,10,10,0,0,1-1.51,3.7S225,72,222.91,74.75s-4.94,6.37-7.78,10S209.4,92,207.18,94.6s-3.78,4.37-4,4.23l-7.74-23C195.22,75.68,196,74.56,197.28,73Z"/><path id="ed7e3964-87ca-4ccc-8578-c3f29353ddd2" class="cls-7" d="M201.87,45.79a3.28,3.28,0,0,0,.14,1.78,3.15,3.15,0,0,0,.43.81A3.71,3.71,0,0,0,203,49a3.24,3.24,0,0,0,2.13.77h.29l.15,0,.15,0,2.75-.5,3.8-8.12V48.5l12.54-2.26V14.7l-21,.1.52.6a14.39,14.39,0,0,1,3.27,7.11,23.48,23.48,0,0,1-.15,8,41.69,41.69,0,0,1-2.24,7.83,63.41,63.41,0,0,1-3,6.56A3,3,0,0,0,201.87,45.79Z"/><path class="cls-9" d="M56.28,330H316.1a.68.68,0,1,0,0-1.36H56.28a.68.68,0,0,0-.69.67.69.69,0,0,0,.68.69Z"/></svg>