<svg id="Layer_1" data-name="Layer 1" xmlns="http://www.w3.org/2000/svg" viewBox="0 0 465.85 330"><defs><style>.cls-1{fill:#fff;}.cls-2{fill:#3f3d56;}.cls-3{fill:#ee4693;}.cls-4{fill:#e6e6e6;}.cls-5{fill:#10c0e8;}.cls-6{fill:#9f616a;}.cls-7{fill:#2f2e41;}.cls-8{fill:#ccc;}</style></defs><title>Artboard 32</title><path class="cls-1" d="M346.88,170.11H191.7a2.87,2.87,0,0,1-2.87-2.88V96.56a2.87,2.87,0,0,1,2.87-2.88H346.88a2.88,2.88,0,0,1,2.87,2.88v70.67A2.88,2.88,0,0,1,346.88,170.11Z"/><path class="cls-2" d="M346.88,170.11H191.7a2.87,2.87,0,0,1-2.87-2.88V96.56a2.87,2.87,0,0,1,2.87-2.88H346.88a2.88,2.88,0,0,1,2.87,2.88v70.67A2.88,2.88,0,0,1,346.88,170.11ZM191.7,94.83A1.74,1.74,0,0,0,190,96.56v70.67A1.74,1.74,0,0,0,191.7,169H346.88a1.72,1.72,0,0,0,1.72-1.73V96.56a1.72,1.72,0,0,0-1.72-1.73Z"/><circle class="cls-3" cx="211.81" cy="115.8" r="12.07"/><path class="cls-4" d="M239.69,107.76a2,2,0,1,0,0,4h94.83a2,2,0,0,0,0-4Z"/><path class="cls-4" d="M239.69,119.83a2,2,0,1,0,0,4H280.5a2,2,0,0,0,0-4Z"/><path class="cls-4" d="M202.56,139.12c-1.53,0-2.78.9-2.78,2s1.25,2,2.78,2H333.4c1.53,0,2.77-.9,2.77-2s-1.24-2-2.77-2Z"/><path class="cls-4" d="M202.56,151.19c-1.53,0-2.78.9-2.78,2s1.25,2,2.78,2H333.4c1.53,0,2.77-.9,2.77-2s-1.24-2-2.77-2Z"/><path class="cls-1" d="M463,76.43H307.8a2.89,2.89,0,0,1-2.88-2.88V2.87A2.88,2.88,0,0,1,307.8,0H463a2.88,2.88,0,0,1,2.88,2.87V73.55A2.89,2.89,0,0,1,463,76.43Z"/><path class="cls-2" d="M463,76.43H307.8a2.89,2.89,0,0,1-2.88-2.88V2.87A2.88,2.88,0,0,1,307.8,0H463a2.88,2.88,0,0,1,2.88,2.87V73.55A2.89,2.89,0,0,1,463,76.43ZM307.8,1.15a1.72,1.72,0,0,0-1.73,1.72V73.55a1.73,1.73,0,0,0,1.73,1.73H463a1.73,1.73,0,0,0,1.73-1.73V2.87A1.72,1.72,0,0,0,463,1.15Z"/><circle class="cls-5" cx="327.91" cy="22.12" r="12.07"/><path class="cls-4" d="M355.79,14.07a2,2,0,1,0,0,4h94.83a2,2,0,0,0,0-4Z"/><path class="cls-4" d="M355.79,26.14a2,2,0,1,0,0,4h40.8a2,2,0,0,0,0-4Z"/><path class="cls-4" d="M318.65,45.44c-1.53,0-2.77.9-2.77,2s1.24,2,2.77,2H449.49c1.53,0,2.78-.9,2.78-2s-1.25-2-2.78-2Z"/><path class="cls-4" d="M318.65,57.51c-1.53,0-2.77.9-2.77,2s1.24,2,2.77,2H449.49c1.53,0,2.78-.9,2.78-2s-1.25-2-2.78-2Z"/><path class="cls-1" d="M463,263.79H307.8a2.88,2.88,0,0,1-2.88-2.87V190.24a2.89,2.89,0,0,1,2.88-2.88H463a2.89,2.89,0,0,1,2.88,2.88v70.68A2.88,2.88,0,0,1,463,263.79Z"/><path class="cls-2" d="M463,263.79H307.8a2.88,2.88,0,0,1-2.88-2.87V190.24a2.89,2.89,0,0,1,2.88-2.88H463a2.89,2.89,0,0,1,2.88,2.88v70.68A2.88,2.88,0,0,1,463,263.79ZM307.8,188.51a1.73,1.73,0,0,0-1.73,1.73v70.68a1.72,1.72,0,0,0,1.73,1.72H463a1.72,1.72,0,0,0,1.73-1.72V190.24a1.73,1.73,0,0,0-1.73-1.73Z"/><circle class="cls-3" cx="327.91" cy="209.48" r="12.07"/><path class="cls-4" d="M355.79,201.44a2,2,0,1,0,0,4h94.83a2,2,0,0,0,0-4Z"/><path class="cls-4" d="M355.79,213.51a2,2,0,1,0,0,4h40.8a2,2,0,1,0,0-4Z"/><path class="cls-4" d="M318.65,232.8c-1.53,0-2.77.91-2.77,2s1.24,2,2.77,2H449.49c1.53,0,2.78-.91,2.78-2s-1.25-2-2.78-2Z"/><path class="cls-4" d="M318.65,244.87c-1.53,0-2.77.91-2.77,2s1.24,2,2.77,2H449.49c1.53,0,2.78-.91,2.78-2s-1.25-2-2.78-2Z"/><polygon class="cls-6" points="149.64 321.85 157.34 319.61 152.38 288.87 141.02 292.17 149.64 321.85"/><path class="cls-7" d="M174.25,322.45l-24.18,7h0l-2.71-9.34h0l16-4.64a8.55,8.55,0,0,1,10.6,5.83l.33,1.13Z"/><polygon class="cls-6" points="70.14 322.03 78.15 322.03 81.96 291.13 70.14 291.13 70.14 322.03"/><path class="cls-7" d="M93.6,329.47H68.42v-9.73H85a8.56,8.56,0,0,1,8.56,8.56v1.17Z"/><path class="cls-6" d="M89,214.46a6.57,6.57,0,0,0-.89-9.25,7,7,0,0,0-1-.65l4.16-23-11.15,4.77-2.24,21.09a6.6,6.6,0,0,0,11.08,7Z"/><path class="cls-3" d="M78.31,200.47l11,2.23,5.09-37.09v0l16.12-36.11s2-6.19-.13-10.17a5.93,5.93,0,0,0-3.67-3c-7.09-2.18-10.35,3-10.62,3.41L83,159.45Z"/><path class="cls-7" d="M140,315.8l-13.13-58.43-18.57-39.06L88.2,314.44l-30-3.34L85.71,209.57c-.42-1.55-6.44-24.73,11.82-36.78l3.16-10.61,27.11,6.32-.33,25.33,22.84,52.22L170,306.47Z"/><path class="cls-3" d="M128.76,172l-28-2.66.67-17.18c-1-1.79-14.18-25.82-5.49-34.56l2.63-4,.06,0c.11-.06,10.78-5.87,20,6a79.78,79.78,0,0,0,6.76,7.48c5.9,6,9.79,9.89,4.4,20.22Z"/><circle class="cls-6" cx="112.45" cy="92.44" r="16.05"/><path class="cls-6" d="M119.08,213.57a6.59,6.59,0,0,0-3.2-8.73,7.08,7.08,0,0,0-1.09-.39L113,181.17l-9.59,7.44,3.17,21a6.61,6.61,0,0,0,12.5,4Z"/><path class="cls-3" d="M104.72,203.34l-5.93-41.46L101.42,120c0-.07,1.94-6.78,10-6.43a6.54,6.54,0,0,1,4.7,2.15c3.18,3.51,2.86,10,2.84,10.25l-6.45,39,4.53,37.7Z"/><path class="cls-7" d="M133.52,80.15c-.57-3.3-3.32-5.9-6.4-7.2s-6.51-1.54-9.85-1.73a53.06,53.06,0,0,0-8.55,0,4,4,0,0,0,.76-1.68,2.91,2.91,0,0,0-2-3.33,6.45,6.45,0,0,0-3.09.51,3.12,3.12,0,0,1-3-.29c-.87-.81-.66-2.27-1.4-3.19a2.75,2.75,0,0,0-3.09-.57,8.16,8.16,0,0,0-2.69,2l-1,1L93,65.47c-2.52-2-3.77-4.88-2.34-7.32A7.43,7.43,0,0,0,91,66.21a8.23,8.23,0,0,0,.72.93l-1.5,1.48c-.77.76-1.6,1.71-1.4,2.75a2.31,2.31,0,0,0,2.66,1.52A6,6,0,0,0,94,71.71a7.18,7.18,0,0,0-2.38,2.83,3.87,3.87,0,0,0,.42,4,3.66,3.66,0,0,0,2.43,1.18,18.8,18.8,0,0,0-3.09,7.92,19.51,19.51,0,0,0,8.89,18.79,10.68,10.68,0,0,0,5.69,1.81,5.72,5.72,0,0,0,5-2.85c1-1.88.51-4.12.12-6.19s-.66-4.39.55-6.11,4.49-1.83,5,.21a10.65,10.65,0,0,1,11.27-5.08l.87,1.41C132.15,89.37,134.09,83.46,133.52,80.15Z"/><path class="cls-8" d="M219.55,330H.57a.58.58,0,0,1,0-1.15h219a.58.58,0,0,1,0,1.15Z"/></svg>