<svg id="Layer_1" data-name="Layer 1" xmlns="http://www.w3.org/2000/svg" viewBox="0 0 454.66 330"><defs><style>.cls-1{fill:#f2f2f2;}.cls-2{fill:#2f2e41;}.cls-3{fill:#ffb9b9;}.cls-4{opacity:0.1;}.cls-4,.cls-6,.cls-8{isolation:isolate;}.cls-5{fill:#575a89;}.cls-6,.cls-8{opacity:0.2;}.cls-7{fill:#10c0e8;}.cls-15,.cls-16,.cls-8,.cls-9{fill:none;}.cls-8{stroke:#000;}.cls-8,.cls-9{stroke-miterlimit:10;stroke-width:0.83px;}.cls-15,.cls-16,.cls-9{stroke:#3f3d56;}.cls-10{fill:#3f3d56;}.cls-11{fill:#ee4693;}.cls-12{fill:#9f616a;}.cls-13{fill:#d0cde1;}.cls-14{fill:#57b894;}.cls-15{stroke-miterlimit:10;stroke-width:0.83px;}.cls-16{stroke-miterlimit:10;stroke-width:0.83px;}</style></defs><title>Artboard 51</title><circle class="cls-1" cx="194.85" cy="154.31" r="154.31"/><ellipse class="cls-1" cx="61.23" cy="320.2" rx="61.23" ry="9.8"/><ellipse class="cls-1" cx="359.92" cy="304.88" rx="94.74" ry="15.16"/><path class="cls-2" d="M338.87,159.19s.81,2.68-3.76,5.1-5.92,11.56-.54,14.25,7,6.19,4.3,8.61-7.53,8.87-1.08,10.48,7.26,4.84,5.38,6.18,4.3-2.41,4.3-2.41,1.08,6.45,6.72,4.83S375.7,174,367.64,169.67,338.87,159.19,338.87,159.19Z"/><path class="cls-3" d="M348.61,185.15s2.79,9.76-2.09,10.45a19.06,19.06,0,0,0-8.36,3.49l9.06,11.85H364l10.46-10.46S360.47,190,363.26,183.75,348.61,185.15,348.61,185.15Z"/><path class="cls-4" d="M348.61,185.15s2.79,9.76-2.09,10.45a19.06,19.06,0,0,0-8.36,3.49l9.06,11.85H364l10.46-10.46S360.47,190,363.26,183.75,348.61,185.15,348.61,185.15Z"/><polygon class="cls-3" points="352.8 306.46 368.83 312.04 379.99 312.74 379.29 302.97 356.28 296.17 352.8 306.46"/><path class="cls-5" d="M373.37,304.37s0,9.76,1.39,9.76,20.22-2.09,25.8,0,13.94-5.58,9.76-9.76-11-10.46-15.27-9.07-21.68,4.88-21.68,4.88Z"/><path class="cls-5" d="M322.12,295.3s-8.37,16.74-2.79,18.13,11.85-.7,12.55-1.39,10.46-3.49,11.85-2.09,1.4-5.58,1.4-5.58Z"/><path class="cls-2" d="M329.09,272.3s-13.24,18.12-3.48,23,56.47,4.88,60,0,4.88-20.21,0-21.61S329.09,272.3,329.09,272.3Z"/><path class="cls-6" d="M329.09,272.3s-13.24,18.12-3.48,23,56.47,4.88,60,0,4.88-20.21,0-21.61S329.09,272.3,329.09,272.3Z"/><circle class="cls-3" cx="354.19" cy="173.99" r="16.04"/><path class="cls-7" d="M329.09,199.09l14-2.79s3.48,11.16,14.64,9.06,13.94-9.06,13.94-9.06,8.37,3.49,9.07,3.49,9.76,3.48,9.76,5.57-10.46,23-10.46,23L381.38,266l-51.59-1.39,3.49-36.95Z"/><path class="cls-3" d="M321.42,217.22S317.24,254.17,320,257,334,267.42,334,267.42v-8.37l-5.57-10.46,5.57-24.4Z"/><path class="cls-3" d="M393.58,216.17s-2.44,38-2.44,39.39-6.27,6.28-8.36,6.28-3.49-3.49-3.49-3.49l4.88-5.58-3.48-28.58Z"/><path class="cls-2" d="M387,269.51s31.37-17.43,32.07,0-16,24.4-16,24.4-43.23,13-45,8.22-5.23-12.4-2.44-13.1,6.27-2.09,7.67-.7,18.82-10.46,18.82-10.46Z"/><path class="cls-8" d="M401.6,267.42s-6.27,2.79-8.36,4.88-11.16,5.57-11.16,5.57"/><path class="cls-7" d="M333.28,200.48l-4.19-1.39s-15.34,16-10.46,20.22,7.67,5.58,9.07,7,8.36,2.09,8.36,2.09Z"/><path class="cls-7" d="M384.17,204l6.28,1.39s4.88,10.46,6.27,11.86-2.09.69-4.18,3.48-4.18,7.67-8.37,7.67-9.76-7-9.76-7Z"/><path class="cls-2" d="M330.49,275.78S304,257,294.93,270.9s39,32.77,46,35.56S354.19,312,354.19,312s6.28-15.34,6.28-18.13-4.88-2.79-6.28-2.79-7.67-1.39-9.06-3.48S330.49,275.78,330.49,275.78Z"/><path class="cls-8" d="M315.85,270.9s7,5.58,13.24,7,8.37,4.88,8.37,4.88"/><path class="cls-5" d="M325.68,244.69l.55,29.52a3.69,3.69,0,0,0,3.74,3.62l54.94-.61a3.7,3.7,0,0,0,3.64-3.49l1.67-28.9a3.69,3.69,0,0,0-3.48-3.9H329.37a3.7,3.7,0,0,0-3.69,3.7Z"/><path class="cls-2" d="M355.05,153.85s.89,3-4.17,5.66-6.55,12.8-.6,15.78,7.75,6.85,4.77,9.53-8.34,9.83-1.19,11.62,8,5.36,5.95,6.85,4.77-2.68,4.77-2.68,1.19,7.14,7.45,5.36,12.49-34.27,5.52-42.64C371.07,155.55,355.05,153.85,355.05,153.85Z"/><path class="cls-2" d="M353.15,150.78c0-4.36,13.05-1.23,18.65,4.87,3.87,4.21,9.76,10.56,4.83,15s8.45,10.33,12.05,12.11S399.36,190,393,193.67s-6.29,7.33-3.88,8.2-5.32-1.3-5.32-1.3.78,7.21-5.72,7.17S352.86,172,357.32,162C361.47,152.78,353.15,150.78,353.15,150.78Z"/><path class="cls-2" d="M356,149.82c-17.45-1-19.21,12.09-19.21,12.09.13,7.61,12.2,3.9,15.56,5,4-2.91,11.84-8.42,17.42-12.35A26.43,26.43,0,0,0,356,149.82Z"/><path class="cls-9" d="M351,233.68s-15.66-73.39-113.67-126.63"/><polygon class="cls-10" points="241.37 105.45 241.56 106.25 237.6 107.21 238.85 111.1 238.06 111.35 236.54 106.62 241.37 105.45"/><path class="cls-11" d="M28.33,308.67c0,9.29-5.53,12.54-12.34,12.54h-.48l-.94,0c-6.15-.44-10.93-3.85-10.93-12.49,0-8.95,11.44-20.24,12.29-21.07h0l.05,0S28.33,299.37,28.33,308.67Z"/><path class="cls-10" d="M15.54,319.78l4.51-6.3-4.53,7v.72l-.94,0,.49-9.3v-.09l0-.88-4.54-7,4.56,6.36v.18l.36-7-3.88-7.26,3.93,6,.38-14.56v0l-.07,11.49,3.87-4.55-3.88,5.54-.11,6.29,3.61-6-3.62,7-.06,3.5,5.24-8.41L15.66,312Z"/><path class="cls-2" d="M87.2,306.26l2.64-2s1.74,9.76-.21,11.22-9.26,3.9-9.26,6.83-16.57,6.82-17.06,2.43A9.66,9.66,0,0,1,64.77,318s7.8-7.8,8.78-9.26S77,304.31,77,304.31Z"/><path class="cls-2" d="M48.19,184.86s.08.43.2,1.22.28,1.68.48,2.89c2,12.5,8,49.28,7.61,50.5-.49,1.46-3.9,6.82,0,8.28a3.07,3.07,0,0,1,1.22,1.33,29.29,29.29,0,0,1,2.06,4.86A215.41,215.41,0,0,1,66,279c.63,3.28,1.06,5.92,1.18,7.31a3.86,3.86,0,0,1,0,1c-.49,1.95,2.92,8.78,4.39,10.73s3.9,3.9,3.41,5.85,12.19,7.31,13.65,3.9,1.46-5.36,2-6.34,1-7.8-1.46-8.77-1-18-3.42-21.45c-.81-1.14-2-5-3.35-9.61-.52-1.82-1-3.75-1.54-5.68C78.78,247.93,77,240,77,240l.49-57L50.63,179.5,49.94,181l-1.37,3Z"/><path class="cls-2" d="M46.73,278.47s-3.9-3.9-5.85,0-3.9,19-7.31,22.43-7.8,20.47-2.93,21.45,10.24-1.47,10.73-4.39,10.72-18,10.72-19.5-6.82-6.83-6.82-6.83Z"/><path class="cls-2" d="M106.7,158.05s-6.34,57-7.8,62.4-9.27,25.84-11.7,29.25-18,31.21-20,32.67-5.85,5.36-5.85,5.36S54,295,53.07,296.51s-9.26-2.93-9.75-5.85.49-7.8,1-9.75-1-4.88.49-6.34,8.78-8.78,8.78-12.19S66.23,239,71.11,234.59s3.9-11.7,3.9-11.7V193.15l-26.82-8.29s1.47-23.4,4.88-23.4S101.34,153.66,106.7,158.05Z"/><circle class="cls-12" cx="67.21" cy="60.54" r="16.09"/><path class="cls-12" d="M72.57,73.22s2,7.31,4.39,9.26-6.34,10.24-6.34,10.24L54,93.7l-2.92-9.27S56.48,73.71,55,66.88,72.57,73.22,72.57,73.22Z"/><path class="cls-11" d="M79.4,81.51S75,82,74,83.46s-7.8,5.85-13.16,4.87-8.78-2.44-9.75-2-2.93,10.73-2.93,10.73l5.37,15.6-1,42.9-1.46,11.7s-2.93-3.9,8.78-1.46,26.81-1.95,31.68-2.44,13.17-1.95,13.66-4.87-1.47-13.65-1.47-13.65L96,112.22,91.1,94.67Z"/><path class="cls-13" d="M74.78,79.31s4.13-2.19,5.59-.24,20,4.87,20,6.34,3.9,41,2.93,44.36,1.95,7.32,1.95,7.32l3.41,14.62s9.26,27.79,5.36,28.77-7.31,0-8.77,0-1-18.53-4.88-23.41S91.1,140,90.12,137.57,77,101.5,77.45,97.6,74.78,79.31,74.78,79.31Z"/><path class="cls-13" d="M54.53,81.51s-3.9,0-4.39,1-5.36,7.32-7.31,8.78-8.77,7.8-8.77,9.26,14.13,12.19,14.13,12.19,5.85,28.76,2.93,38.51-7.31,33.16-5.36,34.62,6.33,1.95,6.33,0,2.93-22.92,5.37-27.3,9.75-32.18,6.82-40S54.53,81.51,54.53,81.51Z"/><path class="cls-12" d="M118.89,129.77s.48,15.12-4.88,22.92a92.67,92.67,0,0,0-8.77,16.57S96.46,166.82,95,163.9s-10.73-.49-10.73-1.46,11.21-5.85,12.19-6.83,4.39-1,6.34-2.92,2.44-6.34,2.44-6.34l2-12.68Z"/><path class="cls-2" d="M78.29,50.62a9.25,9.25,0,0,0,3.61-.82,4.83,4.83,0,0,0,1.23-7.16,9.43,9.43,0,0,0-1.71-1.37l-3.71-2.53A18,18,0,0,0,72.48,36a16.21,16.21,0,0,0-5.34-.32A36.23,36.23,0,0,0,56.9,37.51a17.17,17.17,0,0,0-8.3,6.07c-3.13,4.54-3.18,10.67-1.45,15.91s5,9.8,8.25,14.28l1.68-8.19a3,3,0,0,1,1-2c1.5-1.08,3.35,1.13,5.2,1.11a3.12,3.12,0,0,0,2.64-2.09,11.72,11.72,0,0,0,.58-3.5c.22-2.51,1.1-6,3.47-7.38C72.14,50.47,75.8,50.85,78.29,50.62Z"/><path class="cls-4" d="M77.39,185.26s-1.65,47.62-2.63,49.09,0-49.24,0-49.24Z"/><path class="cls-13" d="M96.46,85.41h3.9S116.94,107.83,115,109.3s0,5.36,0,5.36l3.9,7.31s4.87,4.39,3.41,5.36-3.41,4.88-3.41,4.88-9.75-1.46-12.68,4.39l-6.32-8Z"/><rect class="cls-2" x="89.06" y="94.36" width="14.48" height="26.98" transform="translate(-33.88 44.92) rotate(-22.44)"/><ellipse class="cls-11" cx="95.25" cy="104.79" rx="2.9" ry="2.66" transform="translate(-32.78 44.29) rotate(-22.44)"/><path class="cls-12" d="M86.71,124.41s-35.1,29.25-40.95,20,6.33-17.07,6.33-17.07S62.82,127.82,75,120l12.19-5.36s11.12-15.89,14.92-9.84S95.64,121.4,86.71,124.41Z"/><path class="cls-13" d="M39.42,98.57l-5.36,2v14.63l-2,2.92s.48,5.85,2,7.31,4.38,1,3.41,4.39A18.5,18.5,0,0,0,37,136.6s8.78,11.21,9.26,9.75,7.32-19.5,8.29-19.5-9.75-28.28-9.75-28.28Z"/><path class="cls-2" d="M103.53,172.43s5-4.87,2.52-5.12-11.3-5.12-12.76-2.68S103.53,172.43,103.53,172.43Z"/><ellipse class="cls-14" cx="199.4" cy="75.71" rx="7.03" ry="3.72"/><path class="cls-9" d="M226.29,88.12a65.21,65.21,0,0,0-47.57,0V68.67a82.34,82.34,0,0,1,47.57,0Z"/><path class="cls-9" d="M219.67,84.1a47,47,0,0,0-34.33,0v-14a59.55,59.55,0,0,1,34.33,0Z"/><ellipse class="cls-9" cx="201.89" cy="74.05" rx="7.03" ry="3.72"/><ellipse class="cls-14" cx="203.83" cy="99.1" rx="7.03" ry="3.72" transform="translate(-15.7 42.76) rotate(-11.54)"/><path class="cls-9" d="M232.66,105.88A65.28,65.28,0,0,0,186,115.4l-3.88-19.05a82.34,82.34,0,0,1,46.61-9.52Z"/><path class="cls-9" d="M225.37,103.27a47.07,47.07,0,0,0-33.64,6.86l-2.81-13.75a59.42,59.42,0,0,1,33.64-6.86Z"/><ellipse class="cls-15" cx="205.93" cy="96.98" rx="7.03" ry="3.72" transform="translate(-15.23 43.14) rotate(-11.54)"/><ellipse class="cls-14" cx="202.37" cy="122.24" rx="3.72" ry="7.03" transform="translate(66.38 315.64) rotate(-86.02)"/><path class="cls-9" d="M228.34,136.49a65.2,65.2,0,0,0-47.47-3.3l1.35-19.4a82.45,82.45,0,0,1,47.47,3.3Z"/><path class="cls-9" d="M222,132a47,47,0,0,0-34.25-2.38l1-14A59.37,59.37,0,0,1,223,118Z"/><ellipse class="cls-16" cx="204.96" cy="120.76" rx="3.72" ry="7.03" transform="translate(70.26 316.85) rotate(-86.02)"/><path class="cls-9" d="M171.65,88.57s-30.4-4.16-52.12,8.56"/><polygon class="cls-10" points="120.27 92.86 121.06 93.11 119.82 97 123.79 97.94 123.6 98.75 118.76 97.59 120.27 92.86"/></svg>