<svg id="Layer_1" data-name="Layer 1" xmlns="http://www.w3.org/2000/svg" viewBox="0 0 481.57 303.59"><defs><style>.cls-1{fill:#3f3d56;}.cls-2{fill:#ee4693;}.cls-3{fill:#f2f2f2;}.cls-4{fill:#2f2e41;}.cls-5{fill:#fbbebe;}.cls-6{fill:#10c0e8;}.cls-7{opacity:0.4;isolation:isolate;}</style></defs><title>Artboard 42</title><rect class="cls-1" y="242.56" width="481.57" height="0.93"/><rect class="cls-2" x="256.9" y="104.3" width="179.36" height="171.89"/><rect class="cls-1" x="243.82" y="275.72" width="221.87" height="0.93"/><rect class="cls-3" x="310.99" y="168.15" width="51.45" height="59.94"/><path class="cls-1" d="M382.43,228.59H310.49V156.66h71.94Zm-70.94-1h69.94V157.66H311.49Z"/><rect class="cls-1" x="325.48" y="177.64" width="43.96" height="1"/><rect class="cls-1" x="325.48" y="188.63" width="43.96" height="1"/><rect class="cls-1" x="325.48" y="199.62" width="43.96" height="1"/><rect class="cls-1" x="205.73" y="34.7" width="213.71" height="0.93"/><rect class="cls-1" x="44.84" y="188.38" width="117.24" height="0.93"/><rect class="cls-2" x="6.07" y="73.47" width="168.62" height="104.16"/><rect class="cls-3" x="28.49" y="105.16" width="103.69" height="51.46"/><path class="cls-1" d="M153.2,157.08H28V94.49H153.2ZM29,156.15H152.27V95.42H29Z"/><rect class="cls-1" x="46.72" y="120.61" width="67.23" height="0.93"/><rect class="cls-1" x="46.72" y="130.42" width="67.23" height="0.93"/><rect class="cls-1" x="46.72" y="140.23" width="67.23" height="0.93"/><path class="cls-4" d="M218.24,71.42c-5.42-9.16-16.14-9.59-16.14-9.59s-10.46-1.34-17.16,12.61c-6.25,13-14.87,25.56-1.39,28.61L186,95.47l1.51,8.14a52.87,52.87,0,0,0,5.77.1c14.44-.46,28.19.14,27.75-5C220.43,91.78,223.46,80.23,218.24,71.42Z"/><path class="cls-5" d="M198.72,88.67s7,9.81,2.8,17.75,9.81,16.35,9.81,16.35l10.28-22.42s-12.15-7.95-8.88-15.42Z"/><circle class="cls-5" cx="203.39" cy="80.73" r="12.14"/><path class="cls-5" d="M161.36,94.77l10.15-13.1s3.57-13.72,8.75-13-2,16.46-2,16.46L168.13,99.6Z"/><polygon class="cls-5" points="212.73 268.96 216 286.25 223.01 288.11 221.14 267.56 212.73 268.96"/><polygon class="cls-5" points="283.26 250.28 295.87 267.56 301.01 269.9 305.21 262.89 292.6 246.54 283.26 250.28"/><path class="cls-6" d="M209.93,115.29,202.14,105s-15.1,2.78-16.5,4.18,3.74,27.09,3.74,27.09.93,7,5.14,10.74l4.2,2.81,34.56-7,1.3-15.38a40.32,40.32,0,0,0-10.64-30.86h0l-6,.82Z"/><path class="cls-6" d="M187.51,110.15l-2.34-.93-10.74-.93s-3.74-.94-2.8-2.81,1.87-2.33,0-2.8-2.34-.93-1.87-2.33S173,96.14,173,96.14l-7.94-6.54s-.43.31-1.13.87c-3.94,3.19-16.41,14.71-7.28,26.22,10.74,13.55,23.36,21.49,33.63,18.69Z"/><path class="cls-4" d="M197.79,147.52v6.54S193.58,162,195,169.47s1.87,11.21,1.87,11.21a63.88,63.88,0,0,0,3.27,18.69c3.27,9.34-7.47,70.53,6.07,71.46s21,1.87,25.23-2.8-7-85-7-85,38.3,79.87,46.24,76.6,28-10.74,25.69-15-61.19-97.62-61.19-97.62l-1.87-4.2Z"/><path class="cls-4" d="M220.21,283s-7.48-.47-7.48,1.86S209,295.12,209,295.12s-2.81,9.34,4.67,8.41,12.14-9.34,12.14-9.34l-1.87-8.88Z"/><path class="cls-4" d="M298.21,266.63s-6.54-4.21-6.07-1.4.93,10.27,4.2,10.74,13.08,3.27,13.55,4.2,11.67,4.67,11.67-1.4-7-10.74-7-10.74L306.62,262s-5.14-.47-6.08,2.8S298.21,266.63,298.21,266.63Z"/><circle class="cls-4" cx="203.41" cy="61.88" r="7.76"/><path class="cls-4" d="M194.84,59.83a7.76,7.76,0,0,1,6.94-7.71,7.63,7.63,0,0,0-.82,0,7.76,7.76,0,0,0,0,15.51h0a7.63,7.63,0,0,0,.82,0A7.76,7.76,0,0,1,194.84,59.83Z"/><polygon class="cls-4" points="215.85 70.53 205.25 64.98 190.62 67.25 187.59 80.63 195.13 80.34 197.23 75.42 197.23 80.25 200.71 80.12 202.73 72.3 203.99 80.63 216.35 80.37 215.85 70.53"/><path class="cls-5" d="M215.21,148.6l-16.34.44s-13.94,2.72-13.16-2.91,14.38-3.66,14.38-3.66L215,140.2Z"/><path class="cls-6" d="M228.14,95.82A3.49,3.49,0,0,1,232,98.21c3.2,10.08,13,43.82,3.26,48.45-11.53,5.45-19.95,5.21-19.95,5.21l-4.5-11.09,4.1-3.85,4.38-28.15,2.09-11.94Z"/><polygon class="cls-7" points="225.11 114.59 223.24 133.28 206.89 140.28 225.11 136.08 225.11 114.59"/><path class="cls-2" d="M122.08,226.57c-2.65,9.82-11.75,15.9-11.75,15.9s-4.79-9.84-2.13-19.66S120,206.92,120,206.92,124.74,216.75,122.08,226.57Z"/><path class="cls-2" d="M97.92,226.57c2.66,9.82,11.75,15.9,11.75,15.9s4.79-9.84,2.14-19.66-11.75-15.89-11.75-15.89S95.27,216.75,97.92,226.57Z"/><path class="cls-1" d="M101.83,224.46c7.28,7.09,8.17,18,8.17,18s-10.92-.6-18.21-7.69-8.17-18-8.17-18S94.54,217.37,101.83,224.46Z"/><path class="cls-1" d="M118.18,224.46c-7.29,7.09-8.18,18-8.18,18s10.93-.6,18.21-7.69,8.18-18,8.18-18S125.47,217.37,118.18,224.46Z"/><path class="cls-2" d="M322.46,19.65c-2.65,9.82-11.75,15.9-11.75,15.9s-4.79-9.84-2.13-19.65S320.33,0,320.33,0,325.12,9.84,322.46,19.65Z"/><path class="cls-2" d="M298.3,19.65c2.66,9.82,11.75,15.9,11.75,15.9s4.79-9.84,2.14-19.65S300.44,0,300.44,0,295.65,9.84,298.3,19.65Z"/><path class="cls-1" d="M302.21,17.54c7.28,7.1,8.17,18,8.17,18s-10.92-.6-18.21-7.69-8.17-18-8.17-18S294.92,10.45,302.21,17.54Z"/><path class="cls-1" d="M318.56,17.54c-7.29,7.1-8.18,18-8.18,18s10.93-.6,18.21-7.69,8.18-18,8.18-18S325.85,10.45,318.56,17.54Z"/></svg>