<svg id="Layer_1" data-name="Layer 1" xmlns="http://www.w3.org/2000/svg" viewBox="0 0 520.99 330"><defs><style>.cls-1{fill:#3f3d56;}.cls-2{fill:#ee4693;}.cls-3{fill:#e6e6e6;}.cls-4{fill:#10c0e8;}.cls-5{fill:#ff6584;}.cls-6{fill:#a0616a;}.cls-7{fill:#2f2e41;}.cls-8{fill:#ccc;}</style></defs><title>Artboard 48</title><path class="cls-1" d="M517.08,216.14H315.94a3.94,3.94,0,0,1-3.91-3.91V3.91A3.92,3.92,0,0,1,315.94,0H517.08A3.92,3.92,0,0,1,521,3.91V212.23A3.94,3.94,0,0,1,517.08,216.14ZM315.94,1.36a2.55,2.55,0,0,0-2.54,2.55V212.23a2.54,2.54,0,0,0,2.54,2.54H517.08a2.54,2.54,0,0,0,2.54-2.54V3.91a2.55,2.55,0,0,0-2.54-2.55Z"/><path class="cls-2" d="M454.42,87.55A43.11,43.11,0,1,1,416.51,65h1l-.45-18.41h-.57a61.5,61.5,0,1,0,52.74,29.85Z"/><path class="cls-3" d="M454.42,87.55l14.83-11.14a61.47,61.47,0,0,0-52.17-29.84L417.53,65A43.1,43.1,0,0,1,454.42,87.55Z"/><rect class="cls-1" x="457.7" y="156.8" width="1.07" height="30.69" transform="translate(11.55 372.35) rotate(-44.73)"/><rect class="cls-1" x="439.3" y="40.51" width="30.69" height="1.07" transform="translate(196.44 417.5) rotate(-60.71)"/><path class="cls-2" d="M485.2,191.47H453.32a2.15,2.15,0,0,1-2.13-2.14v-4.49a2.14,2.14,0,0,1,2.13-2.14H485.2a2.14,2.14,0,0,1,2.14,2.14v4.49A2.15,2.15,0,0,1,485.2,191.47Z"/><path class="cls-3" d="M477.12,28.05H445.24a2.13,2.13,0,0,1-2.13-2.14V21.42a2.14,2.14,0,0,1,2.13-2.14h31.88a2.16,2.16,0,0,1,2.14,2.14v4.49A2.15,2.15,0,0,1,477.12,28.05Z"/><path class="cls-1" d="M279.88,99.46H52.59a3.73,3.73,0,0,1-3.73-3.73V4.41A3.73,3.73,0,0,1,52.59.68H279.88a3.73,3.73,0,0,1,3.73,3.73V95.73A3.73,3.73,0,0,1,279.88,99.46ZM52.59,2.05a2.36,2.36,0,0,0-2.37,2.36V95.73a2.36,2.36,0,0,0,2.37,2.36H279.88a2.35,2.35,0,0,0,2.36-2.36V4.41a2.35,2.35,0,0,0-2.36-2.36Z"/><path class="cls-3" d="M141.19,76.79h-22a2.36,2.36,0,0,1-2.34-2,92.26,92.26,0,0,1,0-28.15,2.36,2.36,0,0,1,2.34-2h22a2.3,2.3,0,0,1,1.85.89,2.4,2.4,0,0,1,.45,2.05,56.52,56.52,0,0,0,0,26.25A2.4,2.4,0,0,1,143,75.9,2.33,2.33,0,0,1,141.19,76.79Z"/><path class="cls-3" d="M214.92,76.79h-22a2.37,2.37,0,0,1-2.34-2,92.26,92.26,0,0,1,0-28.15,2.37,2.37,0,0,1,2.34-2h22a2.32,2.32,0,0,1,1.86.89,2.4,2.4,0,0,1,.44,2.05,56.52,56.52,0,0,0,0,26.25,2.4,2.4,0,0,1-.44,2.05A2.35,2.35,0,0,1,214.92,76.79Z"/><path class="cls-2" d="M103.73,55.48h-22a2.37,2.37,0,0,1-2.34-2,92.26,92.26,0,0,1,0-28.15,2.37,2.37,0,0,1,2.34-2h22a2.33,2.33,0,0,1,1.85.89,2.4,2.4,0,0,1,.45,2.05,56.52,56.52,0,0,0,0,26.25,2.4,2.4,0,0,1-.45,2.05A2.3,2.3,0,0,1,103.73,55.48Z"/><path class="cls-4" d="M178.21,55.48h-22a2.32,2.32,0,0,1-1.85-.89,2.4,2.4,0,0,1-.44-2.05,56.52,56.52,0,0,0,0-26.25,2.4,2.4,0,0,1,.44-2.05,2.35,2.35,0,0,1,1.85-.89h22a2.37,2.37,0,0,1,2.34,2,92.89,92.89,0,0,1,0,28.15A2.37,2.37,0,0,1,178.21,55.48Z"/><path class="cls-5" d="M250.76,55.48h-22a2.32,2.32,0,0,1-1.86-.89,2.4,2.4,0,0,1-.44-2.05,56.52,56.52,0,0,0,0-26.25,2.4,2.4,0,0,1,.44-2.05,2.35,2.35,0,0,1,1.86-.89h22a2.37,2.37,0,0,1,2.34,2,92.26,92.26,0,0,1,0,28.15A2.37,2.37,0,0,1,250.76,55.48Z"/><path class="cls-6" d="M128.14,217.82a7.34,7.34,0,0,1-5.72-8.64,7.68,7.68,0,0,1,.37-1.24L92.56,143l15.34-4.31L132.82,204a7.37,7.37,0,0,1-4.68,13.86Z"/><polygon class="cls-6" points="69.6 321.38 77.96 321.38 81.94 289.14 69.6 289.14 69.6 321.38"/><path class="cls-7" d="M94.08,329.15H67.81V319H83.93a10.15,10.15,0,0,1,10.15,10.15Z"/><polygon class="cls-6" points="26.15 312.37 33.83 315.67 50.19 287.59 38.84 282.74 26.15 312.37"/><path class="cls-7" d="M45.6,329.15,21.45,318.8h0l4-9.33h0l14.82,6.35a10.16,10.16,0,0,1,5.34,13.33Z"/><circle class="cls-6" cx="90.27" cy="95.84" r="16.75"/><path class="cls-7" d="M78.17,313.5,69,311.75a3.05,3.05,0,0,1-2.48-3.33l6.1-59.49A2.39,2.39,0,0,0,68,247.74L41.38,309.9a3.06,3.06,0,0,1-4,1.61h0l-7.49-3.33a3,3,0,0,1-1.66-3.77l18.22-54.66a2.63,2.63,0,0,0,.1-.47l5.92-50a3.05,3.05,0,0,1,1.89-2.48L73,189.26a3.07,3.07,0,0,1,3.3.64l23.57,22.95a3.06,3.06,0,0,1,.87,2.8l-19,95.44a3.09,3.09,0,0,1-3,2.47A2.76,2.76,0,0,1,78.17,313.5Z"/><path class="cls-8" d="M67.68,202.08c-3.26-3.78-5.65-5.49-7.27-5.22s-2.55,2.51-3.54,4.9c-1.35,3.27-2.87,7-6.64,7.25a3.17,3.17,0,0,1-3.11-1.27c-3-4.4,4.14-19,4.79-20.28l-.33-68.91a3,3,0,0,1,1.6-2.71c19.52-10.53,45.86,7.77,50.94,11.55h0a3.07,3.07,0,0,1,1.24,2.62c-.62,11.54-3.67,69.77-3.67,82.75,0,3.6-1.24,5.88-3.69,6.79a7.3,7.3,0,0,1-2.57.43C88,220,75.74,211.41,67.68,202.08Z"/><path class="cls-8" d="M94.91,168.62a3,3,0,0,1-1.38-2.43l-1.32-30.87a8,8,0,0,1,15.48-3.19l9.89,25.92a3.08,3.08,0,0,1-1.77,4l-18.12,6.91a3,3,0,0,1-2.78-.3Z"/><path class="cls-6" d="M48.85,216.84a7.31,7.31,0,0,1-2-10.16,7.17,7.17,0,0,1,.81-1l-3.19-71.52L60.3,136l-1.84,69.81a7.36,7.36,0,0,1-9.61,11Z"/><path class="cls-8" d="M37.87,153.19a3,3,0,0,1-.43-2.76l9.77-29.31a8,8,0,0,1,15.61,2.54V151.4a3.07,3.07,0,0,1-3.07,3.07H40.36A3,3,0,0,1,37.87,153.19Z"/><path class="cls-7" d="M79.45,107.11a3.31,3.31,0,0,1-4.33-.22,29.36,29.36,0,0,1-8.15-12c-1.76-5.33-1.31-11.56,2.06-16,2.84-3.79,7.34-5.93,11.77-7.6a19.33,19.33,0,0,1,5.43-1.41,7.43,7.43,0,0,1,5.29,1.48,4.7,4.7,0,0,1,1.55,5,17.65,17.65,0,0,1,8.05-4.17,9.73,9.73,0,0,1,5.75.24c2.57,1.06,4.24,3.64,5,6.31A11.37,11.37,0,0,1,112,85a7.6,7.6,0,0,1-3.89,4.8c-2.35,1.11-5.14.69-7.6-.16S95.75,87.57,93.2,87s-5.48-.23-7.28,1.65a10.7,10.7,0,0,0-2.22,4.95l-2.36,9.23a11.51,11.51,0,0,1-1.47,3.8A2.24,2.24,0,0,1,79.45,107.11Z"/><path class="cls-2" d="M147.37,240.26h-22a2.38,2.38,0,0,1-2.34-2,93,93,0,0,1,0-28.16,2.37,2.37,0,0,1,2.34-2h22a2.38,2.38,0,0,1,2.3,2.94,56.52,56.52,0,0,0,0,26.25,2.4,2.4,0,0,1-.45,2.05A2.36,2.36,0,0,1,147.37,240.26Z"/><path class="cls-1" d="M110.45,330H.68a.68.68,0,1,1,0-1.36H110.45a.68.68,0,1,1,0,1.36Z"/></svg>