<svg id="Layer_1" data-name="Layer 1" xmlns="http://www.w3.org/2000/svg" viewBox="0 0 469.86 330"><defs><style>.cls-1,.cls-2{fill:#ee4693;}.cls-11,.cls-2{opacity:0.1;isolation:isolate;}.cls-3{fill:#e6e6e6;}.cls-4{fill:#3f3d56;}.cls-5{fill:#f2f2f2;}.cls-6{fill:#10c0e8;}.cls-7{fill:none;stroke:#3f3d56;stroke-miterlimit:10;stroke-width:0.95px;}.cls-8{fill:#fff;}.cls-9{fill:#a0616a;}.cls-10{fill:#2f2e41;}</style></defs><title>Artboard 40</title><ellipse class="cls-1" cx="73.56" cy="324.31" rx="73.56" ry="5.69"/><path class="cls-2" d="M59,13.45l-.06-.35-6-3.16H52l-.35-.69H39.35l-2.85.69H26l-2.85,3.32,0,.2c-.18,1.19-4.3,29.11,6.56,38l4.53,2.11h2.92l-.57-1.14,2.55,1.14h8.24l.14-.22,4.89-1.83.13-.15C53,50.84,63.34,38.21,59,13.45Z"/><rect class="cls-3" x="39.35" y="41.2" width="4.85" height="12.6"/><rect class="cls-4" x="37.17" y="70.04" width="8.72" height="242.35"/><rect class="cls-4" x="34.99" y="65.92" width="13.09" height="8.24"/><polygon class="cls-4" points="30.14 50.89 38.38 59.62 34.99 65.92 41.77 67.37 48.07 65.92 44.2 59.13 51.95 50.89 30.14 50.89"/><path class="cls-4" d="M23.84,13.57,20,9.69l2.91-2.9H59.71l2.9,3.39-4.36,3.39S35,12.6,23.84,13.57Z"/><path class="cls-4" d="M59,13.45l-.06-.35-6-3.16L50.22,8.49l-15.3-1-8.57,2L26,9.94l-2.85,3.32,0,.2c-.18,1.19-4.3,29.11,6.56,38l4.53,2.11L38,55.33l-.89-1.77-1.45-2.9c-1.51-8.83-4.85-32-2.72-36.88L41.75,11l7.81,2.9c.53,3.48,4,27.92-2.08,36.63l-.13.18v2.73l5-1.88.13-.15C53,50.84,63.34,38.21,59,13.45ZM51.51,50.28l-2.71,1v-.18c6.69-10,2.32-36.78,2.13-37.93l-.07-.41L43.21,9.94l-1.42-.53-1.64.53L32,12.58l-.14.25C28.7,18.42,34,49.69,34.27,51l0,.11.58,1.15-4.34-2c-9.67-8.05-6.36-33.83-6-36.38l2.61-3.06L31,9.94l4.1-1,6.74.44,8,.52h0l7.77,4.11c3.85,22.46-5,34.8-6.09,36.23Z"/><ellipse class="cls-4" cx="41.77" cy="6.79" rx="13.09" ry="6.79"/><path class="cls-4" d="M35,300l-7.76,24.72s12.12,6.79,28.6,0L48.07,300Z"/><circle class="cls-1" cx="41.77" cy="38.78" r="3.88"/><path class="cls-1" d="M184.82,181.87c2,7.57,9.06,12.26,9.06,12.26s3.69-7.59,1.65-15.16-9.07-12.26-9.07-12.26S182.77,174.3,184.82,181.87Z"/><path class="cls-3" d="M187.83,180.24c5.62,5.47,6.3,13.88,6.3,13.88s-8.42-.46-14-5.93-6.31-13.88-6.31-13.88S182.21,174.77,187.83,180.24Z"/><path class="cls-5" d="M465.28,180.37,269.26,236,448.1,135.18a179.52,179.52,0,0,0-30.4-40.7L244.18,190,389.45,71.36a177.87,177.87,0,0,0-69-27.11L240,178.58,293.29,41.83l-2.38,0A179,179,0,0,0,137.82,313.46H444a179.53,179.53,0,0,0,21.28-133.09Z"/><path class="cls-6" d="M449.89,296.75c0-15.27-7.74-27.64-17.3-27.64-6,0-11.29,4.89-14.39,12.31a8.58,8.58,0,0,0-3.31-.66,10.37,10.37,0,0,0-7.75,4c-2.79-9.26-8.72-15.64-15.59-15.64-6.41,0-12,5.58-15,13.87a9.45,9.45,0,0,0-5.92-2.22c-7.33,0-13.28,9.49-13.28,21.21a31,31,0,0,0,2.09,11.42h87A39.29,39.29,0,0,0,449.89,296.75Z"/><path class="cls-7" d="M275,111h0a66.86,66.86,0,0,1,66.86-66.87h0"/><path class="cls-1" d="M299.28,119.71c-5.35,19.8-23.7,32.06-23.7,32.06s-9.66-19.84-4.3-39.64S295,80.07,295,80.07,304.64,99.91,299.28,119.71Z"/><path class="cls-1" d="M250.56,119.71c5.36,19.8,23.7,32.06,23.7,32.06s9.66-19.84,4.31-39.64-23.7-32.06-23.7-32.06S245.2,99.91,250.56,119.71Z"/><path class="cls-4" d="M258.43,115.45c14.7,14.31,16.49,36.3,16.49,36.3s-22-1.2-36.73-15.51-16.49-36.3-16.49-36.3S243.73,101.15,258.43,115.45Z"/><path class="cls-4" d="M291.41,115.45c-14.69,14.31-16.49,36.3-16.49,36.3s22-1.2,36.73-15.51,16.49-36.3,16.49-36.3S306.11,101.15,291.41,115.45Z"/><path class="cls-1" d="M331,58.39c2.37-8.77,10.51-14.21,10.51-14.21s4.28,8.8,1.9,17.57S332.9,76,332.9,76,328.62,67.17,331,58.39Z"/><path class="cls-1" d="M352.59,58.39c-2.38-8.77-10.51-14.21-10.51-14.21s-4.28,8.8-1.91,17.57S350.68,76,350.68,76,355,67.17,352.59,58.39Z"/><path class="cls-4" d="M349.1,60.28c-6.52-6.34-7.31-16.09-7.31-16.09s9.76.53,16.28,6.88,7.31,16.08,7.31,16.08S355.61,66.62,349.1,60.28Z"/><path class="cls-4" d="M334.48,60.28c6.51-6.34,7.31-16.09,7.31-16.09s-9.77.53-16.28,6.88-7.31,16.08-7.31,16.08S328,66.62,334.48,60.28Z"/><path class="cls-4" d="M413.25,239h-8v-44.2a4.57,4.57,0,0,0-4.56-4.55H387v-38.9a4.56,4.56,0,0,0-4.56-4.56H169.72a4.56,4.56,0,0,0-4.56,4.56v38.9H151.48a4.57,4.57,0,0,0-4.56,4.55V239h-8a4.58,4.58,0,0,0-4.56,4.56V308.9a4.58,4.58,0,0,0,4.56,4.56H413.25a4.58,4.58,0,0,0,4.56-4.56V243.55A4.58,4.58,0,0,0,413.25,239Z"/><path class="cls-1" d="M373.38,225.18c-4.19,6.63-2.89,15-2.89,15s8.08-2.41,12.27-9,2.9-15,2.9-15S377.57,218.54,373.38,225.18Z"/><path class="cls-3" d="M376.62,226.29c-.23,7.84-6,14-6,14s-5.36-6.52-5.13-14.36,6-14,6-14S376.84,218.45,376.62,226.29Z"/><rect class="cls-3" x="146.92" y="238.99" width="258.35" height="4.56"/><rect class="cls-3" x="165.16" y="190.36" width="221.87" height="4.56"/><circle class="cls-1" cx="341.82" cy="79.42" r="4.56"/><polygon class="cls-6" points="195.72 185.41 315.78 151.31 333.68 214.31 325 216.77 331.61 240.05 301.72 223.38 213.61 248.41 195.72 185.41"/><path class="cls-8" d="M268.53,213.34,265.87,212c-9.49-4.77-15.73-7.84-17.32-13.42a8.26,8.26,0,0,1,5.51-10.3l.23-.07a9,9,0,0,1,7.45,1.22,9,9,0,0,1,5.7-5,8.26,8.26,0,0,1,10.27,5.57l.06.23c1.59,5.58-2.11,11.48-7.67,20.52Z"/><path class="cls-9" d="M55.44,151s-3.08,9.24-1.37,11.3-10.26-6.16-10.26-6.16l6.5-7.53Z"/><circle class="cls-10" cx="48.42" cy="135.6" r="15.37"/><polygon class="cls-9" points="108.15 255.03 100.28 261.19 95.83 254 103.7 248.53 108.15 255.03"/><path class="cls-10" d="M97,301.41l2,9.93,5.82,7.87S120.64,324,110,326.4s-13-1.72-13-1.72l-7.53-6.5v8.9H84.71l-1-12.66a10.85,10.85,0,0,1,2.4-7.88l.68-6.16Z"/><path class="cls-9" d="M57.32,178.54l2.74,15.74s29.1-3.08,31.15,2.74S94,204.55,94,204.55l-5.82,2-2.74-5.13a6.46,6.46,0,0,0-5.13.34c-2.74,1.37-26.7,4.79-28.41.34s-6.5-20.88-6.5-20.88l7.18-5.82Z"/><path class="cls-11" d="M57.32,178.54l2.74,15.74s29.1-3.08,31.15,2.74S94,204.55,94,204.55l-5.82,2-2.74-5.13a6.46,6.46,0,0,0-5.13.34c-2.74,1.37-26.7,4.79-28.41.34s-6.5-20.88-6.5-20.88l7.18-5.82Z"/><path class="cls-10" d="M73.41,224.06l2.4,8.21L82,263.76s.68,23.27,1.71,26,1,3.08,0,4.11-3.08,4.45,0,6.5,14,4.45,14.37,2.06a29.58,29.58,0,0,0,0-7.88c-.34-1.71,1-28.4,1-28.4L95,225.43l-14-6.51Z"/><path class="cls-11" d="M73.41,224.06l2.4,8.21L82,263.76s.68,23.27,1.71,26,1,3.08,0,4.11-3.08,4.45,0,6.5,14,4.45,14.37,2.06a29.58,29.58,0,0,0,0-7.88c-.34-1.71,1-28.4,1-28.4L95,225.43l-14-6.51Z"/><path class="cls-10" d="M88.13,191.88l7.53,14.38s43.12,19.17,39.36,27-24.64,22.59-24.64,22.59-1,5.82-4.11,4.11-10.61-10.62-9.93-11.64,3.08-3.42,4.11-3.08,13-8.9,13-8.9l-20.54-5.14s-24.64-.68-26-12.32,0-13.69,0-13.69l-1.71-3.76,14-8.56Z"/><path class="cls-10" d="M98.74,248.7l-7.19,6.5s-6.16-2.73-9.92-1.71a84,84,0,0,1-10.27,1.71l1,5.82,8.74-1.61-7,9.83s0,15.4,4.45,15.4,3.08-9.24,3.08-9.24l13.69-10.61s6.84-2.74,7.53-2.74S98.74,248.7,98.74,248.7Z"/><circle class="cls-9" cx="54.07" cy="142.08" r="11.64"/><path class="cls-6" d="M42.61,151.15s5.47-1.37,7.18,0,2.06,4.45,4.45,4.8,4.45.34,4.8.68,8.21,9.93,8.21,9.93,4.79,2.73,5.82,6.5,11.29,16.43,12.66,17.8-8.9,8.21-12.32,10.61S60.06,204.89,57,199.41,37.13,158.34,42.61,151.15Z"/><path class="cls-9" d="M55.61,173.4l2.74,15.75s29.09-3.09,31.15,2.73,2.74,7.53,2.74,7.53l-5.82,2.06-2.74-5.14a6.5,6.5,0,0,0-5.13.35c-2.74,1.36-26.7,4.79-28.41.34s-6.51-20.88-6.51-20.88l7.19-5.82Z"/><path class="cls-6" d="M49.07,152.59s8.25,17.39,7.57,22.18-3.08,1.37-3.08,1.37-3.08-4.79-4.45-2-3.08,6.5-4.45,6.16-8.9-25.67-4.79-28.07S49.07,152.59,49.07,152.59Z"/><circle class="cls-10" cx="31.77" cy="115.37" r="15.37"/><path class="cls-10" d="M18.51,128.09A15.37,15.37,0,0,0,40,124.64,15.56,15.56,0,0,0,42.25,120a15.37,15.37,0,0,1-30.5-3.83,14.86,14.86,0,0,1,.52-2.47A15.37,15.37,0,0,0,18.51,128.09Z"/><circle class="cls-10" cx="44.32" cy="138.16" r="11.27"/><ellipse class="cls-10" cx="53.8" cy="133.94" rx="9.99" ry="7.81"/><ellipse class="cls-9" cx="54.24" cy="143.28" rx="2.22" ry="3.94"/><path class="cls-10" d="M84.78,201.32s6.06-3.48,7.19-2.61,1.62,3.6,1.62,3.6l-7,2.75-2-3.76Z"/></svg>