<svg id="Layer_1" data-name="Layer 1" xmlns="http://www.w3.org/2000/svg" xmlns:xlink="http://www.w3.org/1999/xlink" viewBox="0 0 434.83 330"><defs><style>.cls-1,.cls-23{fill:#ee4693;}.cls-1,.cls-6{opacity:0.1;}.cls-1,.cls-11,.cls-24,.cls-4,.cls-6{isolation:isolate;}.cls-2{fill:#3a3768;}.cls-3{fill:#d48a9b;}.cls-4{opacity:0.05;}.cls-5{fill:#efc6cd;}.cls-7{fill:#fff;}.cls-8{fill:#d3dae1;}.cls-9{fill:url(#linear-gradient);}.cls-10{fill:#585b8a;}.cls-11{opacity:0.2;}.cls-12{fill:#636992;}.cls-13{fill:#ffd6d6;}.cls-14{fill:#dce6f2;}.cls-15{fill:#565988;}.cls-16{fill:#505484;}.cls-17{fill:#575988;}.cls-18{fill:#d28690;}.cls-19{fill:#10c0e8;}.cls-20{fill:#353045;}.cls-21{fill:#f0f3f7;}.cls-22{fill:#663d5c;}.cls-24{opacity:0.3;}.cls-25{opacity:0.15;}.cls-26{fill:#ffd037;}.cls-27{fill:#65617d;}.cls-28{fill:#9d9cb5;}.cls-29{fill:#4b4770;}.cls-30{fill:#d4dfec;}</style><linearGradient id="linear-gradient" x1="264.04" y1="-7273.86" x2="264.04" y2="-7040.68" gradientTransform="matrix(1, 0, 0, -1, -54.11, -6964.86)" gradientUnits="userSpaceOnUse"><stop offset="0" stop-color="gray" stop-opacity="0.25"/><stop offset="0.54" stop-color="gray" stop-opacity="0.12"/><stop offset="1" stop-color="gray" stop-opacity="0.1"/></linearGradient></defs><title>Artboard 50</title><path class="cls-1" d="M429.29,95.19c-.07.36-.14.71-.23,1.06a113.78,113.78,0,0,1-13.23,34.32c-.21.35-.42.71-.64,1.06a98.55,98.55,0,0,1-14.91,18.83,45.3,45.3,0,0,1-10.71,8.23c-5.75,3-12.47,4.22-19.07,5.21-6.86,1-13.82,1.91-20.75,2.85q-3.69.48-7.35,1c-6.7,1-13.35,2.14-19.84,3.66a115.9,115.9,0,0,0-23.15,7.79c-.59.26-1.17.55-1.74.84L296,181c-.56.3-1.12.59-1.67.9l-.86.47-.84.47c-.83.46-1.64.93-2.45,1.41l0,0-1.6,1c-3,1.82-5.94,3.73-8.88,5.64l-1.85,1.2-2.86,1.85L273.22,195c-.4.27-.79.53-1.23.8-2.09,1.31-4.2,2.61-6.37,3.84-.51.29-1,.59-1.55.87a87.83,87.83,0,0,1-13.71,6.18l-.07,0a62.87,62.87,0,0,1-7.28,2.05c-1.42.31-2.84.57-4.29.76a46.19,46.19,0,0,1-11.63.17c-7.59-.88-14.71-3.8-22.3-4.78-15.63-2-30.81,4.42-45.5,9.45-3.61,1.23-7.26,2.39-10.92,3.47-2.44.72-4.88,1.4-7.35,2.06a276.8,276.8,0,0,1-46.08,8.08,130.59,130.59,0,0,1-19.58.43,71,71,0,0,1-7.34-.8c-8.24-1.27-15.93-3.94-22.14-8.84A43.25,43.25,0,0,1,34.4,204a64.39,64.39,0,0,1-5.94-17.74c-.15-.84-.29-1.69-.4-2.53-.2-1.45-.35-2.9-.44-4.36a62.21,62.21,0,0,1,2.74-23C33,148,37.37,140,39.29,131.6c.08-.36.16-.71.23-1.07a38.23,38.23,0,0,0,.59-3.86c1-10.31-2.79-20.37-5.75-30.46-.1-.35-.21-.7-.31-1-.32-1.13-.62-2.24-.91-3.36-2.74-10.67-3.5-22.09-1.06-32.73.07-.36.16-.71.25-1.06a48,48,0,0,1,9-18.45c4.57-5.74,10.57-10.51,17-14.71Q63,21.79,68,19.12q3.58-1.9,7.34-3.62A144.64,144.64,0,0,1,141,2.86c1.2.05,2.39.11,3.59.2s2.5.19,3.75.31c14.6,1.41,28.81,4.83,42.91,8.57,4.73,1.26,9.45,2.55,14.17,3.81,2.1.56,4.19,1.11,6.29,1.65C222,20.06,232.46,22.47,243,24.26c2.45.42,4.89.81,7.35,1.16a210.12,210.12,0,0,0,25.68,2.18c3.34.06,6.69,0,10-.09,1.69-.06,3.38-.15,5.07-.28C308.62,26,325.5,21.89,342.4,18l7.35-1.65c3.22-.71,6.44-1.4,9.67-2,20.13-3.95,38.06-1.68,56.77,6.48,4.26,1.85,8.51,4.09,11.11,7.57s3.26,7.75,3.75,11.87c.68,5.87,1.13,11.81,1.31,17.79,0,.35,0,.71,0,1.06A159.59,159.59,0,0,1,429.29,95.19Z"/><path class="cls-1" d="M295.8,130.57h-1.31v1.06H296Zm-14.91,0v0c0,.29-.07.58-.11.87v.16h11.39v-.06l.79-1Zm-30.52,0V96.25h13.1c-.14-.09-.28-.19-.43-.27l-.19-.13-.25-.15-.44-.25-.37-.2-.09,0H250.37V93.31l-.31.12-.32.15h0l-.07,0-.2.11-.2.1-.6.35-.19.13-.4.26c-.51.34-1,.7-1.54,1-.13.08-.26.17-.4.24a9.09,9.09,0,0,1-.87.47,3.7,3.7,0,0,1-.4.18l-.21.08-.2.07h0A10.14,10.14,0,0,1,243,97v33.55H223.35a.25.25,0,0,0,0,.11c.1.32.21.64.32,1H243v36.79h.3l.35,0,.62,0,1,.12.46,0,.5.05h.07l.88.11.19,0,.43.06.61.09h0l1.46-.06h0l.2,0a1,1,0,0,1,.24,0V131.63h30.41v-.16c0-.29.08-.58.11-.87v0Zm45.43,0h-1.31v1.06H296Zm-15.73,0c-.05.35-.09.71-.14,1.06h12.7l.87-1.06Zm-29.7,0V96.25h13.1c-.14-.09-.28-.19-.43-.27l-.19-.13-.25-.15-.44-.25-.37-.2-.09,0H250.37V93.31l-.31.12-.32.15h0l-.07,0-.2.11-.2.1-.6.35-.19.13-.4.26c-.51.34-1,.7-1.54,1-.13.08-.26.17-.4.24a9.09,9.09,0,0,1-.87.47,3.7,3.7,0,0,1-.4.18l-.21.08-.2.07h0A10.14,10.14,0,0,1,243,97v33.55H223.35a.25.25,0,0,0,0,.11c.1.32.22.64.32,1H243v36.79h.3l.35,0,.62,0,1,.12.46,0,.5.05h.07l.88.11.19,0,.43.06.61.09h0l1.46-.06h0l.2,0a1,1,0,0,1,.24,0V131.63h29.61c.05-.35.09-.71.14-1.06ZM349.75,59.1h82.63c0-.35,0-.71,0-1.06H349.75V16.38q-3.67.8-7.35,1.65V58H252.54l-.23-.2.34-.3h0l33.43-30q-5,.2-10,.09L250.36,50.66V25.42q-3.68-.53-7.34-1.16V49.5L205.46,15.75c-4.71-1.26-9.43-2.55-14.16-3.81l51.07,45.9-.22.2H148.39V3.4c-1.25-.12-2.5-.22-3.75-.31s-2.39-.15-3.58-.2V58H75.36V15.54q-3.7,1.7-7.34,3.62V58H32.33c-.09.35-.18.71-.25,1.06H68V95.19h-34c.1.36.21.71.31,1.06H68v34.32H39.52c-.07.35-.15.71-.23,1.06H68v96c2.39.37,4.86.63,7.34.79V131.63H141v88.23c2.47-.66,4.91-1.34,7.35-2.06V131.63H243v77.09a62.92,62.92,0,0,0,7.28-2.06l.07,0v-75h92v36.16q3.66-.54,7.35-1V131.63h65.44c.22-.35.43-.71.64-1.06H349.75V96.25h79.31c.09-.35.16-.7.23-1.06H349.75Zm-274.39,0H141V95.19H75.36Zm0,71.47V96.25H141v34.32Zm73-71.47H243V95.19H148.39Zm0,71.47V96.25H243v34.32Zm194,0h-92V96.25h92Zm0-35.38h-92V60.07l1.29-1H342.4Zm-61.51,35.38v0c0,.29-.07.58-.11.87v.16h11.39v-.06l.79-1Zm14.91,0h-1.31v1.06H296Zm-45.43,0V96.25h13.1c-.14-.09-.28-.19-.43-.27l-.19-.13-.25-.15-.44-.25-.37-.2-.09,0H250.37V93.31l-.31.12-.32.15h0l-.07,0-.2.11-.2.1-.6.35-.19.13-.4.26c-.51.34-1,.7-1.54,1-.13.08-.26.17-.4.24a9.09,9.09,0,0,1-.87.47,3.7,3.7,0,0,1-.4.18l-.21.08-.2.07h0A10.14,10.14,0,0,1,243,97v33.55H223.35a.25.25,0,0,0,0,.11c.1.32.21.64.32,1H243v36.79h.3l.35,0,.62,0,1,.12.46,0,.5.05h.07l.88.11.19,0,.43.06.61.09h0l1.46-.06h0l.2,0a1,1,0,0,1,.24,0V131.63h30.41v-.16c0-.29.08-.58.11-.87v0Z"/><path class="cls-1" d="M106.94,34.26h.57a1.16,1.16,0,0,1-.69-.93h0c0-.73,1.09-1.33,2.43-1.33h17c1.34,0,2.43.6,2.43,1.33h0c0,.73-1.09,1.33-2.43,1.33h-.57a1.15,1.15,0,0,1,.7.93c0,.62-.8,1.15-1.86,1.29h4.9c1.33,0,2.43.59,2.43,1.33s-1.1,1.33-2.43,1.33h-17c-1.34,0-2.43-.6-2.43-1.33s.79-1.15,1.86-1.29h-4.91c-1.33,0-2.43-.6-2.43-1.33S105.61,34.26,106.94,34.26Z"/><path class="cls-1" d="M291.52,46.91h.57a1.12,1.12,0,0,1-.69-.93h0c0-.73,1.09-1.33,2.42-1.33h17c1.33,0,2.43.6,2.43,1.33h0c0,.73-1.1,1.33-2.43,1.33h-.57a1.16,1.16,0,0,1,.69.93c0,.62-.79,1.15-1.86,1.29H314c1.33,0,2.42.6,2.42,1.33s-1.09,1.33-2.42,1.33H297c-1.34,0-2.44-.6-2.44-1.33s.8-1.15,1.86-1.29h-4.9c-1.34,0-2.43-.6-2.43-1.33S290.18,46.91,291.52,46.91Z"/><path class="cls-1" d="M80.81,101.06h.56a1.16,1.16,0,0,1-.69-.93h0c0-.73,1.09-1.33,2.43-1.33h17c1.34,0,2.43.6,2.43,1.33h0c0,.74-1.09,1.33-2.43,1.33h-.57a1.14,1.14,0,0,1,.69.93c0,.62-.79,1.15-1.86,1.29h4.91c1.34,0,2.43.6,2.43,1.33s-1.09,1.33-2.43,1.33h-17c-1.33,0-2.43-.6-2.43-1.33s.8-1.15,1.86-1.29H80.81c-1.34,0-2.44-.6-2.44-1.33S79.48,101.06,80.81,101.06Z"/><ellipse class="cls-1" cx="318.06" cy="225.94" rx="25.87" ry="85.14" transform="matrix(0.2, -0.98, 0.98, 0.2, 33.01, 492.32)"/><path class="cls-2" d="M308.44,153.29s4.53-22.23,21.82-20.17c0,0,11.95.82,14.4,8.64v17.29Z"/><polygon class="cls-3" points="403.12 161.52 249.16 148.76 229.41 152.88 230.64 180.46 231.99 180.62 233.52 222.04 384.6 249.2 400.65 235.62 400.65 190.72 402.71 189.51 403.12 161.52"/><polygon class="cls-4" points="403.33 161.52 402.92 189.51 386.24 197.34 386.04 168.11 403.33 161.52"/><polygon class="cls-4" points="400.65 190.75 400.86 234.8 384.8 248.38 385.83 197.34 400.65 190.75"/><polygon class="cls-4" points="232.19 182.27 385.96 201.03 386.04 197.47 232.08 180.87 232.19 182.27"/><polygon class="cls-4" points="400.65 192.37 400.65 190.75 385.42 197.47 385.42 201.04 400.65 192.37"/><polygon class="cls-5" points="229.2 152.88 248.96 148.76 402.92 161.52 385.63 168.11 229.2 152.88"/><polygon class="cls-6" points="386.51 162.32 394.07 162.81 381.55 166.56 375.17 166.1 386.51 162.32"/><polygon class="cls-7" points="386.51 161.99 394.07 162.48 381.55 166.23 375.17 165.77 386.51 161.99"/><path class="cls-8" d="M385.61,162.83c.3-.12.61.12.93.18s.37,0,.56,0c.37.05.73.3,1.09.18"/><path class="cls-8" d="M385.22,163.06c.3-.13.61.11.93.18s.37,0,.56,0c.37,0,.73.3,1.09.17"/><path class="cls-8" d="M384.32,163.51c.3-.12.62.12.94.18s.37,0,.55,0c.37.05.74.3,1.09.17"/><polygon class="cls-6" points="353.86 158.6 361.41 159.09 348.89 162.84 342.51 162.38 353.86 158.6"/><polygon class="cls-7" points="353.86 158.27 361.41 158.76 348.89 162.51 342.51 162.05 353.86 158.27"/><path class="cls-8" d="M353,159.12c.3-.13.62.11.93.17s.37,0,.56,0c.37.06.73.3,1.09.18"/><path class="cls-8" d="M352.56,159.34c.3-.12.62.12.93.18s.37,0,.56,0c.37,0,.73.3,1.09.17"/><path class="cls-8" d="M351.66,159.79c.3-.12.62.12.94.18s.37,0,.55,0c.37,0,.74.29,1.09.17"/><polygon class="cls-6" points="369.52 160.46 377.08 160.95 364.56 164.7 358.18 164.24 369.52 160.46"/><polygon class="cls-7" points="369.52 160.13 377.08 160.62 364.56 164.37 358.18 163.91 369.52 160.13"/><path class="cls-8" d="M368.62,161c.3-.13.61.11.93.17s.37,0,.55,0c.37,0,.74.3,1.09.18"/><path class="cls-8" d="M368.23,161.2c.29-.13.61.12.93.18s.37,0,.55,0c.37.05.74.3,1.09.17"/><path class="cls-8" d="M367.33,161.65c.29-.12.61.12.93.18s.37,0,.56,0c.37,0,.73.3,1.09.18"/><ellipse class="cls-1" cx="198.47" cy="298.58" rx="80.64" ry="16.6"/><path class="cls-9" d="M286.78,162.65a54,54,0,0,0-4.27-14.78l.26-2.54s.05-1.28,0-3.19a14.64,14.64,0,0,1,.47-3.54c.69-2.21-.88-4.92-1-5.17s.09-5.1-1.48-7.48-12-6.8-12-6.8-.56-1.17-1.36-2.55l.08-.14a15.38,15.38,0,0,0-2.39-3.22c-.65-.68-1.26-1.07-1.76-.88a14.05,14.05,0,0,1-.46-2l.31.07a3.26,3.26,0,0,0,1.32,0,3.91,3.91,0,0,0,2.16-1.91c2.7-4.1,5-8.6,5.5-13.45a8.77,8.77,0,0,0-.14-3,10.4,10.4,0,0,0-.94-2.17,17.46,17.46,0,0,0-2.62-3.87,15,15,0,0,0-7.07-3.87,24.39,24.39,0,0,0-9.12-.68c-.79.09-1.59.22-2.39.28a25.54,25.54,0,0,1-3-.06l-5.21-.3,0-.08-.87,0a2.22,2.22,0,0,0,.42,2.13,3.55,3.55,0,0,1,.88,2,4.18,4.18,0,0,1-1,2,1.93,1.93,0,0,0-.33,2.09,1.51,1.51,0,0,0,.21.23,2.7,2.7,0,0,0,1.92.51h.12a12.94,12.94,0,0,0-2.64,7.85,13.19,13.19,0,0,0,7.2,11.7c.08.26.16.53.23.8a24.29,24.29,0,0,1,.83,8.61l-.09.2-.05-.21s-6.15,4.16-8,5.27-3.66,4.84-3.74,5.86-3,16.4-3,16.4a38.68,38.68,0,0,0-1.44,4.74l-3.67,3.22s-7.56.69-9.75.18l.06.42a33.27,33.27,0,0,0-5.88-.8,6.17,6.17,0,0,0-3.18.43l-.08,0-.06,0a13.06,13.06,0,0,0-3.35.94l-.35.16,0-.53-8.18-.42-4.19-.85s-1.48-1.19-2.35-1-2.7-1-2.7-1a7.25,7.25,0,0,0-1.35-.84c-.14-1-.22-1.55-.22-1.55s-3.26-12.91-5.69-20.5c-1.64-5.07-4-7.57-5.37-8.66l-1-1.77a7.87,7.87,0,0,0-2.1-3.08c-.06-.09-.11-.14-.13-.14a.5.5,0,0,0-.24,0c-.68-3.41-1.08-7.68,0-11.4a12.58,12.58,0,0,0,4.59-9.7v-.34a12.54,12.54,0,0,0-3-8.09l-.13-.15L174,86a2.17,2.17,0,0,0,.76-2.06,14.36,14.36,0,0,0-1.09-2.09,14.64,14.64,0,0,1-.44-1.7A5.22,5.22,0,0,0,172,78l.06.16a7.58,7.58,0,0,0-6.67-2.24c-1.79.29-3.47,1.12-5.27,1.38-1.3.19-2.61.07-3.92.2a10.1,10.1,0,0,0-3.47,1A2.08,2.08,0,0,0,152,79a3,3,0,0,0-.36,1c-.44,1.61-1.85,2.76-2.86,4.11a9.63,9.63,0,0,0-1.93,5.31,4.17,4.17,0,0,0,.14,1.45c.09.29.22.55.29.84a5.78,5.78,0,0,1-.48,2.62,5,5,0,0,0,.28,3.32c1.57,3.52,6.74,4.69,7.81,8.39a10.11,10.11,0,0,0,2.59.8q.1.54.18,1.11l-.06,0a7.86,7.86,0,0,0-1.74,4l-.17.14c-.57.47-2.52,2-4.28,3.26-2.09,1.44-5.57,6.29-8,7.73s-4.45,10.36-3.92,13.59,2.7,12.32,1.83,15.64,1.3,18.43,1.3,18.43a22.34,22.34,0,0,1,4.27,1.27l0,.66-.13,2S142.74,189,144.25,200s-.7,12.12-.7,12.12.47,4.87-.69,6.58-1.4,5.43-1.4,5.43-.11,8.39.12,10.75.34,6.69-.47,7.71-2.32,7.7-2.2,9.74S136,259,137.63,265s-4.78,6.12-4.78,6.12.81,9.16,2.55,11.78l.26.37c0,.15-.09.31-.14.48-.65,2.39-1.55,6.16-.93,7.08.93,1.36,1.4,1.13,1.4,1.13l.34,6.11s7,5.89,12.32,5.67,4.29-5.67,4.29-5.67l-4.55-11.8-.15-.4,5-9.56s1.4-4.19,1.75-5.66,2.23-6.7,2.23-6.7,4.78-11.32,4.88-12.68.47-8.72,1.4-10.2,3.48-10,3.48-10l.06.06a3.34,3.34,0,0,1,.87,3.34c-.58,2.15-.23,6.57-.23,6.57a44.18,44.18,0,0,1-.7,5.67c-.46,1.92-.58,17.67.24,21.4.65,3,.63,8.59.59,10.71-.54,2.25-1,5.05-.13,5.38,1.51.57,9.18.45,9.18.45s3.25-1.13,7.67,2.83,18-1.13,18-1.13,4.18-1.13-4.07-4.41c-5.75-2.29-9.47-3.82-11.9-5.45.06-.11.12-.22.17-.33s-3.37-3.19-.58-8.84A24.69,24.69,0,0,0,188.87,257l.46-19-1.39-25.27-1.08-26.52.19-.06c.19,4.88,1.14,16.48,6.12,14.23,6.27-2.83.93-10.19.93-10.19l-2.82-5.49.84-.29L189,174.16a23.18,23.18,0,0,1-.12-6,24.2,24.2,0,0,0-.07-3.51c4.13-.72,8.08-1.48,8.79-1.31a73.1,73.1,0,0,0,7.35.25c-.6.47-1.08.94-1.08.94l7.49,5s2.54-1.39,3.07-2.86a3.29,3.29,0,0,0,1.4-.75c.08,1.74.55,3.62,2.15,3.67a2.79,2.79,0,0,0,1.18-.23L231.38,167l-1.06,6.57.74,1.3c-.37,5.54-.8,11.42-1.17,16.6l-.17,1.13.08,0c-.58,8-1,14-1,14a7.28,7.28,0,0,1,3.05-3.07l.08,11.82s.61,18.69.61,21.24.09,8.24.09,8.24,1.31,7,2.09,9.26,1.39,12.74,1.39,12.74,1.83,2.89,1.05,4,3,3.49,3,3.49-2.44,3.31-2.62,5.52c0,.25.23.53.69.8-.15.11-.29.23-.46.34A8,8,0,0,1,232.5,282c-6.8-.6-11.59,5.69-7.4,7s16.72,1.53,16.72,1.53,3.8-2.37,6.77-1.3c0,2.49.08,4.78.1,5.08l0,0c-1.78,1.59-5.18,4.33-8.5,5.45-4.78,1.61-5.84,8.16.34,9s15.25-1,15.25-1,4.7-3.48,8.28-4.25,6.62-2.46,6-4.5c-.4-1.31-1.42-4.72-2.11-7l-.12-.4c.1-.24.21-.49.31-.74,0,0-1.83-9.52-.35-11.89s.7-26.17.7-26.17-2.53-6-1.22-9.69-2.09-8.83-2.09-8.83a160.61,160.61,0,0,1,1.37-16.19c0-.24.09-.48.13-.71a33.67,33.67,0,0,0,4.86-1.88s.87-13.09,1.39-16.06c0-.28.13-.73.21-1.31l.4-2.1h0l.47-2.39h0l1.59-8.14,2.88-3.72,7.41-7.57S287.65,170.21,286.78,162.65ZM172.54,115.92l-.06,0a.29.29,0,0,1,0-.09Zm73.19,9.27-.29.63,1.05-1-1.43,1.6.48-1Zm-7.08,14.62c-.27.73-.57,1.52-.87,2.34l.56-1.68Z"/><path class="cls-10" d="M215.8,163.64s-1,6.49,1.95,6.58,4.88-5,4.88-5l-1.19-4.08Z"/><path class="cls-11" d="M215.8,163.64s-1,6.49,1.95,6.58,4.88-5,4.88-5l-1.19-4.08Z"/><path class="cls-12" d="M150.23,304.24c-5.21.23-12-5.66-12-5.66l-.33-6.11s-.45.23-1.36-1.13c-.61-.91.26-4.69.91-7.07.31-1.16.56-2,.56-2l11.43,3.06.55,1.44,4.43,11.8S155.43,304,150.23,304.24Z"/><path class="cls-12" d="M202.75,286.93s-13.24,5.09-17.53,1.13-7.47-2.83-7.47-2.83-7.47.11-8.94-.46c-.87-.33-.4-3.16.14-5.41.37-1.56.77-2.85.77-2.85s13-4.41,15.05-1.7a9.48,9.48,0,0,0,2.17,2.07c2.36,1.71,6,3.25,11.87,5.63C206.82,285.79,202.75,286.93,202.75,286.93Z"/><path class="cls-13" d="M190.86,183.46l3.62,7.24s5.21,7.36-.9,10.19-6-16.3-6-16.3Z"/><path class="cls-14" d="M175.69,120.64s4,1.81,6.34,9.39,5.55,20.49,5.55,20.49,2.15,14.6,1.81,18.23a23.19,23.19,0,0,0,.12,6l3.05,10.18-6.11,2.15-9.4-36Z"/><path class="cls-4" d="M175.69,120.64s4,1.81,6.34,9.39,5.55,20.49,5.55,20.49,2.15,14.6,1.81,18.23a23.19,23.19,0,0,0,.12,6l3.05,10.18-6.11,2.15-9.4-36Z"/><path class="cls-6" d="M149.43,285.34l.55,1.45-.67,1.28c-2.61,1.13-9.06.22-9.06.22s-1.19-1.51-2.83-4c.31-1.16.57-2,.57-2Z"/><path class="cls-6" d="M187.36,277.42c-3.31,7.48-14.53,4.7-17.65,3.76-.51-.15-.79-.26-.79-.26s0-.6,0-1.56c.37-1.56.77-2.85.77-2.85s13-4.41,15-1.7a9.69,9.69,0,0,0,2.17,2.07A4.43,4.43,0,0,0,187.36,277.42Z"/><path class="cls-15" d="M186.79,267.91c-2.72,5.65.56,8.83.56,8.83-3.3,7.47-14.52,4.7-17.64,3.76l-.8-.25s.23-7.82-.56-11.55-.68-19.47-.23-21.39a44.74,44.74,0,0,0,.68-5.67,27.38,27.38,0,0,1,.23-6.56,3.41,3.41,0,0,0-.85-3.34l-.06-.06s-2.49,8.49-3.39,10-1.25,8.83-1.36,10.19-4.76,12.68-4.76,12.68-1.81,5.2-2.14,6.67-1.71,5.67-1.71,5.67l-5.45,10.53c-2.61,1.13-9.06.22-9.06.22s-1.24-1.59-2.94-4.19-2.49-11.76-2.49-11.76,6.22-.12,4.64-6.12,1.36-10.64,1.25-12.68,1.35-8.71,2.15-9.73.67-5.32.45-7.7-.12-10.75-.12-10.75.23-3.74,1.36-5.44.68-6.56.68-6.56,2.15-1.14.68-12.12,2.39-25.24,2.39-25.24l.13-2,.21-3.23s32.37-2,35,.45a8.63,8.63,0,0,1,1.65,2.37,23.7,23.7,0,0,1,1.87,6l1.36,34.3,1.36,25.24-.45,19A25.27,25.27,0,0,1,186.79,267.91Z"/><path class="cls-6" d="M177.19,200.22l-3.4,73.57-4.08,6.71c-.51-.15-.79-.26-.79-.26s.22-7.81-.57-11.55-.68-19.46-.23-21.39a44.46,44.46,0,0,0,.68-5.66,27.38,27.38,0,0,1,.23-6.56,3.4,3.4,0,0,0-.85-3.34l.06-.4Z"/><path class="cls-6" d="M140.6,279.23s8.83-3.51,10.19-2.39-10.41,2.83-10.41,2.83Z"/><path class="cls-6" d="M184.18,269.94c-.33.12-8.94,3.19-8.14,6.46S184.18,269.94,184.18,269.94Z"/><path class="cls-13" d="M157.3,102.47s2.88,7,1.36,10.53,16.47,9.68,16.47,9.68-5.26-13.59-.17-21.23S157.3,102.47,157.3,102.47Z"/><path class="cls-16" d="M262.66,304c-3.48.76-8.06,4.24-8.06,4.24s-8.83,1.87-14.86,1-5-7.39-.34-9c3.24-1.11,6.55-3.87,8.29-5.44.76-.71,1.21-1.2,1.21-1.2l16.9-3.4.66,2.25c.68,2.3,1.68,5.71,2.06,7C269.11,301.56,266.14,303.25,262.66,304Z"/><path class="cls-16" d="M258.33,290.94s-7.13.77-10.1-.93-7.22,1-7.22,1-12.23-.26-16.3-1.53.59-7.57,7.22-7a7.6,7.6,0,0,0,5.15-1.07,5.43,5.43,0,0,0,2.24-3.36l14.34.85,2,5.08Z"/><path class="cls-6" d="M255.87,286.36s-16.67-2.73-18.79-4.89a5.43,5.43,0,0,0,2.24-3.36l14.34.85,2,5.08Z"/><path class="cls-17" d="M231.16,191l.17,24.87s.6,18.68.6,21.23.08,8.23.08,8.23,1.27,7,2,9.26,1.36,12.74,1.36,12.74,1.78,2.89,1,4,3,3.49,3,3.49-2.39,3.31-2.55,5.52,19,5.34,19,5.34L248.4,209.1l-6-19.18Z"/><path class="cls-6" d="M231.16,191l.17,24.87s.6,18.68.6,21.23.08,8.23.08,8.23,1.27,7,2,9.26,1.36,12.74,1.36,12.74,1.78,2.89,1,4,3,3.49,3,3.49-2.39,3.31-2.55,5.52,19,5.34,19,5.34L248.4,209.1l-6-19.18Z"/><path class="cls-6" d="M266.46,292.51c-5.55,13.23-18.74,3-18.74,3s0-.26,0-.69c.76-.71,1.21-1.2,1.21-1.2l16.9-3.4Z"/><path class="cls-17" d="M266.65,291.37c-5.44,13.94-18.93,3.48-18.93,3.48s-.43-7.22.42-10.53-.93-13.24-.93-13.24-1-8.83-2-10.87-.85-6.11-.85-6.45a12.26,12.26,0,0,0-.43-4.93,33.43,33.43,0,0,1-1.19-6.45,67.61,67.61,0,0,0-.77-10.27L239.39,219l-4.76-26.92,1.49-.25,26.62-4.67s5,25.49,3.31,28.1a10.91,10.91,0,0,0-1,3.45c-1,5.78-1.33,16.16-1.33,16.16s3.31,5.18,2,8.83,1.2,9.68,1.2,9.68.76,23.77-.68,26.15S266.65,291.37,266.65,291.37Z"/><path class="cls-18" d="M264.1,117.58s-24.11,17-18.68,8.49c2.93-4.57,2.39-10.4,1.25-14.79a34.84,34.84,0,0,0-2.39-6.49s20.48-8.71,17.77-.9a14.53,14.53,0,0,0-.8,5.67A15.1,15.1,0,0,0,264.1,117.58Z"/><path class="cls-18" d="M220.69,156.47s-10.19-2.95-11.88-.06.51,9.22,3.58,10.24,10.13-3.45,10.13-3.45Z"/><path class="cls-10" d="M232.35,151.46l-4.24,3.91s-7.39.67-9.51.16c0,0,2,13.08-.85,14.69l17.15-3.48Z"/><path class="cls-6" d="M232.35,151.46l-4.24,3.91s-7.39.67-9.51.16c0,0,2,13.08-.85,14.69l17.15-3.48Z"/><path class="cls-6" d="M177.84,95.34a12.74,12.74,0,0,1-12.74,12.74c-6.54-3.14-12.75-5.7-12.75-12.74a12.75,12.75,0,0,1,25.47-1,8.51,8.51,0,0,1,0,1Z"/><path class="cls-13" d="M177.84,95A12.72,12.72,0,1,1,175,86.94,12.71,12.71,0,0,1,177.84,95Z"/><path class="cls-6" d="M185.27,172.93a29.39,29.39,0,0,1-3.94,2s-6.46-.93-7.39.17-9.16,1.53-9.16,1.53-12.56-.59-14.43-2.21a7.82,7.82,0,0,0-1.91-1.13l.21-3.22s32.37-2,35,.45A8.45,8.45,0,0,1,185.27,172.93Z"/><path class="cls-14" d="M186.85,170.64c-.26,1.45-5.52,3.65-5.52,3.65s-6.46-.93-7.39.17-9.16,1.53-9.16,1.53-12.56-.6-14.43-2.21-6-2.39-6-2.39-2.13-15.11-1.27-18.42-1.28-12.4-1.79-15.62,1.44-12.14,3.82-13.58,5.78-6.29,7.81-7.73c1.72-1.21,3.61-2.79,4.17-3.26l.16-.14a8,8,0,0,1,1.7-4c1.36-1.35,13.84,8.58,13.84,8.58s.09.76.93-.68c.2-.32,1.84,2,2.13,3,0,0,6.79,11.89,7.21,14.34s2.21,10.44,2.55,12.39c.09.51.23,2.27.4,4.62q0,.71.09,1.47c.25,3.91.52,8.9.69,12.68,0,.43,0,.84.05,1.24C186.89,167.78,186.9,169.21,186.85,170.64Z"/><path class="cls-6" d="M143.73,140s4.67,5.69,6.2,5.69S143.73,140,143.73,140Z"/><path class="cls-6" d="M153.57,152.22s-7.65,8.32-6.63,9.85S153.57,152.22,153.57,152.22Z"/><path class="cls-6" d="M148,168.78s8.76-9.6,9.16-12.91Z"/><path class="cls-6" d="M159,169.45s10.1-5.35,10.95-9.59S159,169.45,159,169.45Z"/><path class="cls-6" d="M171.82,117.84l-1.4,3.39,2.33,1.1,2.29,6.42s6.33,12.64,6.07,19.22a117.19,117.19,0,0,0,1.15,16.47l3.65-.67-1.72-19.36a28,28,0,0,0-2.22-8.68c-2.92-6.68-8.34-19-8.69-19s-.14.17-.14.17Z"/><path class="cls-19" d="M172.16,117.49l-1.4,3.4,2.33,1.1,2.29,6.42s6.33,12.65,6.07,19.23a117.14,117.14,0,0,0,1.15,16.46l3.65-.67-1.72-19.36a28,28,0,0,0-2.22-8.68c-2.92-6.68-8.34-19-8.68-19s-.14.17-.14.17Z"/><path class="cls-13" d="M213.5,167.39c-1.77-.14-6-2.29-7.73-3.19l-.72-.39.09-6.58a10.57,10.57,0,0,1,1.3-.66c2.26-1,6.9-2.33,9.23,2C218.81,164.36,215.75,167.54,213.5,167.39Z"/><path class="cls-6" d="M175,86.94a1.79,1.79,0,0,1-.59.24c-1.48.32-3.16-1-4.43-.13a3.2,3.2,0,0,0-1.05,2.46q-.27,2.38-.54,4.74a6.07,6.07,0,0,1-.35,1.64A4.13,4.13,0,0,1,164.09,98a2.36,2.36,0,0,1-1.69-.56,10.81,10.81,0,0,0-.72-.92c-2-1.67-2.6,2.42-2.07,3.58.84,1.9,3.84,3.74,2.58,6.15a2.35,2.35,0,0,1-.92.93A12.75,12.75,0,1,1,175,86.94Z"/><path class="cls-20" d="M161.34,96.47a10.81,10.81,0,0,1,.72.92,2.37,2.37,0,0,0,1.69.56,4.09,4.09,0,0,0,3.9-2.08,5.82,5.82,0,0,0,.36-1.63l.54-4.75a3.2,3.2,0,0,1,1-2.46c1.27-.8,3,.45,4.43.13a2.16,2.16,0,0,0,1.59-2.49,14.09,14.09,0,0,0-1.05-2.09,12.45,12.45,0,0,1-.43-1.7c-.83-3.09-4.46-4.83-7.61-4.31-1.75.29-3.38,1.13-5.14,1.38-1.26.19-2.54.07-3.81.2a9.62,9.62,0,0,0-3.39,1,2.13,2.13,0,0,0-.72.54,2.88,2.88,0,0,0-.35,1c-.43,1.6-1.8,2.77-2.79,4.11a9.8,9.8,0,0,0-1.89,5.3,4.22,4.22,0,0,0,.14,1.46c.08.28.21.55.27.83a5.76,5.76,0,0,1-.47,2.62,5.26,5.26,0,0,0,.28,3.32c1.53,3.52,6.57,4.69,7.62,8.38a8.25,8.25,0,0,0,3,.8,2.84,2.84,0,0,0,2.61-1.33c1.26-2.39-1.74-4.25-2.58-6.15C158.74,98.89,159.33,94.8,161.34,96.47Z"/><path class="cls-6" d="M262.07,103.89a14.53,14.53,0,0,0-.8,5.67c-.61.52-1.28-1-2-.64-1.94,1.12-4.19,3.79-6.6,3.79a13.19,13.19,0,0,1-6-1.43,34.84,34.84,0,0,0-2.39-6.49S264.78,96.08,262.07,103.89Z"/><path class="cls-18" d="M265.91,98.79a13.25,13.25,0,1,1-13.24-13.25,13.25,13.25,0,0,1,13.24,13.25Z"/><path class="cls-21" d="M265.35,120.52s-2.49,2.72-2.83,2.94-7.57,30.67-7.7,31-8.6,27.84-8.6,27.84L232.63,189l1.14-33.62,9.95-27.73s3.29-3.74,4.3-5.1,13.7-9.51,13.7-9.51l2.17,4.47Z"/><path class="cls-6" d="M263.55,118.2l-15.62,11.18-.25-6.14c1-1.36,13.7-9.51,13.7-9.51Z"/><path class="cls-21" d="M263.89,117.52,248.27,128.7l-.24-6.14c1-1.36,13.69-9.51,13.69-9.51Z"/><path class="cls-10" d="M247.51,119.83l.52,2.73-3.5,3.55,2.79-6.24s-6,4.16-7.76,5.27S236,130,235.9,131,233,147.38,233,147.38s-2.13,5.69-1.53,7.3-3.22,52.47-3.22,52.47a7.55,7.55,0,0,1,5.1-3.92l-1.36-30s1.66-20,1.74-20.25l3.86-11.84Z"/><path class="cls-6" d="M248.37,122.9l-.27,5.58s-3.78,11.93-5,13.88-5.14,13.58-5.14,13.58l-2.18,20.21-3.73,1.7-1.84-3.39L233.22,155s5.77-16.47,6.62-18.17l4.26-9Z"/><path class="cls-22" d="M248,122.56l-.27,5.58s-3.78,11.93-5,13.88-5.14,13.58-5.14,13.58l-2.16,20.21-3.74,1.7-1.87-3.4,3.06-19.51s5.77-16.48,6.62-18.17l4.29-9Z"/><path class="cls-18" d="M204,165.12l7.31,5.06s5.14-2.89,2.15-4.76a13.28,13.28,0,0,0-6.63-2.15C205.86,163.27,204,165.12,204,165.12Z"/><path class="cls-18" d="M209.45,155.78a1.14,1.14,0,0,0-.53,1c0,1.55.17,5.65,1.47,3.8,1.59-2.27,1.3-4.3,3.74-2.83a14.47,14.47,0,0,1,3.9,3.58l-.68-4.86S212.35,154,209.45,155.78Z"/><path class="cls-6" d="M266.05,215.21a11.05,11.05,0,0,0-.95,3.45c-14.89,4.46-25.78-5-25.78-5a128.26,128.26,0,0,1-3.23-13.58,43.68,43.68,0,0,1,0-8.32l26.62-4.67S267.75,212.58,266.05,215.21Z"/><path class="cls-10" d="M281.34,139.23c-.68,2.21-.43,6.7-.43,6.7L274.8,174.8s-3,22.24-3.48,25.22-1.36,16-1.36,16A28.77,28.77,0,0,1,239.29,213a131.51,131.51,0,0,1-3.22-13.59c-.85-5,1.65-25.24,2.84-34.21.36-2.66.59-4.33.59-4.33L244,144.32s5.48-14,7.52-18,10.22-13.23,10.22-13.23c1-.64,2.64,1.64,3.85,3.71.91,1.57,1.59,3,1.59,3s10.19,4.41,11.72,6.77,1.27,7.22,1.44,7.47S282,137,281.34,139.23Z"/><path class="cls-6" d="M257.31,129s.77,4.5-1.19,5.85-16,29-16.85,30.74c.35-2.66.59-4.33.59-4.33l4.46-16.56s5.48-14,7.51-18,10.23-13.23,10.23-13.23c1-.64,2.64,1.63,3.85,3.71C264.09,120.88,260.29,128,257.31,129Z"/><path class="cls-10" d="M257,128.62s.76,4.5-1.19,5.86-16,29-16.86,30.73c.35-2.66.59-4.33.59-4.33L244,144.32s5.48-14,7.51-18,10.23-13.23,10.23-13.23c1-.64,2.64,1.64,3.85,3.71C263.75,120.54,260,127.69,257,128.62Z"/><polygon class="cls-23" points="277.18 169.28 272.39 194.21 272.39 194.22 271.93 196.6 271.93 196.61 270.9 201.97 266.5 201.04 264.44 200.6 236.06 194.59 233.97 194.15 229.21 193.14 230.14 186.95 230.53 184.38 233.97 161.56 277.18 169.28"/><path class="cls-18" d="M250.69,189.66s-11.29,4.08-8.83,8.91,18.25-3.73,18.25-3.73Z"/><path class="cls-6" d="M258.75,224.38c0,.34.43,4.67,2.13,6.2S258.75,224.38,258.75,224.38Z"/><path class="cls-6" d="M247.38,239.75s2,5.6,10.1,7.9S247.38,239.75,247.38,239.75Z"/><path class="cls-6" d="M265.91,98.79a13.21,13.21,0,0,1-6.64,11.48,7.05,7.05,0,0,1-2-1.66,2.6,2.6,0,0,1-.68-2.49c.28-.67,1-1.1,1.2-1.8a2.65,2.65,0,0,0-.07-1.28c-.14-.66-.28-1.31-.43-2s-.34-1.21-.89-1.35-1,.33-1.45.67c-1.07.84-3.1,1.41-4.38.72s-.92-3-1.13-4.24a.76.76,0,0,0-.28-.56,1.14,1.14,0,0,0-.58,0A1.66,1.66,0,0,1,247.15,95a10.82,10.82,0,0,1-.23-2,2.29,2.29,0,0,0-.92-1.77,2.78,2.78,0,0,0-1.5-.25L242,91a13.24,13.24,0,0,1,23.89,7.85Z"/><path class="cls-22" d="M255.31,100.39c.44-.34.91-.79,1.45-.66s.77.79.89,1.34l.43,2a2.64,2.64,0,0,1,.07,1.28c-.2.7-.93,1.13-1.22,1.8a2.6,2.6,0,0,0,.68,2.49,7.24,7.24,0,0,0,4.1,2.45,3.07,3.07,0,0,0,1.28,0,3.8,3.8,0,0,0,2.1-1.91c2.64-4.1,4.9-8.6,5.36-13.45a8.48,8.48,0,0,0-.13-3,10.07,10.07,0,0,0-.91-2.17,17.56,17.56,0,0,0-2.56-3.87A14.46,14.46,0,0,0,260,82.86a23.2,23.2,0,0,0-8.89-.7c-.79.09-1.56.22-2.34.27a24.34,24.34,0,0,1-3,0L239.92,82a2.24,2.24,0,0,0,.4,2.12,3.83,3.83,0,0,1,.86,2.06,4.21,4.21,0,0,1-1,2,2,2,0,0,0-.31,2.08c.41.62,1.26.66,2,.66l3,0a2.88,2.88,0,0,1,1.5.26,2.28,2.28,0,0,1,.91,1.77,13,13,0,0,0,.23,2.06,1.66,1.66,0,0,0,1.45,1.27,1.1,1.1,0,0,1,.57,0,.72.72,0,0,1,.28.56c.21,1.24-.17,3.54,1.13,4.24S254.25,101.23,255.31,100.39Z"/><path class="cls-6" d="M272.15,126.55a6.5,6.5,0,0,0-6.83,4.37c-1.6,4.53-4.25,12.72-3.59,16,.94,4.58,2,12.23,2,12.23s4.84,2.79,2.39,5.6a15.82,15.82,0,0,0-3.14,6.79s-3.14,1.36-3.82,4.25-5.27,6.87-5.27,6.87l-6.87,6.88s11.37,11.55,13.67,12.14l7-8.24,8.32-11,7.22-7.57s1.7-4,.85-11.55A55.32,55.32,0,0,0,280,148.47l.25-2.55S281,127.66,272.15,126.55Z"/><path class="cls-10" d="M272.82,126.55a6.5,6.5,0,0,0-6.82,4.37c-1.59,4.53-4.25,12.72-3.58,16,.93,4.58,2,12.23,2,12.23s4.84,2.79,2.39,5.6a15.82,15.82,0,0,0-3.14,6.79s-3.14,1.36-3.82,4.25-5.26,6.87-5.26,6.87l-6.88,6.88s11.38,11.55,13.67,12.14l7-8.24,8.3-11,7.21-7.57s1.7-4,.85-11.55a55.32,55.32,0,0,0-4.16-14.77l.26-2.55S281.71,127.66,272.82,126.55Z"/><path class="cls-6" d="M265.71,152.39s7.22,8.83,10.28,6.87S265.71,152.39,265.71,152.39Z"/><path class="cls-6" d="M268.43,145.6c.77.25,7.05,9,10.28,8S268.43,145.6,268.43,145.6Z"/><path class="cls-6" d="M270.22,160.62s.42,5,5.6,4.33S270.22,160.62,270.22,160.62Z"/><polygon class="cls-6" points="247.34 120.21 244.53 126.45 248.03 122.9 247.34 120.21"/><polygon class="cls-21" points="247.34 119.87 244.53 126.11 248.03 122.56 247.34 119.87"/><polygon class="cls-24" points="236.06 194.59 233.97 194.15 230.14 186.95 230.53 184.38 236.06 194.59"/><polygon class="cls-24" points="272.39 194.22 271.93 196.6 271.93 196.61 266.5 201.04 264.44 200.6 272.39 194.22"/><path class="cls-6" d="M186.79,166.37c-1,.17-2.07.33-3,.45-5.18.68-17.49-5.43-17.49-5.43s-15-12.57-19.36-24.45,5.18-13.67,5.18-13.67c3.58-2,11.38,3.65,12.48,4.58a7.1,7.1,0,0,1,2,4.84c-.08,1.53,2.55,3.48,2.55,3.48s4.5,7.81,5.61,8.66a4.44,4.44,0,0,1,1.69,3.06c.34,1.45,3.31,2.63,4.59,2.55s2.78.42,2.78,1.1,1.25.81,2.27.9C186.35,156.8,186.65,162.5,186.79,166.37Z"/><path class="cls-6" d="M186.75,165.12c-.8.13-1.57.25-2.28.34C179.29,166.14,167,160,167,160s-15-12.57-19.36-24.45,5.18-13.67,5.18-13.67c3.59-2,11.38,3.65,12.48,4.59a7.06,7.06,0,0,1,1.95,4.83c-.08,1.53,2.55,3.48,2.55,3.48s4.5,7.82,5.6,8.66a4.43,4.43,0,0,1,1.7,3.06c.35,1.45,3.31,2.63,4.59,2.55s2.79.42,2.79,1.1c0,.4.7.67,1.49.8,0,.46.06,1,.1,1.46C186.31,156.35,186.58,161.35,186.75,165.12Z"/><path class="cls-6" d="M206.44,156.57l-.32,7.63h-.35l-.72-.39.09-6.58A10.57,10.57,0,0,1,206.44,156.57Z"/><path class="cls-14" d="M152.12,122.59s-9.51,1.78-5.18,13.67,19.36,24.45,19.36,24.45,12.31,6.11,17.49,5.43,13.07-2.46,14.09-2.2,7.9.25,7.9.25l.34-8-8-.43-4.07-.85s-1.45-1.19-2.3-1-2.62-1-2.62-1a5.12,5.12,0,0,0-2.39-1.1c-1,0-3-.26-3-.93s-1.52-1.2-2.78-1.11-4.27-1.1-4.62-2.56a4.43,4.43,0,0,0-1.7-3.06c-1.1-.84-5.6-8.66-5.6-8.66s-2.63-2-2.55-3.47a7.17,7.17,0,0,0-1.95-4.85C163.49,126.24,155.68,120.55,152.12,122.59Z"/><path class="cls-6" d="M176.57,149.93s-3.65,3.65-2.72,4.32Z"/><path class="cls-6" d="M180.48,152.81s-4.76,3.66-3.48,3.91S180.48,152.81,180.48,152.81Z"/><path class="cls-6" d="M172.41,158.23c.68.34,10.78,6.37,14.6,6.28Z"/><path class="cls-6" d="M173.09,117.92s-1.78,5.86-2.46,5.86-9.5-7.26-13.24-10.31l.17-.13a8,8,0,0,1,1.69-4C160.61,108,173.09,117.92,173.09,117.92Z"/><path class="cls-14" d="M172.75,117.24s-1.78,5.86-2.46,5.86-9.5-7.26-13.24-10.31l.16-.13a8.13,8.13,0,0,1,1.7-4C160.27,107.32,172.75,117.24,172.75,117.24Z"/><g class="cls-25"><path d="M148.71,98.31h0c1.19,2.72,4.48,4,6.39,6.22C154,101.86,150.65,100.55,148.71,98.31Z"/><path d="M160.88,104.59a2.85,2.85,0,0,1-2.61,1.33,7.66,7.66,0,0,1-2.62-.66,5,5,0,0,1,.68,1.44,8.44,8.44,0,0,0,3,.79,2.8,2.8,0,0,0,2.61-1.33c.76-1.45,0-2.7-1-3.87A2.52,2.52,0,0,1,160.88,104.59Z"/><path d="M175.66,84.63a13.18,13.18,0,0,0-1-2.09,12.83,12.83,0,0,1-.43-1.7A5.29,5.29,0,0,0,173,78.65q.12.3.21.6A14.29,14.29,0,0,0,173.6,81a14.09,14.09,0,0,1,1.05,2.09,2.15,2.15,0,0,1-1.59,2.49c-1.47.33-3.15-1-4.42-.13a3.17,3.17,0,0,0-1.06,2.46L167,92.62a5.65,5.65,0,0,1-.35,1.63,4.1,4.1,0,0,1-3.91,2.08,2.39,2.39,0,0,1-1.68-.55c-.23-.32-.47-.63-.73-.93-2-1.67-2.59,2.42-2.07,3.59a7.41,7.41,0,0,0,1,1.46c-.44-1.32.18-5.1,2.12-3.48a11.07,11.07,0,0,1,.73.93,2.37,2.37,0,0,0,1.68.55,4.1,4.1,0,0,0,3.91-2.08,5.79,5.79,0,0,0,.35-1.64q.27-2.39.54-4.74A3.17,3.17,0,0,1,169.66,87c1.27-.82,3,.46,4.42.13A2.15,2.15,0,0,0,175.66,84.63Z"/></g><path class="cls-6" d="M263.84,110.07a3.07,3.07,0,0,1-1.28,0,7.18,7.18,0,0,1-4.09-2.45,2.53,2.53,0,0,1-.68-2.49c.27-.67,1-1.1,1.19-1.8a2.64,2.64,0,0,0-.07-1.28l-.43-2c-.12-.55-.34-1.21-.89-1.34s-1,.32-1.45.66c-1.06.84-3.11,1.42-4.38.72s-.92-3-1.13-4.24a.73.73,0,0,0-.28-.56,1.13,1.13,0,0,0-.58,0A1.66,1.66,0,0,1,248.33,94a11.7,11.7,0,0,1-.23-2,2.28,2.28,0,0,0-.92-1.77,2.85,2.85,0,0,0-1.5-.26l-3,0c-.73,0-1.6,0-2-.65a2,2,0,0,1,.31-2.08,4.09,4.09,0,0,0,1-2,3.66,3.66,0,0,0-.86-2,3.64,3.64,0,0,1-.5-1.14l-.85,0a2.3,2.3,0,0,0,.4,2.13,3.73,3.73,0,0,1,.86,2,4.19,4.19,0,0,1-1,2,1.93,1.93,0,0,0-.31,2.08,2.22,2.22,0,0,0,2,.66l2.95,0a2.9,2.9,0,0,1,1.51.26,2.33,2.33,0,0,1,.92,1.78,10.91,10.91,0,0,0,.23,2,1.64,1.64,0,0,0,1.44,1.27,1.15,1.15,0,0,1,.58,0,.71.71,0,0,1,.27.56c.21,1.24-.17,3.55,1.13,4.24a4.52,4.52,0,0,0,4.38-.72c.44-.34.92-.8,1.46-.67s.76.8.88,1.35l.44,2a2.68,2.68,0,0,1,.06,1.29c-.2.7-.93,1.12-1.21,1.79a2.57,2.57,0,0,0,.68,2.5,7.19,7.19,0,0,0,4.12,2.44,3.07,3.07,0,0,0,1.28,0,3,3,0,0,0,1.66-1.26A2.14,2.14,0,0,1,263.84,110.07Z"/><ellipse class="cls-1" cx="81.12" cy="284.49" rx="9.63" ry="1.48"/><ellipse class="cls-1" cx="417.23" cy="246.07" rx="9.63" ry="1.48"/><ellipse class="cls-1" cx="319.1" cy="305.61" rx="27.88" ry="4.28"/><ellipse class="cls-1" cx="398.35" cy="287.49" rx="21.75" ry="3.34"/><ellipse class="cls-1" cx="394.77" cy="320.74" rx="36.88" ry="5.66"/><ellipse class="cls-1" cx="39.92" cy="325.72" rx="27.88" ry="4.28"/><path class="cls-23" d="M81.56,237.43s1.09,1.42-.5,3.58-2.91,4-2.39,5.31c0,0,2.39-4,4.38-4S83.72,239.83,81.56,237.43Z"/><path class="cls-6" d="M81.56,237.43a1.67,1.67,0,0,1,.23.44c1.91,2.25,2.92,4.34,1.09,4.38s-3.76,3.11-4.25,3.88a1.21,1.21,0,0,0,.05.18s2.39-4,4.38-4.06S83.72,239.83,81.56,237.43Z"/><path class="cls-26" d="M83.59,239.24a1.92,1.92,0,0,1-.12.91c-.07,0-.13-.4-.13-.91s.07-.26.14-.26S83.59,238.74,83.59,239.24Z"/><path class="cls-26" d="M84.29,239.84c-.44.24-.83.4-.86.33s.29-.31.74-.55.26-.06.3,0S84.73,239.6,84.29,239.84Z"/><path class="cls-23" d="M75.8,237.43s-1.09,1.42.5,3.58,2.92,4,2.39,5.31c0,0-2.39-4-4.36-4S73.64,239.83,75.8,237.43Z"/><path class="cls-6" d="M75.8,237.43a1.65,1.65,0,0,0-.22.44c-1.91,2.25-2.93,4.34-1.09,4.38s3.76,3.11,4.25,3.88a.64.64,0,0,1-.06.18s-2.39-4-4.36-4.06S73.64,239.83,75.8,237.43Z"/><path class="cls-26" d="M73.78,239.24c0,.5,0,.91.12.91s.13-.4.13-.91S74,239,73.89,239,73.78,238.74,73.78,239.24Z"/><path class="cls-26" d="M73.08,239.84c.44.24.82.4.86.33s-.3-.31-.74-.55-.27-.06-.3,0S72.64,239.6,73.08,239.84Z"/><ellipse class="cls-1" cx="78.68" cy="255.48" rx="11.4" ry="1.75"/><path class="cls-27" d="M84.55,244.4l0,.44-.08.63,0,.26-.08.63,0,.27-.08.63-.87,7.16c-.08.64-1.12,1.14-2.39,1.14H76.42c-1.25,0-2.3-.5-2.39-1.14l-.87-7.16-.07-.63,0-.27-.07-.63,0-.26-.07-.63-.06-.44c0-.37.52-.67,1.24-.67h9.27C84,243.73,84.6,244,84.55,244.4Z"/><polygon class="cls-28" points="84.5 244.84 84.42 245.47 72.94 245.47 72.87 244.84 84.5 244.84"/><polygon class="cls-28" points="84.39 245.73 84.31 246.36 73.06 246.36 72.97 245.73 84.39 245.73"/><polygon class="cls-28" points="84.28 246.63 84.2 247.25 73.16 247.25 73.09 246.63 84.28 246.63"/><path class="cls-23" d="M409.65,231.91s-1.37,6.34,4.69,7.09l.38-.71S410,233.88,409.65,231.91Z"/><path class="cls-23" d="M416.64,238.24l-1.41.3-.14,0s-3.75-3-3.71-9.86a17,17,0,0,0,1.8,2.84C414.67,233.52,416.36,236.15,416.64,238.24Z"/><path class="cls-23" d="M417.12,238.9a.89.89,0,0,1-.76.09c-3.62-.84-2.39-12.62-2.39-12.62.2.09.4,1.59,1.25,3.52C416.68,233.29,418.28,238,417.12,238.9Z"/><path class="cls-23" d="M425.14,231.91s.23,6.34-5.82,7.09l-.38-.72S424.76,233.88,425.14,231.91Z"/><path class="cls-23" d="M423.4,228.72a11.72,11.72,0,0,1-4.83,9.86l-.15,0-1.4-.3c.28-2.09,2-4.72,3.46-6.69A15.71,15.71,0,0,1,423.4,228.72Z"/><path class="cls-23" d="M418.4,238.28a2.08,2.08,0,0,1-.79.62h0a1.76,1.76,0,0,1-.3.1c-.89.21-1.2-.44-1.15-1.53.09-1.94,1.3-5.3,2.39-7.82a9.85,9.85,0,0,1,2.27-3.28S420.77,235.54,418.4,238.28Z"/><path class="cls-23" d="M417.39,222.23s-4,14.34-.56,16.48S418.28,223.5,417.39,222.23Z"/><path class="cls-6" d="M409.65,231.91s-1.37,6.34,4.69,7.09l.38-.71S410,233.88,409.65,231.91Z"/><path class="cls-6" d="M416.64,238.24l-1.41.3-.14,0s-3.75-3-3.71-9.86a17,17,0,0,0,1.8,2.84C414.67,233.52,416.36,236.15,416.64,238.24Z"/><path class="cls-6" d="M417.12,238.9a.89.89,0,0,1-.76.09c-3.62-.84-2.39-12.62-2.39-12.62.2.09.4,1.59,1.25,3.52C416.68,233.29,418.28,238,417.12,238.9Z"/><path class="cls-6" d="M425.14,231.91s.23,6.34-5.82,7.09l-.38-.72S424.76,233.88,425.14,231.91Z"/><path class="cls-6" d="M423.4,228.72a11.72,11.72,0,0,1-4.83,9.86l-.15,0-1.4-.3c.28-2.09,2-4.72,3.46-6.69A15.71,15.71,0,0,1,423.4,228.72Z"/><path class="cls-6" d="M418.4,238.28a2.08,2.08,0,0,1-.79.62h0a1.76,1.76,0,0,1-.3.1c-.89.21-1.2-.44-1.15-1.53.09-1.94,1.3-5.3,2.39-7.82a9.85,9.85,0,0,1,2.27-3.28S420.77,235.54,418.4,238.28Z"/><path class="cls-6" d="M417.39,222.23s-4,14.34-.56,16.48S418.28,223.5,417.39,222.23Z"/><path class="cls-23" d="M409.65,231.91s-.8,6.34,5.25,7.09l.38-.71S410,233.88,409.65,231.91Z"/><path class="cls-23" d="M417.21,238.24l-1.41.3-.14,0s-4.32-3-4.29-9.85c0,0,1.11,1.2,2.36,2.84C415.23,233.52,416.92,236.15,417.21,238.24Z"/><path class="cls-6" d="M417.21,238.24l-1.41.3c-1.34-1.17-1.87-4.23-2.06-7C415.23,233.52,416.92,236.15,417.21,238.24Z"/><path class="cls-23" d="M417.68,238.9a.88.88,0,0,1-.76.09c-3.61-.84-2.95-12.62-2.95-12.62a16.17,16.17,0,0,1,1.81,3.52C417.24,233.29,418.84,238,417.68,238.9Z"/><path class="cls-23" d="M425.14,231.91s.8,6.34-5.26,7.09l-.37-.71S424.76,233.88,425.14,231.91Z"/><path class="cls-23" d="M423.4,228.72c.05,6.81-4.27,9.86-4.27,9.86l-.14,0-1.41-.3c.28-2.09,2-4.72,3.46-6.69C422.3,229.92,423.4,228.72,423.4,228.72Z"/><path class="cls-6" d="M421,231.55c-.18,2.57-.65,5.41-1.79,6.73a3.19,3.19,0,0,1-.26.26l-1.41-.3C417.86,236.15,419.56,233.52,421,231.55Z"/><path class="cls-23" d="M419,238.28a2.19,2.19,0,0,1-.8.62h0a1.51,1.51,0,0,1-.3.1c-.89.21-1.19-.44-1.15-1.53.09-1.94,1.31-5.3,2.39-7.82a15.59,15.59,0,0,1,1.71-3.28S421.33,235.54,419,238.28Z"/><path class="cls-6" d="M417.68,238.9a1,1,0,0,1-.57-.19c-1.7-1.06-1.74-5-1.33-8.82C417.24,233.29,418.84,238,417.68,238.9Z"/><path class="cls-6" d="M419,238.28c-.2.43-.46.65-.8.62h0a1,1,0,0,1-.48-.18,2.61,2.61,0,0,1-1-1.25c.09-1.94,1.31-5.3,2.39-7.82C419.5,233.14,419.64,236.84,419,238.28Z"/><path class="cls-23" d="M417.39,222.23s-3.47,14.34,0,16.48S418.28,223.5,417.39,222.23Z"/><polygon class="cls-29" points="424.06 238.01 409.6 238.01 409.6 240.41 411.81 240.41 411.86 240.69 412.75 245.34 421.15 245.34 422.04 240.69 422.09 240.41 424.06 240.41 424.06 238.01"/><polygon class="cls-6" points="424.06 238.01 409.6 238.01 409.6 240.41 411.81 240.41 411.86 240.69 412.75 245.34 421.15 245.34 422.04 240.69 422.09 240.41 424.06 240.41 424.06 238.01"/><polygon class="cls-29" points="422.84 239.42 422.6 240.69 421.71 245.34 413.31 245.34 412.42 240.69 412.18 239.42 422.84 239.42"/><polygon class="cls-6" points="422.84 239.42 422.6 240.69 412.42 240.69 412.18 239.42 422.84 239.42"/><rect class="cls-29" x="410.16" y="238.01" width="14.46" height="2.39"/><path class="cls-23" d="M55.52,279a6.7,6.7,0,0,0-.91,1.71c-.06.15-.11.32-.17.48l-.31-.11a4.59,4.59,0,0,0-1.43-.12c0-.18,0-.4,0-.58.06-2.1-.19-5-2.19-3.79s-.55,3.19.69,4.46c.11.12.21.22.32.32-1.13.8-1.35,2.68-1.54,4.64s-1.84,4.09-2.95,5.3l-.31.34a4,4,0,0,0-3.2-.82l-.15-.54c-.89-3.22-2.74-8.8-5.11-10l.31-.4c1-1.31,2.14-3.26.47-3.76s-1.82,1.69-1.73,3.33c0,.2,0,.4,0,.58a2.4,2.4,0,0,0-1.74.86l-.26-.31c-1.36-1.59-3.84-4.13-4.59-2.22s1.48,4.11,3,5.45l.1.08c-1,4.19,3.47,7.6,5.9,9.09l.31.2c-3.35,3.94-5.41,11.33-5.41,11.33l9.36,1.67s6.22-5.36,5.42-10.39h.06c6.21-1.24,7.62-7.86,6.66-11.79l.11,0a7,7,0,0,0,2.87-2.17C60.94,279.33,57.31,276.6,55.52,279Z"/><path class="cls-6" d="M55.52,279a6.7,6.7,0,0,0-.91,1.71c-.06.15-.11.32-.17.48l-.31-.11a4.59,4.59,0,0,0-1.43-.12c0-.18,0-.4,0-.58.06-2.1-.19-5-2.19-3.79s-.55,3.19.69,4.46c.11.12.21.22.32.32-1.13.8-1.35,2.68-1.54,4.64s-1.84,4.09-2.95,5.3l-.31.34a4,4,0,0,0-3.2-.82l-.15-.54c-.89-3.22-2.74-8.8-5.11-10l.31-.4c1-1.31,2.14-3.26.47-3.76s-1.82,1.69-1.73,3.33c0,.2,0,.4,0,.58a2.4,2.4,0,0,0-1.74.86l-.26-.31c-1.36-1.59-3.84-4.13-4.59-2.22s1.48,4.11,3,5.45l.1.08c-1,4.19,3.47,7.6,5.9,9.09l.31.2c-3.35,3.94-5.41,11.33-5.41,11.33l9.36,1.67s6.22-5.36,5.42-10.39h.06c6.21-1.24,7.62-7.86,6.66-11.79l.11,0a7,7,0,0,0,2.87-2.17C60.94,279.33,57.31,276.6,55.52,279Z"/><path class="cls-23" d="M36.87,281.69l-1.1,3.19s-.61-.43-1.38-1.11c-1.53-1.34-3.72-3.66-3-5.44s3.24.61,4.59,2.21C36.51,281.18,36.87,281.69,36.87,281.69Z"/><path class="cls-23" d="M39.18,279.84a14.24,14.24,0,0,1-1.07,1.26,15.88,15.88,0,0,1-.19-1.69c-.1-1.64.08-3.82,1.72-3.33S40.18,278.53,39.18,279.84Z"/><path class="cls-23" d="M53.32,280.35c0,1-.13,1.9-.13,1.9A14.49,14.49,0,0,1,51.82,281c-1.24-1.28-2.61-3.27-.69-4.46S53.36,278.25,53.32,280.35Z"/><path class="cls-23" d="M59.78,281.73a7.09,7.09,0,0,1-2.88,2.17,6.48,6.48,0,0,1-1,.35l-1.29-1.81a12.27,12.27,0,0,1,.53-1.76,7,7,0,0,1,.91-1.71C57.87,276.6,61.51,279.33,59.78,281.73Z"/><path class="cls-6" d="M36,280.54c.55.64.91,1.13.91,1.13l-1.1,3.19s-.61-.43-1.38-1.11a6.36,6.36,0,0,1,1.24-2.81Z"/><path class="cls-6" d="M39.18,279.84a14.24,14.24,0,0,1-1.07,1.26,15.88,15.88,0,0,1-.19-1.69A2.22,2.22,0,0,1,39.18,279.84Z"/><path class="cls-23" d="M44.56,292.57l-2.72,1.2s-.59-.29-1.45-.83c-2.86-1.76-8.62-6.19-4.78-11.41s7.08,4.14,8.36,8.73C44.36,291.65,44.56,292.57,44.56,292.57Z"/><path class="cls-6" d="M51.8,281a2.26,2.26,0,0,1,1.5-.67c0,1-.13,1.9-.13,1.9A14.49,14.49,0,0,1,51.8,281Z"/><path class="cls-6" d="M56.91,283.9a6.91,6.91,0,0,1-1,.35l-1.3-1.81a13.73,13.73,0,0,1,.54-1.76A4.72,4.72,0,0,1,56.91,283.9Z"/><path class="cls-23" d="M50.14,295.74l-.46.08c-9.13,1.39-3-3.54-3-3.54s.4-.39,1-1c1.1-1.21,2.76-3.34,3-5.3.29-3,.62-5.74,4.11-4.93S58.78,294,50.14,295.74Z"/><rect class="cls-30" x="32.52" y="318.48" width="17.45" height="4.59"/><rect class="cls-30" x="29.75" y="303.57" width="22.8" height="16.01"/><rect class="cls-6" x="32.52" y="318.48" width="17.45" height="4.59"/><rect class="cls-6" x="29.75" y="303.57" width="22.8" height="16.01"/><rect class="cls-30" x="33.67" y="318.48" width="17.45" height="4.59"/><path class="cls-6" d="M44,290.26c.4,1.37.59,2.31.59,2.31l-2.72,1.2s-.59-.29-1.45-.83A7,7,0,0,1,44,290.26Z"/><path class="cls-6" d="M50.14,295.74l-.46.08c-9.13,1.39-3-3.54-3-3.54s.4-.39,1-1A6.07,6.07,0,0,1,50.14,295.74Z"/><path class="cls-23" d="M35.29,304.47s5.11-18.32,12.29-12.66-2.92,14.33-2.92,14.33Z"/><circle class="cls-6" cx="37.87" cy="284.4" r="0.57"/><circle class="cls-6" cx="37.82" cy="287.07" r="0.57"/><circle class="cls-6" cx="54.46" cy="284.92" r="0.57"/><circle class="cls-6" cx="41.08" cy="298.64" r="0.57"/><circle class="cls-6" cx="53.26" cy="289.37" r="0.57"/><circle class="cls-6" cx="47.34" cy="295.3" r="0.57"/><circle class="cls-6" cx="39.83" cy="285.54" r="0.57"/><circle class="cls-6" cx="52.88" cy="286.64" r="0.57"/><circle class="cls-6" cx="50.92" cy="291.09" r="0.57"/><circle class="cls-6" cx="44.9" cy="298.21" r="0.57"/><circle class="cls-6" cx="43.66" cy="295.39" r="0.57"/><circle class="cls-6" cx="40.69" cy="289.03" r="0.57"/><rect class="cls-6" x="33.67" y="318.48" width="17.45" height="1.68"/><rect class="cls-30" x="30.89" y="303.57" width="22.8" height="16.01"/><circle class="cls-6" cx="45.67" cy="300.79" r="0.57"/><circle class="cls-6" cx="42.22" cy="301.51" r="0.57"/><circle class="cls-1" cx="19.91" cy="20.71" r="4.17"/><circle class="cls-1" cx="420.01" cy="151.78" r="5.58"/><circle class="cls-1" cx="430.75" cy="139.83" r="4.07"/><circle class="cls-1" cx="27.08" cy="5.58" r="5.58"/><circle class="cls-1" cx="5.58" cy="31.07" r="5.58"/></svg>