<svg id="Layer_1" data-name="Layer 1" xmlns="http://www.w3.org/2000/svg" viewBox="0 0 421.99 302.13"><defs><style>.cls-1{fill:#f2f2f2;}.cls-2{fill:#3f3d56;}.cls-3{fill:#ffb8b8;}.cls-4{fill:#ccc;}.cls-5{fill:#fff;}.cls-6{fill:#2f2e41;}.cls-7{fill:#ee4693;}.cls-8{fill:#10c0e8;}</style></defs><title>Artboard 37</title><path class="cls-1" d="M409.51,88.54H178.59a12.27,12.27,0,0,0-12.26,12.25v37.43a12.28,12.28,0,0,0,12.26,12.26H409.51a12.27,12.27,0,0,0,12.26-12.26V100.79A12.27,12.27,0,0,0,409.51,88.54Z"/><path class="cls-2" d="M92.6,302.13H.73a.74.74,0,0,1,0-1.47H92.6a.74.74,0,1,1,0,1.47Z"/><path class="cls-3" d="M79.11,72A6.89,6.89,0,0,0,77,81.52a6.75,6.75,0,0,0,.73,1L71,96.74l7.68,6.18,9.15-20.28A6.93,6.93,0,0,0,79.11,72Z"/><path class="cls-4" d="M40.73,77.8h0a9.6,9.6,0,0,1,12.93,2.89l13.66,20.47L72.07,90.7a2.93,2.93,0,0,1,3.55-1.59l7.16,2.23A2.94,2.94,0,0,1,84.71,95a.64.64,0,0,1,0,.07l-4.9,14.48a12.5,12.5,0,0,1-18.93,6.29h0a12.3,12.3,0,0,1-2-1.76L38.67,92.58A9.59,9.59,0,0,1,39.12,79,9.1,9.1,0,0,1,40.73,77.8Z"/><path class="cls-2" d="M84.94,56.65a1.39,1.39,0,0,1,1.35,1.42l-.12,4.75.24,0-.08,3.23-.24,0-.42,17a2.39,2.39,0,0,1-2.15,2.32L72.7,86.52a1.81,1.81,0,0,1-2-1.61c0-.11,0-.21,0-.32l1.64-24.23a2.25,2.25,0,0,1,1.9-2.07l10.45-1.62h0Z"/><path class="cls-5" d="M76.57,59.18l5.49-.86a.45.45,0,0,0,.38-.4h0a.53.53,0,0,1,.44-.45L84,57.29a1.1,1.1,0,0,1,1.25.91,1.21,1.21,0,0,1,0,.19L84.7,83.06a1.26,1.26,0,0,1-1.14,1.22l-10.81,1a1,1,0,0,1-1-.88.61.61,0,0,1,0-.14l1.46-24a1.57,1.57,0,0,1,1.31-1.44l1.22-.18A.79.79,0,0,0,76.57,59.18Z"/><polygon class="cls-3" points="51.09 293.2 59.5 293.2 63.49 260.8 51.09 260.8 51.09 293.2"/><path class="cls-6" d="M75.7,301H49.3v-10.2H65.5A10.21,10.21,0,0,1,75.7,301Z"/><polygon class="cls-3" points="25.27 293.2 33.67 293.2 37.67 260.8 25.27 260.8 25.27 293.2"/><path class="cls-6" d="M49.88,301H23.47v-10.2H39.68A10.21,10.21,0,0,1,49.88,301Z"/><circle class="cls-3" cx="49.88" cy="48.73" r="18.05"/><path class="cls-6" d="M59.17,97A27.82,27.82,0,0,0,45.73,74.09c-4.66-2.75-9.76-3.82-13.82.24A28.05,28.05,0,0,0,26.15,83a37.1,37.1,0,0,0-.69,27.56l9.67,26.7,22.37,2.42a2.94,2.94,0,0,0,3.24-2.6,3.23,3.23,0,0,0,0-.44Z"/><path class="cls-6" d="M36.54,133.94S19.83,140.18,24.2,166.6c3.92,23.71.81,102.4.12,118.31a3,3,0,0,0,2.7,3l9.75.81a2.93,2.93,0,0,0,3.17-2.61l5-46.28a.73.73,0,0,1,1.46,0l3.76,44.53a2.94,2.94,0,0,0,3,2.69l8.19-.26a2.93,2.93,0,0,0,2.85-3h0L59.43,137Z"/><path class="cls-6" d="M53.5,47.54a13.56,13.56,0,0,0,16.67-6.25,13.56,13.56,0,0,0-5-17.09,13.57,13.57,0,0,0-17.41,3.71c-3-5.5-11-6.9-16.54-3.83s-8.48,9.5-8.84,15.78,1.56,12.47,3.89,18.31C30,67.62,42.17,72.71,51.55,68.78A17.39,17.39,0,0,1,53.5,47.54Z"/><path id="b77c6965-cdfc-4713-bd9a-03fafd9c7c98" class="cls-7" d="M77.83,74.2a.74.74,0,0,1-.45-.15h0L75.7,72.76a.74.74,0,1,1,.9-1.18l1.09.83,2.57-3.35a.75.75,0,0,1,1-.14h0l0,0,0,0a.76.76,0,0,1,.13,1l-3,3.94a.75.75,0,0,1-.59.29Z"/><path class="cls-2" d="M409.73,0H178.81a12.27,12.27,0,0,0-12.26,12.26V49.68a12.27,12.27,0,0,0,12.26,12.26H409.73A12.27,12.27,0,0,0,422,49.68V12.26A12.27,12.27,0,0,0,409.73,0Zm11,49.68a11,11,0,0,1-11,11H178.81a11,11,0,0,1-11-11V12.26a11,11,0,0,1,11-11H409.73a11,11,0,0,1,11,11Z"/><path class="cls-7" d="M225.8,52.31A21.34,21.34,0,1,1,247.14,31h0A21.37,21.37,0,0,1,225.8,52.31Z"/><path class="cls-4" d="M378.22,48.39H267.32a5.16,5.16,0,1,1,0-10.32h110.9a5.16,5.16,0,0,1,0,10.32Z"/><path class="cls-4" d="M304,26.45h-36.7a5.16,5.16,0,1,1,0-10.32H304a5.16,5.16,0,1,1,0,10.32Z"/><path id="b837c4e1-e336-4370-ba9c-f06fbd333d33" class="cls-5" d="M224.71,38.48a2.45,2.45,0,0,1-1.47-.49l0,0-5.53-4.23a2.46,2.46,0,0,1,3-3.91h0l3.58,2.74,8.47-11a2.44,2.44,0,0,1,3.44-.45h0l0,.07,0-.07a2.45,2.45,0,0,1,.46,3.44l-10,13a2.43,2.43,0,0,1-1.95,1Z"/><path class="cls-5" d="M310.51,100.69H79.59A12.27,12.27,0,0,0,67.33,113v37.42a12.27,12.27,0,0,0,12.26,12.26H310.51a12.27,12.27,0,0,0,12.26-12.26V113A12.27,12.27,0,0,0,310.51,100.69Z"/><path class="cls-2" d="M310.51,100.69H79.59A12.27,12.27,0,0,0,67.33,113v37.42a12.27,12.27,0,0,0,12.26,12.26H310.51a12.27,12.27,0,0,0,12.26-12.26V113A12.27,12.27,0,0,0,310.51,100.69Zm11,49.68a11,11,0,0,1-11,11H79.59a11,11,0,0,1-11-11V113a11,11,0,0,1,11-11H310.51a11,11,0,0,1,11,11Z"/><path class="cls-8" d="M126.58,153a21.34,21.34,0,1,1,21.34-21.34h0A21.37,21.37,0,0,1,126.58,153Z"/><path class="cls-4" d="M279,149.08H168.1a5.16,5.16,0,1,1,0-10.32H279a5.16,5.16,0,1,1,0,10.32Z"/><path class="cls-4" d="M204.8,127.14H168.1a5.16,5.16,0,1,1,0-10.32h36.7a5.16,5.16,0,0,1,0,10.32Z"/><path id="ae103e1a-a1d0-4366-bdbf-adaac5567630" class="cls-5" d="M125.49,139.16a2.48,2.48,0,0,1-1.46-.48l0,0-5.53-4.23a2.46,2.46,0,1,1,3-3.9h0l3.58,2.74,8.47-11a2.45,2.45,0,0,1,3.44-.46h0l0,.08,0-.08a2.47,2.47,0,0,1,.46,3.45l-10,13a2.44,2.44,0,0,1-2,1Z"/><path class="cls-3" d="M72.1,109.13a6.9,6.9,0,0,0-9,3.66A6.8,6.8,0,0,0,62.7,114l-15.52,2.66-.69,9.83,21.87-4.07a6.93,6.93,0,0,0,3.74-13.24Z"/><path class="cls-4" d="M45.44,80.92h0a9.61,9.61,0,0,1,5,12.27l-9,22.9L52.74,114a2.94,2.94,0,0,1,3.33,2l2.26,7.16a3,3,0,0,1-1.93,3.69l-.06,0-14.68,4.23a12.51,12.51,0,0,1-15.49-8.54,12.26,12.26,0,0,1-.49-3.4h0a12.72,12.72,0,0,1,.27-2.69l6.17-28.82a9.61,9.61,0,0,1,11.4-7.38A10,10,0,0,1,45.44,80.92Z"/></svg>