<svg id="Layer_1" data-name="Layer 1" xmlns="http://www.w3.org/2000/svg" viewBox="0 0 454.32 273.67"><defs><style>.cls-1{fill:#e6e6e6;}.cls-2{fill:#3f3d56;}.cls-3{fill:#2f2e41;}.cls-4{fill:#a0616a;}.cls-5{fill:#cfcce0;}.cls-6{fill:#fff;}.cls-7{fill:#ee4693;}</style></defs><title>Artboard 62</title><path class="cls-1" d="M29.79,200.38l-2.73-10.76a140.52,140.52,0,0,0-14.82-5.32l-.35,5-1.39-5.51C4.25,182,0,181.23,0,181.23s5.74,21.83,17.78,38.52l14,2.46-10.9,1.57A58.15,58.15,0,0,0,25.79,229c17.51,16.26,37,23.72,43.57,16.66s-2.34-26-19.85-42.22a74.58,74.58,0,0,0-19.08-12.27Z"/><path class="cls-1" d="M55.74,188.7,59,178.07A142.06,142.06,0,0,0,49,165.86L46.14,170l1.66-5.44c-4.43-4.75-7.66-7.62-7.66-7.62s-6.37,21.65-4.69,42.16l10.74,9.37L36,204.14a56.84,56.84,0,0,0,1.51,6.94c6.59,23,19.43,39.44,28.69,36.79s11.41-23.43,4.82-46.4a74.31,74.31,0,0,0-10-20.37Z"/><rect class="cls-2" x="0.04" y="249.47" width="454.27" height="1.15"/><path class="cls-3" d="M71.81,130.76s-3.53,42.54-4.29,51.66a64.84,64.84,0,0,1-3.8,16.71,15.64,15.64,0,0,0-1.52,6.07v38.74a2.26,2.26,0,0,0-2.28,3c.76,3,1.52,8.35,1.52,8.35H72.83a2.35,2.35,0,0,1,1.52-3c2.28-.75,0-6.83,0-6.83l12.16-45.57,18.22-38s10.64,34.18,12.92,38c0,0,8.35,42.53,9.87,46.33s2.28,3.8,1.52,5.32-.76,3,0,3.79,15.19,0,15.19,0l-3.8-53.93-6.83-64.56L98.66,126.21Z"/><path class="cls-3" d="M69.79,249.26s-3.79-13.68-9.87-3-6.08,14.43-6.08,14.43-9.87,14.43,3.8,12.91,10.64-8.35,10.64-8.35,5.31-3,5.31-5.32S69.79,249.26,69.79,249.26Z"/><path class="cls-3" d="M131.32,247.74s3.8-13.67,9.87-3,6.08,14.43,6.08,14.43,9.87,14.43-3.8,12.91-10.63-8.35-10.63-8.35-5.32-3-5.32-5.32S131.32,247.74,131.32,247.74Z"/><path class="cls-4" d="M95.62,28.22s1.52,9.88-3,12.16S102.46,51,106.25,51s10.64-7.6,10.64-7.6-3.8-11.39-3-13.67Z"/><circle class="cls-4" cx="103.98" cy="19.87" r="15.95"/><path class="cls-5" d="M135.12,52.53l-19-11.5s-10.81,12.26-22.49-1.41l-20,5.31,3,51.65s-4.56,20.51-3,24.31-3.8,5.32-2.28,6.08,0,6.07,0,6.07,29.63,15.19,62.29,3.8l-3-9.87a8,8,0,0,0-1.52-7.6s3-4.56-.76-8.35c0,0,1.52-6.84-2.28-9.88l-.76-10.63,2.28-5.32Z"/><path class="cls-3" d="M95.81,12.46s-1.9,4.12,5.71,2.47c0,0,2.85,1.65,2.85-.82,0,0,3.8,4.11,4.75,1.64s2.86.83,2.86.83l1.9-4.12,1.9,2.47h6.66S124.34-1.53,101.52.12s-11.6,27.72-11.6,27.72.19-4.68,2.09-2.21S95.81,12.46,95.81,12.46Z"/><path class="cls-4" d="M142,82.91l.76,16s3,29.63-3,42.54v6.83s-1.51,17.47-9.11,16.72,2.28-25.07,2.28-25.07l-1.52-33.42-1.52-19Z"/><path class="cls-5" d="M126.76,53.29l7.58-1.23A36.89,36.89,0,0,1,145,71.52C147.27,83.67,148,86,148,86L129.8,90.51l-9.87-19Z"/><rect class="cls-6" x="94.14" y="44.62" width="119.87" height="59.54"/><path class="cls-7" d="M107.23,48.2A14.06,14.06,0,0,0,99,46.63a14,14,0,0,0,5.23,6.52,14.07,14.07,0,0,0,8.21,1.57A14,14,0,0,0,107.23,48.2Z"/><path class="cls-7" d="M121.7,85H102.45a4.33,4.33,0,1,0,0,8.66H121.7a4.33,4.33,0,1,0,0-8.66Z"/><path class="cls-7" d="M208.85,39.24H100.94a9.56,9.56,0,0,0-9.56,9.56h0v52.57a9.56,9.56,0,0,0,9.56,9.56H208.85a9.56,9.56,0,0,0,9.56-9.56V48.8a9.56,9.56,0,0,0-9.56-9.56ZM98.27,45.76a15.06,15.06,0,0,1,9.45,1.62c4.19,2.51,5.79,7.38,5.86,7.59l.17.52-.54.1a14.22,14.22,0,0,1-2.35.17,13.89,13.89,0,0,1-7.1-1.79,15,15,0,0,1-5.86-7.59l-.17-.53ZM121.7,94.57H102.45a5.29,5.29,0,0,1,0-10.58H121.7a5.29,5.29,0,0,1,0,10.58Zm87.57-1a5.78,5.78,0,0,1-5.77,5.77H189.06a5.78,5.78,0,0,1-5.77-5.77V85a5.78,5.78,0,0,1,5.77-5.77H203.5A5.78,5.78,0,0,1,209.27,85Z"/><path class="cls-7" d="M193.63,91.93h-6.25a1.68,1.68,0,1,0,0,3.36h6.25a1.68,1.68,0,1,0,0-3.36Zm0,2.4h-6.25a.72.72,0,1,1,0-1.44h6.25a.72.72,0,0,1,0,1.44Z"/><path class="cls-7" d="M205.18,91.93h-6.25a1.68,1.68,0,1,0,0,3.36h6.25a1.68,1.68,0,1,0,0-3.36Zm0,2.4h-6.25a.72.72,0,1,1,0-1.44h6.26a.72.72,0,0,1,0,1.44Z"/><path class="cls-7" d="M193.63,87.6h-6.25a1.68,1.68,0,0,0,0,3.36h6.25a1.68,1.68,0,0,0,0-3.36Zm0,2.4h-6.25a.73.73,0,0,1-.73-.72.72.72,0,0,1,.72-.72h6.26a.73.73,0,0,1,.73.72.72.72,0,0,1-.72.72Z"/><path class="cls-7" d="M205.18,87.6h-6.25a1.68,1.68,0,0,0,0,3.36h6.25a1.68,1.68,0,0,0,0-3.36Zm0,2.4h-6.25a.73.73,0,0,1-.73-.72.72.72,0,0,1,.72-.72h6.26a.73.73,0,0,1,.73.72.72.72,0,0,1-.72.72Z"/><path class="cls-7" d="M193.63,83.27h-6.25a1.68,1.68,0,0,0,0,3.36h6.25a1.68,1.68,0,0,0,0-3.36Zm0,2.4h-6.25a.72.72,0,1,1,0-1.44h6.25a.72.72,0,1,1,0,1.44Z"/><path class="cls-7" d="M205.18,83.27h-6.25a1.68,1.68,0,0,0,0,3.36h6.25a1.68,1.68,0,0,0,0-3.36Zm0,2.4h-6.25a.72.72,0,1,1,0-1.44h6.26a.72.72,0,0,1,0,1.44Z"/><path class="cls-4" d="M62.2,73.8s-6.84,28.86,1.52,28.86S91.82,70,91.82,70,112.33,59.37,104,55.57s-19,6.07-19,6.07l-12.27,17L72.07,70Z"/><path class="cls-5" d="M78.15,49.49l-4.56-4.56s-9.11,5.32-9.87,10.64-4.56,22-4.56,22l14,1.13,4.56-6.83Z"/><path class="cls-7" d="M294,38.69c-.57-1.69-7.75-7.44-3.35-8.4l3.61,4.81,16.58-16.58,1.66,1.67Z"/><path class="cls-7" d="M294,95.06c-.57-1.69-7.75-7.43-3.35-8.4l3.61,4.81,16.58-16.58,1.66,1.67Z"/><path class="cls-7" d="M294,152.24c-.57-1.69-7.75-7.44-3.35-8.4l3.61,4.81,16.58-16.58,1.66,1.66Z"/><circle class="cls-2" cx="344.26" cy="31.83" r="5.12"/><rect class="cls-2" x="363.44" y="31.32" width="82.36" height="1.02"/><circle class="cls-2" cx="344.26" cy="88.2" r="5.12"/><rect class="cls-2" x="363.44" y="87.69" width="82.36" height="1.02"/><circle class="cls-2" cx="344.26" cy="145.38" r="5.12"/><rect class="cls-2" x="363.44" y="144.87" width="82.36" height="1.02"/><polygon class="cls-2" points="306.96 159.86 281.38 159.86 281.38 133.77 298.78 133.77 298.78 134.79 282.41 134.79 282.41 158.84 305.94 158.84 305.94 147.07 306.96 147.07 306.96 159.86"/><polygon class="cls-2" points="306.96 102.56 281.38 102.56 281.38 76.47 298.78 76.47 298.78 77.5 282.41 77.5 282.41 101.54 305.94 101.54 305.94 89.77 306.96 89.77 306.96 102.56"/><polygon class="cls-2" points="306.96 44.24 281.38 44.24 281.38 18.15 298.78 18.15 298.78 19.18 282.41 19.18 282.41 43.22 305.94 43.22 305.94 31.45 306.96 31.45 306.96 44.24"/></svg>