<svg id="Layer_1" data-name="Layer 1" xmlns="http://www.w3.org/2000/svg" viewBox="0 0 428.08 330"><defs><style>.cls-1{fill:#f2f2f2;}.cls-2{fill:#3f3d56;}.cls-3{opacity:0.1;isolation:isolate;}.cls-4{fill:#10c0e8;}.cls-5{fill:#ee4693;}.cls-6{fill:#ffb9b9;}.cls-7{fill:#2f2e41;}.cls-8{fill:#d0cde1;}</style></defs><title>Artboard 58</title><path class="cls-1" d="M4.58,134C16.37,57.51,57.08,2.28,104.88.07c25.27-1.17,51.86,12.66,71.21,61.08C210.7,147.7,174,207.51,148.36,235.93c-12.38,13.74-23.51,30.31-33.12,49.14-17.3,33.89-50.58,76-90.21,10C-3.69,247.27-3.27,185,4.58,134Z"/><rect class="cls-2" x="83.64" y="201.83" width="344.44" height="125.22"/><polygon class="cls-3" points="176.56 201.83 83.64 265.62 83.64 228.68 122.75 201.83 176.56 201.83"/><polygon class="cls-3" points="268.38 201.83 181.47 261.49 178.36 263.63 85.98 327.05 83.64 327.05 83.64 291.71 143.17 250.85 145.16 249.48 214.57 201.83 268.38 201.83"/><path class="cls-1" d="M93.77,264.84l-.93-1.17a75.28,75.28,0,0,1,24.22-11.59,76.84,76.84,0,0,1,26.47-2.74,82.47,82.47,0,0,1,32.68,9.7l-.69,1.32c-23.65-12.53-44.62-10.64-58.05-6.85A73.24,73.24,0,0,0,93.77,264.84Z"/><path class="cls-1" d="M183.59,264.25a45.24,45.24,0,0,0-14.53-.27l5.76-4.82,1.34-7.4C177.54,255.84,180.73,260.78,183.59,264.25Z"/><path class="cls-1" d="M245.81,279.36a76.81,76.81,0,0,1-21-2.93,75.55,75.55,0,0,1-24.23-11.59l.93-1.17A73.52,73.52,0,0,0,225.28,275c13.42,3.78,34.38,5.66,58-6.86l.7,1.32a82.57,82.57,0,0,1-32.68,9.7C249.47,279.3,247.64,279.37,245.81,279.36Z"/><path class="cls-1" d="M291.35,264.25a45,45,0,0,0-7.44,12.5l-1.34-7.4-5.76-4.82A45,45,0,0,0,291.35,264.25Z"/><path class="cls-1" d="M313.36,264.84l-.93-1.17a75.55,75.55,0,0,1,24.23-11.59,76.79,76.79,0,0,1,26.47-2.74,82.52,82.52,0,0,1,32.68,9.7l-.7,1.32c-23.64-12.53-44.61-10.64-58.05-6.85A73.38,73.38,0,0,0,313.36,264.84Z"/><path class="cls-1" d="M403.19,264.25a45.31,45.31,0,0,0-14.54-.27l5.77-4.82,1.34-7.4C397.14,255.84,400.33,260.78,403.19,264.25Z"/><rect class="cls-4" x="286.15" y="236.02" width="24.15" height="0.74"/><rect class="cls-4" x="286.15" y="243.45" width="24.15" height="0.74"/><rect class="cls-4" x="286.15" y="250.88" width="24.15" height="0.74"/><rect class="cls-5" x="177.65" y="279.86" width="24.15" height="0.74"/><rect class="cls-5" x="177.65" y="287.29" width="24.15" height="0.74"/><rect class="cls-5" x="177.65" y="294.72" width="24.15" height="0.74"/><rect class="cls-5" x="397.99" y="279.86" width="24.15" height="0.74"/><rect class="cls-5" x="397.99" y="287.29" width="24.15" height="0.74"/><rect class="cls-5" x="397.99" y="294.72" width="24.15" height="0.74"/><circle class="cls-5" cx="190.28" cy="268.71" r="4.83"/><circle class="cls-4" cx="298.41" cy="262.03" r="4.83"/><circle class="cls-5" cx="409.88" cy="268.71" r="4.83"/><path class="cls-2" d="M141.78,168.21l-7.2-7.72,7.72-7.19,7.19,7.71Zm-6.05-7.68,6.09,6.53,6.52-6.09-6.08-6.53Z"/><path class="cls-2" d="M314.88,77.78l-7.19-7.71,7.71-7.2,7.2,7.72Zm-6-7.67,6.08,6.53,6.53-6.09L315.36,64Z"/><path class="cls-2" d="M403.24,202.46H392.69V191.91h10.55Zm-9.74-.81h8.93v-8.93H393.5Z"/><circle class="cls-5" cx="247.01" cy="238.62" r="5.39"/><path class="cls-1" d="M247,254.18a15.56,15.56,0,1,1,15.56-15.56h0A15.58,15.58,0,0,1,247,254.18Zm0-29.92a14.36,14.36,0,1,0,14.36,14.36A14.36,14.36,0,0,0,247,224.26Z"/><rect class="cls-1" x="216.72" y="108.92" width="44.87" height="52.27"/><path class="cls-2" d="M246.33,239.31l-.62-.61a31.82,31.82,0,0,0,6.38-11.17c2.12-6.38,3.16-16.45-4-28.22-7.27-12-7.59-21.82-6.59-27.9a25.1,25.1,0,0,1,4-10.49l.69.53a24.63,24.63,0,0,0-3.85,10.15c-1,5.93-.63,15.47,6.49,27.26,7.29,12.07,6.21,22.42,4,29A32,32,0,0,1,246.33,239.31Z"/><path class="cls-2" d="M279,161.62H216.28V98.9H279Zm-61.86-.87h61v-61h-61Z"/><rect class="cls-2" x="229.35" y="117.19" width="38.33" height="0.87"/><rect class="cls-2" x="229.35" y="126.78" width="38.33" height="0.87"/><rect class="cls-2" x="229.35" y="136.36" width="38.33" height="0.87"/><polygon class="cls-6" points="63.16 288.73 61.59 303.96 70.52 302.91 71.57 290.31 63.16 288.73"/><path class="cls-7" d="M39.53,173.17S-6.17,217.29,22.72,231h8.93s19.43-32,28.89-31.52l2.62,30.47-1.57,61.46,11.55.52s6.83-31,6.31-48.32l12.08-64.09Z"/><path class="cls-7" d="M25.34,228.85l6.31,2.1s24.69-5.78,26.26-5.25l4.89,0-.16-12.57h-21Z"/><path class="cls-7" d="M71.57,300.81s-9.46-4.2-11,0-1,16.28-1,16.28a11.7,11.7,0,0,1,1,7.88c-1,4.21,4.2,6.31,11,4.21s6.83-7.36,6.83-7.36Z"/><path class="cls-7" d="M79.45,212s7.35-4.2,6.83,2.1a41.59,41.59,0,0,1-3.16,12.08s6.83,17.86,0,19.44S71,243.56,71,240.93,79.45,212,79.45,212Z"/><polygon class="cls-6" points="56.34 68.11 57.39 88.07 66.32 95.95 76.3 81.77 76.3 67.59 56.34 68.11"/><path class="cls-8" d="M63.16,88.07l-6-4.46-4,6L35.32,100.16l10.51,27.31.53,26.79s-19.44,20-7.88,22.59,52.52,8.4,54.62,3.67-2.62-53.58-2.62-53.58l1.57-41.49L76.3,79.75Z"/><path class="cls-6" d="M31.12,121.34s-4.2,29.77,3.68,29.77a36.32,36.32,0,0,0,13.66-2.63L42.15,132.2l2.63-11Z"/><path class="cls-6" d="M43.2,147.43l5.78,1s16.81-10.51,17.86-11S50,128,50,128L38,132.72Z"/><path class="cls-3" d="M50,128l-7.58,3,2.33-9.79-13.66.17s-4.2,29.77,3.68,29.77a36.32,36.32,0,0,0,13.66-2.63l0-.1.56.1s16.81-10.51,17.86-11S50,128,50,128Z"/><circle class="cls-6" cx="68.49" cy="63.07" r="15"/><path class="cls-7" d="M55.23,46.15,52.3,45S58.42,38.23,67,38.82l-2.4-2.64S70.41,33.83,75.74,40c2.8,3.24,6,7,8.06,11.33h3.14l-1.31,2.89,4.59,2.88-4.71-.52A15.88,15.88,0,0,1,85.06,64l.13,2.28s-5.45-8.44-5.45-9.61v2.93S76.81,57,76.81,55.25l-1.6,2-.8-3.23L64.55,57.3l1.6-2.64L60,55.54l2.4-3.23s-6.93,3.81-7.19,7-3.73,7.33-3.73,7.33l-1.6-2.93S47.5,50.55,55.23,46.15Z"/><path class="cls-6" d="M81.55,112.24a18.85,18.85,0,0,0-4.2,11.55l-27.84-1.05s-7.36-1-7.36,4.2v5.26s3.68-1.58,5.78,0,24.69,15.23,35.72,10,13.66-25.74,13.66-25.74S87.33,108,81.55,112.24Z"/><path class="cls-8" d="M87.85,86l4.2-.52s8.41,1,7.36,17.33-1.58,17.34-1.58,17.34-11-10-18.91-5.26Z"/><path class="cls-8" d="M37.43,100.16H35.32a19.44,19.44,0,0,0-4.2,12.08,57.93,57.93,0,0,1-1.84,13.92l16.55-2.89Z"/><rect class="cls-2" x="297.95" y="166.66" width="0.81" height="21.15"/><path class="cls-2" d="M298.36,161.74a24.34,24.34,0,0,0,3.87,7l-3.87-1.4-3.88,1.4A24.61,24.61,0,0,0,298.36,161.74Z"/><rect class="cls-2" x="200.19" y="148.33" width="0.81" height="21.15"/><path class="cls-2" d="M200.6,143.41a24.64,24.64,0,0,0,3.87,7L200.6,149l-3.87,1.41A24.64,24.64,0,0,0,200.6,143.41Z"/><rect class="cls-2" x="335.42" y="132.04" width="0.81" height="21.15"/><path class="cls-2" d="M335.83,127.12a24.72,24.72,0,0,0,3.87,7l-3.87-1.4-3.88,1.4A24.5,24.5,0,0,0,335.83,127.12Z"/></svg>