<svg id="Layer_1" data-name="Layer 1" xmlns="http://www.w3.org/2000/svg" viewBox="0 0 441.86 334.25"><defs><style>.cls-1{fill:#2f2e41;}.cls-2{fill:#ffb9b9;}.cls-3{fill:#e6e6e6;}.cls-4{fill:#fff;}.cls-5{fill:#f54394;}.cls-6{fill:#3f3d56;}.cls-7{fill:#10c0e8;}</style></defs><path class="cls-1" d="M46.31,159.82c-7.61,6.23,4.85,60.92,4.85,60.92s2.77,83.41,8.65,87.22,19-.35,24.23-1,.69-52.26-6.92-71.3-1.73-46.73-1.73-46.73l41.19,8S91.66,218,92.69,222.47s27.69,19.73,32.54,20.42,14.19-27.69,22.5-47.08S91,164,91,164l-9-17S53.93,153.59,46.31,159.82Z"/><path class="cls-1" d="M67,309.4s-2.52,8.79,0,8.79,7.11,2.51,14.23,1.67,5-9.63,0-10.88-3.77-11.3-3.77-11.3c-1.67-3.35-9.63.83-9.63.83Z"/><path class="cls-1" d="M102.64,239.49s-4.3,8.06-1.85,8.59,6.43,4,13.56,4.64,6.94-8.35,2.3-10.64-1.3-11.84-1.3-11.84c-.93-3.63-9.59-1.21-9.59-1.21Z"/><path class="cls-2" d="M51,84.88c.69,1.38-2.43,18.69-2.43,18.69l2.77,4.85s15.92-6.23,13.5-7.27S62.75,87.3,62.75,87.3,50.29,83.49,51,84.88Z"/><circle class="cls-1" cx="56.98" cy="68.99" r="21.22"/><circle class="cls-1" cx="55.51" cy="49.12" r="8.78"/><path class="cls-1" d="M59.36,53.1c.3,0,.61,0,.91,0a8.79,8.79,0,0,0,0-17.57c-.3,0-.61,0-.91.05a8.78,8.78,0,0,1,0,17.47Z"/><circle class="cls-2" cx="57.56" cy="79.34" r="14.54"/><path class="cls-3" d="M36.62,101.67c-4.5,1-12.11,12.11-12.11,12.11L36.62,125.9s8.65,32.53,9.69,33.92c6.81,9.07,37.38-11.08,37.38-11.08s-1.21-9.86-.51-14.71c.66-4.66-2.6-14-2.6-14s11.42-4.84,9-9.69S72.27,94.4,66,98.2s-18.69,0-18.69,0A97.33,97.33,0,0,1,36.62,101.67Z"/><path class="cls-2" d="M125.06,171.41s19.73,17,24.57,13.5-18.69-15.58-18.69-15.58Z"/><path class="cls-2" d="M36.45,165.53c2.77,3.11,15.92-4.85,14.23-8.38s-12.16,3.53-12.16,3.53S33.68,162.41,36.45,165.53Z"/><path class="cls-3" d="M36.62,118.63l-14.54,27s16.62,13.85,18.69,14.2-4.15,9.34-4.15,9.34-18.69-13.15-26-19.73,13.85-35.65,13.85-35.65L30.74,110Z"/><path class="cls-3" d="M78.85,117.59l17,26.3s26,29.08,29.42,30.46,7.62-5.19,7.62-5.19l-31.16-37.73L89.92,110.32l-4.49-1.73Z"/><ellipse class="cls-1" cx="56.98" cy="62.07" rx="14.64" ry="8.78"/><path class="cls-3" d="M98,251.55a1.81,1.81,0,0,0-1.81,1.8v61.72a1.81,1.81,0,0,0,1.81,1.8H308.46a1.81,1.81,0,0,0,1.81-1.8V253.35a1.81,1.81,0,0,0-1.81-1.8Z"/><path class="cls-4" d="M100.76,312.34h205V256.08h-205Z"/><path class="cls-5" d="M279.86,300.67a3,3,0,1,0,0,6h12a3,3,0,1,0,0-6h-12Z"/><rect class="cls-3" x="156.46" y="294.86" width="138.39" height="0.79"/><circle class="cls-5" cx="127.53" cy="284.21" r="17.46"/><polygon class="cls-6" points="156.68 290.45 156.24 289.8 170.62 280.21 180.48 284.94 194.67 275.88 222.88 287.92 245.35 276.88 267.17 285.72 294.59 261.44 295.11 262.03 267.33 286.64 245.38 277.74 222.91 288.78 194.74 276.77 180.54 285.84 170.68 281.12 156.68 290.45"/><path class="cls-3" d="M159,301.08a2.57,2.57,0,0,0,0,5.13h26.82a2.57,2.57,0,0,0,0-5.13Z"/><path class="cls-4" d="M134.2,276.4h2.72L131.25,282a5.31,5.31,0,0,1-7.44,0l-5.68-5.62h2.73l4.31,4.27a3.36,3.36,0,0,0,4.72,0ZM120.83,292H118.1l5.71-5.65a5.29,5.29,0,0,1,7.44,0L137,292h-2.73l-4.34-4.3a3.36,3.36,0,0,0-4.72,0Z"/><path class="cls-3" d="M125.44,53.88a1.81,1.81,0,0,0-1.81,1.81V117.4a1.81,1.81,0,0,0,1.81,1.81H335.86a1.81,1.81,0,0,0,1.81-1.81V55.69a1.81,1.81,0,0,0-1.81-1.81Z"/><path class="cls-4" d="M128.16,114.67h205V58.41h-205Z"/><path class="cls-5" d="M307.27,103a3,3,0,0,0,0,6h12a3,3,0,0,0,0-6Z"/><rect class="cls-3" x="183.86" y="97.19" width="138.39" height="0.79"/><circle class="cls-5" cx="154.93" cy="86.54" r="17.46"/><polygon class="cls-6" points="184.08 92.78 183.64 92.13 198.02 82.54 207.88 87.28 222.07 78.21 222.26 78.3 250.28 90.25 272.75 79.21 294.57 88.06 321.99 63.77 322.51 64.36 294.73 88.97 272.78 80.08 250.31 91.12 222.14 79.1 207.94 88.18 198.09 83.45 184.08 92.78"/><path class="cls-3" d="M186.42,103.41a2.57,2.57,0,0,0,0,5.13h26.81a2.57,2.57,0,1,0,0-5.13Z"/><path class="cls-4" d="M162,84.51c.33-2.19-1.33-3.36-3.61-4.15l.74-3-1.8-.44-.72,2.88-1.44-.34.72-2.9-1.8-.45-.74,3-1.15-.27h0l-2.48-.62-.48,1.92s1.34.31,1.31.33a1,1,0,0,1,.84,1l-.84,3.37.19.06-.19,0-1.18,4.72a.66.66,0,0,1-.82.43h0s-1.31-.33-1.31-.33l-.89,2.06,2.34.59,1.29.33-.75,3,1.8.45.74-3,1.43.37-.73,2.95,1.8.45.75-3c3.07.58,5.38.35,6.35-2.43.78-2.24,0-3.53-1.66-4.37a2.86,2.86,0,0,0,2.3-2.64Zm-4.11,5.77c-.56,2.23-4.32,1-5.55.72l1-4c1.22.3,5.14.9,4.56,3.24Zm.55-5.81c-.5,2-3.64,1-4.66.75l.9-3.6c1,.26,4.29.73,3.76,2.85Z"/><path class="cls-3" d="M208.22,152.71a1.82,1.82,0,0,0-1.81,1.81v61.71a1.82,1.82,0,0,0,1.81,1.81H418.65a1.81,1.81,0,0,0,1.81-1.81V154.52a1.81,1.81,0,0,0-1.81-1.81Z"/><path class="cls-4" d="M211,213.51h205V157.25H211Z"/><path class="cls-7" d="M390.05,201.84a3,3,0,1,0,0,6h12a3,3,0,0,0,0-6h-12Z"/><rect class="cls-3" x="266.64" y="196.02" width="138.39" height="0.79"/><circle class="cls-7" cx="237.72" cy="185.38" r="17.46" transform="matrix(0.16, -0.99, 0.99, 0.16, 16.65, 390.33)"/><polygon class="cls-6" points="266.86 191.62 266.43 190.96 280.81 181.38 290.67 186.11 304.85 177.05 305.04 177.13 333.07 189.08 355.54 178.04 377.36 186.89 404.77 162.61 405.3 163.2 377.51 187.81 355.57 178.91 333.09 189.95 304.93 177.94 290.72 187.01 280.87 182.28 266.86 191.62"/><path class="cls-3" d="M269.21,202.25a2.56,2.56,0,0,0,0,5.12H296a2.56,2.56,0,0,0,0-5.12Z"/><polygon class="cls-4" points="237.71 196.88 244.78 186.93 237.71 191.1 237.71 191.1 230.65 186.93 237.71 196.88 237.71 196.88 237.71 196.88 237.71 196.88 237.71 196.88"/><polygon class="cls-4" points="237.71 189.76 237.71 189.76 237.71 189.76 237.71 189.76 244.78 185.59 237.71 173.87 237.71 173.87 237.71 173.87 237.71 173.87 237.71 173.87 230.65 185.59 237.71 189.76"/></svg>