<svg id="Layer_1" data-name="Layer 1" xmlns="http://www.w3.org/2000/svg" viewBox="0 0 441.86 334.25"><defs><style>.cls-1{fill:#3f3d56;}.cls-2{fill:#f54394;}.cls-3{fill:#10c0e8;}.cls-4{opacity:0.3;}.cls-4,.cls-5{isolation:isolate;}.cls-5{opacity:0.1;}.cls-6{fill:#a0616a;}.cls-7{fill:#2f2e41;}.cls-8{fill:#d0cde1;}.cls-9{fill:#fff;}</style></defs><path class="cls-1" d="M219.47,267.51a105.26,105.26,0,1,1,74.43-30.83A105.26,105.26,0,0,1,219.47,267.51Zm0-209.84A104.58,104.58,0,1,0,324.05,162.25,104.7,104.7,0,0,0,219.47,57.67Z"/><path class="cls-2" d="M228.34,255.89c-2,7.2-8.63,11.66-8.63,11.66s-3.51-7.22-1.56-14.42,8.62-11.67,8.62-11.67S230.29,248.68,228.34,255.89Z"/><path class="cls-2" d="M210.61,255.89c1.95,7.2,8.62,11.66,8.62,11.66s3.52-7.22,1.57-14.42-8.63-11.67-8.63-11.67S208.66,248.68,210.61,255.89Z"/><path class="cls-1" d="M213.47,254.34c5.35,5.2,6,13.21,6,13.21s-8-.44-13.36-5.65-6-13.21-6-13.21S208.12,249.13,213.47,254.34Z"/><path class="cls-1" d="M225.47,254.34c-5.34,5.2-6,13.21-6,13.21s8-.44,13.37-5.65,6-13.21,6-13.21S230.82,249.13,225.47,254.34Z"/><path class="cls-3" d="M210.61,69c1.95-7.21,8.62-11.67,8.62-11.67s3.52,7.22,1.57,14.43-8.63,11.66-8.63,11.66S208.66,76.21,210.61,69Z"/><path class="cls-3" d="M228.34,69c-2-7.21-8.63-11.67-8.63-11.67s-3.51,7.22-1.56,14.43,8.62,11.66,8.62,11.66S230.29,76.21,228.34,69Z"/><path class="cls-1" d="M225.47,70.56c-5.34-5.21-6-13.21-6-13.21s8,.43,13.37,5.64,6,13.21,6,13.21S230.82,75.76,225.47,70.56Z"/><path class="cls-1" d="M213.47,70.56c5.35-5.21,6-13.21,6-13.21s-8,.43-13.36,5.64-6,13.21-6,13.21S208.12,75.76,213.47,70.56Z"/><rect class="cls-2" x="34.2" y="32.32" width="136.27" height="138.58"/><polygon class="cls-1" points="165.32 35.84 43.93 35.84 37.05 35.84 37.05 43.21 37.05 165.59 43.93 165.59 43.93 43.21 165.32 43.21 165.32 35.84"/><polygon class="cls-4" points="165.32 35.84 43.93 35.84 37.05 35.84 37.05 43.21 37.05 165.59 43.93 165.59 43.93 43.21 165.32 43.21 165.32 35.84"/><polygon class="cls-5" points="145.66 43.21 140.26 43.21 43.93 43.21 43.93 60.9 140.26 60.9 140.26 165.59 165.32 165.59 165.32 43.21 145.66 43.21"/><path class="cls-1" d="M29.18,28V173.45h144V28ZM165.32,165.59H37V35.84H165.32Z"/><path class="cls-6" d="M130.24,178.81s6.51,12.62,10.18,15.47-5.91,6.31-5.91,6.31l-11.19-17.5Z"/><path class="cls-7" d="M90.76,148.09s30.32,7.93,33,13.22,10.78,18.11,10.78,18.11l-12,9.57-11.8-17.7L78.15,156.63Z"/><path class="cls-7" d="M133.5,195.5s-2.85-2.44-3.67-.81-3.25,10-3.25,10,3.46,3.25,10.58,1.22c0,0,1.83-1.43,4.68,0s13.43-1.43,13-6.11-11.19-4.27-11.19-4.27-4.54-5.09-5.12-3.15.24,2.13.24,2.13S135.13,198.35,133.5,195.5Z"/><path class="cls-6" d="M98.7,191.23l-2,17.09h10s-.82-13.23-.61-14.85S98.7,191.23,98.7,191.23Z"/><path class="cls-6" d="M104.4,153.58s5.49,8.14,2.24,8.75-5.9-8.75-5.9-8.75Z"/><path class="cls-7" d="M62.89,152.77s-4.07,12,12,15.26,21,5.9,21,5.9l2,20.76,14,.81s6.71-31.54-2-35.61-27.27-8.75-27.27-8.75Z"/><path class="cls-7" d="M97.89,205.67a26.05,26.05,0,0,1,3.25-1.42s1.79-4.13,5.07-3.69L113.35,211s10.79,7.73,3.26,9.76a27.78,27.78,0,0,1-13.43.41l-3.06-2.24s.41-2.24-2.23-1.83c0,0-5.5-2.24-5.29-3.87s4.52-8.71,4.52-8.71Z"/><circle class="cls-6" cx="99.62" cy="105.05" r="8.14"/><path class="cls-6" d="M93,102.51s-7.32,5.29-8.75,5.49S91,118.17,91,118.17s3.86-6.3,6.31-7.12S93,102.51,93,102.51Z"/><path class="cls-8" d="M87.51,109.22s-3.05-4.07-4.89-4.07S64.31,107,62.89,120.62s-.61,37.44-.61,37.44-1.23-5.9,12.41-3.46c0,0,16.28-3.46,19.13-3.46S97.89,122,97.89,122l-4.64-7.18S91.17,118.78,87.51,109.22Z"/><path class="cls-8" d="M94.83,120.41,97.89,122l3.66,22.38,5.09,11.6s-5.5-1.89-5.9.38L92.6,144.63Z"/><path class="cls-7" d="M97.79,98.37l4.42.56c-.08.9-.06,2,.74,2.44.38.2.85.19,1.19.46.8.63,0,2,.47,2.92l1.29.35a2.49,2.49,0,0,0,3.39,1h0a4.88,4.88,0,0,0,1.71-2.46,6.24,6.24,0,0,0,.71-3.51c-.25-1.28-1.3-2.34-1.34-3.64,0-.59.1-1.31-.39-1.63a2.26,2.26,0,0,0-.72-.19c-1.13-.23-1.76-1.4-2.61-2.19-1.77-1.66-4.48-1.62-6.9-1.47a6.1,6.1,0,0,0-2,.35,5.8,5.8,0,0,0-1.91,1.53,20,20,0,0,0-3.42,4.52,8.09,8.09,0,0,0-.81,5.51c0-.18,1.5-1.34,1.69-1.52a4.11,4.11,0,0,0,1-1.53C95,98.32,96.07,98.16,97.79,98.37Z"/><polygon class="cls-5" points="84.76 124.58 85.37 138.83 94.42 149.44 86.19 137.61 84.76 124.58"/><polygon class="cls-5" points="68.48 128.45 75.61 144.93 84.76 152.46 74.99 145.75 68.48 128.45"/><path class="cls-1" d="M107.17,141.81l4.3,3a1.19,1.19,0,0,1,.33,1.46l-.57,1.19.13.09-.65,1.35-.14-.09-4.74,9.78a.91.91,0,0,1-1.18.53.51.51,0,0,1-.18-.09l-4-2.78a1.38,1.38,0,0,1-.38-1.68l6-12.36a.77.77,0,0,1,1-.44Z"/><polygon class="cls-9" points="100.49 154.42 105.12 157.6 111.16 145.13 106.53 141.95 100.49 154.42"/><path class="cls-6" d="M98.48,151.67s8.07,5.6,5.26,7.35-8.68-6-8.68-6Z"/><path class="cls-8" d="M74.49,110.24S63.9,113.29,67,122.65c.73,2.26,1.62,4.68,2.55,7.06,2.92,7.48,6.2,14.51,6.2,14.51l9.19,8.32L97.28,156l1.42-1.22s.41-3.86-1.42-4.27a22.47,22.47,0,0,1-4.68-2l-7.33-10.78S85.07,110.85,74.49,110.24Z"/><rect class="cls-3" x="275.61" y="135.24" width="133.03" height="135.28"/><polygon class="cls-1" points="280.64 138.68 399.14 138.68 405.86 138.68 405.86 145.87 405.86 265.34 399.14 265.34 399.14 145.87 280.64 145.87 280.64 138.68"/><polygon class="cls-4" points="280.64 138.68 399.14 138.68 405.86 138.68 405.86 145.87 405.86 265.34 399.14 265.34 399.14 145.87 280.64 145.87 280.64 138.68"/><polygon class="cls-5" points="299.83 145.87 305.11 145.87 399.14 145.87 399.14 163.15 305.11 163.15 305.11 265.34 280.64 265.34 280.64 145.87 299.83 145.87"/><path class="cls-1" d="M273,131V273H413.54V131Zm7.68,7.68H405.86V265.34H280.64Z"/><path class="cls-7" d="M355.1,198c-3-5.12-9-5.36-9-5.36s-5.84-.74-9.58,7.05c-3.49,7.26-8.31,14.27-.78,16l1.36-4.24.84,4.55a29,29,0,0,0,3.23.06c8.06-.26,15.74.07,15.49-2.82C356.32,209.32,358,202.88,355.1,198Z"/><polygon class="cls-6" points="333.28 239.24 332.65 250.7 351.33 252.61 351.96 240.72 345.6 236.69 333.28 239.24"/><path class="cls-7" d="M383.49,264.39c-.56-5.41-22.8-7.87-28.15-8.38l-2-1.17-.63-6.79s-19.74-1.7-21.23-1.91-2.76,2.54-2.76,3.18a15.21,15.21,0,0,1-1.39,5.7c-2.41,1.93-9.75,8-9.75,10.33,0,2.76,5.83,37.47,5.83,37.47l.64,7.21,5.94,1.06-.42-22.5s2.12-12.95-.85-16.56v-1.48s8.72-2.27,11.79-4.75a12.23,12.23,0,0,1,4.77-.25c.19.11.41.23.65.34l.09.09,0,0c4,1.86,14.17,4.2,18.34,3.54a14.53,14.53,0,0,1,9.34,1.7c-2.33,3-.63,11.46-.63,11.46l.21,18.25,3,3.61h4v-10S384.13,270.55,383.49,264.39Z"/><circle class="cls-6" cx="344.22" cy="204.95" r="7.01"/><path class="cls-6" d="M340,209.41s1.06,4.67-.42,5.1a19.76,19.76,0,0,0-3.4,1.48l-1.7,5.52V227L355,229.37l.64-1.91V224.7l-2.34-4.25-1.06-1.06s-4.67-5.1-3.61-10Z"/><path class="cls-6" d="M358.33,226.29s.64,7.43,0,10.82a47.65,47.65,0,0,0-.42,8.5l-4.67-.85V233.29l1.06-6.15Z"/><circle class="cls-7" cx="346.82" cy="192.63" r="4.33"/><path class="cls-7" d="M342,191.49a4.34,4.34,0,0,1,3.88-4.31l-.46,0a4.33,4.33,0,1,0,0,8.66,3.55,3.55,0,0,0,.46,0A4.33,4.33,0,0,1,342,191.49Z"/><polygon class="cls-7" points="353.76 197.46 347.85 194.36 339.68 195.63 337.99 203.1 342.19 202.94 343.37 200.19 343.37 202.89 345.31 202.81 346.44 198.45 347.14 203.1 354.05 202.96 353.76 197.46"/><path class="cls-8" d="M329.66,302.9s3,1.42,3.9,2,4.43-.53,3.72,2.66-3.72,6.2-3.72,6.2-1.42,1.6-1.42,2.66-3.54,9.21-7.79,8.86-3.55-4.61-3.55-4.61l.89-4.6s1.77-7.8,2.13-7.62a7.67,7.67,0,0,1,1.24,1.41A7.84,7.84,0,0,0,329.66,302.9Z"/><path class="cls-8" d="M373.84,297.6s-3,1.41-3.9,1.95-4.43-.54-3.72,2.65,3.72,6.21,3.72,6.21,1.42,1.59,1.42,2.65,3.54,9.22,7.8,8.86,3.54-4.6,3.54-4.6l-.88-4.61s-1.78-7.8-2.13-7.62a7.61,7.61,0,0,0-1.24,1.42A7.86,7.86,0,0,1,373.84,297.6Z"/><path class="cls-8" d="M350.49,247.09v-1.68h-.38v-.75a1.3,1.3,0,0,0-1.31-1.31h-4.49a1.31,1.31,0,0,0-1.31,1.31h0V257.2a1.31,1.31,0,0,0,1.31,1.31h4.49a1.31,1.31,0,0,0,1.31-1.31v-7.86h.38v-1.69h-.38v-.56Z"/><circle class="cls-1" cx="346.74" cy="247.09" r="0.75"/><path class="cls-6" d="M328,222.68l-3.82,15.71a4.42,4.42,0,0,0,1.91,5.52c3.39,2.12,11,4.88,11,4.88s6.8,9.34,7.65,5.52-5.1-8.7-5.1-8.7L329.25,239l4-11Z"/><path class="cls-6" d="M355.57,242.42s3.19-.42,3,3.19-4.46,4-4.46,4-1.91,8.07-4.67,6.58,1.48-9.55,1.48-9.55l3.61-2.76Z"/><path class="cls-7" d="M335.09,221.3l3.39-7-6.79,2.34a7.85,7.85,0,0,0-4,6.37c-.21,4.46,4.88,6.79,4.88,6.79s.85,6.37.43,7.22,0,4.24,0,4.24,8.17-2.23,12.2.53S352.5,243,352.5,243s-.22-5.31,1.48-6.15,3.19-4.89,1.7-7.43c0,0,3.4.42,3.18-2.76a8.34,8.34,0,0,0-4.67-7.22c-2.76-1.28-3.06-1.48-3.06-1.48l3.91,7.21V227s-6.93-4.42-13.78-4.79a9.14,9.14,0,0,0-6.17,2h0Z"/></svg>