<svg id="Layer_1" data-name="Layer 1" xmlns="http://www.w3.org/2000/svg" xmlns:xlink="http://www.w3.org/1999/xlink" viewBox="0 0 424.89 229.59"><defs><style>.cls-1,.cls-4{opacity:0.1;}.cls-2{fill:#3f3d56;}.cls-3{fill:#f54394;}.cls-4,.cls-5{isolation:isolate;}.cls-5{opacity:0.15;}.cls-6{fill:none;stroke:#3f3d56;stroke-miterlimit:10;stroke-width:1.26px;}.cls-7{fill:#10c0e8;}.cls-8{fill:url(#linear-gradient);}.cls-9{fill:#2f2e41;}.cls-10{fill:#fbbebe;}.cls-11{fill:#e8e8f0;}.cls-12{fill:#f86d70;}</style><linearGradient id="linear-gradient" x1="238.98" y1="-9434.11" x2="238.98" y2="-9383.67" gradientTransform="matrix(1, 0, 0, -1, -28.5, -9222.09)" gradientUnits="userSpaceOnUse"><stop offset="0" stop-color="gray" stop-opacity="0.25"/><stop offset="0.54" stop-color="gray" stop-opacity="0.12"/><stop offset="1" stop-color="gray" stop-opacity="0.1"/></linearGradient></defs><g class="cls-1"><ellipse class="cls-2" cx="296.7" cy="207.41" rx="6.98" ry="9.13"/><path class="cls-2" d="M302.23,168.34a11.17,11.17,0,0,0,1.47-5.59c0-5.05-3.13-9.13-7-9.13s-7,4.09-7,9.13a11,11,0,0,0,1.46,5.59,11.38,11.38,0,0,0,0,11.16,11.38,11.38,0,0,0,0,11.16,11,11,0,0,0-1.46,5.59c0,5.05,3.12,9.13,7,9.13s7-4.09,7-9.13a11.16,11.16,0,0,0-1.46-5.59,11.43,11.43,0,0,0,0-11.16,11.43,11.43,0,0,0,0-11.16Z"/><ellipse class="cls-2" cx="296.7" cy="151.59" rx="6.98" ry="9.13"/><ellipse class="cls-2" cx="296.7" cy="140.42" rx="6.98" ry="9.13"/><path class="cls-3" d="M322.83,64a33,33,0,0,0,2.59-3.83l-18.32-3,19.83.15a33.48,33.48,0,0,0,.63-26.48L301,44.64l24.55-18a33.43,33.43,0,0,0-57.85,33.52A32,32,0,0,0,270.28,64a34,34,0,0,0-3.81,6.09l23.8,12.37L264.9,74a33.43,33.43,0,0,0,5.37,31.39,33.42,33.42,0,1,0,52.54,0,33.42,33.42,0,0,0,0-41.33Z"/><path class="cls-4" d="M263.13,84.69a33.32,33.32,0,0,0,7.15,20.66,33.43,33.43,0,1,0,52.55,0C327.31,99.66,263.13,80.93,263.13,84.69Z"/></g><g class="cls-1"><ellipse class="cls-2" cx="100.95" cy="201.22" rx="4.25" ry="5.56"/><path class="cls-2" d="M104.33,177.43a6.76,6.76,0,0,0,.88-3.4c0-3.07-1.89-5.56-4.25-5.56S96.72,171,96.72,174a6.66,6.66,0,0,0,.88,3.4,7,7,0,0,0,0,6.79,7,7,0,0,0,0,6.8,6.64,6.64,0,0,0-.88,3.4c0,3.07,1.89,5.56,4.24,5.56s4.25-2.49,4.25-5.56a6.64,6.64,0,0,0-.88-3.4,7,7,0,0,0,0-6.8,7,7,0,0,0,0-6.79Z"/><ellipse class="cls-2" cx="100.95" cy="167.23" rx="4.25" ry="5.56"/><ellipse class="cls-2" cx="100.95" cy="160.44" rx="4.25" ry="5.56"/><path class="cls-3" d="M85.05,113.92a20.29,20.29,0,0,1-1.58-2.33l11.17-1.83-12.08.09a20.45,20.45,0,0,1-.39-16.11l16.19,8.41-14.94-11a20.35,20.35,0,0,1,35.21,20.42,19.84,19.84,0,0,1-1.6,2.35,20.06,20.06,0,0,1,2.32,3.71l-14.49,7.53L120.31,120A20.34,20.34,0,0,1,117,139.08a20.35,20.35,0,1,1-32,0,20.34,20.34,0,0,1,0-25.16Z"/><path class="cls-4" d="M121.39,126.5A20.27,20.27,0,0,1,117,139.08a20.35,20.35,0,1,1-32,0C82.32,135.64,121.39,124.22,121.39,126.5Z"/></g><g class="cls-1"><ellipse class="cls-2" cx="196.68" cy="204.18" rx="5.68" ry="7.44"/><path class="cls-2" d="M201.18,172.34a9,9,0,0,0,1.19-4.55c0-4.11-2.53-7.44-5.69-7.44s-5.69,3.33-5.69,7.44a9,9,0,0,0,1.19,4.55,9.33,9.33,0,0,0,0,9.1,9.31,9.31,0,0,0,0,9.09,9.1,9.1,0,0,0-1.19,4.55c0,4.11,2.55,7.44,5.69,7.44s5.69-3.33,5.69-7.44a9.1,9.1,0,0,0-1.19-4.55,9.31,9.31,0,0,0,0-9.09A9.33,9.33,0,0,0,201.18,172.34Z"/><ellipse class="cls-2" cx="196.68" cy="158.7" rx="5.68" ry="7.44"/><ellipse class="cls-2" cx="196.68" cy="149.6" rx="5.68" ry="7.44"/><path class="cls-3" d="M175.42,87.36a26.34,26.34,0,0,1-2.12-3.12l14.93-2.45-16.15.12a27.3,27.3,0,0,1-.52-21.58l21.68,11.25-20-14.7a27.23,27.23,0,1,1,47.2,27.17,26.34,26.34,0,0,1-2.24,3.31,26.85,26.85,0,0,1,3.1,5L201.93,102.4l20.67-7A27.24,27.24,0,0,1,218.21,121a27.23,27.23,0,1,1-42.81,0,27.26,27.26,0,0,1,0-33.67Z"/><path class="cls-4" d="M224,104.2A27.12,27.12,0,0,1,218.21,121a27.23,27.23,0,1,1-42.81,0C171.75,116.4,224,101.14,224,104.2Z"/></g><path class="cls-2" d="M392.32,211c0,2.17-15.87,4.15-42.1,5.69q-7.16.41-15.31.78-7,.32-14.72.6-7.47.25-15.5.49c-16.92.48-35.62.83-55.49,1q-7.23.08-14.66.11-7.72,0-15.64,0c-95.78,0-173.42-3.89-173.42-8.69s77.64-8.69,173.42-8.69c41.23,0,79.1.72,108.86,1.92l3.26.14h0C368.53,205.92,392.32,208.31,392.32,211Z"/><path class="cls-5" d="M392.32,211c0,2.17-15.87,4.15-42.1,5.69q-7.16.41-15.31.78-7,.32-14.72.6-7.47.25-15.5.49c-16.92.48-35.62.83-55.49,1q-7.23.08-14.66.11-7.72,0-15.64,0c-95.78,0-173.42-3.89-173.42-8.69s77.64-8.69,173.42-8.69c41.23,0,79.1.72,108.86,1.92l3.26.14h0C368.53,205.92,392.32,208.31,392.32,211Z"/><path class="cls-2" d="M378,209.42c0,1.81-15.86,3.47-42.1,4.74-4.76.23-9.88.45-15.3.65q-7,.27-14.73.5-7.45.23-15.5.42c-16.92.4-35.62.69-55.49.84l-14.65.08q-7.74,0-15.65,0c-95.78,0-173.42-3.25-173.42-7.27s77.64-7.27,173.42-7.27c41.24,0,79.1.61,108.87,1.61l3.25.11h0C354.25,205.21,378,207.2,378,209.42Z"/><path class="cls-2" d="M76,143.41l-4.35-13.33,104.26-1.14,4.28,13.19Z"/><path class="cls-5" d="M76,143.41l-4.35-13.33,104.26-1.14,4.28,13.19Z"/><path class="cls-2" d="M69,143.41l-4.35-13.33,104.26-1.14,4.27,13.19Z"/><path class="cls-2" d="M247,122.92q-16.19,0-25.49-12.83T212.21,79q0-18.39,9-31T246.64,35.3q17.4,0,26.23,13.33t8.82,30.86q0,17.4-9.13,30.42T247,122.92Zm.31-9.62q10.63,0,15.9-9.28t5.27-23.38q0-15.7-5.39-25.71t-16.52-10q-21.18,0-21.17,33.63,0,34.75,21.91,34.76Zm3.55,92.19H235.29L337.37,37h15.3Zm90.31,1.73q-16.41,0-25.59-13t-9.22-31.1q0-18.27,8.95-30.92t25.48-12.64q17.28,0,26.05,13.33t8.76,30.86q0,17.28-9.07,30.36t-25.37,13.07Zm.18-9.88q10.59,0,15.82-9.11t5.23-23.29q0-15.16-5.29-25.44t-16.49-10.28q-21.3,0-21.3,33.63,0,34.5,22,34.49Z"/><path class="cls-2" d="M247,122.92q-16.19,0-25.49-12.83T212.21,79q0-18.39,9-31T246.64,35.3q17.4,0,26.23,13.33t8.82,30.86q0,17.4-9.13,30.42T247,122.92Zm.31-9.62q10.63,0,15.9-9.28t5.27-23.38q0-15.7-5.39-25.71t-16.52-10q-21.18,0-21.17,33.63,0,34.75,21.91,34.76Zm3.55,92.19H235.29L337.37,37h15.3Zm90.31,1.73q-16.41,0-25.59-13t-9.22-31.1q0-18.27,8.95-30.92t25.48-12.64q17.28,0,26.05,13.33t8.76,30.86q0,17.28-9.07,30.36t-25.37,13.07Zm.18-9.88q10.59,0,15.82-9.11t5.23-23.29q0-15.16-5.29-25.44t-16.49-10.28q-21.3,0-21.3,33.63,0,34.5,22,34.49Z"/><path class="cls-5" d="M247,122.92q-16.19,0-25.49-12.83T212.21,79q0-18.39,9-31T246.64,35.3q17.4,0,26.23,13.33t8.82,30.86q0,17.4-9.13,30.42T247,122.92Zm.31-9.62q10.63,0,15.9-9.28t5.27-23.38q0-15.7-5.39-25.71t-16.52-10q-21.18,0-21.17,33.63,0,34.75,21.91,34.76Zm3.55,92.19H235.29L337.37,37h15.3Zm90.31,1.73q-16.41,0-25.59-13t-9.22-31.1q0-18.27,8.95-30.92t25.48-12.64q17.28,0,26.05,13.33t8.76,30.86q0,17.28-9.07,30.36t-25.37,13.07Zm.18-9.88q10.59,0,15.82-9.11t5.23-23.29q0-15.16-5.29-25.44t-16.49-10.28q-21.3,0-21.3,33.63,0,34.5,22,34.49Z"/><path class="cls-2" d="M237.22,122.92q-16.17,0-25.49-12.83T202.41,79q0-18.39,9-31T236.85,35.3q17.4,0,26.22,13.33t8.83,30.86q0,17.4-9.13,30.42T237.22,122.92Zm.32-9.62q10.64,0,15.9-9.28t5.26-23.38q0-15.7-5.38-25.71t-16.53-10q-21.16,0-21.17,33.63,0,34.75,21.91,34.76Zm3.55,92.19H225.5L327.58,37h15.29Zm90.31,1.73q-16.42,0-25.6-13t-9.21-31.1q0-18.27,8.94-30.92T331,119.6q17.28,0,26,13.33t8.77,30.86q0,17.28-9.08,30.36t-25.36,13.07Zm.18-9.88q10.59,0,15.82-9.11t5.22-23.29q0-15.16-5.29-25.44t-16.49-10.28q-21.3,0-21.3,33.63,0,34.5,22,34.49Z"/><path class="cls-6" d="M271.33,209.72c1.3-2.42-.18-5.37-1.88-7.53s-3.77-4.39-3.72-7.14c.06-3.94,4.24-6.27,7.58-8.36a37.09,37.09,0,0,0,6.82-5.48,9.91,9.91,0,0,0,2.09-2.8,11.46,11.46,0,0,0,.63-5q-.21-8.44-.83-16.86"/><path class="cls-3" d="M288.38,156.26a6.16,6.16,0,0,0-3.07-5l-1.38,2.72,0-3.3a6.25,6.25,0,0,0-2-.24,6.15,6.15,0,1,0,6.43,5.86Z"/><path class="cls-3" d="M277.41,197.88a6.15,6.15,0,1,1,.3-4.95l-3.84,3.12,4.23-1A6.11,6.11,0,0,1,277.41,197.88Z"/><path class="cls-3" d="M274.38,185.93a6.15,6.15,0,0,1-6.43-5.85h0a6,6,0,0,1,.53-2.8,6.12,6.12,0,0,1,3.94-3.41l0,2.53,1.39-2.76h0a6.15,6.15,0,0,1,.58,12.28h0Z"/><path class="cls-7" d="M289.3,176a6.15,6.15,0,0,1-.81-12.27h.24a6,6,0,0,1,3.29.78l-1.09,3,2.24-2.14a6.09,6.09,0,0,1,2,4.24,6,6,0,0,1-.15,1.69A6.15,6.15,0,0,1,289.3,176Z"/><path class="cls-4" d="M287.55,157.9c-1.42.15-2.8.59-4.22.68a4.57,4.57,0,0,1-3.89-1.36,17.82,17.82,0,0,1-1.14-2,4.34,4.34,0,0,0-1.55-1.46,6.15,6.15,0,1,0,11,5.56,6.09,6.09,0,0,0,.53-1.48C288,157.86,287.78,157.87,287.55,157.9Z"/><path class="cls-4" d="M289.3,176a6.16,6.16,0,0,1-6.43-5.86,6.35,6.35,0,0,1,.58-2.91,4.57,4.57,0,0,1,1.24,1.24,18.81,18.81,0,0,0,1.22,2,5,5,0,0,0,4.08,1.43c1.48-.07,2.91-.49,4.39-.63l.63,0A6.15,6.15,0,0,1,289.3,176Z"/><path class="cls-4" d="M274.38,185.93a6.15,6.15,0,0,1-6.43-5.85h0a6,6,0,0,1,.53-2.8,4.72,4.72,0,0,1,1.3,1.26,19.66,19.66,0,0,0,1.33,2.07,5.7,5.7,0,0,0,4.35,1.53c1.57,0,3-.41,4.51-.52A6.16,6.16,0,0,1,274.38,185.93Z"/><path class="cls-4" d="M277.41,197.88a6.15,6.15,0,0,1-11.21-5,6.23,6.23,0,0,1,1.35,1.21,24.46,24.46,0,0,0,1.65,2.18,7.68,7.68,0,0,0,5.09,1.79A25,25,0,0,0,277.41,197.88Z"/><path class="cls-6" d="M366.43,209.4c1.31-2.41-.17-5.37-1.87-7.53s-3.77-4.39-3.73-7.13c.06-3.94,4.25-6.27,7.58-8.36a37.09,37.09,0,0,0,6.82-5.48,10.13,10.13,0,0,0,2.1-2.81,11.44,11.44,0,0,0,.63-5q-.22-8.45-.84-16.86"/><path class="cls-3" d="M383.48,155.94a6.15,6.15,0,0,0-3.07-5L379,153.63l0-3.3a6,6,0,0,0-2-.24,6.15,6.15,0,1,0,6.43,5.85Z"/><path class="cls-3" d="M372.52,197.56a6.15,6.15,0,1,1,.29-4.95L369,195.74l4.24-1A6.21,6.21,0,0,1,372.52,197.56Z"/><path class="cls-7" d="M369.48,185.62a6.15,6.15,0,0,1-6.43-5.86h0a6.16,6.16,0,0,1,4.47-6.21l0,2.53,1.4-2.76h0a6.15,6.15,0,0,1,.58,12.29h0Z"/><path class="cls-3" d="M384.41,175.69a6.15,6.15,0,0,1-.82-12.28h.24a6,6,0,0,1,3.29.78l-1.08,3,2.23-2.15a6.16,6.16,0,0,1,2,4.24,6.17,6.17,0,0,1-5.86,6.44Z"/><path class="cls-4" d="M382.65,157.58c-1.42.15-2.79.6-4.22.69a4.62,4.62,0,0,1-3.89-1.37,19.46,19.46,0,0,1-1.13-2,4.4,4.4,0,0,0-1.55-1.45,6.15,6.15,0,1,0,11,5.55,6.27,6.27,0,0,0,.52-1.47C383.12,157.54,382.89,157.55,382.65,157.58Z"/><path class="cls-4" d="M384.41,175.69a6.15,6.15,0,0,1-6.43-5.87,6,6,0,0,1,.58-2.9,4.54,4.54,0,0,1,1.23,1.24,21.82,21.82,0,0,0,1.22,2,5.07,5.07,0,0,0,4.08,1.43c1.48-.07,2.92-.49,4.39-.64.21,0,.42,0,.64,0A6.16,6.16,0,0,1,384.41,175.69Z"/><path class="cls-4" d="M369.48,185.62a6.15,6.15,0,0,1-6.43-5.86h0a6.14,6.14,0,0,1,.53-2.8,5,5,0,0,1,1.3,1.26,20.48,20.48,0,0,0,1.34,2.08,5.68,5.68,0,0,0,4.35,1.52c1.52,0,3-.4,4.5-.52A6.15,6.15,0,0,1,369.48,185.62Z"/><path class="cls-4" d="M372.52,197.56a6.15,6.15,0,0,1-11.21-5,6.42,6.42,0,0,1,1.35,1.2,24.48,24.48,0,0,0,1.64,2.19,7.78,7.78,0,0,0,5.1,1.79A27.18,27.18,0,0,0,372.52,197.56Z"/><path class="cls-6" d="M65.91,205.29c-1.3-2.41.18-5.37,1.88-7.52s3.77-4.39,3.73-7.14c-.06-3.94-4.25-6.27-7.58-8.36a37.09,37.09,0,0,1-6.82-5.48A9.85,9.85,0,0,1,55,174a11.44,11.44,0,0,1-.63-5c.15-5.63.42-11.25.84-16.86"/><path class="cls-3" d="M48.87,151.83a6.12,6.12,0,0,1,3.07-5l1.37,2.72,0-3.3a6.32,6.32,0,0,1,2-.24,6.15,6.15,0,1,1-6.43,5.85Z"/><path class="cls-3" d="M59.83,193.46a6.17,6.17,0,1,0-.29-5l3.84,3.12-4.24-1A6.27,6.27,0,0,0,59.83,193.46Z"/><path class="cls-7" d="M62.87,181.51a6.15,6.15,0,0,0,6.43-5.85h0a6.16,6.16,0,0,0-4.47-6.22l0,2.53-1.4-2.75h0a6.15,6.15,0,1,0-.57,12.28Z"/><path class="cls-3" d="M47.94,171.58a6.15,6.15,0,0,0,.82-12.28h-.24a6.15,6.15,0,0,0-3.28.78l1.09,3-2.25-2.14a6.16,6.16,0,0,0-2,4.24,6,6,0,0,0,.16,1.69A6.16,6.16,0,0,0,47.94,171.58Z"/><path class="cls-4" d="M49.7,153.47c1.42.16,2.79.6,4.22.69a4.58,4.58,0,0,0,3.89-1.36,20.58,20.58,0,0,0,1.13-2,4.34,4.34,0,0,1,1.55-1.46,6.15,6.15,0,0,1-11,5.56,6.51,6.51,0,0,1-.52-1.48Z"/><path class="cls-4" d="M47.94,171.58a6.15,6.15,0,0,0,6.43-5.87,6.06,6.06,0,0,0-.58-2.9,4.4,4.4,0,0,0-1.23,1.24,21.82,21.82,0,0,1-1.22,2,5,5,0,0,1-4.08,1.43c-1.48-.07-2.92-.49-4.39-.63-.21,0-.42,0-.64,0A6.16,6.16,0,0,0,47.94,171.58Z"/><path class="cls-4" d="M62.87,181.51a6.15,6.15,0,0,0,6.43-5.85h0a6.15,6.15,0,0,0-.53-2.81,4.91,4.91,0,0,0-1.3,1.27,21.5,21.5,0,0,1-1.34,2.07,5.68,5.68,0,0,1-4.35,1.52c-1.52,0-3-.4-4.5-.52A6.15,6.15,0,0,0,62.87,181.51Z"/><path class="cls-4" d="M59.83,193.46a6.15,6.15,0,0,0,11.21-5,6.42,6.42,0,0,0-1.35,1.2,23.12,23.12,0,0,1-1.64,2.19,7.78,7.78,0,0,1-5.1,1.79A27.17,27.17,0,0,1,59.83,193.46Z"/><path class="cls-8" d="M244,175.68a4.9,4.9,0,0,0-1.95-4,5.74,5.74,0,0,0-4.8-5.63,5.73,5.73,0,0,0-3.82-4.27h0a4.32,4.32,0,0,0-.71-.17h-.07l-.12,0h-.65a5.63,5.63,0,0,0-5.44,4.81c-1.75-.41-3.36.12-3.64,1.23a1.5,1.5,0,0,0,0,.89,3.83,3.83,0,0,0,2.58,2.08l.17.06.25.06h.06a4.42,4.42,0,0,0,1.93,5.78l-.11.08a1.56,1.56,0,0,0-.38.53,7.52,7.52,0,0,0-.73,1.76c-.13.53-.15,1.08-.32,1.61-.29.94-1,1.77-1.11,2.78,0,.45,0,1-.29,1.28a1.5,1.5,0,0,1-.25.19,2.07,2.07,0,0,0-.56.58,1.55,1.55,0,0,1-.37.51c-.28.22-.76.2-.9.54s.23.72.14,1.09-.4.43-.63.63a2.24,2.24,0,0,0-.54,1,3.23,3.23,0,0,1-2.69-.68,4.85,4.85,0,0,1,.27,1,4.05,4.05,0,0,0-1.45-.73,4.62,4.62,0,0,1-1.55-1.15l.83-.11-3.67-5.57-1.08-.22,1,1.86a.6.6,0,0,0-.31.4,1.68,1.68,0,0,0,0,.63,12.52,12.52,0,0,0,.25,1.49l.28,1.3.09.37a3.58,3.58,0,0,0-1.08.12,9.29,9.29,0,0,0-2.26-.53.87.87,0,0,0-1,.41,15.41,15.41,0,0,0-1.67,2.35,79.45,79.45,0,0,1-7.06,9.52c-1.7.69-3.41,1.34-5.13,2l-3.69,1.4a5.54,5.54,0,0,1-2.28.52c-.36,0-.79-.08-1,.22a1.77,1.77,0,0,0-.23.48c-.13,0-.26,0-.38,0h0a4.39,4.39,0,0,0-.89-1.63.54.54,0,0,0-.41.32,3.89,3.89,0,0,1-.25.5c-.19.29-.54.43-.79.68s-.4.63-.66.87a2.64,2.64,0,0,1-1.27.49,8.15,8.15,0,0,0-2,.74,3.38,3.38,0,0,1-.72.34,3,3,0,0,1-.85,0l-2-.15a1.52,1.52,0,0,0-.52,0,1,1,0,0,0-.63,1,1.52,1.52,0,0,0,.62,1.07,3.79,3.79,0,0,0,1.11.58,31.38,31.38,0,0,0,5.23,1.53v.4a8.87,8.87,0,0,0,4,.95.62.62,0,0,0,.3-.06.65.65,0,0,0,.25-.39,16.6,16.6,0,0,0,.78-3.83h0a1.73,1.73,0,0,0,.7-.18c.68-.18,1.34.28,2,.36a5.69,5.69,0,0,0,2.46-.71,3.59,3.59,0,0,1,.35-.12,4,4,0,0,1-.81.78c-.33.24-.71.41-1,.66a6.36,6.36,0,0,1-.87.68,4.32,4.32,0,0,1-.68.26,4.17,4.17,0,0,0-.94.48,2,2,0,0,0-.66.63.86.86,0,0,0,.22,1.2.81.81,0,0,0,.37.15,3.05,3.05,0,0,0,.8,0l3.16-.27a10,10,0,0,0,1.32-.19l.69-.19a4.84,4.84,0,0,1,1.2-.18,1,1,0,0,1,.35,0c.25.08.42.32.67.38a1,1,0,0,0,.48-.07,11.56,11.56,0,0,1,2.34-.25c.35,0,.75-.08.91-.4s-.13-.84-.26-1.26a4.72,4.72,0,0,1-.11-.83,5,5,0,0,0-.58-2,6.18,6.18,0,0,1-.43-.9,23.25,23.25,0,0,0,4.31-2.18,7.78,7.78,0,0,1,2.46-1.19,6.65,6.65,0,0,1,3.08.36,69.73,69.73,0,0,1,7.08,2.47,34.59,34.59,0,0,0,3.34,1.26,5,5,0,0,0,1.19,1.16,5.43,5.43,0,0,0,2.57.7,33.7,33.7,0,0,0,3.62.14,6.16,6.16,0,0,0,2.7-.5,3.53,3.53,0,0,0,.57-.38,2.2,2.2,0,0,0,1.77-.65,4.32,4.32,0,0,0,1.36-2.14c.29-1.14.07-2.47.77-3.4.18-.25.43-.45.61-.7a1.88,1.88,0,0,0,.32-1.15l0,0a4.08,4.08,0,0,0,.31-1.15,6.86,6.86,0,0,1,.32-.9,26.92,26.92,0,0,0,.93-2.7,14.6,14.6,0,0,0,.43-1.85c.08-.5.12-1,.16-1.5a8.61,8.61,0,0,1,.46-2.31,19,19,0,0,0,1-5.54v-.11a3.71,3.71,0,0,0,3.3-3.74,3.85,3.85,0,0,0-.34-1.61A5,5,0,0,0,244,175.68Zm-17.87,21.71.18.58-.87-.87.35.12a2.16,2.16,0,0,1,.34.17Zm-1.41-.94c-1.73-1.5-3.73-2.66-5.49-4.11.95.48,1.89,1,2.84,1.56,1.11.63,2.22,1.24,3.35,1.81a2.63,2.63,0,0,1-.69.72Zm.73-3.78.08-.08v.59l-.46-.16a3.33,3.33,0,0,0,.39-.36Zm-15.19,4.06a14.3,14.3,0,0,0,1.85-2.63,16.93,16.93,0,0,0,2.74,3.07,44.09,44.09,0,0,0-4.58-.45Z"/><polygon class="cls-9" points="212.71 182.16 213.8 182.39 217.51 187.87 215.87 188.09 212.71 182.16"/><path class="cls-10" d="M186.31,204.43a22.12,22.12,0,0,0,1.08,2.84,27.24,27.24,0,0,0,3.63-1,8.44,8.44,0,0,0-.76-1,3.41,3.41,0,0,0-1-.79,2.88,2.88,0,0,0-1.24,0C187.44,204.43,186.87,204.44,186.31,204.43Z"/><path class="cls-9" d="M189.25,205.89a2.24,2.24,0,0,1-1.24-1.41,4.54,4.54,0,0,0-.93-1.68.56.56,0,0,0-.42.31,4.52,4.52,0,0,1-.25.49c-.19.29-.54.43-.79.67s-.4.61-.67.86a2.73,2.73,0,0,1-1.27.48,7.82,7.82,0,0,0-2,.74,3.22,3.22,0,0,1-.74.31,3,3,0,0,1-.85,0l-2-.14a1.58,1.58,0,0,0-.53,0,1,1,0,0,0-.63,1,1.57,1.57,0,0,0,.63,1.06,4.73,4.73,0,0,0,1.12.57,34.54,34.54,0,0,0,5.28,1.5v.39a9.17,9.17,0,0,0,4,.95.67.67,0,0,0,.31-.05.66.66,0,0,0,.25-.39,15.23,15.23,0,0,0,.82-4.28,3.13,3.13,0,0,0-.08-1.1c-.11-.35.26-.2-.08-.34"/><path class="cls-9" d="M227,198.47c-5.83.36-11.6-1.35-17.44-1.54a9.29,9.29,0,0,0-2.17.14,10.65,10.65,0,0,0-2.15.84c-3.13,1.45-6.37,2.66-9.61,3.87l-3.71,1.38a5.7,5.7,0,0,1-2.31.51c-.35,0-.79-.08-1,.22-.6.89-.31,2.21.08,3.22.13.31.35.68.7.71a1.77,1.77,0,0,0,.71-.18c.68-.18,1.35.28,2,.35a5.72,5.72,0,0,0,2.47-.7,23.07,23.07,0,0,1,4.23-.71,19,19,0,0,0,6.64-2.76,7.6,7.6,0,0,1,2.48-1.16,6.78,6.78,0,0,1,3.11.35,68.8,68.8,0,0,1,7.13,2.43,32.57,32.57,0,0,0,3.73,1.36,13.49,13.49,0,0,0,8.35-.49c.95-.37,1.95-1,2-2a3.09,3.09,0,0,0-.71-1.58c-.19-.31-.38-.63-.59-.93C230,200.3,228.76,198.37,227,198.47Z"/><path class="cls-4" d="M227,198.47c-5.83.36-11.6-1.35-17.44-1.54a9.29,9.29,0,0,0-2.17.14,10.65,10.65,0,0,0-2.15.84c-3.13,1.45-6.37,2.66-9.61,3.87l-3.71,1.38a5.7,5.7,0,0,1-2.31.51c-.35,0-.79-.08-1,.22-.6.89-.31,2.21.08,3.22.13.31.35.68.7.71a1.77,1.77,0,0,0,.71-.18c.68-.18,1.35.28,2,.35a5.72,5.72,0,0,0,2.47-.7,23.07,23.07,0,0,1,4.23-.71,19,19,0,0,0,6.64-2.76,7.6,7.6,0,0,1,2.48-1.16,6.78,6.78,0,0,1,3.11.35,68.8,68.8,0,0,1,7.13,2.43,32.57,32.57,0,0,0,3.73,1.36,13.49,13.49,0,0,0,8.35-.49c.95-.37,1.95-1,2-2a3.09,3.09,0,0,0-.71-1.58c-.19-.31-.38-.63-.59-.93C230,200.3,228.76,198.37,227,198.47Z"/><path class="cls-10" d="M197.51,204.71c.92.31,1.84.6,2.76.86.52-.86,1.5-1.45,1.72-2.43a.28.28,0,0,0,0-.13.24.24,0,0,0-.11-.09,5.1,5.1,0,0,0-2.16-.63c-.6,0-.87.59-1.14,1C198.48,203.49,197.75,204.79,197.51,204.71Z"/><path class="cls-9" d="M198.8,204.09a2.06,2.06,0,0,1-1.35-.89c-.13-.22-.26-.52-.52-.51s-.35.3-.4.54a15.4,15.4,0,0,1-.76,2.59,4.84,4.84,0,0,1-1.61,2.12c-.34.24-.72.41-1,.66a6.38,6.38,0,0,1-.88.67,4.28,4.28,0,0,1-.68.25,4.83,4.83,0,0,0-1,.47,2,2,0,0,0-.66.64.92.92,0,0,0-.06.88,1,1,0,0,0,.63.45,3.14,3.14,0,0,0,.81,0l3.19-.27a8.52,8.52,0,0,0,1.33-.19c.24-.05.47-.13.7-.19a6.09,6.09,0,0,1,1.21-.18,1.47,1.47,0,0,1,.36,0c.24.08.42.31.67.37a1,1,0,0,0,.48-.06,11.07,11.07,0,0,1,2.36-.25c.35,0,.76-.08.92-.4s-.13-.82-.26-1.24a3.16,3.16,0,0,1-.11-.81,4.92,4.92,0,0,0-.59-1.94c-.27-.5-.63-1.05-.45-1.58a1.33,1.33,0,0,0,.18-.54C201.25,203.88,199.28,204.2,198.8,204.09Z"/><path class="cls-10" d="M218.23,189.12a4.58,4.58,0,0,1-2.32-2.31c-.1-.22-.18-.46-.27-.68a5.22,5.22,0,0,0-1.39-1.93.7.7,0,0,0-.51-.22.56.56,0,0,0-.38.41,1.5,1.5,0,0,0,0,.63,10.36,10.36,0,0,0,.25,1.46l.28,1.29a2.9,2.9,0,0,0,.18.57,2,2,0,0,0,.47.57c.26.24.52.47.79.69a3.27,3.27,0,0,0,.48.35,3,3,0,0,0,.89.26,7.63,7.63,0,0,1,3.31,1.26s0-.86,0-.94a1.27,1.27,0,0,0-.25-.7A4.18,4.18,0,0,0,218.23,189.12Z"/><path class="cls-4" d="M218.23,189.12a4.58,4.58,0,0,1-2.32-2.31c-.1-.22-.18-.46-.27-.68a5.22,5.22,0,0,0-1.39-1.93.7.7,0,0,0-.51-.22.56.56,0,0,0-.38.41,1.5,1.5,0,0,0,0,.63,10.36,10.36,0,0,0,.25,1.46l.28,1.29a2.9,2.9,0,0,0,.18.57,2,2,0,0,0,.47.57c.26.24.52.47.79.69a3.27,3.27,0,0,0,.48.35,3,3,0,0,0,.89.26,7.63,7.63,0,0,1,3.31,1.26s0-.86,0-.94a1.27,1.27,0,0,0-.25-.7A4.18,4.18,0,0,0,218.23,189.12Z"/><ellipse class="cls-9" cx="230.11" cy="177.83" rx="1.42" ry="1.43"/><path class="cls-9" d="M229.24,177a1.6,1.6,0,0,0-1.13.16,1.52,1.52,0,0,0-.38.52,7.41,7.41,0,0,0-.74,1.74c-.12.52-.15,1.07-.31,1.58-.29.95-1,1.75-1.12,2.74,0,.45,0,1-.29,1.27l-.26.18a2,2,0,0,0-.56.57,1.78,1.78,0,0,1-.39.55c-.29.21-.77.19-.91.52s.22.72.14,1.08-.4.43-.63.63a2.18,2.18,0,0,0-.55,1,3.35,3.35,0,0,1-2.71-.68,8.34,8.34,0,0,1,.42,3.11,1.23,1.23,0,0,1-.25.94,16.48,16.48,0,0,1,3.33.58,2.28,2.28,0,0,0,1.46,0,2.12,2.12,0,0,0,.66-.53,4.2,4.2,0,0,0,1.38-2.11,9.89,9.89,0,0,0,0-1.44,8.06,8.06,0,0,1,.37-1.74,19.69,19.69,0,0,0,.63-3.59c.07-.75.71-1.35,1.05-2a10,10,0,0,0,1.35-4C229.86,177.59,229.7,177,229.24,177Z"/><path class="cls-4" d="M229.24,177a1.6,1.6,0,0,0-1.13.16,1.52,1.52,0,0,0-.38.52,7.41,7.41,0,0,0-.74,1.74c-.12.52-.15,1.07-.31,1.58-.29.95-1,1.75-1.12,2.74,0,.45,0,1-.29,1.27l-.26.18a2,2,0,0,0-.56.57,1.78,1.78,0,0,1-.39.55c-.29.21-.77.19-.91.52s.22.72.14,1.08-.4.43-.63.63a2.18,2.18,0,0,0-.55,1,3.35,3.35,0,0,1-2.71-.68,8.34,8.34,0,0,1,.42,3.11,1.23,1.23,0,0,1-.25.94,16.48,16.48,0,0,1,3.33.58,2.28,2.28,0,0,0,1.46,0,2.12,2.12,0,0,0,.66-.53,4.2,4.2,0,0,0,1.38-2.11,9.89,9.89,0,0,0,0-1.44,8.06,8.06,0,0,1,.37-1.74,19.69,19.69,0,0,0,.63-3.59c.07-.75.71-1.35,1.05-2a10,10,0,0,0,1.35-4C229.86,177.59,229.7,177,229.24,177Z"/><path class="cls-9" d="M227.91,199.7a13,13,0,0,1-3.09-2.57c-1.87-1.77-4.17-3-6.14-4.66a38.24,38.24,0,0,0-3.91-3.29,9.84,9.84,0,0,0-4.19-1.47,1.1,1.1,0,0,0-.51,0,1.12,1.12,0,0,0-.48.38,14.8,14.8,0,0,0-1.69,2.32c-2.5,4.24-6.05,7.81-9,11.75a.54.54,0,0,0,0,.72l.59,1.17c.34.65.88,1.42,1.58,1.29a1.68,1.68,0,0,0,.84-.54l2.69-2.56,2.81-2.7a21.87,21.87,0,0,0,4.41-5.2c.84,1.45,2.33,2.41,3.35,3.74.39.51.71,1.07,1,1.61.56.86,1.19,1.67,1.83,2.47l3.23,4.13a6.28,6.28,0,0,0,1.49,1.51,5.7,5.7,0,0,0,2.6.7,34.16,34.16,0,0,0,3.65.13,6.39,6.39,0,0,0,2.72-.49,2.5,2.5,0,0,0,1.47-2.19,3.33,3.33,0,0,0-.46-1.37A10.76,10.76,0,0,0,227.91,199.7Z"/><ellipse class="cls-11" cx="230.99" cy="178.82" rx="1.09" ry="1.1"/><path class="cls-10" d="M230.75,178a2.11,2.11,0,0,1,.12,1.58,6.34,6.34,0,0,1-.7,1.46,7.84,7.84,0,0,1-.92,1.3,9.37,9.37,0,0,0,4.8-1.38,6.84,6.84,0,0,0,3-2.64,1.41,1.41,0,0,1-1.11-.21,4.3,4.3,0,0,1-.86-.79l-.84-.95a3.9,3.9,0,0,1-.52-.69,1.91,1.91,0,0,1-.23-1.1,6.6,6.6,0,0,1-1.11.93c-.61.39-1.27.68-1.88,1.07-.21.14-.69.36-.57.63S230.58,177.69,230.75,178Z"/><path class="cls-4" d="M230.75,178a2.11,2.11,0,0,1,.12,1.58,6.34,6.34,0,0,1-.7,1.46,7.84,7.84,0,0,1-.92,1.3,9.37,9.37,0,0,0,4.8-1.38,6.84,6.84,0,0,0,3-2.64,1.41,1.41,0,0,1-1.11-.21,4.3,4.3,0,0,1-.86-.79l-.84-.95a3.9,3.9,0,0,1-.52-.69,1.91,1.91,0,0,1-.23-1.1,6.6,6.6,0,0,1-1.11.93c-.61.39-1.27.68-1.88,1.07-.21.14-.69.36-.57.63S230.58,177.69,230.75,178Z"/><path class="cls-11" d="M230.77,178.16a1.41,1.41,0,0,0,0,1.64c0,.06.23.44.31.44a.29.29,0,0,0,.2-.09,14.37,14.37,0,0,0,1.07-1.27,2.35,2.35,0,0,1,1.35-.89,3.05,3.05,0,0,1,1.88.58,1.9,1.9,0,0,1,.63.53,1.77,1.77,0,0,1,.21.71,32.78,32.78,0,0,1,.19,4.54,17.8,17.8,0,0,1-.21,3.26c-.11.56-.27,1.1-.35,1.66a10.75,10.75,0,0,0-.06,1.5v2.08a4.83,4.83,0,0,0,.08,1.14,13.08,13.08,0,0,0,.46,1.33,8.39,8.39,0,0,1,.31,1.57l.29,2.16a2.65,2.65,0,0,1-.26,2c-.18.25-.43.45-.63.7-.71.9-.48,2.21-.79,3.33a4.2,4.2,0,0,1-1.37,2.1,2.24,2.24,0,0,1-1.81.64,2.49,2.49,0,0,1-1.64-1.94,7.63,7.63,0,0,0-.84-2.53,6.84,6.84,0,0,0-1.67-1.4,2.87,2.87,0,0,1-1.3-1.69c-.06-.32,0-.63-.06-.95a2.25,2.25,0,0,0-1.39-1.83c-.45-.18-1-.24-1.27-.63a3.09,3.09,0,0,0,1.32-1.77,9.13,9.13,0,0,0,.31-2.21l.15-2.51a8.43,8.43,0,0,1,.59-3.24c.23-.45.5-.87.73-1.32a16.93,16.93,0,0,0,.78-1.93c.35-1,.71-2.06,1-3.1a6.18,6.18,0,0,1,.57-1.44C229.87,178.82,230.26,178.25,230.77,178.16Z"/><path class="cls-9" d="M225.2,194.46l.66,0,.14-1a2.41,2.41,0,0,1,.14-.59,3.44,3.44,0,0,1,.39-.55,7.32,7.32,0,0,0,.76-3.27,16.41,16.41,0,0,1,1.46-4.28l1.29-2.87a3.89,3.89,0,0,0,.28-.74,4.8,4.8,0,0,0,.08-.85c0-.44.14-2.05.15-2.5,0-.16-.36-.07-.44-.22-.16-.31-.38.55-.68.73a1.68,1.68,0,0,0-.59.87c-.28.73-.45,1.49-.71,2.22a4.53,4.53,0,0,1-1.21,1.95c-.26.24-.57.42-.81.66a4.47,4.47,0,0,0-.91,3.16C225.18,187.9,225.05,194.46,225.2,194.46Z"/><path class="cls-9" d="M234.76,177a2.28,2.28,0,0,0-1.18,1.63,7.92,7.92,0,0,1-.61,2c-.8,1.4-2.87,1.82-3.44,3.34a6,6,0,0,0-.23,1.58c-.1,1.09-.46,2.14-.57,3.23a15.52,15.52,0,0,0,.06,2.55l.72,8.6a11.49,11.49,0,0,1-.21,3.79,3.65,3.65,0,0,0,2.16-.35c.68-.32,1.3-.74,1.95-1.1a19.85,19.85,0,0,0,3.34-1.89,2,2,0,0,0,.45-.5,4.05,4.05,0,0,0,.32-1.13,5.66,5.66,0,0,1,.32-.9,24.51,24.51,0,0,0,.94-2.65,14.6,14.6,0,0,0,.44-1.82c.08-.49.12-1,.16-1.48a8.88,8.88,0,0,1,.46-2.28,18.1,18.1,0,0,0,1-5.45,2.7,2.7,0,0,0,0-.8,4.49,4.49,0,0,0-.44-.91c-.3-.56-.48-1.19-.76-1.76a8.58,8.58,0,0,0-2.95-3.1C236.08,177.15,235.41,176.71,234.76,177Z"/><path class="cls-10" d="M219.67,191a5.17,5.17,0,0,1-1.37-1c-.18-.22-.32-.45-.51-.66a3.4,3.4,0,0,0-1.73-1,8.46,8.46,0,0,0-2-.19,3.55,3.55,0,0,0-1.33.16,1.36,1.36,0,0,0-.88.95,1.55,1.55,0,0,0,.67,1.4,3.2,3.2,0,0,0,1.35.65,12.12,12.12,0,0,0,1.21.15c2.39.25,4.52,1.54,6.61,2.73q2.76,1.56,5.63,2.91a12.31,12.31,0,0,0,.09-1.72c0-.43,0-1.09-.44-1.34a8.84,8.84,0,0,0-1.79-.54,29.42,29.42,0,0,1-3.6-1.45C220.91,191.7,220.28,191.36,219.67,191Z"/><ellipse class="cls-10" cx="230.11" cy="173.22" rx="4.26" ry="4.28"/><path class="cls-9" d="M236,181.81a7.12,7.12,0,0,0-.82,1.54c-.53,1.09-1.35,2-1.77,3.16s-.42,2.61-1.26,3.55a1.19,1.19,0,0,0-.37.54,2.58,2.58,0,0,1,0,.39c-.12.34-.68.35-.79.7a1.25,1.25,0,0,1,0,.32c-.08.22-.38.25-.58.39-.41.28-.31.93-.63,1.34a1.14,1.14,0,0,1-1.06.37,3.58,3.58,0,0,1-1.1-.42,1.15,1.15,0,0,0-.4-.12.8.8,0,0,0-.46.16,2.85,2.85,0,0,0-1.15,2.42,7.87,7.87,0,0,0,.66,2.71,1.23,1.23,0,0,0,.21.41,1,1,0,0,0,1.07.07,5.3,5.3,0,0,1,1-.46c.66-.12,1.3.34,2,.3a2.76,2.76,0,0,0,1.33-.59,7.49,7.49,0,0,0,1.79-1.53,14,14,0,0,0,.76-1.23,13.74,13.74,0,0,1,1.08-1.43l2.45-3a5.86,5.86,0,0,0,.66-.91,6.89,6.89,0,0,0,.52-1.37,11.27,11.27,0,0,0,.51-2.44,10,10,0,0,0-.18-2,7.32,7.32,0,0,0-.53-2C238.27,181.56,237,180.65,236,181.81Z"/><path class="cls-12" d="M244.52,176.24a4.78,4.78,0,0,0-2-3.9,5.68,5.68,0,0,0-4.84-5.54,5.53,5.53,0,0,0-10.89.29c-1.77-.4-3.38.12-3.68,1.21s1,2.47,2.82,3a5,5,0,0,0,1.8.18,5.57,5.57,0,0,0,3.81,2.37,5.68,5.68,0,0,0,4.16,4.29,4.69,4.69,0,0,0,1.28,1.77c0,.14,0,.27,0,.41a3.6,3.6,0,0,0,7.2.3,1.5,1.5,0,0,0,0-.3,3.78,3.78,0,0,0-.34-1.58A4.81,4.81,0,0,0,244.52,176.24Z"/><path class="cls-4" d="M224.34,168.52c.3-1.09,1.9-1.61,3.68-1.21a5.63,5.63,0,0,1,5.48-4.74h.37a5,5,0,0,0-1.58-.23,5.61,5.61,0,0,0-5.48,4.73c-1.77-.39-3.39.12-3.68,1.21s1,2.48,2.82,3a5.48,5.48,0,0,0,1.06.19C225.24,170.93,224,169.63,224.34,168.52Z"/><path class="cls-4" d="M238.19,180.52a2.82,2.82,0,0,1,0-.41,4.69,4.69,0,0,1-1.28-1.77,5.69,5.69,0,0,1-4.15-4.29,5.57,5.57,0,0,1-3.82-2.37,4.72,4.72,0,0,1-1.06,0,5.57,5.57,0,0,0,3.67,2.18,5.68,5.68,0,0,0,4.16,4.29,4.69,4.69,0,0,0,1.28,1.77c0,.14,0,.27,0,.41a3.67,3.67,0,0,0,3.58,3.73A3.74,3.74,0,0,1,238.19,180.52Z"/><ellipse class="cls-10" cx="231.53" cy="174.09" rx="0.66" ry="0.88" transform="translate(-58.15 175.51) rotate(-37.22)"/><path class="cls-3" d="M130.33,196.1l4.21-2.48a10.22,10.22,0,0,0-2.15-2.57l-7.94,2.46,6.22-3.65a10.11,10.11,0,0,0-15,8.87c0,5.58,4.53,5.77,10.11,5.77s10.11-.19,10.11-5.77a10,10,0,0,0-.87-4.11Z"/><path class="cls-4" d="M131.4,201.52a8,8,0,0,0-1.49-1.17,6.87,6.87,0,0,0-2.46-1.2,19.29,19.29,0,0,0-2.41-.07,5.57,5.57,0,0,1-3.69-1.69,12.08,12.08,0,0,0-1.72-1.78,3.79,3.79,0,0,0-2.57-.47,6.41,6.41,0,0,0-.76.16,10,10,0,0,0-.6,3.43c0,5.58,4.53,5.77,10.11,5.77,2.71,0,5.17,0,7-.73l-.32-.56A8.09,8.09,0,0,0,131.4,201.52Z"/></svg>