<svg id="Layer_1" data-name="Layer 1" xmlns="http://www.w3.org/2000/svg" viewBox="0 0 440.2 331.38"><defs><style>.cls-1{fill:#fff;}.cls-2{fill:#f2f2f2;}.cls-3{fill:#e6e6e6;}.cls-4{fill:#2f2e41;}.cls-5{fill:#ffb9b9;}.cls-6{fill:#f54394;}.cls-7{fill:#9e616a;}.cls-8{fill:#ffb6b6;}.cls-9{fill:#3f3d56;}</style></defs><path class="cls-1" d="M425.76,290.69a3.64,3.64,0,0,1-1.4-3.23c0-.3-.48-.36-.52-.06a4,4,0,0,0,1.53,3.58.3.3,0,0,0,.38,0,.21.21,0,0,0,0-.3s0,0,0,0Z"/><path class="cls-2" d="M69.24,248h300V229.91c0-3.77-4.55-7.49-12.49-10.2l-.08,0c-5.36-1.89-39.61-15.34-58.14-14.93-9.79.21-18.17,1.87-24.9,4.93-21,9.52-48.53,13-63.08,10.27-12.83-2.43-48-6.46-61.06-6.28-18.22.25-18.27,3.3-37,13.12-7.14,3.75-9.81,4.22-43.27,7.21Z"/><path class="cls-2" d="M20.88,221.42c-.65-9.71,3.47-19.51,12-23.11-1.72,10,.4,21.1,5.88,30.73,2.14,3.76,4.88,7.76,4.3,11.68A8.28,8.28,0,0,1,39,246.35a26,26,0,0,1-6.78,2.6l-.41.43C26.22,240.69,21.53,231.12,20.88,221.42Z"/><path class="cls-1" d="M33,198.49a34,34,0,0,0-5.33,22,17.52,17.52,0,0,0,1.17,5.15A11.51,11.51,0,0,0,32,229.92a23.54,23.54,0,0,1,3.71,3.48,6.2,6.2,0,0,1,1.19,4.71,12.68,12.68,0,0,1-2.36,5.13c-1.17,1.73-2.41,3.5-2.62,5.71,0,.27-.46.16-.43-.11.37-3.86,3.62-6.21,4.72-9.72a6,6,0,0,0-.59-5.16,18.91,18.91,0,0,0-3.71-3.6,12.35,12.35,0,0,1-3.25-4.07,16.52,16.52,0,0,1-1.36-5.12,35.55,35.55,0,0,1,.53-11.41,33.23,33.23,0,0,1,4.81-11.58c.15-.21.49.1.35.31Z"/><path class="cls-1" d="M27.29,217.9a6.88,6.88,0,0,1-5.49-5.79c0-.27.4-.27.43,0a6.37,6.37,0,0,0,5.12,5.38.21.21,0,0,1-.05.42Z"/><path class="cls-1" d="M31.31,229.43A9.26,9.26,0,0,0,35,222.81c0-.27.46-.16.43.11a9.61,9.61,0,0,1-3.85,6.88C31.37,230,31.1,229.58,31.31,229.43Z"/><path class="cls-1" d="M29.21,205.94a3.11,3.11,0,0,0,3-.31c.21-.15.47.22.27.38a3.51,3.51,0,0,1-3.35.35.28.28,0,0,1-.19-.27.18.18,0,0,1,.21-.15Z"/><path class="cls-2" d="M64,214.12l-.38.31A35.38,35.38,0,0,0,59,219l-.32.39a37.62,37.62,0,0,0-7.17,13.9,39.22,39.22,0,0,0-1.19,6.33c-.32,3-.42,6.28-1.7,8.77a5.73,5.73,0,0,1-.45.75l-15.73.8-.12,0-.62.06c0-.11,0-.23,0-.34s0-.14,0-.2,0-.09,0-.13v-.15c0-.66.07-1.31.12-2h0a58.58,58.58,0,0,1,2.66-14.5l.15-.42a34.86,34.86,0,0,1,2.64-5.88,30.19,30.19,0,0,1,1.91-2.94,25,25,0,0,1,6.53-6.15A22.82,22.82,0,0,1,63.53,214Z"/><path class="cls-1" d="M64,214.32a31.88,31.88,0,0,0-18.23,12.5,14.08,14.08,0,0,0-2.13,4.39,9.35,9.35,0,0,0,.19,4.95A21.5,21.5,0,0,1,45,240.88,4.93,4.93,0,0,1,43.14,245a13.11,13.11,0,0,1-5.24,2.25c-2.09.53-4.27,1-5.82,2.5-.19.17-.5-.17-.31-.34,2.69-2.54,7-2.25,10.14-4.1a4.92,4.92,0,0,0,2.65-4,16.46,16.46,0,0,0-1.07-4.8,10,10,0,0,1-.36-4.86,12.81,12.81,0,0,1,1.93-4.47,30.32,30.32,0,0,1,7.49-7.83,33.32,33.32,0,0,1,11.36-5.36.22.22,0,0,1,.11.42Z"/><path class="cls-1" d="M47.05,224.74c-2.19-2.07-2.73-5.25-1.29-7.44.14-.21.52,0,.38.26a5.52,5.52,0,0,0,1.21,6.92C47.57,224.68,47.26,224.94,47.05,224.74Z"/><path class="cls-1" d="M43.52,235.38a9.82,9.82,0,0,0,7.33-2.5c.18-.18.49.16.31.34a10.24,10.24,0,0,1-7.64,2.59c-.27,0-.28-.44,0-.43Z"/><path class="cls-1" d="M56.09,217.36A3.85,3.85,0,0,0,59,219c.28,0,.28.43,0,.42a4.33,4.33,0,0,1-3.18-1.76.22.22,0,0,1,0-.3A.22.22,0,0,1,56.09,217.36Z"/><path class="cls-2" d="M414.87,221.42c.65-9.71-3.47-19.51-12-23.11,1.73,10-.4,21.1-5.88,30.73-2.14,3.76-4.88,7.76-4.29,11.68a8.24,8.24,0,0,0,4,5.63,26,26,0,0,0,6.78,2.6l.41.43C409.54,240.69,414.22,231.12,414.87,221.42Z"/><path class="cls-1" d="M402.74,198.49a34,34,0,0,1,5.33,22,17.21,17.21,0,0,1-1.17,5.15,11.51,11.51,0,0,1-3.17,4.27A23.54,23.54,0,0,0,400,233.4a6.2,6.2,0,0,0-1.19,4.71,12.68,12.68,0,0,0,2.36,5.13c1.17,1.73,2.41,3.5,2.62,5.71,0,.27.46.16.43-.11-.37-3.86-3.62-6.21-4.72-9.72a6,6,0,0,1,.59-5.16,19.19,19.19,0,0,1,3.71-3.6,12.35,12.35,0,0,0,3.25-4.07,16.52,16.52,0,0,0,1.36-5.12,35.55,35.55,0,0,0-.53-11.41,33.23,33.23,0,0,0-4.81-11.58c-.15-.21-.49.1-.35.31Z"/><path class="cls-1" d="M408.46,217.9a6.88,6.88,0,0,0,5.49-5.79c0-.27-.4-.27-.43,0a6.37,6.37,0,0,1-5.12,5.38.21.21,0,0,0,.05.42Z"/><path class="cls-1" d="M404.44,229.43a9.26,9.26,0,0,1-3.69-6.62c0-.27-.46-.16-.43.11a9.61,9.61,0,0,0,3.85,6.88c.21.15.48-.22.27-.37Z"/><path class="cls-1" d="M406.55,205.94a3.12,3.12,0,0,1-3-.31c-.21-.15-.47.22-.27.38a3.51,3.51,0,0,0,3.35.35.28.28,0,0,0,.19-.27.18.18,0,0,0-.21-.15Z"/><path class="cls-2" d="M371.73,214.12l.38.31a34.77,34.77,0,0,1,4.62,4.54l.32.39a37.62,37.62,0,0,1,7.17,13.9,40.36,40.36,0,0,1,1.2,6.33c.31,3,.41,6.28,1.69,8.77a5.73,5.73,0,0,0,.45.75l15.73.8.12,0,.62.06c0-.11,0-.23,0-.34s0-.14,0-.2a.56.56,0,0,1,0-.13.06.06,0,0,1,0,0v-.11c0-.66-.07-1.31-.12-2h0a58.58,58.58,0,0,0-2.66-14.5l-.15-.42a34.86,34.86,0,0,0-2.64-5.88,28.44,28.44,0,0,0-1.91-2.94,25,25,0,0,0-6.53-6.15A22.82,22.82,0,0,0,372.22,214Z"/><path class="cls-1" d="M371.73,214.32A31.88,31.88,0,0,1,390,226.82a14.08,14.08,0,0,1,2.13,4.39,9.35,9.35,0,0,1-.19,4.95,21.5,21.5,0,0,0-1.14,4.72,4.93,4.93,0,0,0,1.85,4.07,13.11,13.11,0,0,0,5.24,2.25c2.09.53,4.27,1,5.82,2.5.19.17.5-.17.31-.34-2.69-2.54-7-2.25-10.14-4.1a4.92,4.92,0,0,1-2.65-4,16.46,16.46,0,0,1,1.07-4.8,10,10,0,0,0,.36-4.86,12.81,12.81,0,0,0-1.93-4.47,30.32,30.32,0,0,0-7.49-7.83,33.32,33.32,0,0,0-11.36-5.36.22.22,0,0,0-.11.42Z"/><path class="cls-1" d="M388.7,224.74c2.19-2.07,2.73-5.25,1.29-7.44-.14-.21-.52,0-.38.26a5.52,5.52,0,0,1-1.21,6.92C388.18,224.68,388.49,224.94,388.7,224.74Z"/><path class="cls-1" d="M392.23,235.38a9.82,9.82,0,0,1-7.33-2.5c-.18-.18-.49.16-.3.34a10.22,10.22,0,0,0,7.63,2.59C392.5,235.79,392.51,235.37,392.23,235.38Z"/><path class="cls-1" d="M379.67,217.36a3.89,3.89,0,0,1-2.87,1.6c-.28,0-.28.43,0,.42a4.33,4.33,0,0,0,3.18-1.76.22.22,0,0,0,0-.3.21.21,0,0,0-.3,0Z"/><rect class="cls-3" x="31.95" y="173.38" width="2.88" height="0.96"/><path class="cls-3" d="M397.87,174.34H392v-1h5.86Zm-11.71,0H380.3v-1h5.86Zm-11.71,0h-5.86v-1h5.86Zm-11.71,0h-5.86v-1h5.86Zm-11.71,0h-5.86v-1H351Zm-11.72,0h-5.85v-1h5.85Zm-11.71,0h-5.85v-1h5.85Zm-11.71,0H310v-1h5.85Zm-11.71,0h-5.85v-1h5.85Zm-11.71,0h-5.85v-1h5.85Zm-11.71,0H274.9v-1h5.86Zm-11.71,0h-5.86v-1h5.86Zm-11.71,0h-5.86v-1h5.86Zm-11.71,0h-5.86v-1h5.86Zm-11.71,0h-5.86v-1h5.86Zm-11.71,0h-5.86v-1h5.86Zm-11.71,0h-5.86v-1h5.86Zm-11.72,0h-5.85v-1h5.85Zm-11.71,0h-5.85v-1h5.85Zm-11.71,0h-5.85v-1h5.85Zm-11.71,0H157.8v-1h5.85Zm-11.71,0h-5.85v-1h5.85Zm-11.71,0h-5.86v-1h5.86Zm-11.71,0h-5.86v-1h5.86Zm-11.71,0H111v-1h5.86Zm-11.71,0H99.24v-1h5.86Zm-11.71,0H87.53v-1h5.86Zm-11.71,0H75.82v-1h5.86Zm-11.72,0H64.11v-1H70Zm-11.71,0H52.4v-1h5.85Zm-11.71,0H40.69v-1h5.85Z"/><rect class="cls-3" x="403.72" y="173.38" width="2.88" height="0.96"/><rect class="cls-3" x="31.95" y="166.65" width="2.88" height="0.96"/><path class="cls-3" d="M397.87,167.61H392v-1h5.86Zm-11.71,0H380.3v-1h5.86Zm-11.71,0h-5.86v-1h5.86Zm-11.71,0h-5.86v-1h5.86Zm-11.71,0h-5.86v-1H351Zm-11.72,0h-5.85v-1h5.85Zm-11.71,0h-5.85v-1h5.85Zm-11.71,0H310v-1h5.85Zm-11.71,0h-5.85v-1h5.85Zm-11.71,0h-5.85v-1h5.85Zm-11.71,0H274.9v-1h5.86Zm-11.71,0h-5.86v-1h5.86Zm-11.71,0h-5.86v-1h5.86Zm-11.71,0h-5.86v-1h5.86Zm-11.71,0h-5.86v-1h5.86Zm-11.71,0h-5.86v-1h5.86Zm-11.71,0h-5.86v-1h5.86Zm-11.72,0h-5.85v-1h5.85Zm-11.71,0h-5.85v-1h5.85Zm-11.71,0h-5.85v-1h5.85Zm-11.71,0H157.8v-1h5.85Zm-11.71,0h-5.85v-1h5.85Zm-11.71,0h-5.86v-1h5.86Zm-11.71,0h-5.86v-1h5.86Zm-11.71,0H111v-1h5.86Zm-11.71,0H99.24v-1h5.86Zm-11.71,0H87.53v-1h5.86Zm-11.71,0H75.82v-1h5.86Zm-11.72,0H64.11v-1H70Zm-11.71,0H52.4v-1h5.85Zm-11.71,0H40.69v-1h5.85Z"/><rect class="cls-3" x="403.72" y="166.65" width="2.88" height="0.96"/><rect class="cls-3" x="31.95" y="152.71" width="2.88" height="0.96"/><path class="cls-3" d="M397.87,153.67H392v-1h5.86Zm-11.71,0H380.3v-1h5.86Zm-11.71,0h-5.86v-1h5.86Zm-11.71,0h-5.86v-1h5.86Zm-11.71,0h-5.86v-1H351Zm-11.72,0h-5.85v-1h5.85Zm-11.71,0h-5.85v-1h5.85Zm-11.71,0H310v-1h5.85Zm-11.71,0h-5.85v-1h5.85Zm-11.71,0h-5.85v-1h5.85Zm-11.71,0H274.9v-1h5.86Zm-11.71,0h-5.86v-1h5.86Zm-11.71,0h-5.86v-1h5.86Zm-11.71,0h-5.86v-1h5.86Zm-11.71,0h-5.86v-1h5.86Zm-11.71,0h-5.86v-1h5.86Zm-11.71,0h-5.86v-1h5.86Zm-11.72,0h-5.85v-1h5.85Zm-11.71,0h-5.85v-1h5.85Zm-11.71,0h-5.85v-1h5.85Zm-11.71,0H157.8v-1h5.85Zm-11.71,0h-5.85v-1h5.85Zm-11.71,0h-5.86v-1h5.86Zm-11.71,0h-5.86v-1h5.86Zm-11.71,0H111v-1h5.86Zm-11.71,0H99.24v-1h5.86Zm-11.71,0H87.53v-1h5.86Zm-11.71,0H75.82v-1h5.86Zm-11.72,0H64.11v-1H70Zm-11.71,0H52.4v-1h5.85Zm-11.71,0H40.69v-1h5.85Z"/><rect class="cls-3" x="403.72" y="152.71" width="2.88" height="0.96"/><rect class="cls-3" x="31.95" y="143.1" width="2.88" height="0.96"/><path class="cls-3" d="M397.87,144.06H392v-1h5.86Zm-11.71,0H380.3v-1h5.86Zm-11.71,0h-5.86v-1h5.86Zm-11.71,0h-5.86v-1h5.86Zm-11.71,0h-5.86v-1H351Zm-11.72,0h-5.85v-1h5.85Zm-11.71,0h-5.85v-1h5.85Zm-11.71,0H310v-1h5.85Zm-11.71,0h-5.85v-1h5.85Zm-11.71,0h-5.85v-1h5.85Zm-11.71,0H274.9v-1h5.86Zm-11.71,0h-5.86v-1h5.86Zm-11.71,0h-5.86v-1h5.86Zm-11.71,0h-5.86v-1h5.86Zm-11.71,0h-5.86v-1h5.86Zm-11.71,0h-5.86v-1h5.86Zm-11.71,0h-5.86v-1h5.86Zm-11.72,0h-5.85v-1h5.85Zm-11.71,0h-5.85v-1h5.85Zm-11.71,0h-5.85v-1h5.85Zm-11.71,0H157.8v-1h5.85Zm-11.71,0h-5.85v-1h5.85Zm-11.71,0h-5.86v-1h5.86Zm-11.71,0h-5.86v-1h5.86Zm-11.71,0H111v-1h5.86Zm-11.71,0H99.24v-1h5.86Zm-11.71,0H87.53v-1h5.86Zm-11.71,0H75.82v-1h5.86Zm-11.72,0H64.11v-1H70Zm-11.71,0H52.4v-1h5.85Zm-11.71,0H40.69v-1h5.85Z"/><rect class="cls-3" x="403.72" y="143.1" width="2.88" height="0.96"/><rect class="cls-3" x="31.95" y="122.42" width="2.88" height="0.96"/><path class="cls-3" d="M397.87,123.38H392v-1h5.86Zm-11.71,0H380.3v-1h5.86Zm-11.71,0h-5.86v-1h5.86Zm-11.71,0h-5.86v-1h5.86Zm-11.71,0h-5.86v-1H351Zm-11.72,0h-5.85v-1h5.85Zm-11.71,0h-5.85v-1h5.85Zm-11.71,0H310v-1h5.85Zm-11.71,0h-5.85v-1h5.85Zm-11.71,0h-5.85v-1h5.85Zm-11.71,0H274.9v-1h5.86Zm-11.71,0h-5.86v-1h5.86Zm-11.71,0h-5.86v-1h5.86Zm-11.71,0h-5.86v-1h5.86Zm-11.71,0h-5.86v-1h5.86Zm-11.71,0h-5.86v-1h5.86Zm-11.71,0h-5.86v-1h5.86Zm-11.72,0h-5.85v-1h5.85Zm-11.71,0h-5.85v-1h5.85Zm-11.71,0h-5.85v-1h5.85Zm-11.71,0H157.8v-1h5.85Zm-11.71,0h-5.85v-1h5.85Zm-11.71,0h-5.86v-1h5.86Zm-11.71,0h-5.86v-1h5.86Zm-11.71,0H111v-1h5.86Zm-11.71,0H99.24v-1h5.86Zm-11.71,0H87.53v-1h5.86Zm-11.71,0H75.82v-1h5.86Zm-11.72,0H64.11v-1H70Zm-11.71,0H52.4v-1h5.85Zm-11.71,0H40.69v-1h5.85Z"/><rect class="cls-3" x="403.72" y="122.42" width="2.88" height="0.96"/><path class="cls-2" d="M171.62,94.64a26.17,26.17,0,1,1-26.17-26.17h0a26.05,26.05,0,0,1,26.17,25.94Z"/><path class="cls-4" d="M156.15,88.38h0l-.13.23a8.28,8.28,0,0,0-2-8.48,12.92,12.92,0,0,0-7.73-3.51,12.48,12.48,0,0,0-6.24.49c-2.88,1.1-5.08,3.67-6.91,6.34a6.87,6.87,0,0,0-1.58,4.14,9.18,9.18,0,0,0,1.6,3.82c.69,1.2,1.27,2.69.77,4a7.65,7.65,0,0,1-1.42,2,2.66,2.66,0,0,0-.67,2.31,1.87,1.87,0,0,0,1.4,1.21,4.85,4.85,0,0,0,1.86,0l16-2.42a6.83,6.83,0,0,0,5-10.07Z"/><circle class="cls-5" cx="144.22" cy="90.49" r="7.84"/><path class="cls-6" d="M165.1,111.92a26.17,26.17,0,0,1-36.61,2.65l2.24-6.27a6.76,6.76,0,0,1,5.72-3.93l1.43-.08,3.41-2.94s9.17-.33,9-.48l5.56,3.34v0l2.18.14a6.72,6.72,0,0,1,5.72,3.93Z"/><path class="cls-4" d="M151.66,83.21c-.2-1.07-1.3-1.56-2.23-1.8a21.56,21.56,0,0,0-8.31-.45,9,9,0,0,0-5.56,2.5,7.48,7.48,0,0,0-1.9,4.82,5.74,5.74,0,0,0,.69,3.06,2.86,2.86,0,0,0,2.36,1.52l.09.32a14.25,14.25,0,0,0,9.9-6.63,8.41,8.41,0,0,1-2.48,4,15.45,15.45,0,0,0,6.68-5.14A3,3,0,0,0,151.66,83.21Z"/><circle class="cls-2" cx="368.46" cy="102.94" r="26.17"/><circle class="cls-4" cx="361.28" cy="89.42" r="3.69"/><circle class="cls-4" cx="367.19" cy="97.8" r="9.36"/><circle class="cls-7" cx="367.96" cy="99.55" r="7.61"/><path class="cls-4" d="M373.13,91.79a8.72,8.72,0,0,0-13.25,7.61c3.88,1,7.95,1.72,12.08.23l1-2.39.57,2.39c1.26.52,2.52,1,3.79,0A8.94,8.94,0,0,0,373.13,91.79Z"/><path class="cls-4" d="M357.84,79.39A7.55,7.55,0,0,0,350,80.61a8.54,8.54,0,0,0-2.73,7.6c.42,2.84,2.14,5.28,3.73,7.67s3.15,5,3.14,7.87a7.79,7.79,0,0,1-7.78,7.79c2.42,1,4.95,2.11,7.59,2s5.4-1.82,5.83-4.43c.31-1.87-.61-3.7-1.38-5.44a38.59,38.59,0,0,1-2.69-8.86,8.81,8.81,0,0,1,0-4.39A5.16,5.16,0,0,1,360.83,87l.87-.78A6.8,6.8,0,0,0,357.84,79.39Z"/><path class="cls-6" d="M388.15,120.45a26.16,26.16,0,0,1-36.61,2.64l2.24-6.26a6.75,6.75,0,0,1,5.73-3.93l1.42-.09,3.41-2.93s9.17-.33,9-.49l5.55,3.34v0l2.18.13a6.77,6.77,0,0,1,5.73,3.93Z"/><path class="cls-2" d="M320.17,75.09a26.16,26.16,0,1,1,0-.13Z"/><path class="cls-4" d="M281.87,66.53c1.09-3.45,3.55-6.61,6.95-7.78s8.39.61,10.95,3.16c4.68,4.67,5.82,20.69,2.6,25.76-.64,0-2.84-.06-3.49-.09l-.92-3v3c-1,0-2.07,0-3.11-.06a13.57,13.57,0,0,1-13.4-13.24A31.19,31.19,0,0,1,281.87,66.53Z"/><circle class="cls-7" cx="293.62" cy="70.5" r="7.46"/><path class="cls-4" d="M287.18,64l8.59-4.3h0a10.82,10.82,0,0,1,6.32,8.95l.21,2.56-3.59-.92-.4-3.27-.61,3L296,69.57l0-5.09-1.66,5.08-5.93-1.36Z"/><path class="cls-6" d="M313.42,92.36A26.16,26.16,0,0,1,276.81,95l2.25-6.26a6.72,6.72,0,0,1,5.72-3.93l1.42-.09,3.41-2.94s9.17-.33,9-.48l5.56,3.34v0l2.19.13a6.74,6.74,0,0,1,5.72,3.93Z"/><circle class="cls-2" cx="222.06" cy="117.36" r="26.17"/><circle class="cls-8" cx="221.34" cy="112.25" r="8.35"/><path class="cls-6" d="M241.69,134.87a26.16,26.16,0,0,1-36.61,2.64l2.25-6.26a6.72,6.72,0,0,1,5.72-3.93l1.42-.09,3.41-2.93s9.17-.33,9-.49l5.56,3.35v0l2.19.14a6.74,6.74,0,0,1,5.72,3.93Z"/><path class="cls-4" d="M230.15,107.07a10.79,10.79,0,0,0-4.51-6.14,7.36,7.36,0,0,0-5.93-1.1,4.82,4.82,0,0,0-3.5,4.65,2,2,0,0,0-2.06.63,4.76,4.76,0,0,0-1,2,13,13,0,0,0,.12,7.19l0,.34a3.23,3.23,0,0,0,2.16-1.88c.46-.89.73-1.87,1.22-2.73a3,3,0,0,1,2.3-1.67l-.09,1.5,2.54-1.3-.6,1.44,2.21-.92-.25,1.38a3.29,3.29,0,0,1,4.4-1.53l.13.07a4.31,4.31,0,0,1,1.79,2.51,13.35,13.35,0,0,1,.43,3.14A11,11,0,0,0,230.15,107.07Z"/><circle class="cls-2" cx="70.56" cy="129.26" r="26.17"/><circle id="a04f79c1-b358-4543-9edb-632b127caa90" class="cls-7" cx="69.98" cy="124.03" r="7.94"/><path class="cls-6" d="M89.85,146.53a26.15,26.15,0,0,1-36.61,2.65l2.24-6.26A6.74,6.74,0,0,1,61.2,139l1.43-.09L66,136s9.17-.32,9-.48l5.55,3.34v0l2.18.13a6.72,6.72,0,0,1,5.72,3.93Z"/><path class="cls-4" d="M62.77,127.7s0-.09-.05-.13l-.09.08Z"/><path class="cls-4" d="M79.49,121.21A5.72,5.72,0,0,0,77.36,117a5.07,5.07,0,0,1-1.31-1.18,8.7,8.7,0,0,1-.44-1.1,3.71,3.71,0,0,0-3.9-2,5.86,5.86,0,0,0-3.82,2.56,2.6,2.6,0,0,0-3.63,3,1.86,1.86,0,0,0-2.61.77,4.78,4.78,0,0,0-.28,3,28.29,28.29,0,0,0,1.35,5.44c.79-.69.74-1.95.64-3s0-2.45.93-3,2.07,0,3.1.35a5.86,5.86,0,0,0,4.85-.76A16.12,16.12,0,0,1,73.83,120a1.85,1.85,0,0,1,1.85,0,2.52,2.52,0,0,1,.86,1.51c.4,1.34.8,2.69,1.19,4A5.68,5.68,0,0,0,79.49,121.21Z"/><rect class="cls-9" x="68.14" y="175.57" width="2.5" height="73.22"/><rect class="cls-9" x="142.93" y="141.37" width="2.5" height="107.42"/><rect class="cls-9" x="217.88" y="163.85" width="2.5" height="84.93"/><rect class="cls-9" x="292.82" y="122.63" width="2.5" height="126.15"/><rect class="cls-9" x="367.76" y="151.36" width="2.5" height="97.43"/><circle class="cls-6" cx="144.34" cy="143.09" r="7.64"/><circle class="cls-6" cx="294.22" cy="123.11" r="7.64"/><circle class="cls-6" cx="219.28" cy="164.33" r="7.64"/><circle class="cls-6" cx="69.39" cy="175.57" r="7.64"/><circle class="cls-6" cx="369.16" cy="150.59" r="7.64"/><path class="cls-9" d="M422.77,248H17.06l-2.55,1.28a1.27,1.27,0,0,0,1.28,1.27h407a1.28,1.28,0,0,0,0-2.55Z"/><circle class="cls-9" cx="15.57" cy="248.7" r="7.64"/><circle class="cls-3" cx="69.41" cy="270.82" r="7.64"/><circle class="cls-3" cx="144.41" cy="270.82" r="7.64"/><circle class="cls-3" cx="219.41" cy="270.82" r="7.64"/><circle class="cls-3" cx="293.93" cy="270.82" r="7.64"/><circle class="cls-3" cx="368.93" cy="270.82" r="7.64"/><circle class="cls-9" cx="425.18" cy="248.7" r="7.64"/></svg>