<svg id="Layer_1" data-name="Layer 1" xmlns="http://www.w3.org/2000/svg" viewBox="0 0 483.15 376.62"><defs><style>.cls-1{fill:#e6e6e6;}.cls-2{fill:#fff;}.cls-3{fill:#f2f2f2;}.cls-4{fill:#ffb8b8;}.cls-5{fill:#3f3d56;}.cls-6{fill:#2f2e41;}.cls-7{fill:#10c0e8;}.cls-8{fill:#ccc;}.cls-9{fill:#f54394;}.cls-10{fill:#ffb6b6;}.cls-11{fill:#fd6584;}.cls-12{fill:#e4e4e4;}</style></defs><path class="cls-1" d="M282.6,93.79a72.41,72.41,0,0,1,93,21.95l-.73.52A71.42,71.42,0,1,0,258.41,198.9l-.73.51A72.29,72.29,0,0,1,282.6,93.79Z"/><path class="cls-1" d="M450.15,166.12l-104-8.09a6.13,6.13,0,0,1-5.62-6.57L345,100.92a6.13,6.13,0,0,1,6.57-5.62l104,8.09a6.12,6.12,0,0,1,5.62,6.57l-4.51,50.54A6.11,6.11,0,0,1,450.15,166.12Z"/><path class="cls-2" d="M425.57,154.7q-1.19,0-2.37-.09L356,149.38a10.27,10.27,0,0,1-9.44-11h0l1.53-19.71a10.29,10.29,0,0,1,11-9.44L446,116a10.29,10.29,0,0,1,9.44,11,30,30,0,0,1-29.9,27.7Z"/><path class="cls-1" d="M444,131.63,358.73,125a1.35,1.35,0,1,1,.21-2.7l85.22,6.62a1.36,1.36,0,1,1-.21,2.71Z"/><path class="cls-1" d="M408.56,134.25l-50.25-3.91a1.35,1.35,0,0,1,.21-2.7l50.25,3.91a1.35,1.35,0,1,1-.2,2.7Z"/><path class="cls-1" d="M419.63,140.49l-61.73-4.81a1.35,1.35,0,0,1,.2-2.7h0l61.73,4.8a1.36,1.36,0,0,1-.21,2.71Z"/><path class="cls-1" d="M443.19,234.73l-104-8.09a6.13,6.13,0,0,1-5.62-6.57l4.51-50.54a6.12,6.12,0,0,1,6.57-5.62l104,8.09a6.12,6.12,0,0,1,5.62,6.57l-4.51,50.54A6.11,6.11,0,0,1,443.19,234.73Z"/><path class="cls-2" d="M418.59,223.31c-.78,0-1.57,0-2.35-.09L349,218a10.27,10.27,0,0,1-9.44-11h0l1.53-19.71a10.27,10.27,0,0,1,11-9.44h0l86.94,6.76a10.27,10.27,0,0,1,9.44,11h0A30.08,30.08,0,0,1,418.59,223.31Z"/><path class="cls-1" d="M437,200.24l-85.22-6.63a1.35,1.35,0,1,1,.21-2.7h0l85.22,6.62a1.36,1.36,0,0,1,1.24,1.46A1.35,1.35,0,0,1,437,200.24Z"/><path class="cls-1" d="M401.6,202.86,351.35,199a1.35,1.35,0,1,1,.21-2.7l50.25,3.91a1.35,1.35,0,1,1-.21,2.7Z"/><path class="cls-1" d="M412.67,209.1l-61.73-4.81a1.35,1.35,0,1,1,.21-2.7h0l61.73,4.8a1.36,1.36,0,0,1-.21,2.71Z"/><path class="cls-1" d="M178.58,208.32a24.91,24.91,0,1,1,45.57-20.11h0l-.81.36a24,24,0,0,0-44,19.38h0Z"/><path class="cls-3" d="M436.74,347.22c10.17-4.82,17.75-14.51,16.57-25.17-9.13,7.39-21.55,11.52-34.37,11.42-5,0-10.59-.55-14.22,2.25a9.58,9.58,0,0,0-3.41,7.27,30.54,30.54,0,0,0,1.21,8.31l-.2.66C414.26,352.72,426.57,352,436.74,347.22Z"/><path class="cls-2" d="M453.05,322a39.45,39.45,0,0,1-19.22,17.81,20.12,20.12,0,0,1-5.87,1.72,13.23,13.23,0,0,1-6.1-.79,28.41,28.41,0,0,0-5.61-1.79,7.14,7.14,0,0,0-5.42,1.47,14.49,14.49,0,0,0-3.86,5.28c-1.08,2.15-2.17,4.4-4.29,5.87-.26.18.1.55.36.37,3.69-2.55,4.22-7.16,7.15-10.25a6.89,6.89,0,0,1,5.55-2.32,22,22,0,0,1,5.73,1.71,14.23,14.23,0,0,0,5.95,1,19,19,0,0,0,5.93-1.51,40.61,40.61,0,0,0,11.23-7,38.36,38.36,0,0,0,9-11.39c.13-.27-.37-.44-.51-.17Z"/><path class="cls-2" d="M436.67,338.76a8,8,0,0,0,8.95,2.28c.3-.13.05-.56-.24-.44a7.38,7.38,0,0,1-8.33-2.13c-.21-.25-.59,0-.38.29Z"/><path class="cls-2" d="M422.76,341.21a10.73,10.73,0,0,1,4.6-7.47c.26-.18-.1-.55-.35-.37a11.16,11.16,0,0,0-4.78,7.78c0,.3.49.35.53.06Z"/><path class="cls-2" d="M447.67,330.08a3.64,3.64,0,0,1-1.4-3.24c0-.3-.48-.35-.52-.06a4.05,4.05,0,0,0,1.53,3.59.32.32,0,0,0,.37,0,.21.21,0,0,0,0-.31,0,0,0,0,0,0,0Z"/><path class="cls-3" d="M419.75,299.52c0,.19-.06.37-.1.56a40.08,40.08,0,0,1-2,7.23l-.21.55a43.57,43.57,0,0,1-10,15.09,44.91,44.91,0,0,1-5.71,4.78c-2.84,2-6.11,4-7.9,6.67a7.61,7.61,0,0,0-.51.87l8.08,16.35.11.09.29.67.34-.21.19-.12.13-.08,0,0,.11-.06,1.92-1.23h0a68,68,0,0,0,13.15-10.88c.11-.12.23-.25.33-.38a40.68,40.68,0,0,0,4.46-6,35.09,35.09,0,0,0,1.89-3.59,29,29,0,0,0,2.52-10.07A26.35,26.35,0,0,0,420.15,300C420,299.8,419.89,299.67,419.75,299.52Z"/><path class="cls-2" d="M419.55,299.64a36.8,36.8,0,0,1-2.34,25.47,16,16,0,0,1-3.22,4.63,10.91,10.91,0,0,1-5.11,2.61,24.18,24.18,0,0,0-5.41,1.51A5.72,5.72,0,0,0,400.4,338a15.08,15.08,0,0,0,.69,6.56c.64,2.41,1.36,4.9.76,7.29-.07.29.45.41.52.12,1-4.15-1.69-8.35-1.59-12.55a5.66,5.66,0,0,1,2.59-5,18.54,18.54,0,0,1,5.45-1.63,11.72,11.72,0,0,0,5.11-2.38,15,15,0,0,0,3.43-4.48A35,35,0,0,0,421,314a38.33,38.33,0,0,0-1-14.5.25.25,0,0,0-.49.13Z"/><path class="cls-2" d="M418.6,322.66c3.33,1,6.85-.2,8.25-2.89.13-.27-.34-.5-.48-.24-1.3,2.52-4.57,3.65-7.67,2.68-.33-.1-.42.35-.1.45Z"/><path class="cls-2" d="M409.85,332.24a11.39,11.39,0,0,1-1.61-8.82c.07-.28-.45-.41-.52-.12a11.86,11.86,0,0,0,1.7,9.18C409.59,332.75,410,332.51,409.85,332.24Z"/><path class="cls-2" d="M421,309.37a4.45,4.45,0,0,1-3.23-2c-.17-.27-.6,0-.43.24a5,5,0,0,0,3.57,2.21.25.25,0,0,0,.31-.17A.26.26,0,0,0,421,309.37Z"/><path class="cls-4" d="M436.9,231.15l-6.18-32.9-12.13-16-9,5.88c1.27,6.89,10.88,19.75,10.88,19.75L429,233.36a2.88,2.88,0,0,0-.09.4,4.75,4.75,0,1,0,8-2.61Z"/><path class="cls-5" d="M409.84,191.63,420,183.37l0,0c1.9-4.32-2.32-11.72-6.21-17.16a8.69,8.69,0,0,0-11.64-2.36h0a8.73,8.73,0,0,0-4.06,8.27l.86,8.24Z"/><polygon class="cls-4" points="373.86 355.38 367.08 355.38 363.86 329.26 373.86 329.26 373.86 355.38"/><path class="cls-6" d="M375.59,353.17h-1.91l-7.44-3-4,3h0a8.51,8.51,0,0,0-8.51,8.5V362h21.85Z"/><polygon class="cls-4" points="403.91 355.38 397.14 355.38 393.92 329.26 403.92 329.26 403.91 355.38"/><path class="cls-6" d="M405.64,353.17h-1.9l-7.45-3-4,3h0a8.51,8.51,0,0,0-8.5,8.5V362h21.84Z"/><path class="cls-6" d="M414.24,242.84a72.13,72.13,0,0,1-1.18,18.59c-2,9.1-2,34.72-2,34.72l-4.35,49.91-13.05-1.18-3.56-83.45-12.66,28.08,1.19,4-1.58,1s1.18,7.72.39,7.72a9.41,9.41,0,0,0-2.76,1.18l1.58,40.74-13.45-.4-4.74-57.34,5.14-32.83.39-6.33,1.78.08.91-2.65,1.66-4.54Z"/><path class="cls-7" d="M414.93,244.84l.07-.1c3.76-5.27-1.9-17.94-2.75-19.77l3.59-1.17-.81-6.88-.38-3.07,2.75-2.75V211L419,197.19l2.3-9.2a20.21,20.21,0,0,0-5.73-19.56l-5.32-5-6.46-9.56H393.36l-3.57,6.75A15.19,15.19,0,0,0,378,176.11l.81,17.7-3.17,22v4l-3.57,4,.78,3.9-2.72,1.16-1.2,5.59c-.49.66-3.77,5-3.77,6.22,0,.18.14.35.42.54,2.23,1.51,14.57,4.6,20,2.41,5.82-2.32,28.93,1.16,29.17,1.2Z"/><path class="cls-8" d="M324.32,361.79a.52.52,0,0,0,.52.53H449.32a.53.53,0,0,0,0-1.06H324.85a.53.53,0,0,0-.53.53Z"/><circle class="cls-4" cx="397.23" cy="136.98" r="13.8"/><path class="cls-6" d="M395.9,151a37.76,37.76,0,0,0,6.37-.61c2.09-.48,6.68-4,7.93-6.13h0a18.32,18.32,0,0,0,1.79-5.72,16.78,16.78,0,0,0-3.28-13.24,5.3,5.3,0,0,0-2.18-1.77l-.24-.07a6.5,6.5,0,0,1-3.3-1.93,7.14,7.14,0,0,0-.56-.54,8,8,0,0,0-3.4-1.6c-2-.48-4.89.12-8.55,1.8a9.07,9.07,0,0,1-5.46.31.51.51,0,0,0-.48.17,3.6,3.6,0,0,1-2.43,1c-.56,0-1.12.83-1.81,1.86-.15.23-.33.5-.47.67l0-.32-.31.36a4.39,4.39,0,0,0,2.17,7.1,9,9,0,0,0,1.72.23,9.45,9.45,0,0,1,1.07.1,6.62,6.62,0,0,1,5,4.16,1.74,1.74,0,0,0,2.24,1,1.87,1.87,0,0,0,.39-.22,2.88,2.88,0,0,1,2.59-.54,1.92,1.92,0,0,1,.87.93,2.43,2.43,0,0,0,1,1.07c1.44.7,1.62,3.93,1.18,6.65s-1.34,4.52-2.24,4.63c-.69.09-.77.14-.81.27l-.05.11.08.1A2.89,2.89,0,0,0,395.9,151Z"/><circle class="cls-9" cx="244.25" cy="194.69" r="27.44"/><path class="cls-4" d="M392.72,190.6l-9.05-5.78c-5.76,4-13.55,18-13.55,18l-19.71,18.21a4.74,4.74,0,1,0,5.25,6.3l27.48-19.14Z"/><path class="cls-5" d="M391.86,193l6-14.46-2.18-8a8.72,8.72,0,0,0-6.77-6.24h0a8.71,8.71,0,0,0-10,6.4c-1.65,6.48-2.92,14.91.42,18.24l0,0Z"/><path class="cls-3" d="M40.81,354c-11.8-6.06-20.36-17.76-18.57-30.27,10.47,9,25,14.37,40.06,14.73,5.88.14,12.49-.25,16.66,3.19a11.25,11.25,0,0,1,3.74,8.69A35.15,35.15,0,0,1,81,360l.21.78C67.09,361.26,52.61,360,40.81,354Z"/><path class="cls-2" d="M22.53,323.66a46.55,46.55,0,0,0,22,21.7,23.9,23.9,0,0,0,6.84,2.25,15.67,15.67,0,0,0,7.22-.71A32.49,32.49,0,0,1,65.25,345a8.46,8.46,0,0,1,6.34,1.92,17.25,17.25,0,0,1,4.35,6.37c1.19,2.58,2.39,5.27,4.83,7.08.3.22-.14.64-.43.42-4.25-3.14-4.71-8.6-8-12.35a8.14,8.14,0,0,0-6.45-2.93c-2.35.09-4.59,1.07-6.81,1.8a16.68,16.68,0,0,1-7,.93,22.39,22.39,0,0,1-6.94-2,48.28,48.28,0,0,1-13-8.65,45.23,45.23,0,0,1-10.15-13.76c-.15-.32.45-.5.6-.18Z"/><path class="cls-2" d="M41.21,344a9.39,9.39,0,0,1-10.63,2.35c-.34-.16,0-.66.3-.5a8.71,8.71,0,0,0,9.89-2.2C41,343.34,41.47,343.69,41.21,344Z"/><path class="cls-2" d="M57.51,347.39a12.63,12.63,0,0,0-5.15-9c-.29-.22.14-.64.44-.42a13.12,13.12,0,0,1,5.33,9.34C58.16,347.69,57.54,347.74,57.51,347.39Z"/><path class="cls-2" d="M28.58,333.34a4.26,4.26,0,0,0,1.76-3.76c0-.35.59-.39.62-.05A4.77,4.77,0,0,1,29,333.7a.36.36,0,0,1-.44,0,.25.25,0,0,1,0-.36l0,0Z"/><path class="cls-3" d="M62.6,298.39c0,.22.06.44.1.66a47,47,0,0,0,2.07,8.59c.07.22.14.44.22.66a51.47,51.47,0,0,0,11.22,18.15,54.3,54.3,0,0,0,6.55,5.85c3.27,2.46,7,4.89,9.06,8.14a10.65,10.65,0,0,1,.57,1.05l-10.13,19-.14.1-.36.77-.4-.25a1.7,1.7,0,0,0-.22-.15l-.15-.1,0,0-.13-.09-2.22-1.51h0a79.82,79.82,0,0,1-15.09-13.31c-.13-.15-.26-.3-.38-.46a48.08,48.08,0,0,1-5-7.23,38.67,38.67,0,0,1-2.1-4.29,34,34,0,0,1-2.59-12,31.08,31.08,0,0,1,8.7-23Z"/><path class="cls-2" d="M62.84,298.53a43.41,43.41,0,0,0,1.8,30.1,18.85,18.85,0,0,0,3.63,5.57,12.8,12.8,0,0,0,5.92,3.27,28.28,28.28,0,0,1,6.31,2,6.7,6.7,0,0,1,3.46,5c.4,2.57-.29,5.17-1,7.71-.85,2.81-1.78,5.72-1.17,8.56.07.34-.54.46-.62.12-1.06-4.93,2.3-9.78,2.34-14.73a6.69,6.69,0,0,0-2.86-5.94c-1.84-1.17-4.19-1.55-6.36-2.12a13.84,13.84,0,0,1-5.94-3,17.51,17.51,0,0,1-3.86-5.4,41.41,41.41,0,0,1-3.89-14.25,45.49,45.49,0,0,1,1.72-17.05c.1-.35.68-.18.57.16Z"/><path class="cls-2" d="M63.09,325.7c-4,1.1-8.06-.5-9.6-3.72-.15-.32.42-.58.57-.27,1.44,3,5.24,4.48,8.94,3.45.39-.11.48.43.09.54Z"/><path class="cls-2" d="M73.05,337.3A13.37,13.37,0,0,0,75.27,327c-.07-.35.54-.47.62-.12a14,14,0,0,1-2.34,10.74c-.21.31-.71,0-.5-.3Z"/><path class="cls-2" d="M60.81,309.94a5.26,5.26,0,0,0,3.89-2.22c.21-.32.71,0,.5.29a5.9,5.9,0,0,1-4.3,2.47.29.29,0,0,1-.35-.21A.32.32,0,0,1,60.81,309.94Z"/><polygon class="cls-10" points="98.3 203.39 99.19 211.63 98.67 222.44 122.61 219.6 124.86 203.39 122 203.42 98.3 203.39"/><polygon class="cls-10" points="85.88 353.07 91.12 353.07 93.61 332.88 85.88 332.88 85.88 353.07"/><path class="cls-6" d="M84.17,349.48l8.37-.5v3.59l7.95,5.49a2.24,2.24,0,0,1-1.27,4.08h-10l-1.72-3.55-.67,3.55H83.12Z"/><polygon class="cls-10" points="115.29 353.07 120.52 353.07 123.02 332.88 115.29 332.88 115.29 353.07"/><path class="cls-6" d="M113.58,349.48l8.36-.5v3.59l8,5.49a2.24,2.24,0,0,1-1.28,4.08h-10L117,358.59l-.67,3.55h-3.75Z"/><path class="cls-6" d="M83.62,335.65h.06l1-32.83a8.57,8.57,0,0,1,.11-8.11l.14-.26-.37-1.74a11,11,0,0,1,.63-6.64l.94-30.62c-3.36-21.75,12.64-35.93,12.64-35.93h24l5.15,17.67c3.4,33.12,2.78,65.4-2.62,96.68l.15.07a1.24,1.24,0,0,1,.51,1.64c-.25.72-.88,1.16-1.41,1l-12.65-.44a1.25,1.25,0,0,1-.51-1.64c.25-.72.88-1.16,1.41-1l.86.44-1.84-31.69.21-5.78-.42-6.57-1.94-29.53-7.34,36.31L94.79,336a1.38,1.38,0,0,1-.93,2.4H83.62a1.39,1.39,0,0,1,0-2.77Z"/><circle class="cls-10" cx="102.48" cy="148.35" r="12.85"/><path class="cls-6" d="M46.18,207.72a41.64,41.64,0,0,1,7.34-11.46A28.2,28.2,0,0,0,49.23,210a20.94,20.94,0,0,0,2.93,1.54,27.86,27.86,0,0,0,9.6,2.15,42.18,42.18,0,0,1,9-16,28.36,28.36,0,0,0-4.31,15.93,44,44,0,0,0,10.81-2.31c5.24-1.81,10.33-4.5,14-8.69,3.92-4.54,5.86-10.52,6.48-16.49s0-12-.55-17.94c-.28-2.85,2.09-6.12,1.81-9h-.19a18.81,18.81,0,0,1-3.12-5.48,6.38,6.38,0,0,1,.94-6A6.52,6.52,0,0,1,99.45,146a3.9,3.9,0,0,1,.33-.38,26.67,26.67,0,0,1,7.34-5.49A11,11,0,0,0,103.2,145l5.15-1.13c.57-.6,1.18-1.18,1.81-1.73a19.13,19.13,0,0,1,2.31-1.61,7.46,7.46,0,0,0-2,2.86c2.21-.56,4.41-1.39,5.56-3.29,1.9-3.14-.36-7.37-3.51-9.24a12.58,12.58,0,0,0-14.61,1.6c-4.56-3.36-11.06-3.3-16.14-.79A23.63,23.63,0,0,0,73.36,139a32.22,32.22,0,0,1,3.81-.26,11.6,11.6,0,0,0-5,2,34,34,0,0,0-1.81,3.16c-.36.71-.7,1.44-1,2.17a105.42,105.42,0,0,0-4.54,13.86c-1.54,5.45-3.19,10.94-6.07,15.82a35.54,35.54,0,0,1-19.6,15.64C38.45,197.55,41.46,203.58,46.18,207.72Z"/><path class="cls-9" d="M115.42,169.79l-2.49-.93-3.15-5.09-11.2.92-2.72,5.45-6.56,5,2.87,15.11,4.46,18.35,29.83-3.73,0-13.82s5.39-10.91-3.32-15Z"/><path class="cls-10" d="M161.41,217.71a4.23,4.23,0,0,1-5.77-3.09l-33.27-20.13,6.08-7,30.79,22a4.29,4.29,0,0,1,2.17,8.24Z"/><path class="cls-9" d="M111.29,185s-1.59,1.6,2.4,4.23c3.19,2.1,17.44,12.51,22.48,14.15a3.34,3.34,0,0,0,2.24,3.45l4.57-10c-1-2.3-2.57-1.77-3.4-1.25l-5.52-4.15L120.5,177.8l-8.08,6Z"/><path class="cls-11" d="M98,132.83a17.92,17.92,0,0,0-2.15,15.73"/><path class="cls-8" d="M32.8,361.79a.53.53,0,0,0,.53.53H157.8a.53.53,0,0,0,0-1.06H33.33a.53.53,0,0,0-.53.53Z"/><path id="a4a87c0b-578c-404f-b0e7-3c25016717c2" class="cls-1" d="M80.23,241.68a1.23,1.23,0,0,0-.76,1.58l17.34,50a1.23,1.23,0,0,0,1.58.76l100.9-35.4a1.24,1.24,0,0,0,.76-1.58l-17.34-50a1.23,1.23,0,0,0-1.58-.76Z"/><path class="cls-2" d="M105.77,286.79a9.62,9.62,0,0,1-9.06-6.4l-9.52-26.95A9.58,9.58,0,0,1,93,241.2l51-18a38.23,38.23,0,0,1,48.72,23.27,9.61,9.61,0,0,1-5.85,12.25l-.08-.21.08.21L109,286.24A9.68,9.68,0,0,1,105.77,286.79Z"/><path id="e6660b72-17a8-4076-a000-8bf222be7673" class="cls-1" d="M173.39,233.67l-45.66,16c-.64.22-1.44-.38-1.78-1.35s-.09-1.94.55-2.17l45.66-16c.65-.22,1.44.38,1.78,1.35S174,233.45,173.39,233.67Z"/><path id="f689c0b7-f689-4c10-b0b9-25ad5f15d9dd" class="cls-1" d="M176.93,243.74l-45.67,16c-.64.23-1.44-.38-1.78-1.35s-.09-1.93.55-2.16l45.66-16c.65-.23,1.45.38,1.79,1.35S177.57,243.51,176.93,243.74Z"/><path class="cls-12" d="M121.55,255.17a12.38,12.38,0,0,1,.71,4.31,12.3,12.3,0,0,1-20.33,9.11c-.17-.14-.33-.29-.49-.44a12.3,12.3,0,1,1,20.11-13Z"/><circle class="cls-11" cx="110.47" cy="258.8" r="2.35"/><path class="cls-5" d="M101.44,268.15c.61-1.4,1.32-3.54,3-2.76.82.36,2.28,1.43,2.88.18l4.65-9.73a1.51,1.51,0,0,1,2-.7h0l8.27,4.33a12.21,12.21,0,0,1-.2,2l-20.13,7.11Z"/><path class="cls-10" d="M103.84,239.41a4.27,4.27,0,0,1-2.43-5.52,3.6,3.6,0,0,1,.34-.68L91.22,195.78l9.23-1,7.45,37.09a4.29,4.29,0,0,1-4.06,7.5Z"/><path class="cls-9" d="M89.67,175.24s-2.26.08-1.14,4.73c.89,3.72,4.16,27.05,6.72,31.7a3.37,3.37,0,0,0-.72,4.05l10.2-4.21c.85-2.35.19-4.49-.77-4.68l-1.19-6.8L101,177.2l-9.72-2Z"/><path class="cls-9" d="M181.58,273.71l-14.11.59a2,2,0,0,1-1.6-.69,2,2,0,0,1-.45-1.65,38.44,38.44,0,0,0-.92-17.74,2,2,0,0,1,1-2.32c5.78-3,11.19-3.16,16.09-.45a2,2,0,0,1,1,1.35,62.87,62.87,0,0,1,.91,19.11A2,2,0,0,1,181.58,273.71Z"/><path class="cls-2" d="M181,264.48l-10.79.44a1,1,0,0,1-1.05-1,1,1,0,0,1,1-1.06h0l10.79-.45a1,1,0,0,1,.09,2Z"/><path class="cls-2" d="M180.84,260.93l-10.79.45a1,1,0,0,1-1.06-1,1,1,0,0,1,1-1l10.79-.45a1,1,0,0,1,.09,2Z"/><path class="cls-9" d="M439.66,163.33l-14-1.84a2,2,0,0,1-1.63-2.65,38.38,38.38,0,0,0,2.13-17.64,2,2,0,0,1,1.36-2.12c6.21-2,11.57-1.19,15.94,2.31a2,2,0,0,1,.76,1.51,63.07,63.07,0,0,1-2.37,19A2,2,0,0,1,439.66,163.33Z"/><path class="cls-2" d="M440.65,154.13l-10.71-1.41a1,1,0,0,1,.27-2h0l10.7,1.41a1,1,0,0,1,.88,1.13,1,1,0,0,1-1.14.88Z"/><path class="cls-2" d="M441.11,150.6l-10.71-1.4a1,1,0,0,1,.26-2h0l10.71,1.4a1,1,0,0,1,.87,1.14,1,1,0,0,1-1.13.87Z"/><path class="cls-2" d="M253.13,190.47h-4.66v-4.66a4.22,4.22,0,0,0-8.44,0v4.66h-4.66a4.22,4.22,0,0,0,0,8.44H240v4.66a4.22,4.22,0,0,0,8.44,0v-4.66h4.66a4.22,4.22,0,1,0,0-8.44Z"/><circle class="cls-5" cx="404.13" cy="99.73" r="4.45"/><circle class="cls-5" cx="131.02" cy="225.4" r="4.45"/></svg>