<svg id="Layer_1" data-name="Layer 1" xmlns="http://www.w3.org/2000/svg" viewBox="0 0 500.87 385.21"><defs><style>.cls-1{fill:#f2f2f2;}.cls-2{fill:#fff;}.cls-3{fill:#3f3d56;}.cls-4{fill:#f54394;}.cls-5{fill:#e6e6e6;}.cls-6{fill:#a0616a;}.cls-7{fill:#2f2e41;}</style></defs><path class="cls-1" d="M405.19,261.61H53.87a9.06,9.06,0,0,1-9-9.05V35.94a6.63,6.63,0,0,1,6.62-6.63h356a6.74,6.74,0,0,1,6.74,6.74V252.56A9.06,9.06,0,0,1,405.19,261.61Z"/><path class="cls-2" d="M393.83,250.19H66.41a8.45,8.45,0,0,1-8.7-8.15V53.39a6.26,6.26,0,0,1,6.45-6H396a6.37,6.37,0,0,1,6.56,6.14V242A8.45,8.45,0,0,1,393.83,250.19Z"/><path class="cls-3" d="M414.11,37.06H44.7v-4.6a9.1,9.1,0,0,1,9.08-9.08H405a9.1,9.1,0,0,1,9.08,9.08Z"/><circle class="cls-2" cx="61.2" cy="30.24" r="2.35"/><circle class="cls-2" cx="70.11" cy="30.24" r="2.35"/><circle class="cls-2" cx="79.03" cy="30.24" r="2.35"/><path class="cls-4" d="M150.15,77H92.28a8.77,8.77,0,0,0-8.77,8.77h0v39.38a8.77,8.77,0,0,0,8.77,8.77h57.87a8.77,8.77,0,0,0,8.77-8.77V85.75A8.77,8.77,0,0,0,150.15,77Z"/><path class="cls-4" d="M191,85.75v39.38a8.77,8.77,0,0,0,8.77,8.77h57.86a8.77,8.77,0,0,0,8.78-8.77V85.75A8.78,8.78,0,0,0,257.59,77H199.73A8.77,8.77,0,0,0,191,85.75Z"/><path class="cls-5" d="M298.41,85.75v39.38a8.77,8.77,0,0,0,8.77,8.77H365a8.76,8.76,0,0,0,8.77-8.77V85.75A8.77,8.77,0,0,0,365,77H307.18A8.77,8.77,0,0,0,298.41,85.75Z"/><path class="cls-5" d="M83.51,172.91V212.3a8.77,8.77,0,0,0,8.77,8.77h57.87a8.77,8.77,0,0,0,8.77-8.77V172.91a8.77,8.77,0,0,0-8.77-8.77H92.28A8.77,8.77,0,0,0,83.51,172.91Z"/><path class="cls-5" d="M191,172.91V212.3a8.77,8.77,0,0,0,8.77,8.77h57.86a8.78,8.78,0,0,0,8.78-8.77V172.91a8.78,8.78,0,0,0-8.78-8.77H199.73A8.77,8.77,0,0,0,191,172.91Z"/><path class="cls-4" d="M298.41,172.91V212.3a8.77,8.77,0,0,0,8.77,8.77H365a8.77,8.77,0,0,0,8.77-8.77V172.91a8.77,8.77,0,0,0-8.77-8.77H307.18A8.77,8.77,0,0,0,298.41,172.91Z"/><circle class="cls-2" cx="121.21" cy="105.44" r="12.06"/><path class="cls-2" d="M139.64,135H102.78a18.24,18.24,0,0,1,3.3-4.51,18,18,0,0,1,12.79-5.29h4.69A18.07,18.07,0,0,1,139.64,135Z"/><circle class="cls-2" cx="228.66" cy="105.44" r="12.06"/><path class="cls-2" d="M247.09,135H210.23a18.24,18.24,0,0,1,3.3-4.51,18,18,0,0,1,12.79-5.29H231A18.07,18.07,0,0,1,247.09,135Z"/><circle class="cls-2" cx="336.11" cy="105.44" r="12.06"/><path class="cls-2" d="M354.54,135H317.68a18.46,18.46,0,0,1,3.29-4.51,18,18,0,0,1,12.79-5.29h4.7A18.07,18.07,0,0,1,354.54,135Z"/><circle class="cls-2" cx="121.21" cy="192.61" r="12.06"/><path class="cls-2" d="M139.64,222.16H102.78a18.16,18.16,0,0,1,16.09-9.8h4.69A18.09,18.09,0,0,1,139.64,222.16Z"/><circle class="cls-2" cx="228.66" cy="192.61" r="12.06"/><path class="cls-2" d="M247.09,222.16H210.23a18.16,18.16,0,0,1,16.09-9.8H231A18.09,18.09,0,0,1,247.09,222.16Z"/><circle class="cls-2" cx="336.11" cy="192.61" r="12.06"/><path class="cls-2" d="M354.54,222.16H317.68a18.22,18.22,0,0,1,3.29-4.5,18,18,0,0,1,12.79-5.3h4.7A18.09,18.09,0,0,1,354.54,222.16Z"/><path class="cls-3" d="M486,357.64H342.93a.55.55,0,0,1-.55-.55.55.55,0,0,1,.55-.55H486a.55.55,0,0,1,.55.55A.55.55,0,0,1,486,357.64Z"/><polygon class="cls-6" points="412.39 350.95 405.67 350.95 402.47 325.03 412.39 325.03 412.39 350.95"/><path class="cls-7" d="M400.87,349h13v8.16H392.71A8.16,8.16,0,0,1,400.87,349Z"/><polygon class="cls-6" points="437.61 350.95 430.89 350.95 427.69 325.03 437.61 325.03 437.61 350.95"/><path class="cls-7" d="M426.09,349h13v8.16H417.93A8.16,8.16,0,0,1,426.09,349Z"/><path class="cls-6" d="M436.79,273.74A5.89,5.89,0,0,1,435,265.6a6.24,6.24,0,0,1,.64-.82L431.23,202,444,203.22l.35,61.5a5.92,5.92,0,0,1-7.54,9Z"/><path class="cls-7" d="M412.07,337.89l-7.39-.35a2.47,2.47,0,0,1-2.35-2.45c-1.95-30.11-4.66-62.39-.52-74.86a2.46,2.46,0,0,1,2.45-2.48,1.53,1.53,0,0,1,.37,0l29.6,4.3a2.45,2.45,0,0,1,2.11,2.42c3.78,14.77,4,41.55,3.81,69.37a2.47,2.47,0,0,1-2.45,2.48h-8a2.45,2.45,0,0,1-2.44-2.08L422.35,303a1.92,1.92,0,0,0-3.8.07l-3.91,32.67a2.46,2.46,0,0,1-2.45,2.17Z"/><path class="cls-3" d="M417.28,264.49a37.39,37.39,0,0,0-14.07-4.82,2.42,2.42,0,0,1-1.68-.91,2.47,2.47,0,0,1-.51-1.87l7.09-52.66A18.23,18.23,0,0,1,418.73,190a17.74,17.74,0,0,1,17.21,1.35l.72.5a18.19,18.19,0,0,1,6.92,19c-4.35,17.79-5.84,47-6.1,52.63a2.46,2.46,0,0,1-1.6,2.2,24.71,24.71,0,0,1-8.34,1.48A20.92,20.92,0,0,1,417.28,264.49Z"/><path class="cls-3" d="M434.12,223.08a2.43,2.43,0,0,1-1-1.86l-.93-16.93a6.79,6.79,0,0,1,13.34-2.15l4.11,15.13a2.48,2.48,0,0,1-1.74,3l-11.67,3.16A2.43,2.43,0,0,1,434.12,223.08Z"/><circle class="cls-6" cx="423.22" cy="169.39" r="13.46"/><path class="cls-6" d="M374.42,195.84a5.58,5.58,0,0,1,.13.9l23.55,13.59,5.73-3.3,6.1,8-12.24,8.73-26.87-21.2a5.75,5.75,0,1,1,3.4-7.39,5.31,5.31,0,0,1,.2.68Z"/><path class="cls-3" d="M399,209.17a2.47,2.47,0,0,1,.7-2l12-12a6.8,6.8,0,0,1,10.51,8.51l-8.54,13.15a2.47,2.47,0,0,1-3.41.73L400.06,211A2.42,2.42,0,0,1,399,209.17Z"/><path class="cls-7" d="M432.74,180a4.35,4.35,0,0,1-7.5-2.41,4.12,4.12,0,0,1,0-.86c.16-1.61,1.1-3.08.88-4.79a2.48,2.48,0,0,0-.46-1.18c-2-2.68-6.7,1.2-8.59-1.23-1.16-1.49.2-3.83-.69-5.49-1.17-2.2-4.65-1.12-6.83-2.32-2.42-1.33-2.28-5-.68-7.32a11.51,11.51,0,0,1,8.73-4.44,23.51,23.51,0,0,1,9.86,1.92c3.58,1.4,7.12,3.32,9.32,6.47,2.68,3.82,2.94,9,1.6,13.43C437.57,174.54,434.8,177.86,432.74,180Z"/></svg>