<svg id="Layer_1" data-name="Layer 1" xmlns="http://www.w3.org/2000/svg" viewBox="0 0 424.89 229.59"><defs><style>.cls-1{fill:#3f3d56;}.cls-2{fill:#a0616a;}.cls-3{fill:#2f2e41;}.cls-4{fill:#575a89;}.cls-5{opacity:0.2;isolation:isolate;}.cls-6{fill:#10c0e8;}.cls-7{fill:#f54394;}.cls-8{fill:#fbbebe;}.cls-9{fill:#cfcce0;}</style></defs><rect class="cls-1" x="288.45" y="162.52" width="91.9" height="0.76"/><polygon class="cls-2" points="308.95 155.66 311.62 169.77 317.34 171.3 315.81 154.52 308.95 155.66"/><polygon class="cls-2" points="340.98 155.66 343.65 169.77 349.37 171.3 347.84 154.52 340.98 155.66"/><path class="cls-3" d="M315.05,167.1s-6.1-.38-6.1,1.53S305.9,177,305.9,177s-2.29,7.62,3.81,6.86,9.91-7.63,9.91-7.63L318.1,169Z"/><path class="cls-3" d="M345.61,167.81s-4.07-2.62-3.78-.88.58,6.4,2.61,6.69,8.14,2,8.43,2.62,7.27,2.9,7.27-.88-4.36-6.68-4.36-6.68l-4.94-3.78s-3.2-.29-3.78,1.74S345.61,167.81,345.61,167.81Z"/><path class="cls-2" d="M307,75.39s-6.48-9.54-8.77-6.49,5.72,8.77,5.72,8.77Z"/><path class="cls-4" d="M309.24,84.54c-.39-.38-7.25-6.87-7.25-6.87l5-3.43L312.67,80Z"/><path class="cls-4" d="M310.19,55s-5,.38-4.58,4.57,3.63,18.11,3.63,18.11l1.9,3.82S318.2,59.56,310.19,55Z"/><path class="cls-3" d="M310.57,41.64l1.37,4.57h17.2l.5-5,1.48,5h2.21l.5-5,1.49,5h2.32L335.46,41a42.35,42.35,0,0,1-2.31-7.8,14.69,14.69,0,0,0-14.38-11.72h-.61c-9.64.39-15.81,10.49-12.11,19.4l2.23,5.37h1.83Z"/><path class="cls-3" d="M310.38,81.49S298.56,91.4,302,104.75,306.57,160,306.57,160l11.82-1.15V106.27l16.39,31.27,2.67,22.5,13.35-2.29-6.1-27.46L333,95.3l-1.24-10.1Z"/><circle class="cls-2" cx="318.58" cy="34.01" r="8.01"/><path class="cls-2" d="M313.81,39.54s3.43,12.59,1.53,14.11,13.34-5,13.34-5S322.2,41.45,323,38.4Z"/><path class="cls-4" d="M327.92,46s-6.11,5.26-12,5.68c0,0-7.82,4.24-7.44,4.62S310,62,310,62s1.9,2.94,1.9,9.15c0,.76-2.66,11.44-2.66,11.44l22.49,3.05s6.1-19.83,6.49-26.69,2.66-14.11-.77-14.49S327.92,46,327.92,46Z"/><path class="cls-4" d="M336.69,46s2.67-2.28,4.19,3,7.63,22.12,6.11,25.55-10.68,18.69-10.68,18.69l-4.58-3,9.15-17.16-5.33-12.2Z"/><path class="cls-2" d="M333.64,89.88s-11.82,7.24-8,8.77,10.3-6.49,10.3-6.49Z"/><polygon class="cls-3" points="309.81 24.86 309.81 32.87 312.86 32.87 314 29.44 314.29 32.87 322.77 32.87 323.92 29.44 324.2 32.87 327.73 32.87 327.73 24.86 309.81 24.86"/><path class="cls-5" d="M309.81,62.61s-.77,7.63.38,9.15S309.81,62.61,309.81,62.61Z"/><rect class="cls-1" x="82.16" y="195.69" width="161.68" height="0.76"/><path class="cls-1" d="M234,137.77,187.1,184.68a38.25,38.25,0,0,1-54.08,0c-.63-.63-1.24-1.28-1.82-2a35.41,35.41,0,0,1-2.67-3.43,37.74,37.74,0,0,1-6-14.49c-.22-1.13-.38-2.27-.49-3.43s-.18-2.47-.18-3.73a38.34,38.34,0,0,1,1.42-10.38,35.33,35.33,0,0,1,1.14-3.43A38.3,38.3,0,0,1,133,130.6l20.46-20.46a5.72,5.72,0,0,1,8.09,8.09l-20.46,20.46a26.65,26.65,0,0,0-7.85,18.95,27.29,27.29,0,0,0,.26,3.73,24.82,24.82,0,0,0,.7,3.43A26.79,26.79,0,0,0,179,176.59L190.8,164.8l21-21,14.15-14.15a26.84,26.84,0,0,0,3-34.32,5.72,5.72,0,0,1,9.38-6.55A38.3,38.3,0,0,1,234,137.77Z"/><path class="cls-1" d="M307.52,48.42c0,.28,0,.56,0,.85a38.07,38.07,0,0,1-4.89,17.92,38.75,38.75,0,0,1-6.3,8.27L275.86,95.92a5.72,5.72,0,0,1-8.09-8.08l20.46-20.47.18-.18a26.64,26.64,0,0,0,7.65-17.92c0-.29,0-.57,0-.85,0-.87,0-1.73-.12-2.59a26.77,26.77,0,0,0-7.73-16.36c-.41-.41-.82-.8-1.25-1.18a26.83,26.83,0,0,0-35.4,0c-.43.38-.84.77-1.25,1.18L203.42,76.38a26.83,26.83,0,0,0,0,37.9,5.72,5.72,0,1,1-8.09,8.09h0a38.28,38.28,0,0,1,0-54.08l46.91-46.91a38.3,38.3,0,0,1,59.57,6.91,37,37,0,0,1,1.89,3.44,37.78,37.78,0,0,1,3.73,14.1C307.49,46.69,307.52,47.55,307.52,48.42Z"/><path class="cls-6" d="M62.46,211c-1.75,6.46-7.73,10.46-7.73,10.46s-3.15-6.47-1.41-12.93,7.73-10.45,7.73-10.45S64.2,204.55,62.46,211Z"/><path class="cls-6" d="M46.57,211c1.74,6.46,7.73,10.46,7.73,10.46s3.15-6.47,1.4-12.93S48,198.08,48,198.08,44.82,204.55,46.57,211Z"/><path class="cls-1" d="M49.13,209.62c4.8,4.66,5.38,11.84,5.38,11.84s-7.19-.4-12-5.06-5.38-11.84-5.38-11.84S44.34,205,49.13,209.62Z"/><path class="cls-1" d="M59.89,209.62c-4.79,4.66-5.38,11.84-5.38,11.84s7.19-.4,12-5.06,5.38-11.84,5.38-11.84S64.68,205,59.89,209.62Z"/><path class="cls-1" d="M275.11,47.74a7.93,7.93,0,0,1-.15,1.53,7.66,7.66,0,1,1,.15-1.53Z"/><path class="cls-1" d="M162.62,163.28a7.76,7.76,0,0,1-.15,1.52,7.66,7.66,0,1,1,.15-1.52Z"/><rect class="cls-1" x="14.67" y="220.86" width="88.08" height="0.76"/><path class="cls-7" d="M235.33,28.29h16.25c-.43.38-.84.77-1.25,1.18l-2.26,2.26H231.9Z"/><path class="cls-7" d="M303.7,31.73H290.25a25.46,25.46,0,0,0-2-2.26c-.41-.41-.82-.8-1.25-1.18h14.83A37,37,0,0,1,303.7,31.73Z"/><polygon class="cls-7" points="217.79 45.83 233.97 45.83 230.53 49.27 214.36 49.27 217.79 45.83"/><path class="cls-7" d="M274.87,45.83a7.69,7.69,0,0,1,.09,3.44H260a7.69,7.69,0,0,1,.09-3.44Z"/><path class="cls-7" d="M307.52,48.42c0,.28,0,.56,0,.85H296.07c0-.29,0-.57,0-.85,0-.87,0-1.73-.12-2.59h11.47C307.49,46.69,307.52,47.55,307.52,48.42Z"/><polygon class="cls-7" points="199.87 63.76 216.04 63.76 212.61 67.19 196.44 67.19 199.87 63.76"/><path class="cls-7" d="M304.33,63.76a37.77,37.77,0,0,1-1.71,3.43H288.41a26.81,26.81,0,0,0,2.86-3.43Z"/><path class="cls-7" d="M137.08,143.83a26.35,26.35,0,0,0-1.75,3.43H123.24a35.33,35.33,0,0,1,1.14-3.43Z"/><polygon class="cls-7" points="227.95 143.83 224.52 147.26 208.34 147.26 211.77 143.83 227.95 143.83"/><path class="cls-7" d="M134.22,164.8H122.49c-.22-1.13-.38-2.27-.49-3.43h11.52A24.82,24.82,0,0,0,134.22,164.8Z"/><path class="cls-7" d="M162.62,163.28a7.76,7.76,0,0,1-.15,1.52H147.52a7.64,7.64,0,0,1,.09-3.43h14.77A7.63,7.63,0,0,1,162.62,163.28Z"/><polygon class="cls-7" points="210.41 161.37 206.97 164.8 190.8 164.8 194.23 161.37 210.41 161.37"/><path class="cls-7" d="M150.59,182.72H131.2a35.41,35.41,0,0,1-2.67-3.43h15.73A26.21,26.21,0,0,0,150.59,182.72Z"/><path class="cls-7" d="M192.49,179.29l-3.44,3.43H169.53a26.21,26.21,0,0,0,6.33-3.43Z"/><path class="cls-3" d="M135,74.9c-2.91-4.92-8.68-5.15-8.68-5.15s-5.62-.72-9.23,6.78c-3.36,7-8,13.75-.74,15.38l1.31-4.07.81,4.38a29.15,29.15,0,0,0,3.1,0c7.77-.25,15.16.07,14.92-2.71C136.19,85.85,137.82,79.64,135,74.9Z"/><polygon class="cls-8" points="114 183.68 114.39 193.59 121.25 193.59 120.87 182.91 114 183.68"/><path class="cls-3" d="M132.69,113.52l-.7,2.3-9,29.87L122,149l.76,35.08-9.53,1.14s-.28-3.68-.69-9.12c-.82-10.77-2.16-28.42-2.94-38-.28-3.56-.49-6-.56-6.61-.38-3.05,4.57-18.3,4.57-18.3l9.92-.77Z"/><path class="cls-3" d="M116.29,192.45s-2.67-3-3.05-.76-5,11.05-5,11.05-13.34,8.77-1.9,9.54c0,0,5.72-.77,7.62-3.82,0,0,3-1.9,3.82-1.9s5.34-1.53,4.57-3.82-.38-10.67-.38-10.67Z"/><polygon class="cls-8" points="115.91 174.53 119.34 181.01 124.68 178.34 121.25 170.71 115.91 174.53"/><path class="cls-5" d="M113.24,155.84A51.51,51.51,0,0,1,109.62,140c5.52-6.17,12.2-13,12.2-13l8-.38,2.48-.19c.58,5.8-4.33,13.26-9.31,19.21A104,104,0,0,1,113.24,155.84Z"/><path class="cls-3" d="M123.16,126.86s-24.41,21.36-21,30.13,13,19.44,13,19.44l7.36-4.39-7-16.2s2.93-2.59,6.49-6.44c5.8-6.26,13.28-15.83,12.57-22.92l-.38-13-6.48.76Z"/><path class="cls-3" d="M120.87,179.48s-2.67,0-2.29,2.29,1.14,6.1,1.14,6.1-3,17.92,4.2,13.73,5.34-15.25,5.34-15.25,2.67-6.87-.77-7.63-4.57-1.52-5-1.14S120.87,179.48,120.87,179.48Z"/><circle class="cls-8" cx="126.21" cy="79.2" r="6.86"/><path class="cls-8" d="M123.54,81.87s3,8,1.9,8.39A17.24,17.24,0,0,0,122,92.54L125.82,96l9.92-5.34s-4.58-6.1-4.2-8.77Z"/><path class="cls-9" d="M135.74,89.11s-8,3.94-10.85,1.4c0,0-4.79-.25-5.55,2.42s.76,4.95-1.14,5.72-3.24,2.86-2.1,6.29,1,4-.57,5.14-3,3.44-3,4.2-1.53.76-.76,1.52-.77,0,.76.77,5.72-6.1,8.77-2.67,12.58,9.15,13.34,5.72,3.06-11.82,3.06-11.82,8-14.87,5.71-16.4S135.74,89.11,135.74,89.11Z"/><path class="cls-8" d="M134.59,115.8s-4.19-.76-5.33,1.91-7.63,8.77-3.44,9.15,7.25-6.48,7.25-6.48l4.19-.76Z"/><path class="cls-9" d="M138.79,91.4l5,.28s2.25,2.39,2.64,4.68,7.62,19.44,3.05,21.35S135,120.76,135,120.76l-1.15-5.34,6.48-2.28-4.57-9.54Z"/><polygon class="cls-5" points="116.1 156.03 122.37 171.71 114.96 156.03 121.44 149.17 116.1 156.03"/><polygon class="cls-5" points="112.34 173.29 114.96 176.62 113.05 176.62 112.34 173.29"/><circle class="cls-3" cx="127.03" cy="69.77" r="4.17"/><path class="cls-3" d="M122.43,68.67a4.16,4.16,0,0,1,3.73-4.14l-.44,0a4.18,4.18,0,0,0,0,8.35h0l.44,0A4.16,4.16,0,0,1,122.43,68.67Z"/><polygon class="cls-3" points="133.72 74.43 128.03 71.44 120.16 72.66 118.53 79.86 122.58 79.7 123.71 77.06 123.71 79.66 125.58 79.58 126.67 75.38 127.35 79.86 133.99 79.72 133.72 74.43"/></svg>