<svg id="Layer_1" data-name="Layer 1" xmlns="http://www.w3.org/2000/svg" viewBox="0 0 512.45 384"><defs><style>.cls-1{fill:#3f3d56;}.cls-2{fill:#f54394;}.cls-3{fill:#2f2e41;}.cls-4{fill:#fff;}</style></defs><path class="cls-1" d="M242.49,177.54l137.2-.25a.92.92,0,1,0,0-1.84l-137.2.24a.93.93,0,0,0,0,1.85Z"/><circle class="cls-1" cx="240.44" cy="177.54" r="12.95"/><path class="cls-1" d="M373.54,177.47a88.74,88.74,0,1,1,88.74-88.73h0A88.84,88.84,0,0,1,373.54,177.47Zm0-171.35a82.62,82.62,0,1,0,82.62,82.62A82.62,82.62,0,0,0,373.54,6.12Z"/><path class="cls-2" d="M411.83,124.29a16.42,16.42,0,1,1,16.41-16.43A16.41,16.41,0,0,1,411.83,124.29Zm-38.29,0a16.43,16.43,0,0,1-16.41-16.41V69.59a16.41,16.41,0,1,1,32.82,0v38.29A16.43,16.43,0,0,1,373.54,124.29Zm-38.28,0a16.44,16.44,0,0,1-16.42-16.42V92.57a16.42,16.42,0,0,1,32.84,0v15.3A16.43,16.43,0,0,1,335.26,124.29Z"/><path class="cls-1" d="M106.2,306.07v1.49a9.32,9.32,0,0,0,9.3,9.3h78.88a9.3,9.3,0,0,0,9.3-9.3v-1.49a9.17,9.17,0,0,0-2.16-5.95,8.86,8.86,0,0,0-1.57-1.49H159a1.86,1.86,0,0,1-1.86-1.86H115.5A9.31,9.31,0,0,0,106.2,306.07Z"/><rect class="cls-1" x="149.74" y="316.49" width="9.67" height="68.46"/><path class="cls-1" d="M122.2,384.61c0,1,14.66.4,32.75.4s32.74.64,32.74-.4S173,375.27,155,375.27,122.2,383.56,122.2,384.61Z"/><path class="cls-2" d="M121.38,304.5l33,5.27,38.35,6.12L206,318a4.88,4.88,0,0,0,5.58-4.05l.6-3.76.56-3.51.46-2.88a4.82,4.82,0,0,0-.92-3.69,4.68,4.68,0,0,0-1.81-1.49H159a1.86,1.86,0,0,1-1.86-1.86V295.3a1.86,1.86,0,0,1,1.86-1.86h20.23L169.94,292l-28.66-4.57-16.74-2.67a4.88,4.88,0,0,0-5.59,4.05l-1.62,10.15A4.89,4.89,0,0,0,121.38,304.5Z"/><path class="cls-2" d="M192.74,303.09v56.7a4.9,4.9,0,0,0,4.88,4.88h10.29a4.88,4.88,0,0,0,4.87-4.88v-56.7a4.75,4.75,0,0,0-1-3,4.59,4.59,0,0,0-1.89-1.49H195.65a4.67,4.67,0,0,0-1.89,1.49A4.81,4.81,0,0,0,192.74,303.09Z"/><path class="cls-2" d="M161.73,207.1a4.88,4.88,0,0,0,1.78,3.29h0l29.36,23.82.43.35,6.08,4.93,1.84,1.49H233l-1.83-1.49-25.13-20.39-16.84-13.66-13.11-10.63a4.8,4.8,0,0,0-2.69-1.07h0a5.15,5.15,0,0,0-.88,0,4.54,4.54,0,0,0-1.27.31,3.66,3.66,0,0,0-.79.4,4.82,4.82,0,0,0-1.22,1.07l-6.38,7.86-.1.13A4.81,4.81,0,0,0,161.73,207.1Z"/><path class="cls-3" d="M163.53,210.4a12,12,0,0,0,2.37,3.75l19.55,21a4.87,4.87,0,0,0,6.89-.3h0l.54-.62.24-.26,8.45-9.48,3.63-4.07a4.55,4.55,0,0,0,.62-.84c.09-.15.17-.3.25-.46a5.06,5.06,0,0,0,.41-2.21,4.83,4.83,0,0,0-1.6-3.4l-22.67-17.32a12.14,12.14,0,0,0-8.78-2.43h0a13,13,0,0,0-2.06.44,9.06,9.06,0,0,0-.88.29,12,12,0,0,0-5,3.5,12.13,12.13,0,0,0-2,12.43Z"/><circle class="cls-2" cx="154.25" cy="139.16" r="37.3"/><path class="cls-2" d="M144.32,299.36l13.83,2.2.31.05,21,3.36,13.25,2.12,19.48,3.11.56.09,2.9.46L229,312.87a4.89,4.89,0,0,0,5.59-4.05l1.16-7.26.46-2.89v0H159a1.86,1.86,0,0,1-1.86-1.86V295.3a1.86,1.86,0,0,1,1.86-1.86h24.38v-8.13l-1.49-.24-7.35-1.18-27.11-4.32a4.89,4.89,0,0,0-5.59,4.05l-.6,3.76-1,6.4A4.89,4.89,0,0,0,144.32,299.36Z"/><path class="cls-3" d="M103.49,266.41c0,30.4,3.08,48.59,50.71,43.38l.19,0a141.69,141.69,0,0,0,25.1-4.8,75.17,75.17,0,0,0,12.38-4.85c.94-.48,1.84-1,2.73-1.49H159a1.86,1.86,0,0,1-1.86-1.86V295.3a1.86,1.86,0,0,1,1.86-1.86h24.38v-47a5.45,5.45,0,0,1,5.45-5.45H208.7c-.17-.49-.34-1-.52-1.49a123,123,0,0,0-6.6-15,115.4,115.4,0,0,0-12.34-19,79.69,79.69,0,0,0-11-11.3c-7.47-6.17-15.59-10-23.84-10C124,184.17,103.49,236,103.49,266.41Z"/><path class="cls-3" d="M153.46,153l0-1.39c2.6-.07,4.88-.23,6.6-1.49a4.27,4.27,0,0,0,1.66-3.16,2.43,2.43,0,0,0-.8-2c-1.14-1-3-.65-4.31,0l-1.16.53,2.21-16.16,1.38.19-1.88,13.74a5,5,0,0,1,4.66.67,3.85,3.85,0,0,1,1.29,3.13,5.66,5.66,0,0,1-2.23,4.24C158.64,152.84,155.77,152.92,153.46,153Z"/><rect class="cls-3" x="165.83" y="130.63" width="7.51" height="1.39"/><rect class="cls-3" x="142.14" y="130.63" width="7.51" height="1.39"/><path class="cls-3" d="M124.48,128.91c2.9-4.36,8-6.21,13-6.66,5.66-.51,11.14.58,16.67,1.64,6.09,1.17,12.53,2.26,18.66.79a18.43,18.43,0,0,0,12.51-10.11,23.56,23.56,0,0,0,1.37-15.69,28.6,28.6,0,0,0-9.33-14.16c-8.83-7.55-20.77-10.94-32.26-10.62a54.44,54.44,0,0,0-31.62,11.12A51.31,51.31,0,0,0,95.3,113.77a53.43,53.43,0,0,0,2.59,33.67c2.51,5.84,6.15,11.09,9,16.78,2.62,5.29,4.63,11.45,3,17.35A16.07,16.07,0,0,1,99,192.76a11.4,11.4,0,0,1-12.69-5.18c-2.63-4.14-2.69-9.57,1.25-12.92a9.68,9.68,0,0,1,13.66,1c.11.12.21.25.32.38a10,10,0,0,1,2,7.31c-.2,1.31,1.82,1.88,2,.55a11.79,11.79,0,0,0-22-7.61c-2.38,4.47-1.1,9.87,1.92,13.69a13.35,13.35,0,0,0,13.61,4.9c5.5-1.27,10-5.64,12.11-10.78,2.36-5.72,1.28-12.1-1-17.64-2.48-6-6.16-11.38-9.08-17.16a48.79,48.79,0,0,1-5-16.69,52.79,52.79,0,0,1,7.54-33.46,49.06,49.06,0,0,1,27-20.54,51.26,51.26,0,0,1,33.94.89c10.63,4.19,20.88,13.31,20.76,25.56,0,5.24-2,10.57-6,14.06-4.79,4.17-11.46,4.53-17.49,3.88s-11.94-2.43-18-2.88c-5.29-.39-11,0-15.73,2.65a15.61,15.61,0,0,0-5.46,5.07c-.75,1.12,1.06,2.17,1.8,1Z"/><path class="cls-2" d="M130.42,220.2a3.6,3.6,0,0,0,.2.39,3.14,3.14,0,0,0,.24.39l16.31,23.48,1.27,1.82,13.3,19.14,12.84,18.47,5.19,7.49a4.32,4.32,0,0,0,.47.57,4.85,4.85,0,0,0,3,1.49h.13V261.51l-1.49-2.14-16.69-24-17.93-25.8a4.88,4.88,0,0,0-6.78-1.23l-5.5,3.82-3,2.05A4.88,4.88,0,0,0,130.42,220.2Z"/><path class="cls-3" d="M127.86,219.62l.74,1.49h0l.2.4,12,23.73a4.89,4.89,0,0,0,6.7,1.64l.77-.48.2-.12,15.42-9.67a4.89,4.89,0,0,0,1.64-6.7l0,0-16.94-23a12.17,12.17,0,0,0-14.87-3.83,12,12,0,0,0-1.65.9A12.18,12.18,0,0,0,127.86,219.62Z"/><path class="cls-2" d="M215.68,298.63v56a4.88,4.88,0,0,0,4.87,4.88h10.29a4.9,4.9,0,0,0,4.88-4.88v-56Z"/><path class="cls-4" d="M155.69,295.3v1.47a3.38,3.38,0,0,0,2.7,3.29l.31,0,.34,0H273.76a7,7,0,0,0,6.95-6.95V246.44a7,7,0,0,0-6.95-6.94H188.87a7,7,0,0,0-6.94,6.94V292H159A3.35,3.35,0,0,0,155.69,295.3Z"/><path class="cls-1" d="M155.69,295.3v1.47a3.38,3.38,0,0,0,2.7,3.29l.31,0,.34,0H273.76a7,7,0,0,0,6.95-6.95V246.44a7,7,0,0,0-6.95-6.94H188.87a7,7,0,0,0-6.94,6.94V292H159A3.35,3.35,0,0,0,155.69,295.3Zm1.49,1.47V295.3a1.86,1.86,0,0,1,1.86-1.86h24.38v-47a5.45,5.45,0,0,1,5.45-5.45h84.89a5.46,5.46,0,0,1,5.46,5.45v46.73a5.47,5.47,0,0,1-5.46,5.46H159a1.86,1.86,0,0,1-1.86-1.86Z"/><circle class="cls-2" cx="231.32" cy="269.81" r="5.72"/><rect class="cls-1" x="181.95" y="292.74" width="1.49" height="6.7"/></svg>