<svg id="Layer_1" data-name="Layer 1" xmlns="http://www.w3.org/2000/svg" xmlns:xlink="http://www.w3.org/1999/xlink" viewBox="0 0 99.23 99.23"><defs><style>.cls-1{fill:url(#linear-gradient);}.cls-2{fill:#fff;}</style><linearGradient id="linear-gradient" x1="21.15" y1="96.91" x2="77.05" y2="4.03" gradientUnits="userSpaceOnUse"><stop offset="0" stop-color="#12c2e9"/><stop offset="0.53" stop-color="#c471ed"/><stop offset="1" stop-color="#f54394"/></linearGradient></defs><title>Artboard 3 copy</title><rect class="cls-1" width="99.23" height="99.23" rx="36.43"/><path class="cls-2" d="M82.79,32.06H78a.72.72,0,0,1-.72-.72V26.5a.71.71,0,0,0-.71-.72H71.67a.72.72,0,0,0-.72.72v4.84a.71.71,0,0,1-.71.72H65.39a.72.72,0,0,0-.72.72v4.84a.72.72,0,0,0,.72.72h4.85a.71.71,0,0,1,.71.72V43.9a.72.72,0,0,0,.72.72h4.85a.71.71,0,0,0,.71-.72V39.06a.72.72,0,0,1,.72-.72h4.84a.72.72,0,0,0,.72-.72V32.78A.72.72,0,0,0,82.79,32.06Z"/><polygon class="cls-2" points="52.67 25.78 49.96 25.78 49.96 35.85 52.67 35.85 52.67 73.45 63.21 73.45 63.21 35.85 63.21 25.78 52.67 25.78"/><path class="cls-2" d="M48.41,44.33H26.26A18.2,18.2,0,0,1,27,40.09c1-2.82,2.88-4.24,5.5-4.24H48.41V25.78H32.54q-6.48,0-10.42,3.4a17.2,17.2,0,0,0-5.07,8.62,42.41,42.41,0,0,0-1.33,11.43V73.45H26.26V54.63H48.41Z"/></svg>