<svg id="Layer_1" data-name="Layer 1" xmlns="http://www.w3.org/2000/svg" xmlns:xlink="http://www.w3.org/1999/xlink" viewBox="0 0 16 16"><defs><style>.cls-1{fill:url(#linear-gradient);}.cls-2{fill:#fff;}</style><linearGradient id="linear-gradient" x1="2.27" y1="17.52" x2="13.52" y2="-1.18" gradientUnits="userSpaceOnUse"><stop offset="0" stop-color="#12c2e9"/><stop offset="0.53" stop-color="#c471ed"/><stop offset="1" stop-color="#f54394"/></linearGradient></defs><title>Artboard 6</title><rect class="cls-1" width="16" height="16"/><path class="cls-2" d="M14.56,4.53h-1a.14.14,0,0,1-.14-.14v-1a.14.14,0,0,0-.14-.14h-1a.14.14,0,0,0-.14.14v1a.14.14,0,0,1-.14.14h-1a.14.14,0,0,0-.14.14v1a.14.14,0,0,0,.14.14h1a.14.14,0,0,1,.14.14v1a.14.14,0,0,0,.14.14h1a.14.14,0,0,0,.14-.14v-1a.14.14,0,0,1,.14-.14h1a.14.14,0,0,0,.14-.14v-1A.14.14,0,0,0,14.56,4.53Z"/><polygon class="cls-2" points="8.6 3.29 8.07 3.29 8.07 5.28 8.6 5.28 8.6 12.71 10.69 12.71 10.69 5.28 10.69 3.29 8.6 3.29"/><path class="cls-2" d="M7.76,7H3.38a3.56,3.56,0,0,1,.16-.83,1.1,1.1,0,0,1,1.08-.84H7.76v-2H4.62A3,3,0,0,0,2.56,4a3.43,3.43,0,0,0-1,1.7A8.72,8.72,0,0,0,1.3,7.92v4.79H3.38V9H7.76Z"/></svg>