<svg id="Layer_1" data-name="Layer 1" xmlns="http://www.w3.org/2000/svg" viewBox="0 0 80 80"><defs><style>.cls-1{fill:#fcd770;}.cls-2{fill:#f54394;}.cls-3{fill:#12c2e9;}</style></defs><title>credit-card</title><path class="cls-1" d="M60.63,22.23a3.79,3.79,0,0,1-6.77-1.65,3.24,3.24,0,0,1,0-.62,3.79,3.79,0,1,1,6.82,2.27Z"/><path class="cls-1" d="M46.17,21.86a3.24,3.24,0,0,1,0,.62,3.79,3.79,0,1,1-7.58,0,3.59,3.59,0,0,1,.14-1,3.79,3.79,0,0,1,7.39.37Z"/><path class="cls-1" d="M27.27,14.9A12.64,12.64,0,1,1,14.63,2.26,12.68,12.68,0,0,1,27.27,14.9Z"/><path class="cls-2" d="M67.71,45.23H77.82V78.09H67.71Z"/><path class="cls-2" d="M52.54,33.86H62.65V78.09H52.54Z"/><path class="cls-2" d="M37.38,40.18H47.49V78.09H37.38Z"/><path class="cls-2" d="M32.32,32.59v45.5H22.21V76.17A11.36,11.36,0,0,0,25,59.89l-5.3-7.08,4-4a3.57,3.57,0,0,0-1.52-6l0-.16V32.59Z"/><path class="cls-3" d="M17.06,42.7h4.1a3,3,0,0,1,1,.16,3.57,3.57,0,0,1,1.52,6l-4,4H9.57l-2.4-8.4a3.32,3.32,0,0,1,3.2-4.23h3.46a3.33,3.33,0,0,1,3.23,2.52Z"/><path class="cls-3" d="M9.57,52.81H19.69L25,59.89a11.38,11.38,0,0,1-9.1,18.2H13.37a11.37,11.37,0,0,1-9.1-18.2Z"/><path d="M13.37,21v2.71h2.52V21a3.62,3.62,0,0,0,2.53-3.43,3.57,3.57,0,0,0-2-3.22L14,13.15a1.05,1.05,0,0,1-.59-1,1.08,1.08,0,0,1,1.08-1.08h.36a1.08,1.08,0,0,1,1.08,1.08v.18h2.53v-.18a3.6,3.6,0,0,0-2.53-3.42V6.06H13.37V8.77a3.59,3.59,0,0,0-.54,6.65l2.47,1.23a1.08,1.08,0,0,1-.49,2h-.36a1.08,1.08,0,0,1-1.08-1.08V16.17H10.84v1.44A3.62,3.62,0,0,0,13.37,21Z"/><path d="M15.89,59.32V56.61H13.37v2.71A3.59,3.59,0,0,0,12.83,66L15.3,67.2a1.08,1.08,0,0,1-.49,2h-.36a1.08,1.08,0,0,1-1.08-1.08V66.72H10.84v1.44a3.6,3.6,0,0,0,2.53,3.43V74.3h2.52V71.59a3.62,3.62,0,0,0,2.53-3.43,3.57,3.57,0,0,0-2-3.22L14,63.71a1.08,1.08,0,0,1,.49-2.05h.36a1.08,1.08,0,0,1,1.08,1.08v.18h2.53v-.18A3.6,3.6,0,0,0,15.89,59.32Z"/><path d="M14.63,28.8a13.92,13.92,0,0,0,13-9l9.74,2.66v.06a5,5,0,0,0,10.06.45L53,22a5,5,0,0,0,7.75,1.88l14,10.47L70,35.14l.41,2.49,8.83-1.47L77.8,27.33l-2.49.42.74,4.47L62.27,21.88a5.06,5.06,0,0,0-4.67-7,5,5,0,0,0-5,4.61L47,20.43a5,5,0,0,0-9-.45l-9.76-2.66A13.9,13.9,0,1,0,14.63,28.8Zm43-11.37A2.53,2.53,0,1,1,55.07,20,2.53,2.53,0,0,1,57.6,17.43ZM42.43,20a2.53,2.53,0,1,1-2.52,2.52A2.52,2.52,0,0,1,42.43,20ZM14.63,3.53A11.38,11.38,0,1,1,3.26,14.9,11.38,11.38,0,0,1,14.63,3.53Z"/><path d="M21,41.44h-3a4.59,4.59,0,0,0-4.08-2.53H10.37A4.6,4.6,0,0,0,5.78,43.5,4.46,4.46,0,0,0,6,44.76l2.23,7.8L3.26,59.13A12.64,12.64,0,0,0,13.37,79.35h2.52A12.56,12.56,0,0,0,21,78.29v1.06H33.59v-48H21Zm-10.58,0h3.46a2.06,2.06,0,0,1,2.06,2.06v3h2.53V44h2.75a2.31,2.31,0,0,1,1.63,3.94l-3.64,3.64H10.53L8.39,44.07a2.24,2.24,0,0,1-.08-.57A2.07,2.07,0,0,1,10.37,41.44Zm3,35.39A10.12,10.12,0,0,1,5.28,60.65l4.93-6.57h8.84L24,60.65a10.12,10.12,0,0,1-8.09,16.18Zm17.69-43v43H23.48v0a12.61,12.61,0,0,0,5.05-10.08A12.75,12.75,0,0,0,26,59.13l-4.65-6.2,3.24-3.23a4.83,4.83,0,0,0-1.11-7.65V33.86Z"/><path d="M36.11,79.35H48.75V38.91H36.11Zm2.53-37.91h7.58V76.83H38.64Z"/><path d="M51.28,79.35H63.92V32.59H51.28Zm2.53-44.23h7.58V76.83H53.81Z"/><path d="M66.44,79.35H79.08V44H66.44ZM69,46.5h7.58V76.83H69Z"/></svg>