<?xml version="1.0" encoding="utf-8"?>
<!-- Generator: Adobe Illustrator 25.2.1, SVG Export Plug-In . SVG Version: 6.00 Build 0)  -->
<svg version="1.1" id="Layer_1" xmlns="http://www.w3.org/2000/svg" xmlns:xlink="http://www.w3.org/1999/xlink" x="0px" y="0px"
	 viewBox="0 0 274.39 226.95" style="enable-background:new 0 0 274.39 226.95;" xml:space="preserve">
<style type="text/css">
	.st0{fill:url(#SVGID_1_);}
	.st1{fill:#0F1521;}
	.st2{fill:#1E273B;}
	.st3{fill:#2C3957;}
	.st4{fill:#344266;}
	.st5{fill:url(#SVGID_2_);}
	.st6{fill:#FFFFFF;}
	.st7{fill:#161616;}
	.st8{fill:#05060A;}
	.st9{fill:url(#SVGID_3_);}
	.st10{fill:none;stroke:#FFFFFF;stroke-width:0.2638;stroke-miterlimit:10;}
	.st11{fill:#FF3333;}
	.st12{fill:#B2C9DB;}
	.st13{opacity:0.2;fill:#FFFFFF;}
	.st14{fill:#C2DCF8;}
	.st15{fill:#8BAEF8;}
	.st16{fill:#69C43F;}
	.st17{fill:#C93CAD;}
	.st18{fill:#FFC800;}
	.st19{fill:#992E84;}
	.st20{fill:#D12A2A;}
	.st21{fill:url(#SVGID_4_);}
	.st22{fill:#FF6B6B;}
	.st23{fill:url(#SVGID_5_);}
	.st24{fill:#519630;}
	.st25{enable-background:new    ;}
	.st26{fill:#BAC2D1;}
	.st27{fill:#9EA7B8;}
	.st28{fill:#D6DDEB;}
	.st29{fill:#C78365;}
	.st30{fill:#E6A683;}
	.st31{opacity:0.7;fill:#FFFFFF;}
	.st32{fill:#F5C4A9;}
	.st33{fill:#BA7C59;}
	.st34{fill:#A8554F;}
	.st35{fill:#25572C;}
	.st36{fill:#3E8A3B;}
	.st37{fill:#388343;}
	.st38{fill:#2D6B36;}
	.st39{fill:#2E6E38;}
	.st40{fill:#429C50;}
	.st41{fill:url(#SVGID_6_);}
	.st42{fill:#DBE0ED;}
	.st43{fill-rule:evenodd;clip-rule:evenodd;fill:#FBDBC6;}
	.st44{fill-rule:evenodd;clip-rule:evenodd;fill:#0F1521;}
	.st45{fill-rule:evenodd;clip-rule:evenodd;fill:#1E273B;}
	.st46{fill-rule:evenodd;clip-rule:evenodd;fill:url(#SVGID_7_);}
	.st47{fill-rule:evenodd;clip-rule:evenodd;fill:url(#SVGID_8_);}
	.st48{fill:#F6C2A2;}
	.st49{clip-path:url(#SVGID_10_);enable-background:new    ;}
	.st50{fill:#8996D4;}
	.st51{fill:#8692CF;}
	.st52{fill:#838FCA;}
	.st53{fill:#808BC5;}
	.st54{fill:#7E88C0;}
	.st55{fill:#7B84BB;}
	.st56{fill:#7880B6;}
	.st57{fill:#747FB1;}
	.st58{fill:#717BAB;}
	.st59{fill:#6E77A6;}
	.st60{fill:#6A74A1;}
	.st61{fill:#67709C;}
	.st62{fill:#646D97;}
	.st63{fill:#606992;}
	.st64{fill:#5D658D;}
	.st65{fill:#5A6288;}
	.st66{fill:#565E83;}
	.st67{fill-rule:evenodd;clip-rule:evenodd;fill:url(#SVGID_11_);}
	.st68{fill-rule:evenodd;clip-rule:evenodd;fill:url(#SVGID_12_);}
	.st69{fill-rule:evenodd;clip-rule:evenodd;fill:url(#SVGID_13_);}
	.st70{fill-rule:evenodd;clip-rule:evenodd;fill:url(#SVGID_14_);}
	.st71{fill-rule:evenodd;clip-rule:evenodd;fill:url(#SVGID_15_);}
	.st72{fill-rule:evenodd;clip-rule:evenodd;fill:#97CF97;}
	.st73{fill-rule:evenodd;clip-rule:evenodd;fill:#5A9459;}
	.st74{fill-rule:evenodd;clip-rule:evenodd;fill:url(#SVGID_16_);}
	.st75{fill-rule:evenodd;clip-rule:evenodd;fill:#B06654;}
	.st76{fill-rule:evenodd;clip-rule:evenodd;fill:#FFFFFF;}
	.st77{fill-rule:evenodd;clip-rule:evenodd;fill:#262C38;}
	.st78{fill:#B06654;}
	.st79{fill-rule:evenodd;clip-rule:evenodd;fill:#90AFF8;}
	.st80{fill-rule:evenodd;clip-rule:evenodd;fill:#6B8BD6;}
	.st81{fill-rule:evenodd;clip-rule:evenodd;fill:url(#SVGID_17_);}
	.st82{fill-rule:evenodd;clip-rule:evenodd;fill:#CD8D5B;}
	.st83{fill-rule:evenodd;clip-rule:evenodd;fill:#7D4A41;}
	.st84{fill-rule:evenodd;clip-rule:evenodd;fill:#D7C6C3;}
	.st85{fill-rule:evenodd;clip-rule:evenodd;fill:url(#SVGID_18_);}
	.st86{fill-rule:evenodd;clip-rule:evenodd;fill:#49546B;}
	.st87{fill-rule:evenodd;clip-rule:evenodd;fill:#353E4F;}
	.st88{fill:#D99773;}
	.st89{fill:#F6D3BD;}
</style>
<g>
	<linearGradient id="SVGID_1_" gradientUnits="userSpaceOnUse" x1="179.4769" y1="156.6554" x2="251.7688" y2="106.5261">
		<stop  offset="0" style="stop-color:#CAD2DB"/>
		<stop  offset="1" style="stop-color:#EBF5FF;stop-opacity:0"/>
	</linearGradient>
	<path class="st0" d="M274.39,97.68l-29.11-16.91c-2.12-1.24-5.59-1.24-7.72,0l-111.02,64.09c-2.14,1.23-2.14,3.24-0.01,4.47
		l61.23,35.58c2.12,1.24,5.59,1.24,7.72,0.01l78.91-45.56V97.68z"/>
	<g>
		<g>
			<path class="st1" d="M185.37,35.61c4.29,2.47,7.76,8.49,7.75,13.42v131.16c-0.02,4.92-3.51,6.92-7.8,4.44l-51.91-29.97
				c-4.29-2.47-7.76-8.49-7.75-13.42V10.09c0.01-4.92,3.51-6.92,7.8-4.44L185.37,35.61z"/>
			<path class="st2" d="M191.62,31.98L139.71,2.01c-2.16-1.25-4.11-1.36-5.53-0.54c-2.08,1.21-4.17,2.42-6.25,3.63
				c1.41-0.82,3.37-0.71,5.53,0.54l51.9,29.97c4.29,2.47,7.76,8.49,7.75,13.42v131.16c-0.01,2.45-0.87,4.17-2.27,4.98
				c2.08-1.21,4.17-2.42,6.25-3.63c1.4-0.81,2.26-2.53,2.27-4.98V45.4C199.38,40.47,195.9,34.45,191.62,31.98z"/>
			<g>
				<polygon class="st3" points="193.12,172.28 199.36,168.67 199.36,166.49 193.12,170.1 				"/>
				<polygon class="st3" points="193.12,53.76 193.12,55.94 199.36,52.33 199.36,50.15 				"/>
			</g>
			<path class="st4" d="M190.85,185.17c0.56-0.32,1.12-0.65,1.68-0.98c0.74-0.94,1.17-2.29,1.18-4V49.03
				c0.01-4.92-3.46-10.94-7.75-13.42l-51.9-29.97c-1.38-0.79-2.67-1.12-3.79-1.05c0.98,0.05,2.06,0.39,3.21,1.05l51.9,29.97
				c4.29,2.47,7.76,8.49,7.75,13.42v131.16C193.11,182.64,192.24,184.36,190.85,185.17z"/>
			<g>
				<path class="st3" d="M196.54,64.91c-0.55,0.32-0.99,1.08-0.99,1.7v19.7c0,0.63,0.45,0.88,0.99,0.57
					c0.54-0.31,0.98-1.08,0.98-1.71v-19.7C197.53,64.85,197.08,64.59,196.54,64.91z"/>
			</g>
			<g>
				<path class="st3" d="M196.59,122.01c-0.89,0.51-1.61,1.76-1.61,2.78v19.48c0,1.02,0.73,1.44,1.62,0.92
					c0.89-0.51,1.61-1.76,1.6-2.78v-19.48C198.2,121.91,197.48,121.5,196.59,122.01z"/>
			</g>
			<linearGradient id="SVGID_2_" gradientUnits="userSpaceOnUse" x1="138.5025" y1="39.3088" x2="193.785" y2="187.0765">
				<stop  offset="0" style="stop-color:#C7E1F8"/>
				<stop  offset="1" style="stop-color:#90AFF8"/>
			</linearGradient>
			<path class="st5" d="M185.36,38.48c2.9,1.68,5.27,5.76,5.26,9.11v131.16c-0.01,3.34-2.38,4.7-5.29,3.02l-51.91-29.97
				c-2.91-1.68-5.27-5.77-5.26-9.11V11.53c0.01-3.34,2.38-4.69,5.29-3.01l8.57,4.95c0.58,0.33,1.04,1.14,1.04,1.8l-0.01,2.81
				c-0.01,1.56,1.09,3.46,2.45,4.24l27.74,16.02c1.36,0.78,2.46,0.16,2.47-1.4l0.01-2.81c0-0.66,0.47-0.93,1.05-0.59L185.36,38.48z"
				/>
			<g>
				<g>
					<path class="st6" d="M178.99,38.34l0.15,0.09v0.26l-0.15-0.09l0,0.29l-0.24-0.14l0-0.29l-0.67-0.38l0-0.18l0.65-0.61l0.26,0.15
						L178.99,38.34z M178.75,38.2l0-0.54L178.41,38L178.75,38.2"/>
				</g>
				<g>
					<path class="st6" d="M179.91,37.93c0.06,0.03,0.12,0.08,0.16,0.12c0.05,0.05,0.09,0.09,0.12,0.14c0.04,0.05,0.07,0.11,0.1,0.16
						c0.03,0.05,0.05,0.11,0.07,0.16l-0.22,0.02l-0.05-0.1l-0.05-0.09l-0.06-0.08l-0.08-0.06c-0.04-0.02-0.08-0.04-0.11-0.04
						l-0.08,0.01l-0.06,0.05l-0.04,0.08l-0.02,0.1l-0.01,0.11c0,0.06,0.01,0.13,0.02,0.19c0.01,0.06,0.03,0.12,0.05,0.18
						c0.03,0.06,0.06,0.12,0.1,0.17c0.04,0.05,0.09,0.09,0.14,0.12l0.09,0.03l0.07-0.01l0.05-0.05l0.02-0.08v-0.02l-0.22-0.13v-0.27
						l0.47,0.27l0,0.22c0,0.09-0.01,0.17-0.04,0.23c-0.03,0.05-0.06,0.1-0.1,0.12c-0.04,0.02-0.09,0.03-0.15,0.02
						c-0.06-0.01-0.12-0.04-0.19-0.07c-0.07-0.04-0.13-0.08-0.18-0.13c-0.05-0.05-0.1-0.11-0.14-0.16
						c-0.04-0.06-0.08-0.12-0.11-0.19c-0.03-0.06-0.05-0.13-0.07-0.2c-0.02-0.06-0.03-0.13-0.04-0.2c-0.01-0.07-0.01-0.13-0.01-0.19
						c0-0.06,0-0.12,0.01-0.17c0.01-0.06,0.03-0.1,0.05-0.15c0.02-0.05,0.04-0.08,0.08-0.11c0.03-0.03,0.07-0.05,0.11-0.07
						c0.04-0.01,0.09-0.01,0.14-0.01C179.79,37.87,179.84,37.9,179.91,37.93z"/>
				</g>
				<g>
					<polygon class="st6" points="181.15,38.93 181.15,39.29 181.46,39.47 181.46,39.73 181.15,39.55 181.15,39.91 180.91,39.78 
						180.91,39.42 180.6,39.24 180.6,38.97 180.91,39.15 180.91,38.79 					"/>
				</g>
				<g>
					<polygon class="st6" points="182.61,40.37 182.61,40.98 182.33,40.82 182.33,40.21 					"/>
				</g>
				<g>
					<polygon class="st6" points="183.16,40.36 183.16,41.3 182.88,41.14 182.88,40.19 					"/>
				</g>
				<g>
					<polygon class="st6" points="183.71,40.34 183.71,41.62 183.43,41.46 183.43,40.18 					"/>
				</g>
				<g>
					<polygon class="st6" points="184.26,40.33 184.26,41.93 183.98,41.78 183.98,40.17 					"/>
				</g>
				<g>
					<path class="st7" d="M187.64,42.27c0.12,0.07,0.22,0.24,0.22,0.39l0,0.3l0.12,0.07c0.04,0.02,0.07,0.08,0.07,0.12l0,0.35
						c0,0.05-0.03,0.07-0.07,0.04l-0.12-0.07l0,0.3c0,0.14-0.1,0.2-0.22,0.13l-0.65-0.37l0-1.63L187.64,42.27z"/>
				</g>
				<g>
					<path class="st6" d="M186.99,41.89l0,1.63l-1.66-0.96c-0.13-0.07-0.23-0.25-0.23-0.39l0-1.11c0-0.15,0.1-0.2,0.23-0.13
						L186.99,41.89z"/>
				</g>
				<g>
					<polygon class="st6" points="133.42,11.3 133.51,11.38 133.5,11.48 133.39,11.51 132.55,11.71 132.51,11.7 132.46,11.66 
						131.63,10.49 131.51,10.34 131.5,10.22 131.6,10.25 131.78,10.5 132.51,11.52 133.24,11.35 					"/>
				</g>
				<g>
					<path class="st6" d="M133.46,11.31c0.04,0.02,0.07,0.08,0.07,0.12l0,1.55c0,0.04-0.03,0.06-0.07,0.04l-1.9-1.1
						c-0.04-0.02-0.07-0.08-0.07-0.12l0-1.55c0-0.02,0-0.03,0.01-0.04l0.02,0.12l0.11,0.16l0,1.32l1.76,1.01l0-1.32l0.11-0.03
						l0.02-0.1l-0.1-0.07l-0.18,0.04l-1.46-0.84l-0.18-0.25l-0.1-0.04c0.01-0.01,0.03-0.01,0.06,0L133.46,11.31z"/>
				</g>
				<g>
					<path class="st6" d="M135.98,12.77c0.55,0.32,1,0.96,0.99,1.43c0,0.41-0.33,0.56-0.78,0.39c-0.19,0.13-0.48-0.01-0.57-0.06
						c-0.02-0.01-0.02-0.01-0.02-0.01c0.09-0.02,0.14-0.09,0.18-0.15c-0.46-0.34-0.8-0.89-0.8-1.3
						C134.98,12.58,135.43,12.45,135.98,12.77z"/>
				</g>
				<g>
					<path class="st6" d="M138.29,14.76c0.09,0.05,0.17,0.18,0.17,0.29c0,0.11-0.07,0.15-0.17,0.1c-0.1-0.06-0.17-0.19-0.17-0.29
						C138.12,14.75,138.19,14.71,138.29,14.76z"/>
				</g>
				<g>
					<path class="st6" d="M139.18,15.28c0.09,0.05,0.17,0.19,0.17,0.29c0,0.11-0.08,0.15-0.17,0.1c-0.09-0.05-0.17-0.19-0.17-0.29
						C139.01,15.27,139.09,15.23,139.18,15.28z"/>
				</g>
				<g>
					<path class="st6" d="M140.08,15.8c0.09,0.05,0.17,0.19,0.17,0.29c0,0.11-0.08,0.15-0.17,0.1c-0.1-0.06-0.17-0.19-0.17-0.29
						C139.91,15.79,139.98,15.74,140.08,15.8z"/>
				</g>
			</g>
			<path class="st8" d="M163.94,28.21l-11.51-6.65c-0.38-0.22-0.68-0.04-0.68,0.39c0,0.43,0.3,0.96,0.68,1.17l11.51,6.65
				c0.38,0.22,0.68,0.04,0.68-0.39C164.62,28.95,164.32,28.43,163.94,28.21z"/>
		</g>
		<g>
			<linearGradient id="SVGID_3_" gradientUnits="userSpaceOnUse" x1="186.368" y1="135.3048" x2="134.4261" y2="21.8743">
				<stop  offset="0" style="stop-color:#C7E1F8"/>
				<stop  offset="1" style="stop-color:#FFFFFF"/>
			</linearGradient>
			<path class="st9" d="M185.54,54.78l-52.28-30.18c-1.42-0.82-2.57-0.16-2.57,1.47v67.51c0,1.63,1.14,3.61,2.56,4.43l52.28,30.19
				c1.42,0.82,2.57,0.16,2.57-1.47V59.2C188.1,57.58,186.95,55.59,185.54,54.78z"/>
			<path class="st10" d="M185.54,54.78l-52.28-30.18c-1.42-0.82-2.57-0.16-2.57,1.47v67.51c0,1.63,1.14,3.61,2.56,4.43l52.28,30.19
				c1.42,0.82,2.57,0.16,2.57-1.47V59.2C188.1,57.58,186.95,55.59,185.54,54.78z"/>
			<g>
				<g>
					<path class="st2" d="M134.79,43.62c0.13,0.08,0.24,0.1,0.34,0.09c0.09-0.02,0.16-0.08,0.18-0.18l0.01-0.06l-0.02-0.05
						l-0.13-0.1l-0.03,0l0,0.01v0.02c-0.02,0.07-0.06,0.11-0.12,0.13c-0.06,0.02-0.14,0-0.23-0.05c-0.09-0.05-0.16-0.12-0.22-0.21
						c-0.06-0.09-0.1-0.18-0.11-0.28c-0.02-0.08-0.03-0.19-0.03-0.33c0-0.13,0.01-0.22,0.03-0.29c0.02-0.08,0.06-0.13,0.11-0.15
						c0.06-0.02,0.13,0,0.22,0.05c0.09,0.05,0.16,0.12,0.23,0.21c0.06,0.09,0.1,0.18,0.12,0.27l0.01,0.05l0.02,0.04l0.01,0
						l0.13,0.05l0.03-0.02l-0.02-0.1c-0.03-0.13-0.09-0.26-0.19-0.39c-0.09-0.13-0.21-0.23-0.34-0.31c-0.13-0.07-0.24-0.1-0.33-0.08
						c-0.09,0.02-0.15,0.09-0.19,0.19c-0.02,0.09-0.03,0.21-0.03,0.36c0,0.16,0.01,0.29,0.03,0.4c0.03,0.15,0.1,0.29,0.19,0.42
						C134.55,43.45,134.66,43.55,134.79,43.62z"/>
					<path class="st2" d="M136.13,42.8c-0.13-0.08-0.25-0.11-0.35-0.09c-0.09,0.02-0.15,0.08-0.16,0.18l0.02,0.04l0.15,0.1
						l0.03-0.01c0.01-0.06,0.05-0.09,0.1-0.1c0.05-0.01,0.12,0.01,0.21,0.06c0.11,0.06,0.19,0.14,0.24,0.23
						c0.05,0.09,0.08,0.19,0.08,0.29v0.12l-0.01,0.01l-0.31-0.18c-0.17-0.1-0.31-0.13-0.4-0.1c-0.1,0.04-0.15,0.13-0.15,0.28
						c0,0.15,0.04,0.29,0.13,0.41c0.09,0.12,0.19,0.22,0.32,0.3c0.09,0.05,0.16,0.08,0.24,0.09c0.07,0.01,0.13-0.01,0.17-0.04
						l0.01,0l0.01,0.01v0.13l0.03,0.05l0.13,0.08l0.03-0.01l0-1.03c0-0.16-0.04-0.3-0.13-0.45C136.42,43.01,136.3,42.9,136.13,42.8z
						 M136.44,44.06c0,0.1-0.04,0.16-0.12,0.18c-0.08,0.01-0.17-0.01-0.27-0.07c-0.09-0.05-0.16-0.11-0.21-0.19
						c-0.05-0.08-0.08-0.16-0.08-0.25c0-0.1,0.03-0.16,0.11-0.17c0.07-0.01,0.16,0.01,0.28,0.08l0.28,0.16l0.01,0.02L136.44,44.06z"
						/>
					<polygon class="st2" points="137.19,44.99 137.21,44.97 137.22,42.89 137.19,42.85 137.06,42.77 137.03,42.78 137.03,44.86 
						137.05,44.91 					"/>
					<polygon class="st2" points="137.8,45.34 137.83,45.32 137.83,43.24 137.8,43.2 137.67,43.12 137.64,43.14 137.64,45.22 
						137.66,45.26 					"/>
					<path class="st2" d="M138.38,43.5c-0.04-0.02-0.08-0.03-0.11-0.02c-0.03,0.02-0.04,0.05-0.04,0.1c0,0.05,0.01,0.1,0.04,0.15
						c0.03,0.05,0.06,0.08,0.11,0.11c0.04,0.02,0.08,0.03,0.11,0.02c0.03-0.02,0.04-0.05,0.04-0.1c0-0.05-0.01-0.1-0.04-0.15
						C138.46,43.56,138.43,43.53,138.38,43.5z"/>
					<polygon class="st2" points="138.31,44.08 138.28,44.09 138.28,45.58 138.3,45.63 138.44,45.7 138.46,45.69 138.47,44.2 
						138.44,44.16 					"/>
					<path class="st2" d="M139.09,46.09l0.03-0.02l0-0.98c0-0.11,0.03-0.19,0.09-0.22c0.06-0.03,0.14-0.02,0.24,0.04
						c0.09,0.05,0.17,0.13,0.23,0.24c0.06,0.11,0.09,0.22,0.09,0.33l0,0.97l0.03,0.05l0.13,0.08l0.03-0.01l0-1.01
						c0-0.16-0.04-0.31-0.12-0.46c-0.08-0.14-0.2-0.26-0.34-0.34c-0.16-0.09-0.28-0.1-0.36-0.02l-0.01,0l0-0.01v-0.13l-0.03-0.05
						l-0.14-0.08l-0.02,0.02l-0.01,1.49l0.02,0.04L139.09,46.09z"/>
					<path class="st2" d="M140.83,47.1c0.15,0.09,0.27,0.09,0.35,0.02l0.01,0l0,0.01v0.11c0,0.16-0.04,0.26-0.11,0.29
						c-0.07,0.03-0.19,0-0.36-0.1l-0.07-0.04l-0.02-0.01l-0.01,0.02l-0.01,0.14l0.03,0.05c0.02,0.01,0.05,0.03,0.09,0.06
						c0.2,0.11,0.36,0.15,0.47,0.11c0.11-0.04,0.17-0.17,0.17-0.4l0.01-1.47l-0.03-0.05l-0.14-0.08l-0.03,0.02l0,0.12l0,0.01
						l-0.01-0.01c-0.08-0.17-0.2-0.3-0.36-0.39c-0.11-0.07-0.22-0.09-0.3-0.06c-0.08,0.02-0.14,0.09-0.17,0.19
						c-0.02,0.04-0.02,0.09-0.03,0.15c0,0.06-0.01,0.13-0.01,0.22c0,0.16,0.01,0.3,0.03,0.39c0.03,0.15,0.09,0.28,0.18,0.41
						C140.62,46.94,140.72,47.03,140.83,47.1z M140.53,46.44c-0.02-0.07-0.03-0.17-0.02-0.32c0-0.14,0.01-0.24,0.03-0.29
						c0.02-0.07,0.06-0.12,0.12-0.14c0.06-0.02,0.13-0.01,0.21,0.04c0.09,0.05,0.16,0.12,0.21,0.21c0.05,0.09,0.09,0.18,0.1,0.27
						l0.01,0.11c0,0.04,0,0.11,0,0.21c0,0.09,0,0.15,0,0.2c0,0.04,0,0.08-0.01,0.11c-0.02,0.08-0.05,0.13-0.11,0.15
						c-0.05,0.03-0.13,0.01-0.21-0.04c-0.09-0.05-0.16-0.12-0.21-0.21C140.59,46.63,140.55,46.54,140.53,46.44z"/>
					<path class="st2" d="M142.05,47.49c-0.03-0.05-0.07-0.09-0.11-0.11c-0.05-0.03-0.08-0.03-0.11-0.01
						c-0.03,0.02-0.04,0.05-0.04,0.1c0,0.05,0.01,0.1,0.04,0.15c0.03,0.05,0.06,0.09,0.11,0.11c0.04,0.02,0.08,0.03,0.11,0.01
						c0.03-0.02,0.04-0.05,0.04-0.1C142.09,47.59,142.08,47.54,142.05,47.49z"/>
					<path class="st2" d="M142.68,48.15c0.04,0.03,0.08,0.03,0.11,0.01c0.03-0.02,0.04-0.05,0.04-0.1c0-0.05-0.01-0.1-0.04-0.15
						c-0.03-0.05-0.06-0.09-0.11-0.11c-0.05-0.03-0.08-0.03-0.11-0.01c-0.03,0.01-0.04,0.05-0.04,0.1c0,0.05,0.01,0.1,0.04,0.15
						C142.6,48.09,142.64,48.13,142.68,48.15z"/>
					<path class="st2" d="M143.42,48.58c0.04,0.03,0.08,0.03,0.11,0.01c0.03-0.01,0.04-0.05,0.04-0.1c0-0.05-0.01-0.1-0.04-0.15
						c-0.03-0.05-0.06-0.09-0.11-0.11c-0.04-0.03-0.08-0.03-0.11-0.01c-0.03,0.01-0.04,0.05-0.04,0.1c0,0.05,0.01,0.1,0.04,0.15
						C143.34,48.52,143.38,48.55,143.42,48.58z"/>
					<path class="st2" d="M144.27,48.77c-0.03-0.05-0.06-0.09-0.11-0.11c-0.04-0.03-0.08-0.03-0.11-0.01
						c-0.03,0.02-0.04,0.05-0.04,0.1c0,0.05,0.01,0.1,0.04,0.15c0.03,0.05,0.06,0.09,0.11,0.11c0.04,0.03,0.08,0.03,0.11,0.01
						c0.03-0.01,0.04-0.05,0.04-0.1C144.31,48.87,144.3,48.82,144.27,48.77z"/>
					<path class="st2" d="M144.9,49.43c0.04,0.02,0.08,0.03,0.11,0.01c0.03-0.01,0.04-0.05,0.04-0.1c0-0.05-0.02-0.1-0.04-0.15
						c-0.03-0.05-0.07-0.09-0.11-0.11c-0.05-0.03-0.08-0.03-0.11-0.01c-0.03,0.01-0.04,0.05-0.04,0.1c0,0.05,0.01,0.1,0.04,0.15
						C144.82,49.37,144.86,49.41,144.9,49.43z"/>
					<path class="st2" d="M145.64,49.86c0.04,0.03,0.08,0.03,0.11,0.01c0.03-0.02,0.04-0.05,0.04-0.1c0-0.05-0.02-0.1-0.04-0.15
						c-0.03-0.05-0.06-0.09-0.11-0.11c-0.04-0.02-0.08-0.03-0.11-0.01c-0.03,0.01-0.04,0.05-0.04,0.1c0,0.05,0.01,0.1,0.04,0.15
						C145.56,49.8,145.6,49.84,145.64,49.86z"/>
					<path class="st2" d="M135.95,47.4l0.2,0.1l0.03,0l0.01-0.03c0-0.19-0.04-0.38-0.11-0.58c-0.08-0.19-0.18-0.37-0.32-0.53
						c-0.14-0.16-0.3-0.3-0.49-0.4c-0.18-0.11-0.35-0.16-0.49-0.16c-0.14,0.01-0.25,0.06-0.32,0.17c-0.08,0.11-0.12,0.26-0.12,0.45
						l0,1.25c0,0.2,0.04,0.4,0.12,0.6c0.08,0.2,0.18,0.38,0.32,0.54c0.14,0.16,0.3,0.3,0.49,0.41c0.18,0.11,0.35,0.16,0.49,0.16
						c0.14,0,0.25-0.06,0.32-0.16c0.08-0.1,0.12-0.25,0.12-0.45l-0.04-0.06l-0.2-0.13l-0.04,0.03c0,0.22-0.06,0.35-0.18,0.41
						c-0.12,0.06-0.28,0.03-0.47-0.08c-0.19-0.11-0.35-0.27-0.47-0.47c-0.12-0.2-0.18-0.4-0.18-0.61l0-1.27
						c0-0.21,0.06-0.35,0.18-0.41c0.12-0.06,0.28-0.04,0.47,0.08c0.19,0.11,0.35,0.27,0.47,0.46c0.12,0.2,0.18,0.4,0.18,0.62v0.01
						L135.95,47.4z"/>
					<path class="st2" d="M138.01,48.46l-0.04,0.02l0,1.43c0,0.17-0.04,0.28-0.13,0.33c-0.09,0.05-0.21,0.03-0.36-0.05
						c-0.15-0.08-0.26-0.2-0.34-0.35c-0.09-0.15-0.13-0.31-0.12-0.48l0-1.43l-0.04-0.07l-0.2-0.12l-0.04,0.03l0,1.53
						c0,0.16,0.03,0.31,0.09,0.45c0.06,0.15,0.15,0.28,0.25,0.4c0.11,0.12,0.22,0.22,0.35,0.29c0.24,0.14,0.41,0.15,0.53,0.02
						l0.01,0l0.01,0.02l0,0.2l0.04,0.07l0.2,0.12l0.04-0.02l0.01-2.2l-0.04-0.07L138.01,48.46z"/>
					<path class="st2" d="M139.92,50.7c-0.1-0.1-0.22-0.22-0.37-0.36c-0.17-0.15-0.28-0.27-0.36-0.38c-0.08-0.1-0.12-0.2-0.12-0.3
						c0-0.11,0.04-0.17,0.12-0.19c0.08-0.01,0.19,0.02,0.32,0.09c0.15,0.08,0.26,0.18,0.35,0.3c0.09,0.12,0.13,0.23,0.13,0.33v0.02
						l0.04,0.07l0.19,0.11l0.04-0.02v-0.02c0-0.11-0.03-0.24-0.09-0.37c-0.06-0.13-0.15-0.26-0.26-0.38
						c-0.11-0.12-0.24-0.22-0.38-0.3c-0.22-0.12-0.39-0.17-0.52-0.13c-0.13,0.04-0.2,0.15-0.2,0.35c0,0.13,0.03,0.26,0.1,0.38
						c0.06,0.12,0.14,0.24,0.24,0.34c0.09,0.1,0.21,0.22,0.36,0.36c0.12,0.11,0.21,0.2,0.27,0.26c0.06,0.06,0.11,0.13,0.15,0.2
						c0.04,0.07,0.07,0.15,0.07,0.23c0,0.11-0.04,0.17-0.13,0.19c-0.08,0.02-0.2-0.01-0.33-0.08c-0.14-0.08-0.25-0.18-0.34-0.31
						c-0.09-0.12-0.14-0.24-0.14-0.34v-0.04l-0.04-0.07l-0.19-0.11l-0.04,0.02v0.06c0,0.11,0.03,0.23,0.09,0.36
						c0.06,0.13,0.15,0.25,0.27,0.37c0.11,0.12,0.24,0.22,0.39,0.31c0.22,0.13,0.4,0.17,0.53,0.13c0.14-0.04,0.2-0.16,0.21-0.35
						c0-0.14-0.03-0.27-0.1-0.4C140.09,50.91,140.02,50.8,139.92,50.7z"/>
					<path class="st2" d="M141.19,50.3l-0.02-0.03l0-0.52l-0.04-0.07l-0.19-0.11l-0.04,0.02l0,0.52l-0.02,0.01l-0.24-0.14L140.6,50
						l0,0.18l0.04,0.07l0.24,0.14l0.02,0.02l0,1.44c0,0.22,0.05,0.4,0.14,0.54c0.1,0.14,0.24,0.26,0.43,0.37
						c0.07,0.04,0.11,0.07,0.15,0.08l0.04-0.02l0-0.18l-0.04-0.07l-0.1-0.06c-0.12-0.07-0.21-0.15-0.27-0.24
						c-0.06-0.09-0.08-0.21-0.08-0.35l0-1.34l0.02-0.01l0.44,0.26l0.04-0.02l0-0.18l-0.04-0.07L141.19,50.3z"/>
					<path class="st2" d="M143.4,51.7c-0.14-0.19-0.3-0.34-0.48-0.45c-0.2-0.11-0.36-0.15-0.5-0.12c-0.14,0.03-0.23,0.13-0.28,0.3
						c-0.04,0.11-0.06,0.29-0.06,0.52c0,0.23,0.02,0.43,0.05,0.59c0.05,0.23,0.14,0.44,0.28,0.63c0.14,0.19,0.3,0.34,0.49,0.45
						c0.19,0.11,0.35,0.15,0.49,0.11c0.13-0.03,0.23-0.14,0.28-0.3c0.04-0.11,0.06-0.28,0.06-0.53c0-0.24-0.02-0.44-0.06-0.59
						C143.63,52.1,143.53,51.89,143.4,51.7z M143.41,53.19c-0.03,0.12-0.1,0.19-0.18,0.22c-0.09,0.03-0.2,0-0.32-0.07
						c-0.13-0.07-0.24-0.18-0.33-0.31c-0.09-0.13-0.15-0.27-0.18-0.43c-0.02-0.11-0.03-0.27-0.03-0.47c0-0.2,0.01-0.35,0.03-0.44
						c0.03-0.12,0.1-0.19,0.19-0.22c0.09-0.03,0.2-0.01,0.33,0.07c0.13,0.07,0.24,0.18,0.33,0.31c0.09,0.13,0.15,0.28,0.18,0.43
						c0.02,0.12,0.03,0.28,0.03,0.48C143.45,52.95,143.44,53.09,143.41,53.19z"/>
					<path class="st2" d="M146.32,53.23c-0.14-0.08-0.26-0.12-0.36-0.12c-0.11,0-0.19,0.05-0.25,0.14l-0.02-0.01
						c-0.05-0.15-0.12-0.29-0.22-0.41c-0.1-0.12-0.21-0.21-0.35-0.29c-0.11-0.07-0.21-0.1-0.3-0.11c-0.09-0.01-0.16,0.01-0.23,0.07
						h-0.01l-0.01-0.02l0-0.18l-0.04-0.07l-0.2-0.12l-0.04,0.02l-0.01,2.2l0.04,0.07l0.2,0.12l0.04-0.02l0-1.46
						c0-0.16,0.04-0.27,0.13-0.32c0.08-0.05,0.19-0.03,0.33,0.05c0.14,0.08,0.24,0.19,0.33,0.33c0.08,0.15,0.12,0.3,0.12,0.47
						l0,1.45l0.04,0.07l0.2,0.12l0.04-0.02l0-1.46c0-0.16,0.04-0.27,0.13-0.32c0.09-0.05,0.2-0.03,0.34,0.05
						c0.14,0.08,0.24,0.19,0.33,0.33c0.08,0.15,0.12,0.3,0.12,0.47l0,1.45l0.04,0.07l0.2,0.12l0.04-0.02l0-1.52
						c0-0.24-0.06-0.46-0.17-0.66C146.67,53.5,146.52,53.34,146.32,53.23z"/>
					<path class="st2" d="M148.82,54.88c-0.13-0.21-0.31-0.39-0.55-0.53c-0.19-0.11-0.36-0.14-0.49-0.1
						c-0.13,0.04-0.22,0.14-0.27,0.31c-0.01,0.05-0.02,0.12-0.03,0.2c0,0.08,0,0.18,0,0.31c0,0.27,0.02,0.5,0.07,0.67
						c0.06,0.21,0.15,0.4,0.27,0.57c0.12,0.17,0.28,0.31,0.47,0.42c0.17,0.1,0.32,0.14,0.45,0.14c0.13,0,0.23-0.06,0.3-0.17
						l-0.02-0.07l-0.15-0.19l-0.06-0.01c-0.05,0.08-0.11,0.12-0.2,0.13c-0.08,0.01-0.18-0.02-0.29-0.09
						c-0.15-0.08-0.27-0.19-0.36-0.33c-0.09-0.13-0.16-0.27-0.18-0.43c-0.01-0.05-0.02-0.16-0.02-0.33l0.01-0.01l1.27,0.74
						l0.04-0.02l0-0.15c0-0.13-0.01-0.24-0.02-0.33C149.03,55.33,148.95,55.09,148.82,54.88z M148.78,55.68l-1.02-0.59l-0.01-0.02
						c0-0.14,0.01-0.24,0.03-0.29c0.03-0.11,0.08-0.19,0.17-0.21c0.09-0.03,0.19,0,0.32,0.07c0.13,0.08,0.24,0.18,0.33,0.31
						c0.09,0.13,0.15,0.27,0.18,0.43c0.01,0.06,0.02,0.16,0.02,0.3L148.78,55.68z"/>
					<path class="st2" d="M150.44,55.62c-0.11-0.07-0.21-0.09-0.3-0.08c-0.09,0.01-0.16,0.06-0.21,0.14l-0.01,0l0-0.02l0-0.28
						l-0.04-0.07l-0.2-0.12l-0.04,0.02l-0.01,2.2l0.04,0.07l0.2,0.12l0.04-0.02l0-1.34c0-0.17,0.04-0.29,0.13-0.34
						c0.09-0.06,0.2-0.05,0.34,0.02l0.05,0.03c0.06,0.03,0.11,0.07,0.15,0.12l0.05,0l0.04-0.2l-0.02-0.07
						C150.6,55.73,150.53,55.67,150.44,55.62z"/>
					<path class="st2" d="M153.24,58.05c-0.12-0.15-0.27-0.32-0.47-0.52c-0.19-0.19-0.33-0.34-0.42-0.45
						c-0.09-0.11-0.16-0.21-0.21-0.31c-0.05-0.1-0.07-0.2-0.07-0.31c0-0.16,0.05-0.27,0.15-0.3c0.1-0.03,0.24,0.01,0.43,0.12
						c0.21,0.12,0.38,0.28,0.5,0.46c0.12,0.18,0.18,0.36,0.18,0.53l0,0.08l0.04,0.07l0.2,0.11l0.04-0.02l0-0.1
						c0-0.26-0.08-0.52-0.25-0.77c-0.17-0.26-0.4-0.46-0.69-0.63c-0.27-0.15-0.48-0.21-0.63-0.15c-0.15,0.05-0.23,0.2-0.23,0.46
						c0,0.16,0.03,0.32,0.1,0.46c0.07,0.15,0.16,0.29,0.26,0.42c0.11,0.13,0.26,0.3,0.46,0.5c0.19,0.2,0.33,0.35,0.43,0.48
						c0.1,0.12,0.18,0.24,0.22,0.34c0.05,0.11,0.07,0.21,0.07,0.31c0,0.16-0.05,0.27-0.16,0.3c-0.11,0.03-0.26-0.01-0.46-0.12
						c-0.22-0.13-0.4-0.28-0.52-0.46c-0.13-0.18-0.19-0.36-0.19-0.53v-0.12l-0.04-0.07l-0.19-0.11l-0.04,0.02l0,0.14
						c0,0.26,0.09,0.51,0.26,0.77c0.17,0.26,0.41,0.47,0.7,0.64c0.29,0.17,0.52,0.22,0.68,0.16c0.16-0.06,0.24-0.21,0.25-0.46
						c0-0.16-0.03-0.32-0.11-0.48C153.45,58.35,153.36,58.2,153.24,58.05z"/>
					<path class="st2" d="M155.41,58.51l-0.04,0.03l0,1.43c0,0.17-0.05,0.28-0.13,0.33c-0.09,0.05-0.21,0.03-0.36-0.05
						c-0.15-0.09-0.26-0.2-0.34-0.35c-0.09-0.15-0.13-0.31-0.12-0.48l0-1.43l-0.04-0.07l-0.2-0.12l-0.04,0.02l-0.01,1.53
						c0,0.16,0.03,0.31,0.09,0.45c0.06,0.15,0.14,0.28,0.25,0.4c0.11,0.12,0.22,0.22,0.35,0.29c0.24,0.14,0.41,0.15,0.53,0.02
						l0.01,0l0.01,0.02l0,0.19l0.04,0.07l0.2,0.12l0.04-0.02l0.01-2.2l-0.04-0.07L155.41,58.51z"/>
					<path class="st2" d="M157.57,59.88c-0.13-0.18-0.28-0.33-0.46-0.43c-0.11-0.06-0.2-0.09-0.29-0.09c-0.09,0-0.16,0.03-0.22,0.08
						l-0.01,0l-0.01-0.02v-0.19l-0.04-0.07l-0.2-0.12l-0.04,0.02l-0.01,3.08l0.04,0.07l0.2,0.11l0.04-0.02l0-1.06l0.01-0.01
						l0.01,0.02c0.06,0.12,0.13,0.23,0.22,0.32c0.09,0.1,0.18,0.18,0.29,0.24c0.19,0.11,0.35,0.14,0.47,0.1
						c0.13-0.03,0.21-0.14,0.26-0.3c0.03-0.11,0.05-0.29,0.05-0.53c0-0.24-0.02-0.44-0.06-0.61
						C157.78,60.26,157.69,60.06,157.57,59.88z M157.57,61.25c-0.01,0.08-0.04,0.14-0.06,0.19c-0.03,0.08-0.09,0.13-0.17,0.14
						c-0.08,0.01-0.17-0.01-0.27-0.07c-0.1-0.06-0.19-0.14-0.26-0.24c-0.07-0.1-0.13-0.22-0.16-0.34c-0.03-0.08-0.05-0.16-0.06-0.25
						c-0.01-0.09-0.02-0.21-0.01-0.35c0-0.15,0.01-0.26,0.02-0.33c0.01-0.08,0.03-0.14,0.05-0.18c0.03-0.09,0.09-0.14,0.16-0.16
						c0.07-0.02,0.16,0,0.26,0.06c0.11,0.07,0.21,0.15,0.29,0.26c0.08,0.11,0.14,0.23,0.17,0.35c0.02,0.08,0.04,0.16,0.05,0.24
						c0.01,0.09,0.02,0.2,0.02,0.35C157.6,61.07,157.59,61.18,157.57,61.25z"/>
					<path class="st2" d="M159.75,61.14c-0.13-0.18-0.28-0.33-0.47-0.43c-0.1-0.06-0.2-0.09-0.29-0.09c-0.08,0-0.16,0.03-0.21,0.08
						l-0.01,0l-0.01-0.02l0-0.19l-0.04-0.07l-0.2-0.12l-0.04,0.02l-0.01,3.08l0.04,0.07l0.2,0.12l0.04-0.02l0-1.06l0.01-0.01
						l0.01,0.02c0.06,0.12,0.13,0.23,0.22,0.32c0.09,0.1,0.18,0.18,0.28,0.24c0.19,0.11,0.35,0.14,0.47,0.1
						c0.12-0.04,0.21-0.14,0.26-0.31c0.03-0.11,0.05-0.29,0.05-0.53c0-0.24-0.02-0.44-0.06-0.61
						C159.95,61.52,159.87,61.32,159.75,61.14z M159.75,62.51c-0.01,0.08-0.04,0.14-0.07,0.19c-0.03,0.08-0.09,0.13-0.17,0.15
						c-0.08,0.01-0.17-0.01-0.27-0.07c-0.1-0.06-0.19-0.14-0.26-0.24c-0.07-0.1-0.12-0.22-0.15-0.34c-0.03-0.08-0.05-0.16-0.06-0.25
						c-0.01-0.09-0.02-0.21-0.02-0.35c0-0.15,0.01-0.26,0.02-0.33c0.01-0.08,0.03-0.14,0.05-0.19c0.04-0.09,0.09-0.14,0.16-0.16
						c0.07-0.02,0.16,0,0.26,0.06c0.11,0.06,0.21,0.15,0.29,0.26c0.08,0.11,0.14,0.23,0.17,0.35c0.03,0.08,0.05,0.16,0.06,0.25
						c0.01,0.09,0.02,0.2,0.02,0.35C159.78,62.32,159.77,62.43,159.75,62.51z"/>
					<path class="st2" d="M161.85,62.36c-0.14-0.19-0.3-0.34-0.48-0.45c-0.2-0.11-0.36-0.15-0.5-0.12c-0.14,0.03-0.23,0.13-0.28,0.3
						c-0.04,0.11-0.06,0.29-0.06,0.52c0,0.23,0.02,0.43,0.05,0.59c0.05,0.22,0.15,0.44,0.28,0.63c0.14,0.19,0.3,0.34,0.49,0.45
						c0.19,0.11,0.35,0.14,0.49,0.11c0.14-0.03,0.23-0.14,0.28-0.3c0.04-0.1,0.06-0.28,0.06-0.53c0-0.24-0.01-0.43-0.05-0.59
						C162.08,62.75,161.99,62.55,161.85,62.36z M161.86,63.84c-0.03,0.12-0.09,0.19-0.18,0.22c-0.09,0.03-0.2,0.01-0.32-0.07
						c-0.13-0.08-0.24-0.18-0.33-0.31c-0.09-0.13-0.15-0.28-0.18-0.43c-0.02-0.12-0.03-0.28-0.03-0.47c0-0.2,0.01-0.35,0.03-0.44
						c0.03-0.12,0.09-0.19,0.18-0.22s0.2,0,0.33,0.07c0.13,0.07,0.24,0.17,0.33,0.31c0.09,0.13,0.15,0.28,0.18,0.43
						c0.02,0.12,0.03,0.27,0.03,0.48C161.9,63.6,161.89,63.75,161.86,63.84z"/>
					<path class="st2" d="M163.56,63.19c-0.11-0.06-0.21-0.09-0.3-0.08c-0.09,0.01-0.16,0.06-0.21,0.14l-0.01,0l0-0.02v-0.28
						l-0.04-0.07l-0.2-0.12l-0.04,0.02l-0.01,2.2l0.04,0.07l0.2,0.12l0.04-0.02l0-1.34c0-0.17,0.04-0.28,0.13-0.34
						c0.09-0.05,0.2-0.05,0.34,0.02l0.05,0.03c0.06,0.03,0.11,0.07,0.15,0.12l0.05,0l0.04-0.2l-0.02-0.07
						C163.72,63.3,163.64,63.24,163.56,63.19z"/>
					<path class="st2" d="M164.65,64.11l0.45,0.26l0.04-0.02l0-0.18l-0.04-0.07l-0.45-0.26l-0.01-0.03l0-0.52l-0.04-0.07l-0.19-0.11
						l-0.04,0.02l0,0.52l-0.02,0.01l-0.24-0.14l-0.04,0.02v0.18l0.04,0.07l0.24,0.14l0.02,0.02l0,1.44c0,0.22,0.05,0.4,0.15,0.54
						c0.1,0.14,0.24,0.26,0.43,0.37c0.07,0.04,0.11,0.07,0.15,0.08l0.04-0.02v-0.18l-0.04-0.07l-0.1-0.06
						c-0.12-0.07-0.21-0.15-0.27-0.24c-0.06-0.09-0.08-0.21-0.08-0.35l0-1.34L164.65,64.11z"/>
				</g>
			</g>
			<g>
				<path class="st11" d="M157.52,83.75c-3.61-2.08-6.55-0.41-6.56,3.74c-0.01,4.15,2.91,9.2,6.52,11.28
					c3.61,2.08,6.55,0.41,6.56-3.74C164.04,90.89,161.12,85.83,157.52,83.75z"/>
				<path class="st6" d="M157.5,89.7c-1.88-1.09-3.38-1.24-3.38-0.32l0,0.87c0.02,0.36,0.26,0.77,0.54,0.93l1.12,0.65
					c0.4,0.23,0.66-0.1,0.48-0.59c-0.12-0.35-0.02-0.63,0.2-0.67c0.25-0.03,0.65,0.11,1.05,0.34c0.39,0.22,0.77,0.53,1.03,0.86
					c0.24,0.28,0.32,0.69,0.2,0.9c-0.19,0.28,0.07,0.92,0.48,1.15l1.12,0.65c0.3,0.15,0.54,0.01,0.54-0.31l0-0.87
					C160.86,92.37,159.38,90.78,157.5,89.7z"/>
			</g>
			<path class="st12" d="M163.94,110.39l-11.51-6.65c-0.38-0.22-0.68-0.04-0.68,0.39c0,0.43,0.3,0.96,0.68,1.17l11.51,6.65
				c0.38,0.22,0.68,0.04,0.68-0.39C164.62,111.13,164.32,110.61,163.94,110.39z"/>
			<g>
				<path class="st2" d="M139.22,64.69l-3.77-2.18c-0.04-0.02-0.05-0.05-0.03-0.08l0.27-0.21c1.13-0.91,1.89-1.54,2.28-1.89
					c0.75-0.67,1.14-1.4,1.14-2.18c0-0.47-0.1-0.95-0.3-1.44c-0.2-0.49-0.48-0.94-0.85-1.37c-0.37-0.42-0.79-0.78-1.27-1.05
					c-0.68-0.39-1.25-0.5-1.69-0.33c-0.45,0.17-0.68,0.61-0.69,1.31l0,0.55c0,0.09,0.04,0.16,0.12,0.21l0.62,0.36
					c0.08,0.05,0.12,0.02,0.12-0.07l0-0.43c0-0.49,0.13-0.81,0.41-0.94c0.28-0.14,0.65-0.08,1.11,0.19c0.46,0.27,0.84,0.64,1.13,1.1
					c0.29,0.46,0.43,0.93,0.43,1.42c0,0.61-0.38,1.24-1.14,1.91l-0.89,0.75c-0.96,0.81-1.58,1.32-1.85,1.54
					c-0.04,0.02-0.06,0.07-0.06,0.13l0,0.58c0,0.09,0.04,0.16,0.12,0.21l4.8,2.77c0.08,0.05,0.12,0.03,0.12-0.07l0-0.58
					C139.34,64.8,139.3,64.73,139.22,64.69z"/>
				<path class="st2" d="M145.82,65.8l-0.52-0.3c-0.03-0.02-0.05-0.05-0.05-0.08l0.01-2.23c0-0.09-0.04-0.16-0.12-0.21l-0.61-0.35
					c-0.08-0.05-0.12-0.02-0.12,0.07l-0.01,2.23c0,0.04-0.01,0.05-0.05,0.03l-2.7-1.56l-0.04-0.04V63.3l2.41-4.5
					c0.02-0.04,0.02-0.08-0.01-0.12c-0.02-0.04-0.05-0.08-0.09-0.1l-0.64-0.37c-0.07-0.04-0.11-0.03-0.13,0.02l-2.48,4.67
					c-0.02,0.05-0.04,0.1-0.04,0.15l0,0.51c0,0.09,0.04,0.16,0.12,0.21l3.6,2.08c0.03,0.02,0.05,0.04,0.05,0.08l-0.01,2.47
					c0,0.09,0.04,0.16,0.12,0.21l0.61,0.35c0.08,0.05,0.12,0.02,0.12-0.07l0.01-2.47c0-0.04,0.02-0.05,0.05-0.03l0.52,0.3
					c0.08,0.05,0.12,0.02,0.12-0.07l0-0.61C145.94,65.91,145.9,65.84,145.82,65.8z"/>
				<path class="st2" d="M149.89,62.02c-0.07-0.04-0.12-0.03-0.15,0.03l-2.68,7.87c-0.03,0.09,0.01,0.15,0.1,0.21l0.6,0.35
					c0.07,0.04,0.12,0.03,0.14-0.03l2.68-7.87c0.02-0.09-0.01-0.16-0.09-0.21L149.89,62.02z"/>
				<path class="st2" d="M156.8,66.01l-4.74-2.74c-0.08-0.05-0.12-0.02-0.12,0.07l-0.02,1.4c0,0.09,0.04,0.16,0.12,0.21l0.49,0.28
					c0.08,0.05,0.12,0.02,0.12-0.07l0-0.64c0-0.04,0.02-0.05,0.05-0.03l3.25,1.87l0.04,0.04v0.05l-2.8,6.98
					c-0.02,0.04-0.02,0.08,0.01,0.12c0.02,0.05,0.05,0.08,0.09,0.1l0.68,0.39c0.07,0.04,0.12,0.03,0.14-0.03L156.9,67
					c0.02-0.07,0.02-0.12,0.02-0.15l0-0.64C156.92,66.12,156.88,66.05,156.8,66.01z"/>
			</g>
		</g>
		<path class="st13" d="M187.84,185.6c-0.79-0.14-1.64-0.45-2.53-0.96l-33.35-19.26l-26.3-41.45V87.6L187.84,185.6z M193.12,82.38
			l-42.35-66.74l-17.31-9.99c-4.29-2.47-7.78-0.48-7.8,4.44v21.47l67.45,106.31V82.38z"/>
	</g>
	<g>
		<path class="st14" d="M193.39,87.29V61.82l-10.72-6.19c-1.33-0.77-2.41-0.16-2.42,1.37l-0.06,19.9c-0.01,1.53,1.07,3.39,2.4,4.16
			l1.84,1.06l-0.01,3.14c0,0.85,0.32,1.52,0.81,1.8c0.24,0.14,0.52,0.18,0.82,0.11l4.98-1.23L193.39,87.29z"/>
		<path class="st15" d="M220.03,75.53l-40.57-23.42c-1.33-0.77-2.41-0.16-2.42,1.37l-0.06,19.9c0,1.53,1.07,3.39,2.4,4.16l1.84,1.06
			l-0.01,3.14c0,0.85,0.33,1.52,0.81,1.8c0.24,0.14,0.52,0.18,0.82,0.11l4.98-1.23l32.12,18.54c1.33,0.77,2.41,0.15,2.42-1.37
			l0.06-19.9C222.43,78.16,221.35,76.3,220.03,75.53z"/>
		<g>
			<path class="st6" d="M207.99,87.79l-25.27-14.59c-0.34-0.2-0.63-0.04-0.63,0.36c0,0.4,0.28,0.88,0.62,1.08l25.27,14.59
				c0.34,0.2,0.63,0.04,0.63-0.36C208.61,88.48,208.34,87.99,207.99,87.79z"/>
			<path class="st6" d="M216.66,88.04l-33.92-19.59c-0.35-0.2-0.63-0.04-0.63,0.36c0,0.4,0.28,0.88,0.62,1.08l33.92,19.59
				c0.35,0.2,0.63,0.04,0.63-0.36C217.29,88.73,217.01,88.24,216.66,88.04z"/>
			<path class="st6" d="M216.68,83.29L182.75,63.7c-0.34-0.2-0.63-0.04-0.63,0.36c0,0.4,0.28,0.88,0.62,1.08l33.92,19.59
				c0.35,0.2,0.63,0.04,0.63-0.36C217.3,83.97,217.02,83.49,216.68,83.29z"/>
			<path class="st6" d="M182.76,60.38l33.92,19.59c0.35,0.2,0.63,0.04,0.63-0.36c0-0.4-0.28-0.88-0.62-1.08l-33.93-19.59
				c-0.35-0.2-0.63-0.04-0.63,0.36C182.14,59.7,182.41,60.18,182.76,60.38z"/>
		</g>
	</g>
	<g>
		<path class="st16" d="M59.33,71.52l0.06,19.9c0.01,1.53,1.09,2.14,2.42,1.37l5.47-3.24l4.98,1.23c0.3,0.07,0.58,0.03,0.82-0.11
			c0.49-0.28,0.81-0.95,0.81-1.8l-0.01-3.14l28.49-16.37c1.33-0.77,2.4-2.63,2.4-4.16l-0.06-19.9c0-1.53-1.09-2.14-2.42-1.37
			L61.73,67.37C60.4,68.13,59.33,69.99,59.33,71.52z"/>
		<g>
			<path class="st6" d="M73.76,79.63l25.27-14.59c0.35-0.2,0.63-0.04,0.63,0.36c0,0.4-0.28,0.88-0.62,1.08L73.77,81.07
				c-0.34,0.2-0.63,0.04-0.63-0.36C73.14,80.31,73.42,79.83,73.76,79.63z"/>
			<path class="st6" d="M65.09,79.87l33.92-19.59c0.35-0.2,0.63-0.04,0.63,0.36c0,0.4-0.28,0.88-0.62,1.08L65.1,81.31
				c-0.35,0.2-0.63,0.04-0.63-0.36C64.47,80.56,64.75,80.07,65.09,79.87z"/>
			<path class="st6" d="M65.08,75.12l33.93-19.59c0.34-0.2,0.62-0.04,0.63,0.36c0,0.4-0.28,0.88-0.62,1.08L65.08,76.56
				c-0.35,0.2-0.63,0.04-0.63-0.36C64.45,75.8,64.73,75.32,65.08,75.12z"/>
			<path class="st6" d="M99,52.22L65.07,71.8c-0.35,0.2-0.63,0.04-0.63-0.36c0-0.4,0.28-0.88,0.62-1.08l33.93-19.59
				c0.35-0.2,0.63-0.04,0.63,0.36C99.62,51.53,99.34,52.02,99,52.22z"/>
		</g>
	</g>
	<g>
		<path class="st17" d="M220.03,112.31c1.33,0.77,2.4,2.63,2.4,4.15l-0.03,11.07c-0.01,1.53-1.09,2.14-2.42,1.37l-40.57-23.42
			c-1.33-0.77-2.41-2.63-2.4-4.15l0.03-11.07c0.01-1.53,1.09-2.14,2.42-1.37L220.03,112.31z"/>
		<g>
			<path class="st18" d="M186.93,100.44l-0.51-0.34l-0.5-0.34l-0.78-0.53l-0.3-1.01l-0.2-0.65l-0.2-0.65
				c-0.08-0.28-0.19-0.46-0.3-0.52c-0.11-0.06-0.22-0.01-0.31,0.16l-0.2,0.42l-0.2,0.43l-0.31,0.65l-0.78-0.37l-0.51-0.24l-0.5-0.25
				c-0.43-0.21-0.52,0.04-0.19,0.56l0.38,0.6l0.98,1.54l-0.18,0.77l-0.12,0.5l-0.12,0.5c-0.07,0.3,0.02,0.54,0.2,0.64
				c0.08,0.05,0.18,0.07,0.29,0.05l0.44-0.05l0.43-0.05l0.68-0.08l0.67,0.86l0.43,0.55l0.43,0.56c0.11,0.14,0.21,0.24,0.29,0.28
				c0.18,0.11,0.27-0.04,0.2-0.41l-0.12-0.63l-0.11-0.64l-0.18-0.98l0.98-0.41l0.38-0.16C187.45,101.08,187.36,100.73,186.93,100.44
				z"/>
			<path class="st18" d="M194.72,104.94l-0.51-0.34l-0.5-0.34l-0.78-0.53l-0.3-1.01l-0.19-0.65l-0.2-0.65
				c-0.08-0.28-0.19-0.45-0.3-0.52c-0.11-0.06-0.22-0.01-0.31,0.16l-0.2,0.43l-0.2,0.43l-0.31,0.65l-0.79-0.37l-0.5-0.24l-0.51-0.25
				c-0.43-0.21-0.52,0.04-0.19,0.56l0.38,0.61l0.98,1.54l-0.18,0.77l-0.11,0.51l-0.12,0.5c-0.07,0.3,0.02,0.54,0.2,0.64
				c0.08,0.05,0.18,0.07,0.29,0.05l0.43-0.06l0.44-0.05l0.67-0.08l0.68,0.86l0.43,0.55l0.43,0.56c0.11,0.14,0.21,0.24,0.29,0.28
				c0.18,0.11,0.27-0.04,0.2-0.41l-0.11-0.64l-0.11-0.64l-0.18-0.98l0.98-0.41l0.38-0.16C195.24,105.58,195.16,105.23,194.72,104.94
				z"/>
			<path class="st18" d="M202.52,109.44l-0.5-0.34l-0.51-0.34l-0.78-0.53l-0.3-1.01l-0.2-0.65l-0.2-0.65
				c-0.08-0.28-0.19-0.45-0.3-0.52c-0.11-0.06-0.22-0.01-0.31,0.16l-0.2,0.43l-0.2,0.42l-0.31,0.65l-0.78-0.37l-0.51-0.24l-0.5-0.25
				c-0.43-0.21-0.52,0.05-0.19,0.56l0.38,0.61l0.98,1.54l-0.18,0.77l-0.12,0.51l-0.11,0.5c-0.07,0.3,0.02,0.54,0.2,0.64
				c0.08,0.05,0.18,0.07,0.29,0.05l0.43-0.06l0.44-0.05l0.67-0.08l0.67,0.86l0.44,0.55l0.43,0.56c0.11,0.14,0.21,0.24,0.29,0.28
				c0.18,0.11,0.27-0.03,0.2-0.41l-0.12-0.64l-0.11-0.64l-0.18-0.98l0.98-0.41l0.39-0.16C203.04,110.08,202.95,109.73,202.52,109.44
				z"/>
			<path class="st19" d="M210.32,113.94l-0.51-0.34l-0.51-0.34l-0.78-0.53l-0.31-1.01l-0.2-0.65l-0.19-0.65
				c-0.08-0.28-0.19-0.45-0.3-0.52c-0.11-0.06-0.22-0.01-0.31,0.16l-0.2,0.43l-0.2,0.42l-0.31,0.65l-0.79-0.37l-0.51-0.24l-0.5-0.25
				c-0.43-0.21-0.52,0.04-0.19,0.56l0.38,0.61l0.97,1.54l-0.18,0.78l-0.12,0.51l-0.12,0.5c-0.07,0.3,0.02,0.54,0.2,0.65
				c0.08,0.05,0.18,0.07,0.3,0.05l0.44-0.05l0.44-0.05l0.67-0.08l0.67,0.86l0.44,0.55l0.43,0.56c0.11,0.14,0.21,0.24,0.29,0.28
				c0.18,0.11,0.27-0.04,0.2-0.41l-0.11-0.63l-0.11-0.64l-0.18-0.98l0.98-0.41l0.39-0.16C210.84,114.58,210.75,114.23,210.32,113.94
				z"/>
			<path class="st19" d="M218.12,118.44l-0.51-0.34l-0.5-0.34l-0.78-0.53l-0.3-1.01l-0.19-0.65l-0.19-0.65
				c-0.08-0.28-0.19-0.46-0.31-0.52c-0.11-0.06-0.22-0.01-0.3,0.17l-0.2,0.42l-0.2,0.43l-0.31,0.65l-0.79-0.38l-0.5-0.24l-0.51-0.25
				c-0.43-0.21-0.52,0.04-0.19,0.56l0.38,0.6l0.98,1.54l-0.18,0.77l-0.12,0.5l-0.12,0.5c-0.07,0.3,0.02,0.54,0.2,0.64
				c0.08,0.05,0.18,0.07,0.29,0.05l0.44-0.05l0.43-0.05l0.68-0.08l0.67,0.86l0.44,0.55l0.43,0.56c0.11,0.14,0.21,0.24,0.29,0.28
				c0.18,0.11,0.27-0.04,0.2-0.41l-0.11-0.63l-0.11-0.64l-0.18-0.98l0.98-0.41l0.38-0.16C218.63,119.08,218.55,118.73,218.12,118.44
				z"/>
		</g>
	</g>
	<g>
		<path class="st14" d="M136.53,75.47l-10.88-6.28v18.32l10.82,6.25c1.33,0.77,2.41,0.15,2.42-1.38l0.04-12.75
			C138.93,78.11,137.86,76.24,136.53,75.47z"/>
		<path class="st20" d="M135.59,73.22l-15.82-9.13c-0.67-0.39-1.28-0.42-1.71-0.17c-1.34,0.78-2.67,1.55-4.01,2.33
			c0.44-0.25,1.04-0.22,1.71,0.17l15.82,9.14c1.33,0.77,2.41,2.63,2.4,4.16l-0.04,12.75c0,0.76-0.27,1.29-0.7,1.55l4.01-2.33
			c0.43-0.25,0.7-0.79,0.7-1.55L138,77.38C138,75.85,136.93,73.99,135.59,73.22z"/>
		<linearGradient id="SVGID_4_" gradientUnits="userSpaceOnUse" x1="122.1888" y1="85.5123" x2="124.5011" y2="76.9748">
			<stop  offset="0" style="stop-color:#FF3333"/>
			<stop  offset="1" style="stop-color:#AB2222"/>
		</linearGradient>
		<path class="st21" d="M131.58,75.55l-15.82-9.14c-1.33-0.77-2.41-0.15-2.42,1.38l-0.04,12.75c0,1.53,1.07,3.39,2.4,4.16
			l15.82,9.13c1.33,0.77,2.41,0.15,2.42-1.38l0.04-12.75C133.99,78.19,132.91,76.32,131.58,75.55z"/>
		<path class="st22" d="M133.25,94.01l0.7-0.41c0.18-0.28,0.29-0.67,0.29-1.14l0.04-12.75c0-1.53-1.07-3.39-2.4-4.16l-15.82-9.14
			c-0.44-0.25-0.85-0.35-1.21-0.32c0.29,0.03,0.6,0.13,0.93,0.32l15.82,9.14c1.33,0.77,2.41,2.63,2.4,4.16l-0.04,12.75
			C133.95,93.22,133.68,93.76,133.25,94.01z"/>
		<linearGradient id="SVGID_5_" gradientUnits="userSpaceOnUse" x1="114.4464" y1="80.1312" x2="132.8461" y2="80.1312">
			<stop  offset="0" style="stop-color:#C7E1F8"/>
			<stop  offset="1" style="stop-color:#FFFFFF"/>
		</linearGradient>
		<path class="st23" d="M132.61,93.04c-0.06,0-0.23-0.02-0.51-0.18l-15.82-9.14c-0.98-0.57-1.84-2.05-1.83-3.17l0.04-12.75
			c0-0.02,0-0.57,0.2-0.57c0.06,0,0.23,0.02,0.51,0.18l15.82,9.14c0.98,0.57,1.84,2.05,1.83,3.17l-0.04,12.75
			C132.81,92.49,132.81,93.04,132.61,93.04L132.61,93.04z"/>
		<path class="st11" d="M131.58,75.55l-15.82-9.14c-1.33-0.77-2.41-0.15-2.42,1.38l0,1.52l6.41,8.76c0.82,1.12,1.91,2.08,2.99,2.7
			c1.09,0.63,2.18,0.93,3,0.76l8.24-1.72v-0.12C133.99,78.19,132.91,76.32,131.58,75.55z"/>
	</g>
	<g>
		<path class="st14" d="M149.64,30.51c0.45,0.26,0.9,0.72,1.24,1.31c0.68,1.18,0.68,2.46-0.01,2.85l-9.24,5.27
			c-0.33,0.19-0.78,0.14-1.24-0.13c-0.46-0.27-0.92-0.74-1.25-1.31l-3.26-5.65c-0.68-1.18-0.68-2.46,0.01-2.86
			c0.35-0.19,0.8-0.13,1.25,0.13c0.45,0.26,0.9,0.72,1.24,1.31l2.02,3.51l7.99-4.55C148.74,30.19,149.19,30.25,149.64,30.51z"/>
		<path class="st24" d="M136.71,30.57c-0.34-0.59-0.79-1.05-1.24-1.3c-0.45-0.26-0.9-0.32-1.25-0.13l-2.79,1.62
			c0.35-0.19,0.8-0.13,1.25,0.13c0.45,0.26,0.9,0.72,1.24,1.31l2.02,3.51l2.8-1.62L136.71,30.57z"/>
		<path class="st24" d="M149.21,30.95c-0.34-0.59-0.79-1.05-1.24-1.31c-0.45-0.26-0.9-0.32-1.24-0.12l-7.99,4.55l-2.8,1.62
			l7.99-4.55c0.34-0.2,0.79-0.14,1.24,0.12c0.45,0.26,0.9,0.72,1.24,1.31c0.68,1.18,0.68,2.46-0.01,2.85l2.79-1.62
			C149.89,33.41,149.9,32.13,149.21,30.95z"/>
		<path class="st16" d="M145.18,31.27c0.45,0.26,0.9,0.72,1.24,1.31c0.68,1.18,0.68,2.46-0.01,2.85l-9.24,5.27
			c-0.33,0.19-0.78,0.14-1.24-0.13c-0.46-0.27-0.92-0.74-1.24-1.31l-3.26-5.65c-0.68-1.18-0.68-2.46,0.01-2.86
			c0.35-0.19,0.8-0.13,1.25,0.13c0.45,0.26,0.9,0.72,1.24,1.31l2.02,3.51l7.99-4.55C144.28,30.94,144.73,31.01,145.18,31.27z"/>
	</g>
	<g>
		<g>
			<g class="st25">
				<path class="st26" d="M122.99,110.54c0-1.19-0.43-2.04-1.11-2.43l-2.39-1.39c0.68,0.4,1.1,1.24,1.11,2.43v51.54l2.39,1.39
					V110.54z"/>
				<path class="st26" d="M121.19,103.78c-1.12-0.66-2.69-0.57-4.41,0.43l-23.83,13.74c-3.41,1.97-6.19,6.79-6.18,10.72l0,51.54
					l2.39,1.39v-51.54c-0.01-3.93,2.77-8.74,6.18-10.72l23.83-13.75c1.72-1,3.28-1.08,4.41-0.43L121.19,103.78z"/>
				<path class="st27" d="M119.17,105.59c3.42-1.98,6.21-0.38,6.22,3.56v51.54l-2.4,1.39v-51.54c-0.01-2.4-1.72-3.38-3.81-2.17
					l-23.83,13.75c-2.09,1.21-3.78,4.15-3.78,6.55v51.54l-2.41,1.39v-51.54c-0.01-3.93,2.77-8.74,6.18-10.72L119.17,105.59z"/>
				<g>
					<path class="st28" d="M89.42,130.06c-0.01-3.93,2.77-8.74,6.18-10.72l23.83-13.75c0.98-0.57,1.91-0.83,2.74-0.84
						c-0.89-0.05-1.91,0.21-3,0.84l-23.83,13.75c-3.42,1.97-6.2,6.78-6.18,10.72v51.54l0.26-0.15V130.06z"/>
					<path class="st28" d="M123.25,161.93v-51.39c-0.01-1.82-0.99-2.82-2.38-2.67c1.25,0,2.12,0.97,2.12,2.67v51.54L123.25,161.93z"
						/>
				</g>
			</g>
			<g class="st25">
				<path class="st26" d="M185.52,146.89c0-1.19-0.43-2.04-1.11-2.43l-2.39-1.39c0.69,0.4,1.11,1.24,1.11,2.44l0,51.54l2.39,1.39
					V146.89z"/>
				<path class="st26" d="M183.73,140.13c-1.13-0.66-2.69-0.56-4.41,0.43l-23.83,13.75c-3.42,1.97-6.2,6.79-6.18,10.72v51.54
					l2.39,1.39v-51.54c-0.01-3.94,2.77-8.75,6.18-10.72l23.83-13.75c1.72-0.99,3.28-1.08,4.41-0.43L183.73,140.13z"/>
				<path class="st27" d="M181.71,141.95c3.42-1.98,6.21-0.38,6.22,3.56v51.54l-2.41,1.39v-51.54c-0.01-2.4-1.72-3.38-3.81-2.17
					l-23.83,13.75c-2.09,1.21-3.79,4.15-3.78,6.55v51.54l-2.41,1.39v-51.54c-0.01-3.94,2.77-8.75,6.18-10.72L181.71,141.95z"/>
				<g>
					<path class="st28" d="M151.96,166.42c-0.01-3.94,2.77-8.75,6.18-10.72l23.82-13.75c0.99-0.56,1.91-0.83,2.74-0.84
						c-0.89-0.05-1.91,0.21-3,0.84l-23.83,13.75c-3.42,1.97-6.2,6.79-6.18,10.72v51.54l0.26-0.15V166.42z"/>
					<path class="st28" d="M185.78,198.28v-51.39c0-1.82-0.99-2.82-2.38-2.67c1.25,0,2.11,0.96,2.12,2.67v51.54L185.78,198.28z"/>
				</g>
			</g>
		</g>
		<g>
			<path class="st29" d="M188.55,138.75l-38.06,22.12c-1.32,0.77-3.47,0.77-4.8,0.01l-69.01-39.85c-0.67-0.39-1-0.89-1-1.4
				l-0.01,2.77c0,0.5,0.33,1.01,0.99,1.4l69.01,39.84c1.33,0.77,3.48,0.76,4.8,0l38.06-22.12c0.66-0.38,0.99-0.88,0.99-1.38
				l0.01-2.77C189.54,137.87,189.21,138.37,188.55,138.75z"/>
			<path class="st30" d="M188.55,135.97c1.33,0.77,1.33,2.02,0.01,2.78l-38.06,22.12c-1.32,0.77-3.47,0.77-4.8,0.01l-69.01-39.85
				c-1.33-0.77-1.33-2.02-0.01-2.78l38.07-22.12c1.32-0.77,3.47-0.77,4.8,0L188.55,135.97z"/>
			<path class="st31" d="M75.73,119.98c-0.18,0.6,0.13,1.26,0.95,1.73l69.01,39.84c1.33,0.77,3.48,0.76,4.8,0l38.06-22.12
				c0.66-0.38,0.98-0.88,0.99-1.38v-0.01c0-0.11-0.02-0.22-0.05-0.33c-0.12,0.39-0.42,0.76-0.94,1.05l-38.06,22.12
				c-1.32,0.77-3.47,0.77-4.8,0.01l-69.01-39.85C76.16,120.73,75.85,120.36,75.73,119.98z"/>
		</g>
	</g>
	<g>
		<g>
			<path class="st30" d="M214.56,179.43v19.11c0,1.5-0.99,3-2.95,4.14c-3.98,2.3-10.44,2.3-14.42,0.01
				c-2.01-1.16-3.02-2.69-3.01-4.21v-19.11c0,1.52,1,3.05,3.01,4.21c3.98,2.3,10.45,2.3,14.42-0.01
				C213.57,182.43,214.56,180.93,214.56,179.43z"/>
			<path class="st31" d="M211.61,183.57c-3.97,2.31-10.44,2.31-14.42,0.01c-2.01-1.16-3.01-2.68-3.01-4.21v0.42
				c0,1.52,1,3.05,3.01,4.21c3.98,2.3,10.45,2.3,14.42-0.01c1.96-1.15,2.95-2.65,2.95-4.15v-0.42
				C214.56,180.93,213.57,182.43,211.61,183.57z"/>
			<g>
				<path class="st32" d="M211.56,175.22c3.98,2.3,4,6.05,0.05,8.34c-3.97,2.31-10.44,2.31-14.42,0.01
					c-3.99-2.31-4.02-6.05-0.05-8.36C201.1,172.91,207.56,172.91,211.56,175.22z"/>
			</g>
			<g>
				<path class="st33" d="M204.4,184.13c-2.52,0-4.87-0.56-6.63-1.57c-1.56-0.9-2.42-2.03-2.42-3.18c-0.01-1.14,0.84-2.25,2.38-3.15
					c1.74-1.01,4.08-1.56,6.6-1.56c2.53,0,4.89,0.55,6.65,1.57c1.56,0.9,2.42,2.02,2.42,3.17c0,1.14-0.84,2.25-2.37,3.14
					C209.27,183.57,206.92,184.13,204.4,184.13z"/>
			</g>
			<path class="st31" d="M197.73,176.39c1.74-1.01,4.08-1.56,6.6-1.56c2.53,0,4.89,0.56,6.65,1.57c1.52,0.88,2.37,1.98,2.41,3.1
				c0.01-0.03,0.01-0.05,0.01-0.08c0-1.15-0.86-2.27-2.42-3.17c-1.76-1.02-4.12-1.57-6.65-1.57c-2.52,0-4.86,0.55-6.6,1.56
				c-1.54,0.89-2.38,2.01-2.38,3.15c0,0.03,0,0.05,0,0.08C195.39,178.36,196.22,177.27,197.73,176.39z"/>
			<path class="st34" d="M210.97,177.42c-1.76-1.02-4.12-1.57-6.65-1.57c-2.52,0-4.86,0.55-6.6,1.57c-1.27,0.74-2.06,1.63-2.29,2.56
				c0.24,0.95,1.04,1.85,2.33,2.6c1.75,1.01,4.11,1.57,6.63,1.57c2.53,0,4.88-0.56,6.62-1.57c1.26-0.74,2.04-1.63,2.29-2.55
				C213.06,179.07,212.26,178.16,210.97,177.42z"/>
		</g>
		<g>
			<g>
				<path class="st35" d="M219.3,136.61c1.29-0.61,3.51-1.1,5.83-0.01c2.31,1.08,5.48,3.25,5.48,3.25s-0.97-0.95-2-1.69
					c-1.03-0.74-2.7-1.67-4.03-2.29C223.24,135.24,221.33,134.83,219.3,136.61z"/>
				<path class="st35" d="M214.8,138.89c0,0,3.17-3.65,7.45-4.42c4.3-0.79,8.6,1.57,10.44,3.02c0,0-2.78-1.66-4.95-2
					c-2.18-0.34-5.81-0.67-8.38,0.86C216.81,137.86,216.5,139,214.8,138.89z"/>
				<g>
					<path class="st36" d="M205.04,180.86c0.02-0.32,0.04-0.64,0.06-0.97c0.12-1.52,0.28-3.11,0.45-4.74
						c0.17-1.65,0.36-3.36,0.51-5.08c0.04-0.43,0.08-0.87,0.11-1.31c0.03-0.44,0.06-0.88,0.09-1.32c0.02-0.22,0.03-0.44,0.05-0.66
						c0.01-0.22,0.02-0.44,0.03-0.66c0.02-0.44,0.04-0.89,0.06-1.33c0.02-0.44,0.04-0.89,0.06-1.33c0.02-0.44,0.03-0.88,0.08-1.32
						c0.04-0.44,0.07-0.88,0.11-1.31c0.01-0.22,0.04-0.44,0.06-0.65c0.03-0.22,0.05-0.44,0.08-0.65c0.09-0.87,0.24-1.72,0.36-2.56
						c0.07-0.42,0.16-0.83,0.24-1.24c0.04-0.21,0.08-0.42,0.12-0.62c0.05-0.2,0.1-0.4,0.14-0.61c0.04-0.2,0.09-0.4,0.14-0.6
						c0.03-0.1,0.05-0.2,0.07-0.3c0.03-0.1,0.06-0.19,0.08-0.29c0.11-0.39,0.22-0.78,0.32-1.16c0.11-0.38,0.24-0.75,0.36-1.12
						c0.11-0.37,0.25-0.72,0.37-1.07c0.25-0.71,0.54-1.37,0.8-2.01c0.15-0.31,0.28-0.62,0.42-0.93c0.07-0.15,0.13-0.3,0.21-0.44
						c0.07-0.14,0.14-0.28,0.21-0.43c0.14-0.28,0.27-0.55,0.41-0.81c0.14-0.26,0.27-0.51,0.4-0.75c0.26-0.49,0.52-0.92,0.75-1.32
						c0.47-0.8,0.84-1.42,1.11-1.84c0.27-0.43,0.41-0.65,0.41-0.65l-0.32-0.18c0,0-0.15,0.23-0.42,0.65
						c-0.27,0.42-0.67,1.04-1.15,1.84c-0.23,0.4-0.51,0.83-0.77,1.32c-0.14,0.24-0.27,0.49-0.42,0.75
						c-0.13,0.26-0.28,0.54-0.42,0.82c-0.08,0.14-0.15,0.28-0.22,0.43c-0.07,0.15-0.14,0.29-0.21,0.45
						c-0.15,0.3-0.29,0.61-0.44,0.93c-0.28,0.65-0.58,1.31-0.84,2.02c-0.14,0.36-0.28,0.71-0.4,1.08c-0.12,0.37-0.26,0.74-0.38,1.13
						c-0.11,0.38-0.23,0.78-0.34,1.17c-0.03,0.1-0.06,0.19-0.09,0.29c-0.02,0.1-0.05,0.2-0.08,0.3c-0.05,0.2-0.1,0.4-0.15,0.6
						c-0.05,0.21-0.1,0.41-0.15,0.61c-0.05,0.21-0.09,0.42-0.14,0.62c-0.08,0.42-0.18,0.83-0.26,1.26c-0.14,0.85-0.3,1.71-0.41,2.59
						c-0.03,0.22-0.06,0.44-0.09,0.66c-0.03,0.22-0.06,0.44-0.07,0.66c-0.04,0.44-0.09,0.88-0.13,1.32
						c-0.05,0.44-0.07,0.88-0.1,1.33c-0.03,0.44-0.05,0.88-0.08,1.32c-0.03,0.44-0.05,0.89-0.08,1.33
						c-0.01,0.22-0.03,0.44-0.04,0.66c-0.02,0.22-0.04,0.44-0.05,0.66c-0.04,0.44-0.07,0.87-0.11,1.31
						c-0.04,0.43-0.09,0.87-0.13,1.3c-0.17,1.71-0.38,3.41-0.58,5.06c-0.2,1.63-0.38,3.23-0.52,4.76c-0.04,0.34-0.05,0.67-0.08,1.01
						C204.38,180.86,204.71,180.86,205.04,180.86z"/>
				</g>
				<path class="st35" d="M206.57,142.43c0.84,0.16,2.67,2.67,3.42,4.57c0.09-1.03,0.18-2.71-0.09-3.9
					c-0.27-1.2-0.41-1.54-1.06-1.54C208.18,141.56,206.57,142.43,206.57,142.43z"/>
				<path class="st36" d="M209.31,141.67c0,0-0.42-0.35-0.98-0.28c-0.56,0.07-1.87,0.25-2.17,0.85c-0.29,0.6-1.38,8.36,2.97,13.05
					c0,0-1.41-4.25-1.22-8.31C208.12,142.8,208.55,141.59,209.31,141.67z"/>
				<path class="st36" d="M211.83,140.93c0,0-1.07-0.16-1.56-0.1c-0.5,0.07-1.06-0.04-1.11,0.33c-0.05,0.37,0.34,2.49,1.14,4.09
					c0.79,1.58,2,4.23,2.13,7.04c0,0,0.68-1.62,0.37-3.24c-0.31-1.64-0.43-4.03-0.57-4.92
					C212.08,143.24,211.83,140.93,211.83,140.93z"/>
				<path class="st35" d="M212.21,143.19c0,0-0.14-2.2,0.64-3.33c0.91-1.31,2.3-1.38,3.88-1.12
					C215.27,139.32,213.92,139.91,212.21,143.19z"/>
				<path class="st36" d="M213.23,139.41c0.86-0.32,2.37-0.21,4,1.38c1.61,1.57,4.84,4.47,4.84,4.47s-1.41-2.46-2.55-4.19
					c-1.16-1.76-2.49-2.43-3.38-2.47C215.24,138.56,214.04,138.54,213.23,139.41z"/>
				<path class="st36" d="M215.49,138.72c0,0,1.87-0.83,3.65-0.57c1.77,0.26,5.75,2.37,7.17,6.14c0,0-3.65-3.41-6.07-4.47
					C217.79,138.75,215.49,138.72,215.49,138.72z"/>
				<path class="st36" d="M216.52,138.54c0,0,1.34-1.16,3.85-1.61c2.53-0.45,4.73,0.2,5.76,1.15c1.02,0.94,3.73,3.59,3.73,3.59
					s-2.46-1.21-4.17-2.23c-1.72-1.03-4.43-1.87-5.87-1.75C218.37,137.78,216.52,138.54,216.52,138.54z"/>
				<path class="st36" d="M216.07,138.6c0,0,3.3-3.59,7.31-4.94c4.03-1.37,7.06-1.47,9.59-0.68c0,0-2.77-0.49-5.63,0.34
					C222.31,134.76,218.71,137.85,216.07,138.6z"/>
			</g>
			<path class="st35" d="M213.29,147.02c0,0,4.39-8.92,11.75-12.77c3.98-2.09,10.73-1.47,10.73-1.47s-5.86,0.59-8.18,1.94
				c-2.31,1.33-7.45,6.11-9.32,7.92C216.43,144.44,213.29,147.02,213.29,147.02z"/>
			<g>
				<path class="st35" d="M202.58,157.64c0,0-0.03-8.05-2.1-12.86c-2.13-4.95-4.78-7.31-7.51-7.96c0,0,2.12,0.75,3.35,4.32
					C197.53,144.64,201.28,154.95,202.58,157.64z"/>
				<path class="st35" d="M204.27,151.28c0,0,0.36-6.79-0.33-11.85c-0.72-5.22-1.57-11.77-1.57-11.77s-1.54,3.39-0.82,10.64
					C202.23,145.25,202.89,148.66,204.27,151.28z"/>
				<path class="st35" d="M205.18,147.11c0,0,1.97-3.95,2.4-7.48c0.44-3.61,1.25-9.1,2.58-11.39c0,0-2.32,1.98-3.58,6.98
					C205.36,140.07,205.18,147.11,205.18,147.11z"/>
				<path class="st36" d="M202.09,160.87c-3.45-3.37-9.76-13.23-13.01-22.36C192.95,144.58,198.86,152.24,202.09,160.87z"/>
				<path class="st36" d="M202.19,160.05c0,0-0.91-6.38-3.39-11.99c-2.58-5.81-8.33-10.9-15.62-8.82c3.13-0.47,6.83-0.06,8.96,2.48
					C196.55,146.99,200.32,157.42,202.19,160.05z"/>
				<path class="st36" d="M203.04,155.57c0,0-1.31-3.45-2.49-9.7c-1.51-7.96-0.14-14.05-0.14-14.05s1.93,8.42,2.47,11.86
					C203.38,147.04,203.19,153.19,203.04,155.57z"/>
				<path class="st36" d="M204.73,148.62c0,0-1.02-8.21-0.34-14.21c0.71-6.22,1.35-7.59,1.35-7.59s0.8,5.29,0.5,10.76
					C205.94,142.87,204.73,148.62,204.73,148.62z"/>
				<path class="st36" d="M206,145.26c2.59-1.99,4.48-7.14,5.69-9.59c1.23-2.49,3.9-6.4,6.11-7.43c-3.69,1.3-6.21,4.13-7.77,7.16
					C208.49,138.39,206.49,141.94,206,145.26z"/>
				<path class="st36" d="M201.76,176.7c0.09,1.29,0.15,2.52,0.21,3.68c0,0.07,0.01,0.13,0.01,0.19c0.28,0.06,0.57,0.11,0.87,0.16
					c-0.01-0.13-0.02-0.25-0.03-0.39c-0.11-1.16-0.22-2.39-0.34-3.68c-0.11-1.3-0.24-2.65-0.34-4.03c-0.11-1.4-0.2-2.83-0.28-4.29
					c-0.05-1.46-0.05-2.94,0.07-4.4c0.09-1.48,0.28-2.94,0.49-4.37c0.24-1.44,0.5-2.84,0.83-4.16c0.31-1.34,0.66-2.6,0.99-3.78
					c0.18-0.59,0.35-1.16,0.51-1.7c0.18-0.54,0.34-1.05,0.5-1.54c0.33-0.97,0.62-1.82,0.87-2.52c0.25-0.7,0.46-1.26,0.6-1.63
					c0.14-0.38,0.22-0.58,0.22-0.58l-0.59-0.18c0,0-0.28,0.82-0.75,2.24c-0.24,0.71-0.52,1.56-0.83,2.54
					c-0.3,0.97-0.63,2.07-0.98,3.26c-0.33,1.18-0.67,2.46-0.97,3.81c-0.08,0.33-0.15,0.68-0.23,1.02c-0.07,0.34-0.14,0.69-0.21,1.04
					c-0.15,0.7-0.26,1.41-0.39,2.13c-0.23,1.44-0.43,2.91-0.53,4.4c-0.13,1.48-0.13,2.97-0.12,4.45c0.04,1.45,0.1,2.9,0.18,4.3
					C201.58,174.05,201.67,175.4,201.76,176.7z"/>
			</g>
			<g>
				<path class="st36" d="M205.17,180.85c0.01-0.18,0.03-0.39,0.04-0.63c0.02-0.24,0.04-0.5,0.05-0.78c0.03-0.28,0.03-0.6,0.08-0.93
					c0.08-0.66,0.17-1.41,0.27-2.24c0.01-0.1,0.03-0.2,0.04-0.31c0.02-0.1,0.04-0.21,0.06-0.32c0.04-0.21,0.08-0.43,0.12-0.66
					c0.08-0.45,0.16-0.91,0.24-1.39c0.02-0.12,0.04-0.24,0.06-0.36c0.03-0.12,0.06-0.24,0.09-0.37c0.06-0.24,0.11-0.49,0.17-0.75
					c0.12-0.5,0.24-1.02,0.36-1.55c0.15-0.53,0.3-1.06,0.46-1.61c0.08-0.27,0.16-0.55,0.24-0.83c0.08-0.28,0.18-0.55,0.28-0.83
					c0.19-0.56,0.38-1.12,0.58-1.69c0.22-0.57,0.45-1.13,0.67-1.7c0.11-0.29,0.22-0.58,0.35-0.86c0.13-0.29,0.26-0.57,0.38-0.85
					c0.13-0.28,0.26-0.57,0.38-0.85l0.19-0.43l0.21-0.42c0.28-0.56,0.56-1.11,0.84-1.66c0.29-0.55,0.6-1.08,0.89-1.62
					c0.14-0.26,0.3-0.53,0.45-0.78l-0.34-0.23c-0.16,0.27-0.33,0.56-0.49,0.84c-0.3,0.53-0.61,1.07-0.91,1.62
					c-0.29,0.55-0.57,1.11-0.86,1.67l-0.22,0.42l-0.19,0.43c-0.13,0.29-0.26,0.57-0.4,0.86c-0.13,0.28-0.26,0.57-0.39,0.85
					c-0.13,0.28-0.24,0.57-0.36,0.86c-0.23,0.57-0.46,1.14-0.69,1.71c-0.2,0.57-0.4,1.14-0.6,1.7c-0.09,0.28-0.2,0.55-0.29,0.83
					c-0.08,0.28-0.16,0.56-0.24,0.83c-0.16,0.55-0.32,1.09-0.48,1.62c-0.13,0.53-0.26,1.06-0.38,1.57
					c-0.06,0.26-0.12,0.51-0.18,0.75c-0.03,0.12-0.06,0.25-0.09,0.37c-0.02,0.12-0.05,0.25-0.07,0.37c-0.09,0.48-0.18,0.95-0.26,1.4
					c-0.04,0.22-0.08,0.44-0.12,0.66c-0.02,0.11-0.04,0.22-0.06,0.32c-0.01,0.11-0.03,0.21-0.04,0.32
					c-0.11,0.83-0.21,1.59-0.29,2.26c-0.05,0.34-0.06,0.65-0.09,0.93c-0.02,0.29-0.04,0.55-0.06,0.79
					c-0.02,0.25-0.03,0.47-0.05,0.66C204.75,180.86,204.96,180.86,205.17,180.85z"/>
				<path class="st35" d="M211.68,157.83c0,0,1.9-5.97,4.03-8.26c2.17-2.32,6.07-3.46,8.78-2.29c0,0-1.4-0.65-3.25,0.68
					C219.42,149.29,213.53,155.72,211.68,157.83z"/>
				<path class="st35" d="M211.55,157.97c0,0,4.65-4.28,8.03-5.6c3.41-1.34,8.43-1.06,12.06,1.79c0,0-1.32-2.88-5.41-3.41
					c-4.17-0.55-7.74,0.81-9.34,1.86C215.28,153.65,213.19,155.44,211.55,157.97z"/>
				<path class="st37" d="M210.69,159.55c0,0,3.96-5.08,5.76-8.92c1.86-3.93,4.46-5.9,4.66-9.79c0,0-0.64,2.04-2.38,3.99
					C217.01,146.76,210.44,153.02,210.69,159.55z"/>
			</g>
			<path class="st36" d="M193.94,161.35c0,0,0.02,0.01,0.07,0.02c0.05,0.02,0.12,0.05,0.21,0.08c0.17,0.07,0.42,0.18,0.7,0.36
				c0.15,0.08,0.29,0.19,0.45,0.3c0.08,0.06,0.17,0.12,0.25,0.17c0.08,0.07,0.16,0.14,0.25,0.21c0.36,0.27,0.7,0.62,1.08,1
				c0.34,0.4,0.74,0.82,1.08,1.3c0.17,0.24,0.37,0.48,0.53,0.74c0.16,0.26,0.33,0.52,0.5,0.79c0.08,0.13,0.17,0.27,0.25,0.41
				c0.08,0.14,0.15,0.28,0.23,0.42c0.15,0.29,0.31,0.57,0.46,0.86c0.29,0.58,0.54,1.18,0.82,1.77c0.24,0.59,0.46,1.2,0.69,1.78
				c0.12,0.29,0.2,0.58,0.3,0.88c0.09,0.29,0.18,0.57,0.27,0.85c0.09,0.28,0.18,0.56,0.26,0.82c0.07,0.27,0.14,0.53,0.21,0.79
				c0.13,0.51,0.26,0.99,0.38,1.44c0.11,0.44,0.18,0.85,0.26,1.21c0.08,0.36,0.14,0.67,0.2,0.93c0.11,0.5,0.17,0.8,0.17,0.8
				l-0.96,0.12c0,0-0.06-0.29-0.15-0.8c-0.05-0.25-0.1-0.56-0.17-0.91c-0.07-0.35-0.13-0.76-0.24-1.2c-0.1-0.44-0.22-0.91-0.34-1.42
				c-0.06-0.26-0.12-0.52-0.19-0.78c-0.07-0.27-0.16-0.54-0.24-0.81c-0.08-0.28-0.16-0.56-0.25-0.84c-0.09-0.29-0.16-0.58-0.27-0.87
				c-0.21-0.58-0.42-1.17-0.64-1.76c-0.26-0.58-0.49-1.17-0.76-1.74c-0.14-0.28-0.29-0.56-0.43-0.84c-0.07-0.14-0.14-0.28-0.21-0.42
				c-0.07-0.14-0.16-0.26-0.23-0.4c-0.16-0.26-0.31-0.52-0.47-0.78c-0.15-0.26-0.34-0.48-0.5-0.72c-0.32-0.48-0.69-0.88-1.01-1.28
				c-0.35-0.36-0.68-0.7-1-0.96c-0.08-0.07-0.15-0.13-0.23-0.2c-0.08-0.06-0.16-0.11-0.23-0.17c-0.15-0.11-0.28-0.21-0.41-0.28
				c-0.25-0.16-0.47-0.26-0.6-0.33c-0.07-0.03-0.12-0.05-0.15-0.06c-0.05-0.01-0.07-0.02-0.07-0.02L193.94,161.35z"/>
			<g>
				<path class="st38" d="M195.71,162.41c0,0-2.84-2.75-7.15-3.01c-6.08-0.36-9.59,1.8-11.27,6.98c2.11-4.08,4.18-4.93,7.21-5.53
					C189.64,159.84,194.47,162.03,195.71,162.41z"/>
				<g>
					<path class="st35" d="M196.21,162.69c0,0,0.2,0.2,0.46,0.59c0,0-1.32-0.8-2.7-1.16c-1.39-0.36-4-0.34-5.66,0.39
						C190.34,161.38,193.91,160.85,196.21,162.69z"/>
					<path class="st37" d="M196.21,162.69c0,0-2.24-1.83-5.35-0.76c-3.09,1.06-5.71,6.66-7.4,8.11c0.62-3.25,1.6-6.45,3.19-7.51
						c1.6-1.07,2.89-1.47,4.84-1.43C193.45,161.13,194.88,161.54,196.21,162.69z"/>
				</g>
				<path class="st35" d="M199.97,168.44c0,0-1.47-2.18-1.77-5.78c-0.3-3.63,0.15-4.89,0.15-4.89S201.85,162.63,199.97,168.44z"/>
				<path class="st35" d="M199.76,168.44c0,0-2.21-1.84-3.6-2.53c-1.4-0.7-3.58-1.53-5.74-0.64c0,0,1.31-1.46,4.4-0.8
					C197.99,165.13,199.13,166.7,199.76,168.44z"/>
				<g>
					<path class="st35" d="M197.62,163.34c0,0,0.58,0.44,0.36,1.5c-0.42-0.65-1.7-1.22-3.02-1.21
						C195.45,163.44,196.45,163.14,197.62,163.34z"/>
					<path class="st37" d="M197.62,163.34c-0.48-0.14-1.99-0.26-2.85,0.04c-0.86,0.3-1.56,1.74-1.08,3.65
						C194.91,164.76,195.99,163.63,197.62,163.34z"/>
				</g>
			</g>
			<path class="st36" d="M206.91,180.71c0-0.03,0.01-0.04,0.02-0.07c0.06-0.25,0.13-0.49,0.19-0.75c0.07-0.26,0.16-0.52,0.23-0.78
				c0.08-0.27,0.16-0.53,0.25-0.81c0.09-0.28,0.16-0.56,0.27-0.83c0.21-0.56,0.41-1.12,0.63-1.69c0.25-0.56,0.49-1.13,0.75-1.67
				c0.14-0.27,0.28-0.54,0.42-0.81c0.07-0.13,0.14-0.27,0.21-0.4c0.07-0.13,0.15-0.26,0.23-0.38c0.15-0.25,0.31-0.5,0.46-0.75
				c0.15-0.24,0.33-0.46,0.49-0.69c0.31-0.46,0.67-0.85,0.99-1.22c0.35-0.35,0.67-0.68,0.99-0.93c0.08-0.06,0.16-0.13,0.23-0.19
				c0.08-0.05,0.15-0.11,0.23-0.16c0.14-0.1,0.27-0.2,0.4-0.27c0.25-0.16,0.46-0.26,0.59-0.32c0.07-0.02,0.12-0.04,0.16-0.06
				c0.04-0.01,0.06-0.02,0.06-0.02l-0.14-0.43c0,0-0.02,0.01-0.06,0.02c-0.05,0.01-0.12,0.04-0.21,0.08
				c-0.17,0.07-0.41,0.18-0.69,0.34c-0.15,0.07-0.28,0.18-0.44,0.28c-0.08,0.05-0.16,0.11-0.25,0.17c-0.08,0.07-0.16,0.13-0.25,0.2
				c-0.35,0.26-0.69,0.6-1.06,0.96c-0.33,0.38-0.73,0.78-1.06,1.25c-0.17,0.23-0.36,0.46-0.53,0.71c-0.16,0.25-0.32,0.5-0.49,0.76
				c-0.08,0.13-0.17,0.26-0.24,0.39c-0.07,0.14-0.15,0.27-0.22,0.41c-0.15,0.27-0.3,0.55-0.46,0.82c-0.28,0.56-0.54,1.13-0.81,1.7
				c-0.24,0.57-0.46,1.15-0.69,1.71c-0.12,0.28-0.2,0.56-0.29,0.84c-0.09,0.28-0.18,0.55-0.27,0.82c-0.09,0.27-0.18,0.53-0.26,0.79
				c-0.07,0.26-0.14,0.51-0.21,0.76c-0.03,0.11-0.05,0.21-0.09,0.32C206.31,180.79,206.61,180.76,206.91,180.71z"/>
			<g>
				<path class="st38" d="M212.83,168.5c0,0,2.8-2.64,7.01-2.89c5.95-0.34,9.39,1.73,11.02,6.7c-2.06-3.92-4.08-4.74-7.06-5.31
					C218.78,166.02,214.05,168.13,212.83,168.5z"/>
				<g>
					<path class="st35" d="M212.34,168.76c0,0-0.2,0.19-0.46,0.57c0,0,1.29-0.77,2.65-1.12c1.37-0.34,3.92-0.32,5.55,0.37
						C218.09,167.51,214.6,167,212.34,168.76z"/>
					<path class="st37" d="M212.34,168.76c0,0,2.2-1.76,5.25-0.73c3.02,1.03,5.58,6.4,7.23,7.8c-0.6-3.12-1.55-6.19-3.11-7.21
						c-1.57-1.03-2.82-1.41-4.74-1.38C215.05,167.27,213.65,167.66,212.34,168.76z"/>
				</g>
				<path class="st35" d="M208.63,174.29c0,0,1.44-2.09,1.75-5.55c0.31-3.48-0.13-4.7-0.13-4.7S206.81,168.7,208.63,174.29z"/>
				<path class="st35" d="M208.84,174.29c0,0,2.17-1.76,3.54-2.43c1.37-0.67,3.51-1.47,5.62-0.61c0,0-1.28-1.4-4.31-0.77
					C210.59,171.11,209.46,172.61,208.84,174.29z"/>
				<g>
					<path class="st35" d="M210.95,169.39c0,0-0.56,0.42-0.36,1.44c0.42-0.63,1.67-1.17,2.97-1.16
						C213.08,169.48,212.11,169.19,210.95,169.39z"/>
					<path class="st37" d="M210.95,169.39c0.47-0.14,1.95-0.25,2.79,0.04c0.84,0.29,1.52,1.67,1.05,3.5
						C213.61,170.75,212.55,169.67,210.95,169.39z"/>
				</g>
			</g>
			<g>
				<path class="st35" d="M215.36,160.17c0,0,3.27-0.63,7.37-3.19c3.85-2.41,5.56-2.88,5.56-2.88S221.06,153.32,215.36,160.17z"/>
				<path class="st36" d="M206.11,180.8c0.01-0.1,0.01-0.2,0.02-0.33c0.02-0.3,0.05-0.68,0.07-1.11c0.01-0.21,0.04-0.44,0.07-0.68
					c0.03-0.24,0.06-0.5,0.09-0.76c0.03-0.26,0.07-0.54,0.1-0.83c0.03-0.29,0.1-0.58,0.15-0.89c0.06-0.31,0.11-0.62,0.17-0.94
					c0.03-0.16,0.05-0.32,0.09-0.49c0.04-0.16,0.08-0.33,0.12-0.49c0.16-0.67,0.31-1.37,0.54-2.07c0.11-0.35,0.21-0.71,0.32-1.06
					c0.13-0.35,0.27-0.71,0.4-1.07l0.2-0.54c0.07-0.17,0.15-0.35,0.23-0.53c0.15-0.35,0.31-0.7,0.47-1.05
					c0.37-0.68,0.69-1.36,1.11-1.99c0.2-0.32,0.39-0.64,0.61-0.93c0.21-0.29,0.42-0.59,0.63-0.87c0.23-0.27,0.45-0.53,0.66-0.79
					c0.1-0.13,0.22-0.25,0.34-0.36c0.11-0.12,0.22-0.23,0.33-0.34c0.11-0.11,0.21-0.23,0.32-0.33c0.11-0.1,0.23-0.2,0.33-0.29
					c0.22-0.19,0.41-0.38,0.63-0.53c0.21-0.15,0.4-0.3,0.58-0.44c0.19-0.13,0.36-0.23,0.52-0.33c0.31-0.21,0.59-0.33,0.78-0.43
					c0.19-0.09,0.29-0.14,0.29-0.14l-0.16-0.28c0,0-0.1,0.05-0.29,0.14c-0.19,0.1-0.46,0.21-0.8,0.43c-0.16,0.1-0.36,0.21-0.55,0.34
					c-0.19,0.13-0.4,0.28-0.62,0.44c-0.22,0.15-0.43,0.34-0.66,0.53c-0.12,0.1-0.23,0.2-0.35,0.3c-0.12,0.1-0.22,0.21-0.34,0.33
					c-0.11,0.11-0.23,0.23-0.35,0.35c-0.12,0.12-0.24,0.23-0.35,0.37c-0.22,0.26-0.45,0.52-0.69,0.79
					c-0.23,0.28-0.44,0.58-0.67,0.88c-0.23,0.29-0.43,0.62-0.64,0.94c-0.44,0.63-0.79,1.33-1.17,2.01c-0.16,0.35-0.33,0.71-0.5,1.06
					c-0.08,0.18-0.17,0.36-0.25,0.54l-0.21,0.54c-0.14,0.36-0.29,0.72-0.43,1.08c-0.12,0.36-0.23,0.72-0.35,1.08
					c-0.25,0.71-0.41,1.41-0.59,2.09c-0.04,0.17-0.09,0.34-0.13,0.51c-0.04,0.16-0.07,0.33-0.1,0.49c-0.06,0.33-0.13,0.65-0.19,0.96
					c-0.05,0.31-0.13,0.61-0.16,0.9c-0.04,0.29-0.08,0.57-0.12,0.84c-0.04,0.27-0.07,0.52-0.11,0.77c-0.03,0.24-0.07,0.47-0.08,0.69
					c-0.04,0.43-0.07,0.81-0.09,1.12c-0.02,0.16-0.03,0.29-0.04,0.41C205.56,180.84,205.84,180.82,206.11,180.8z"/>
				<path class="st38" d="M215.7,160.02c0,0,3.13-2.18,7.11-1.82c5.61,0.51,8.41,3.01,9,8.06c-1.18-4.09-2.9-5.17-5.56-6.15
					C221.75,158.46,216.91,159.83,215.7,160.02z"/>
				<g>
					<path class="st35" d="M215.18,160.21c0,0-0.22,0.16-0.54,0.49c0,0,1.36-0.57,2.7-0.71c1.34-0.14,3.74,0.24,5.13,1.15
						C220.82,159.81,217.64,158.81,215.18,160.21z"/>
					<path class="st37" d="M215.18,160.21c0,0,2.4-1.4,5.06,0.03c2.64,1.43,4.01,7.03,5.29,8.62c0.02-3.13-0.28-6.25-1.55-7.46
						c-1.27-1.22-2.37-1.77-4.17-2.02C218.02,159.14,216.62,159.32,215.18,160.21z"/>
				</g>
				<path class="st35" d="M210.63,165.1c0,0,1.77-1.85,2.71-5.19c0.96-3.36,0.77-4.61,0.77-4.61S209.98,159.36,210.63,165.1z"/>
				<path class="st35" d="M210.83,165.13c0,0,2.39-1.43,3.8-1.89c1.42-0.46,3.58-0.94,5.4,0.19c0,0-0.93-1.55-3.9-1.37
					C213.08,162.26,211.74,163.58,210.83,165.13z"/>
				<g>
					<path class="st35" d="M213.76,160.63c0,0-0.61,0.33-0.61,1.36c0.51-0.55,1.8-0.91,3.01-0.72
						C215.74,161.02,214.88,160.6,213.76,160.63z"/>
					<path class="st37" d="M213.76,160.63c0.47-0.07,1.88,0.04,2.62,0.44c0.74,0.4,1.12,1.85,0.32,3.57
						C216,162.34,215.21,161.13,213.76,160.63z"/>
				</g>
			</g>
			<g>
				<path class="st36" d="M195.51,155.08c0.22,0.33,0.46,0.69,0.7,1.07c0.13,0.19,0.25,0.38,0.38,0.58c0.12,0.2,0.25,0.41,0.38,0.61
					c0.26,0.41,0.52,0.84,0.8,1.29c0.26,0.45,0.53,0.91,0.81,1.39c0.28,0.47,0.54,0.97,0.81,1.47c0.27,0.5,0.55,1,0.8,1.53
					c0.26,0.52,0.52,1.05,0.77,1.59c0.24,0.54,0.48,1.08,0.72,1.63l0.18,0.41l0.16,0.41c0.11,0.28,0.21,0.55,0.32,0.83
					c0.11,0.28,0.21,0.55,0.32,0.83c0.11,0.28,0.19,0.56,0.29,0.84c0.19,0.55,0.37,1.11,0.56,1.66c0.16,0.55,0.31,1.1,0.46,1.65
					c0.07,0.27,0.16,0.54,0.22,0.81c0.06,0.27,0.12,0.54,0.18,0.8c0.12,0.53,0.24,1.05,0.35,1.56c0.09,0.52,0.18,1.02,0.26,1.51
					c0.04,0.25,0.08,0.49,0.13,0.72c0.02,0.12,0.04,0.24,0.06,0.36c0.01,0.11,0.03,0.23,0.04,0.35c0.05,0.47,0.11,0.92,0.16,1.35
					c0.02,0.17,0.04,0.34,0.06,0.51c0.19-0.01,0.38-0.02,0.57-0.03c-0.02-0.17-0.04-0.35-0.06-0.52c-0.05-0.44-0.11-0.89-0.17-1.36
					c-0.01-0.12-0.03-0.23-0.04-0.35c-0.02-0.12-0.04-0.24-0.06-0.36c-0.04-0.24-0.09-0.48-0.13-0.73c-0.09-0.49-0.18-1-0.28-1.52
					c-0.12-0.51-0.24-1.04-0.37-1.57c-0.06-0.27-0.13-0.54-0.19-0.81c-0.07-0.27-0.16-0.55-0.23-0.82c-0.16-0.55-0.32-1.1-0.48-1.66
					c-0.19-0.55-0.38-1.11-0.57-1.67c-0.1-0.28-0.19-0.56-0.3-0.84c-0.11-0.28-0.22-0.56-0.33-0.83c-0.11-0.28-0.22-0.56-0.33-0.84
					l-0.17-0.42l-0.18-0.41c-0.25-0.55-0.49-1.1-0.74-1.64c-0.26-0.54-0.53-1.07-0.79-1.59c-0.25-0.53-0.54-1.04-0.81-1.54
					c-0.28-0.5-0.54-1-0.83-1.47c-0.28-0.48-0.56-0.94-0.83-1.39c-0.28-0.44-0.55-0.88-0.82-1.29c-0.13-0.21-0.26-0.41-0.39-0.61
					c-0.13-0.2-0.26-0.39-0.39-0.58c-0.25-0.38-0.49-0.73-0.71-1.07c-0.47-0.67-0.88-1.25-1.22-1.73c-0.69-0.96-1.09-1.51-1.09-1.51
					l-0.26,0.16c0,0,0.39,0.55,1.07,1.52C194.65,153.83,195.05,154.41,195.51,155.08z"/>
				<path class="st35" d="M193.83,152.65c0,0-2.85-5.89-5.35-7.96c-2.53-2.1-6.61-2.76-9.11-1.19c0,0,1.29-0.85,3.33,0.27
					C184.73,144.88,191.64,150.71,193.83,152.65z"/>
				<path class="st35" d="M193.98,152.78c0,0-5.34-3.79-8.92-4.72c-3.61-0.93-8.54,0-11.67,3.38c0,0,0.84-3.1,4.81-4.18
					c4.05-1.1,7.82-0.18,9.59,0.7C189.56,148.82,191.93,150.38,193.98,152.78z"/>
				<path class="st37" d="M195.09,154.29c0,0-4.77-4.71-7.19-8.41c-2.47-3.79-5.38-5.46-6.19-9.42c0,0,0.96,2,3,3.77
					C186.73,141.97,194.31,147.55,195.09,154.29z"/>
			</g>
			<g>
				<path class="st36" d="M204.88,175.07c0.03,0.4,0.06,0.78,0.08,1.16c0.01,0.19,0.03,0.38,0.04,0.56
					c0.01,0.09,0.01,0.18,0.02,0.27c0.01,0.09,0.02,0.18,0.04,0.27c0.05,0.36,0.09,0.7,0.13,1.03c0.02,0.17,0.04,0.33,0.06,0.49
					c0.01,0.08,0.02,0.16,0.03,0.24c0.01,0.08,0.03,0.15,0.04,0.23c0.1,0.55,0.19,1.05,0.28,1.51c0.15-0.01,0.3-0.02,0.45-0.03
					c-0.09-0.46-0.19-0.97-0.3-1.53c-0.01-0.08-0.03-0.15-0.04-0.23c-0.01-0.08-0.02-0.15-0.03-0.24c-0.02-0.16-0.04-0.32-0.07-0.48
					c-0.04-0.33-0.09-0.67-0.14-1.02c-0.01-0.09-0.03-0.18-0.04-0.27c-0.01-0.09-0.02-0.18-0.02-0.28
					c-0.02-0.18-0.03-0.36-0.05-0.55c-0.03-0.37-0.06-0.76-0.09-1.15c-0.01-0.39-0.02-0.8-0.04-1.2c-0.01-0.2-0.01-0.41-0.02-0.62
					c0-0.21,0.01-0.42,0.01-0.63c0.01-0.42,0.02-0.85,0.03-1.27c0.03-0.43,0.06-0.86,0.09-1.3c0.02-0.22,0.03-0.43,0.06-0.65
					c0.03-0.22,0.05-0.43,0.08-0.65c0.03-0.21,0.05-0.43,0.08-0.65l0.04-0.32l0.05-0.32c0.07-0.43,0.14-0.86,0.22-1.29
					c0.08-0.42,0.18-0.84,0.27-1.26c0.08-0.42,0.19-0.82,0.29-1.23c0.1-0.4,0.2-0.79,0.31-1.17c0.11-0.38,0.22-0.75,0.33-1.11
					c0.12-0.36,0.23-0.71,0.34-1.04c0.06-0.17,0.11-0.33,0.16-0.49c0.06-0.16,0.11-0.31,0.17-0.47c0.11-0.3,0.21-0.6,0.31-0.87
					c0.21-0.54,0.39-1.02,0.54-1.41c0.31-0.79,0.49-1.24,0.49-1.24l-0.22-0.07c0,0-0.18,0.46-0.51,1.24
					c-0.15,0.39-0.34,0.87-0.55,1.42c-0.1,0.27-0.21,0.56-0.32,0.87c-0.06,0.15-0.11,0.31-0.17,0.47c-0.06,0.16-0.11,0.33-0.17,0.5
					c-0.11,0.34-0.23,0.68-0.35,1.05c-0.11,0.36-0.22,0.73-0.34,1.12c-0.12,0.38-0.22,0.78-0.33,1.18c-0.11,0.4-0.22,0.81-0.3,1.23
					c-0.09,0.41-0.19,0.83-0.28,1.26c-0.07,0.43-0.15,0.86-0.23,1.29l-0.06,0.33l-0.04,0.33c-0.03,0.22-0.06,0.44-0.08,0.66
					c-0.03,0.22-0.06,0.44-0.09,0.65c-0.03,0.22-0.04,0.44-0.06,0.66c-0.04,0.44-0.07,0.87-0.1,1.31c-0.01,0.43-0.03,0.86-0.04,1.28
					c-0.01,0.21-0.02,0.42-0.02,0.63c0.01,0.21,0.01,0.41,0.01,0.62C204.86,174.27,204.87,174.68,204.88,175.07z"/>
				<path class="st35" d="M208.82,156.53c0,0,0.95-4.59,2.36-6.42c1.43-1.85,4.26-2.94,6.39-2.23c0,0-1.11-0.4-2.37,0.7
					C213.94,149.67,210.04,154.83,208.82,156.53z"/>
				<path class="st35" d="M208.73,156.64c0,0,3.15-3.49,5.58-4.69c2.45-1.2,6.24-1.3,9.24,0.61c0,0-1.25-2.07-4.38-2.23
					c-3.18-0.15-5.74,1.08-6.86,1.96C211.19,153.18,209.77,154.64,208.73,156.64z"/>
				<path class="st37" d="M208.21,157.88c0,0,2.57-4.06,3.61-7.03c1.07-3.03,2.85-4.64,2.67-7.52c0,0-0.31,1.54-1.44,3.08
					C211.93,147.94,207.52,153,208.21,157.88z"/>
			</g>
			<g>
				<path class="st36" d="M195.92,148.35c0.15,0.3,0.37,0.74,0.62,1.3c0.13,0.28,0.25,0.6,0.39,0.95c0.07,0.17,0.14,0.35,0.21,0.54
					c0.07,0.19,0.14,0.38,0.21,0.58c0.3,0.8,0.57,1.71,0.86,2.69c0.13,0.49,0.26,1.01,0.4,1.54l0.05,0.2l0.02,0.05l0.01,0.05
					l0.02,0.1c0.03,0.13,0.06,0.27,0.09,0.41c0.06,0.28,0.12,0.56,0.18,0.84c0.06,0.28,0.12,0.57,0.19,0.85
					c0.05,0.29,0.11,0.58,0.16,0.87c0.11,0.59,0.22,1.18,0.33,1.78c0.21,1.2,0.43,2.44,0.63,3.68c0.2,1.23,0.4,2.48,0.6,3.71
					c0.2,1.23,0.4,2.44,0.6,3.63c0.09,0.59,0.2,1.17,0.31,1.74c0.05,0.29,0.1,0.57,0.15,0.85c0.06,0.28,0.11,0.55,0.17,0.83
					c0.06,0.27,0.11,0.55,0.17,0.81l0.04,0.2c0.01,0.03,0.01,0.06,0.02,0.1l0.02,0.1c0.03,0.13,0.07,0.26,0.1,0.39
					c0.13,0.52,0.25,1.02,0.38,1.51c0.2,0.77,0.41,1.47,0.6,2.15c0.24,0.02,0.49,0.04,0.74,0.05c-0.21-0.73-0.44-1.5-0.66-2.32
					c-0.14-0.48-0.26-0.99-0.39-1.5c-0.03-0.13-0.07-0.26-0.1-0.39l-0.02-0.1c-0.01-0.03-0.02-0.07-0.02-0.1l-0.04-0.2
					c-0.06-0.26-0.11-0.53-0.17-0.8c-0.06-0.27-0.11-0.54-0.17-0.83c-0.05-0.28-0.11-0.56-0.16-0.85c-0.11-0.57-0.22-1.15-0.32-1.74
					c-0.2-1.19-0.41-2.4-0.62-3.62c-0.21-1.23-0.42-2.47-0.63-3.71c-0.21-1.25-0.44-2.48-0.65-3.68c-0.12-0.6-0.23-1.2-0.35-1.79
					c-0.06-0.3-0.12-0.59-0.17-0.88c-0.07-0.29-0.13-0.57-0.19-0.85c-0.06-0.28-0.13-0.56-0.19-0.84c-0.03-0.13-0.06-0.27-0.09-0.41
					l-0.02-0.1l-0.01-0.06l-0.01-0.05l-0.05-0.2c-0.15-0.53-0.29-1.05-0.42-1.55c-0.31-1-0.59-1.91-0.89-2.72
					c-0.07-0.2-0.15-0.4-0.22-0.59c-0.07-0.19-0.15-0.37-0.22-0.55c-0.14-0.35-0.27-0.67-0.41-0.96c-0.26-0.58-0.48-1.02-0.64-1.33
					c-0.08-0.15-0.15-0.27-0.19-0.35c-0.04-0.08-0.07-0.12-0.07-0.12l-0.4,0.2c0,0,0.02,0.04,0.07,0.12
					C195.79,148.09,195.85,148.21,195.92,148.35z"/>
				<path class="st35" d="M196.78,149.81c-2.82-1.77-8.82-4.93-15.09-1.53c2.99-2.35,6.19-2.51,8.93-1.97
					C193.36,146.85,195.29,147.7,196.78,149.81z"/>
				<path class="st39" d="M189.71,146.16c1.96-0.22,5.43,0.61,7.07,3.65c-0.08-1.13-0.43-2.8-1.26-3.75
					C194.69,145.11,190.83,145.37,189.71,146.16z"/>
				<path class="st40" d="M195.52,146.07c0,0-1.47-1-3.13-0.13c-1.65,0.85-5.24,6.15-6.25,7.03c0.53-1.3,0.86-4.68,1.88-6.33
					C189.09,144.89,193.48,144.26,195.52,146.07z"/>
				<path class="st39" d="M196.37,143.74c0,0-0.42,1.03-0.2,3.02c0.23,1.97,0.74,3.54,1.37,4.63c-0.01-1.11,0.38-3.19,0.68-4.62
					c0.3-1.45,0.67-2.83,0.43-3.13C198.41,143.34,196.75,143.31,196.37,143.74z"/>
				<path class="st37" d="M196.37,143.74c0,0,0.48-0.32,0.8,0.2c0.32,0.52,1.1,4.99,1.76,6.69c0,0-0.11-1.77,0.2-3.03
					c0.32-1.26,0.64-3.36,0.55-3.72c-0.1-0.35-0.35-0.52-0.76-0.55c-0.4-0.03-1.64,0.07-1.91,0.08
					C196.74,143.43,196.52,143.47,196.37,143.74z"/>
			</g>
			<g>
				<path class="st36" d="M204.67,172.97c0.04,0.77,0.07,1.52,0.11,2.25c0.04,0.72,0.07,1.42,0.11,2.07
					c0.05,0.65,0.11,1.27,0.15,1.83c0.05,0.65,0.11,1.23,0.15,1.74c0.22-0.01,0.43-0.01,0.65-0.03c-0.06-0.51-0.12-1.09-0.18-1.75
					c-0.06-0.56-0.12-1.17-0.19-1.82c-0.05-0.65-0.09-1.35-0.14-2.06c-0.05-0.73-0.1-1.47-0.16-2.24c-0.06-0.77-0.07-1.56-0.1-2.35
					c-0.03-0.8-0.05-1.6-0.08-2.39c-0.02-0.4-0.01-0.79-0.01-1.19c0-0.39,0-0.78,0-1.17c0-0.39,0-0.77,0-1.14c0-0.19,0-0.37,0-0.55
					c0.01-0.18,0.01-0.37,0.02-0.54c0.03-0.72,0.05-1.4,0.08-2.03c0.01-0.32,0.03-0.62,0.05-0.91c0.02-0.29,0.04-0.57,0.06-0.83
					c0.02-0.26,0.04-0.5,0.05-0.73c0.02-0.22,0.04-0.43,0.06-0.62c0.04-0.37,0.07-0.67,0.09-0.87c0.03-0.2,0.04-0.31,0.04-0.31
					l-0.19-0.02c0,0-0.02,0.11-0.05,0.31c-0.03,0.2-0.06,0.5-0.11,0.88c-0.02,0.19-0.05,0.39-0.07,0.62
					c-0.02,0.23-0.04,0.47-0.07,0.73c-0.02,0.26-0.05,0.54-0.08,0.83c-0.03,0.29-0.05,0.59-0.07,0.91
					c-0.04,0.63-0.07,1.32-0.11,2.04c-0.01,0.18-0.02,0.36-0.03,0.54c0,0.19-0.01,0.37-0.01,0.56c-0.01,0.37-0.02,0.75-0.03,1.14
					c-0.01,0.39-0.01,0.77-0.02,1.17c-0.01,0.4-0.02,0.79-0.01,1.19c0.01,0.8,0.02,1.6,0.03,2.4
					C204.63,171.4,204.62,172.19,204.67,172.97z"/>
				<path class="st35" d="M205.02,159.42c-2.19-4.64-4.95-12.68-1.15-21.55c-0.13,5.45,0.82,5.81,1.46,11.19
					C205.94,154.27,205.93,156.38,205.02,159.42z"/>
				<path class="st37" d="M205.11,159.09c0,0-0.09-9.25,1.25-13.12c1.37-3.97,2.19-7.63,2.11-9.12c0.46,3.95,0.88,6.91-0.14,10.75
					C207.33,151.36,206.8,155.52,205.11,159.09z"/>
			</g>
			<path class="st36" d="M208.4,158.91c0,0-0.02,0.01-0.06,0.04c-0.04,0.03-0.11,0.06-0.19,0.12c-0.15,0.11-0.36,0.27-0.6,0.49
				c-0.12,0.11-0.23,0.24-0.36,0.38c-0.07,0.07-0.13,0.15-0.2,0.22c-0.06,0.08-0.12,0.16-0.19,0.25c-0.28,0.34-0.52,0.75-0.8,1.2
				c-0.23,0.46-0.51,0.95-0.71,1.5c-0.1,0.27-0.23,0.55-0.33,0.83c-0.09,0.29-0.18,0.58-0.28,0.88c-0.05,0.15-0.1,0.29-0.14,0.45
				c-0.04,0.15-0.07,0.3-0.11,0.46c-0.07,0.31-0.15,0.62-0.22,0.93c-0.13,0.63-0.22,1.26-0.33,1.89c-0.08,0.63-0.14,1.26-0.2,1.88
				c-0.04,0.31-0.04,0.61-0.06,0.91c-0.01,0.3-0.03,0.6-0.04,0.89c-0.01,0.29-0.03,0.58-0.03,0.86c0,0.28,0,0.55,0,0.81
				c0,0.53,0.01,1.02,0.01,1.48c0.01,0.46,0.04,0.87,0.06,1.24c0.02,0.37,0.04,0.69,0.06,0.95c0.03,0.52,0.04,0.82,0.04,0.82
				l0.97-0.07c0,0-0.02-0.29-0.06-0.81c-0.02-0.26-0.05-0.57-0.07-0.93c-0.02-0.36-0.07-0.77-0.09-1.22
				c-0.01-0.45-0.03-0.94-0.04-1.46c-0.01-0.26-0.02-0.53-0.03-0.8c0-0.27,0.01-0.56,0.02-0.84c0.01-0.29,0.01-0.58,0.02-0.88
				c0.01-0.3,0.01-0.6,0.04-0.9c0.05-0.61,0.1-1.23,0.16-1.85c0.09-0.62,0.17-1.25,0.29-1.86c0.06-0.3,0.13-0.61,0.2-0.91
				c0.03-0.15,0.07-0.3,0.1-0.45c0.04-0.15,0.08-0.29,0.13-0.44c0.09-0.29,0.17-0.57,0.25-0.85c0.08-0.28,0.2-0.54,0.3-0.81
				c0.18-0.53,0.44-1,0.65-1.46c0.25-0.43,0.48-0.82,0.73-1.15c0.06-0.08,0.12-0.16,0.17-0.24c0.06-0.07,0.12-0.14,0.18-0.2
				c0.12-0.13,0.22-0.26,0.33-0.36c0.21-0.21,0.39-0.36,0.51-0.45c0.06-0.04,0.11-0.07,0.13-0.09c0.04-0.02,0.06-0.04,0.06-0.04
				L208.4,158.91z"/>
			<g>
				<path class="st38" d="M206.94,160.31c0,0,2.07-3.28,6.26-4.41c5.96-1.61,10.06-0.19,13.15,4.61c-3.22-3.63-5.53-4.05-8.73-4.02
					C212.25,156.54,208.06,159.69,206.94,160.31z"/>
				<g>
					<path class="st35" d="M206.52,160.69c0,0-0.15,0.24-0.3,0.67c0,0,1.08-1.05,2.35-1.69c1.28-0.63,3.87-1.14,5.71-0.77
						C211.97,158.21,208.3,158.41,206.52,160.69z"/>
					<path class="st37" d="M206.52,160.69c0,0,1.72-2.26,5.08-1.83c3.35,0.43,7.46,5.44,9.54,6.54c-1.5-3.09-3.33-6.06-5.2-6.79
						c-1.88-0.73-3.26-0.86-5.19-0.43C208.83,158.59,207.53,159.28,206.52,160.69z"/>
				</g>
				<path class="st35" d="M204.35,167.08c0,0,0.86-2.43,0.21-6.02c-0.66-3.62-1.44-4.77-1.44-4.77S200.98,161.75,204.35,167.08z"/>
				<path class="st35" d="M204.56,167.04c0,0,1.68-2.24,2.86-3.2c1.2-0.97,3.12-2.22,5.5-1.78c0,0-1.68-1.18-4.57,0.09
					C205.42,163.44,204.72,165.2,204.56,167.04z"/>
				<g>
					<path class="st35" d="M205.31,161.61c0,0-0.45,0.54,0.04,1.54c0.24-0.73,1.35-1.54,2.65-1.8
						C207.47,161.27,206.41,161.18,205.31,161.61z"/>
					<path class="st37" d="M205.31,161.61c0.43-0.23,1.89-0.65,2.81-0.53c0.93,0.12,2,1.4,2.04,3.37
						C208.36,162.46,206.99,161.57,205.31,161.61z"/>
				</g>
			</g>
		</g>
	</g>
	<g>
		<g class="st25">
			<path class="st2" d="M153.83,113.43l-28.64-16.54c-0.12-0.07-0.23-0.09-0.35-0.07c0.25-0.04,0.5-0.08,0.75-0.12
				c0.11-0.02,0.23,0,0.35,0.07l28.64,16.54c0.34,0.19,0.52,0.7,0.4,1.13l-5.7,21.52c-0.07,0.28-0.26,0.46-0.47,0.5l-0.75,0.13
				c0.21-0.04,0.4-0.22,0.47-0.5l5.7-21.52C154.35,114.13,154.17,113.62,153.83,113.43z"/>
			<path class="st1" d="M118.67,118.84l5.7-21.52c0.11-0.43,0.48-0.62,0.82-0.42l28.64,16.54c0.34,0.19,0.52,0.7,0.4,1.13
				l-5.7,21.52c-0.11,0.43-0.48,0.62-0.82,0.43l-28.64-16.54C118.74,119.77,118.56,119.27,118.67,118.84z"/>
			<g>
				
					<linearGradient id="SVGID_6_" gradientUnits="userSpaceOnUse" x1="3769.7261" y1="-116.352" x2="3788.9497" y2="-87.9603" gradientTransform="matrix(-1 0 0 1 4063.6016 0)">
					<stop  offset="0" style="stop-color:#C7E1F8"/>
					<stop  offset="1" style="stop-color:#90AFF8"/>
				</linearGradient>
				<polygon class="st41" points="124.97,97.75 119.79,117.32 148.41,133.84 153.59,114.28 				"/>
			</g>
			<polygon class="st13" points="138.22,127.96 119.79,117.32 124.97,97.75 132.91,102.33 			"/>
		</g>
		<g>
			<path class="st42" d="M147.93,136.39l-16.75,9.73c-0.33,0.19-0.88,0.19-1.22,0l-28.64-16.54c-0.17-0.1-0.25-0.23-0.25-0.36
				l0,1.23c0,0.13,0.08,0.26,0.25,0.35l28.64,16.54c0.34,0.19,0.88,0.19,1.22,0l16.75-9.73c0.16-0.1,0.25-0.22,0.25-0.35l0-1.23
				C148.17,136.17,148.09,136.3,147.93,136.39z"/>
			<path class="st6" d="M147.93,136.39l-16.75,9.73c-0.33,0.19-0.88,0.19-1.22,0l-28.64-16.54c-0.34-0.19-0.34-0.51,0-0.7
				l16.75-9.73c0.33-0.19,0.88-0.19,1.21,0l28.64,16.54C148.26,135.88,148.26,136.2,147.93,136.39z"/>
			<g>
				<path class="st2" d="M109.02,125.46l8.91-5.19c0.18-0.11,0.48-0.11,0.67,0l27.38,15.81c0.19,0.11,0.19,0.28,0,0.39l-8.91,5.19
					c-0.18,0.11-0.48,0.11-0.67,0l-27.38-15.81C108.84,125.74,108.84,125.56,109.02,125.46z"/>
				<path class="st42" d="M110.41,133.96l5.38-3.13c0.14-0.08,0.36-0.08,0.5,0l11.48,6.63c0.14,0.08,0.14,0.21,0,0.29l-5.39,3.13
					c-0.14,0.08-0.36,0.08-0.5,0l-11.48-6.63C110.27,134.17,110.27,134.04,110.41,133.96z"/>
			</g>
		</g>
	</g>
	<g class="st25">
		<g>
			<g>
				<path class="st43" d="M110.58,152.44c0,0,3.73-1.54,6.47,0.98c2.74,2.52,2.73,6.91,2.85,13.83c0.13,6.92,0.14,18.44,1.31,20.85
					c1.17,2.41,3.58,5.87,3.58,5.87l-1.85,1.54l-7.31-5.29c0,0,0.76-4.01,0.58-5.86c-0.19-1.84-4.59-14.05-5.77-19.3
					C109.26,159.8,108.5,156.82,110.58,152.44z"/>
				<path class="st44" d="M123.1,198.94c0,0-3.25-0.77-3.53-0.85c-0.28-0.09-0.54-0.4-0.71-0.75c-0.17-0.35-2.01-3.32-2.01-3.32
					s1.83-0.4,2.61-0.03C120.25,194.35,123.1,198.94,123.1,198.94z"/>
				<path class="st45" d="M115.86,188.83c0,0,1.98-0.28,3.4,1.02c1.42,1.29,3.63,3.9,4.03,3.97c0.4,0.06,1.11-0.42,1.11-0.42
					s2.32-0.24,3.2-0.2c0.88,0.04,1.5,0.61,1.14,1.45c-0.35,0.85-2.55,2.84-3.6,3.49c-1.05,0.65-1.87,1.09-2.27,0.66
					c-0.4-0.43-3.26-4.12-3.61-4.27c-0.34-0.15-1.2,0.61-1.12,1.58c0.08,0.97,0.55,3.96,0.65,4.21c0.1,0.24-0.37,0.68-0.96,0.78
					c-0.59,0.1-0.75-0.3-0.82-0.65c-0.07-0.35-0.58-3.04-1.15-4.73c-0.56-1.69-1.03-2.51-1.09-3.78
					C114.71,190.67,115.86,188.83,115.86,188.83z"/>
				
					<linearGradient id="SVGID_7_" gradientUnits="userSpaceOnUse" x1="2617.9263" y1="-171.6875" x2="2627.6477" y2="-173.0545" gradientTransform="matrix(-0.9794 0.2021 0.2021 0.9794 2720.45 -194.7386)">
					<stop  offset="0" style="stop-color:#F9CFBC"/>
					<stop  offset="1" style="stop-color:#F6B2A6"/>
				</linearGradient>
				<path class="st46" d="M117.05,153.42c2.74,2.52,2.73,6.91,2.85,13.83c0.04,2.16,0.07,4.77,0.12,7.41
					c-1.05,2.13-2.61,4.78-4.62,6.73c-1.36-4.44-4.09-12.37-4.98-16.33c-1.18-5.25-1.94-8.23,0.14-12.62
					C110.58,152.44,114.31,150.9,117.05,153.42z"/>
			</g>
			<g>
				<path class="st43" d="M119.03,156.29c0,0,4.03,0.2,5.44,3.64c1.4,3.45-0.48,7.41-3.31,13.73c-2.83,6.31-7.72,16.74-7.69,19.42
					c0.04,2.68,0.73,6.83,0.73,6.83l-2.33,0.6l-4.36-7.9c0,0,2.4-3.31,3.02-5.06c0.62-1.75,1.83-14.67,3-19.92
					C114.7,162.39,115.28,159.37,119.03,156.29z"/>
				
					<linearGradient id="SVGID_8_" gradientUnits="userSpaceOnUse" x1="3489.792" y1="669.3425" x2="3498.5295" y2="668.1138" gradientTransform="matrix(-0.9722 -0.2343 -0.2343 0.9722 3673.239 336.2404)">
					<stop  offset="0" style="stop-color:#F9CFBC"/>
					<stop  offset="1" style="stop-color:#F6B2A6"/>
				</linearGradient>
				<path class="st47" d="M124.47,159.93c0.26,0.63,0.4,1.27,0.45,1.94c-1.06,2.76-4.88,11.26-12.77,14.46
					c0.44-3.32,0.91-6.6,1.37-8.69c1.17-5.26,1.75-8.27,5.51-11.35C119.03,156.29,123.07,156.49,124.47,159.93z"/>
				<path class="st44" d="M110.56,203.69c0,0-2.61-2.08-2.83-2.28c-0.22-0.2-0.32-0.59-0.32-0.98c0-0.39-0.41-3.86-0.41-3.86
					s1.82,0.42,2.38,1.08C109.92,198.33,110.56,203.69,110.56,203.69z"/>
				<path class="st45" d="M108.31,191.47c0,0,1.91,0.59,2.65,2.37c0.74,1.78,1.62,5.08,1.95,5.31c0.33,0.22,1.19,0.09,1.19,0.09
					s2.2,0.77,2.97,1.18c0.78,0.41,1.1,1.19,0.42,1.8c-0.68,0.61-3.51,1.48-4.74,1.62c-1.22,0.14-2.16,0.19-2.34-0.37
					c-0.18-0.56-1.19-5.12-1.44-5.4c-0.25-0.28-1.34,0.04-1.69,0.95c-0.34,0.91-1.19,3.82-1.2,4.08c-0.02,0.26-0.62,0.46-1.2,0.3
					c-0.58-0.17-0.54-0.59-0.46-0.94c0.08-0.34,0.77-3,0.98-4.77c0.21-1.77,0.14-2.71,0.62-3.88
					C106.49,192.64,108.31,191.47,108.31,191.47z"/>
			</g>
		</g>
		<polygon class="st30" points="90.13,226.71 52.76,205 52.76,202.11 90.12,223.83 		"/>
		<path class="st29" d="M126.81,199.78l-2.11-20.64c-0.08-0.74-0.41-1.28-0.9-1.56l-37.37-21.72c0.49,0.28,0.82,0.82,0.9,1.56
			l2.1,20.64c0.08,0.74-0.11,1.58-0.53,2.35c-0.41,0.76-1.01,1.4-1.68,1.79l-34.48,19.91l37.37,21.72l34.48-19.91
			c0.67-0.39,1.27-1.03,1.68-1.79C126.7,201.36,126.88,200.53,126.81,199.78z"/>
		<path class="st48" d="M88.22,152.78c-1.03-0.6-2.44-0.52-3.95,0.36l-25.86,14.93c-0.81,0.47-1.59,0.49-2.16,0.16
			c12.46,7.24,24.91,14.48,37.37,21.71c0.57,0.33,1.35,0.31,2.16-0.16l25.86-14.93c1.52-0.88,2.93-0.95,3.95-0.36
			C113.13,167.26,100.68,160.02,88.22,152.78z"/>
		<g id="XMLID_1_">
			<g>
				<g class="st25">
					<defs>
						<path id="SVGID_9_" class="st25" d="M102.34,159.46c-0.26-0.15-0.74-0.42-1.3-0.64c-0.64-0.25-1.05-0.32-1.23-0.34
							c-0.31-0.03-0.6-0.05-1.04,0.05c-0.45,0.1-0.87,0.34-1.01,0.42c0.25-0.14,1.19,0.19,2.32,0.84
							C101,159.26,101.8,159.14,102.34,159.46z"/>
					</defs>
					<clipPath id="SVGID_10_">
						<use xlink:href="#SVGID_9_"  style="overflow:visible;"/>
					</clipPath>
					<g class="st49">
						<path class="st50" d="M102.34,159.46c-2.53-1.43-3.57-1.08-4.58-0.51c0.25-0.14,1.19,0.19,2.32,0.84
							C101,159.26,101.8,159.14,102.34,159.46"/>
						<path class="st50" d="M100,159.74c0.11,0.01,0.25-0.08,0.36-0.1c0.8-0.4,1.49-0.46,1.98-0.18c-0.06-0.04-0.15-0.09-0.22-0.12
							c-0.07-0.04-0.16-0.09-0.22-0.12l-0.21-0.11c-0.07-0.03-0.15-0.07-0.22-0.11l-0.21-0.09c-0.06-0.03-0.15-0.06-0.21-0.09
							l-0.21-0.08c-0.06-0.02-0.15-0.05-0.21-0.07l-0.2-0.06c-0.06-0.02-0.15-0.04-0.21-0.05l-0.19-0.04
							c-0.06-0.01-0.15-0.03-0.21-0.04l-0.19-0.02c-0.08,0-0.18-0.01-0.26-0.01l-0.2,0.01c-0.23,0.03-0.28,0.04-0.51,0.09l-0.2,0.06
							c-0.24,0.09-0.38,0.15-0.7,0.32C98.01,158.81,98.91,159.12,100,159.74"/>
						<path class="st51" d="M99.59,159.52c0.06,0,0.15-0.05,0.21-0.07c0.2-0.07,0.55-0.13,1.14-0.04c0.56-0.17,1.04-0.16,1.41,0.06
							c-0.06-0.04-0.15-0.09-0.22-0.12c-0.07-0.04-0.16-0.09-0.22-0.12l-0.21-0.11c-0.07-0.03-0.15-0.07-0.22-0.11l-0.21-0.09
							c-0.06-0.03-0.15-0.06-0.21-0.09l-0.21-0.08c-0.06-0.02-0.15-0.05-0.21-0.07l-0.2-0.06c-0.06-0.02-0.15-0.04-0.21-0.05
							l-0.19-0.04c-0.06-0.01-0.15-0.03-0.21-0.04l-0.19-0.02c-0.08,0-0.18-0.01-0.26-0.01l-0.2,0.01
							c-0.23,0.03-0.28,0.04-0.51,0.09l-0.2,0.06c-0.24,0.09-0.38,0.15-0.7,0.32C97.98,158.83,98.69,159.05,99.59,159.52"/>
						<path class="st52" d="M99.23,159.34c0.08,0,0.17-0.06,0.24-0.09c0.2-0.07,0.77-0.22,1.78,0.08c0.43-0.08,0.8-0.04,1.09,0.14
							c-0.06-0.04-0.15-0.09-0.22-0.12c-0.07-0.04-0.16-0.09-0.22-0.12l-0.21-0.11c-0.07-0.03-0.15-0.07-0.22-0.11l-0.21-0.09
							c-0.06-0.03-0.15-0.06-0.21-0.09l-0.21-0.08c-0.06-0.02-0.15-0.05-0.21-0.07l-0.2-0.06c-0.06-0.02-0.15-0.04-0.21-0.05
							l-0.19-0.04c-0.06-0.01-0.15-0.03-0.21-0.04l-0.19-0.02c-0.08,0-0.18-0.01-0.26-0.01l-0.2,0.01
							c-0.23,0.03-0.28,0.04-0.51,0.09l-0.2,0.06c-0.24,0.09-0.38,0.15-0.7,0.32C97.95,158.84,98.51,158.99,99.23,159.34"/>
						<path class="st53" d="M98.93,159.2c0.07,0,0.16-0.07,0.23-0.09c0.2-0.08,0.61-0.14,0.81-0.13c0.47,0.02,0.8,0.07,1.51,0.32
							c0.33-0.03,0.62,0.03,0.86,0.17c-0.06-0.04-0.15-0.09-0.22-0.12c-0.07-0.04-0.16-0.09-0.22-0.12l-0.21-0.11
							c-0.07-0.03-0.15-0.07-0.22-0.11l-0.21-0.09c-0.06-0.03-0.15-0.06-0.21-0.09l-0.21-0.08c-0.06-0.02-0.15-0.05-0.21-0.07
							l-0.2-0.06c-0.06-0.02-0.15-0.04-0.21-0.05l-0.19-0.04c-0.06-0.01-0.15-0.03-0.21-0.04l-0.19-0.02
							c-0.08,0-0.18-0.01-0.26-0.01l-0.2,0.01c-0.23,0.03-0.28,0.04-0.51,0.09l-0.2,0.06c-0.24,0.09-0.38,0.15-0.7,0.32
							C97.93,158.86,98.35,158.96,98.93,159.2"/>
						<path class="st54" d="M98.68,159.1c0.07,0,0.16-0.07,0.22-0.1c0.05-0.02,0.49-0.2,1.07-0.17c0.71,0.04,1.3,0.29,1.69,0.45
							c0.25,0.01,0.48,0.06,0.67,0.18c-0.06-0.04-0.15-0.09-0.22-0.12c-0.07-0.04-0.16-0.09-0.22-0.12l-0.21-0.11
							c-0.07-0.03-0.15-0.07-0.22-0.11l-0.21-0.09c-0.06-0.03-0.15-0.06-0.21-0.09l-0.21-0.08c-0.06-0.02-0.15-0.05-0.21-0.07
							l-0.2-0.06c-0.06-0.02-0.15-0.04-0.21-0.05l-0.19-0.04c-0.06-0.01-0.15-0.03-0.21-0.04l-0.19-0.02
							c-0.08,0-0.18-0.01-0.26-0.01l-0.2,0.01c-0.23,0.03-0.28,0.04-0.51,0.09l-0.2,0.06c-0.24,0.09-0.38,0.15-0.7,0.32
							C97.9,158.87,98.23,158.93,98.68,159.1"/>
						<path class="st55" d="M98.49,159.03c0.07,0,0.15-0.07,0.21-0.1c0.25-0.12,0.68-0.25,1.3-0.2c0.73,0.06,1.52,0.42,1.82,0.56
							c0.19,0.02,0.36,0.07,0.51,0.16c-0.06-0.04-0.15-0.09-0.22-0.12c-0.07-0.04-0.16-0.09-0.22-0.12l-0.21-0.11
							c-0.07-0.03-0.15-0.07-0.22-0.11l-0.21-0.09c-0.06-0.03-0.15-0.06-0.21-0.09l-0.21-0.08c-0.06-0.02-0.15-0.05-0.21-0.07
							l-0.2-0.06c-0.06-0.02-0.15-0.04-0.21-0.05l-0.19-0.04c-0.06-0.01-0.15-0.03-0.21-0.04l-0.19-0.02
							c-0.08,0-0.18-0.01-0.26-0.01l-0.2,0.01c-0.23,0.03-0.28,0.04-0.51,0.09l-0.2,0.06c-0.24,0.09-0.38,0.15-0.7,0.32
							C97.88,158.88,98.14,158.92,98.49,159.03"/>
						<path class="st56" d="M98.34,158.99c0.07-0.01,0.14-0.07,0.21-0.1c0.28-0.14,0.76-0.29,1.4-0.23c0.84,0.08,1.7,0.5,2.03,0.66
							c0.14,0.03,0.26,0.08,0.37,0.14c-0.06-0.04-0.15-0.09-0.22-0.12c-0.07-0.04-0.16-0.09-0.22-0.12l-0.21-0.11
							c-0.07-0.03-0.15-0.07-0.22-0.11l-0.21-0.09c-0.06-0.03-0.15-0.06-0.21-0.09l-0.21-0.08c-0.06-0.02-0.15-0.05-0.21-0.07
							l-0.2-0.06c-0.06-0.02-0.15-0.04-0.21-0.05l-0.19-0.04c-0.06-0.01-0.15-0.03-0.21-0.04l-0.19-0.02
							c-0.08,0-0.18-0.01-0.26-0.01l-0.2,0.01c-0.23,0.03-0.28,0.04-0.51,0.09l-0.2,0.06c-0.24,0.09-0.38,0.15-0.7,0.32
							C97.86,158.89,98.06,158.91,98.34,158.99"/>
						<path class="st57" d="M98.22,158.96c0.07-0.01,0.14-0.07,0.2-0.1c0.42-0.21,0.96-0.31,1.41-0.27
							c0.49,0.05,1.15,0.18,2.27,0.76c0.09,0.03,0.17,0.06,0.24,0.11c-0.06-0.04-0.15-0.09-0.22-0.12
							c-0.07-0.04-0.16-0.09-0.22-0.12l-0.21-0.11c-0.07-0.03-0.15-0.07-0.22-0.11l-0.21-0.09c-0.06-0.03-0.15-0.06-0.21-0.09
							l-0.21-0.08c-0.06-0.02-0.15-0.05-0.21-0.07l-0.2-0.06c-0.06-0.02-0.15-0.04-0.21-0.05l-0.19-0.04
							c-0.06-0.01-0.15-0.03-0.21-0.04l-0.19-0.02c-0.08,0-0.18-0.01-0.26-0.01l-0.2,0.01c-0.23,0.03-0.28,0.04-0.51,0.09l-0.2,0.06
							c-0.24,0.09-0.38,0.15-0.7,0.32C97.85,158.9,98.01,158.91,98.22,158.96"/>
						<path class="st58" d="M98.12,158.94c0.02-0.01,0.03-0.02,0.04-0.03c0.58-0.31,1.14-0.43,1.72-0.36c0.99,0.11,2,0.67,2.33,0.85
							c0.04,0.02,0.09,0.04,0.13,0.07c-0.06-0.04-0.15-0.09-0.22-0.12c-0.07-0.04-0.16-0.09-0.22-0.12l-0.21-0.11
							c-0.07-0.03-0.15-0.07-0.22-0.11l-0.21-0.09c-0.06-0.03-0.15-0.06-0.21-0.09l-0.21-0.08c-0.06-0.02-0.15-0.05-0.21-0.07
							l-0.2-0.06c-0.06-0.02-0.15-0.04-0.21-0.05l-0.19-0.04c-0.06-0.01-0.15-0.03-0.21-0.04l-0.19-0.02
							c-0.08,0-0.18-0.01-0.26-0.01l-0.2,0.01c-0.23,0.03-0.28,0.04-0.51,0.09l-0.2,0.06c-0.24,0.09-0.38,0.15-0.7,0.32
							C97.84,158.91,97.96,158.91,98.12,158.94"/>
						<path class="st59" d="M98.04,158.92c0.06-0.01,0.13-0.07,0.19-0.1c0.78-0.41,1.47-0.33,1.69-0.3
							c0.36,0.04,1.16,0.22,2.39,0.92l-0.2-0.11c-0.07-0.04-0.16-0.09-0.22-0.12l-0.21-0.11c-0.07-0.03-0.15-0.07-0.22-0.11
							l-0.21-0.09c-0.06-0.03-0.15-0.06-0.21-0.09l-0.21-0.08c-0.06-0.02-0.15-0.05-0.21-0.07l-0.2-0.06
							c-0.06-0.02-0.15-0.04-0.21-0.05l-0.19-0.04c-0.06-0.01-0.15-0.03-0.21-0.04l-0.19-0.02c-0.08,0-0.18-0.01-0.26-0.01
							l-0.2,0.01c-0.23,0.03-0.28,0.04-0.51,0.09l-0.2,0.06c-0.24,0.09-0.38,0.15-0.7,0.32C97.82,158.92,97.92,158.91,98.04,158.92"
							/>
						<path class="st60" d="M97.98,158.92c0.06-0.01,0.13-0.07,0.19-0.1c0.17-0.09,0.61-0.3,1.15-0.34
							c0.53-0.04,1.05,0.11,1.43,0.24c-0.1-0.03-0.23-0.07-0.33-0.1c-0.06-0.02-0.15-0.04-0.21-0.05l-0.19-0.04
							c-0.06-0.01-0.15-0.03-0.21-0.04l-0.19-0.02c-0.08,0-0.18-0.01-0.26-0.01l-0.2,0.01c-0.23,0.03-0.28,0.04-0.51,0.09l-0.2,0.06
							c-0.24,0.09-0.38,0.15-0.7,0.32C97.82,158.92,97.89,158.91,97.98,158.92"/>
						<path class="st61" d="M97.93,158.92c0.06-0.01,0.13-0.07,0.19-0.1c0.39-0.21,0.76-0.28,0.92-0.32
							c0.14-0.03,0.45-0.07,0.91,0.01c-0.1-0.01-0.23-0.03-0.33-0.04c-0.08,0-0.18-0.01-0.26-0.01l-0.2,0.01
							c-0.23,0.03-0.28,0.04-0.51,0.09l-0.2,0.06c-0.24,0.09-0.38,0.15-0.7,0.32C97.8,158.93,97.86,158.92,97.93,158.92"/>
						<path class="st62" d="M97.89,158.92c0.06-0.02,0.13-0.07,0.19-0.1c0.29-0.16,0.59-0.24,0.72-0.28
							c0.11-0.03,0.36-0.09,0.7-0.08c-0.1,0-0.23,0-0.33,0.01c-0.23,0.03-0.28,0.04-0.51,0.09l-0.2,0.06
							c-0.24,0.09-0.38,0.15-0.7,0.32C97.8,158.93,97.84,158.92,97.89,158.92"/>
						<path class="st63" d="M97.85,158.92c0.06-0.02,0.13-0.07,0.18-0.1c0,0,0.2-0.1,0.48-0.21c0.03-0.01,0.28-0.1,0.56-0.14
							l-0.19,0.03c-0.07,0.02-0.16,0.04-0.23,0.06l-0.2,0.06c-0.24,0.09-0.38,0.15-0.7,0.32C97.79,158.94,97.82,158.93,97.85,158.92
							"/>
						<path class="st64" d="M97.82,158.93c0.06-0.02,0.13-0.07,0.18-0.1c0.13-0.07,0.4-0.2,0.77-0.3c-0.1,0.02-0.22,0.06-0.32,0.09
							c-0.24,0.09-0.38,0.15-0.7,0.32C97.78,158.94,97.8,158.93,97.82,158.93"/>
						<path class="st65" d="M97.79,158.94c0.08-0.04,0.19-0.1,0.27-0.14c0.12-0.06,0.26-0.11,0.26-0.11l-0.2,0.09
							c-0.11,0.05-0.25,0.12-0.35,0.18C97.78,158.94,97.78,158.94,97.79,158.94"/>
						<path class="st66" d="M97.77,158.95c0.01-0.01,0.02-0.01,0.03-0.02C97.79,158.94,97.78,158.94,97.77,158.95L97.77,158.95"/>
					</g>
				</g>
				<g>
					<g>
						
							<linearGradient id="SVGID_11_" gradientUnits="userSpaceOnUse" x1="3081.6768" y1="129.5352" x2="3081.2935" y2="130.7763" gradientTransform="matrix(-1 0 0 1 3189.7793 0)">
							<stop  offset="0" style="stop-color:#FBDBC6"/>
							<stop  offset="1" style="stop-color:#F6B2A6"/>
						</linearGradient>
						<path class="st67" d="M105.47,130.61c0,0,1.11-0.8,1.44-1.01c0.32-0.21,0.71-0.4,1.08-0.44c0.38-0.04,1.46-0.17,1.77-0.25
							c0.31-0.08,0.93-0.34,1.03-0.25c0.1,0.09,0.03,1-0.9,1.31c-0.93,0.31-1.42,0.23-1.78,0.42c-0.36,0.18-1.72,1.25-1.72,1.25
							L105.47,130.61z"/>
						
							<linearGradient id="SVGID_12_" gradientUnits="userSpaceOnUse" x1="3080.3936" y1="130.0563" x2="3079.7913" y2="132.2646" gradientTransform="matrix(-1 0 0 1 3189.7793 0)">
							<stop  offset="0" style="stop-color:#FBDBC6"/>
							<stop  offset="1" style="stop-color:#F6B2A6"/>
						</linearGradient>
						<path class="st68" d="M106.36,130.81c0,0,1.47-0.78,1.83-0.97c0.36-0.2,0.78-0.36,1.18-0.37c0.4-0.01,1.56-0.04,1.9-0.11
							c0.33-0.06,1.01-0.28,1.11-0.17c0.1,0.1-0.05,1.06-1.07,1.31c-1.01,0.24-1.52,0.12-1.92,0.29c-0.4,0.16-1.92,1.17-1.92,1.17
							L106.36,130.81z"/>
						
							<linearGradient id="SVGID_13_" gradientUnits="userSpaceOnUse" x1="3079.4458" y1="130.5435" x2="3078.478" y2="133.2267" gradientTransform="matrix(-1 0 0 1 3189.7793 0)">
							<stop  offset="0" style="stop-color:#FBDBC6"/>
							<stop  offset="1" style="stop-color:#F6B2A6"/>
						</linearGradient>
						<path class="st69" d="M107.17,131.53c0,0,1.64-0.71,2.05-0.89c0.41-0.18,0.87-0.32,1.3-0.3c0.43,0.03,1.68,0.08,2.04,0.04
							c0.36-0.04,1.11-0.22,1.21-0.09c0.1,0.12-0.15,1.14-1.26,1.31c-1.11,0.18-1.64,0.01-2.08,0.15c-0.44,0.14-2.16,1.09-2.16,1.09
							L107.17,131.53z"/>
						<path class="st43" d="M85.56,134.25l1.19,3.03c0,0,3.73-0.96,5.81-1.31c2.08-0.36,8.02-1.95,9.2-2.63
							c1.18-0.68,3.5-2.56,3.71-2.73c0.22-0.16,0.78-0.58,1.04-0.44c1.45,0.79,2.53,2.72,2.7,3.44c-0.34,0.66-1.64,1.41-2.36,1.92
							c-0.71,0.51-2.38,0.84-3.48,0.84c-1.09,0-5.42,2.55-9.01,4.44c-3.59,1.89-7.75,3.56-9.28,4.08c-1.53,0.52-2.27,0.25-2.98-0.63
							c-0.71-0.88-2.6-4.68-3.34-7.01L85.56,134.25z"/>
						
							<linearGradient id="SVGID_14_" gradientUnits="userSpaceOnUse" x1="3102.5229" y1="138.6843" x2="3109.531" y2="137.6988" gradientTransform="matrix(-1 0 0 1 3189.7793 0)">
							<stop  offset="0" style="stop-color:#F9CFBC"/>
							<stop  offset="1" style="stop-color:#F6B2A6"/>
						</linearGradient>
						<path class="st70" d="M86.35,136.26c0,0-1.99,3.66-5.58,5.71c-0.75-1.49-1.58-3.36-2.01-4.72l6.81-3L86.35,136.26z"/>
						<path class="st43" d="M107.74,132.68c0,0,1.45-0.63,1.82-0.79c0.36-0.16,0.77-0.29,1.15-0.26c0.38,0.02,1.49,0.07,1.81,0.04
							c0.32-0.03,0.98-0.19,1.07-0.08c0.08,0.11-0.13,1.01-1.11,1.16c-0.98,0.15-1.46,0-1.85,0.13c-0.39,0.13-1.91,0.97-1.91,0.97
							L107.74,132.68z"/>
						
							<linearGradient id="SVGID_15_" gradientUnits="userSpaceOnUse" x1="3080.3389" y1="134.8099" x2="3083.2026" y2="134.4072" gradientTransform="matrix(-1 0 0 1 3189.7793 0)">
							<stop  offset="0" style="stop-color:#F9CFBC"/>
							<stop  offset="1" style="stop-color:#F6B2A6"/>
						</linearGradient>
						<path class="st71" d="M109.07,133.8c-0.44,0.59-1.51,1.22-2.17,1.69c-0.7-0.7-1.25-1.46-0.68-1.73
							C107.2,133.3,108.65,133.67,109.07,133.8z"/>
						<path class="st43" d="M105.33,136.09c0,0,1.47-0.15,2.37-0.16c0.9-0.01,1.18-0.1,1.57-0.27c0.39-0.17,0.94-0.74,1.23-0.86
							c0.29-0.12,0.96-0.31,0.94-0.54c-0.02-0.23-0.88-0.66-1.7-0.36c-0.82,0.3-1.02,0.48-1.39,0.41c-0.36-0.08-1.04-0.77-2.02-0.58
							C105.35,133.92,104.67,135.48,105.33,136.09z"/>
					</g>
					<path class="st72" d="M85.82,132.73c0,0,0.24,1.61,0.34,1.95c0.1,0.35-0.23,1.57-3.19,2.81c-2.96,1.24-4.22,0.78-4.38,0.57
						c-0.16-0.22-0.89-2.36-0.89-2.36L85.82,132.73z"/>
					<path class="st73" d="M79.79,119.26c3.05-0.36,4.3,3.29,4.96,6.46c0.66,3.18,0.99,4.49,1.53,5.01
						c0.55,0.52,0.19,2.03-0.25,2.52c-0.44,0.49-1.59,2.05-4.6,2.93c-3.01,0.88-6,0.47-6.27-0.74c-0.27-1.21,0.19-2.27,0-5.34
						C74.98,127.04,73.38,120.03,79.79,119.26z"/>
				</g>
				<g>
					<path class="st43" d="M90.32,94.35c3.2,0.83,4.88,3.3,5.48,6.13c0.73,3.49,0.42,3.74,0.89,5.75c0.48,2.01,0.6,3.05,0.27,5
						c-0.33,1.95-1.41,4.76-1.64,5.46c-0.24,0.69-0.49,0.97-1.59,0.91c-1.09-0.06-2.5-0.51-2.75-0.57
						c-0.26-0.05-0.44,0.53-0.44,0.97c0,0.44,0.2,4.7,0.2,4.7H80.47c0,0,1.09-4.16,0.33-7.48c-0.77-3.31-4.03-4.99-4.38-11.23
						C76.06,97.71,79.93,91.65,90.32,94.35z"/>
					
						<linearGradient id="SVGID_16_" gradientUnits="userSpaceOnUse" x1="3097.9927" y1="121.9399" x2="3108.1506" y2="115.4508" gradientTransform="matrix(-1 0 0 1 3189.7793 0)">
						<stop  offset="0" style="stop-color:#F9CFBC"/>
						<stop  offset="1" style="stop-color:#F6B2A6"/>
					</linearGradient>
					<path class="st74" d="M79.63,112.61H89.7c1.18,3.06,4.02,4.99,4.92,4.93c-0.21,0.07-0.49,0.09-0.89,0.07
						c-1.09-0.06-2.5-0.51-2.75-0.57c-0.26-0.05-0.44,0.53-0.44,0.97c0,0.44,0.2,4.7,0.2,4.7H80.47c0,0,1.09-4.16,0.33-7.48
						C80.58,114.27,80.14,113.45,79.63,112.61z"/>
					<path class="st75" d="M82.61,93.36c2.14-0.39,5.42-0.19,7.58,0c2.16,0.19,2.42,0.86,3.33,1.55c0.9,0.68,2.17,9.77-3.27,13.49
						c-0.47,4.05-1.37,8.21-1.53,8.43c-0.16,0.22-3.96,1.25-7.78-0.91c-1.77-3.04-5.5-5.67-5.85-12.13
						C74.7,96.75,79.16,93.99,82.61,93.36z"/>
					<path class="st43" d="M91.15,108.99c0,0-0.34-2.29-1.64-2.55c-1.3-0.26-1.85,1.55-1.71,2.82c0.14,1.27,1.4,3.12,1.9,3.34
						C90.21,112.83,91.51,111.43,91.15,108.99z"/>
					<path class="st76" d="M89.5,111.6c0,0.3,0.16,0.55,0.37,0.55c0.2,0,0.37-0.25,0.37-0.55c0-0.3-0.17-0.55-0.37-0.55
						C89.66,111.05,89.5,111.3,89.5,111.6z"/>
					<path class="st77" d="M92.58,105.6c0,0-0.99,3.85,0,6.3c0,0-2.26-1.77-2.1-5.31L92.58,105.6z"/>
					<path class="st75" d="M90.19,93.36c0,0,4.52-0.08,5.26,0c0.73,0.08,2.77,4.35,2.01,9.03c0,0-0.73-0.6-0.83-1.02
						c-0.22,3.18-2.96,6.78-3.09,6.59c-0.13-0.19-0.16-1.27-0.16-1.27s-2.8,3.33-3.66,2.84c-0.86-0.48-0.7-5-0.7-5
						s-1.11,0.86-1.24,0.51C87.65,104.68,87.1,98.91,90.19,93.36z"/>
				</g>
				<g>
					<path class="st45" d="M97.39,155.14c0,0,11.99-2.52,12.83-2.66c0.84-0.15,2.37-0.07,4.67,1.33c2.3,1.41,8.07,4.51,9.15,9.62
						c1.07,5.11,0.13,5.62-0.97,6.43c-1.09,0.8-12.3,6.2-18,8.87c-5.69,2.66-13.93,4.85-21.46,1.19c-6.36-3.09-7.84-7.12-7.59-14.1
						c0.22-6.32,0.32-10.42,0.61-14.4L97.39,155.14z"/>
					<path class="st78" d="M97.61,155.47c0,0-0.95,4.07-8.79,4.48c-7.83,0.41-13.06-5.45-13.06-5.45l0.54-2.22L97.61,155.47z"/>
					<path class="st44" d="M96.51,154.98l0.88,0.16c0,0,11.99-2.52,12.83-2.66c0.84-0.15,2.37-0.07,4.67,1.33
						c0.85,0.52,2.17,1.27,3.56,2.27c-2.46,0.68-10.28,2.82-12.81,3.37C102.62,160.11,98.8,160.08,96.51,154.98z"/>
					<path class="st79" d="M90.99,122.49c0,0,4.3,4.33,6.16,6.55c1.86,2.22,2.97,6.98,2.51,9.94c-0.47,2.96-0.89,4.49-1.3,7.7
						c-0.41,3.21,0.03,4.68,0.33,5.29c0.3,0.6,0.13,2.98-1.15,4.02c-1.29,1.04-4.1,2.66-11.58,1.78c-7.47-0.88-9.39-4.57-9.83-5.31
						c-0.44-0.74-0.47-1.28-0.16-2.11c0.3-0.82,0.71-1.04,0.47-3.31c-0.25-2.27-2.92-12.56-2.88-18.15
						c0.04-5.58,3.73-9.55,6.9-10.35c0.76,0.37,2.53,1.59,4.82,2.54C87.55,122.01,90.99,122.49,90.99,122.49z"/>
					<path class="st80" d="M100.03,141.57c-0.65,1.58-1.41,3.07-1.67,5.1c-0.41,3.21,0.03,4.68,0.33,5.29
						c0.3,0.6,0.13,2.98-1.15,4.02c-1.29,1.04-4.1,2.66-11.58,1.78c-0.42-0.05-0.82-0.11-1.21-0.17c3.65-8.24,4.95-21.7,4.95-21.7
						L100.03,141.57z"/>
				</g>
				<g>
					<g>
						
							<linearGradient id="SVGID_17_" gradientUnits="userSpaceOnUse" x1="3068.7957" y1="140.5012" x2="3071.293" y2="140.15" gradientTransform="matrix(-1 0 0 1 3189.7793 0)">
							<stop  offset="0" style="stop-color:#F9CFBC"/>
							<stop  offset="1" style="stop-color:#F6B2A6"/>
						</linearGradient>
						<path class="st81" d="M117.55,142.88c0,0,0.45-1.41,0.64-2.29c0.19-0.88,0.34-1.14,0.59-1.48c0.25-0.34,0.92-0.77,1.1-1.03
							c0.18-0.26,0.51-0.88,0.72-0.81c0.22,0.07,0.47,1,0,1.74c-0.46,0.74-0.68,0.9-0.68,1.27c0,0.37,0.53,1.18,0.15,2.09
							C119.68,143.3,118.01,143.64,117.55,142.88z"/>
						<path class="st43" d="M100.4,144.08l1.19,3.03c0,0,3.72-0.96,5.8-1.31c2.08-0.36,8.02-1.95,9.2-2.63
							c1.18-0.68,3.2-3.81,3.42-3.97c0.22-0.16,0.77-0.58,1.04-0.44c1.45,0.79,2.82,3.97,2.99,4.68c-0.34,0.66-1.64,1.41-2.36,1.92
							c-0.71,0.51-2.38,0.84-3.48,0.84c-1.09,0-5.42,2.55-9.01,4.44c-3.59,1.89-7.75,3.56-9.28,4.08c-1.53,0.52-2.27,0.25-2.99-0.63
							c-0.71-0.88-2.6-4.68-3.34-7.01L100.4,144.08z"/>
						<g>
							<path class="st82" d="M116.66,144.76c0,0,0.32,0.96,0.29,1.83l-0.98,0.53c0,0-0.13-1.14-0.54-1.94L116.66,144.76z"/>
							<path class="st83" d="M114.04,144.57c0.09,0.54,0.83,0.86,1.64,0.72c0.81-0.14,1.39-0.69,1.3-1.23
								c-0.09-0.54-0.83-0.86-1.64-0.72C114.53,143.47,113.95,144.03,114.04,144.57z"/>
							<path class="st84" d="M114.3,144.42c0.08,0.44,0.68,0.71,1.34,0.59c0.67-0.11,1.14-0.57,1.07-1.01
								c-0.08-0.44-0.68-0.71-1.34-0.6C114.7,143.52,114.22,143.98,114.3,144.42z"/>
						</g>
						
							<linearGradient id="SVGID_18_" gradientUnits="userSpaceOnUse" x1="3087.6897" y1="148.517" x2="3094.698" y2="147.5314" gradientTransform="matrix(-1 0 0 1 3189.7793 0)">
							<stop  offset="0" style="stop-color:#F9CFBC"/>
							<stop  offset="1" style="stop-color:#F6B2A6"/>
						</linearGradient>
						<path class="st85" d="M101.19,146.1c0,0-1.99,3.66-5.58,5.71c-0.75-1.49-1.58-3.36-2.01-4.72l6.81-3L101.19,146.1z"/>
						<path class="st43" d="M120.66,138.79c0,0,1.41-0.73,1.76-0.91c0.35-0.18,0.75-0.34,1.13-0.34c0.38,0,1.49-0.02,1.81-0.08
							c0.32-0.05,0.97-0.26,1.06-0.16c0.09,0.1-0.06,1.01-1.03,1.23c-0.97,0.22-1.45,0.1-1.84,0.25c-0.38,0.15-1.84,1.09-1.84,1.09
							L120.66,138.79z"/>
						<path class="st43" d="M121.51,139.87c0,0,1.64-0.71,2.05-0.89c0.41-0.18,0.87-0.32,1.3-0.29c0.43,0.03,1.68,0.08,2.04,0.04
							c0.37-0.04,1.11-0.22,1.21-0.1c0.09,0.12-0.15,1.14-1.25,1.31c-1.11,0.17-1.64,0.01-2.09,0.15c-0.44,0.14-2.16,1.09-2.16,1.09
							L121.51,139.87z"/>
						<path class="st43" d="M122.36,141.2c0,0,1.59-0.51,1.98-0.64c0.39-0.13,0.83-0.22,1.23-0.16c0.4,0.07,1.54,0.23,1.88,0.22
							c0.34,0,1.05-0.1,1.12,0.02c0.08,0.12-0.24,1.04-1.28,1.1c-1.04,0.06-1.52-0.14-1.94-0.06c-0.42,0.09-2.1,0.81-2.1,0.81
							L122.36,141.2z"/>
						<path class="st43" d="M122.24,142.58c0,0,1.53-0.35,1.91-0.44c0.38-0.09,0.8-0.14,1.17-0.05c0.37,0.09,1.43,0.34,1.76,0.36
							c0.32,0.02,0.99-0.01,1.05,0.11c0.06,0.12-0.31,0.96-1.29,0.93c-0.98-0.02-1.42-0.25-1.82-0.2c-0.41,0.05-2.03,0.6-2.03,0.6
							L122.24,142.58z"/>
					</g>
				</g>
				<path class="st79" d="M97.15,129.04c0.82,0.83,3.09,10.43,3.32,11.75c0.22,1.32,0.95,3.17,1,3.79c0.05,0.62,0,1.31,0,1.31
					s0.64-0.24,0.94-0.11c0.3,0.13,0.54,0.37,0.54,0.37s3.74-0.64,4.06-0.67c0.32-0.03,0.78,0.25,0.78,0.25s1.06,1.31,1.03,5.12
					c0,0,0.04,0.53-0.76,0.85c-0.79,0.32-3.33,1.32-3.33,1.32s-0.32,1.1-1.07,1.18c-0.75,0.08-0.64-0.54-1.85,0.45
					c-1.21,0.99-2.01,1.38-3.71,1.45c-1.7,0.07-2.07-0.41-2.42-1.43c-0.35-1.02-1.26-2.23-2.1-3.95c-0.85-1.72-4.41-9.45-3.9-14.82
					C90.21,130.51,95.6,127.45,97.15,129.04z"/>
				<path class="st75" d="M75.06,102.5c-0.33,4.58-0.81,9.35-1.81,13.23c-1,3.88-2.03,12.04,4.84,14.82
					c6.88,2.78,13.52,1.15,15.3-3.69c3.18-8.61-1.64-13.49-0.82-19.7v-4.66H75.06z"/>
			</g>
			<g>
				<rect x="89.86" y="102.97" class="st86" width="1.18" height="2.98"/>
				<path class="st77" d="M94.75,109.52c0.03,2.74-1.61,4.96-3.66,4.96s-3.73-2.22-3.76-4.96c-0.03-2.74,1.61-4.96,3.66-4.96
					C93.04,104.56,94.72,106.78,94.75,109.52z"/>
				<path class="st87" d="M94.49,109.42c0.02,2.55-1.31,4.62-2.96,4.62c-1.66,0-3.02-2.07-3.04-4.62c-0.02-2.55,1.31-4.62,2.96-4.62
					C93.11,104.8,94.47,106.87,94.49,109.42z"/>
				<path class="st77" d="M80.71,93.99c2.28-0.33,8.04,2.45,8.26,9.63c0.01,0.38,0.19,0.57,0.43,0.49c0.25-0.07,1.4-0.38,1.79-0.51
					c0.38-0.12,0.38-0.39,0.37-0.62c-0.01-0.22-0.42-8.93-6.62-10.19c0,0-0.52-0.07-1.06-0.05c-0.54,0.02-2.44,0.47-2.8,0.6
					S80.69,93.59,80.71,93.99z"/>
			</g>
		</g>
		<path class="st88" d="M89.02,152.24l3.69,36.13c0.17,1.62,1.57,2.28,3.06,1.42l25.86-14.93c2.8-1.62,5.25-0.5,5.56,2.54
			l2.11,20.64c0.16,1.52-0.25,3.27-1.15,4.95c-0.89,1.66-2.15,3.02-3.54,3.83l-34.48,19.91l-0.01-2.88l34.48-19.91
			c0.67-0.39,1.27-1.03,1.68-1.79c0.42-0.77,0.6-1.61,0.53-2.35l-2.11-20.64c-0.17-1.62-1.57-2.27-3.06-1.41l-25.86,14.93
			c-2.81,1.62-5.25,0.5-5.56-2.54L86.53,154L89.02,152.24z"/>
		<path class="st30" d="M90.22,190.12L86.53,154l-37.37-21.72l3.69,36.13c0.14,1.4,0.74,2.39,1.61,2.9l37.37,21.72
			C90.96,192.52,90.36,191.52,90.22,190.12z"/>
		<polygon class="st89" points="86.53,154 49.16,132.28 51.66,130.53 89.02,152.24 		"/>
	</g>
</g>
</svg>
