<svg id="Layer_1" data-name="Layer 1" xmlns="http://www.w3.org/2000/svg" viewBox="0 0 612 395.31"><defs><style>.cls-1{fill:#b99785;}.cls-2{fill:#fadcc7;}.cls-3{fill:#e7cab7;}.cls-4{fill:#728486;}.cls-5{fill:#37586a;}.cls-6{fill:#40657e;}.cls-7{fill:#d5e0e6;}.cls-8{fill:#25385a;}.cls-9{fill:#ebf7ff;}.cls-10{fill:#3b3b3b;}.cls-11{fill:#939598;}.cls-12{fill:#cddce3;}.cls-13{fill:#c1cfd4;}.cls-14{fill:#95a0a6;}.cls-15{fill:#f54394;}.cls-16{fill:#f9cfb3;}.cls-17{fill:#373232;}.cls-18{fill:#e4f4ff;}.cls-19{fill:#2c383e;}.cls-20{fill:#594a42;}.cls-21{fill:#0f2e4f;}.cls-22{fill:#12c2e9;}.cls-23{fill:#d1eaf2;}.cls-24{fill:#838587;}</style></defs><title>dieuhanh</title><g id="_9" data-name="9"><polygon class="cls-1" points="318.68 125.77 318.76 127.39 319.44 140.76 300.55 157.94 293.94 151.9 283.23 142.1 282.4 125.67 318.68 125.77"/><path class="cls-2" d="M297.76,75.21c2.15.58,5.05-2.18,6.43-3.31a29.29,29.29,0,0,1,8.4-4.78,11.48,11.48,0,0,1,6.94-.71c3.35,1,5.55,4.32,6.18,7.74,1.26,7-2.24,14.19-1.12,21.17.15,1,.42,3.19,2,2.12.65-.44.23-1.64.92-2.17,1.53-1.17,2.27.7,2.4,1.83a23.75,23.75,0,0,1-1.71,12.2c-1,2.17-2.52,2.86-4,4.47-1.63,1.78-1.18,5.09-1.71,7.25a12.06,12.06,0,0,1-1.79,4c-1.78,2.54-5,3.85-7.09,6.18s-3.72,4.37-6.46,5.86c-1.65.89-4,1-6.19,1l-.85.07L296.9,75C297.18,75.08,297.49,75.13,297.76,75.21Z"/><path class="cls-3" d="M268,100.24c0-1.14.55-3.07,2.19-2.06.74.46.45,1.69,1.14,2.06,1.66.91,1.7-1.32,1.75-2.31.22-3.76-1.77-7.25-1.47-11,.27-3.39-.07-6.88,1-10.2A12.67,12.67,0,0,1,278,69.7a10.55,10.55,0,0,1,8.09-1.09,11.63,11.63,0,0,1,5.62,3.88c1.74,2,2.55,1.93,5.2,2.52l3.2,63.16a12.17,12.17,0,0,1-5.4-.48c-2.88-1.2-4.87-3.19-7-5.17s-5.65-3.09-7.69-5.44a12.12,12.12,0,0,1-2.18-3.8c-.74-2.08-.63-5.43-2.44-7-1.62-1.45-3.2-2-4.42-4A23.69,23.69,0,0,1,268,100.24Z"/><path class="cls-4" d="M328,92.3a28.84,28.84,0,0,0-.77,6.87l-2.89.15c-.05-.57-.05-1.1-.05-1.43a34.53,34.53,0,0,0-.28-4.31c-.71-6.71,1.7-28.84-12.09-21.87-2,1-3.81,2.47-5.79,3.58a20.06,20.06,0,0,1-18.82.19c-3.22-1.71-8.36-5.67-11.74-2-2.2,2.38-1.37,8.63-1.55,11.54a80.18,80.18,0,0,0-.34,11.82c.14,1.67.57,3.28.62,5-4.44,1.66-3.49-3.26-4.35-5.83a45.07,45.07,0,0,1-2-12.52c-.23-4.27-1.74-8.94-.39-13.19,2.64-8.33,13.82-12.94,21.59-14.67A51.48,51.48,0,0,1,315,56.64c3.39,1,8.62,2.67,11,5.49s2.65,8.11,3.31,11.75C330.41,80,329.29,86.34,328,92.3Z"/><path class="cls-5" d="M249.56,165.69c.21,8.4.66,16.8,1,25.2s.6,17,.37,25.45c-.21,7.86-2.06,15.75-2.21,23.53-.17,9.09-.76,27.06-1.65,45.43h48.08c.22-8.9.43-17.18.59-24,0,0,1.42-56.81.33-56.83,0,0,0,.09-.51,1.42-.17.5-.32.91-.32.91l0-.38-9.13-39.08-6.27-26.8s-.21.1-.64.26c-3.61,1.34-5.4,4.87-9.06,6.26-4,1.51-7.86,3.16-12.05,4-2.59.52-13.63,4-14.72,6.87C242.51,160.31,249.49,163.1,249.56,165.69Z"/><path class="cls-6" d="M294,285.3h51.57l1.55-2.47c-.35-8-1.11-16-1.63-24-.94-14.45-2.92-28.51-3.3-43,.44.4.85.84,1.29,1.24-2.67-20.39,1.9-41.81,4.07-62.11a112.36,112.36,0,0,0-12.27-4c-2.6-.75-5.62-3.13-8.15-3.49-5.06-.73-8.09,6.95-9.65,10.68-2.69,6.43-5.19,13-7.81,19.38-2.06,5-6.45,8.64-8,14.05-2.6,9.17-6.49,18.32-7.64,27.83-.75,6.29.66,12.12,1,18.33C295.22,239.88,294.56,263,294,285.3Z"/><path class="cls-7" d="M286.92,188.54A86.87,86.87,0,0,1,292.38,203c.79,2.56,1.48,6.52,4.42,6.84,3.63.4,6.83-6.11,8.47-8.74,2.43-3.89,4.59-7.9,7-11.77.29-3.91.08-8.69,1.46-12.39,1.12-3,3.46-4.52,3.2-8.19a6.55,6.55,0,0,0-3.43-5.46c-1.38-.66-3-.77-4.2-1.78a28.59,28.59,0,0,1-3.06-3.75c-1.27-1.48-3.66-4.84-5.91-4.84-4-.79-9.51,8-12.3,10.64-4.49,4.31-6.63,9-8.13,14.37A59.72,59.72,0,0,1,286.92,188.54Z"/><path class="cls-8" d="M287.8,194.07l7.63-27.9a3.93,3.93,0,0,0-.14-2.61l-1.88-4.27a.83.83,0,0,1,.21-.8c.91-1,1.83-2,2.75-3a9.16,9.16,0,0,0,1.76-2.16c.28-.6,1-2,1.76-1.47s.8,1.18,1.19,1.79a12,12,0,0,0,1.48,1.63l2.05,2.26a.69.69,0,0,1,.09.76L302.16,163a4.44,4.44,0,0,0-.54,2.66L305,192.27a.69.69,0,0,1-.07.39l-9.26,21.15a.73.73,0,0,1-.85.44A.52.52,0,0,1,294,214l-6.23-19.53A.68.68,0,0,1,287.8,194.07Z"/><path class="cls-9" d="M282.39,134.78l16.79,16.48a.67.67,0,0,0,.95-.08l19.08-18.89L327,146.43,312,172.23l-11.83-19.56a.68.68,0,0,0-1.15.1l-15.28,22.08-6.13-26.72Z"/><path class="cls-5" d="M337,159.11c-.41-1.9,0-6.53-2.55-9.42a34.38,34.38,0,0,0-10-7.88l-10.54,27.93-3.19,7.84-15.14,34.89-.48,28.06s7.91-22.81,14.57-36.17a144.68,144.68,0,0,1,25.14-35.6l-9.32-6.24Z"/><path class="cls-6" d="M265.26,158.71c.64-1.84.78-6.48,3.69-9a40.23,40.23,0,0,1,10.62-7.08l7.33,29.51,2.2,8.19,7.7,29.51L295.36,242s-3.56-20.94-8.52-35a144.63,144.63,0,0,0-20.56-38.43l10-5.05Z"/><path class="cls-10" d="M328.84,94.33l-.82-2s-9.07.09-13.46.23S305.13,94,303,96.65l-.06-.1a6.53,6.53,0,0,1-6.3.2l-.05.11c-2.27-2.52-7.47-3.52-11.77-3.38s-15.12,1.67-15.12,1.67l-.62,2.79,4.47,2.25a6.1,6.1,0,0,0,0,1.13c.63,5.65,6.43,8.42,11.84,8.25l.45,0a13.7,13.7,0,0,0,2.94-.5,12.89,12.89,0,0,0,8.65-7.94,4.39,4.39,0,0,0,.28-1.6,7.68,7.68,0,0,0,4.32-.14,4.4,4.4,0,0,0,.38,1.58,12.87,12.87,0,0,0,9.13,7.37,14.09,14.09,0,0,0,3,.32H315c5.41-.18,11-3.32,11.29-9a6.13,6.13,0,0,0-.06-1.14Zm-33.62,6a10.59,10.59,0,0,1-7.07,6.52,11.55,11.55,0,0,1-2.42.41l-.37,0c-4.31.13-8.91-2-9.4-6.22a3.27,3.27,0,0,1,.87-2.7c1.39-1.53,4.41-2.51,8.09-2.63,4.48-.14,8.7,1,10,2.76A1.8,1.8,0,0,1,295.22,100.35Zm19.71,6h-.37a11.61,11.61,0,0,1-2.44-.26,10.54,10.54,0,0,1-7.47-6,1.78,1.78,0,0,1,.14-1.85c1.22-1.83,5.36-3.25,9.84-3.4,3.67-.11,6.76.67,8.24,2.1a3.26,3.26,0,0,1,1,2.64C323.7,103.83,319.24,106.21,314.93,106.35Z"/><polygon class="cls-11" points="551.87 369.79 47.06 369.79 115.63 240.25 483.29 240.25 551.87 369.79"/><g id="_3" data-name="3"><path class="cls-5" d="M251.25,153.58c-4.74,1.85-11.29,3.27-14.46,7.64-4.32,5.94-6.89,15.85-8.62,22.87-4.1,16.7-8.35,32.6-11.28,49.74-.85,5,0,10.75.39,15.75a10.75,10.75,0,0,0,.91,4.21,11.15,11.15,0,0,0,3.66,3.6l30.68,21.92a7.28,7.28,0,0,0,3.21,1.58c1.6.2,3.13-.65,4.51-1.47l15.14-8.94c1.38-.81-13.07-14.58-14.34-15.64-6.35-5.29-7.25-7.1-7.59-15.92-.64-17.17,4.58-33.91,4.58-51,0-6.58-1.65-13-3.1-19.31a26.47,26.47,0,0,1-.93-8.25c.23-2.44,1.77-4.9,1.47-7.36a.79.79,0,0,0-.27-.6.93.93,0,0,0-.84,0Z"/><path class="cls-6" d="M380.78,248.36c2-6.85-.79-13-2.74-20.34-5-18.74-10.23-38.17-14.51-56.61-1.77-7.62-7.39-16.34-16.07-16.25-6,.06-3.14,6.77-3.35,10.79-.47,8.67-1.44,17.31-1.91,26-.23,4.35.12,9.16-.31,13.35-1.17,11.71,3.23,23.24,5.76,34.51.8,3.52,1.57,7.12,1.07,10.69-.94,6.63-6.27,14.54-10.37,19.71-1.05,1.38,5.79,5.55,6.62,6,6.48,3.51,16.18-3.79,20.44-8.12,5-5.14,11.27-10.5,14.38-17.13A17.92,17.92,0,0,0,380.78,248.36Z"/></g><g id="_7" data-name="7"><path class="cls-12" d="M276.19,231.66l.37,14.5c0,1.33,1.43,2.41,3.12,2.41h29.94L279,229.18C277.39,229.31,276.16,230.35,276.19,231.66Z"/><path class="cls-13" d="M310.38,248.57c1.69,0,3.09-1.08,3.12-2.41l.38-14.5c0-1.39-1.35-2.53-3.09-2.53H279.27a2.93,2.93,0,0,0-.29.05l30.64,19.39Z"/><path class="cls-14" d="M277.33,154.77c-.05,0,0,0,0,0S277.42,154.76,277.33,154.77Z"/><path class="cls-15" d="M363.91,195.77a10.44,10.44,0,0,0-9.6-6.48H235.74a10.45,10.45,0,0,0-9.55,6.48l.07,0-.07,0a14,14,0,0,0-.71,2,13.54,13.54,0,0,0-.38,4.71l6.33,69.66a11.71,11.71,0,0,0,11.39,10.59H347.24a11.49,11.49,0,0,0,9.07-4.64v0a11.8,11.8,0,0,0,2.32-5.94L365,202.51A13.33,13.33,0,0,0,363.91,195.77Zm-50.4,50.4c0,1.34-1.43,2.41-3.13,2.41h-30.7c-1.69,0-3.09-1.08-3.12-2.41l-.37-14.5c0-1.31,1.2-2.35,2.79-2.48l-.16-.13.18.11c.09,0,.18,0,.27,0h31.52c1.74,0,3.12,1.16,3.07,2.54Z"/></g><path class="cls-16" d="M233.41,207.54c-.12-1.64-1-4.4-3.17-2.77-1,.74-.45,2.5-1.34,3.11-2.16,1.47-2.43-1.76-2.6-3.19-.65-5.43,1.71-10.7,1-16-1-7.43-10.17-16.61-16.76-19a33.62,33.62,0,0,0-21.77.23,33.6,33.6,0,0,0-21.77.52c-6.5,2.63-11.28,12.05-12.06,19.51-.56,5.36,2,10.54,1.52,16-.12,1.43-.27,4.67-2.48,3.27-.92-.58-.47-2.35-1.46-3.06-3.81-2.7-2.75,5.16-2.36,6.5,1.6,5.44,3.69,12,8.67,15.3,1.43.95,4.59,1.46,5.46,2.37,2.22,2.32,5.9,15.82,5.82,19.14l-.46,21.87,26.09,23.14,8-9.4,13.74-15.26c-.22-12.54-5.6-27.88,4.2-38.21C229.43,223.4,234.22,219.59,233.41,207.54Z"/><path class="cls-17" d="M150.12,201.11c.66,2.79,1.31,5.69,1.78,8.82,1.36,8.94,9.29,14.17,13.27,22.11,1.85,3.71,6,7.85,6.91,11.82,5.75-2.11,2.3-3.22,7.09.88,3,2.56,13,2.11,16.62.9,2.28-.78,3.14-3.37,5.73-3.78s5.22,1.7,7.91,1.54c-.59,0,5.36-1.23,4.3-.75,7.53-3.44,13.4-16.78,15.89-24,1.68-4.83,4.81-8.77,6.49-13.52s1.43-10.42,2-15.37c2.67-22.54-.22-44.72-29.19-49-13.27-2-28.67-2.4-41.2,2.83-10.62,4.43-17.09,15.48-20.58,25.93S148,192.05,150.12,201.11Z"/><path class="cls-18" d="M217,263.09l-16.4,3.32a44.23,44.23,0,0,1-16.34.2l-15.19-2.7-4.95,15.37,10.66,33.22,38.19-.66,9.51-33.56Z"/><path class="cls-19" d="M307.81,395.5c-5-24.54-12-68.92-14.52-73.88-5.59-11-14.88-29.2-15.61-29.68s-27.15-8-44.09-12.81l-13.14-3.7-.81-.23-52.8.9-.78.26-13,4.15c-16.77,5.4-42.91,13.83-43.61,14.32s-9.37,19-14.57,30.17c-2.46,5.27-8,47.76-11.21,70.5Z"/><path class="cls-16" d="M448.09,215.34c-.11-1.49-.95-4-2.88-2.52-.87.67-.41,2.27-1.22,2.83-2,1.34-2.21-1.6-2.36-2.91-.59-4.93,1.56-9.73.88-14.58-.94-6.76-9.25-15.1-15.24-17.3a30.56,30.56,0,0,0-19.81.21,30.58,30.58,0,0,0-19.8.47c-5.92,2.4-10.27,11-11,17.75-.51,4.88,1.79,9.59,1.38,14.55-.12,1.3-.25,4.25-2.26,3-.83-.53-.43-2.15-1.33-2.79-3.46-2.46-2.5,4.69-2.15,5.91,1.46,4.95,3.37,10.89,7.89,13.92,1.3.87,4.18,1.33,5,2.16,2,2.11,5.36,14.39,5.3,17.41l-.42,19.9,23.73,21,7.31-8.55,12.49-13.88c-.2-11.4-5.09-25.37,3.82-34.76C444.47,229.77,448.84,226.3,448.09,215.34Z"/><path class="cls-20" d="M372.33,209.49c.59,2.53,1.19,5.17,1.62,8,1.23,8.13,8.45,12.88,12.06,20.1,1.7,3.38,5.48,7.15,6.29,10.76,5.24-1.92,2.09-2.93,6.45.8,2.71,2.33,11.87,1.92,15.12.82,2.08-.71,2.86-3.06,5.21-3.44s4.75,1.54,7.2,1.4c-.54,0,4.88-1.12,3.91-.68,6.85-3.13,12.19-15.27,14.46-21.81,1.53-4.4,4.37-8,5.9-12.31s1.3-9.47,1.83-14c2.43-20.52-.2-40.69-26.55-44.61-12.08-1.79-26.09-2.18-37.49,2.58-9.65,4-15.54,14.07-18.72,23.58S370.37,201.24,372.33,209.49Z"/><path class="cls-18" d="M433.17,265.87l-14.93,3a39.93,39.93,0,0,1-14.86.18l-13.82-2.45-4.5,14,9.69,30.21,34.75-.59,8.65-30.53Z"/><path class="cls-21" d="M518.41,395.5c-4.76-24.15-13.2-71.16-15.84-76.38-5.08-10-13.54-26.57-14.2-27s-24.7-7.27-40.11-11.65l-11.95-3.37-.74-.21-48,.82-.72.23L375,281.73c-15.25,4.91-39,12.57-39.67,13s-8.52,17.26-13.26,27.45c-2,4.4-4.19,48.48-4.95,73.31Z"/><path class="cls-22" d="M524.26,106.48c-35.68,0-64.6,22.58-64.6,50.43,0,10.45,4.06,20.15,11,28.2a63.31,63.31,0,0,0,26.23,17.51l-12.34,30,35.94-25.35c1.23.06,2.48.09,3.74.09,35.67,0,64.59-22.58,64.59-50.43S559.93,106.48,524.26,106.48Z"/><path class="cls-23" d="M405.5-.19c-35.67,0-64.59,22.57-64.59,50.42,0,10.45,4.07,20.15,11,28.2a63.21,63.21,0,0,0,26.23,17.51l-12.34,30,35.94-25.34c1.24,0,2.48.08,3.73.08,35.68,0,64.6-22.58,64.6-50.43S441.18-.19,405.5-.19Z"/><path class="cls-15" d="M88.16,89.13c35.91,0,65,22.72,65,50.75,0,10.51-4.09,20.27-11.11,28.37a63.52,63.52,0,0,1-26.39,17.63l12.42,30.17L91.92,190.54c-1.24.06-2.5.09-3.76.09-35.9,0-65-22.72-65-50.75S52.26,89.13,88.16,89.13Z"/><path class="cls-24" d="M120.59,395.5H269.75l11.11-65.09a16.84,16.84,0,0,0-16.6-19.68H126.07a16.84,16.84,0,0,0-16.6,19.68Z"/><path class="cls-24" d="M338.86,395.5H487.71l11.27-66a16.85,16.85,0,0,0-16.6-19.68H344.18a16.85,16.85,0,0,0-16.6,19.68Z"/></g><path class="cls-22" d="M296.52,232.4a.16.16,0,0,0-.16.16v2.51a.16.16,0,0,0,.16.16h.36a.16.16,0,0,1,.16.16V246.6a.16.16,0,0,0,.16.16h2.51a.16.16,0,0,0,.16-.16V234.83a2.43,2.43,0,0,0-2.44-2.43Z"/><path class="cls-15" d="M291.07,235.23h4.82a.16.16,0,0,0,.16-.16v-2.51a.16.16,0,0,0-.16-.16h-6a1.8,1.8,0,0,0-1.8,1.79V246.6a.16.16,0,0,0,.16.16h.24a2.43,2.43,0,0,0,2.43-2.44v-3.95a.17.17,0,0,1,.17-.16h4.82a.16.16,0,0,0,.16-.16v-2.51a.16.16,0,0,0-.16-.16h-5v-2A.17.17,0,0,1,291.07,235.23Z"/><path class="cls-22" d="M304.54,233.82h-1.1a.16.16,0,0,1-.16-.16v-1.1a.16.16,0,0,0-.16-.16H302a.16.16,0,0,0-.16.16v1.1a.17.17,0,0,1-.17.16H300.6a.17.17,0,0,0-.17.16v1.1a.17.17,0,0,0,.17.16h1.09a.17.17,0,0,1,.17.16v1.1a.16.16,0,0,0,.16.16h1.1a.16.16,0,0,0,.16-.16v-1.1a.16.16,0,0,1,.16-.16h1.1a.16.16,0,0,0,.16-.16V234A.16.16,0,0,0,304.54,233.82Z"/></svg>