<?xml version="1.0" encoding="utf-8"?>
<!-- Generator: Adobe Illustrator 24.0.1, SVG Export Plug-In . SVG Version: 6.00 Build 0)  -->
<svg version="1.1" id="Layer_1" xmlns="http://www.w3.org/2000/svg" xmlns:xlink="http://www.w3.org/1999/xlink" x="0px" y="0px"
	 viewBox="0 0 120 40" style="enable-background:new 0 0 120 40;" xml:space="preserve">
<style type="text/css">
	.st0{fill:none;}
	.st1{fill:#12C2E9;}
	.st2{fill:#FFFFFF;stroke:#FFFFFF;stroke-width:0.1514;stroke-miterlimit:10;}
	.st3{fill:#FFFFFF;}
	.st4{fill:url(#SVGID_1_);}
	.st5{fill:url(#SVGID_2_);}
	.st6{fill:url(#SVGID_3_);}
	.st7{fill:url(#SVGID_4_);}
	.st8{opacity:0.2;enable-background:new    ;}
	.st9{opacity:0.12;enable-background:new    ;}
	.st10{opacity:0.25;fill:#FFFFFF;enable-background:new    ;}
</style>
<title>fil_get</title>
<path class="st0" d="M1.3-2.7h117.3v45.4H1.3V-2.7z"/>
<path class="st1" d="M4.4,0h111.1c2.5,0,4.4,2.2,4.4,5v30c0,2.8-2,5-4.4,5H4.4C2,40,0,37.8,0,35V5C0,2.2,2,0,4.4,0z"/>
<path class="st2" d="M44.8,12.6c0,0.6-0.2,1.1-0.6,1.5c-0.4,0.5-1,0.7-1.7,0.7c-1.3,0-2.4-1.1-2.4-2.4c0-0.6,0.3-1.2,0.7-1.7
	c0.4-0.4,1-0.7,1.7-0.7c0.3,0,0.6,0.1,0.9,0.2c0.3,0.1,0.5,0.3,0.7,0.5l-0.4,0.4c-0.3-0.4-0.8-0.6-1.2-0.5c-1,0-1.8,0.8-1.8,1.7
	c0,0,0,0,0,0.1c0,1,0.8,1.8,1.8,1.8c0.5,0,0.9-0.2,1.3-0.5c0.2-0.3,0.4-0.6,0.4-0.9h-1.6v-0.5h2.2C44.8,12.4,44.8,12.5,44.8,12.6z
	 M48.3,10.7h-2v1.4h1.9v0.5h-1.9V14h2v0.6h-2.6v-4.5h2.6V10.7z M50.8,14.7h-0.6v-4h-1.3v-0.6h3.2v0.6h-1.3
	C50.8,10.7,50.8,14.7,50.8,14.7z M54.3,14.7v-4.5h0.6v4.5H54.3z M57.4,14.7h-0.6v-4h-1.3v-0.6h3.1v0.6h-1.3L57.4,14.7z M64.6,14.1
	c-0.9,0.9-2.4,0.9-3.3,0c-0.9-0.9-0.9-2.4,0-3.4c0.9-0.9,2.4-0.9,3.3,0l0,0C65.5,11.7,65.5,13.2,64.6,14.1z M61.7,13.7
	c0.7,0.7,1.8,0.7,2.5,0s0.7-1.9,0-2.6c-0.7-0.7-1.8-0.7-2.5,0C61.1,11.9,61.1,13,61.7,13.7z M66.1,14.7v-4.5h0.7l2.2,3.5v-3.5h0.6
	v4.5H69L66.7,11v3.7H66.1z"/>
<path class="st3" d="M60.5,21.3c-1.8,0-3.2,1.5-3.2,3.2c0,1.8,1.5,3.2,3.2,3.2c1.8,0,3.2-1.4,3.2-3.2c0-1.8-1.4-3.2-3.1-3.2
	C60.6,21.3,60.5,21.3,60.5,21.3z M60.5,26.5c-1.1,0.1-2-0.7-2.1-1.8c-0.1-1.1,0.7-2,1.8-2.1s2,0.7,2.1,1.8v0.1
	C62.4,25.6,61.6,26.4,60.5,26.5L60.5,26.5z M53.4,21.3c-1.8,0-3.2,1.4-3.2,3.2c0,1.8,1.4,3.2,3.2,3.2s3.2-1.4,3.2-3.2
	C56.7,22.8,55.3,21.3,53.4,21.3C53.5,21.3,53.5,21.3,53.4,21.3L53.4,21.3z M53.4,26.5c-1.1,0.1-2-0.7-2.1-1.8
	c-0.1-1.1,0.7-2,1.8-2.1s2,0.7,2.1,1.8v0.1C55.3,25.6,54.5,26.4,53.4,26.5C53.5,26.5,53.4,26.5,53.4,26.5L53.4,26.5z M45,22.3v1.4
	h3.3c-0.1,0.6-0.3,1.2-0.8,1.7c-0.7,0.7-1.6,1-2.5,1c-2,0-3.6-1.6-3.6-3.6s1.6-3.6,3.6-3.6c0.9,0,1.8,0.3,2.5,1l1-1
	c-0.9-0.9-2.1-1.4-3.4-1.4c-2.8-0.1-5.1,2-5.2,4.8c-0.1,2.8,2,5.1,4.8,5.2c0.1,0,0.3,0,0.4,0c1.3,0.1,2.6-0.5,3.5-1.4
	c0.8-0.9,1.2-2,1.2-3.2c0-0.3,0-0.6-0.1-0.9H45z M79.3,23.4c-0.4-1.2-1.5-2-2.8-2.1c-1.7,0-3,1.3-3,3c0,0.1,0,0.1,0,0.2
	c0,1.7,1.3,3.2,3.1,3.2h0.1c1.1,0,2.1-0.5,2.7-1.4l-1.1-0.8c-0.3,0.6-0.9,0.9-1.6,0.9s-1.3-0.4-1.6-1l4.3-1.8L79.3,23.4z M74.9,24.5
	c-0.1-1,0.7-1.8,1.6-1.9l0,0c0.5,0,1,0.2,1.2,0.7L74.9,24.5z M71.5,27.6h1.4v-9.5h-1.4V27.6z M69.1,22L69.1,22
	c-0.5-0.5-1.1-0.8-1.7-0.8c-1.8,0.1-3.2,1.6-3.1,3.4c0.1,1.7,1.4,3,3.1,3.1c0.6,0,1.3-0.3,1.7-0.8l0,0v0.5c0,1.2-0.7,1.9-1.7,1.9
	c-0.7,0-1.4-0.5-1.6-1.1l-1.2,0.5c0.5,1.2,1.6,1.9,2.9,1.9c1.7,0,3-1,3-3.4v-5.7h-1.3V22H69.1z M67.5,26.5c-1.1-0.1-1.9-1-1.8-2.1
	c0.1-0.9,0.8-1.7,1.8-1.8c1,0.1,1.8,0.9,1.7,1.9l0,0C69.3,25.5,68.6,26.4,67.5,26.5C67.6,26.5,67.5,26.5,67.5,26.5L67.5,26.5z
	 M86,18.1h-3.4v9.5H84V24h2c1.6,0.1,3-1.1,3.1-2.7s-1.1-3-2.7-3.1C86.3,18.1,86.1,18.1,86,18.1L86,18.1z M86,22.6h-2v-3.2h2
	c0.9,0,1.6,0.7,1.6,1.6S86.9,22.7,86,22.6L86,22.6z M94.7,21.3c-1.1-0.1-2,0.5-2.5,1.4l1.3,0.5c0.3-0.5,0.8-0.7,1.3-0.7
	c0.7-0.1,1.4,0.4,1.5,1.2l0,0v0.1c-0.5-0.2-1-0.4-1.5-0.4c-1.4,0-2.7,0.8-2.7,2.1c0.1,1.2,1.1,2.1,2.3,2.1c0,0,0,0,0.1,0
	c0.7,0.1,1.4-0.3,1.8-0.9l0,0v0.8h1.4v-3.6C97.6,22.3,96.3,21.3,94.7,21.3L94.7,21.3z M94.5,26.5c-0.5,0-1.1-0.2-1.1-0.8
	c0-0.8,0.8-1,1.5-1c0.4,0,0.9,0.1,1.3,0.3C96.1,25.8,95.4,26.5,94.5,26.5L94.5,26.5z M102.6,21.5l-1.6,4.1l0,0l-1.7-4.1h-1.5
	l2.5,5.7l-1.4,3.2h1.5l3.9-8.9C104.3,21.5,102.6,21.5,102.6,21.5z M89.8,27.6h1.4v-9.5h-1.4V27.6z"/>
<linearGradient id="SVGID_1_" gradientUnits="userSpaceOnUse" x1="25.4538" y1="-559.4961" x2="12.7543" y2="-572.1957" gradientTransform="matrix(1 0 0 -1 0 -548)">
	<stop  offset="0" style="stop-color:#00A0FF"/>
	<stop  offset="1.000000e-02" style="stop-color:#00A1FF"/>
	<stop  offset="0.26" style="stop-color:#00BEFF"/>
	<stop  offset="0.51" style="stop-color:#00D2FF"/>
	<stop  offset="0.76" style="stop-color:#00DFFF"/>
	<stop  offset="1" style="stop-color:#00E3FF"/>
</linearGradient>
<path class="st4" d="M16.8,10.6c-0.2,0.3-0.4,0.7-0.3,1.1v16.7c0,0.4,0.1,0.8,0.3,1.1l0.1,0.1l9.4-9.4V20L16.8,10.6L16.8,10.6z"/>
<linearGradient id="SVGID_2_" gradientUnits="userSpaceOnUse" x1="34.5177" y1="-568" x2="16.2102" y2="-568" gradientTransform="matrix(1 0 0 -1 0 -548)">
	<stop  offset="0" style="stop-color:#FFE000"/>
	<stop  offset="0.41" style="stop-color:#FFBD00"/>
	<stop  offset="0.78" style="stop-color:#FFA500"/>
	<stop  offset="1" style="stop-color:#FF9C00"/>
</linearGradient>
<path class="st5" d="M29.3,23.2l-3.1-3.1v-0.2l3.1-3.1h0.1l3.7,2.1c1.1,0.6,1.1,1.6,0,2.2L29.3,23.2L29.3,23.2z"/>
<linearGradient id="SVGID_3_" gradientUnits="userSpaceOnUse" x1="27.6828" y1="-569.7172" x2="10.4575" y2="-586.9349" gradientTransform="matrix(1 0 0 -1 0 -548)">
	<stop  offset="0" style="stop-color:#FF3A44"/>
	<stop  offset="1" style="stop-color:#C31162"/>
</linearGradient>
<path class="st6" d="M29.4,23.2L26.2,20l-9.4,9.4c0.4,0.4,1.1,0.4,1.6,0L29.4,23.2"/>
<linearGradient id="SVGID_4_" gradientUnits="userSpaceOnUse" x1="14.4195" y1="-553.0194" x2="22.1088" y2="-560.7088" gradientTransform="matrix(1 0 0 -1 0 -548)">
	<stop  offset="0" style="stop-color:#32A071"/>
	<stop  offset="7.000000e-02" style="stop-color:#2DA771"/>
	<stop  offset="0.48" style="stop-color:#15CF74"/>
	<stop  offset="0.8" style="stop-color:#06E775"/>
	<stop  offset="1" style="stop-color:#00F076"/>
</linearGradient>
<path class="st7" d="M29.4,16.8l-11.1-6.3c-0.5-0.4-1.1-0.3-1.6,0l9.4,9.4L29.4,16.8z"/>
<path class="st8" d="M29.3,23.1l-11,6.2c-0.4,0.3-1.1,0.3-1.5,0l-0.1,0.1l0.1,0.1c0.4,0.3,1.1,0.3,1.5,0L29.3,23.1L29.3,23.1z"/>
<path class="st9" d="M16.8,29.3c-0.2-0.3-0.4-0.7-0.3-1.1v0.1c0,0.4,0.1,0.8,0.3,1.1V29.3L16.8,29.3z M33.1,21l-3.8,2.1l0.1,0.1
	l3.7-2.1c0.4-0.2,0.7-0.6,0.8-1.1C33.8,20.4,33.5,20.8,33.1,21z"/>
<path class="st10" d="M18.4,10.6L33.1,19c0.4,0.2,0.7,0.6,0.8,1c0-0.5-0.3-0.9-0.8-1.1l-14.8-8.4c-1.1-0.6-1.9-0.1-1.9,1.1v0.1
	C16.5,10.5,17.3,10,18.4,10.6z"/>
</svg>
