<svg id="Layer_1" data-name="Layer 1" xmlns="http://www.w3.org/2000/svg" viewBox="0 0 80 80"><defs><style>.cls-1{fill:#203e76;}.cls-2{fill:#274c91;}.cls-3{fill:#f54394;}.cls-4{fill:#aa1a62;}.cls-5{fill:#07a9f0;}.cls-6{fill:#0ca6bf;}.cls-7{fill:#12c2e9;}.cls-8{fill:#c8d2dc;}.cls-9{fill:#dce6eb;}.cls-10{fill:#076d77;}.cls-11{fill:#40c1fa;}.cls-12{fill:#10888e;}.cls-13{fill:#fff;}</style></defs><title>increase</title><path class="cls-1" d="M79.86,40A39.86,39.86,0,1,1,40,.14,39.87,39.87,0,0,1,79.86,40Z"/><path class="cls-2" d="M76.51,40A34.19,34.19,0,1,1,42.33,5.82,34.18,34.18,0,0,1,76.51,40Z"/><path class="cls-3" d="M31.62,56.48A11.06,11.06,0,0,1,19.82,59a11.07,11.07,0,0,1,14.31-14.3A11.07,11.07,0,0,1,31.62,56.48ZM15.24,24a5.12,5.12,0,0,0-6.61,6.61A5.12,5.12,0,0,0,15.24,24Zm7.7,7.71a5.11,5.11,0,0,0-6.6,6.6,5.11,5.11,0,0,0,6.6-6.6ZM48.26,57.06a5.11,5.11,0,0,0-6.6,6.6,5.11,5.11,0,0,0,6.6-6.6ZM56,64.76a5.12,5.12,0,0,0-6.61,6.61A5.12,5.12,0,0,0,56,64.76Z"/><path class="cls-4" d="M32.88,53a8.45,8.45,0,0,1-9,1.92A8.46,8.46,0,0,1,34.79,44,8.44,8.44,0,0,1,32.88,53Z"/><path class="cls-5" d="M34.27,54.6a1.56,1.56,0,0,1-2.21,2.19l-10-10.08a1.56,1.56,0,1,1,2.21-2.19ZM23.49,36.91a1.55,1.55,0,0,0,0-2.2L20,31.19a1.56,1.56,0,1,0-2.2,2.2l3.52,3.52A1.55,1.55,0,0,0,23.49,36.91ZM12.26,23.48a1.56,1.56,0,1,0-2.2,2.2l3.53,3.53A1.56,1.56,0,0,0,15.79,27Zm33,33a1.56,1.56,0,1,0-2.2,2.2l3.52,3.52a1.56,1.56,0,0,0,2.2-2.2ZM56.52,67.74,53,64.21a1.56,1.56,0,0,0-2.21,2.2l3.53,3.53a1.56,1.56,0,1,0,2.2-2.2Z"/><path class="cls-6" d="M60.76,16.57,35.3,42a3.79,3.79,0,0,1-5.36,0L10.15,22.25a3.8,3.8,0,0,1,2.21-6.45l45.25-5.67a3.79,3.79,0,0,1,3.15,6.44Z"/><path class="cls-7" d="M69.87,22.39,64.2,67.64a3.8,3.8,0,0,1-6.45,2.21L38,50.06a3.79,3.79,0,0,1,0-5.36L63.43,19.24a3.79,3.79,0,0,1,6.44,3.15Z"/><path class="cls-8" d="M74.52,21.44,38.63,57.33a1.55,1.55,0,0,1-2.2,0L22.67,43.57a1.55,1.55,0,0,1,0-2.2L58.56,5.48C63.23.8,72.86-1.88,78,2,81.88,7.14,79.2,16.77,74.52,21.44Z"/><path class="cls-9" d="M74.51,21.45,38.62,57.34a1.55,1.55,0,0,1-2.2,0l-8.09-8.09a1.56,1.56,0,0,1,0-2.21L64.22,11.16C67.85,7.52,74.48,5.09,79.65,6,80.58,11.19,78.15,17.82,74.51,21.45Z"/><path class="cls-10" d="M75.18,14.11a1.56,1.56,0,0,1-2.58.6L65.29,7.4a1.56,1.56,0,0,1,.6-2.58c3.08-1,6.48-1.09,8.7.59C76.27,7.63,76.22,11,75.18,14.11Z"/><path class="cls-6" d="M75.17,14.12a1.55,1.55,0,0,1-2.57.59l-4.9-4.9a13.2,13.2,0,0,1,8.07-1.55,12,12,0,0,1-.6,5.86Z"/><path class="cls-6" d="M8.05,41.16,6.59,39.71a.31.31,0,0,1,0-.44l1.46-1.46a.31.31,0,0,1,.44,0l1.45,1.46a.31.31,0,0,1,0,.44L8.49,41.16A.3.3,0,0,1,8.05,41.16Zm34,35.17,1.45-1.46a.31.31,0,0,0,0-.44L42.06,73a.3.3,0,0,0-.44,0l-1.46,1.45a.31.31,0,0,0,0,.44l1.46,1.46A.31.31,0,0,0,42.06,76.33ZM10.2,69a.78.78,0,0,1,0-1.1l7-7a.78.78,0,0,1,1.1,1.1l-7,7A.78.78,0,0,1,10.2,69Zm.61-6.12,5.32-5.31a.78.78,0,1,0-1.1-1.1L9.71,61.73a.78.78,0,0,0,0,1.1A.77.77,0,0,0,10.81,62.83Zm6.61,6.61,5.31-5.31A.78.78,0,0,0,21.63,63l-5.31,5.32a.77.77,0,0,0,0,1.1A.78.78,0,0,0,17.42,69.44Z"/><path class="cls-5" d="M16.7,24.83a.77.77,0,0,1,0-1.1l7-7a.78.78,0,1,1,1.1,1.1l-7,7A.78.78,0,0,1,16.7,24.83Zm.61-6.12,5.31-5.31a.78.78,0,0,0-1.1-1.1l-5.31,5.31a.78.78,0,1,0,1.1,1.1Z"/><path class="cls-11" d="M54.86,63a.78.78,0,0,1,0-1.1l7-7A.78.78,0,0,1,63,56l-7,7A.78.78,0,0,1,54.86,63Zm7.22.49,5.31-5.31a.78.78,0,0,0-1.1-1.1L61,62.38a.78.78,0,0,0,1.1,1.1Z"/><path class="cls-10" d="M26,28.4a.78.78,0,0,1,0,1.1.8.8,0,0,1-1.11,0l-2.2-2.21a.78.78,0,0,1,1.1-1.1ZM26,24a.8.8,0,0,0-1.11,0,.78.78,0,0,0,0,1.1l2.21,2.2a.77.77,0,0,0,1.1,0,.78.78,0,0,0,0-1.1Zm6.6-2.2-2.2-2.2a.78.78,0,0,0-1.1,1.1l2.2,2.2a.77.77,0,0,0,1.1,0A.78.78,0,0,0,32.61,21.79Zm-4.4,0a.78.78,0,0,0-1.1,0,.77.77,0,0,0,0,1.1l2.2,2.2a.77.77,0,0,0,1.1,0,.78.78,0,0,0,0-1.1Z"/><path class="cls-12" d="M55.18,53.17a.78.78,0,0,1-1.1,1.1l-2.2-2.2A.78.78,0,1,1,53,51Zm4.41-4.4-2.2-2.2a.78.78,0,0,0-1.1,1.1l2.2,2.2a.78.78,0,1,0,1.1-1.1Zm-8.81,4.4a.78.78,0,0,0-1.1,1.1l2.2,2.2a.78.78,0,1,0,1.1-1.1Zm4.4-4.4a.77.77,0,0,0-1.1,0,.78.78,0,0,0,0,1.1l2.21,2.2a.77.77,0,0,0,1.1,0,.78.78,0,0,0,0-1.1Z"/><path class="cls-3" d="M71.65,26.72,50.84,47.53a.91.91,0,0,1-1,.21L25.08,38.41a.93.93,0,0,1-.33-1.53L45.56,16.07a.92.92,0,0,1,1-.21l24.77,9.33a.93.93,0,0,1,.33,1.53Z"/><path class="cls-4" d="M56,19.4,33.7,41.66l-8.62-3.25a.93.93,0,0,1-.33-1.53L45.56,16.07a.92.92,0,0,1,1-.21Z"/><path class="cls-3" d="M33.2,67.91l-1.46-1.46a.31.31,0,0,1,0-.44l1.46-1.45a.3.3,0,0,1,.44,0L35.09,66a.31.31,0,0,1,0,.44l-1.45,1.46A.31.31,0,0,1,33.2,67.91ZM76.13,44.82l1.46-1.45a.31.31,0,0,0,0-.44l-1.46-1.46a.31.31,0,0,0-.44,0l-1.45,1.46a.3.3,0,0,0,0,.44l1.45,1.45A.31.31,0,0,0,76.13,44.82ZM36.71,8l1.46-1.45a.31.31,0,0,0,0-.44L36.71,4.63a.31.31,0,0,0-.44,0L34.81,6.09a.31.31,0,0,0,0,.44L36.27,8A.3.3,0,0,0,36.71,8Z"/><path class="cls-13" d="M57.71,31.87c0,3.32-2.05,5.65-5,5.65a5.65,5.65,0,1,1,3.16-10.34A.78.78,0,1,1,55,28.47,4.09,4.09,0,1,0,52.72,36c2.19,0,3.16-1.65,3.38-3.31H54a.78.78,0,0,1,0-1.56h2.92a.78.78,0,0,1,.78.78ZM42.33,30.13a7,7,0,0,0-1,.07l.39-2.34h2.9a.78.78,0,1,0,0-1.56H41.06a.78.78,0,0,0-.77.66l-.71,4.25a.82.82,0,0,0,.31.76.78.78,0,0,0,.82.06l.08,0a3.22,3.22,0,0,1,1.54-.3,2.12,2.12,0,0,1,2.11,2.23,2.12,2.12,0,0,1-4.21.18,1.37,1.37,0,0,1,0-.29.78.78,0,0,0-1.56,0,4.36,4.36,0,0,0,0,.51,3.69,3.69,0,0,0,3.65,3.17h.07A3.69,3.69,0,0,0,46,34a3.69,3.69,0,0,0-3.67-3.87Z"/></svg>