<svg id="Layer_1" data-name="Layer 1" xmlns="http://www.w3.org/2000/svg" viewBox="0 0 80 80"><defs><style>.cls-1{fill:#e6e9ed;}.cls-2{fill:#fcd770;}.cls-3{fill:#b4dd7f;}.cls-4{fill:#f0d0b4;}.cls-5{fill:#12c2e9;}.cls-6{fill:#f54394;}</style></defs><title>interface</title><path class="cls-1" d="M58,22A18,18,0,1,1,40,4,18,18,0,0,1,58,22Z"/><path class="cls-1" d="M78.57,58a18,18,0,1,1-18-18A18,18,0,0,1,78.57,58Z"/><path class="cls-1" d="M37.43,58a18,18,0,1,1-18-18A18,18,0,0,1,37.43,58Z"/><path class="cls-2" d="M14.29,1.43A2.58,2.58,0,0,1,16.86,4a1.72,1.72,0,0,1,0,.39,2.52,2.52,0,0,1-1.58,2,2.37,2.37,0,0,1-1,.19A2.57,2.57,0,0,1,11.72,4,2.58,2.58,0,0,1,14.29,1.43Z"/><path class="cls-2" d="M5.51,16.06a2.58,2.58,0,0,1,1.06,2.08,2.71,2.71,0,0,1-.1.71,2.6,2.6,0,0,1-1.81,1.78,2.39,2.39,0,0,1-.66.09,2.58,2.58,0,0,1,0-5.15A2.55,2.55,0,0,1,5.51,16.06Z"/><path class="cls-2" d="M12.68,41.32a2.57,2.57,0,1,1-4.82,1.25,2.58,2.58,0,0,1,1.91-2.48,2.39,2.39,0,0,1,.66-.09,2.45,2.45,0,0,1,1.32.37A2.57,2.57,0,0,1,12.68,41.32Z"/><path class="cls-2" d="M22.06,20.72a2.57,2.57,0,0,1,.35,5.1,1.84,1.84,0,0,1-.41,0,2.46,2.46,0,0,1-1.32-.38,2.56,2.56,0,0,1-1.25-2.19,2.71,2.71,0,0,1,.1-.71,2.54,2.54,0,0,1,1.52-1.67,2.37,2.37,0,0,1,.95-.19Z"/><path class="cls-2" d="M33.25,5.33a2.49,2.49,0,0,1,.32,1.24,2.57,2.57,0,0,1-5.14,0,1.64,1.64,0,0,1,0-.38A2.55,2.55,0,0,1,31,4,2.6,2.6,0,0,1,33.25,5.33Z"/><path class="cls-2" d="M54.39,11.21a2.51,2.51,0,0,1-1.53.51,2.58,2.58,0,1,1,2.53-3,2.28,2.28,0,0,1,0,.45,2.61,2.61,0,0,1-.21,1A2.69,2.69,0,0,1,54.39,11.21Z"/><path class="cls-2" d="M73.49,4.57A2.69,2.69,0,0,1,73.43,4,2.57,2.57,0,1,1,76,6.57h0A2.58,2.58,0,0,1,73.49,4.57Z"/><path class="cls-2" d="M75.75,15.59a1,1,0,0,1,.25,0,2.58,2.58,0,1,1-2,4.14,2.45,2.45,0,0,1-.54-1.57,2.55,2.55,0,0,1,2.32-2.55Z"/><path class="cls-2" d="M66.45,25.56a2.56,2.56,0,0,1-.94,3.91,2.66,2.66,0,0,1-1.08.24,2.57,2.57,0,1,1,2-4.15Z"/><path class="cls-2" d="M73.8,45.82a2.57,2.57,0,1,1-2.74-4.29,2.66,2.66,0,0,1,1.08-.24,2.57,2.57,0,0,1,1.66,4.53Z"/><path class="cls-2" d="M63.14,76A2.57,2.57,0,1,1,58,76a1.41,1.41,0,0,1,0-.21,2.57,2.57,0,0,1,5.12,0A1.41,1.41,0,0,1,63.14,76Z"/><path class="cls-2" d="M39.19,73.57a2.46,2.46,0,0,1,.81-.14,2.6,2.6,0,1,1-.81.14Z"/><path class="cls-2" d="M37,62a2.56,2.56,0,0,1,1.74,2.43A2.59,2.59,0,0,1,37,66.87a2.64,2.64,0,0,1-.81.13,2.58,2.58,0,0,1-2.57-2.57,2.58,2.58,0,0,1,2.57-2.57A2.54,2.54,0,0,1,37,62Z"/><path class="cls-3" d="M72.14,66.05v5.72a17.92,17.92,0,0,1-9,4,2.57,2.57,0,0,0-5.12,0,17.92,17.92,0,0,1-9-4V66.05a3.86,3.86,0,0,1,2.8-3.71L58,60.57l2.57,2.57,2.57-2.57,6.2,1.77A3.86,3.86,0,0,1,72.14,66.05Z"/><path class="cls-4" d="M63.14,57.3v3.27l-2.57,2.57L58,60.57V57.3a5.07,5.07,0,0,0,5.14,0Z"/><path class="cls-4" d="M63.14,57.3a5.14,5.14,0,0,1-7.71-4.44V50.29a5.14,5.14,0,1,1,10.28,0v2.57A5.1,5.1,0,0,1,63.14,57.3Z"/><path class="cls-5" d="M31,66.05v5.71a17.92,17.92,0,0,1-23.14,0V66.05a3.86,3.86,0,0,1,2.8-3.71l6.2-1.77,2.57,2.57L22,60.57l6.2,1.77A3.86,3.86,0,0,1,31,66.05Z"/><path class="cls-4" d="M22,57.3v3.27l-2.57,2.57-2.57-2.57V57.3a5.07,5.07,0,0,0,5.14,0Z"/><path class="cls-4" d="M22,57.3a5.14,5.14,0,0,1-7.71-4.44V50.29a5.14,5.14,0,1,1,10.28,0v2.57A5.1,5.1,0,0,1,22,57.3Z"/><path class="cls-6" d="M51.57,30.05v5.72a18,18,0,0,1-23.14,0V30.05a3.84,3.84,0,0,1,2.8-3.7l6.2-1.78L40,27.14l2.57-2.57,6.2,1.78A3.84,3.84,0,0,1,51.57,30.05Z"/><path class="cls-4" d="M42.57,21.31v3.26L40,27.14l-2.57-2.57V21.31a5.13,5.13,0,0,0,5.14,0Z"/><path class="cls-4" d="M37.43,21.31a5.13,5.13,0,0,1-2.57-4.45V14.29a5.14,5.14,0,1,1,10.28,0v2.57a5.13,5.13,0,0,1-2.57,4.45,5.13,5.13,0,0,1-5.14,0Z"/><path d="M76,22a3.84,3.84,0,0,0,1.06-7.54l.15-6.81A3.87,3.87,0,0,0,79.86,4a3.85,3.85,0,0,0-7.67-.45l-16,3.65A3.84,3.84,0,0,0,50.67,6a19,19,0,0,0-17-2.16,3.83,3.83,0,0,0-6.06.94L18.07,3.28A3.85,3.85,0,0,0,10.43,4a3.81,3.81,0,0,0,.68,2.18l-6,8.28A3.94,3.94,0,0,0,4,14.29,3.85,3.85,0,0,0,3.68,22L8.26,39.39a3.84,3.84,0,0,0-1.69,3.18,3.65,3.65,0,0,0,.15,1,19.25,19.25,0,1,0,29,24.68,1.75,1.75,0,0,0,.32,0L37.64,73a3.85,3.85,0,1,0,6,4.31H57a3.84,3.84,0,0,0,7.37-.4A19.36,19.36,0,0,0,79.86,58a19.16,19.16,0,0,0-4.41-12.2A3.78,3.78,0,0,0,76,43.86,3.86,3.86,0,0,0,72.14,40c-.12,0-.23,0-.35,0L67.12,29.9a3.88,3.88,0,0,0,1.16-2.76,3.69,3.69,0,0,0-.21-1.2l5.85-4.56A3.82,3.82,0,0,0,76,22ZM74.64,7.6l-.15,7a3.7,3.7,0,0,0-1.4,1L57.44,9.55,72.75,6.06A3.83,3.83,0,0,0,74.64,7.6ZM76,19.43a1.29,1.29,0,1,1,0-2.57,1.29,1.29,0,0,1,0,2.57ZM76,2.72a1.29,1.29,0,0,1,0,2.57,1.29,1.29,0,1,1,0-2.57ZM52.86,7.86a1.29,1.29,0,1,1-1.29,1.28A1.28,1.28,0,0,1,52.86,7.86Zm-3.69.2A3.93,3.93,0,0,0,49,9.14,3.86,3.86,0,0,0,52.86,13a3.93,3.93,0,0,0,1.08-.17A16.52,16.52,0,0,1,56.71,22a16.69,16.69,0,0,1-3.85,10.67V30.05a5.17,5.17,0,0,0-3.73-4.94L43.86,23.6V22a6.42,6.42,0,0,0,2.57-5.11V14.29a6.43,6.43,0,0,0-12.86,0v2.57A6.42,6.42,0,0,0,36.14,22V23.6l-5.27,1.51a5.16,5.16,0,0,0-3.73,4.94v2.58a16.58,16.58,0,0,1-3.19-6,3.84,3.84,0,0,0-.47-6.87,16.76,16.76,0,0,1,5.27-10,3.81,3.81,0,0,0,2.25.74,3.86,3.86,0,0,0,3.86-3.86,3.12,3.12,0,0,0,0-.44A16.53,16.53,0,0,1,49.17,8.06ZM40,20.72a3.87,3.87,0,0,1-3.86-3.86V14.29a3.86,3.86,0,0,1,7.72,0v2.57A3.87,3.87,0,0,1,40,20.72Zm0,2.57a6.88,6.88,0,0,0,1.29-.13V24L40,25.33,38.71,24v-.88A6.88,6.88,0,0,0,40,23.29Zm-3,2.73L40,29,43,26l5.47,1.56a2.58,2.58,0,0,1,1.87,2.47v5.1a16.61,16.61,0,0,1-20.58,0V30.05a2.58,2.58,0,0,1,1.87-2.47ZM10.43,41.29a1.29,1.29,0,1,1-1.29,1.28A1.28,1.28,0,0,1,10.43,41.29Zm.32-2.54L6.17,21.33a3.77,3.77,0,0,0,1-.95l11,3.15A3.77,3.77,0,0,0,19,25.72L11.2,38.79A3.42,3.42,0,0,0,10.75,38.75ZM14.29,7.86l.15,0,5,12.56a4,4,0,0,0-.59.65l-11-3.15A3.84,3.84,0,0,0,7.18,16l6-8.28A3.61,3.61,0,0,0,14.29,7.86Zm3.38-2,9.55,1.47a1.34,1.34,0,0,0,.07.27,19.3,19.3,0,0,0-6.08,10.29l-4.39-11A3.65,3.65,0,0,0,17.67,5.82ZM22,22a1.29,1.29,0,1,1,0,2.57A1.29,1.29,0,0,1,22,22ZM31,5.29a1.29,1.29,0,1,1-1.29,1.28A1.28,1.28,0,0,1,31,5.29ZM14.29,2.72A1.29,1.29,0,1,1,13,4,1.28,1.28,0,0,1,14.29,2.72ZM2.72,18.14a1.29,1.29,0,0,1,2.57,0,1.29,1.29,0,1,1-2.57,0Zm6.42,53v-5.1A2.58,2.58,0,0,1,11,63.58L16.48,62,19.43,65,22.37,62l5.48,1.57a2.57,2.57,0,0,1,1.86,2.47v5.11a16.66,16.66,0,0,1-20.57,0ZM19.43,56.71a3.86,3.86,0,0,1-3.86-3.85V50.29a3.86,3.86,0,0,1,7.72,0v2.57A3.86,3.86,0,0,1,19.43,56.71Zm0,2.57a6.14,6.14,0,0,0,1.29-.13V60l-1.29,1.28L18.14,60v-.89A6.14,6.14,0,0,0,19.43,59.28Zm12.86,9.37v-2.6a5.18,5.18,0,0,0-3.73-4.95l-5.27-1.5V58a6.42,6.42,0,0,0,2.57-5.11V50.29a6.43,6.43,0,0,0-12.86,0v2.57A6.42,6.42,0,0,0,15.57,58V59.6L10.3,61.11a5.16,5.16,0,0,0-3.73,4.94v2.61a16.64,16.64,0,0,1,1.61-23,3.81,3.81,0,0,0,2.25.74,3.86,3.86,0,0,0,3.86-3.86,3.29,3.29,0,0,0,0-.44A16.59,16.59,0,0,1,35.91,60.6a3.84,3.84,0,0,0-2.5,6.54C33.06,67.67,32.68,68.17,32.29,68.65Zm3.85-5.51a1.29,1.29,0,1,1,0,2.57,1.29,1.29,0,0,1,0-2.57ZM40,77.28A1.29,1.29,0,1,1,41.29,76,1.28,1.28,0,0,1,40,77.28ZM60.57,56.71a3.86,3.86,0,0,1-3.86-3.85V50.29a3.86,3.86,0,0,1,7.72,0v2.57A3.86,3.86,0,0,1,60.57,56.71Zm0,2.57a6.14,6.14,0,0,0,1.29-.13V60l-1.29,1.28L59.28,60v-.89A6.14,6.14,0,0,0,60.57,59.28ZM57.63,62,60.57,65l3-2.95L69,63.58a2.58,2.58,0,0,1,1.87,2.47v5.07A16.61,16.61,0,0,1,64,74.32a3.84,3.84,0,0,0-6.92,0,16.51,16.51,0,0,1-6.82-3.2V66.05a2.57,2.57,0,0,1,1.86-2.47Zm2.94,15.27A1.29,1.29,0,1,1,61.86,76,1.28,1.28,0,0,1,60.57,77.28Zm12.86-8.67V66.05A5.18,5.18,0,0,0,69.7,61.1l-5.27-1.5V58A6.42,6.42,0,0,0,67,52.86V50.29a6.43,6.43,0,0,0-12.86,0v2.57A6.42,6.42,0,0,0,56.71,58V59.6l-5.27,1.51a5.16,5.16,0,0,0-3.73,4.94v2.56A16.67,16.67,0,0,1,68.35,43.23a3.29,3.29,0,0,0-.07.63,3.87,3.87,0,0,0,3.86,3.85,3.77,3.77,0,0,0,1.35-.25,16.55,16.55,0,0,1-.06,21.15Zm0-24.75a1.29,1.29,0,1,1-1.29-1.29A1.28,1.28,0,0,1,73.43,43.86Zm-4.1-3A19.26,19.26,0,0,0,51,74.71h-7.4a3.84,3.84,0,0,0-3.55-2.56l-1.56-4.7a3.82,3.82,0,0,0,1.49-3,3.87,3.87,0,0,0-1.61-3.13,19.71,19.71,0,0,0,.32-3.3,19.22,19.22,0,0,0-25-18.4l7.52-12.53a1.23,1.23,0,0,1,.19,0A19.27,19.27,0,0,0,59.28,22,19,19,0,0,0,56.4,11.9L72.15,18s0,.07,0,.11a4,4,0,0,0,.21,1.21L66.5,23.9A3.85,3.85,0,1,0,64.43,31c.12,0,.23,0,.34,0Zm-4.9-12.41a1.29,1.29,0,1,1,0-2.57,1.29,1.29,0,0,1,0,2.57Z"/></svg>