<?xml version="1.0" encoding="utf-8"?>
<!-- Generator: Adobe Illustrator 24.0.1, SVG Export Plug-In . SVG Version: 6.00 Build 0)  -->
<svg version="1.1" id="Layer_1" xmlns="http://www.w3.org/2000/svg" xmlns:xlink="http://www.w3.org/1999/xlink" x="0px" y="0px"
	 viewBox="0 0 67.8 47.7" style="enable-background:new 0 0 67.8 47.7;" xml:space="preserve">
<style type="text/css">
	.st0{fill:#FFFFFF;}
</style>
<title>Artboard 2</title>
<path class="st0" d="M67.1,6.3h-4.9c-0.4,0-0.7-0.3-0.7-0.7c0,0,0,0,0,0V0.7c0-0.4-0.3-0.7-0.7-0.7c0,0,0,0,0,0H56
	c-0.4,0-0.7,0.3-0.7,0.7c0,0,0,0,0,0v4.8c0,0.4-0.3,0.7-0.7,0.7l0,0h-4.9C49.3,6.3,49,6.6,49,7v4.8c0,0.4,0.3,0.7,0.7,0.7
	c0,0,0,0,0,0h4.8c0.4,0,0.7,0.3,0.7,0.7c0,0,0,0,0,0v4.8c0,0.4,0.3,0.7,0.7,0.7c0,0,0,0,0,0h4.8c0.4,0,0.7-0.3,0.7-0.7c0,0,0,0,0,0
	v-4.8c0-0.4,0.3-0.7,0.7-0.7l0,0h4.9c0.4,0,0.7-0.3,0.7-0.7c0,0,0,0,0,0V7C67.8,6.6,67.5,6.3,67.1,6.3C67.1,6.3,67.1,6.3,67.1,6.3z"
	/>
<polygon class="st0" points="37,0 34.2,0 34.2,10.1 37,10.1 37,47.7 47.5,47.7 47.5,10.1 47.5,0 "/>
<path class="st0" d="M32.7,18.5H10.5c0.1-1.4,0.4-2.9,0.8-4.2c1-2.8,2.9-4.2,5.5-4.2h15.9V0H16.8C12.5,0,9,1.1,6.4,3.4
	C3.9,5.7,2.1,8.7,1.3,12c-1,3.7-1.4,7.6-1.3,11.4v24.2h10.5V28.9h22.1V18.5z"/>
</svg>
