<svg id="Layer_1" data-name="Layer 1" xmlns="http://www.w3.org/2000/svg" viewBox="0 0 802.61 578"><defs><style>.cls-1{fill:#e6e6e6;}.cls-2{fill:#ccc;}.cls-3{fill:#3f3d56;}.cls-4{fill:#f54394;}.cls-5{fill:#fff;}.cls-6{fill:#ffb8b8;}.cls-7{fill:#2f2e41;}.cls-8{fill:#12c2e9;}</style></defs><path class="cls-1" d="M240.15,193.58a5.75,5.75,0,0,0,0,11.49h72.2v-2.51a10.75,10.75,0,0,1,4.84-9Z"/><path class="cls-1" d="M305.85,180.66H281.44a5.75,5.75,0,0,1,0-11.49h24.41a5.75,5.75,0,0,1,0,11.49Z"/><path class="cls-1" d="M251.1,139.73H156.33a5.74,5.74,0,0,1,0-11.48H251.1a5.74,5.74,0,1,1,0,11.48Z"/><path class="cls-1" d="M209.82,115.32h-12.2a5.74,5.74,0,1,1,0-11.48h12.2a5.74,5.74,0,1,1,0,11.48Z"/><path class="cls-2" d="M311.63,309.09H222.29a12.23,12.23,0,0,1-12.21-12.2V155.57a12.23,12.23,0,0,1,12.21-12.21H365a12.21,12.21,0,0,1,12.2,12.21v35h-1.43v-35A10.79,10.79,0,0,0,365,144.8H222.29a10.79,10.79,0,0,0-10.77,10.77V296.89a10.79,10.79,0,0,0,10.77,10.77h89.34Z"/><path class="cls-2" d="M210.8,224.49H145.68a12.21,12.21,0,0,1-12.21-12.2V97.37a12.23,12.23,0,0,1,12.21-12.2H261.76A12.22,12.22,0,0,1,274,97.37v46.71h-1.43V97.37a10.78,10.78,0,0,0-10.77-10.76H145.68a10.77,10.77,0,0,0-10.77,10.76V212.29a10.79,10.79,0,0,0,10.77,10.77H210.8Z"/><path class="cls-1" d="M501.48,193.58a10.73,10.73,0,0,1,4.84,9v2.51h72.2a5.75,5.75,0,0,0,0-11.49Z"/><path class="cls-1" d="M507.08,174.91a5.74,5.74,0,0,1,5.74-5.74h24.41a5.75,5.75,0,1,1,0,11.49H512.82A5.76,5.76,0,0,1,507.08,174.91Z"/><path class="cls-1" d="M561.83,134a5.74,5.74,0,0,1,5.74-5.74h94.77a5.74,5.74,0,1,1,0,11.48H567.57A5.74,5.74,0,0,1,561.83,134Z"/><path class="cls-1" d="M603.11,109.58a5.74,5.74,0,0,1,5.74-5.74h12.21a5.74,5.74,0,1,1,0,11.48H608.85A5.74,5.74,0,0,1,603.11,109.58Z"/><path class="cls-2" d="M507,309.09h89.34a12.23,12.23,0,0,0,12.21-12.2V155.57a12.23,12.23,0,0,0-12.21-12.21H453.68a12.23,12.23,0,0,0-12.21,12.21v35h1.44v-35a10.77,10.77,0,0,1,10.77-10.77h142.7a10.77,10.77,0,0,1,10.77,10.77V296.89a10.78,10.78,0,0,1-10.77,10.77H507Z"/><path class="cls-2" d="M607.87,224.49H673a12.21,12.21,0,0,0,12.21-12.2V97.37A12.23,12.23,0,0,0,673,85.17H556.92a12.23,12.23,0,0,0-12.21,12.2v46.71h1.44V97.37a10.77,10.77,0,0,1,10.77-10.76H673a10.77,10.77,0,0,1,10.77,10.76V212.29A10.78,10.78,0,0,1,673,223.06H607.87Z"/><path class="cls-3" d="M495.25,190.36H323.12a12.23,12.23,0,0,0-12.21,12.2v170.5a12.23,12.23,0,0,0,12.21,12.21H495.25a12.23,12.23,0,0,0,12.21-12.21V202.56A12.21,12.21,0,0,0,495.25,190.36ZM506,373.06a10.77,10.77,0,0,1-10.77,10.77H323.12a10.77,10.77,0,0,1-10.77-10.77V202.56a10.79,10.79,0,0,1,10.77-10.77H495.25A10.79,10.79,0,0,1,506,202.56Z"/><path class="cls-2" d="M481.7,256.76h-145a5.75,5.75,0,0,1,0-11.49h145a5.75,5.75,0,0,1,0,11.49Z"/><path class="cls-4" d="M440.42,232.35H378a5.75,5.75,0,0,1,0-11.49h62.47a5.75,5.75,0,0,1,0,11.49Z"/><path class="cls-2" d="M398.78,291.22H336.31a5.75,5.75,0,0,1,0-11.49h62.47a5.75,5.75,0,0,1,0,11.49Z"/><path class="cls-2" d="M398.78,316.35H336.31a5.75,5.75,0,0,1,0-11.49h62.47a5.75,5.75,0,0,1,0,11.49Z"/><path class="cls-2" d="M398.78,341.48H336.31a5.75,5.75,0,0,1,0-11.49h62.47a5.75,5.75,0,0,1,0,11.49Z"/><circle id="fc69f6bd-6aec-467a-b158-496b315f473e" class="cls-4" cx="476.68" cy="285.42" r="10.72" transform="translate(118.58 710.23) rotate(-80.78)"/><path id="f31c0d86-d70b-4e63-97a7-2fc94b4d7c12-64" class="cls-5" d="M475.61,289.51a1.05,1.05,0,0,1-.66-.22h0l-2.52-1.92a1.12,1.12,0,0,1,1.37-1.78l1.63,1.25,3.85-5a1.13,1.13,0,0,1,1.57-.21h0l0,0,0,0a1.12,1.12,0,0,1,.21,1.57l-4.53,5.92a1.16,1.16,0,0,1-.89.43Z"/><path class="cls-2" d="M203.72,70.91a16.66,16.66,0,1,1,16.66-16.66A16.66,16.66,0,0,1,203.72,70.91Zm0-31.89a15.23,15.23,0,1,0,15.22,15.23A15.23,15.23,0,0,0,203.72,39Z"/><path id="b565f894-1e41-4a11-b880-46bff78dfbdf-65" class="cls-2" d="M202.14,60.33a1.71,1.71,0,0,1-1-.33v0l-3.75-2.86a1.67,1.67,0,1,1,2-2.64l2.42,1.86,5.74-7.48a1.66,1.66,0,0,1,2.33-.31h0l0,.05,0-.05a1.66,1.66,0,0,1,.31,2.33l-6.75,8.8a1.65,1.65,0,0,1-1.32.65Z"/><path class="cls-2" d="M309.4,129.06a16.66,16.66,0,1,1,16.66-16.66A16.66,16.66,0,0,1,309.4,129.06Zm0-31.88a15.22,15.22,0,1,0,15.22,15.22A15.22,15.22,0,0,0,309.4,97.18Z"/><path id="a1067fe6-b388-4736-89af-b6090c7ddfc7-66" class="cls-2" d="M307.82,118.48a1.64,1.64,0,0,1-1-.33h0l-3.74-2.87a1.66,1.66,0,1,1,2-2.64h0l2.43,1.86,5.73-7.48a1.67,1.67,0,0,1,2.34-.31h0l0,0,0,0a1.67,1.67,0,0,1,.31,2.34l-6.75,8.79a1.65,1.65,0,0,1-1.32.65Z"/><circle id="a6907563-545c-4a91-99f2-6d7f4e57ba01" class="cls-4" cx="476.68" cy="310.55" r="10.72" transform="translate(93.78 731.33) rotate(-80.78)"/><path id="f071b9ad-7606-418c-8652-2e0910ae4e99-67" class="cls-5" d="M475.61,314.64a1.11,1.11,0,0,1-.66-.22h0l-2.52-1.93a1.12,1.12,0,0,1,1.37-1.77l1.63,1.25,3.85-5a1.12,1.12,0,0,1,1.57-.21h0l0,0,0,0a1.12,1.12,0,0,1,.21,1.57l-4.53,5.91a1.14,1.14,0,0,1-.89.44Z"/><circle id="a9a7744d-510c-41c6-a641-cf6a8a976d00" class="cls-4" cx="476.68" cy="335.73" r="10.72" transform="translate(68.92 752.47) rotate(-80.78)"/><path id="ee4f98ac-d41c-4601-9f0c-7c3b6a7a76ac-68" class="cls-5" d="M475.61,339.82a1.11,1.11,0,0,1-.66-.22h0l-2.52-1.93a1.12,1.12,0,0,1,1.37-1.77l1.63,1.25,3.85-5a1.12,1.12,0,0,1,1.57-.21h0l0,0,0,0a1.12,1.12,0,0,1,.21,1.57l-4.53,5.91a1.14,1.14,0,0,1-.89.44Z"/><path class="cls-4" d="M409.2,175.73c-11.31-.2-16.44-8.78-16.44-16.66s5.14-16.47,16.42-16.66h0c11.29.19,16.42,8.77,16.42,16.66S420.48,175.54,409.2,175.73Zm0-31.89c-10.3.18-15,8-15,15.23s4.7,15,15,15.22c10.29-.17,15-8,15-15.22S419.49,144,409.19,143.84Z"/><path class="cls-4" d="M412.93,160c2.88,5-5,7-8.06,3.95l.76-1.62c4.92,4.25,9.26-3.11,1.74-2.41v-1.78c6.88.56,3-6.37-1.57-2.27l-.74-1.62c3.74-3.88,12.13.81,6.21,4.68A3,3,0,0,1,412.93,160Z"/><path class="cls-2" d="M510.42,129.06a16.66,16.66,0,1,1,16.66-16.66A16.66,16.66,0,0,1,510.42,129.06Zm0-31.88a15.22,15.22,0,1,0,15.22,15.22A15.21,15.21,0,0,0,510.42,97.18Z"/><path class="cls-2" d="M515.05,116.14h-1.74v2.39h-2.18v-2.39h-5.34v-1.65l5.74-8.22h1.78v8.13h1.74Zm-3.92-1.74v-4.67l-3.23,4.67Z"/><path class="cls-2" d="M615,70.91a16.66,16.66,0,1,1,16.66-16.66A16.65,16.65,0,0,1,615,70.91ZM615,39a15.23,15.23,0,1,0,15.22,15.23A15.23,15.23,0,0,0,615,39Z"/><path class="cls-2" d="M617.44,53a3.47,3.47,0,0,1,1.36,1.38,4.26,4.26,0,0,1,.48,2,4.06,4.06,0,0,1-.55,2.13,3.73,3.73,0,0,1-1.59,1.43,5.3,5.3,0,0,1-2.39.51,6.83,6.83,0,0,1-2.28-.39,5.34,5.34,0,0,1-1.84-1l.74-1.62a5.61,5.61,0,0,0,3.41,1.28,2.53,2.53,0,0,0,1.77-.58,2.48,2.48,0,0,0,0-3.28,2.3,2.3,0,0,0-1.68-.61,3.55,3.55,0,0,0-1.36.27,3.37,3.37,0,0,0-1.12.78H611V48h7.68v1.73H613.2v3.34a3.82,3.82,0,0,1,2.2-.64A4.27,4.27,0,0,1,617.44,53Z"/><path class="cls-6" d="M223.81,411.53A7.22,7.22,0,0,1,227.4,402a8.53,8.53,0,0,1,1.2-.42L230.78,376l10.47,8.25-3.68,23a7.26,7.26,0,0,1-13.76,4.28Z"/><path class="cls-4" d="M230.54,398.87a3.22,3.22,0,0,1-2.8-3.07l-1.22-29a64,64,0,0,1,6.19-30.22l10.74-22.52a9.66,9.66,0,0,1,7.24-5,9.25,9.25,0,0,1,8.07,2.87,11.93,11.93,0,0,1,1.38,1.78,9.27,9.27,0,0,1,.49,8.83l-16.48,45-1.27,29.32a3.22,3.22,0,0,1-3.36,3.09l-.25,0-8.69-1Z"/><polygon class="cls-6" points="199.71 525.62 207.77 529.16 225.25 499.75 213.35 494.53 199.71 525.62"/><path class="cls-7" d="M198.81,522.08l15.87,7h0a11.05,11.05,0,0,1,5.68,14.56h0l-.15.32-26-11.4Z"/><polygon class="cls-6" points="307.91 535.4 316.71 535.4 320.9 501.45 307.91 501.45 307.91 535.4"/><path class="cls-7" d="M305.67,532.53H323a11,11,0,0,1,11.05,11h0v.36H305.67Z"/><path class="cls-8" d="M219.26,525.75a3.08,3.08,0,0,1-1-.16l-14.92-4.79a3.24,3.24,0,0,1-2.1-4l49.49-157.6,37.07-7.27.13.21c24.51,39.88,32.69,100.8,37.88,165.35a3.24,3.24,0,0,1-2.9,3.47l-16.32,1.63a3.2,3.2,0,0,1-3.44-2.36L273.28,414.52a1.08,1.08,0,0,0-2-.14l-49,109.42A3.23,3.23,0,0,1,219.26,525.75Z"/><circle class="cls-6" cx="269.88" cy="278.44" r="17.63"/><path class="cls-4" d="M247.57,363.84l-.12-.25c-.08-.17-8.2-17.41-7.45-37.29a25.61,25.61,0,0,1,25.07-24.61h0a25.55,25.55,0,0,1,25.58,20.68,76.68,76.68,0,0,1-.16,32.53l-.06.23-.22,0Z"/><path class="cls-6" d="M337.48,388.72a7.22,7.22,0,0,1-6.09-8.2,6.79,6.79,0,0,1,.3-1.24l-20.31-15.67L324,359.28l17.35,15.55a7.26,7.26,0,0,1-3.86,13.89Z"/><path class="cls-4" d="M287.64,354.16l-.05-.07-21.41-34.68a9.62,9.62,0,0,1-.31-8.81,9.25,9.25,0,0,1,6.78-5.23h0a12,12,0,0,1,2.24-.2,9.29,9.29,0,0,1,7.69,4.38l28.92,38.23,24,17a3.23,3.23,0,0,1,.78,4.5l-.15.19-5.58,6.75a3.23,3.23,0,0,1-4.13.73Z"/><path class="cls-7" d="M266.73,277.34c1.3-2.14,4.17-2.74,6.66-2.5s4.91,1.12,7.41,1.1c6.95-.05,12.31-8.52,9.39-14.82-2.4-5.17-8.38-7.44-13.79-9.22-11.35-3.74-24.38-7.33-34.68-1.27a21.55,21.55,0,0,0-10.37,19.2c.23,4.77,2.06,9.66.51,14.18-1.78,5.21-7.42,8-12.76,9.35-9.36,2.37-19.22,2-28.63,4.12s-19.06,7.77-21.6,17.08c-1.67,6.11.07,12.7,2.95,18.35a47.52,47.52,0,0,0,63.92,20.73c.8-.4,1.59-.84,2.37-1.29,11.38-6.65,19.6-17.88,24.5-30.11a101,101,0,0,0,5.82-22.15,49.16,49.16,0,0,0-1.82-21.16A1.93,1.93,0,0,1,266.73,277.34Z"/><path class="cls-3" d="M391.67,544.19H118.13a.72.72,0,1,1,0-1.43H391.67a.72.72,0,0,1,0,1.43Z"/></svg>