<svg id="Layer_1" data-name="Layer 1" xmlns="http://www.w3.org/2000/svg" viewBox="0 0 802.61 578"><defs><style>.cls-1{fill:#f2f2f2;}.cls-2{fill:#e6e6e6;}.cls-3{fill:#ccc;}.cls-4{fill:#3f3d56;}.cls-5{fill:#fff;}.cls-6{fill:#cacaca;}.cls-7{fill:#f54394;}.cls-8{fill:#a0616a;}.cls-9{fill:#2f2e41;}.cls-10{fill:#12c2e9;}</style></defs><path class="cls-1" d="M706.76,498.72l.78-17.58a56.89,56.89,0,0,1,26.47-6.7c-12.71,10.4-11.12,30.44-19.74,44.42a34.16,34.16,0,0,1-25,15.78l-10.64,6.51a57.19,57.19,0,0,1,12.06-46.36,55.09,55.09,0,0,1,10.15-9.44C703.35,492.07,706.76,498.72,706.76,498.72Z"/><path class="cls-1" d="M168.81,479.46l-25.69-7.78a86.68,86.68,0,0,1,.07-41.65C153.77,452.74,184,457.94,201.4,476a52.11,52.11,0,0,1,13.89,42.94l5.62,18.18a87.25,87.25,0,0,1-64-35.28,84.25,84.25,0,0,1-10.12-18.57C157.7,482,168.81,479.46,168.81,479.46Z"/><path class="cls-2" d="M617.77,538.28a2,2,0,0,1-2,2h-8a2,2,0,0,1-2-2V295.14c0-5.36-1.8-9.71-4-9.72H101.23c-2.22,0-4,4.36-4,9.72V536.79a2,2,0,0,1-1.81,2c-1.62.16-3.24.3-4.85.43h-.12l-2.64.21h0c-.46-.83-.9-1.68-1.35-2.53a2.15,2.15,0,0,1-.22-.93V282.53c0-1.48.06-3,.16-4.44q.22-3,.75-6c1.69-9.29,5.51-15.58,9.85-15.6H606a4.64,4.64,0,0,1,1.84.39,7.11,7.11,0,0,1,2.27,1.59,13.89,13.89,0,0,1,2.23,3.05c2.14,3.77,3.67,9.39,4.21,15.93,0,.06,0,.12,0,.18.14,1.62.21,3.27.2,4.92l.14,21.43.09,12.78.27,40.1.1,14.24Z"/><path class="cls-3" d="M432,182.34H381a2.72,2.72,0,0,0-2.72,2.72v80.58h56.45V185.06a2.72,2.72,0,0,0-2.72-2.72Zm-25.33,45.78a6,6,0,0,1-6-6v-9.3a6,6,0,0,1,12.05,0v9.3A6.06,6.06,0,0,1,406.69,228.12Z"/><path class="cls-4" d="M378.13,263.06v7.77a1.52,1.52,0,0,0,1.52,1.52H433.4a1.52,1.52,0,0,0,1.52-1.52v-7.77Z"/><path class="cls-2" d="M516.48,56.59h-218a7.09,7.09,0,0,0-7.07,7.07V210.79a7.06,7.06,0,0,0,7.07,7.06h218a7.06,7.06,0,0,0,7.07-7.06V63.66A7.09,7.09,0,0,0,516.48,56.59Z"/><path class="cls-5" d="M514.66,61.7H300.28a3.78,3.78,0,0,0-3.78,3.78V209a3.78,3.78,0,0,0,3.78,3.78H514.66a3.78,3.78,0,0,0,3.78-3.78V65.48A3.78,3.78,0,0,0,514.66,61.7Z"/><path class="cls-3" d="M472.91,275.06H345.36a2.35,2.35,0,0,1-2.35-2.35,2.61,2.61,0,0,1,.05-.48l2-9.4a2.36,2.36,0,0,1,2.3-1.87H470.93a2.36,2.36,0,0,1,2.29,1.87l2,9.4a2.35,2.35,0,0,1-1.81,2.78A2.61,2.61,0,0,1,472.91,275.06Z"/><rect class="cls-2" x="348.24" y="262.66" width="3.93" height="2.36" rx="0.49"/><rect class="cls-2" x="356.1" y="262.66" width="3.93" height="2.36" rx="0.49"/><rect class="cls-2" x="363.95" y="262.66" width="3.93" height="2.36" rx="0.49"/><rect class="cls-2" x="371.81" y="262.66" width="3.93" height="2.36" rx="0.49"/><rect class="cls-2" x="379.67" y="262.66" width="3.93" height="2.36" rx="0.49"/><rect class="cls-2" x="387.52" y="262.66" width="3.93" height="2.36" rx="0.49"/><rect class="cls-2" x="395.38" y="262.66" width="3.93" height="2.36" rx="0.49"/><rect class="cls-2" x="403.24" y="262.66" width="3.93" height="2.36" rx="0.49"/><rect class="cls-2" x="411.1" y="262.66" width="3.93" height="2.36" rx="0.49"/><rect class="cls-2" x="418.95" y="262.66" width="3.93" height="2.36" rx="0.49"/><rect class="cls-2" x="426.81" y="262.66" width="3.93" height="2.36" rx="0.49"/><rect class="cls-2" x="434.67" y="262.66" width="3.93" height="2.36" rx="0.49"/><rect class="cls-2" x="442.52" y="262.66" width="3.93" height="2.36" rx="0.49"/><rect class="cls-2" x="450.38" y="262.66" width="3.93" height="2.36" rx="0.49"/><rect class="cls-2" x="458.24" y="262.66" width="3.93" height="2.36" rx="0.49"/><rect class="cls-2" x="466.09" y="262.66" width="3.93" height="2.36" rx="0.49"/><rect class="cls-2" x="348.15" y="266.59" width="3.93" height="2.36" rx="0.49"/><rect class="cls-2" x="356" y="266.59" width="3.93" height="2.36" rx="0.49"/><rect class="cls-2" x="363.86" y="266.59" width="3.93" height="2.36" rx="0.49"/><rect class="cls-2" x="371.72" y="266.59" width="3.93" height="2.36" rx="0.49"/><rect class="cls-2" x="379.58" y="266.59" width="3.93" height="2.36" rx="0.49"/><rect class="cls-2" x="387.43" y="266.59" width="3.93" height="2.36" rx="0.49"/><rect class="cls-2" x="395.29" y="266.59" width="3.93" height="2.36" rx="0.49"/><rect class="cls-2" x="403.15" y="266.59" width="3.93" height="2.36" rx="0.49"/><rect class="cls-2" x="411" y="266.59" width="3.93" height="2.36" rx="0.49"/><rect class="cls-2" x="418.86" y="266.59" width="3.93" height="2.36" rx="0.49"/><rect class="cls-2" x="426.72" y="266.59" width="3.93" height="2.36" rx="0.49"/><rect class="cls-2" x="434.57" y="266.59" width="3.93" height="2.36" rx="0.49"/><rect class="cls-2" x="442.43" y="266.59" width="3.93" height="2.36" rx="0.49"/><rect class="cls-2" x="450.29" y="266.59" width="3.93" height="2.36" rx="0.49"/><rect class="cls-2" x="458.14" y="266.59" width="3.93" height="2.36" rx="0.49"/><rect class="cls-2" x="466" y="266.59" width="3.93" height="2.36" rx="0.49"/><rect class="cls-2" x="385.86" y="271.3" width="31.43" height="2.36" rx="0.49"/><path class="cls-6" d="M503.89,81.46H303.29a.8.8,0,0,1,0-1.59h200.6a.8.8,0,0,1,0,1.59Z"/><ellipse class="cls-3" cx="316.94" cy="71.02" rx="4.68" ry="4.78"/><ellipse class="cls-3" cx="333.09" cy="71.02" rx="4.68" ry="4.78"/><ellipse class="cls-3" cx="349.24" cy="71.02" rx="4.68" ry="4.78"/><polygon class="cls-4" points="403.38 93.56 402.73 91.67 485.59 48.62 486.24 50.51 403.38 93.56"/><polygon class="cls-4" points="653.38 173.3 652.73 171.41 702.59 128.58 703.24 130.47 653.38 173.3"/><polygon class="cls-4" points="557.59 183.27 474.73 140.22 475.38 138.33 558.24 181.38 557.59 183.27"/><polygon class="cls-4" points="600.01 153.32 551.43 73.57 552.97 72.29 601.54 152.03 600.01 153.32"/><polygon class="cls-4" points="637.91 49.41 590.61 49.19 590.61 47.19 637.91 47.41 637.91 49.41"/><path class="cls-7" d="M723.61,61.81h-53a13,13,0,0,1,0-26h53a13,13,0,0,1,0,26Z"/><path class="cls-7" d="M789.61,137.81h-53a13,13,0,0,1,0-26h53a13,13,0,0,1,0,26Z"/><polygon class="cls-4" points="703.91 191.4 656.61 191.19 656.61 189.19 703.91 189.4 703.91 191.4"/><path class="cls-7" d="M789.61,203.81h-53a13,13,0,0,1,0-26h53a13,13,0,0,1,0,26Z"/><path class="cls-7" d="M634.61,194.85h-53a13,13,0,0,1,0-26h53a13,13,0,0,1,0,26Z"/><path class="cls-7" d="M562.61,60.85h-53a13,13,0,0,1,0-26h53a13,13,0,0,1,0,26Z"/><path class="cls-4" d="M309.28,284h-60a8,8,0,1,0,0,16h22v62h16V300h22a8,8,0,0,0,0-16Z"/><path class="cls-4" d="M348.88,396.37H188.4a64.81,64.81,0,0,1-63.92-55.64l-5.68-20.89A468.75,468.75,0,0,0,65.62,196.93c-10.74-17.45-16.28-34.35-3.71-50.61l.31-.41c10.08-13.12,60.24-16,76.59-16.51.64,0,1.29,0,1.94,0h99.82q1,0,2,0a48.82,48.82,0,0,1,42.23,26.92,50.34,50.34,0,0,1-2.85,51.53c-35.07,52.67-45.8,85.7-34.81,107.09,10.63,20.68,43.22,31.26,102.56,33.28,15.94.54,23.26,13,23.31,24.27.05,11-7,23.17-22.55,23.85Q349.66,396.37,348.88,396.37Z"/><path class="cls-4" d="M215.66,538.87h60a8,8,0,0,0,0-16h-22v-135h-16v135h-22a8,8,0,1,0,0,16Z"/><polygon class="cls-8" points="269.97 484.44 280.31 490.06 307.67 452.23 292.41 443.94 269.97 484.44"/><path class="cls-9" d="M274.94,471l18.77,5.88-3,7.86,12.87,18.67a5.25,5.25,0,0,1-6.19,7.89L275.55,503l-.81-9.2L270.32,501l-8.24-3.13Z"/><path class="cls-8" d="M296.08,102.93a11.61,11.61,0,0,1-9.81,13.17,12.75,12.75,0,0,1-2,.11L244.37,201l-12.5-17.43,41-80.18a11.67,11.67,0,0,1,23.18-.47Z"/><path class="cls-7" d="M163.83,218.15s-1.06,14.81,15.69,17.72,61.54-25.41,68.89-29.76,21.07-59.06,21.07-59.06l-11.92-20.17c-14.72,18.62-26.28,35.79-27,48Z"/><path class="cls-8" d="M183.18,269.18l3.61,15.54s0,14.34,2.58,17,57.95-2.65,57.95-2.65-5.87-23.1-5.8-40.58l-58.34,10.71Z"/><path class="cls-10" d="M300.28,468l-20-11c-.38-26,15.28-61.24,33.84-98.13-41.52,7.14-80.69,9.43-114.58.79a21.9,21.9,0,0,1-15.66-26.46c.13-.55.28-1.09.46-1.63,4-12.37-5-20.12,3.32-33.73,22-7.51,42.9-9.64,62-3l12,26.47L321,313.66a21.88,21.88,0,0,1,24.32,19.13.88.88,0,0,1,0,.16c.08.65.13,1.29.16,1.94C333.48,391.15,320,441.76,300.28,468Z"/><path class="cls-7" d="M175.12,170.75,198,169.4a4.64,4.64,0,0,1,4.56,2.87L209,187.93l26.85,22.19s10.63,13.53,10.65,31S250.28,299,250.28,299s-15.51-21.84-25.09-16c-1.63,1-2.2,3-3.91,4-.85.51-2.82,0-3.67.53-13.2,7.83-27,15.48-28.25,14.14-2.52-2.63-5.59-16.1-5.59-16.1l-20.92-76.88a28.48,28.48,0,0,1,4.05-24c1.46-2.06,3-3.59,4.41-3.84,3.2-.68,1.5-7.84,3.81-10.16Z"/><polygon class="cls-8" points="369.59 517.01 379.24 510.3 357.38 469.06 343.14 478.96 369.59 517.01"/><path class="cls-10" d="M371.05,489.34l-15.13,13.52c-24-26.8-42.22-64.38-57.63-107.06-40.37-11.82-70.81-30.89-97.38-53.52-9-7.63-15.77-17.43-8.09-26.73.36-.43.74-.85,1.13-1.26,9.08-9.33,32.1-7.55,45.58-16.1l30.13,32.2-1.9,8.63,56.58,19.17A21.84,21.84,0,0,1,337.73,386l-.06.16c-.21.62-.45,1.22-.71,1.82Z"/><path class="cls-9" d="M364,514.29l15.45-12.16,4.8,6.9,22.68-.07a5.25,5.25,0,0,1,3,9.57l-19.18,13.34-8.06-4.54,3.46,7.73-7.24,5Z"/><path class="cls-8" d="M208.88,364.52a11.62,11.62,0,0,1-6.16-15.23,11.15,11.15,0,0,1,1-1.8l-51.76-78.1,21.39-1.63,47.2,76.71a11.67,11.67,0,0,1-11.64,20Z"/><path class="cls-7" d="M179.12,191.66s-12.1-8.61-23.29,4.2-10.25,65.79-10.35,74.33c0,2.68,3.83,8.45,9.15,15.12,2.39,3,5.07,6.16,7.83,9.32,1.6,1.83.22,5.63,1.82,7.4s6.17,1.51,7.68,3.14c7.2,7.78,13,13.7,13,13.7l23.42.29c.27-17.41-11.66-33-27-48l-2.33-79.53Z"/><path class="cls-9" d="M155.51,115.86c-2.21,1.6-4.55,3.25-7.25,3.64s-5.87-.91-6.62-3.54c-.92-3.21,2-6.14,4.59-8.23l8.28-6.63a20.3,20.3,0,0,1,5.07-3.28,6.77,6.77,0,0,1,5.86.2,6.28,6.28,0,0,1,2.76,5.47,11.76,11.76,0,0,1-2,6,21,21,0,0,1-13.69,9.3"/><path class="cls-4" d="M218.28,288h-60a8,8,0,1,0,0,16h22v62h16V304h22a8,8,0,0,0,0-16Z"/><path class="cls-9" d="M159.19,99.07c.24-6-6.15-10.74-12.14-10.37s-11.14,4.59-14.53,9.54-5.44,10.67-8.11,16-6.24,10.63-11.56,13.41-12.71,2.28-16.38-2.46a13.2,13.2,0,0,0-1.36,11.86,18.1,18.1,0,0,0,7.94,9.22,21.35,21.35,0,0,0,4.59,2,19,19,0,0,1,2.77-5,15.55,15.55,0,0,0-.6,5.51,18.53,18.53,0,0,0,7.49-.12,16,16,0,0,0,11.07-9c2.24-5.32,1.1-11.38,1.58-17.13s3.94-12.33,9.71-12.42c4.4-.07,3.82.29,6.6,3.69"/><path class="cls-9" d="M199.11,130.59a26,26,0,0,1-26,26c-14.36,0-28-16.64-28-31s13.64-21,28-21A26,26,0,0,1,199.11,130.59Z"/><circle class="cls-8" cx="180.95" cy="137.45" r="24.81"/><path class="cls-9" d="M212.11,133.59c-7.34,2-14.76,4.11-17.62,0a22.66,22.66,0,0,0-3.11-7.66,31,31,0,0,1-1.83,7.66c-9.28,2-18,2.5-25.44,0a14.23,14.23,0,0,0-1.75,6.06,9.85,9.85,0,0,0-1.16-.61,1.94,1.94,0,0,0-1.58-.14,1.37,1.37,0,0,0-.65,1,3.75,3.75,0,0,0,.06,1.25,9.53,9.53,0,0,0,1.25,4.06,3.71,3.71,0,0,0,2.51,1.61c1,5.85,9.32,13.76,9.32,13.76-25,1-25-16-25-32l3-6h10v-13h28A24,24,0,0,1,212.11,133.59Z"/><path class="cls-6" d="M440,541.76,1.2,542.07a1.19,1.19,0,0,1,0-2.38h0L440,539.38a1.19,1.19,0,0,1,0,2.38Z"/><path class="cls-6" d="M733,541.76l-226.75.31a1.19,1.19,0,0,1,0-2.38h0L733,539.38a1.19,1.19,0,0,1,0,2.38Z"/><path class="cls-2" d="M450,182.85H364a13.54,13.54,0,0,1-13.52-13.52v-57A13.54,13.54,0,0,1,364,98.85h86a13.54,13.54,0,0,1,13.53,13.52v57A13.54,13.54,0,0,1,450,182.85Zm-86-82a11.53,11.53,0,0,0-11.52,11.52v57A11.53,11.53,0,0,0,364,180.85h86a11.54,11.54,0,0,0,11.53-11.52v-57A11.54,11.54,0,0,0,450,100.85Z"/><rect class="cls-2" x="366.5" y="116.85" width="22.99" height="2"/><rect class="cls-2" x="366.5" y="124.85" width="51" height="2"/><rect class="cls-2" x="366.5" y="131.85" width="51" height="2"/><rect class="cls-2" x="366.5" y="138.85" width="65" height="2"/><rect class="cls-2" x="366.5" y="145.85" width="34" height="2"/><rect class="cls-2" x="366.5" y="152.85" width="62" height="2"/><rect class="cls-2" x="366.5" y="159.85" width="11" height="2"/><path class="cls-3" d="M365.75,73.81a.39.39,0,0,1-.27-.11l-2.13-2.18a.39.39,0,0,1,0-.53l2.13-2.18a.37.37,0,0,1,.54.52l-1.88,1.92L366,73.17a.38.38,0,0,1-.27.64Z"/><path class="cls-3" d="M369.33,73.81a.4.4,0,0,1-.26-.11.38.38,0,0,1,0-.53l1.87-1.92-1.87-1.92a.37.37,0,0,1,.53-.52L371.74,71a.39.39,0,0,1,0,.53L369.6,73.7a.39.39,0,0,1-.27.11Z"/><path class="cls-3" d="M481,68.4h-4a.82.82,0,0,0-.82.81v4A.82.82,0,0,0,477,74h4a.82.82,0,0,0,.82-.81v-4A.82.82,0,0,0,481,68.4Z"/><path class="cls-3" d="M471.24,68.4h-4a.82.82,0,0,0-.82.81v4a.82.82,0,0,0,.82.81h4a.82.82,0,0,0,.82-.81v-4A.82.82,0,0,0,471.24,68.4Z"/><path class="cls-3" d="M490.12,68.58h-4a.82.82,0,0,0-.82.82v4a.82.82,0,0,0,.82.82h4a.82.82,0,0,0,.82-.82v-4A.82.82,0,0,0,490.12,68.58Z"/><path class="cls-3" d="M430.32,70.09H398.61a1,1,0,0,0,0,2h31.71a1,1,0,0,0,0-2Z"/></svg>