<svg id="Layer_1" data-name="Layer 1" xmlns="http://www.w3.org/2000/svg" viewBox="0 0 802.61 578"><defs><style>.cls-1{fill:#f2f2f2;}.cls-2{fill:#ccc;}.cls-3{fill:#3f3d56;}.cls-4{fill:#2f2e41;}.cls-5{fill:#f54394;}.cls-6{fill:#e6e6e6;}.cls-7{fill:#12c2e9;}.cls-8{fill:#a0616a;}.cls-9{opacity:0.2;isolation:isolate;}</style></defs><path class="cls-1" d="M690.31,289a287.86,287.86,0,0,1-68.09,186.34c-1.6,1.9-3.23,3.77-4.89,5.63a290.63,290.63,0,0,1-67.49,56q-8.67,5.2-17.72,9.81l-1.84.92-2.21,1.09A286.48,286.48,0,0,1,480.55,567c-1.7.48-3.41,1-5.11,1.4a288.44,288.44,0,0,1-65.84,9.49l-3.4.07-1.15,0-3.74,0a288.92,288.92,0,0,1-69.54-8.43q-3.42-.84-6.81-1.77a285.17,285.17,0,0,1-35-12q-9-3.75-17.68-8.09c-1.31-.66-2.62-1.32-3.91-2-.55-.27-1.09-.56-1.63-.84a290.4,290.4,0,0,1-81.65-64.06c-1.6-1.79-3.17-3.61-4.72-5.44C77.48,353.32,93,171,215,68.06q7.31-6.15,15-11.82c1.64-1.21,3.29-2.41,5-3.58l1-.69A286.68,286.68,0,0,1,333,8.12c2-.49,4-.95,6-1.38a291.87,291.87,0,0,1,114.68-2c2,.37,4,.75,6,1.16a287.27,287.27,0,0,1,97.1,39.43c.66.42,1.32.84,2,1.28,1.33.86,2.66,1.74,4,2.63A288.7,288.7,0,0,1,690.31,289Z"/><path class="cls-2" d="M328.31,438.51l-92.37,8.2-1,.09V52.66l1-.69A287.86,287.86,0,0,1,298,19l4.72,65.1.43,6,4.67,64.56,1.44,19.86,18.93,261.7Z"/><path class="cls-2" d="M556.74,45.32c.66.42,1.32.84,2,1.28V446.8l-2-.18-91.37-8.11.17-2.3,18.93-261.7,1.44-19.86,4.67-64.56.43-6L496,15.86A288.16,288.16,0,0,1,556.74,45.32Z"/><path class="cls-2" d="M556.74,45.32V452.26c0,7.81-5.38,14.16-12,14.16H247.94c-5.48,0-10.13-4.36-11.54-10.31a15.6,15.6,0,0,1-.46-3.85V52l-1,.69c-1.67,1.17-3.32,2.37-5,3.58v396a22.88,22.88,0,0,0,6.18,16,17,17,0,0,0,7.78,4.66,15.34,15.34,0,0,0,4,.53h296.8a15.47,15.47,0,0,0,4-.53c8-2.15,14-10.59,14-20.66v-403c-1.31-.89-2.64-1.77-4-2.63C558.06,46.16,557.4,45.74,556.74,45.32Z"/><rect class="cls-2" x="232.96" y="84.13" width="326.75" height="5.96"/><path class="cls-2" d="M333,8.12c2-.49,4-.95,6-1.38V168.55h-6Z"/><path class="cls-2" d="M453.68,4.73c2,.37,4,.75,6,1.16V168.55h-6Z"/><path class="cls-2" d="M597,436.21H205.65a26.82,26.82,0,1,0,0,53.64H597a26.79,26.79,0,0,0,20.12-9.11,27.78,27.78,0,0,0,3-4.18,26.1,26.1,0,0,0,1.75-3.56A26.81,26.81,0,0,0,597,436.21Z"/><rect class="cls-2" x="234.95" y="154.65" width="324.77" height="19.86"/><path class="cls-2" d="M394.35,148.69h6a10.92,10.92,0,0,1,10.92,10.92h-27.8A10.92,10.92,0,0,1,394.35,148.69Z"/><path class="cls-3" d="M622.22,475.34a290.09,290.09,0,0,1-28.12,29H208.52a287.89,287.89,0,0,1-28.12-29Z"/><path class="cls-4" d="M433.59,375.07H368.67a3.26,3.26,0,0,0-1,.16,3.44,3.44,0,0,0-2.43,3.3V481.09h71.85V378.53a3.48,3.48,0,0,0-3.47-3.46ZM409,425.67a7.58,7.58,0,0,1-1.56,4.6,7.67,7.67,0,0,1-13.78-4.6v-11.9a7.67,7.67,0,0,1,15.34,0Z"/><path class="cls-3" d="M365,477.81v9.89a1.94,1.94,0,0,0,1.93,1.94h68.43a2,2,0,0,0,1.93-1.94v-9.89Z"/><path class="cls-3" d="M541.09,215H263.59a9,9,0,0,0-9,9V411.27a9,9,0,0,0,9,9h277.5a9,9,0,0,0,9-9V224A9,9,0,0,0,541.09,215Z"/><path class="cls-5" d="M538.77,221.52H265.9a4.82,4.82,0,0,0-4.81,4.82V409a4.81,4.81,0,0,0,4.81,4.81H538.77a4.82,4.82,0,0,0,4.81-4.81V226.34A4.83,4.83,0,0,0,538.77,221.52Z"/><path class="cls-4" d="M488.55,489.48l-2.52-12a3,3,0,0,0-1.86-2.17,3,3,0,0,0-1.06-.2H325.8a2.89,2.89,0,0,0-1.06.2,3,3,0,0,0-1.86,2.17l-2.52,12a3,3,0,0,0,2.31,3.54,3.08,3.08,0,0,0,.61.06H485.62a3,3,0,0,0,2.32-1.11A3,3,0,0,0,488.55,489.48Z"/><rect class="cls-3" x="326.95" y="477.3" width="5" height="3" rx="0.49"/><rect class="cls-3" x="336.95" y="477.3" width="5" height="3" rx="0.49"/><rect class="cls-3" x="346.95" y="477.3" width="5" height="3" rx="0.49"/><rect class="cls-3" x="356.95" y="477.3" width="5" height="3" rx="0.49"/><rect class="cls-3" x="366.95" y="477.3" width="5" height="3" rx="0.49"/><rect class="cls-3" x="376.95" y="477.3" width="5" height="3" rx="0.49"/><rect class="cls-3" x="386.95" y="477.3" width="5" height="3" rx="0.49"/><rect class="cls-3" x="396.95" y="477.3" width="5" height="3" rx="0.49"/><rect class="cls-3" x="406.95" y="477.3" width="5" height="3" rx="0.49"/><rect class="cls-3" x="416.95" y="477.3" width="5" height="3" rx="0.49"/><rect class="cls-3" x="426.95" y="477.3" width="5" height="3" rx="0.49"/><rect class="cls-3" x="436.95" y="477.3" width="5" height="3" rx="0.49"/><rect class="cls-3" x="446.95" y="477.3" width="5" height="3" rx="0.49"/><rect class="cls-3" x="456.95" y="477.3" width="5" height="3" rx="0.49"/><rect class="cls-3" x="466.95" y="477.3" width="5" height="3" rx="0.49"/><rect class="cls-3" x="476.95" y="477.3" width="5" height="3" rx="0.49"/><rect class="cls-3" x="326.83" y="482.3" width="5" height="3" rx="0.49"/><rect class="cls-3" x="336.83" y="482.3" width="5" height="3" rx="0.49"/><rect class="cls-3" x="346.83" y="482.3" width="5" height="3" rx="0.49"/><rect class="cls-3" x="356.83" y="482.3" width="5" height="3" rx="0.49"/><rect class="cls-3" x="366.83" y="482.3" width="5" height="3" rx="0.49"/><rect class="cls-3" x="376.83" y="482.3" width="5" height="3" rx="0.49"/><rect class="cls-3" x="386.83" y="482.3" width="5" height="3" rx="0.49"/><rect class="cls-3" x="396.83" y="482.3" width="5" height="3" rx="0.49"/><rect class="cls-3" x="406.83" y="482.3" width="5" height="3" rx="0.49"/><rect class="cls-3" x="416.83" y="482.3" width="5" height="3" rx="0.49"/><rect class="cls-3" x="426.83" y="482.3" width="5" height="3" rx="0.49"/><rect class="cls-3" x="436.83" y="482.3" width="5" height="3" rx="0.49"/><rect class="cls-3" x="446.83" y="482.3" width="5" height="3" rx="0.49"/><rect class="cls-3" x="456.83" y="482.3" width="5" height="3" rx="0.49"/><rect class="cls-3" x="466.83" y="482.3" width="5" height="3" rx="0.49"/><rect class="cls-3" x="476.83" y="482.3" width="5" height="3" rx="0.49"/><rect class="cls-3" x="374.83" y="488.3" width="40" height="3" rx="0.49"/><path class="cls-3" d="M525.05,246.68H269.73a1,1,0,0,1,0-2H525.05a1,1,0,0,1,0,2Z"/><ellipse class="cls-3" cx="287.11" cy="233.38" rx="5.95" ry="6.08"/><ellipse class="cls-3" cx="307.67" cy="233.38" rx="5.95" ry="6.08"/><ellipse class="cls-3" cx="328.22" cy="233.38" rx="5.95" ry="6.08"/><path class="cls-3" d="M512.68,228.8h-14.6a1.11,1.11,0,0,0,0,2.21h14.6a1.11,1.11,0,0,0,0-2.21Z"/><path class="cls-3" d="M512.68,233h-14.6a1.11,1.11,0,0,0,0,2.21h14.6a1.11,1.11,0,0,0,0-2.21Z"/><path class="cls-3" d="M512.68,237.1h-14.6a1.11,1.11,0,0,0,0,2.21h14.6a1.11,1.11,0,0,0,0-2.21Z"/><path class="cls-6" d="M286.5,270.27h5.25a2.88,2.88,0,0,1,2.88,2.88h0a2.88,2.88,0,0,1-2.88,2.88H286.5a2.88,2.88,0,0,1-2.88-2.88h0A2.88,2.88,0,0,1,286.5,270.27Z"/><path class="cls-6" d="M346.5,270.27h5.25a2.88,2.88,0,0,1,2.88,2.88h0a2.88,2.88,0,0,1-2.88,2.88H346.5a2.88,2.88,0,0,1-2.88-2.88h0A2.88,2.88,0,0,1,346.5,270.27Z"/><path class="cls-6" d="M363.5,270.27h5.25a2.88,2.88,0,0,1,2.88,2.88h0a2.88,2.88,0,0,1-2.88,2.88H363.5a2.88,2.88,0,0,1-2.88-2.88h0A2.88,2.88,0,0,1,363.5,270.27Z"/><path class="cls-6" d="M302.82,269.79h32.61a2.88,2.88,0,0,1,2.88,2.88h0a2.88,2.88,0,0,1-2.88,2.88H302.82a2.88,2.88,0,0,1-2.88-2.88h0A2.88,2.88,0,0,1,302.82,269.79Z"/><path class="cls-6" d="M382.82,269.79h32.61a2.88,2.88,0,0,1,2.88,2.88h0a2.88,2.88,0,0,1-2.88,2.88H382.82a2.88,2.88,0,0,1-2.88-2.88h0A2.88,2.88,0,0,1,382.82,269.79Z"/><path class="cls-6" d="M302.5,283.27h5.25a2.88,2.88,0,0,1,2.88,2.88h0a2.88,2.88,0,0,1-2.88,2.88H302.5a2.88,2.88,0,0,1-2.88-2.88h0A2.88,2.88,0,0,1,302.5,283.27Z"/><path class="cls-6" d="M362.5,283.27h5.25a2.88,2.88,0,0,1,2.88,2.88h0a2.88,2.88,0,0,1-2.88,2.88H362.5a2.88,2.88,0,0,1-2.88-2.88h0A2.88,2.88,0,0,1,362.5,283.27Z"/><path class="cls-6" d="M379.5,283.27h5.25a2.88,2.88,0,0,1,2.88,2.88h0a2.88,2.88,0,0,1-2.88,2.88H379.5a2.88,2.88,0,0,1-2.88-2.88h0A2.88,2.88,0,0,1,379.5,283.27Z"/><path class="cls-6" d="M318.82,282.79h32.61a2.88,2.88,0,0,1,2.88,2.88h0a2.88,2.88,0,0,1-2.88,2.88H318.82a2.88,2.88,0,0,1-2.88-2.88h0A2.88,2.88,0,0,1,318.82,282.79Z"/><path class="cls-6" d="M398.82,282.79h32.61a2.88,2.88,0,0,1,2.88,2.88h0a2.88,2.88,0,0,1-2.88,2.88H398.82a2.88,2.88,0,0,1-2.88-2.88h0A2.88,2.88,0,0,1,398.82,282.79Z"/><path class="cls-6" d="M318.5,296.27h5.25a2.88,2.88,0,0,1,2.88,2.88h0a2.88,2.88,0,0,1-2.88,2.88H318.5a2.88,2.88,0,0,1-2.88-2.88h0A2.88,2.88,0,0,1,318.5,296.27Z"/><path class="cls-6" d="M378.5,296.27h5.25a2.88,2.88,0,0,1,2.88,2.88h0a2.88,2.88,0,0,1-2.88,2.88H378.5a2.88,2.88,0,0,1-2.88-2.88h0A2.88,2.88,0,0,1,378.5,296.27Z"/><path class="cls-6" d="M395.5,296.27h5.25a2.88,2.88,0,0,1,2.88,2.88h0a2.88,2.88,0,0,1-2.88,2.88H395.5a2.88,2.88,0,0,1-2.88-2.88h0A2.88,2.88,0,0,1,395.5,296.27Z"/><path class="cls-6" d="M334.82,295.79h32.61a2.88,2.88,0,0,1,2.88,2.88h0a2.88,2.88,0,0,1-2.88,2.88H334.82a2.88,2.88,0,0,1-2.88-2.88h0A2.88,2.88,0,0,1,334.82,295.79Z"/><path class="cls-6" d="M414.82,295.79h32.61a2.88,2.88,0,0,1,2.88,2.88h0a2.88,2.88,0,0,1-2.88,2.88H414.82a2.88,2.88,0,0,1-2.88-2.88h0A2.88,2.88,0,0,1,414.82,295.79Z"/><path class="cls-6" d="M334.5,309.27h5.25a2.88,2.88,0,0,1,2.88,2.88h0a2.88,2.88,0,0,1-2.88,2.88H334.5a2.88,2.88,0,0,1-2.88-2.88h0A2.88,2.88,0,0,1,334.5,309.27Z"/><path class="cls-6" d="M394.5,309.27h5.25a2.88,2.88,0,0,1,2.88,2.88h0a2.88,2.88,0,0,1-2.88,2.88H394.5a2.88,2.88,0,0,1-2.88-2.88h0A2.88,2.88,0,0,1,394.5,309.27Z"/><path class="cls-6" d="M411.5,309.27h5.25a2.88,2.88,0,0,1,2.88,2.88h0a2.88,2.88,0,0,1-2.88,2.88H411.5a2.88,2.88,0,0,1-2.88-2.88h0A2.88,2.88,0,0,1,411.5,309.27Z"/><path class="cls-6" d="M350.82,308.79h32.61a2.88,2.88,0,0,1,2.88,2.88h0a2.88,2.88,0,0,1-2.88,2.88H350.82a2.88,2.88,0,0,1-2.88-2.88h0A2.88,2.88,0,0,1,350.82,308.79Z"/><path class="cls-6" d="M346.5,361h5.25a2.88,2.88,0,0,1,2.88,2.88h0a2.88,2.88,0,0,1-2.88,2.88H346.5a2.88,2.88,0,0,1-2.88-2.88h0A2.88,2.88,0,0,1,346.5,361Z"/><path class="cls-6" d="M363.5,361h5.25a2.88,2.88,0,0,1,2.88,2.88h0a2.88,2.88,0,0,1-2.88,2.88H363.5a2.88,2.88,0,0,1-2.88-2.88h0A2.88,2.88,0,0,1,363.5,361Z"/><path class="cls-6" d="M382.82,361.45h32.61a2.88,2.88,0,0,1,2.88,2.88h0a2.88,2.88,0,0,1-2.88,2.88H382.82a2.88,2.88,0,0,1-2.88-2.88h0A2.88,2.88,0,0,1,382.82,361.45Z"/><path class="cls-6" d="M286.5,361h5.25a2.88,2.88,0,0,1,2.88,2.88h0a2.88,2.88,0,0,1-2.88,2.88H286.5a2.88,2.88,0,0,1-2.88-2.88h0A2.88,2.88,0,0,1,286.5,361Z"/><path class="cls-6" d="M302.82,361.45h32.61a2.88,2.88,0,0,1,2.88,2.88h0a2.88,2.88,0,0,1-2.88,2.88H302.82a2.88,2.88,0,0,1-2.88-2.88h0A2.88,2.88,0,0,1,302.82,361.45Z"/><path class="cls-6" d="M302.5,348h5.25a2.88,2.88,0,0,1,2.88,2.88h0a2.88,2.88,0,0,1-2.88,2.88H302.5a2.88,2.88,0,0,1-2.88-2.88h0A2.88,2.88,0,0,1,302.5,348Z"/><path class="cls-6" d="M362.5,348h5.25a2.88,2.88,0,0,1,2.88,2.88h0a2.88,2.88,0,0,1-2.88,2.88H362.5a2.88,2.88,0,0,1-2.88-2.88h0A2.88,2.88,0,0,1,362.5,348Z"/><path class="cls-6" d="M379.5,348h5.25a2.88,2.88,0,0,1,2.88,2.88h0a2.88,2.88,0,0,1-2.88,2.88H379.5a2.88,2.88,0,0,1-2.88-2.88h0A2.88,2.88,0,0,1,379.5,348Z"/><path class="cls-6" d="M318.82,348.45h32.61a2.88,2.88,0,0,1,2.88,2.88h0a2.88,2.88,0,0,1-2.88,2.88H318.82a2.88,2.88,0,0,1-2.88-2.88h0A2.88,2.88,0,0,1,318.82,348.45Z"/><path class="cls-6" d="M318.5,335h5.25a2.88,2.88,0,0,1,2.88,2.88h0a2.88,2.88,0,0,1-2.88,2.88H318.5a2.88,2.88,0,0,1-2.88-2.88h0A2.88,2.88,0,0,1,318.5,335Z"/><path class="cls-6" d="M378.5,335h5.25a2.88,2.88,0,0,1,2.88,2.88h0a2.88,2.88,0,0,1-2.88,2.88H378.5a2.88,2.88,0,0,1-2.88-2.88h0A2.88,2.88,0,0,1,378.5,335Z"/><path class="cls-6" d="M395.5,335h5.25a2.88,2.88,0,0,1,2.88,2.88h0a2.88,2.88,0,0,1-2.88,2.88H395.5a2.88,2.88,0,0,1-2.88-2.88h0A2.88,2.88,0,0,1,395.5,335Z"/><path class="cls-6" d="M334.82,335.45h32.61a2.88,2.88,0,0,1,2.88,2.88h0a2.88,2.88,0,0,1-2.88,2.88H334.82a2.88,2.88,0,0,1-2.88-2.88h0A2.88,2.88,0,0,1,334.82,335.45Z"/><path class="cls-6" d="M334.5,322h5.25a2.88,2.88,0,0,1,2.88,2.88h0a2.88,2.88,0,0,1-2.88,2.88H334.5a2.88,2.88,0,0,1-2.88-2.88h0A2.88,2.88,0,0,1,334.5,322Z"/><path class="cls-6" d="M394.5,322h5.25a2.88,2.88,0,0,1,2.88,2.88h0a2.88,2.88,0,0,1-2.88,2.88H394.5a2.88,2.88,0,0,1-2.88-2.88h0A2.88,2.88,0,0,1,394.5,322Z"/><path class="cls-6" d="M411.5,322h5.25a2.88,2.88,0,0,1,2.88,2.88h0a2.88,2.88,0,0,1-2.88,2.88H411.5a2.88,2.88,0,0,1-2.88-2.88h0A2.88,2.88,0,0,1,411.5,322Z"/><path class="cls-6" d="M350.82,322.45h32.61a2.88,2.88,0,0,1,2.88,2.88h0a2.88,2.88,0,0,1-2.88,2.88H350.82a2.88,2.88,0,0,1-2.88-2.88h0A2.88,2.88,0,0,1,350.82,322.45Z"/><path class="cls-7" d="M528.12,548.77l-1.84.92c-15.8,7.9-28.44,12.39-45.73,17.31-1.46-16.3-2.87-45-4.24-62.71-.36-4.61-.72-8.48-1.07-11.21a15.47,15.47,0,0,0-.88-4.25l.06,4.25.15,11.21.87,64.11a288.44,288.44,0,0,1-65.84,9.49l-3.4.07-1.15,0-3.74,0a288.92,288.92,0,0,1-69.54-8.43c.49-16.13,1-44.46,1.45-65.28.1-4.07.19-7.86.29-11.21.19-7.16.39-12.32.58-14.05a4.28,4.28,0,0,0-.39,1,96.07,96.07,0,0,0-1.89,13.08c-.35,3.35-.7,7.14-1.05,11.21-1.86,21.63-3.8,51-5.8,63.51a285.17,285.17,0,0,1-35-12q-9-3.75-17.68-8.09c1.1-7.2,2.25-15.27,3.43-23.64.92-6.49,1.87-13.16,2.84-19.75,1.5-10.18,3-20.16,4.6-29,2.28-12.84,4.62-23.16,6.94-27.9,2.2-4.5,4.4-8.94,6.53-13.19.74-1.49,1.48-3,2.2-4.39l.51-1c1.53-3,3-5.89,4.42-8.59,1.21-2.31,2.36-4.49,3.45-6.5,2.64-4.88,4.88-8.77,6.54-11.23a55.26,55.26,0,0,1,29.28-22.21l.3-.08.21.09L364,374.06l3-.92,2-.62,7.08-5.39,3.85-2.93,3.61-2.75,7.06-5.37,43.71,2.69,8.51,20.49,19.06,7,.33-.15.29-.12.3.08a55.38,55.38,0,0,1,29.28,22.21c.94,1.41,2.08,3.27,3.37,5.52,1.1,1.91,2.3,4.09,3.6,6.5,1.85,3.43,3.87,7.3,6,11.49l1.43,2.81q1.33,2.64,2.71,5.39c2.13,4.25,4.33,8.69,6.53,13.2,1.91,3.91,3.84,11.95,5.74,22.18,1.57,8.5,3.13,18.52,4.64,29,2,13.52-.13,29.71,1.66,42.15C527.89,547.23,528,548,528.12,548.77Z"/><circle class="cls-8" cx="401.92" cy="288.89" r="50.84"/><path class="cls-4" d="M485.76,221.52a27,27,0,0,0-4-6.5c-7.72-9.43-21.76-13.58-36.17-2.42a15.3,15.3,0,0,0-8.35.48,12.74,12.74,0,0,0-3.52,1.94,15.83,15.83,0,0,0-4.94,6.5,15.17,15.17,0,0,0-1.1,4.23,50.94,50.94,0,0,0-11.23-4.23,60.32,60.32,0,0,0-29.13,0,36.79,36.79,0,0,0-8.78,3.48c-4.68,2.7-7.37,6.11-7.85,9.9-6.75.38-13.77,3.93-19,9.75-.59.65-1.16,1.33-1.69,2a32.64,32.64,0,0,0-6.72,20.05V268h1.27a27,27,0,0,1,10.15,2,28,28,0,0,1,5.89,3.25A29.1,29.1,0,0,1,364,276a33.87,33.87,0,0,1,6.12,8.05,37.52,37.52,0,0,1,4.08,24.71,36.72,36.72,0,0,1-1.52,5.76,37.9,37.9,0,0,1-3.71,7.63l-.17.27c-.67,1.07-1.31,2.16-1.91,3.26-.45.82-.87,1.66-1.26,2.5a51.24,51.24,0,0,0-2.88,7.24A52.87,52.87,0,0,0,360.3,349c-.07,1.22-.09,2.44-.05,3.66a51.68,51.68,0,0,0,1,9.36l.27,1.25.73,3.19,1.73,7.61,1.2,5.24,1.11,4.86,1.64-2.35c.56-.8,2-3.26,3.86-6.74,1.25-2.27,2.7-5,4.27-7.94,2.19-4.15,4.59-8.78,6.94-13.4,1-1.87,1.89-3.73,2.8-5.55,1.72-3.45,3.34-6.78,4.73-9.74,1.28-2.73,2.37-5.15,3.18-7.09.25,1.27.46,2.56.62,3.86s.31,2.66.38,4c0,.2,0,.41,0,.61l0,.82v.24l1.06.14a93.49,93.49,0,0,0,18.4.14h0a74.93,74.93,0,0,0,23.56-5.71,49.52,49.52,0,0,0,11.8-7.24,41.43,41.43,0,0,0,4.66-4.52c.36-.41.71-.82,1.05-1.24a41.57,41.57,0,0,0,5.05-7.9,42.36,42.36,0,0,0,2.34-5.76c3.84-11.63,3.62-26.14-.66-43.38a10,10,0,0,0,3.27-1.26c3.14-1.89,5.32-5.64,6-10.22l1.08.29a30.21,30.21,0,0,0,10-7.54c.54-.65,1.06-1.33,1.54-2C488.89,237.45,488.93,228.81,485.76,221.52Z"/><polygon class="cls-9" points="318.63 475.3 327.12 442.5 334.63 470.8 318.63 475.3"/><path class="cls-4" d="M544.74,453.93c-3,41.88.11,60.32-16.67,94.85A286.48,286.48,0,0,1,480.55,567c-1.7.48-3.41,1-5.11,1.4a288.44,288.44,0,0,1-65.84,9.49l-3.4.07-1.15,0-3.74,0a288.92,288.92,0,0,1-69.54-8.43q-3.42-.84-6.81-1.77a285.17,285.17,0,0,1-35-12q-9-3.75-17.68-8.09c-1.31-.66-2.62-1.32-3.91-2C261.77,534,258,519.84,257.92,502.8,262.51,473.44,534.6,428.61,544.74,453.93Z"/><path class="cls-9" d="M544.73,461.1c.15-2.59.33-5.27.53-8.06C535.12,427.72,263,472.55,258.44,501.91c0,2.69.13,5.31.32,7.86C269.88,480.79,528.37,438.18,544.73,461.1Z"/><path class="cls-4" d="M275.4,342.15a6.33,6.33,0,0,0-6.75-6.81,5.69,5.69,0,0,0-1,.12l-39.76,9a6.59,6.59,0,0,0-4.21,3.24,8.3,8.3,0,0,0-1.72.25,9.66,9.66,0,1,0,4.27,18.85,9.8,9.8,0,0,0,3.89-1.89l13.48,37.94a6.33,6.33,0,0,0,6.94,3.05L276.37,400a6.44,6.44,0,0,0,4.94-5.72Zm-49.78,21.92a6.91,6.91,0,0,1-3.08-13.47c.13,0,.25,0,.38,0a6.49,6.49,0,0,0,.85,3.27l4.93,8.6A6.4,6.4,0,0,1,225.62,364.07Z"/><path class="cls-3" d="M268.65,335.34c.38,5-8.23,10.8-19.76,13.09-10.58,2.17-20.07.66-22.74-3.29a6,6,0,0,1,1.73-.7l39.76-9A5.69,5.69,0,0,1,268.65,335.34Z"/><path class="cls-8" d="M241.15,462.91l22.33-11.17-18.61-50.25L240,376.15a19.16,19.16,0,0,0-31.29-10.91h0a19.17,19.17,0,0,0-2.49,26.52l18.21,22.76Z"/><path class="cls-7" d="M263.48,442.43,233.7,457.32l22.6,70.81a31,31,0,0,0,22.34,20.72h0a31,31,0,0,0,33.74-14.2L372.3,431.94a31.63,31.63,0,0,0-10.19-43h0a31.64,31.64,0,0,0-43.64,9.8,33.13,33.13,0,0,0-1.66,3l-36.58,77.94Z"/><path class="cls-5" d="M254.27,378.44a.45.45,0,0,1-.16,0l-6.5-2.23a.51.51,0,0,1-.31-.64.59.59,0,0,1,.1-.17l4.84-5.27a.5.5,0,0,1,.74.67h0l-4.31,4.7,5.78,2a.5.5,0,0,1,.31.63A.5.5,0,0,1,254.27,378.44Z"/><path class="cls-5" d="M263.18,376.62a.51.51,0,0,1-.5-.5.48.48,0,0,1,.16-.36l4.39-4.25-5.9-2.43a.5.5,0,1,1,.38-.93h0l6.61,2.73a.5.5,0,0,1,.27.65,1,1,0,0,1-.11.17l-5,4.78A.5.5,0,0,1,263.18,376.62Z"/><path class="cls-5" d="M255.64,381.5l-.15,0a.51.51,0,0,1-.33-.63h0l4.61-15a.5.5,0,0,1,1,.3l-4.61,15A.5.5,0,0,1,255.64,381.5Z"/></svg>