<svg id="Layer_1" data-name="Layer 1" xmlns="http://www.w3.org/2000/svg" viewBox="0 0 80 80"><defs><style>.cls-1{fill:#f7f7f7;}.cls-2{fill:#f54394;}.cls-3{fill:#12c2e9;}</style></defs><title>muakichhoat</title><circle class="cls-1" cx="40" cy="40" r="40"/><path class="cls-2" d="M73.55,51v1.19A4.78,4.78,0,0,1,68.79,57H30.73A4.78,4.78,0,0,1,26,52.22V51a1.19,1.19,0,0,1,1.19-1.18H45a2.51,2.51,0,0,0,2.43,2.37H51.9a2.33,2.33,0,0,0,2.43-2.37h18A1.19,1.19,0,0,1,73.55,51Zm-4.76-3.56H30.73v-25a3.59,3.59,0,0,1,3.57-3.57H65.22a3.59,3.59,0,0,1,3.57,3.57ZM64,23.68H35.49v19H64Z"/><path class="cls-3" d="M19.08,49.66l.39,1.9h16a1.43,1.43,0,0,1,1.4,1.75l-.33,1.44a3.33,3.33,0,1,1-4.78,3.09,3.29,3.29,0,0,1,1-2.47H20.25a3.33,3.33,0,0,1-2.49,5.7,3.33,3.33,0,0,1-1.5-6.21L12.08,34.44H7.93A1.43,1.43,0,0,1,6.5,33v-.95a1.43,1.43,0,0,1,1.43-1.43H14a1.42,1.42,0,0,1,1.39,1.14L16,34.44H39.33a1.43,1.43,0,0,1,1.39,1.74L37.91,48.55a1.43,1.43,0,0,1-1.4,1.11Zm8.83-9V38.24a1,1,0,0,0-.95-1H26a1,1,0,0,0-1,1v2.38H22.2a1,1,0,0,0-.95,1v1a1,1,0,0,0,.95,1h2.85v2.37a1,1,0,0,0,1,1H27a1,1,0,0,0,.95-1V43.48h2.85a1,1,0,0,0,.95-1v-1a1,1,0,0,0-.95-1Z"/></svg>