<?xml version="1.0" encoding="utf-8"?>
<!-- Generator: Adobe Illustrator 25.2.1, SVG Export Plug-In . SVG Version: 6.00 Build 0)  -->
<svg version="1.1" id="Layer_1" xmlns="http://www.w3.org/2000/svg" xmlns:xlink="http://www.w3.org/1999/xlink" x="0px" y="0px"
	 viewBox="0 0 320.1 316.1" style="enable-background:new 0 0 320.1 316.1;" xml:space="preserve">
<style type="text/css">
	.st0{fill:#F54394;}
	.st1{opacity:0.3;fill:#910753;}
	.st2{opacity:0.5;fill:#910753;}
	.st3{opacity:0.6;clip-path:url(#SVGID_2_);fill:#910753;}
</style>
<g>
	<path class="st0" d="M320.1,225.3V92c0-8.7-4.7-16.8-12.2-21.2L192.5,4.2c-7.6-4.4-16.9-4.4-24.4,0L52.6,70.9
		C45,75.2,40.4,83.3,40.4,92v133.3c0,8.7,4.7,16.8,12.2,21.2L168,313.1c7.6,4.4,16.9,4.4,24.4,0l115.4-66.6
		C315.5,242.1,320.1,234.1,320.1,225.3z"/>
	<path class="st1" d="M220.4,219.5h-6.1c-0.5,0-0.9-0.4-0.9-0.9v-6.1c0-0.5-0.4-0.9-0.9-0.9h-6.1c-0.5,0-0.9,0.4-0.9,0.9v6.1
		c0,0.5-0.4,0.9-0.9,0.9h-6.1c-0.5,0-0.9,0.4-0.9,0.9v6.1c0,0.5,0.4,0.9,0.9,0.9h6.1c0.5,0,0.9,0.4,0.9,0.9v6.1
		c0,0.5,0.4,0.9,0.9,0.9h6.1c0.5,0,0.9-0.4,0.9-0.9v-6.1c0-0.5,0.4-0.9,0.9-0.9h6.1c0.5,0,0.9-0.4,0.9-0.9v-6.1
		C221.3,219.9,220.9,219.5,220.4,219.5z"/>
	<path class="st2" d="M227,257.9h-10.7c-0.9,0-1.6-0.7-1.6-1.6v-10.7c0-0.9-0.7-1.6-1.6-1.6h-10.7c-0.9,0-1.6,0.7-1.6,1.6v10.7
		c0,0.9-0.7,1.6-1.6,1.6h-10.7c-0.9,0-1.6,0.7-1.6,1.6v10.7c0,0.9,0.7,1.6,1.6,1.6h10.7c0.9,0,1.6,0.7,1.6,1.6V284
		c0,0.9,0.7,1.6,1.6,1.6h10.7c0.9,0,1.6-0.7,1.6-1.6v-10.7c0-0.9,0.7-1.6,1.6-1.6H227c0.9,0,1.6-0.7,1.6-1.6v-10.7
		C228.6,258.6,227.9,257.9,227,257.9z"/>
	<g>
		<defs>
			<path id="SVGID_1_" d="M320.1,225.3V92c0-8.7-4.7-16.8-12.2-21.2L192.5,4.2c-7.6-4.4-16.9-4.4-24.4,0L52.6,70.9
				C45,75.2,40.4,83.3,40.4,92v133.3c0,8.7,4.7,16.8,12.2,21.2L168,313.1c7.6,4.4,16.9,4.4,24.4,0l115.4-66.6
				C315.5,242.1,320.1,234.1,320.1,225.3z"/>
		</defs>
		<clipPath id="SVGID_2_">
			<use xlink:href="#SVGID_1_"  style="overflow:visible;"/>
		</clipPath>
		<path class="st3" d="M296.8,235.3h-18.2c-1.5,0-2.7-1.2-2.7-2.7v-18.2c0-1.5-1.2-2.7-2.7-2.7h-18.2c-1.5,0-2.7,1.2-2.7,2.7v18.2
			c0,1.5-1.2,2.7-2.7,2.7h-18.2c-1.5,0-2.7,1.2-2.7,2.7v18.2c0,1.5,1.2,2.7,2.7,2.7h18.2c1.5,0,2.7,1.2,2.7,2.7v18.2
			c0,1.5,1.2,2.7,2.7,2.7h18.2c1.5,0,2.7-1.2,2.7-2.7v-18.2c0-1.5,1.2-2.7,2.7-2.7h18.2c1.5,0,2.7-1.2,2.7-2.7V238
			C299.5,236.5,298.3,235.3,296.8,235.3z"/>
	</g>
</g>
</svg>
