<svg xmlns="http://www.w3.org/2000/svg" viewBox="0 0 612 612.15"><defs><style>.cls-1{isolation:isolate;}.cls-2,.cls-20{fill:#5e55be;}.cls-2{opacity:0.2;mix-blend-mode:multiply;}.cls-3{fill:#ffc9b6;}.cls-4{fill:#d2daff;}.cls-5{fill:#fff;}.cls-6{fill:#2b1b8c;}.cls-7{fill:#79209e;}.cls-8{fill:#903bb7;}.cls-9{fill:#ffb9a4;}.cls-10{fill:#fe61ca;}.cls-11{fill:#ebefff;}.cls-12{fill:#12c2e9;}.cls-13{fill:#b9c8fc;}.cls-14{fill:#89dbef;}.cls-15{fill:#f0fcff;}.cls-16{fill:#3f26a8;}.cls-17{fill:#e04fb7;}.cls-18{fill:#776ed7;}.cls-19{fill:#c847ab;}.cls-21{fill:#009db7;}.cls-22{fill:#ffb19c;}.cls-23{fill:#ffc1ae;}.cls-24{fill:#c5cfff;}.cls-25{fill:#5768bc;}.cls-26{fill:#3a46cf;}.cls-27{fill:#4543af;}.cls-28{fill:#2e428e;}.cls-29{fill:#6c7eff;}</style></defs><title>quantri</title><g class="cls-1"><g id="Layer_1" data-name="Layer 1"><polygon class="cls-2" points="422.63 261.88 514.63 315.22 574.64 280.57 482.64 227.23 422.63 261.88"/><polygon class="cls-2" points="163.97 294.15 216.15 323.46 264.79 295.78 212.61 266.47 163.97 294.15"/><path class="cls-2" d="M553.59,556.7l51.8-29.91-64.84-37.6a70.09,70.09,0,0,0,5-25.78C545.56,394.15,440,338,309.83,338a435.1,435.1,0,0,0-59.29,4,35.19,35.19,0,0,1,5.58-5.18c5.58-3.7,23.81-9,31.32-11.89s8.59-11.17-1.93-19.62-23.71-2.86-31.27,2.47c-8.54,6-30.41,10.39-31.32,17.15-.72,5.36,5.38,15,11.71,19.62-93.31,16.7-160.55,63.58-160.55,118.84,0,2,.11,4.08.29,6.1L5.53,509.42l50.11,28.94,39.65-23c15.29,17.83,38.16,33.42,66.48,45.59l-16,9.24,51.81,29.91L230,581.41a425.82,425.82,0,0,0,79.87,7.4,431.07,431.07,0,0,0,69.91-5.61l48.36,28,51.8-29.91-29.65-17.19c23.12-9.14,42.95-20.49,58.47-33.45Zm-243.76-20c-78.93,0-142.91-34-142.91-76s64-76,142.91-76,142.9,34,142.9,76S388.75,536.75,309.83,536.75Z"/><path class="cls-2" d="M377,270.59c-8.54,6-34.22,13.73-35.13,20.49s7,20.3,14.57,22.12,18.8-5,24.38-8.67,27.34-15.9,34.84-18.79,11.84-11.08,1.32-19.53S384.6,265.27,377,270.59Z"/><path class="cls-3" d="M448.33,87.6c-4.44,0-6.84-1.09-11.26-1.55a7.23,7.23,0,0,0,1.3-5.41.88.88,0,0,0-1.55-.44,43.75,43.75,0,0,1-8.88,9.42c-2.24.95-8,4.41-13.61,6.46-4.87,1.79-10.7,4.76-10.7,4.76s-4,11.22-2.46,12.34,3.14,1.5,6.28.59,17.52-13.83,25-19.51c5.39-1.09,5.15.51,10.57,1.52,2.45.45,6.19-.63,8.6-1.94C455,92,451.86,87.6,448.33,87.6Z"/><path class="cls-4" d="M394.8,98s.71-2.37,3.71-1.53c1.43.4,4,.88,6.06,2.8.81.76,3.68,14,.77,16s-5.32,1.34-7.35,1.63-6-.93-5.73-3.93S394.8,98,394.8,98Z"/><path class="cls-5" d="M399.43,106.6a17,17,0,0,0-1.13-8.36c-5.85-3.95-10.11-8.21-15.81-10.89-3.88-1.83-8.74-6.85-13.17-2.88-4.73,4.23-5.82,14.78-2.2,20.42,5.2,8.07,11.58,6.21,19.43,7.77,2.74.55,6.32,1.87,9.45,2.57C398.37,112.82,399.26,110.34,399.43,106.6Z"/><path class="cls-6" d="M389.44,257.38a36.67,36.67,0,0,1-1.15,5.42c-.83,2.77.19,6.64.19,6.64a4,4,0,0,0,3.17,2.2,10,10,0,0,0,4.33-.1,32.13,32.13,0,0,0,5.42,5c3.08,2.17,9.86,3.86,11.7,3.58,3-.45,4.57-2.77,4.35-4.27s-3.74-5.64-6.62-7.43a59,59,0,0,1-7.39-6.49,35.79,35.79,0,0,1-3.67-4.77Z"/><path class="cls-7" d="M387.22,144.33s8.62,22,9.95,30.89,5.35,16.66,7,27.87.26,27.84-.49,38.79a96,96,0,0,0,.93,17.32c-7,6-15.43,3.12-18.23,1.94-.69-2.89-3.12-26-3.85-34.09a37.56,37.56,0,0,1,1.17-13.83s-11.74-25.14-15.86-35-1.31-22.14-1.31-22.14Z"/><path class="cls-6" d="M347,282.28s-1.59,5.91-1.39,9.32,1,4.24,2.05,5.39a2,2,0,0,0,2.24.65s.48,7.05,3.82,9.9,9.4,3.12,12.18,2.08.95-6.08-1.77-11-6.19-10.27-7.06-14.75C350.45,282.94,347,282.28,347,282.28Z"/><path class="cls-8" d="M356.34,153.44a65.71,65.71,0,0,0-7.59,16.47c-2.36,7.38-2,25.09-2,25.09s-.61,17.43.52,23.46,1,7.25,1,7.25-4.9,9.27-4.15,26.37a221.23,221.23,0,0,1-1,31.72s4.12,6.47,8.53,6.48c9.69,0,11.66-5.19,11.66-5.19s2.59-33.36,5.3-41.61a98.86,98.86,0,0,0,3.72-17.75l5.55-40.63s11-7.17,5.35-25.25C379.77,148.52,356.34,153.44,356.34,153.44Z"/><path class="cls-6" d="M341.74,110.59c.85-4.33,1.45-7.41,4.78-10.41,6.54-5.88,20.43-12.85,28.22-11.72,5.64,4.48,9.82,7.89,11.85,13.27,1.84,4.87,3.34,8.64,3.34,16.58a212.65,212.65,0,0,0,3.92,38.47c-1.05,2-4.42,5.69-5.89,7.18-1.53-.93-2.76-3-4.67-4.11-1.79,4.44-3.57,8.27-5.14,8.51-10.4,1.57-28.72-1.24-30-4.4.79-10.2-1.06-23.72-5.34-35.26C340.5,122.53,340.4,117.38,341.74,110.59Z"/><path class="cls-3" d="M329.86,143.55a171.88,171.88,0,0,0-4.26,19.13c-1.57,9.93-1.57,16.21-3.14,19.86s-2.7,3-5.57,7.67-3.06,8.66-3.58,10,1.83.66,1.83.66a3.3,3.3,0,0,0-.35,2.77c.44,1,1.85,0,1.85,0s-.28,1.75,1.16,1.57c1.87-.24,4.53-6.27,5.88-8.93,1.57-3.08,3.37-3.86,4.7,0s3.92,1.83,2.88,0-2.78-7.84-1.31-10.45,12.81-30.06,11.24-37.9S329.86,143.55,329.86,143.55Z"/><path class="cls-4" d="M330.56,136.56c-4.44.52-6.53,7.39-6.79,11.28s8.58,9.42,17.1,9c4.24-.21,4.33-1.63,5.37-4.6s3-7.53.45-9.29C341.54,139.43,330.56,136.56,330.56,136.56Z"/><path class="cls-9" d="M372.26,83.61s-1.13,7.44,1.6,10,2.75,7.88-2.71,9.66c-6.63,2.16-11.3-2.61-15.43-5.9,1.78-3.78,2.66-3.76,2.66-14.36C358.38,74.4,372.26,83.61,372.26,83.61Z"/><path class="cls-5" d="M365,104.61c4.43,3.81,8.55,14.34,11.54,18.46s5.76,5.62,6.89,1c1.44-5.92-.57-20.25-4.87-25.82-1.88,1.23-3.3,4.09-5.83,4.88C369.12,104.25,365.71,102.32,365,104.61Z"/><path class="cls-10" d="M375.66,109.28s.54,7.31.81,12.48c0,.27,0,.72,0,1.31,1.62,2.37,3.38,4.66,5.18,7,.63-2,1.21-4,1.71-6l-.3-1.45c-1.43-6.93-2.49-10.18-3.4-14.16.91-3.68-1-7.87-1-7.87-1.84-1.33-7.83.91-7.52,2.71C371.79,107.08,375.66,109.28,375.66,109.28Z"/><path class="cls-4" d="M358.14,90.09a15.11,15.11,0,0,0,4.7,7.08c4.13,3.11,11.9,3.62,11.9,5.74-2.26,0-2.69.13-2.69,1.76,0,3-.9,3.75-.9,3.75s-5.61-1.6-9.65-3.28C356.44,103,354.14,96,354.14,96S355.13,89.81,358.14,90.09Z"/><polygon class="cls-5" points="367.2 146.71 353.4 155.61 355.72 158.22 369.4 149.62 367.2 146.71"/><path class="cls-4" d="M374.74,90.32s3.28,3.57,4.69,5.21.58,4.67,1.29,6a18.37,18.37,0,0,1,1,2.28s-2.93-.59-3.49-2.28-3.5,1.36-3.5,1.36l-2.07-1.7s3.13-2,2.07-4.13-2.81-5-2.81-5Z"/><path class="cls-3" d="M360.26,65.24c4.11-4.54,14.93-6.4,18.81.25,2.92,5,3,13.92,2.24,18-1.66,8.6-8.72,13.72-16.85,7.11C356.7,84.32,353.19,73.08,360.26,65.24Z"/><path class="cls-6" d="M380.67,62.07c-3.4-4-4.13-5.16-8.74-6.35-5.34-1.38-18.51,2.8-16.21,11.55-6.09,2.89-4.21,9.65-2.63,12.4S358.33,88,358.33,88s3.42-4.15,4.51-15.2c2.58,2.2,9.09,3.27,12.82-1.65,5.52.7,10.78-2.05,10.83-3.62A36.46,36.46,0,0,1,380.67,62.07Z"/><path class="cls-3" d="M364.5,78.35s-2.37-3.59-4.48-.86,2.21,5.39,2.21,5.39Z"/><path class="cls-5" d="M347.11,142.77c2.77-8.22,8.36-17.54,9.33-21.78,1.54-6.8.77-12.93-3-17.78s-5.42-6.94-11.84-1.85c-7.52,6-7.87,10.73-9.91,20.12-.62,2.84-1.55,10.1-3.09,18.94,0,4.4,5.33,7.5,10.28,8.39C342.41,149.44,345.89,146.41,347.11,142.77Z"/><path class="cls-3" d="M379.7,86.9a5.94,5.94,0,0,1-2.87-2.82C376.2,86.2,372.7,88,372.7,88s2.32,2.48,4.13,1.48A9.13,9.13,0,0,0,379.7,86.9Z"/><path class="cls-11" d="M559,46.9c5.8,3.08,12,5.55,7.57,30.37s-12.8,67.59-12.8,67.59l-35-15s20.61-73.53,24.64-79.28S555.12,44.85,559,46.9Z"/><path class="cls-12" d="M564.28,274.52l.59,3.5a3.44,3.44,0,1,1-6.78,1.16l-.6-3.5Z"/><path class="cls-12" d="M557.49,275.68c.18,1.07,1.85,1.67,3.72,1.35s3.25-1.45,3.07-2.51-1.85-1.66-3.73-1.34S557.31,274.62,557.49,275.68Z"/><path class="cls-12" d="M529.4,107l4.28-.37,29.26,167.78c.11.66-.74,1.36-1.9,1.56s-2.21-.17-2.32-.84h0Z"/><path class="cls-12" d="M485.72,229.54l.6,3.49a3.44,3.44,0,1,1-6.79,1.16l-.6-3.49Z"/><path class="cls-12" d="M478.93,230.7c.18,1.06,1.85,1.66,3.72,1.34s3.25-1.44,3.07-2.5-1.85-1.67-3.73-1.35S478.75,229.63,478.93,230.7Z"/><path class="cls-12" d="M450.84,62.05l4.28-.38,29.26,167.79c.12.66-.74,1.35-1.9,1.55s-2.2-.17-2.32-.83h0Z"/><path class="cls-12" d="M500.31,308.11l-.41,3.53a3.44,3.44,0,0,0,6.84.78l.41-3.52Z"/><path class="cls-12" d="M507.15,308.9c-.12,1.07-1.75,1.76-3.64,1.55s-3.33-1.27-3.2-2.34,1.75-1.76,3.64-1.55S507.27,307.83,507.15,308.9Z"/><path class="cls-12" d="M502,308.1h0l31.37-175.51c0-.13,0-.25,0-.39h3.78c-.05.33-.07.66-.12,1L505.59,308.67h0l0,.09h0c-.14.52-.95.85-1.9.74s-1.77-.67-1.71-1.24C502,308.2,502,308.15,502,308.1Z"/><path class="cls-12" d="M419.73,262.59l-.4,3.53a3.44,3.44,0,0,0,6.84.78l.4-3.52Z"/><path class="cls-12" d="M426.57,263.38c-.12,1.07-1.75,1.76-3.64,1.55s-3.32-1.26-3.2-2.34,1.76-1.76,3.64-1.54S426.7,262.31,426.57,263.38Z"/><path class="cls-12" d="M421.45,262.58h0L452.8,87.08c0-.14,0-.26,0-.39h3.78c0,.33-.07.65-.12,1L425,263.15h0v.09h0c-.14.52-.94.85-1.9.74s-1.77-.67-1.7-1.24C421.37,262.68,421.42,262.63,421.45,262.58Z"/><polygon class="cls-11" points="421.98 163.63 523.95 222.31 534.52 216.12 432.55 157.43 421.98 163.63"/><polygon class="cls-5" points="421.98 159.75 523.95 218.44 525.07 217.77 423.11 159.08 421.98 159.75"/><polygon class="cls-12" points="534.52 216.12 534.52 217.54 523.95 223.79 523.95 218.44 525.07 217.77 525.07 221.66 534.52 216.12"/><polygon class="cls-13" points="421.98 159.81 421.98 165.1 523.95 223.79 523.95 218.49 421.98 159.81"/><polygon class="cls-14" points="432.55 157.33 534.37 216.12 561.8 64.53 459.98 5.74 432.55 157.33"/><polygon class="cls-13" points="430.71 158.63 532.52 217.42 559.95 65.83 458.14 7.04 430.71 158.63"/><polygon class="cls-12" points="433.15 156.93 459.57 10.93 460.28 11.34 434 156.59 531 212.79 530.86 213.54 433.15 156.93"/><polygon class="cls-5" points="460.28 11.34 557.28 67.54 531 212.79 434 156.59 460.28 11.34"/><polygon class="cls-12" points="559.95 65.83 561.8 64.53 534.37 216.12 532.52 217.42 559.95 65.83"/><polygon class="cls-15" points="458.14 7.04 459.98 5.74 561.8 64.53 559.95 65.83 458.14 7.04"/><polygon class="cls-4" points="468.7 12.97 549.44 59.76 524.76 195.91 444.02 149.13 468.7 12.97"/><polygon class="cls-11" points="463.67 12.97 544.41 59.76 519.73 195.91 438.99 149.13 463.67 12.97"/><polygon class="cls-12" points="451.65 132.79 459.58 137.39 457.16 150.76 449.23 146.16 451.65 132.79"/><polygon class="cls-16" points="503.23 162.24 511.15 166.83 508.73 180.2 500.8 175.61 503.23 162.24"/><polygon class="cls-17" points="467.99 117.36 475.92 121.95 469.53 157.43 461.6 152.84 467.99 117.36"/><polygon class="cls-8" points="491.68 146.37 499.61 150.97 495.55 172.87 487.63 168.27 491.68 146.37"/><polygon class="cls-12" points="478.52 132.79 486.45 137.39 481.46 164.54 473.53 159.95 478.52 132.79"/><polygon class="cls-5" points="467.8 37.07 534.86 75.93 523.01 141.78 455.94 102.91 467.8 37.07"/><polygon class="cls-12" points="469.99 25.67 537.06 64.53 536.37 68.9 469.31 30.04 469.99 25.67"/><polygon class="cls-12" points="447.18 143.96 514.24 182.83 513.9 185.01 446.83 146.15 447.18 143.96"/><polygon class="cls-17" points="460.31 101.84 474.35 75.79 475.93 85.93 489.33 67.3 492.15 85.03 498 80.08 499.66 88.96 515.09 70.18 522.15 136.4 460.31 101.84"/><polygon class="cls-8" points="455.8 102.83 467.46 81.17 469.42 101.72 486.46 78.02 489.28 95.75 495.13 90.8 499.17 112.44 515.09 95.01 519.88 139.97 455.8 102.83"/><polygon class="cls-12" points="523.47 95.75 502.87 121.33 499.57 98.13 489.5 107.56 487.21 96.24 476.9 106.36 474.25 89.86 460.56 105.59 523.01 141.78 523.47 95.75"/><polygon class="cls-4" points="519.73 195.91 524.76 195.91 549.44 59.76 544.41 59.76 519.73 195.91"/><polygon class="cls-18" points="549.44 59.76 544.41 59.76 463.67 12.97 468.7 12.97 549.44 59.76"/><path class="cls-5" d="M463.67,13l80.74,46.79s1.71-6.29,5-9.33C555.5,44.88,559,46.9,559,46.9L478.25,0S466.1-.45,463.67,13Z"/><path class="cls-12" d="M72.49,278V334.2c0,.78,1.06,1.42,2.38,1.42s2.38-.64,2.38-1.42V278Z"/><path class="cls-5" d="M111,296.56v60.27c0,.79,1.07,1.43,2.38,1.43s2.39-.64,2.39-1.43V296.56Z"/><path class="cls-5" d="M149.6,281.12v53.49c0,.79,1.07,1.43,2.38,1.43s2.38-.64,2.38-1.43V281.12Z"/><polygon class="cls-10" points="157.97 282.14 113.47 307.84 69 282.13 113.5 256.44 157.97 282.14"/><polygon class="cls-10" points="157.97 278.65 113.47 304.34 69 278.63 113.5 252.94 157.97 278.65"/><polygon class="cls-19" points="69 278.63 69 282.13 113.47 307.84 113.47 304.34 69 278.63"/><polygon class="cls-17" points="157.97 278.65 157.97 282.14 113.47 307.84 113.47 304.34 157.97 278.65"/><path class="cls-19" d="M115.4,196.22l-3.1-1.7v0a2.35,2.35,0,0,0-2.47.16l-37,21.39C70.69,217.3,69,220.53,69,223.3v55.57l3.26,1.79,41.33-27.54,1-53.39Z"/><path class="cls-17" d="M116.85,254.92V199.35c0-2.78-1.69-4.06-3.77-2.85L76,217.89c-2.08,1.2-3.77,4.43-3.77,7.21v55.56Z"/><path class="cls-3" d="M151.15,320.1a27.66,27.66,0,0,0,9.86-3.3c.17,1.86.38,3.65.63,5.31,1.76,11.34.56,13.67,7.25,17.07,6,3,6.82,4.09,10,7.69,2.27,2.58-1.05,4.34-3.78,4.22-6-.27-11.84-5.72-15.13-6.4s-7.78-1.5-7.59-5c.19-3.75,1.13-3.8,1.3-7.09C153.83,329.57,152.62,325,151.15,320.1Z"/><path class="cls-6" d="M152.73,337a20.75,20.75,0,0,1,2.52,3.51c2.74,1.37,5.89,2.16,9.48,4.25s5.86,3.38,8.27,1.44,2.61-3,2.61-3,4.1,2.18,5.23,3.75-1.79,6-7.33,5.8-8-3.46-11.22-5.56-6-2.5-8.94-4.11S152.73,337,152.73,337Z"/><path class="cls-3" d="M120.57,332.63c3.08.28,6.22-4.59,9.79-5.71-.17,1.86-.94,3.65-1,5.33-.36,11.46-2.68,17.77,3.28,22.33,5.34,4.09,5.95,5.28,8.39,9.39,1.75,3-1.83,4.07-4.49,3.45-5.81-1.35-10.59-7.79-13.7-9.06s-7.37-2.9-6.55-6.29c.88-3.66,2.17-5,3-8.18C120,340.92,121.11,337.68,120.57,332.63Z"/><path class="cls-6" d="M117.17,349.46a20.19,20.19,0,0,1,1.83,3.91c2.44,1.85,5.39,3.2,8.53,5.91s5.15,4.4,7.87,2.94,3.12-2.48,3.12-2.48,3.64,2.89,4.46,4.64-2.87,5.58-8.27,4.36-7.22-4.86-10-7.52-5.46-3.56-8-5.68S117.17,349.46,117.17,349.46Z"/><path class="cls-20" d="M169.61,282.33c-1.39-4.5-8.73-6.87-15.11-11.46-10.28-7.4-30.43-18.33-30.43-18.33s-14.8,13.43-15.42,13.63.69,14.53,18.41,12.33c8.57,7.23,23.33,13.08,28.7,15.07A49.16,49.16,0,0,0,169.61,282.33Z"/><path class="cls-20" d="M151.74,286.2c-1,1.79-2.73,6-2.75,13.78,0,8,1.86,15.92,4.57,30.22a11.63,11.63,0,0,0,9.3.89s1.5-11.74,4.15-24.45c2-9.42,3.6-21.43,2.6-24.31C163.73,285,158.12,285.59,151.74,286.2Z"/><path class="cls-18" d="M134.54,301.79c-3.21.86-6.54,2.28-9.84,2.85a23,23,0,0,0-3.07,7.49c-1.94,8-1.08,23.77-2.38,31.76,2.66,3.42,6.22,2.63,9.61.74,2.81-8.71,19.43-43.2,16-48.93C140.56,297.46,139.12,300.58,134.54,301.79Z"/><path class="cls-18" d="M132.4,308.26c-.07,1,10.55-7,12.47-12.56-6.31-8.51-13.82-13.8-26.91-24.56-1.42-8.39-8.82-12.05-15.86-14.18l.24-.21c.18-.18-12.68,4.6-12.77,4.85-3.95,10.57-3.95,23.76,11.89,28.08C112.48,303.78,127.69,308,132.4,308.26Z"/><path class="cls-19" d="M140.77,219.33c-3.65-6.62-11.64-20.6-16-24-3.68-2.88-7.45-.91-9.65-.21L112.81,207s10,13.73,17,21.89A24,24,0,0,0,140.77,219.33Z"/><path class="cls-10" d="M127.94,236.17c-1.57,4.5-2.57,9.65,1.22,19.19-5.61,6.86-12.85,9.78-24,10.05-9.34.22-14.59-1.5-18.75-4.27,0-5.05,1.73-12.63,1.71-19,0-10,.93-20.5,3.28-28.76,2-6.84,8.57-13.73,17.88-18.24,10.85-5.25,13.35-1.49,13.35-1.49s8.12,15.88,10.64,23.13c2,5.65,3.18,7.84.61,11.54C132.79,230,131.11,231.18,127.94,236.17Z"/><path class="cls-9" d="M107.28,193c.09-.51,9.28,3.53,9.28,3.7,0,2.91,1.42,4.16,3.11,6.75.88,1.34.82,4.33,2.35,7.19,1.31,2.45.64,2.1-1.26,3.42-3,2.1-8.56.75-13.54-4.46.63-.78-2.64-3.26-2.21-5C105.58,202.39,106.27,198.35,107.28,193Z"/><path class="cls-5" d="M112.64,211.8l9.77-3.22s5.86,11.09,6.52,16.34-5.58,15.92-5.58,15.92-2.64-12.25-4.55-17.56A61.23,61.23,0,0,0,112.64,211.8Z"/><path class="cls-17" d="M121.09,196.22s6,9,8.49,14a23,23,0,0,1-4,3.7l6.35,2.7a39.86,39.86,0,0,1-1.59,11.51c-1.73,5.36-7.92,14.8-7.92,14.8l.56-3.8s4.47-8.63,3.28-14.55-4.87-13.76-7.33-18.68-2.41-6-2.41-6Z"/><path class="cls-7" d="M128.85,201.61a3.32,3.32,0,0,0-1.08-1.1c1.49-2.08.17-7-3.12-6.47-4.22.73-4.4,6.73-.62,7.69a2,2,0,0,0-.17.59,2.52,2.52,0,0,0,.51,2,2.71,2.71,0,0,0,3.5.7A2.59,2.59,0,0,0,128.85,201.61Z"/><path class="cls-17" d="M107.48,193.87s-.58,2.54-1.21,4.48c.46,2,3.18,5.41,5.19,8a57.57,57.57,0,0,1,10.66,20.23c1.84,6.51.32,16.4.32,16.4a35.8,35.8,0,0,0-5.78-11.1c-1.69-2.1-5.68-8.75-5.68-8.75l4-5.88-7.22-1.37s-5.68-12.24-3.89-17C106.15,192.83,107.48,193.87,107.48,193.87Z"/><path class="cls-3" d="M127.92,184.68c-.18-3.59-1-8.1-3.78-10.64s-7.43-2.72-11-2.45c-5.49.43-9.31,6.53-8.28,13.55.94,6.48,5.36,16.45,12.6,17.74C125.55,204.33,128.19,190.14,127.92,184.68Z"/><path class="cls-3" d="M111.57,187.29s-2.36-3.76-4-1.41,0,7.1,2.07,7S111.57,187.29,111.57,187.29Z"/><path class="cls-7" d="M133.18,175.31c-1.31-2.76-3.69-5.62-7-5.85a4.51,4.51,0,0,0-.52,0,3.76,3.76,0,0,0-.9-1.82c-1.72-2-5.39-2.45-7.85-2.52-3.56-.11-8.09,1.59-9.82,4.82A14.76,14.76,0,0,0,99.27,177c-1,2-2.68,10.88.09,12.92-2.9,3.3-3.76,8.87-1.87,12.64,1.48,2.95,4.66,5.68,8.15,5.5a4.38,4.38,0,0,0,.63-.12,3.8,3.8,0,0,0,1.63.63,4.88,4.88,0,0,0,4.67-2.47,4.5,4.5,0,0,0-.18-5,3.86,3.86,0,0,0-1.63-1.19,5,5,0,0,0-.15-4.43,4.15,4.15,0,0,0-1.87-1.65,5.06,5.06,0,0,0,1.89-4.27c0-.08,0-.15-.06-.24a6,6,0,0,0,1.45.41,9.09,9.09,0,0,0,8.06-3.44l.19,0a4.81,4.81,0,0,0,4-1.31,4.46,4.46,0,0,0,.9-1.33,6.35,6.35,0,0,0,2.35,1,12.15,12.15,0,0,1,0,5.53c2.3.43,5-2.61,5.9-4.38A12.17,12.17,0,0,0,133.18,175.31Z"/><path class="cls-5" d="M174.07,239v55.45c0,.77,1.05,1.4,2.35,1.4s2.35-.63,2.35-1.4V239Z"/><path class="cls-12" d="M212.09,257.36v59.43c0,.78,1.06,1.41,2.35,1.41s2.35-.63,2.35-1.41V257.36Z"/><path class="cls-12" d="M250.12,242.13v52.75c0,.78,1,1.41,2.35,1.41s2.35-.63,2.35-1.41V242.13Z"/><polygon class="cls-10" points="258.38 243.14 214.49 268.48 170.63 243.13 214.52 217.79 258.38 243.14"/><polygon class="cls-10" points="258.38 239.69 214.49 265.03 170.63 239.68 214.52 214.34 258.38 239.69"/><polygon class="cls-19" points="170.63 239.68 170.63 243.13 214.49 268.48 214.49 265.03 170.63 239.68"/><polygon class="cls-17" points="258.38 239.69 258.38 243.14 214.49 268.48 214.49 265.03 258.38 239.69"/><path class="cls-19" d="M216.39,158.41l-3.06-1.69v0a2.32,2.32,0,0,0-2.44.17L174.35,178c-2.06,1.19-3.72,4.37-3.72,7.11v54.8l3.21,1.77,40.77-27.16,1-52.66Z"/><path class="cls-17" d="M217.83,216.29v-54.8c0-2.74-1.67-4-3.73-2.81l-36.53,21.09c-2.06,1.19-3.73,4.37-3.73,7.11v54.8Z"/><path class="cls-6" d="M225.44,315.53s-1.08,5.86-.62,9.17,1.32,4,2.41,5.07a2,2,0,0,0,2.24.46s1,6.81,4.48,9.31,9.38,2.29,12,1.07.45-6-2.59-10.58-6.82-9.49-8-13.76C228.8,315.9,225.44,315.53,225.44,315.53Z"/><path class="cls-6" d="M258,296.53a37.75,37.75,0,0,1-1.26,5.53c-.9,2.82.08,6.79.08,6.79a4.07,4.07,0,0,0,3.2,2.31,10.26,10.26,0,0,0,4.43,0,32.63,32.63,0,0,0,5.46,5.22c3.11,2.28,10,4.12,11.91,3.87,3.05-.41,4.72-2.76,4.51-4.3s-3.72-5.83-6.63-7.71a60.52,60.52,0,0,1-7.45-6.76,36.34,36.34,0,0,1-3.67-4.95Z"/><path class="cls-21" d="M246.51,247.57c1.87-10.65,8-20.56,15.75-14.14,2.88,2.4,8.25,4.8,8.25,13.56,0,10.52,1.7,37.08,1.7,49.09-1.79,5.28-15.11,8.47-17.44,3.51-.91-4.39-6.28-37.75-7.73-45.12C246.09,249.63,246.51,247.59,246.51,247.57Z"/><path class="cls-21" d="M210.26,211a202.74,202.74,0,0,1,22.65,5.73c5.63,1.78,21.09,11.31,29.35,16.74,2.12,1.4,5.12,5.28,5.48,7.07-7.47,2.34-11.21,10-14.13,17.23-8.16-3.65-30.41-16.29-36.7-18.92-9.18-3.84-12.82-16.72-12.82-16.72Z"/><path class="cls-12" d="M221,258.41c2.18-9.38,16.62-8.23,19.44-.91,2,5.28,2,5.28,1.28,15.84-.72,10-2.09,32.62-2.09,44.87-5.84,5.34-15.23,2.1-16.67-.33.26-17-3.8-30.18-4-44.43A52.53,52.53,0,0,1,221,258.41Z"/><path class="cls-12" d="M186.37,224.87c1.2-3.94-.19-5.82,4.09-7.67,2.06-.89,4.86-.72,7-.92l11.67-1.07c1.48-.13,5.54,3,5.54,3,3.46,4.95,2.71,6.16,4.24,12.08,7.47,6.15,18.6,19.22,22.22,29.15.69,1.88-15,8.39-17.59,12.51-2.72-.79-20.13-14.74-24.83-18.33-4.12-3.16-7.55-4.39-10.58-8.61C184.85,240.39,184.76,230.18,186.37,224.87Z"/><path class="cls-21" d="M215.48,152.68s2.07-4.09,9.27.57c2.85,1.84,8.17,13,12.29,22.25.86,1.93,2.91,10.29,4.68,14.06-4.38,3.53-4.13,9.23-3.92,14.9a7.33,7.33,0,0,1-7.81-.85c-6.33-4.71-14.07-15.53-14.19-16.51-.17-1.35.52-3.22,1.67-5.28C216.21,169.06,215.48,152.68,215.48,152.68Z"/><path class="cls-12" d="M205.56,154.88c2.13-.37,10.5-1.92,11.25-1.41,5.37,3.6,10.89,15.19,11.3,22.85.34,6.45-.12,33.75-.45,35.42,2,.85,5.51,2.89,2.8,5.08-4.34,3.5-18,11.19-24.54,12.53-9.44,1.94-15.85,1.07-19.27-5.54-1.3-2.5-1.69-4.58.55-5.63-4.08-6.86-.45-27.79-1.24-33.75-1.18-9-3.88-14.8,2-20.68C190.53,161.17,200.9,155.76,205.56,154.88Z"/><path class="cls-5" d="M197.83,157.77c-2.8,1.46-4.5,3,0,7.17s11.42,7,18,3.88c10.59-5.07,3.06-14.59-1.72-15.51S202.41,155.39,197.83,157.77Z"/><path class="cls-22" d="M199.41,146.07s9.09,3.39,12.62,6.47,10.78,8.69,2.72,13.56c-6.43,3.89-13.61-2-16.62-6.26C200.1,157.85,199.41,146.07,199.41,146.07Z"/><path class="cls-12" d="M199.23,224.79s7-2.51,9.19-3.39c1.79-.71,9.82-3.58,9.82-3.58s-6.31,4.42-10,5.77A29,29,0,0,1,199.23,224.79Z"/><path class="cls-12" d="M211.5,212.92s-4.82.89-8.51,1.22-9.91,1.67-9.91,1.67,6.82,1.17,10.7.37A26.83,26.83,0,0,0,211.5,212.92Z"/><path class="cls-23" d="M219.89,139.62c-.87-3.44-2.53-7.66-5.72-9.59s-7.74-1.2-11.13-.25c-5.24,1.48-7.77,8.14-5.41,14.75,2.17,6.11,8.38,14.92,15.66,14.78,3.71-.07,5.92-3.32,6.84-7.09A28.86,28.86,0,0,0,219.89,139.62Z"/><path class="cls-6" d="M195.73,133c1-7.19,8.36-13.85,16.18-7.77,3.91-6.61,14.78,3.59,10.6,9.11,4.16,3.64-1.53,9.72-7.28,6-3.08,5.73-9.77,2.46-11.38-.43-.08,2.29-2.56,4.54-4.77,4.69,1,2.39,1.74,6.19.39,8.77-.71-2.86-5-4.59-5.56-7.43a4.21,4.21,0,0,1,.9-3.33C192,140.36,191.54,132.18,195.73,133Z"/><path class="cls-23" d="M202.29,144.09s-1.86-2.5-3.73-.53,3,5.77,3,5.77Z"/><path class="cls-21" d="M236.73,184.46c2.34,2.37,13.1,8.7,18.82,14.15,1.67,1,1.62,3.56,1.66,7.33.07,5.76-8.18,8-10.79,7-6.79-2.57-11.88-5-16.43-9.31C231,193.75,234.4,182.09,236.73,184.46Z"/><path class="cls-21" d="M188,163.75c-5.31,3.22-9.61,7.7-9.61,20.11,0,10.76,1,27.86,2.87,31.44s12.63,6,20.48,6c5.38,0,10.52-1.58,12.05-4.21,2.49-4.26.88-7.69-.19-10.11-1.77-4-20.58-4.46-20.58-4.46s3.07-6.33,3.77-18.38S192.8,165,188,163.75Z"/><path class="cls-5" d="M208.19,208c-1.35,2-2.18,7.4-.52,10s8.79,2.86,10,.84A18.72,18.72,0,0,0,219,208c-.38-1.56-2.4-1.83-3.68-1.78C211.41,206.33,209.39,206.17,208.19,208Z"/><polygon class="cls-5" points="223.2 199.11 231.22 210.66 231.44 212.66 229.81 211.64 221.82 200.13 223.2 199.11"/><path class="cls-5" d="M223.2,199.11c.13.17-.08.53-.46.81s-.79.37-.91.21.08-.53.46-.81S223.08,199,223.2,199.11Z"/><path class="cls-23" d="M216.08,208s5.84-3.42,8.89-4.75,2.32-.9,6.49,2.41,4.17,4.78,3,5.17,1.57,2.87,0,3.82-5.38-.83-7.19-.47c-4.83,1-5.48,2.32-7.91,2.82-3.28.67-5.37.09-6.27-1.23C212,214,212.08,210.25,216.08,208Z"/><path class="cls-4" d="M258.62,193.76c-.87-1.66-3.32-2.23-3.58-2.24H255a4.32,4.32,0,0,0-2.2.66l-17.09,9.76a10.29,10.29,0,0,0-4.05,5.5c-.33.94-8.73,21.91-10.31,26.1a8.08,8.08,0,0,0-.73,3.72s.05.23.08.34a2.21,2.21,0,0,0,2.2,1.82l3.86-9.84.19-.1,14.35-8.33c2.56-1.48,4.58-4.88,6.18-8.31l7.84-16.73.53.51S259.24,194.92,258.62,193.76Z"/><path class="cls-12" d="M239.41,230.33l-14.69,8.41c-2.56,1.48-3.61.73-1.72-4.3,1.59-4.19,10.21-24.91,10.53-25.85a10.36,10.36,0,0,1,4.06-5.5L255,193.25c1.53-.88,3.25-1.06,3.59.51a4,4,0,0,1-.52,2.24c-.24.53-12.51,26-12.51,26C244,225.45,242,228.86,239.41,230.33Z"/><path class="cls-23" d="M248.29,208c2-2.62,5.56-5.47,6.68-5.46.55.61,1.08,1.58-.25,3.08.83,1,.39,2.41,0,3.28.78,1.62-.34,3.05-4.75,5.37-1.6.85-1.44-.66-1.12-1.8-1.39.38-1.35-1.06-1-1.85C246.75,209.89,247.41,209.13,248.29,208Z"/><polygon class="cls-12" points="308.21 570.28 296.03 563.24 296.03 447.26 308.21 454.29 308.21 570.28"/><polygon class="cls-21" points="308.21 570.28 320.4 563.24 320.4 447.26 308.21 454.29 308.21 570.28"/><polygon class="cls-12" points="308.21 373.82 296.03 366.79 296.03 250.81 308.21 257.84 308.21 373.82"/><polygon class="cls-21" points="308.21 373.82 320.4 366.79 320.4 250.81 308.21 257.84 308.21 373.82"/><polygon class="cls-12" points="143.62 524.04 131.44 517 131.44 401.02 143.62 408.05 143.62 524.04"/><polygon class="cls-21" points="143.62 524.04 155.81 517 155.81 401.02 143.62 408.05 143.62 524.04"/><polygon class="cls-18" points="449.08 524.04 436.9 517 436.9 401.02 449.08 408.05 449.08 524.04"/><polygon class="cls-21" points="449.08 524.04 461.27 517 461.27 401.02 449.08 408.05 449.08 524.04"/><polygon class="cls-12" points="429.54 406.32 417.36 399.29 417.36 283.3 429.54 290.33 429.54 406.32"/><polygon class="cls-21" points="429.54 406.32 441.73 399.29 441.73 283.3 429.54 290.33 429.54 406.32"/><polygon class="cls-12" points="173.5 406.32 161.32 399.29 161.32 283.3 173.5 290.33 173.5 406.32"/><polygon class="cls-21" points="173.5 406.32 185.69 399.29 185.69 283.3 173.5 290.33 173.5 406.32"/><path class="cls-5" d="M542,342c-12.6-62.76-112.43-111.63-233.73-111.63S87.07,279.26,74.47,342H73.11v13.43c0,69.06,105.26,125.05,235.11,125.05s235.1-56,235.1-125V342ZM308.22,420c-78.93,0-142.91-34-142.91-76s64-76,142.91-76,142.9,34,142.9,76S387.14,420,308.22,420Z"/><path class="cls-12" d="M542.58,334.26C530,271.34,429.85,222.33,308.22,222.33s-221.74,49-234.37,111.93H72.47v13.47C72.47,417,178,473.12,308.22,473.12S544,417,544,347.73V334.26ZM308.22,420c-78.93,0-142.91-34-142.91-76s64-76,142.91-76,142.9,34,142.9,76S387.14,420,308.22,420Z"/><path class="cls-5" d="M308.22,212.56C178,212.56,72.47,268.69,72.47,338S178,463.35,308.22,463.35,544,407.2,544,338,438.41,212.56,308.22,212.56Zm0,198.73c-78.93,0-142.91-34-142.91-76s64-76,142.91-76,142.9,34,142.9,76S387.14,411.29,308.22,411.29Z"/><polygon class="cls-24" points="325.44 438.97 293.93 457.26 260.71 438.13 260.71 437.08 291.96 419.68 325.44 438.97"/><path class="cls-11" d="M260.71,437.08s9.47,4.26,12.48,6a21.05,21.05,0,0,1,2.83,2.82l.7.4a4,4,0,0,1,3,.53c4.14,2.32,14.32,9.35,14.32,9.35l31.7-18.31s-9.4-6.45-13-8.59a7.3,7.3,0,0,0-4.27-1.28l-.7-.41a10.79,10.79,0,0,0-2-2.33c-3.95-2.41-13.32-6.47-13.32-6.47Z"/><polygon class="cls-4" points="276.53 446.4 308.43 427.99 307.73 427.58 275.84 446 276.53 446.4"/><polygon class="cls-4" points="325.71 437.86 325.44 438.47 325.44 438.97 293.93 457.26 294.01 456.17 325.71 437.86"/><path class="cls-4" d="M277.09,447.56a1.44,1.44,0,0,0-.8-1.52c-1.25-.78-1.41.25-1.41.25Z"/><path class="cls-12" d="M274.88,445.48a17.43,17.43,0,0,0-4-3c-1.75-.73-2.68-1.07-2.68-1.07s2,1.27,3.14,1.91S274.88,445.48,274.88,445.48Z"/><path class="cls-12" d="M283.21,450.05a26.49,26.49,0,0,0-3.52-2.49c-1.34-.68-1.81-.34-1.81-.34a16.07,16.07,0,0,1,2.17,1C280.62,448.56,283.21,450.05,283.21,450.05Z"/><polygon class="cls-24" points="169.37 391.73 137.86 410.03 104.64 390.89 104.64 389.85 135.88 372.44 169.37 391.73"/><path class="cls-11" d="M104.64,389.85s9.46,4.25,12.47,6a21.27,21.27,0,0,1,2.84,2.82l.7.4a4,4,0,0,1,3,.53c4.14,2.32,14.32,9.35,14.32,9.35l31.71-18.31s-9.41-6.45-13-8.59a7.34,7.34,0,0,0-4.28-1.28l-.7-.4a11,11,0,0,0-2-2.34c-3.95-2.41-13.32-6.47-13.32-6.47Z"/><polygon class="cls-4" points="120.45 399.17 152.35 380.75 151.65 380.35 119.76 398.76 120.45 399.17"/><polygon class="cls-4" points="169.64 390.63 169.37 391.24 169.37 391.73 137.86 410.03 137.93 408.93 169.64 390.63"/><path class="cls-4" d="M121,400.33a1.44,1.44,0,0,0-.79-1.52c-1.26-.79-1.41.24-1.41.24Z"/><path class="cls-12" d="M118.81,398.24a17.34,17.34,0,0,0-4-3c-1.74-.74-2.68-1.07-2.68-1.07s2,1.27,3.15,1.9S118.81,398.24,118.81,398.24Z"/><path class="cls-12" d="M127.14,402.82a25.88,25.88,0,0,0-3.53-2.49c-1.34-.68-1.81-.35-1.81-.35a15.72,15.72,0,0,1,2.18,1C124.55,401.32,127.14,402.82,127.14,402.82Z"/><polygon class="cls-24" points="100.45 305.03 131.97 323.32 165.19 304.19 165.19 303.14 133.94 285.74 100.45 305.03"/><path class="cls-11" d="M165.19,303.14s-9.47,4.26-12.48,6a21.27,21.27,0,0,0-2.84,2.82l-.7.4a4,4,0,0,0-3,.53c-4.14,2.32-14.32,9.35-14.32,9.35l-31.7-18.31s9.4-6.45,13-8.59a7.34,7.34,0,0,1,4.28-1.28l.7-.41a11,11,0,0,1,2-2.33c4-2.41,13.32-6.47,13.32-6.47Z"/><polygon class="cls-4" points="149.37 312.46 117.47 294.05 118.17 293.64 150.06 312.06 149.37 312.46"/><polygon class="cls-4" points="100.19 303.92 100.45 304.53 100.45 305.03 131.97 323.32 131.89 322.23 100.19 303.92"/><path class="cls-4" d="M148.81,313.62a1.44,1.44,0,0,1,.8-1.52c1.25-.78,1.4.25,1.4.25Z"/><path class="cls-12" d="M151,311.54a17.57,17.57,0,0,1,4-3c1.74-.73,2.68-1.07,2.68-1.07s-2,1.27-3.15,1.91S151,311.54,151,311.54Z"/><path class="cls-12" d="M142.69,316.11a26.49,26.49,0,0,1,3.52-2.49c1.34-.68,1.81-.34,1.81-.34a16.62,16.62,0,0,0-2.18,1C145.27,314.62,142.69,316.11,142.69,316.11Z"/><polygon class="cls-11" points="437.08 428.88 413.19 442.68 371.27 418.48 395.17 404.68 437.08 428.88"/><polygon class="cls-4" points="371.27 418.48 371.27 419.17 413.19 443.37 413.19 442.68 371.27 418.48"/><polygon class="cls-24" points="437.08 428.88 437.08 429.57 413.19 443.37 413.19 442.68 437.08 428.88"/><polygon class="cls-12" points="398.7 408.75 378.76 420.26 375.33 418.28 395.19 406.82 398.7 408.75"/><polygon class="cls-25" points="401.63 410.46 400.99 410.11 397.47 412.14 398.09 412.51 401.63 410.46"/><polygon class="cls-25" points="381.12 421.58 381.77 421.93 397.52 412.84 396.89 412.48 381.12 421.58"/><polygon class="cls-25" points="403.05 411.29 402.4 410.94 398.89 412.97 399.51 413.33 403.05 411.29"/><polygon class="cls-25" points="382.54 422.41 383.18 422.76 398.94 413.66 398.31 413.3 382.54 422.41"/><polygon class="cls-25" points="383.95 423.2 384.6 423.55 400.33 414.46 399.71 414.1 383.95 423.2"/><polygon class="cls-25" points="404.46 412.08 403.81 411.73 400.28 413.77 400.91 414.13 404.46 412.08"/><polygon class="cls-25" points="385.36 424.02 386.01 424.37 401.75 415.28 401.13 414.92 385.36 424.02"/><polygon class="cls-25" points="405.87 412.9 405.23 412.55 401.7 414.59 402.32 414.95 405.87 412.9"/><polygon class="cls-25" points="407.29 413.69 406.64 413.34 403.09 415.39 403.72 415.75 407.29 413.69"/><polygon class="cls-25" points="386.78 424.81 387.42 425.16 403.14 416.08 402.52 415.72 386.78 424.81"/><polygon class="cls-25" points="408.7 414.52 408.05 414.17 404.51 416.21 405.14 416.57 408.7 414.52"/><polygon class="cls-25" points="388.19 425.64 388.84 425.99 404.56 416.9 403.94 416.54 388.19 425.64"/><polygon class="cls-25" points="389.6 426.43 390.25 426.78 405.96 417.71 405.33 417.35 389.6 426.43"/><polygon class="cls-25" points="410.11 415.31 409.47 414.96 405.9 417.02 406.53 417.38 410.11 415.31"/><polygon class="cls-25" points="390.95 427.26 391.6 427.61 407.36 418.52 406.73 418.15 390.95 427.26"/><polygon class="cls-25" points="411.46 416.14 410.82 415.8 407.3 417.82 407.93 418.19 411.46 416.14"/><polygon class="cls-25" points="412.88 416.94 412.23 416.59 408.7 418.63 409.32 418.99 412.88 416.94"/><polygon class="cls-25" points="392.37 428.06 393.01 428.4 408.75 419.32 408.12 418.96 392.37 428.06"/><polygon class="cls-25" points="410.17 420.14 409.54 419.78 403.79 423.1 403.79 423.1 393.78 428.88 394.43 429.23 404.27 423.55 404.27 423.55 410.17 420.14"/><polygon class="cls-25" points="414.29 417.76 413.64 417.41 410.12 419.45 410.74 419.81 414.29 417.76"/><polygon class="cls-25" points="415.7 418.55 415.06 418.2 411.51 420.25 412.13 420.61 415.7 418.55"/><polygon class="cls-25" points="395.19 429.67 395.84 430.02 411.56 420.94 410.94 420.58 395.19 429.67"/><polygon class="cls-25" points="417.02 419.39 416.37 419.04 412.9 421.05 413.52 421.41 417.02 419.39"/><polygon class="cls-25" points="396.51 430.51 397.16 430.86 412.95 421.75 412.32 421.38 396.51 430.51"/><polygon class="cls-25" points="431.09 427.48 430.45 427.13 426.94 429.16 427.56 429.52 431.09 427.48"/><polygon class="cls-25" points="410.58 438.6 411.23 438.95 426.99 429.85 426.36 429.49 410.58 438.6"/><polygon class="cls-25" points="412 439.39 412.64 439.74 428.38 430.66 427.76 430.29 412 439.39"/><polygon class="cls-25" points="432.51 428.27 431.86 427.93 428.33 429.96 428.95 430.32 432.51 428.27"/><polygon class="cls-10" points="411.18 436.2 410.33 436.69 403.58 432.79 404.42 432.31 411.18 436.2"/><polygon class="cls-10" points="413 435.16 412.15 435.64 407.23 432.8 408.07 432.31 413 435.16"/><polygon class="cls-10" points="414.88 434.07 414.04 434.56 410.34 432.42 411.18 431.94 414.88 434.07"/><polygon class="cls-10" points="416.64 433.05 415.79 433.54 409.98 430.19 410.82 429.7 416.64 433.05"/><polygon class="cls-10" points="418.45 432 417.61 432.49 415.11 431.05 415.95 430.56 418.45 432"/><polygon class="cls-24" points="420.34 430.92 419.49 431.4 414.55 428.55 415.39 428.06 420.34 430.92"/><polygon class="cls-24" points="422.09 429.9 421.25 430.39 417.55 428.26 418.4 427.77 422.09 429.9"/><polygon class="cls-24" points="423.85 428.89 423.01 429.38 414.88 424.68 415.72 424.2 423.85 428.89"/><polygon class="cls-24" points="425.67 427.84 424.82 428.33 418.96 424.94 419.81 424.45 425.67 427.84"/><polygon class="cls-24" points="427.55 426.75 426.71 427.24 424.2 425.79 425.05 425.31 427.55 426.75"/><polygon class="cls-6" points="428.73 426.07 408.93 437.5 409.18 437.65 428.99 426.21 428.73 426.07"/><polygon class="cls-10" points="402.26 429.71 401.62 429.36 398.11 431.39 398.73 431.75 402.26 429.71"/><polygon class="cls-10" points="403.71 430.56 403.06 430.21 399.56 432.24 400.18 432.6 403.71 430.56"/><polygon class="cls-11" points="258.05 250.92 234.16 264.72 192.24 240.51 216.14 226.72 258.05 250.92"/><polygon class="cls-4" points="192.24 240.51 192.24 241.2 234.16 265.4 234.16 264.72 192.24 240.51"/><polygon class="cls-24" points="258.05 250.92 258.05 251.6 234.16 265.4 234.16 264.72 258.05 250.92"/><polygon class="cls-12" points="230.37 260.12 250.3 248.61 253.73 250.59 233.88 262.05 230.37 260.12"/><polygon class="cls-25" points="227.43 258.4 228.08 258.75 231.6 256.72 230.97 256.36 227.43 258.4"/><polygon class="cls-25" points="247.94 247.28 247.3 246.94 231.55 256.03 232.17 256.39 247.94 247.28"/><polygon class="cls-25" points="226.02 257.58 226.67 257.93 230.18 255.9 229.55 255.54 226.02 257.58"/><polygon class="cls-25" points="246.53 246.46 245.88 246.11 230.13 255.21 230.75 255.57 246.53 246.46"/><polygon class="cls-25" points="245.12 245.67 244.47 245.32 228.73 254.41 229.36 254.77 245.12 245.67"/><polygon class="cls-25" points="224.61 256.79 225.25 257.14 228.79 255.1 228.16 254.74 224.61 256.79"/><polygon class="cls-25" points="243.7 244.85 243.06 244.5 227.32 253.59 227.94 253.95 243.7 244.85"/><polygon class="cls-25" points="223.19 255.97 223.84 256.32 227.37 254.28 226.74 253.92 223.19 255.97"/><polygon class="cls-25" points="221.78 255.18 222.43 255.53 225.98 253.47 225.35 253.11 221.78 255.18"/><polygon class="cls-25" points="242.29 244.06 241.64 243.71 225.92 252.78 226.55 253.14 242.29 244.06"/><polygon class="cls-25" points="220.37 254.35 221.01 254.7 224.56 252.66 223.93 252.29 220.37 254.35"/><polygon class="cls-25" points="240.88 243.23 240.23 242.88 224.5 251.96 225.13 252.32 240.88 243.23"/><polygon class="cls-25" points="239.46 242.44 238.82 242.09 223.11 251.16 223.74 251.52 239.46 242.44"/><polygon class="cls-25" points="218.95 253.56 219.6 253.91 223.16 251.85 222.54 251.49 218.95 253.56"/><polygon class="cls-25" points="238.11 241.6 237.47 241.25 221.71 250.35 222.34 250.71 238.11 241.6"/><polygon class="cls-25" points="217.6 252.72 218.25 253.07 221.76 251.04 221.14 250.68 217.6 252.72"/><polygon class="cls-25" points="216.19 251.93 216.84 252.28 220.37 250.24 219.75 249.88 216.19 251.93"/><polygon class="cls-25" points="236.7 240.81 236.05 240.46 220.32 249.55 220.94 249.91 236.7 240.81"/><polygon class="cls-25" points="218.9 248.73 219.52 249.09 225.28 245.76 225.28 245.76 235.29 239.99 234.64 239.64 224.8 245.32 224.8 245.32 218.9 248.73"/><polygon class="cls-25" points="214.78 251.11 215.42 251.46 218.95 249.42 218.32 249.06 214.78 251.11"/><polygon class="cls-25" points="213.36 250.31 214.01 250.66 217.56 248.62 216.93 248.25 213.36 250.31"/><polygon class="cls-25" points="233.87 239.19 233.23 238.85 217.5 247.92 218.13 248.28 233.87 239.19"/><polygon class="cls-25" points="212.04 249.47 212.69 249.82 216.17 247.81 215.54 247.45 212.04 249.47"/><polygon class="cls-25" points="232.56 238.35 231.91 238.01 216.12 247.12 216.74 247.48 232.56 238.35"/><polygon class="cls-25" points="197.97 241.38 198.62 241.73 202.13 239.71 201.5 239.35 197.97 241.38"/><polygon class="cls-25" points="218.49 230.26 217.84 229.92 202.08 239.02 202.7 239.38 218.49 230.26"/><polygon class="cls-25" points="217.07 229.47 216.42 229.12 200.68 238.21 201.31 238.57 217.07 229.47"/><polygon class="cls-25" points="196.56 240.59 197.21 240.94 200.74 238.9 200.11 238.54 196.56 240.59"/><polygon class="cls-10" points="217.89 232.66 218.73 232.18 225.49 236.07 224.64 236.56 217.89 232.66"/><polygon class="cls-10" points="216.07 233.71 216.91 233.22 221.84 236.07 220.99 236.55 216.07 233.71"/><polygon class="cls-10" points="214.19 234.8 215.03 234.31 218.73 236.44 217.88 236.93 214.19 234.8"/><polygon class="cls-10" points="212.43 235.81 213.27 235.33 219.09 238.68 218.24 239.17 212.43 235.81"/><polygon class="cls-10" points="210.61 236.86 211.46 236.38 213.96 237.82 213.12 238.31 210.61 236.86"/><polygon class="cls-24" points="208.73 237.95 209.57 237.46 214.52 240.32 213.67 240.81 208.73 237.95"/><polygon class="cls-24" points="206.97 238.96 207.82 238.48 211.51 240.61 210.67 241.1 206.97 238.96"/><polygon class="cls-24" points="205.22 239.98 206.06 239.49 214.19 244.18 213.34 244.67 205.22 239.98"/><polygon class="cls-24" points="203.4 241.03 204.24 240.54 210.1 243.93 209.26 244.41 203.4 241.03"/><polygon class="cls-24" points="201.51 242.12 202.36 241.63 204.86 243.07 204.02 243.56 201.51 242.12"/><polygon class="cls-6" points="200.33 242.8 220.14 231.36 219.88 231.22 200.08 242.65 200.33 242.8"/><polygon class="cls-10" points="226.8 239.15 227.45 239.5 230.96 237.48 230.33 237.12 226.8 239.15"/><polygon class="cls-10" points="225.36 238.31 226 238.66 229.51 236.63 228.89 236.27 225.36 238.31"/><path class="cls-8" d="M363.08,556.32c-4.9.56-6,5.27-2.46,8.18,3.23,2.64,6.8,5.84,11.08,6.93a12,12,0,0,0,7.51-.36l.58,2.46s5.78,2,8.07-.95c.85-3.29.48-10.56-1.52-13.75-2.14-3.42-3.88-2.44-9.42-1.54C374.47,557.69,364.83,556.12,363.08,556.32Z"/><path class="cls-8" d="M389.17,543.42c-4.91.56-6,5.28-2.47,8.18,3.23,2.65,6.8,5.84,11.08,6.93a12.06,12.06,0,0,0,7.52-.36l.57,2.46s5.79,2,8.07-1c.86-3.28.48-10.55-1.52-13.75-2.13-3.41-3.88-2.43-9.42-1.53C400.55,544.8,390.92,543.22,389.17,543.42Z"/><path class="cls-6" d="M410.56,500.07c-6.32,1.85-12.57-1.59-19.47-3,.41,2.21.88,7.71,2,11.73,3.31,12.28,4.44,31,6,38.69,2.22,2.63,12.74,4.37,13.39-.89,1.49-12.26,3.53-27.48.34-39C411.78,504,411.15,501.83,410.56,500.07Z"/><path class="cls-16" d="M385.6,509.15c-5.93,2-10.53-6-16.62-7.92-2.23,3.89-1.44,11.82-.69,18.21,1.48,12.63,3.08,31,4.06,38.76,2,2.79,13.44,5,14.47-.18,2.41-12.12,1.56-26.18.22-38C386.61,516.21,386.55,512.3,385.6,509.15Z"/><path class="cls-12" d="M388.12,523.89v56.22c0,.79,1.06,1.43,2.38,1.43s2.38-.64,2.38-1.43V523.89Z"/><path class="cls-12" d="M426.67,542.48v60.26c0,.79,1.07,1.43,2.38,1.43s2.39-.64,2.39-1.43V542.48Z"/><path class="cls-12" d="M465.23,521.49v58.77c0,.79,1.06,1.43,2.38,1.43s2.38-.64,2.38-1.43V521.49Z"/><polygon class="cls-10" points="473.6 528.06 429.1 553.75 384.63 528.05 429.13 502.35 473.6 528.06"/><polygon class="cls-10" points="473.6 524.56 429.1 550.25 384.63 524.55 429.13 498.86 473.6 524.56"/><polygon class="cls-19" points="384.63 524.55 384.63 528.05 429.1 553.75 429.1 550.25 384.63 524.55"/><polygon class="cls-17" points="473.6 524.56 473.6 528.06 429.1 553.75 429.1 550.25 473.6 524.56"/><path class="cls-7" d="M442.23,433.14a14.38,14.38,0,0,0-15.19,0l-9.64,17.28a92.27,92.27,0,0,1-10.9-7.06,53.35,53.35,0,0,0-5.52-3.81c-4.5.32-5.81,2.79-7.17,6.88,1.13,1.73,7.29,7.76,8.74,9.31a17.71,17.71,0,0,1,4.31,8.17l13.59,3.3s17.23,11.09,25.51-1.58S449,437.45,442.23,433.14Z"/><path class="cls-3" d="M368.27,455.6c-2.3,2.39-2.17,4.94-.65,7.81a45.23,45.23,0,0,1,2.42,5.41l4.28-6.61Z"/><polygon class="cls-24" points="376.98 470 389.21 460 371.85 439.16 359.63 449.15 376.98 470"/><polygon class="cls-11" points="379.61 467.87 391.83 457.87 374.48 437.03 362.25 447.02 379.61 467.87"/><path class="cls-3" d="M395.56,438.19a39.32,39.32,0,0,0-7.26-4.92c-4.36-2.07-7.6,1.28-10.19,3.58s-4.2,3.74-2.49,4.35c.78.28,2.49-.69,2.49-.69s-1.11,2.53,0,3.93,2.05-1.84,2.79-2.55c.77.1,5.55,1.39,8.65.87.61-.1,5.08.41,5.57.44C395.27,442.86,394.49,438.77,395.56,438.19Z"/><polygon class="cls-20" points="390.14 431.17 377.18 444.8 374.61 445.63 375.51 443.21 388.44 429.63 390.14 431.17"/><path class="cls-26" d="M390.14,431.17c-.18.2-.71,0-1.18-.4s-.7-.93-.52-1.14.71,0,1.19.4S390.33,431,390.14,431.17Z"/><path class="cls-3" d="M372.63,472.32s-4.87-4.43-3.37-9.7c1.2-4.18,3.51-4.58,5.06-6.87s4.59-1.27,2.79,1.42-2.69,3.4-1.79,6,2.41,7.27,2.41,7.27Z"/><path class="cls-6" d="M393.41,504.75c.44-.05,5.91.82,6.4.76,8.47,6.85,16.74,12.74,26,15.62,7.33,8.58,15.82,3.52,18.54.72,7.72-8,5.7-20.45,3.77-24.63-.67-1.45-5.62,2.38-9.87.59-2.79-1.18-16.2-3.37-29.43-8.91-2.07-.87-13.88-1.39-15.4.77C389.47,495.26,391.09,498.13,393.41,504.75Z"/><path class="cls-16" d="M442.22,505.38c-.3-19.36-23.8-1.55-28.24-2.91-2.9-.89-18.07-2.74-31.91-6.53-4.57-1.25-10.56,1.3-13.09,5.29-3.92,6.14,7.91,6.39,10.75,12.76a1.26,1.26,0,0,1,.08.75c11.1,12.87,26.95,15.6,32.12,15.63,7.31,3.93,19.4,3.53,24.16-.54C441.58,525.14,442.34,513.33,442.22,505.38Z"/><path class="cls-3" d="M411.93,406.07c3.74-2.54,8.41-2.22,12.37.17,3.75,2.28,5.32,5.15,5.48,8.22a29.92,29.92,0,0,1-.66,6.63,28.75,28.75,0,0,1-4.5,8.39c-2.33,2.93-8.6,5.88-12.67,4.59-3.62-1.16-6.07-6.45-5.31-14.3C407.18,414.15,407,409.41,411.93,406.07Z"/><path class="cls-8" d="M421.45,440.72c10.51-5.12,13.79-10.49,21.05-4.09,4.51,4,5.28,20.16,4.67,26.9-.46,5.05,2.17,36,2.73,38.77-3.49,4.37-16.29,9.46-25.75,9.4s-14.94-2.95-18.36-6.32c0-7.26,1.94-10.5,1.59-14.81-1-12.51-2.74-22.57-3.16-30.32C403.64,449.82,409.22,446.69,421.45,440.72Z"/><path class="cls-3" d="M428.84,422.43a60.34,60.34,0,0,0,1.47,8.73,16,16,0,0,0,4.46,6.65s3.53,5.32-2.33,7.83S419.61,443,419.61,443s0-3.23-2.28-8.76C415.71,430.21,428.84,422.43,428.84,422.43Z"/><path class="cls-6" d="M404.83,405.48s-1.35,7,6.79,10c1.42,4.23,6.82,6.76,6.82,6.76s-.23,4,4.44,7.18a24.07,24.07,0,0,0,8.19,3.29S435,422.5,436,416.41c1-6.25-2.65-12.37-9.2-14.61-4.09-1.4-8-1.17-12.57.15A82.82,82.82,0,0,0,404.83,405.48Z"/><path class="cls-3" d="M419.4,421.66c1.37,4.73-3.49,6.09-3.49,6.09l-2.76-5.12S417.84,416.31,419.4,421.66Z"/><path class="cls-7" d="M437.34,494.09s-7,7.18-13.64,7.72-9.14,0-9.14,0a25.22,25.22,0,0,1,9.31-4.24C428.86,496.6,437.34,494.09,437.34,494.09Z"/><path class="cls-8" d="M373.35,476.49,370,468.82a6.49,6.49,0,0,1,3.06-3.49c2.49-1.43,6.24.31,7.61,3.22S373.35,476.49,373.35,476.49Z"/><path class="cls-8" d="M394.57,447l-4.43-3.5s1.69-7,5.92-7.4c3,1.28,3.68,2.68,4.92,3.41C396.18,441.62,394.57,447,394.57,447Z"/><path class="cls-7" d="M395.49,491.39c-1,.28-3.37,1.35-6.95-1.62-5.78-4.81-12.8-9.45-14.22-11.31-2.51-3.29-3.07-5.66,1.13-8.92,5.41-4.21,12.14.09,18.48,5,3.28-8,10.06-22.35,11.69-24.16,6.45-7.12,9.81-5.76,12.95-1.93,2.82,3.44,4.37,11,4.51,17.54s-.89,11.73-4.3,13.28-3.47,1.4-7,1.6C410.93,482.06,402.66,489.35,395.49,491.39Z"/><path class="cls-7" d="M434.59,435.67c2.23.81,5.08,5.32-.23,9.47s-10.9.67-13.05-.4a19.11,19.11,0,0,0-5-1.45s1-3.24,6.23-3.21c3.16,0,7.91-.9,9.3-2.84S433.32,435.21,434.59,435.67Z"/><path class="cls-3" d="M387,436.05c-.2,0-2.48.69-4.18,1s-4.31.92-4.66,2.13.7,1.36,2,1.21,3,1.28,5.27.34S387,436.05,387,436.05Z"/><path class="cls-19" d="M472.19,465.87l-3.09-1.71v0a2.39,2.39,0,0,0-2.48.17l-37,21.39c-2.09,1.2-3.78,4.43-3.78,7.21v55.56l3.26,1.8,41.34-27.54,1-53.4Z"/><path class="cls-17" d="M473.65,524.56V469c0-2.78-1.69-4.06-3.78-2.86l-37,21.39c-2.09,1.2-3.78,4.43-3.78,7.21v55.57Z"/><path class="cls-27" d="M69.47,367.75s6.38-4,9.13-4,6.39,2.54,6.19,6-7.66,10.66-7.66,10.66Z"/><path class="cls-9" d="M93.27,472.24c3.49,1.39,4.48,2.64,3.54,4.88-1.38,3.3-4.89,5.34-8,6-4.7,1-8.22,7.46-13.23,2.3-1.29-1.33-.15-4.82.29-6.65-.09-1.27,2.17-5.3,2-8.74,4.95,1.88,5.5.73,6.83,1.6a34.75,34.75,0,0,1-.75,3.54C85.74,474.6,90.93,471.32,93.27,472.24Z"/><path class="cls-16" d="M75.82,478.14s2.94,1.05,4.83,1.65a10.38,10.38,0,0,0,9.88-2.52c2.7-2.61-1.44-4.4-1.44-4.4s3.69-4.23,8.06-2.41c2,.85,3.24,5.3,2.08,7.28s-3.79,4.37-5.75,4.87a36.81,36.81,0,0,0-7.31,2.7c-2.73,1.64-7.36,4.48-10.48,1.48S75.82,478.14,75.82,478.14Z"/><path class="cls-9" d="M79.17,415.57c5.21,1.26,2.47-3.76,7.84-2.12s5.45,9.4,4.25,10.66c-1.16,10.74-4.25,38.13-6.72,48.37-2.38,1-6,2.9-7.13,1-.42-5.07-4.68-28.35-5-32.22C71.35,427.45,75.45,420.82,79.17,415.57Z"/><path class="cls-9" d="M109.27,480.77c3.49,1.39,4.49,2.64,3.55,4.88-1.39,3.3-4.9,5.34-8,6-4.7,1-8.21,7.46-13.23,2.3-1.28-1.33-.15-4.82.29-6.65-.09-1.27,2.18-5.3,2-8.74,4.95,1.88,5.5.73,6.84,1.6a34.78,34.78,0,0,1-.76,3.54C101.74,483.13,106.93,479.85,109.27,480.77Z"/><path class="cls-16" d="M91.83,486.67s2.93,1.05,4.82,1.65a10.41,10.41,0,0,0,9.89-2.51c2.69-2.62-1.45-4.41-1.45-4.41s3.69-4.23,8.06-2.41c2,.85,3.24,5.3,2.08,7.28s-3.78,4.37-5.74,4.87a36.68,36.68,0,0,0-7.32,2.7c-2.73,1.64-7.36,4.48-10.47,1.48S91.83,486.67,91.83,486.67Z"/><path class="cls-9" d="M95.17,424.1c5.21,1.26,2.48-3.76,7.84-2.11s5.45,9.39,4.25,10.65c-1.16,10.74-4.25,38.13-6.71,48.37-2.38,1.05-6,2.9-7.14,1-.42-5.07-4.68-28.35-5-32.22C87.35,436,91.46,429.35,95.17,424.1Z"/><path class="cls-12" d="M95.17,452.19v56.22c0,.79-1.07,1.43-2.38,1.43s-2.38-.64-2.38-1.43V452.19Z"/><path class="cls-12" d="M56.61,470.77V531c0,.79-1.06,1.43-2.38,1.43s-2.38-.64-2.38-1.43V470.77Z"/><path class="cls-12" d="M18.06,449.52V508.3c0,.79-1.07,1.43-2.39,1.43s-2.38-.64-2.38-1.43V449.52Z"/><polygon class="cls-10" points="9.68 456.35 54.18 482.05 98.66 456.34 54.16 430.65 9.68 456.35"/><polygon class="cls-10" points="9.68 452.86 54.18 478.55 98.66 452.85 54.16 427.15 9.68 452.86"/><polygon class="cls-19" points="98.66 452.85 98.66 456.34 54.18 482.05 54.18 478.55 98.66 452.85"/><polygon class="cls-17" points="9.68 452.86 9.68 456.35 54.18 482.05 54.18 478.55 9.68 452.86"/><polygon class="cls-24" points="102.27 388.75 90.05 378.76 107.4 357.91 119.63 367.9 102.27 388.75"/><polygon class="cls-11" points="99.64 386.62 87.42 376.63 104.78 355.78 117 365.77 99.64 386.62"/><path class="cls-27" d="M46.52,358.71s-2.48.18-6.1,6.73-5,17.18,2.66,20.1,8.71-24.42,8.71-24.42Z"/><path class="cls-20" d="M61,440.34c-2.66,4.12-2.08,7.45-2.16,11.87-7.36-.51-14.56-.35-20.74-3.93-12.79-7.41-3.53-25.46,4-36.89,5.19,7,16.09,12.09,25.14,11.28a49.92,49.92,0,0,1-1.74,9.68C64.47,435.48,62.69,437.68,61,440.34Z"/><path class="cls-6" d="M44.52,441c1.85-10,4.27-17.08,4.43-19.44.12-1.67,7.86-8,15.87-10.17,12.31-3.41,24-3.67,38.19,10.6,4.42,4.43.85,10.83-5.82,17.18s-20,11.2-23.5,12.08a22.18,22.18,0,0,1-15.22,6.6C48.84,457.81,43.46,446.76,44.52,441Z"/><path class="cls-3" d="M116.44,376.28c.54-1.82.56-3.59-.68-3.73-2.55,2.43-7.76,10.53-9.07,7.08-.33-.88.59-2.16,1-3.28.22-.61-.1-2.16-1.33-1.05-1.56,1.41-2,2.75-2.49,4.78a13.59,13.59,0,0,0-.35,3.92c.08,1.64.1,3.54-1,4.67-.56.59,1.48,3.71,3.25,3.07,2.44-.89,5.3-3.47,7.18-5.24a10.52,10.52,0,0,0,3.27-5C117.22,379,117.28,378.44,116.44,376.28Z"/><path class="cls-3" d="M48.06,366a1.28,1.28,0,0,1,.83-1c6.07-2.19,7.25-5.65,7.89-11.35a1.28,1.28,0,0,1,1.8-.9,39.36,39.36,0,0,0,10.73,3.71c-2.66,10.65,3.81,12.38,6.86,16.29.77,1-6,6.76-9.88,6.52a23.78,23.78,0,0,1-9.7-2.59C53.3,374.92,47.48,370.3,48.06,366Z"/><path class="cls-3" d="M53.38,341.6c.16-5.39,4-12.84,10-12.86s14.39,6,15.2,10.19C80,346,77,362.33,65.33,358.87,56.25,356.17,53.14,349.64,53.38,341.6Z"/><path class="cls-20" d="M80.66,383.17c.28-4.58-3-10.85-7.77-13.62-4.82-.83-9.59,3.56-15-.25-3.88-2.7-4-6.29-4.65-6.74-5.14-3.31-7.66-.53-9.85,3.2-5.08,8.68-3,18.52-.06,27.43,2.16,6.57-3.37,19.33-6.32,24.85,1.72,3.93,6.25,7.87,12.1,9.85,5,1.7,21.66,3.47,25.19-3.58C73,417.56,72.72,413,73,409.74a13.59,13.59,0,0,1,2.66-7.69c1.32-1.82,6.89-5.4,7.26-8.48C83.31,390.1,80.44,386.84,80.66,383.17Z"/><path class="cls-27" d="M50.72,360.1a8.43,8.43,0,0,0,.53,6.71c1.87,3.17,5.32,4.83,9.51,4.91s12.92-1.66,12.92-1.66a3.18,3.18,0,0,0-2.32-3.33c-2.62-.82-10.42,1.25-13.76-.42s-3.34-3.87-4.6-5.64S50.72,360.1,50.72,360.1Z"/><path class="cls-27" d="M100.44,389.53c-3.14.81-6.86,6.41-9.08,9-2.16-6.38-6.56-11.44-8.53-11.68-.19-4.25-1.31-10.77-4.13-12.86-1.94-1.44-3.69-3.19-7.28-2.32-5,1.21-6.34,6.18-6.76,11.38-.54,6.76,5,14.58,9.31,14.24.85,6.59,11.94,10.93,15.28,13.11.91.6,1.34,1.06,3.71.13a19.46,19.46,0,0,0,4.54-1.93c3.8-2.14,8.09-10.47,9.58-14.29C108.29,391.24,104.45,388.49,100.44,389.53Z"/><path class="cls-20" d="M100.44,389.53l2.66-3.4s1.3-.8,4.06,1.35,2.06,3.15,2.06,3.15l-2.14,3.69a8.28,8.28,0,0,0-2.63-3.23A11.91,11.91,0,0,0,100.44,389.53Z"/><path class="cls-19" d="M11.09,394.16l3.1-1.7v0a2.37,2.37,0,0,1,2.48.16L53.72,414c2.08,1.21,3.77,4.44,3.77,7.22v55.56l-3.26,1.8L12.9,451.06l-1-53.39Z"/><path class="cls-17" d="M9.63,452.86V397.29c0-2.78,1.69-4.05,3.78-2.85l37.05,21.39c2.08,1.2,3.77,4.43,3.77,7.21v55.57Z"/><path class="cls-3" d="M84.62,363.05A15.34,15.34,0,0,0,81.76,361a35.76,35.76,0,0,1,6.48-4.4c3.9-1.84,6.79,1.15,9.1,3.2s3.76,3.34,2.23,3.89c-.7.25-2.23-.62-2.23-.62s1,2.26,0,3.51-1.83-1.64-2.49-2.27c-.69.09-3.5,1.12-6.26.66a18.24,18.24,0,0,0-2.62.13A6,6,0,0,0,84.62,363.05Z"/><polygon class="cls-20" points="87.9 355.89 98.37 366.9 100.44 367.58 99.72 365.62 89.28 354.65 87.9 355.89"/><path class="cls-26" d="M87.9,355.89c.15.17.58,0,1-.32s.56-.75.42-.91-.58,0-1,.32S87.75,355.73,87.9,355.89Z"/><path class="cls-3" d="M90.42,359.84c.17,0,2,.56,3.38.79s3.48.74,3.76,1.72-.56,1.09-1.63,1-2.46,1-4.25.28S90.42,359.84,90.42,359.84Z"/><path class="cls-20" d="M78.6,363.71l3-3.11s1.38-.67,3.91,1.75,1.72,3.34,1.72,3.34l-2.49,3.46a8.42,8.42,0,0,0-2.29-3.48A11.71,11.71,0,0,0,78.6,363.71Z"/><path class="cls-16" d="M82,334.13c-.83-5.37-6.86-8.32-11.16-6-4.53-6.46-14.06-4.2-18.66,1.12a14.58,14.58,0,0,0-3.48,11c.55,5.87,9.34,9.2,8.28,16.18,5.67-1.13,12.66-2.83,15.91-7.95a9.66,9.66,0,0,0,1.38-5,9,9,0,0,0,4-1.2A8,8,0,0,0,82,334.13Z"/><path class="cls-10" d="M48.7,339.5s1,6.33,7.68,3.35,4.38-17.09-2.43-14.13S48.7,339.5,48.7,339.5Z"/><path class="cls-6" d="M54,330s.8-9.39-7.81-8.4c-6.68.77-4.31,7.45-4.31,7.45s-5.47,3-3.73,8.63,15.85,7.73,17.9.17C57.54,332.1,54,330,54,330Z"/><path class="cls-28" d="M465.76,388.05a2.51,2.51,0,0,0-1.05-2A.68.68,0,0,0,464,386h0l-15.55,8.89,1.44,2.88,15.43-8.85h0A.89.89,0,0,0,465.76,388.05Z"/><path class="cls-21" d="M450.27,396.94c0,.77-.47,1.12-1,.79a2.53,2.53,0,0,1-1-2c0-.77.47-1.12,1-.79A2.51,2.51,0,0,1,450.27,396.94Z"/><path class="cls-28" d="M485,377a2.48,2.48,0,0,0-1-2,.64.64,0,0,0-.66-.06h0l-15.55,8.89,1.44,2.89,15.43-8.86h0A.9.9,0,0,0,485,377Z"/><path class="cls-21" d="M469.53,385.87c0,.77-.47,1.12-1,.79a2.52,2.52,0,0,1-1-2c0-.76.47-1.12,1-.78A2.48,2.48,0,0,1,469.53,385.87Z"/><path class="cls-21" d="M516.88,393.94h0s0-1.76,0-1.76a16.89,16.89,0,0,0-1.79-.39l0,.18L491,378.07a6.16,6.16,0,0,0-5.53-.23l-34.55,20-1.48-.13v1.79h0a2.26,2.26,0,0,0,1.35,1.83l24.5,14.15a6.19,6.19,0,0,0,5.53.23l35.07-20.25A1.59,1.59,0,0,0,516.88,393.94Z"/><path class="cls-12" d="M480.86,413.89a6.13,6.13,0,0,1-5.53-.23l-24.5-14.14c-1.63-.95-1.81-2.38-.39-3.2l35.07-20.24a6.13,6.13,0,0,1,5.53.23l24.5,14.14c1.63.94,1.81,2.38.39,3.19Z"/><path class="cls-29" d="M515.6,393.45,480.53,413.7a5.44,5.44,0,0,1-4.91-.2l-24.5-14.15c-1.45-.83-1.61-2.11-.36-2.84l35.07-20.24a5.46,5.46,0,0,1,4.92.2l24.5,14.14C516.7,391.45,516.86,392.73,515.6,393.45Z"/><path class="cls-4" d="M458.89,399.52l-1.08.62a1.48,1.48,0,0,1-1.34-.05l-1.24-.72c-.4-.23-.44-.57-.1-.77l1.07-.62a1.5,1.5,0,0,1,1.35,0l1.24.72C459.19,399,459.23,399.33,458.89,399.52Z"/><path class="cls-4" d="M461.94,397.76l-1.07.62a1.5,1.5,0,0,1-1.35-.06l-1.24-.71c-.39-.23-.44-.58-.09-.78l1.07-.62a1.5,1.5,0,0,1,1.35.06l1.24.71C462.24,397.21,462.29,397.56,461.94,397.76Z"/><path class="cls-4" d="M465,396l-1.08.62a1.51,1.51,0,0,1-1.34-.06l-1.24-.72c-.4-.23-.44-.57-.1-.77l1.08-.62a1.48,1.48,0,0,1,1.34.05l1.24.72C465.3,395.45,465.34,395.8,465,396Z"/><path class="cls-4" d="M468.06,394.23l-1.08.62a1.51,1.51,0,0,1-1.34-.05l-1.24-.72c-.4-.23-.44-.58-.1-.78l1.07-.62a1.5,1.5,0,0,1,1.35.06l1.24.71C468.36,393.68,468.4,394,468.06,394.23Z"/><path class="cls-4" d="M471.11,392.47l-1.07.62a1.53,1.53,0,0,1-1.35-.06l-1.24-.72c-.39-.22-.44-.57-.09-.77l1.07-.62a1.48,1.48,0,0,1,1.34.05l1.25.72C471.41,391.92,471.46,392.27,471.11,392.47Z"/><path class="cls-4" d="M474.17,390.7l-1.08.62a1.51,1.51,0,0,1-1.34-.05l-1.24-.72c-.4-.23-.44-.58-.1-.78l1.08-.62a1.48,1.48,0,0,1,1.34.06l1.24.72C474.47,390.15,474.51,390.5,474.17,390.7Z"/><path class="cls-4" d="M477.23,388.94l-1.08.62a1.51,1.51,0,0,1-1.34-.06l-1.24-.72c-.4-.22-.44-.57-.1-.77l1.07-.62a1.53,1.53,0,0,1,1.35.05l1.24.72C477.52,388.39,477.57,388.74,477.23,388.94Z"/><path class="cls-4" d="M480.28,387.17l-1.07.62a1.5,1.5,0,0,1-1.35-.05l-1.24-.72c-.39-.23-.44-.58-.09-.78l1.07-.62a1.51,1.51,0,0,1,1.34.06l1.25.72C480.58,386.62,480.63,387,480.28,387.17Z"/><path class="cls-4" d="M462.26,401.47l-1.08.62a1.51,1.51,0,0,1-1.34,0l-1.24-.72c-.4-.23-.44-.58-.1-.78l1.08-.62a1.51,1.51,0,0,1,1.34.06l1.24.72C462.56,400.92,462.6,401.27,462.26,401.47Z"/><path class="cls-4" d="M465.32,399.71l-1.08.62a1.48,1.48,0,0,1-1.34-.06l-1.24-.72c-.4-.22-.44-.57-.1-.77l1.07-.62a1.53,1.53,0,0,1,1.35,0l1.24.72C465.61,399.16,465.66,399.51,465.32,399.71Z"/><path class="cls-4" d="M468.37,397.94l-1.07.62a1.5,1.5,0,0,1-1.35-.05l-1.24-.72c-.39-.23-.44-.58-.09-.78l1.07-.62a1.51,1.51,0,0,1,1.34.06l1.24.72C468.67,397.39,468.71,397.74,468.37,397.94Z"/><path class="cls-4" d="M471.43,396.18l-1.08.62a1.48,1.48,0,0,1-1.34-.06l-1.24-.71c-.4-.23-.44-.58-.1-.78l1.08-.62a1.51,1.51,0,0,1,1.34.05l1.24.72C471.73,395.63,471.77,396,471.43,396.18Z"/><path class="cls-4" d="M474.48,394.41l-1.07.62a1.48,1.48,0,0,1-1.34,0l-1.24-.72c-.4-.23-.44-.58-.1-.78l1.07-.62a1.53,1.53,0,0,1,1.35.06l1.24.72C474.78,393.87,474.83,394.21,474.48,394.41Z"/><path class="cls-4" d="M477.54,392.65l-1.07.62a1.5,1.5,0,0,1-1.35-.06l-1.24-.71c-.39-.23-.44-.58-.09-.78l1.07-.62a1.48,1.48,0,0,1,1.34.06l1.24.71C477.84,392.1,477.88,392.45,477.54,392.65Z"/><path class="cls-4" d="M480.6,390.88l-1.08.62a1.48,1.48,0,0,1-1.34-.05l-1.24-.72c-.4-.23-.44-.58-.1-.77l1.08-.63a1.51,1.51,0,0,1,1.34.06l1.24.72C480.9,390.34,480.94,390.68,480.6,390.88Z"/><path class="cls-4" d="M483.65,389.12l-1.07.62a1.48,1.48,0,0,1-1.34-.06L480,389c-.39-.23-.43-.58-.09-.78l1.07-.62a1.5,1.5,0,0,1,1.35.06l1.24.71C484,388.57,484,388.92,483.65,389.12Z"/><path class="cls-4" d="M486.71,387.35l-1.07.62a1.5,1.5,0,0,1-1.35-.05l-1.24-.72c-.39-.23-.44-.58-.1-.77l1.08-.62a1.48,1.48,0,0,1,1.34.05l1.24.72C487,386.81,487.05,387.16,486.71,387.35Z"/><path class="cls-4" d="M489.77,385.59l-1.08.62a1.48,1.48,0,0,1-1.34-.06l-1.24-.71c-.4-.23-.44-.58-.1-.78l1.08-.62a1.48,1.48,0,0,1,1.34.06l1.24.71C490.07,385,490.11,385.39,489.77,385.59Z"/><path class="cls-4" d="M492.82,383.82l-1.07.63a1.51,1.51,0,0,1-1.34-.06l-1.25-.72c-.39-.23-.43-.58-.09-.77l1.07-.62a1.5,1.5,0,0,1,1.35.05l1.24.72C493.12,383.28,493.17,383.63,492.82,383.82Z"/><path class="cls-4" d="M495.88,382.06l-1.07.62a1.5,1.5,0,0,1-1.35-.06l-1.24-.71c-.4-.23-.44-.58-.1-.78l1.08-.62a1.48,1.48,0,0,1,1.34.06l1.24.71C496.18,381.51,496.22,381.86,495.88,382.06Z"/><path class="cls-4" d="M465.63,403.42l-1.07.62a1.5,1.5,0,0,1-1.35-.06l-1.24-.71c-.39-.23-.44-.58-.1-.78l1.08-.62a1.48,1.48,0,0,1,1.34.06l1.24.71C465.93,402.87,466,403.22,465.63,403.42Z"/><path class="cls-4" d="M468.69,401.65l-1.08.62a1.48,1.48,0,0,1-1.34,0L465,401.5c-.4-.23-.44-.58-.1-.77l1.08-.62a1.48,1.48,0,0,1,1.34.05l1.24.72C469,401.11,469,401.46,468.69,401.65Z"/><path class="cls-4" d="M471.74,399.89l-1.07.62a1.48,1.48,0,0,1-1.34-.06l-1.25-.71c-.39-.23-.44-.58-.09-.78l1.07-.62a1.5,1.5,0,0,1,1.35.06l1.24.71C472,399.34,472.09,399.69,471.74,399.89Z"/><path class="cls-4" d="M474.8,398.12l-1.07.62a1.5,1.5,0,0,1-1.35-.05l-1.24-.72c-.4-.23-.44-.58-.1-.77l1.08-.62a1.48,1.48,0,0,1,1.34.05l1.24.72C475.1,397.58,475.14,397.93,474.8,398.12Z"/><path class="cls-4" d="M477.86,396.36l-1.08.62a1.48,1.48,0,0,1-1.34-.06l-1.24-.71c-.4-.23-.44-.58-.1-.78l1.08-.62a1.48,1.48,0,0,1,1.34.06l1.24.71C478.16,395.81,478.2,396.16,477.86,396.36Z"/><path class="cls-4" d="M480.91,394.59l-1.07.63a1.51,1.51,0,0,1-1.34-.06l-1.25-.72c-.39-.23-.44-.57-.09-.77l1.07-.62a1.5,1.5,0,0,1,1.35.05l1.24.72C481.21,394.05,481.26,394.4,480.91,394.59Z"/><path class="cls-4" d="M484,392.83l-1.07.62a1.53,1.53,0,0,1-1.35-.05l-1.24-.72c-.4-.23-.44-.58-.1-.78l1.08-.62a1.48,1.48,0,0,1,1.34.06l1.24.71C484.27,392.28,484.31,392.63,484,392.83Z"/><path class="cls-4" d="M490.08,389.3,486,391.69a1.51,1.51,0,0,1-1.34-.06l-1.24-.72c-.4-.23-.44-.57-.1-.77l4.13-2.39a1.5,1.5,0,0,1,1.35.06l1.24.72C490.38,388.75,490.43,389.1,490.08,389.3Z"/><path class="cls-4" d="M493.14,387.54l-1.08.62a1.51,1.51,0,0,1-1.34-.06l-1.24-.72c-.4-.22-.44-.57-.1-.77l1.08-.62a1.48,1.48,0,0,1,1.34.05l1.24.72C493.44,387,493.48,387.34,493.14,387.54Z"/><path class="cls-4" d="M496.2,385.77l-1.08.62a1.51,1.51,0,0,1-1.34-.05l-1.24-.72c-.4-.23-.44-.58-.1-.78l1.08-.62a1.51,1.51,0,0,1,1.34.06l1.24.72C496.5,385.22,496.54,385.57,496.2,385.77Z"/><path class="cls-4" d="M499.25,384l-1.07.62a1.5,1.5,0,0,1-1.35-.06l-1.24-.72c-.39-.22-.44-.57-.09-.77l1.07-.62a1.53,1.53,0,0,1,1.35.05l1.24.72C499.55,383.46,499.6,383.81,499.25,384Z"/><path class="cls-4" d="M469,405.37l-1.07.62a1.54,1.54,0,0,1-1.35-.06l-1.24-.72c-.39-.23-.44-.57-.09-.77l1.07-.62a1.5,1.5,0,0,1,1.35.05l1.24.72C469.3,404.82,469.35,405.17,469,405.37Z"/><path class="cls-4" d="M472.06,403.6l-1.08.62a1.51,1.51,0,0,1-1.34-.05l-1.24-.72c-.4-.23-.44-.58-.1-.78l1.08-.62a1.48,1.48,0,0,1,1.34.06l1.24.71C472.36,403.05,472.4,403.4,472.06,403.6Z"/><path class="cls-4" d="M475.12,401.84l-1.08.62a1.51,1.51,0,0,1-1.34-.06l-1.24-.72c-.4-.22-.44-.57-.1-.77l1.07-.62a1.5,1.5,0,0,1,1.35,0l1.24.72C475.42,401.29,475.46,401.64,475.12,401.84Z"/><path class="cls-4" d="M478.17,400.07l-1.07.62a1.53,1.53,0,0,1-1.35-.05l-1.24-.72c-.39-.23-.44-.58-.09-.78l1.07-.62a1.48,1.48,0,0,1,1.34.06l1.25.72C478.47,399.52,478.52,399.87,478.17,400.07Z"/><path class="cls-4" d="M481.23,398.31l-1.08.62a1.51,1.51,0,0,1-1.34-.06l-1.24-.72c-.4-.22-.44-.57-.1-.77l1.08-.62a1.51,1.51,0,0,1,1.34.05l1.24.72C481.53,397.76,481.57,398.11,481.23,398.31Z"/><path class="cls-4" d="M484.29,396.54l-1.08.62a1.48,1.48,0,0,1-1.34-.05l-1.24-.72c-.4-.23-.44-.58-.1-.78l1.07-.62a1.53,1.53,0,0,1,1.35.06l1.24.72C484.59,396,484.63,396.34,484.29,396.54Z"/><path class="cls-4" d="M487.34,394.78l-1.07.62a1.5,1.5,0,0,1-1.35-.06l-1.24-.71c-.39-.23-.44-.58-.09-.78l1.07-.62a1.51,1.51,0,0,1,1.34,0l1.25.72C487.64,394.23,487.69,394.58,487.34,394.78Z"/><path class="cls-4" d="M490.4,393l-1.08.62a1.48,1.48,0,0,1-1.34-.05l-1.24-.72c-.4-.23-.44-.58-.1-.77l1.08-.63a1.51,1.51,0,0,1,1.34.06l1.24.72C490.7,392.47,490.74,392.81,490.4,393Z"/><path class="cls-4" d="M493.46,391.25l-1.08.62a1.48,1.48,0,0,1-1.34-.06l-1.24-.71c-.4-.23-.44-.58-.1-.78l1.07-.62a1.5,1.5,0,0,1,1.35.06l1.24.71C493.76,390.7,493.8,391.05,493.46,391.25Z"/><path class="cls-4" d="M496.51,389.48l-1.07.62a1.5,1.5,0,0,1-1.35-.05l-1.24-.72c-.39-.23-.44-.58-.09-.77l1.07-.63a1.51,1.51,0,0,1,1.34.06l1.25.72C496.81,388.94,496.86,389.28,496.51,389.48Z"/><path class="cls-4" d="M499.57,387.72l-1.08.62a1.48,1.48,0,0,1-1.34-.06l-1.24-.71c-.4-.23-.44-.58-.1-.78l1.08-.62a1.48,1.48,0,0,1,1.34.06l1.24.71C499.87,387.17,499.91,387.52,499.57,387.72Z"/><path class="cls-4" d="M502.63,386l-1.08.62a1.48,1.48,0,0,1-1.34-.05L499,385.8c-.4-.23-.44-.58-.1-.77l1.07-.62a1.5,1.5,0,0,1,1.35,0l1.24.72C502.92,385.41,503,385.76,502.63,386Z"/><path class="cls-4" d="M472.38,407.31l-1.08.62a1.48,1.48,0,0,1-1.34-.05l-1.24-.72c-.4-.23-.44-.58-.1-.78l1.07-.62a1.53,1.53,0,0,1,1.35.06l1.24.72C472.67,406.76,472.72,407.11,472.38,407.31Z"/><path class="cls-4" d="M475.43,405.55l-1.07.62a1.5,1.5,0,0,1-1.35-.06l-1.24-.71c-.39-.23-.44-.58-.09-.78l1.07-.62a1.48,1.48,0,0,1,1.34.06l1.25.71C475.73,405,475.77,405.35,475.43,405.55Z"/><path class="cls-4" d="M478.49,403.78l-1.08.62a1.48,1.48,0,0,1-1.34,0l-1.24-.72c-.4-.23-.44-.58-.1-.77l1.08-.63a1.51,1.51,0,0,1,1.34.06l1.24.72C478.79,403.24,478.83,403.58,478.49,403.78Z"/><path class="cls-4" d="M490.71,396.72l-10.24,5.92a1.48,1.48,0,0,1-1.34-.06l-1.24-.71c-.4-.23-.44-.58-.1-.78L488,395.18a1.5,1.5,0,0,1,1.35.05l1.24.72C491,396.18,491.06,396.53,490.71,396.72Z"/><path class="cls-4" d="M493.77,395l-1.07.62a1.5,1.5,0,0,1-1.35-.06l-1.24-.71c-.39-.23-.44-.58-.09-.78l1.07-.62a1.48,1.48,0,0,1,1.34.06l1.24.71C494.07,394.41,494.11,394.76,493.77,395Z"/><path class="cls-4" d="M496.83,393.19l-1.08.63a1.51,1.51,0,0,1-1.34-.06l-1.24-.72c-.4-.23-.44-.57-.1-.77l1.08-.62a1.48,1.48,0,0,1,1.34.05l1.24.72C497.13,392.65,497.17,393,496.83,393.19Z"/><path class="cls-4" d="M499.88,391.43l-1.07.62a1.48,1.48,0,0,1-1.34-.06l-1.25-.71c-.39-.23-.43-.58-.09-.78l1.07-.62a1.5,1.5,0,0,1,1.35.06l1.24.71C500.18,390.88,500.23,391.23,499.88,391.43Z"/><path class="cls-4" d="M502.94,389.67l-1.07.62a1.53,1.53,0,0,1-1.35-.06l-1.24-.72c-.4-.23-.44-.57-.1-.77l1.08-.62a1.48,1.48,0,0,1,1.34.05l1.24.72C503.24,389.12,503.28,389.47,502.94,389.67Z"/><path class="cls-4" d="M506,387.9l-1.08.62a1.51,1.51,0,0,1-1.34,0l-1.24-.72c-.4-.23-.44-.58-.1-.78l1.08-.62a1.48,1.48,0,0,1,1.34.06l1.24.71C506.3,387.35,506.34,387.7,506,387.9Z"/><path class="cls-4" d="M483.34,385.41l-1.08.62a1.48,1.48,0,0,1-1.34-.06l-1.24-.72c-.4-.22-.44-.57-.1-.77l1.08-.62a1.51,1.51,0,0,1,1.34.05l1.24.72C483.64,384.86,483.68,385.21,483.34,385.41Z"/><path class="cls-4" d="M486.4,383.64l-1.08.62a1.48,1.48,0,0,1-1.34-.05l-1.24-.72c-.4-.23-.44-.58-.1-.78l1.07-.62a1.53,1.53,0,0,1,1.35.06l1.24.72C486.69,383.09,486.74,383.44,486.4,383.64Z"/><path class="cls-4" d="M489.45,381.88l-1.07.62a1.5,1.5,0,0,1-1.35-.06l-1.24-.71c-.39-.23-.44-.58-.09-.78l1.07-.62a1.51,1.51,0,0,1,1.34.05l1.25.72C489.75,381.33,489.79,381.68,489.45,381.88Z"/><path class="cls-4" d="M492.51,380.11l-1.08.62a1.48,1.48,0,0,1-1.34-.05l-1.24-.72c-.4-.23-.44-.58-.1-.77l1.08-.63a1.51,1.51,0,0,1,1.34.06l1.24.72C492.81,379.57,492.85,379.91,492.51,380.11Z"/><path class="cls-4" d="M489.33,378l-1.5.87a1,1,0,0,1-.88,0l-.49-.28c-.26-.15-.29-.38-.07-.51l1.5-.87a1,1,0,0,1,.89,0l.49.28C489.53,377.67,489.56,377.9,489.33,378Z"/><path class="cls-4" d="M486.28,379.8l-1.5.87a1,1,0,0,1-.89,0l-.49-.29c-.26-.15-.29-.38-.06-.51l1.5-.86a1,1,0,0,1,.88,0l.49.29C486.47,379.44,486.5,379.67,486.28,379.8Z"/><path class="cls-4" d="M483.22,381.56l-1.5.87a1,1,0,0,1-.89,0l-.49-.28c-.26-.15-.29-.38-.06-.51l1.5-.87a1,1,0,0,1,.89,0l.49.28C483.42,381.2,483.45,381.43,483.22,381.56Z"/><path class="cls-4" d="M480.16,383.33l-1.5.86a1,1,0,0,1-.88,0l-.49-.29c-.26-.15-.29-.38-.07-.51l1.5-.86a1,1,0,0,1,.89,0l.49.29C480.36,383,480.39,383.2,480.16,383.33Z"/><path class="cls-4" d="M477.11,385.09l-1.5.87a1,1,0,0,1-.89,0l-.49-.28c-.26-.15-.29-.38-.06-.51l1.5-.87a1,1,0,0,1,.88,0l.49.28C477.3,384.73,477.33,385,477.11,385.09Z"/><path class="cls-4" d="M474.05,386.86l-1.5.86a1,1,0,0,1-.88,0l-.5-.29c-.26-.15-.29-.38-.06-.51l1.5-.86a1,1,0,0,1,.89,0l.49.29C474.25,386.5,474.28,386.73,474.05,386.86Z"/><path class="cls-4" d="M471,388.62l-1.5.87a1,1,0,0,1-.88,0l-.49-.28c-.26-.15-.29-.38-.07-.51l1.5-.87a1,1,0,0,1,.89,0l.49.28C471.19,388.26,471.22,388.49,471,388.62Z"/><path class="cls-4" d="M467.94,390.39l-1.5.86a1,1,0,0,1-.89,0l-.49-.29c-.26-.15-.29-.38-.06-.51l1.5-.86a1,1,0,0,1,.88,0l.49.29C468.14,390,468.16,390.26,467.94,390.39Z"/><path class="cls-4" d="M464.88,392.15l-1.5.87a1,1,0,0,1-.88,0l-.5-.28c-.26-.15-.28-.38-.06-.51l1.5-.87a1,1,0,0,1,.89,0l.49.28C465.08,391.79,465.11,392,464.88,392.15Z"/><path class="cls-4" d="M461.82,393.92l-1.5.86a1,1,0,0,1-.88,0l-.49-.29c-.26-.15-.29-.38-.07-.51l1.5-.86a1,1,0,0,1,.89,0l.49.29C462,393.56,462.05,393.79,461.82,393.92Z"/><path class="cls-4" d="M458.77,395.68l-1.5.87a1,1,0,0,1-.89,0l-.49-.28c-.26-.15-.29-.38-.06-.51l1.5-.87a1,1,0,0,1,.88,0l.49.28C459,395.32,459,395.55,458.77,395.68Z"/><path class="cls-4" d="M455.71,397.45l-1.5.86a1,1,0,0,1-.88,0l-.49-.29c-.27-.15-.29-.38-.07-.51l1.5-.87a1,1,0,0,1,.89,0l.49.28C455.91,397.09,455.94,397.32,455.71,397.45Z"/><path class="cls-21" d="M500.89,400.36l-9.48,5.47a2.42,2.42,0,0,1-2.17-.09l-4.84-2.8c-.64-.36-.71-.93-.16-1.25l9.48-5.47a2.42,2.42,0,0,1,2.17.09l4.84,2.8C501.37,399.48,501.44,400,500.89,400.36Z"/><path class="cls-5" d="M454.38,402.69l-2.68-1.54a.62.62,0,0,1-.25-.49h0c0-.18.11-.27.25-.19l2.68,1.55a.61.61,0,0,1,.26.48h0C454.64,402.69,454.52,402.77,454.38,402.69Z"/><path class="cls-5" d="M458.35,405l-2.68-1.55a.62.62,0,0,1-.26-.49h0c0-.18.12-.27.26-.19l2.68,1.55a.61.61,0,0,1,.25.49h0C458.6,405,458.49,405.11,458.35,405Z"/><path class="cls-5" d="M470.38,412l-2.69-1.55a.59.59,0,0,1-.25-.48h0c0-.19.11-.27.25-.19l2.69,1.55a.6.6,0,0,1,.25.48h0C470.63,412,470.52,412.05,470.38,412Z"/><path class="cls-21" d="M486.66,340.39l-1.24-.71h0a.81.81,0,0,0-.89,0L447.68,361a3.1,3.1,0,0,0-1.29,2.46V394.4a1.18,1.18,0,0,0,.42,1h0l1.33.77.67-1.46,35.72-20.62a3.1,3.1,0,0,0,1.29-2.47V341.31c.25.16.45.29.47.29S486.66,340.39,486.66,340.39Z"/><path class="cls-12" d="M449,396.15l36.84-21.28a3.1,3.1,0,0,0,1.29-2.46v-31c0-.95-.58-1.39-1.29-1L449,361.76a3.1,3.1,0,0,0-1.29,2.46v30.95C447.73,396.12,448.31,396.56,449,396.15Z"/><path class="cls-29" d="M449.32,395.51l36.25-20.93a3.06,3.06,0,0,0,1.27-2.43V341.93c0-.93-.58-1.37-1.27-1L449.32,361.9a3,3,0,0,0-1.27,2.42v30.23C448.05,395.48,448.62,395.91,449.32,395.51Z"/><polygon class="cls-5" points="472.99 350.91 449.21 364.64 449.21 392.88 472.99 379.16 472.99 350.91"/><polygon class="cls-6" points="471.81 352.78 450.09 365.32 450.09 365.96 471.81 353.41 471.81 352.78"/><polygon class="cls-6" points="461.69 360.35 450.09 367.05 450.09 367.68 461.69 360.98 461.69 360.35"/><polygon class="cls-6" points="462.84 359.69 462.84 360.32 471.81 355.14 471.81 354.5 462.84 359.69"/><polygon class="cls-6" points="471.81 356.26 450.09 368.8 450.09 369.44 471.81 356.89 471.81 356.26"/><polygon class="cls-6" points="457.01 366.56 450.09 370.53 450.09 371.16 457.01 367.2 457.01 366.56"/><polygon class="cls-6" points="458.15 365.9 458.15 366.53 471.81 358.62 471.81 357.99 458.15 365.9"/><polygon class="cls-6" points="464.98 363.73 450.09 372.32 450.09 372.96 464.98 364.36 464.98 363.73"/><polygon class="cls-6" points="464.98 365.48 450.09 374.08 450.09 374.71 464.98 366.11 464.98 365.48"/><polygon class="cls-6" points="466.13 363.06 466.13 363.7 471.81 360.42 471.81 359.78 466.13 363.06"/><polygon class="cls-12" points="472.99 350.91 472.99 379.16 485.67 371.83 485.67 343.59 472.99 350.91"/><polygon class="cls-10" points="472.99 350.91 472.99 355.76 485.67 348.43 485.67 343.59 472.99 350.91"/><path class="cls-5" d="M466.92,353c0,.33.21.48.46.34a1.09,1.09,0,0,0,.45-.87c0-.33-.2-.49-.45-.34A1.08,1.08,0,0,0,466.92,353Z"/><path class="cls-5" d="M469.13,351.67c0,.27.17.39.37.28a.91.91,0,0,0,.37-.71c0-.27-.17-.39-.37-.27A.88.88,0,0,0,469.13,351.67Z"/><path class="cls-5" d="M447.67,365.87a.06.06,0,1,1,.12,0c.06,1.35,0,2.71,0,4.07s0,2.72-.07,4.07c0,.08-.15.14-.15,0A78.47,78.47,0,0,1,447.67,365.87Z"/><path class="cls-5" d="M450.27,361.23c1-.72,5.39-3.28,7.05-4.15.25-.14.37-.08.12.12a62.16,62.16,0,0,1-7.07,4.21C450.28,361.45,450.12,361.35,450.27,361.23Z"/><path class="cls-5" d="M459.19,356.1c1-.72,5.39-3.28,7-4.15.26-.14.38-.08.12.12a63,63,0,0,1-7.06,4.21C459.19,356.32,459,356.22,459.19,356.1Z"/><path class="cls-5" d="M486,411c-2.3,1.11-4.68,3.07-7.43,3.38-1.6.18-2.9-.65-4.25-1.38-1.17-.62-2.29-1.33-3.48-1.92,0,0,0,0,0,0a39,39,0,0,0,4.07,2.54,6.57,6.57,0,0,0,3.79,1.07c2.34-.22,5.42-2.07,7.38-3.66C486.11,411,486.05,410.94,486,411Z"/><polygon class="cls-5" points="478.89 369.56 474.78 371.94 474.78 372.58 478.89 370.21 478.89 369.56"/><polygon class="cls-5" points="478.89 370.75 474.78 373.12 474.78 373.76 478.89 371.39 478.89 370.75"/><polygon class="cls-5" points="478.89 371.93 474.78 374.3 474.78 374.94 478.89 372.57 478.89 371.93"/><polygon class="cls-5" points="478.89 373.11 474.78 375.48 474.78 376.13 478.89 373.75 478.89 373.11"/><polygon class="cls-5" points="484.05 366.55 479.94 368.92 479.94 369.56 484.05 367.19 484.05 366.55"/><polygon class="cls-5" points="484.05 367.73 479.94 370.1 479.94 370.75 484.05 368.37 484.05 367.73"/><polygon class="cls-5" points="484.05 368.91 479.94 371.29 479.94 371.93 484.05 369.56 484.05 368.91"/><polygon class="cls-5" points="484.05 370.1 479.94 372.47 479.94 373.11 484.05 370.74 484.05 370.1"/><polygon class="cls-6" points="485.02 364.05 473.68 370.48 473.68 371.69 485.02 365.26 485.02 364.05"/><polygon class="cls-5" points="484.3 362.72 474.53 368.36 474.53 354.89 484.3 349.25 484.3 362.72"/><polygon class="cls-10" points="476.41 366.91 475.04 367.7 475.04 356.15 476.41 355.36 476.41 366.91"/><polygon class="cls-10" points="478.71 365.58 477.34 366.37 477.34 356.6 478.71 355.81 478.71 365.58"/><polygon class="cls-10" points="481.02 364.25 479.65 365.04 479.65 357.21 481.02 356.42 481.02 364.25"/><polygon class="cls-10" points="483.32 362.92 481.95 363.71 481.95 357.94 483.32 357.15 483.32 362.92"/><polygon class="cls-6" points="484.3 362.72 474.53 368.36 474.53 367.88 484.3 362.24 484.3 362.72"/><path class="cls-6" d="M486.17,501.05c-5.11.58-6.26,5.5-2.56,8.53,3.36,2.76,7.09,6.09,11.55,7.23a12.61,12.61,0,0,0,7.84-.38l.6,2.57s6,2,8.41-1c.89-3.43.51-11-1.58-14.35-2.23-3.56-4.05-2.54-9.82-1.59C498.05,502.48,488,500.84,486.17,501.05Z"/><path class="cls-6" d="M513.38,487.6c-5.12.58-6.27,5.5-2.57,8.53,3.37,2.76,7.09,6.09,11.56,7.23a12.63,12.63,0,0,0,7.84-.38l.59,2.57s6,2,8.42-1c.89-3.43.5-11-1.58-14.34-2.23-3.57-4-2.55-9.83-1.6C525.25,489,515.21,487.39,513.38,487.6Z"/><path class="cls-21" d="M535.7,442.38c-6.6,1.93-13.12-1.65-20.31-3.15.42,2.3.91,8,2,12.24,3.46,12.81,4.64,32.33,6.26,40.35,2.32,2.75,13.3,4.56,14-.93,1.56-12.79,3.68-28.66.36-40.67C537,446.44,536.31,444.22,535.7,442.38Z"/><path class="cls-12" d="M509.79,453.84c-6.19,2.07-7.72-12.3-14.08-14.29-4.13,5.53-4.76,18.35-4,25C493.28,477.74,495,496.86,496,505c2.11,2.91,14,5.24,15.09-.19,2.51-12.63,1.63-27.3.23-39.68C510.84,461.2,510.78,457.12,509.79,453.84Z"/><path class="cls-12" d="M511.51,473.81v51.95c0,.82,1.11,1.49,2.48,1.49s2.49-.67,2.49-1.49V473.81Z"/><path class="cls-12" d="M551.72,497.41v51.95c0,.83,1.11,1.49,2.49,1.49s2.48-.66,2.48-1.49V497.41Z"/><path class="cls-12" d="M592.87,473.81v51.95c0,.82,1.11,1.49,2.48,1.49s2.49-.67,2.49-1.49V473.81Z"/><polygon class="cls-10" points="600.67 477.32 554.25 504.12 507.87 477.31 554.28 450.51 600.67 477.32"/><polygon class="cls-10" points="600.67 473.68 554.25 500.47 507.87 473.66 554.28 446.87 600.67 473.68"/><polygon class="cls-19" points="507.87 473.66 507.87 477.31 554.25 504.12 554.25 500.47 507.87 473.66"/><polygon class="cls-17" points="600.67 473.68 600.67 477.32 554.25 504.12 554.25 500.47 600.67 473.68"/><path class="cls-21" d="M516.14,444.58c.45-.05,13.76,2.54,14.27,2.47,8.84,7.15,17.81,21.77,27.46,24.78,7.65,8.95,14.62,1.35,17.45-1.58,8.06-8.32,7.08-21.31,5.07-25.67-.7-1.52-8.23-.18-12.67-2.05-2.91-1.22-16.28-7.92-30.09-13.7-2.15-.9-18-5.16-21.15-.19C512.7,434.69,513.72,437.68,516.14,444.58Z"/><path class="cls-12" d="M569,459.11c4.28-19.75-23.8-7.21-28-9.64-2.73-1.59-21.36-7.88-35-14-6.2-2.76-10.57,2-12.44,8.66-2.06,7.31,8.58,1.77,10,8.92a1.25,1.25,0,0,1-.09.78c8.23,15.69,23.69,22.21,28.93,23.47,6.49,5.71,18.79,8,24.67,5.16C565.75,478.27,567.24,467.21,569,459.11Z"/><path class="cls-24" d="M549.69,379.39s-12.83,4.63-18.63,10.48c-5.84-2.93-17.5-4.36-23.19-4.78s-7.13,7.74-4.67,10.3,12.51,7.34,21,8.68,18.35,0,18.35,0Z"/><path class="cls-24" d="M550.49,378s10.92-11.73,20.57,1.56c10.74,14.8-4.17,26.76-7.73,34.5C562.18,416.51,550.49,378,550.49,378Z"/><path class="cls-3" d="M541.28,379.24l2.05,8.15c4.73-.47,10-2.2,13.12-6.66-1.27-1.67-2.48-8.42-2.45-10.23,2.83-4.27,1.27-8.85-2-14.13-3.47-5.54-11.71-7.53-17.61-4.85a8,8,0,0,0-5.74,6.43c-.68,5.13-.79,17.82,2.91,21C534.11,381.21,538.16,379.61,541.28,379.24Z"/><path class="cls-6" d="M558.84,358a11.34,11.34,0,0,0-4.34-10.71c-4.08-3.25-12.21-5.57-16.94-2.34a3.26,3.26,0,0,0-.09-.45c-.78-1.75-2.72-2-4.32-1.3a7.71,7.71,0,0,0-3.18,2.7,3.73,3.73,0,0,0-2.46-.57c-3,.45-3.78,4.26-3.38,6.71C525,357.1,531,363.91,536.6,364c-.93,2.61,0,4.38,1.73,6.66A11.52,11.52,0,0,0,550,374.58c4.81-1.06,9.92-5,10.85-10.08A7.35,7.35,0,0,0,558.84,358Z"/><path class="cls-3" d="M534.42,364.71s1.74-2.89,4.2-.2-2.5,7.64-2.5,7.64Z"/><path class="cls-5" d="M560.82,379.79c-5.53.42-13.21,4.37-24.28,11.85s-6.9,11.14-6.25,16.23.62,3.7,4.13,13.77c-1.48,12.31,2.44,23.89,2.44,23.89s-9,.35-5.57,6.57c2.63,2.8,14.32,11.59,24.08,11.45,8.38-.11,14.15-2.32,22.87-10,.06-14-1.54-34.49-2.33-46.09C575,394,575,378.7,560.82,379.79Z"/><path class="cls-24" d="M540.49,451.39s5.56,1.32,11.64,2.93,6.85,1.4,11.2,2.24c-1.69,0-9.07,1.2-13.49.19C544.74,455.59,540.49,451.39,540.49,451.39Z"/><path class="cls-24" d="M563.33,448.12a12.64,12.64,0,0,1-8.72,2.39c-5.22-.51-8.52-1.14-8.52-1.14s5.62-1.61,8.52-1.25A66.13,66.13,0,0,0,563.33,448.12Z"/><path class="cls-4" d="M502.88,420.86c1.75-2,10.6-10.44,16.4-13.85,5.84-11,11.28-13.62,15.69-12.89,6.2,1,10.29,8.34,9.25,16.84-1.41,11.41-6.07,17.54-13.16,13.84-1.84,5.32-19.76,13.79-25.73,12.4C501.16,432.72,501.13,426.65,502.88,420.86Z"/><path class="cls-3" d="M482.22,400.13c.63,1.33.45,1.18,1.86,1.89.61-1.56,1.17-5.57,3.72-6,1.36-.25-.2,3.3-.46,6.16a10.2,10.2,0,0,0,1.61,6.39s-.86,6.5-3.34,6.52-9.07-5.3-10.68-7.19-2.48-2.91-.17-7.25c1.12-2.09,2.6-2.67,4.32-2.23,2.08-2.8,3.15-2.82,4.53-1.8C483,398.06,482.57,399.25,482.22,400.13Z"/><path class="cls-4" d="M493,412.05l-4-3.52s-2.11-.37-5.16,2.25a7,7,0,0,0-2.24,3.77l4.08,4.25Z"/><path class="cls-4" d="M491.89,411c4.88-.12,10.58,6.5,15.64,10.52-2.34,5.18,9.12,13,5.23,15.42-3.45,2.13-9.83,2.57-12.91-.14a89,89,0,0,1-15.63-19.15C484.64,415.42,487.67,411.56,491.89,411Z"/><path class="cls-4" d="M538.56,390.12s4.28-5.69,9.33-8.62,10.6-5.83,10.6-5.83l2.33,4.12a14.7,14.7,0,0,1-6.73,6.88C549.47,388.72,538.56,390.12,538.56,390.12Z"/><path class="cls-19" d="M599.2,412.46,596,410.68v0a2.47,2.47,0,0,0-2.58.18l-38.64,22.3c-2.17,1.26-3.94,4.63-3.94,7.53v58l3.41,1.87,43.11-28.73,1-55.69Z"/><path class="cls-17" d="M600.72,473.68v-58c0-2.9-1.76-4.23-3.94-3l-38.64,22.31c-2.17,1.25-3.93,4.62-3.93,7.52v57.95Z"/><path class="cls-19" d="M503.8,357.62h-.86l2,13.2c0,1.48,2.25,2.68,5,2.68s5-1.2,5-2.68l2-13.2Z"/><path class="cls-17" d="M509.94,353.9c-3.6,0-6.56,1.44-6.95,3.29a2,2,0,0,0-.05.43c0,2.05,3.13,3.72,7,3.72s7-1.67,7-3.72S513.8,353.9,509.94,353.9Z"/><path class="cls-19" d="M510,356.75c2.69,0,5,.85,6,2.07a2,2,0,0,0,.49-1.29c0-1.85-2.89-3.35-6.46-3.35s-6.46,1.5-6.46,3.35a2.05,2.05,0,0,0,.5,1.29C505,357.6,507.27,356.75,510,356.75Z"/><path class="cls-11" d="M510,360.88c2.69,0,5-.85,6-2.06-1-1.22-3.28-2.07-6-2.07s-5,.85-6,2.07C505,360,507.27,360.88,510,360.88Z"/><path class="cls-19" d="M348.75,431.94h-.85l2,13.2c0,1.48,2.25,2.68,5,2.68s5-1.2,5-2.68l2-13.2Z"/><path class="cls-17" d="M354.89,428.21c-3.59,0-6.55,1.45-6.95,3.3a2,2,0,0,0,0,.43c0,2.05,3.13,3.72,7,3.72s7-1.67,7-3.72S358.75,428.21,354.89,428.21Z"/><path class="cls-19" d="M354.92,431.07c2.69,0,5,.85,6,2.07a2.05,2.05,0,0,0,.5-1.29c0-1.85-2.89-3.35-6.46-3.35s-6.46,1.5-6.46,3.35a2.05,2.05,0,0,0,.5,1.29C349.93,431.92,352.23,431.07,354.92,431.07Z"/><path class="cls-11" d="M354.92,435.2c2.69,0,5-.85,6-2.06-1-1.22-3.27-2.07-6-2.07s-5,.85-6,2.07C349.93,434.35,352.23,435.2,354.92,435.2Z"/><path class="cls-19" d="M243.67,404h-.85l2,13.21c0,1.47,2.25,2.67,5,2.67s5-1.2,5-2.67l2-13.21Z"/><path class="cls-17" d="M249.82,400.28c-3.6,0-6.56,1.44-6.95,3.3a1.93,1.93,0,0,0-.05.42c0,2.05,3.13,3.72,7,3.72s7-1.67,7-3.72S253.68,400.28,249.82,400.28Z"/><path class="cls-19" d="M249.84,403.13c2.69,0,5,.86,6,2.07a2,2,0,0,0,.49-1.29c0-1.85-2.89-3.35-6.46-3.35s-6.46,1.5-6.46,3.35a2.05,2.05,0,0,0,.5,1.29C244.85,404,247.15,403.13,249.84,403.13Z"/><path class="cls-11" d="M249.84,407.27c2.69,0,5-.86,6-2.07-1-1.21-3.28-2.07-6-2.07s-5,.86-6,2.07C244.85,406.41,247.15,407.27,249.84,407.27Z"/><path class="cls-19" d="M121.85,352.73H121l2,13.21c0,1.48,2.25,2.68,5,2.68s5-1.2,5-2.68l2-13.21Z"/><path class="cls-17" d="M128,349c-3.59,0-6.55,1.45-6.95,3.3a3,3,0,0,0,0,.42c0,2.06,3.13,3.73,7,3.73s7-1.67,7-3.73S131.86,349,128,349Z"/><path class="cls-19" d="M128,351.87c2.69,0,5,.85,6,2.07a2.1,2.1,0,0,0,.49-1.29c0-1.85-2.89-3.35-6.46-3.35s-6.46,1.5-6.46,3.35a2.05,2.05,0,0,0,.5,1.29C123,352.72,125.33,351.87,128,351.87Z"/><path class="cls-11" d="M128,356c2.69,0,5-.85,6-2.06-1-1.22-3.28-2.07-6-2.07s-5,.85-6,2.07C123,355.15,125.33,356,128,356Z"/><path class="cls-19" d="M113,267.33h-.85l2,13.21c0,1.47,2.25,2.67,5,2.67s5-1.2,5-2.67l2-13.21Z"/><path class="cls-17" d="M119.11,263.61c-3.59,0-6.55,1.44-7,3.29a2,2,0,0,0,0,.43c0,2.05,3.13,3.72,7,3.72s7-1.67,7-3.72S123,263.61,119.11,263.61Z"/><path class="cls-19" d="M119.14,266.46c2.69,0,5,.86,6,2.07a2.1,2.1,0,0,0,.49-1.29c0-1.85-2.89-3.35-6.46-3.35s-6.46,1.5-6.46,3.35a2.05,2.05,0,0,0,.5,1.29C114.15,267.32,116.45,266.46,119.14,266.46Z"/><path class="cls-11" d="M119.14,270.59c2.69,0,5-.85,6-2.06-1-1.21-3.28-2.07-6-2.07s-5,.86-6,2.07C114.15,269.74,116.45,270.59,119.14,270.59Z"/><path class="cls-19" d="M275.42,214.48h-.85l2,13.21c0,1.47,2.25,2.67,5,2.67s5-1.2,5-2.67l2-13.21Z"/><path class="cls-17" d="M281.56,210.76c-3.59,0-6.55,1.44-6.95,3.29a2,2,0,0,0,0,.43c0,2.05,3.13,3.72,7,3.72s7-1.67,7-3.72S285.42,210.76,281.56,210.76Z"/><path class="cls-19" d="M281.59,213.61c2.69,0,5,.86,6,2.07a2.05,2.05,0,0,0,.5-1.29c0-1.85-2.89-3.35-6.46-3.35s-6.46,1.5-6.46,3.35a2.05,2.05,0,0,0,.5,1.29C276.6,214.47,278.9,213.61,281.59,213.61Z"/><path class="cls-11" d="M281.59,217.74c2.69,0,5-.85,6-2.06-1-1.21-3.27-2.07-6-2.07s-5,.86-6,2.07C276.6,216.89,278.9,217.74,281.59,217.74Z"/><path class="cls-3" d="M504.56,386a89.72,89.72,0,0,1-9.32-2.19c-5.38-1.71-5.62,0-11.44,2.59-1.45.65-2.32,1.08-2.32,2-2,1.65-1.06,2.79,1,2.74C486,391,491,388.86,491,391c0,1.42-3.12,1.52-2.55,3.5.24.85,2-.47,3.54-1.07s2.93-.51,4-1.1,4,.07,6.44.85A10.26,10.26,0,0,1,504.56,386Z"/><polygon class="cls-11" points="220.98 440.08 244.87 453.88 286.79 429.68 262.89 415.88 220.98 440.08"/><polygon class="cls-4" points="286.79 429.68 286.79 430.36 244.87 454.56 244.87 453.88 286.79 429.68"/><polygon class="cls-24" points="220.98 440.08 220.98 440.77 244.87 454.56 244.87 453.88 220.98 440.08"/><polygon class="cls-12" points="259.36 419.95 279.3 431.46 282.73 429.48 262.87 418.02 259.36 419.95"/><polygon class="cls-25" points="256.43 421.66 257.08 421.31 260.59 423.34 259.97 423.7 256.43 421.66"/><polygon class="cls-25" points="276.94 432.78 276.29 433.13 260.54 424.04 261.17 423.67 276.94 432.78"/><polygon class="cls-25" points="255.02 422.49 255.66 422.14 259.17 424.16 258.55 424.52 255.02 422.49"/><polygon class="cls-25" points="275.53 433.6 274.88 433.95 259.12 424.86 259.75 424.49 275.53 433.6"/><polygon class="cls-25" points="274.11 434.4 273.47 434.75 257.73 425.66 258.35 425.3 274.11 434.4"/><polygon class="cls-25" points="253.6 423.28 254.25 422.93 257.78 424.97 257.16 425.33 253.6 423.28"/><polygon class="cls-25" points="272.7 435.22 272.05 435.56 256.31 426.48 256.94 426.12 272.7 435.22"/><polygon class="cls-25" points="252.19 424.1 252.84 423.75 256.36 425.79 255.74 426.15 252.19 424.1"/><polygon class="cls-25" points="250.78 424.89 251.42 424.54 254.97 426.59 254.34 426.95 250.78 424.89"/><polygon class="cls-25" points="271.29 436.01 270.64 436.36 254.92 427.28 255.54 426.92 271.29 436.01"/><polygon class="cls-25" points="249.36 425.71 250.01 425.37 253.55 427.41 252.93 427.77 249.36 425.71"/><polygon class="cls-25" points="269.87 436.83 269.23 437.18 253.5 428.1 254.12 427.74 269.87 436.83"/><polygon class="cls-25" points="268.46 437.63 267.81 437.97 252.1 428.9 252.73 428.54 268.46 437.63"/><polygon class="cls-25" points="247.95 426.5 248.59 426.16 252.16 428.21 251.53 428.57 247.95 426.5"/><polygon class="cls-25" points="267.11 438.46 266.46 438.81 250.71 429.71 251.33 429.35 267.11 438.46"/><polygon class="cls-25" points="246.6 427.34 247.25 426.99 250.76 429.02 250.13 429.38 246.6 427.34"/><polygon class="cls-25" points="245.19 428.13 245.83 427.79 249.37 429.82 248.74 430.19 245.19 428.13"/><polygon class="cls-25" points="265.7 439.25 265.05 439.6 249.31 430.52 249.94 430.16 265.7 439.25"/><polygon class="cls-25" points="247.89 431.34 248.52 430.98 254.28 434.3 254.28 434.3 264.28 440.08 263.63 440.43 253.79 434.75 253.79 434.75 247.89 431.34"/><polygon class="cls-25" points="243.77 428.96 244.42 428.61 247.95 430.65 247.32 431.01 243.77 428.96"/><polygon class="cls-25" points="242.36 429.75 243 429.4 246.55 431.45 245.93 431.81 242.36 429.75"/><polygon class="cls-25" points="262.87 440.87 262.22 441.22 246.5 432.14 247.13 431.78 262.87 440.87"/><polygon class="cls-25" points="241.04 430.59 241.69 430.24 245.17 432.25 244.54 432.61 241.04 430.59"/><polygon class="cls-25" points="261.55 441.71 260.9 442.06 245.11 432.94 245.74 432.58 261.55 441.71"/><polygon class="cls-25" points="226.97 438.68 227.62 438.33 231.13 440.36 230.5 440.72 226.97 438.68"/><polygon class="cls-25" points="247.48 449.8 246.83 450.15 231.07 441.05 231.7 440.69 247.48 449.8"/><polygon class="cls-25" points="246.07 450.59 245.42 450.94 229.68 441.85 230.31 441.49 246.07 450.59"/><polygon class="cls-25" points="225.56 439.47 226.2 439.12 229.73 441.16 229.11 441.52 225.56 439.47"/><polygon class="cls-10" points="246.88 447.4 247.73 447.89 254.48 443.99 253.64 443.5 246.88 447.4"/><polygon class="cls-10" points="245.07 446.35 245.91 446.84 250.83 444 249.99 443.51 245.07 446.35"/><polygon class="cls-10" points="243.18 445.27 244.03 445.75 247.72 443.62 246.88 443.13 243.18 445.27"/><polygon class="cls-10" points="241.43 444.25 242.27 444.74 248.08 441.38 247.24 440.89 241.43 444.25"/><polygon class="cls-10" points="239.61 443.2 240.45 443.69 242.96 442.24 242.11 441.75 239.61 443.2"/><polygon class="cls-24" points="237.72 442.11 238.57 442.6 243.51 439.75 242.67 439.26 237.72 442.11"/><polygon class="cls-24" points="235.97 441.1 236.81 441.59 240.51 439.45 239.66 438.97 235.97 441.1"/><polygon class="cls-24" points="234.21 440.09 235.06 440.57 243.18 435.88 242.34 435.39 234.21 440.09"/><polygon class="cls-24" points="232.39 439.04 233.24 439.52 239.1 436.14 238.26 435.65 232.39 439.04"/><polygon class="cls-24" points="230.51 437.95 231.35 438.44 233.86 436.99 233.02 436.5 230.51 437.95"/><polygon class="cls-6" points="229.33 437.27 249.13 448.7 248.88 448.85 229.07 437.41 229.33 437.27"/><polygon class="cls-10" points="255.8 440.91 256.44 440.56 259.95 442.59 259.33 442.95 255.8 440.91"/><polygon class="cls-10" points="254.35 441.76 255 441.41 258.51 443.43 257.88 443.8 254.35 441.76"/><path class="cls-6" d="M220.28,494.17s8.9-3.13,12.65-8.21c2.27-3.08,0-6.73-.92-8.46-.63-1.12-2.95-2.26-5.87-3-7.39-1.75-17.87-.48-26.34,3.29S220.28,494.17,220.28,494.17Z"/><path class="cls-9" d="M251.58,543.15c3.49,1.38,4.49,2.63,3.55,4.87-1.39,3.3-4.9,5.34-8,6-4.7,1-8.21,7.46-13.23,2.3-1.28-1.33-.15-4.82.29-6.65-.09-1.27,2.18-5.3,2-8.74,4.95,1.88,5.5.73,6.84,1.6a34.21,34.21,0,0,1-.76,3.54C244.05,545.5,249.24,542.22,251.58,543.15Z"/><path class="cls-12" d="M234.14,549s2.93,1.05,4.82,1.65a10.41,10.41,0,0,0,9.89-2.51c2.69-2.62-1.45-4.41-1.45-4.41s3.69-4.23,8.06-2.41c2,.85,3.24,5.3,2.08,7.28s-3.78,4.37-5.74,4.87a36.68,36.68,0,0,0-7.32,2.7c-2.73,1.64-7.36,4.48-10.47,1.48S234.14,549,234.14,549Z"/><path class="cls-3" d="M210,531.34a79.92,79.92,0,0,0,2.29,10.35c.57,1.69.71,2.68,2.34,3.2,3.35.2,3.51.78,4.29,2.47.69,1.47-4.07,4.43-7.3,4-.87-.11-4.77-.2-6-2.26-1.87-3,.17-5.68-1-9.16-1.27-3.91-6.37-3.76-4.84-7.93a42.29,42.29,0,0,1,2.44-4.8,23.36,23.36,0,0,0,1.39-5.83c3.6,1.68,6.76,1.36,8.57,2.06A50.06,50.06,0,0,0,210,531.34Z"/><path class="cls-12" d="M206.62,547.67c-.41-2.78-.41-8.55-1.75-10.71a14.7,14.7,0,0,0-6.53-5.36,16,16,0,0,1,3.83-4.38s5.18,3.68,5.79,8.56.56,11.1,4,11.51,1.89-2.71,1.89-2.71,5.72-2.78,6.37,2.77c.23,1.93-.61,3.5-4,5a11.77,11.77,0,0,1-5.56,1.1A7.38,7.38,0,0,1,206.62,547.67Z"/><path class="cls-21" d="M203,541c-.39-2.8-7.68-4.45-4.8-9.18l.14-.22a14.7,14.7,0,0,1,6.53,5.36c1.34,2.16,1.34,7.93,1.75,10.71a7.38,7.38,0,0,0,4.11,5.83,8.63,8.63,0,0,1-5.2-2.06C202.44,548.76,203.39,543.8,203,541Z"/><path class="cls-20" d="M208.5,495c1-3.95,3.13-8.56,5.86-11.11a29,29,0,0,0,16,2.45,2.94,2.94,0,0,1-.76.69,43.93,43.93,0,0,1-6.29,15.32c-4.21,6.91-9.08,18-12.62,25.29-2.24-2.47-6.38-3.65-7.67-3.5C202.91,521.61,206.49,502.71,208.5,495Z"/><path class="cls-16" d="M237.48,486.47c5.21,1.26,2.48-3.75,7.84-2.11s5.45,9.39,4.25,10.65c-1.16,10.74-4.25,38.13-6.71,48.37-2.38,1-6,2.9-7.14,1-.42-5.08-4.68-28.36-5-32.22C229.66,498.35,233.77,491.72,237.48,486.47Z"/><path class="cls-12" d="M237.48,514.56v56.22c0,.79-1.07,1.43-2.38,1.43s-2.38-.64-2.38-1.43V514.56Z"/><path class="cls-12" d="M198.92,533.14v60.27c0,.79-1.06,1.43-2.38,1.43s-2.38-.64-2.38-1.43V533.14Z"/><path class="cls-12" d="M160.37,511.89v58.78c0,.79-1.07,1.43-2.39,1.43s-2.38-.64-2.38-1.43V511.89Z"/><polygon class="cls-10" points="151.99 518.73 196.49 544.42 240.97 518.71 196.47 493.02 151.99 518.73"/><polygon class="cls-10" points="151.99 515.23 196.49 540.92 240.97 515.22 196.47 489.52 151.99 515.23"/><polygon class="cls-19" points="240.97 515.22 240.97 518.71 196.49 544.42 196.49 540.92 240.97 515.22"/><polygon class="cls-17" points="151.99 515.23 151.99 518.73 196.49 544.42 196.49 540.92 151.99 515.23"/><path class="cls-21" d="M188.83,421.08s-2.48.18-6.1,6.73-5,17.18,2.66,20.1,8.71-24.42,8.71-24.42Z"/><path class="cls-20" d="M203.28,502.72c-2.66,4.11-2.08,7.44-2.16,11.86-7.36-.51-14.56-.35-20.74-3.92-12.79-7.41-3.53-25.47,4-36.9,5.19,7,16.09,12.09,25.14,11.28a49.92,49.92,0,0,1-1.74,9.68C206.78,497.85,205,500.05,203.28,502.72Z"/><path class="cls-16" d="M186.83,503.37c1.85-10,4.27-17.08,4.44-19.44.11-1.67,17.66,3.77,25.79,2,5.29-1.14,20.62-4.47,28.26-1.6,4.34,4.51.85,10.83-5.82,17.19s-20,11.19-23.5,12.08a22.17,22.17,0,0,1-15.22,6.59C191.15,520.18,185.77,509.13,186.83,503.37Z"/><path class="cls-3" d="M190.37,428.33a1.28,1.28,0,0,1,.83-1c6.07-2.19,7.25-5.65,7.89-11.35a1.28,1.28,0,0,1,1.8-.9,39.36,39.36,0,0,0,10.73,3.71c-2.66,10.65,3.81,12.38,6.86,16.29.77,1-6,6.77-9.88,6.52a23.63,23.63,0,0,1-9.7-2.59C195.61,437.29,189.79,432.67,190.37,428.33Z"/><path class="cls-3" d="M198.23,402.85c.16-5.39,4-12.84,10-12.86s11,8.73,11.8,12.91c1.37,7.11,1.78,20.68-9.87,17.22C201.1,417.42,198,410.88,198.23,402.85Z"/><path class="cls-12" d="M223,445.54c.28-4.58-3-10.85-7.77-13.62-4.82-.83-9.59,3.56-15-.25-3.88-2.7-4-6.29-4.65-6.74-5.14-3.31-7.66-.53-9.85,3.2-5.08,8.68-3,18.52-.06,27.43,2.16,6.57-3.37,19.33-6.32,24.86,1.72,3.93,6.25,7.86,12.1,9.84,5,1.7,21.66,3.47,25.19-3.58-1.25-6.75-1.53-11.32-1.28-14.57a13.53,13.53,0,0,1,2.66-7.68c1.32-1.83,6.89-5.41,7.26-8.49C225.62,452.48,222.75,449.21,223,445.54Z"/><path class="cls-4" d="M193,422.48a8.4,8.4,0,0,0,.53,6.7c1.87,3.17,5.32,4.83,9.51,4.91S216,432.43,216,432.43a3.18,3.18,0,0,0-2.32-3.33c-2.62-.82-10.42,1.25-13.76-.42s-3.34-3.87-4.6-5.63S193,422.48,193,422.48Z"/><path class="cls-19" d="M153.4,456.54l3.1-1.71v0A2.39,2.39,0,0,1,159,455L196,476.4c2.08,1.21,3.77,4.44,3.77,7.22v55.56l-3.26,1.8-41.33-27.55-1-53.39Z"/><path class="cls-17" d="M151.94,515.23V459.66c0-2.78,1.69-4.05,3.78-2.85l37.05,21.39c2.08,1.2,3.77,4.43,3.77,7.21V541Z"/><path class="cls-3" d="M212.93,427.6c1.76-1.47,15.59-7.66,17.62-8.62,3.9-1.85,6.79,1.15,9.1,3.19s3.76,3.34,2.23,3.89c-.7.25-2.23-.62-2.23-.62s1,2.26,0,3.51-1.83-1.64-2.49-2.27c-.69.09-3.5,1.12-6.26.66-.55-.09-11.93,3.5-12.36,3.53C214.34,431,213.88,428.12,212.93,427.6Z"/><polygon class="cls-20" points="230.21 418.26 240.68 429.27 242.75 429.95 242.03 427.99 231.59 417.03 230.21 418.26"/><path class="cls-26" d="M230.21,418.26c.15.17.58,0,1-.32s.56-.75.42-.91-.58,0-1,.32S230.06,418.1,230.21,418.26Z"/><path class="cls-3" d="M232.73,422.21c.17,0,2,.56,3.38.79s3.48.74,3.76,1.72-.56,1.09-1.63,1-2.46,1-4.25.27S232.73,422.21,232.73,422.21Z"/><path class="cls-3" d="M259.08,438c3.19-2.09,5.51-3.75,7.32-3.69,1.11,0,1.48.49,1,1.8,3.24,1,1,8.54-4.22,11.4-4.09,2.23-6.33.53-9.4,2.34a21.6,21.6,0,0,0-4.21,4.22c-5.23,6.63-7,10.28-11.47,13.71s-6.32,1.32-11,.53c-5-.83-15.75-14.17-15.75-14.17L223,443.69l11,13.48s10.62-10.47,14.24-13.78c2.27-2.09,1.51-3.78,1.4-6.17-.09-2-.65-2.92,1-2.92,2,0,1.84,3.6,2.52,5S258.42,438.42,259.08,438Z"/><path class="cls-21" d="M209.87,434.59s4.5-3.11,8.68-1.6,7.68,8.35,9.72,12.25,4.89,8.89,4.89,8.89-2.8,5.42-6.56,7.84a82.62,82.62,0,0,1-9.37,4.9s-7-5.62-9.69-13.92S206,436.27,209.87,434.59Z"/><path class="cls-6" d="M220.91,421.08c-2.21-2.88-6-6.14-7.63-9.39-1.39-2.74-.27-5.75,1.25-8.75,2.75.27,5.57-.68,9.37-2.35-1.4-8.6-5.36-16.71-15.45-12.9-4.17-4-10.33-1.7-12.63,1.11-1.93,2.34-2.54,5.46-3,8.36-.93,6.36-1.39,11.23-5.77,16.25-4.52,5.2-9.83,9.73-9.47,17.22.24,5.07,3.24,11.33,8.32,13a12.32,12.32,0,0,0,1.26,4.06,11.57,11.57,0,0,0,10.92,6.46c-4-6.05-1.57-9.1,1.69-12.37,3.26,4.5,10.63,3.65,13,2a14.52,14.52,0,0,0,6.12-10.3c1.69,1.46,3.41,2.88,5.12,4.31C227.1,432.06,224.83,426.21,220.91,421.08Z"/><path class="cls-12" d="M199.39,253.63,198.15,255a9.43,9.43,0,0,0-1.7-1.28l-18.52-10.68c-4.18-2.42-10.57-2.69-14.2-.59l-29.52,17a6.47,6.47,0,0,0-.57.42l-1.35-1.54a7.69,7.69,0,0,0-.3,5.87,1.34,1.34,0,0,0,.06.12,7,7,0,0,0,3.18,3.33l18.52,10.69c4.18,2.41,10.57,2.68,14.2.59L197.47,262a4.9,4.9,0,0,0,2.09-2.17,2.71,2.71,0,0,0,.18-.34A7.44,7.44,0,0,0,199.39,253.63Z"/><path class="cls-29" d="M168,276.11l29.52-17c3.62-2.1,3.16-5.78-1-8.2l-18.52-10.69c-4.18-2.42-10.57-2.68-14.2-.59l-29.52,17c-3.62,2.1-3.16,5.79,1,8.2l18.52,10.69C157.93,277.94,164.32,278.2,168,276.11Z"/><path class="cls-4" d="M167.53,241.36l2.38-1.38a1,1,0,0,1,.92,0l1.32.76c.27.15.3.39.07.53l-2.39,1.38a1,1,0,0,1-.92,0l-1.32-.76C167.32,241.73,167.29,241.49,167.53,241.36Z"/><path class="cls-4" d="M158.15,246.77l7.16-4.13a1,1,0,0,1,.91,0l1.32.76c.27.15.3.39.07.53l-7.16,4.13a1,1,0,0,1-.91,0l-1.32-.76C158,247.14,157.92,246.9,158.15,246.77Z"/><path class="cls-4" d="M153.55,249.43l2.38-1.38a1,1,0,0,1,.92,0l1.32.76c.27.16.3.39.07.53l-2.39,1.38a1,1,0,0,1-.92,0l-1.32-.76C153.34,249.8,153.31,249.56,153.55,249.43Z"/><path class="cls-4" d="M174.58,245.43l2.38-1.38a1,1,0,0,1,.92,0l1.32.76c.27.15.3.39.07.53l-2.39,1.38a1.07,1.07,0,0,1-.92,0l-1.32-.76C174.37,245.8,174.34,245.56,174.58,245.43Z"/><path class="cls-4" d="M170,248.09l2.39-1.38a1,1,0,0,1,.91,0l1.32.76c.27.15.3.39.07.53l-2.39,1.38a1.07,1.07,0,0,1-.92,0l-1.32-.76C169.76,248.46,169.73,248.22,170,248.09Z"/><path class="cls-4" d="M165.2,250.84l2.39-1.38a1,1,0,0,1,.92,0l1.32.76c.27.16.3.39.06.53l-2.39,1.38a1,1,0,0,1-.91,0l-1.32-.76C165,251.21,165,251,165.2,250.84Z"/><path class="cls-4" d="M160.6,253.5l2.38-1.38a1,1,0,0,1,.92,0l1.32.76c.27.16.3.39.06.53l-2.38,1.38a1,1,0,0,1-.92,0l-1.32-.76C160.39,253.87,160.36,253.63,160.6,253.5Z"/><path class="cls-4" d="M178.1,247.46l2.39-1.38a1.07,1.07,0,0,1,.92,0l1.31.76c.27.16.3.4.07.53l-2.39,1.38a1,1,0,0,1-.92,0l-1.31-.76C177.9,247.84,177.87,247.6,178.1,247.46Z"/><path class="cls-4" d="M173.49,250.12l2.39-1.38a1.07,1.07,0,0,1,.92,0l1.32.76c.27.16.3.4.06.53l-2.39,1.38a1,1,0,0,1-.91,0l-1.32-.76C173.29,250.5,173.26,250.26,173.49,250.12Z"/><path class="cls-4" d="M168.73,252.87l2.39-1.37a1,1,0,0,1,.91,0l1.32.76c.27.16.3.4.07.53L171,254.2a1,1,0,0,1-.92,0l-1.32-.77C168.52,253.25,168.49,253,168.73,252.87Z"/><path class="cls-4" d="M164.12,255.53l2.39-1.37a1,1,0,0,1,.92,0l1.31.76c.27.16.3.4.07.53l-2.39,1.38a1,1,0,0,1-.92,0l-1.31-.76C163.92,255.91,163.89,255.67,164.12,255.53Z"/><path class="cls-4" d="M182.57,250l2.39-1.37a1,1,0,0,1,.92,0l1.31.76c.27.16.3.4.07.53l-2.39,1.38a1,1,0,0,1-.91,0l-1.32-.76C182.37,250.42,182.34,250.18,182.57,250Z"/><path class="cls-4" d="M178,252.7l2.39-1.37a1,1,0,0,1,.92,0l1.32.76c.27.16.3.4.06.53L180.27,254a1,1,0,0,1-.92,0l-1.32-.77C177.76,253.08,177.73,252.84,178,252.7Z"/><path class="cls-4" d="M173.2,255.46l2.39-1.38a1,1,0,0,1,.91,0l1.32.77c.27.15.3.39.07.53l-2.39,1.37a1,1,0,0,1-.92,0l-1.32-.77C173,255.83,173,255.59,173.2,255.46Z"/><path class="cls-4" d="M168.59,258.12l2.39-1.38a1,1,0,0,1,.92,0l1.31.77c.27.15.3.39.07.53l-2.39,1.37a1,1,0,0,1-.92,0l-1.31-.77C168.39,258.49,168.36,258.25,168.59,258.12Z"/><path class="cls-4" d="M171.05,243.39l2.39-1.38a1.07,1.07,0,0,1,.92,0l1.31.76c.27.16.3.4.07.53l-2.39,1.38a1,1,0,0,1-.91,0l-1.32-.76C170.85,243.77,170.82,243.53,171.05,243.39Z"/><path class="cls-4" d="M166.44,246.05l2.39-1.38a1.07,1.07,0,0,1,.92,0l1.32.76c.27.16.3.4.06.53l-2.39,1.38a1,1,0,0,1-.91,0l-1.32-.76C166.24,246.43,166.21,246.19,166.44,246.05Z"/><path class="cls-4" d="M161.68,248.8l2.39-1.37a1,1,0,0,1,.91,0l1.32.76c.27.16.3.4.07.53L164,250.13a1,1,0,0,1-.92,0l-1.32-.77C161.47,249.18,161.44,248.94,161.68,248.8Z"/><path class="cls-4" d="M157.07,251.46l2.39-1.37a1,1,0,0,1,.92,0l1.31.76c.27.16.3.4.07.53l-2.39,1.38a1,1,0,0,1-.91,0l-1.32-.77C156.87,251.84,156.84,251.6,157.07,251.46Z"/><path class="cls-4" d="M148.87,252.13l2.39-1.38a1,1,0,0,1,.91,0l1.32.76c.27.16.3.39.07.53l-2.39,1.38a1,1,0,0,1-.92,0l-1.32-.76C148.66,252.5,148.64,252.26,148.87,252.13Z"/><path class="cls-4" d="M155.92,256.2l2.39-1.38a1,1,0,0,1,.91,0l4.85,2.79c.27.16.3.4.06.53l-2.39,1.38a1,1,0,0,1-.91,0l-4.85-2.8C155.71,256.57,155.68,256.33,155.92,256.2Z"/><path class="cls-4" d="M163.91,260.82l2.39-1.38a1,1,0,0,1,.92,0l1.32.77c.27.15.3.39.06.53l-2.38,1.37a1,1,0,0,1-.92,0l-1.32-.77C163.71,261.19,163.68,261,163.91,260.82Z"/><path class="cls-4" d="M152.39,254.16l2.39-1.37a1,1,0,0,1,.92,0l1.32.77c.27.15.3.39.06.53l-2.38,1.37a1,1,0,0,1-.92,0l-1.32-.77C152.19,254.54,152.16,254.3,152.39,254.16Z"/><path class="cls-4" d="M144.26,254.79l2.39-1.38a1,1,0,0,1,.92,0l1.32.76c.27.16.3.39.06.53l-2.39,1.38a1,1,0,0,1-.91,0l-1.32-.76C144.06,255.16,144,254.92,144.26,254.79Z"/><path class="cls-4" d="M134.89,260.2l7.15-4.13a1,1,0,0,1,.92,0l1.32.76c.27.16.3.39.06.53l-7.15,4.13a1,1,0,0,1-.92,0l-1.32-.76C134.68,260.57,134.65,260.34,134.89,260.2Z"/><path class="cls-4" d="M151.31,258.86l2.39-1.38a1,1,0,0,1,.92,0l1.31.76c.28.16.31.39.07.53l-2.39,1.38a1,1,0,0,1-.91,0l-1.32-.76C151.11,259.23,151.08,259,151.31,258.86Z"/><path class="cls-4" d="M146.7,261.52l2.39-1.38a1,1,0,0,1,.92,0l1.32.76c.27.16.3.39.06.53L149,262.85a1,1,0,0,1-.92,0l-1.32-.76C146.5,261.89,146.47,261.65,146.7,261.52Z"/><path class="cls-4" d="M141.94,264.27l2.39-1.38a1,1,0,0,1,.91,0l1.32.76c.27.16.3.4.07.53l-2.39,1.38a1,1,0,0,1-.92,0L142,264.8C141.73,264.64,141.7,264.41,141.94,264.27Z"/><path class="cls-4" d="M154.84,260.89l2.38-1.37a1,1,0,0,1,.92,0l1.32.76c.27.16.3.4.07.53l-2.39,1.38a1,1,0,0,1-.92,0l-1.32-.77C154.63,261.27,154.6,261,154.84,260.89Z"/><path class="cls-4" d="M150.23,263.55l2.39-1.37a1,1,0,0,1,.91,0l1.32.77c.27.15.3.39.07.52l-2.39,1.38a1,1,0,0,1-.92,0l-1.32-.77C150,263.93,150,263.69,150.23,263.55Z"/><path class="cls-4" d="M145.46,266.31l2.39-1.38a1,1,0,0,1,.92,0l1.32.76c.27.15.3.39.06.53l-2.39,1.37a1,1,0,0,1-.91,0l-1.32-.77C145.26,266.68,145.23,266.44,145.46,266.31Z"/><path class="cls-4" d="M159.31,263.48l2.38-1.38a1,1,0,0,1,.92,0l1.32.77c.27.15.3.39.07.53l-2.39,1.37a1,1,0,0,1-.92,0l-1.32-.76C159.1,263.85,159.07,263.61,159.31,263.48Z"/><path class="cls-4" d="M154.7,266.14l2.39-1.38a1,1,0,0,1,.91,0l1.32.77c.27.15.3.39.07.53L157,267.46a1,1,0,0,1-.92,0l-1.32-.77C154.49,266.51,154.46,266.27,154.7,266.14Z"/><path class="cls-4" d="M149.93,268.89l2.39-1.38a1,1,0,0,1,.92,0l1.32.76c.27.15.3.39.06.53l-2.38,1.38a1.07,1.07,0,0,1-.92,0l-1.32-.76C149.73,269.26,149.7,269,149.93,268.89Z"/><path class="cls-4" d="M167.76,263l2.39-1.37a1,1,0,0,1,.92,0l1.31.77c.27.15.3.39.07.52l-2.39,1.38a1,1,0,0,1-.92,0l-1.31-.77C167.56,263.34,167.53,263.1,167.76,263Z"/><path class="cls-4" d="M163.15,265.62l2.39-1.37a1,1,0,0,1,.92,0l1.32.77c.27.15.3.39.06.52L165.45,267a1,1,0,0,1-.91,0l-1.32-.77C163,266,162.92,265.76,163.15,265.62Z"/><path class="cls-4" d="M158.54,268.28l2.39-1.37a1,1,0,0,1,.92,0l1.32.77c.27.15.3.39.06.53l-2.38,1.37a1,1,0,0,1-.92,0l-1.32-.77C158.34,268.66,158.31,268.42,158.54,268.28Z"/><path class="cls-4" d="M153.78,271l2.39-1.38a1,1,0,0,1,.91,0l1.32.77c.27.15.3.39.07.53l-2.39,1.37a1,1,0,0,1-.92,0l-1.31-.76C153.58,271.41,153.55,271.17,153.78,271Z"/><path class="cls-4" d="M147.79,256.82l2.38-1.37a1,1,0,0,1,.92,0l1.32.77c.27.15.3.39.07.52l-2.39,1.38a1,1,0,0,1-.92,0l-1.32-.77C147.58,257.2,147.55,257,147.79,256.82Z"/><path class="cls-4" d="M143.18,259.48l2.39-1.37a1,1,0,0,1,.91,0l1.32.77c.27.15.3.39.07.52l-2.39,1.38a1,1,0,0,1-.92,0l-1.32-.77C143,259.86,143,259.62,143.18,259.48Z"/><path class="cls-4" d="M138.41,262.24l2.39-1.38a1,1,0,0,1,.92,0l1.32.77c.27.15.3.39.06.53l-2.38,1.37a1,1,0,0,1-.92,0l-1.32-.76C138.21,262.61,138.18,262.37,138.41,262.24Z"/><path class="cls-9" d="M140,220.54s3.76,7.2,6.84,10.85c2.26.83,18.21,14.53,20,14.74s6.29-.32,9.79,3.12,4,4.83,4.12,7a1.83,1.83,0,0,1-2.42,2c-1.45-.59-2.91-2.61-4.71-3.76-2-1.25-4.91-2.45-5-1.86s-.47,1.2,1.1,2.16c1.34.82,2.45,2.4,2.08,3s-3.52-1.63-4.22-1.94c-3-1.29-3.43-4.2-5.43-5.37-3.56-2.08-15.23-8.55-19.65-11.07-2.06-1.59-8.61-8.08-8.6-11.14a17.78,17.78,0,0,0,1.46-2.89C136.93,223.87,139.42,221.63,140,220.54Z"/><path class="cls-12" d="M217.22,221a4.69,4.69,0,0,0-3.79-2.26h-.06a5.24,5.24,0,0,0-2.73.82l-34.88,19.94a12.78,12.78,0,0,0-5,6.82c-.4,1.16-7.08,16.87-9,22.07a9.87,9.87,0,0,0-.9,4.6h0a2.58,2.58,0,0,0,.1.42c.5,2.35,3.49,2.49,3.49,2.49l.28-2.15.24-.13,31.47-18.17c3.17-1.83,5.67-6.05,7.66-10.29,0,0,7.4-15.78,9.71-20.73l.66.63S218,222.43,217.22,221Z"/><path class="cls-21" d="M198.74,256.86,167.27,275c-3.17,1.83-5.56,1-3.21-5.23,2-5.2,8.64-20.91,9-22.08a12.76,12.76,0,0,1,5-6.81L213,221c1.9-1.1,4-1.31,4.46.62a5,5,0,0,1-.65,2.79l-10.4,22.19C204.42,250.81,201.91,255,198.74,256.86Z"/><polygon class="cls-24" points="175.26 273.39 170.29 276.26 172.12 271.69 177.09 268.82 175.26 273.39"/><polygon class="cls-4" points="177.09 268.82 176.29 268.35 171.32 271.22 172.12 271.69 177.09 268.82"/><polygon class="cls-4" points="170.29 276.26 169.49 275.79 171.32 271.22 172.12 271.69 170.29 276.26"/><polygon class="cls-24" points="196.61 260.99 191.64 263.86 193.47 259.3 198.45 256.43 196.61 260.99"/><polygon class="cls-4" points="198.45 256.43 197.65 255.96 192.68 258.83 193.47 259.3 198.45 256.43"/><polygon class="cls-4" points="191.64 263.86 190.84 263.39 192.68 258.83 193.47 259.3 191.64 263.86"/><path class="cls-9" d="M94.65,234.33s6,7,7.94,10.93,5.39,6.22,10.69,7.07,18.08,1.08,20,2.77,1.11,1.57,4.45,3.44c1.44.82,4.75,1.38,8,1.48.81,0,2.77,3,3.93,2.59,1.79-.56-.29-2.12-.29-2.12s.73.86,3,.69-.17-3-.17-3,2.36.3,2.55-.34-2.6-3.83-4.77-5.58c-2.33-1.87-8.63-3-12.07-3.53A85.16,85.16,0,0,1,126.17,246c-2.73-1-13.53-6.5-13.53-6.5l-4.1-9.52Z"/><path class="cls-19" d="M94.06,240.23c6-.63,13.71-3.36,17.51-7.58-.76-3.64-4.6-11.81-5.14-13.3C105,215.41,99.2,206.26,93,208.49c-4.57,1.65-8.48,8.9-2.94,21.2C91.39,232.55,92.83,237.17,94.06,240.23Z"/></g></g></svg>