<svg xmlns="http://www.w3.org/2000/svg" xmlns:xlink="http://www.w3.org/1999/xlink" viewBox="0 0 80 80"><defs><style>.cls-1{isolation:isolate;}.cls-2{fill:#12c2e9;}.cls-3{fill:#404041;opacity:0.11;mix-blend-mode:multiply;}.cls-4{fill:#fff;}.cls-5{fill:#f1f1f2;}.cls-6{fill:#f54394;}.cls-7{fill:url(#linear-gradient);}.cls-8{fill:url(#linear-gradient-2);}.cls-9{fill:url(#linear-gradient-3);}</style><linearGradient id="linear-gradient" x1="37.54" y1="41.46" x2="38.08" y2="41.46" gradientUnits="userSpaceOnUse"><stop offset="0" stop-color="#9f0c10"/><stop offset="1" stop-color="#ec1c24"/></linearGradient><linearGradient id="linear-gradient-2" x1="37.4" y1="41.12" x2="37.54" y2="41.12" xlink:href="#linear-gradient"/><linearGradient id="linear-gradient-3" x1="37.54" y1="41.19" x2="37.54" y2="41.19" xlink:href="#linear-gradient"/></defs><title>search-engine</title><g class="cls-1"><g id="Layer_1" data-name="Layer 1"><path class="cls-2" d="M40,.14A37.35,37.35,0,0,0,10.87,60.85l-7,19,19.3-9A37.34,37.34,0,1,0,40,.14Z"/><circle class="cls-3" cx="38.48" cy="39.79" r="30.13"/><circle class="cls-4" cx="40" cy="37.49" r="30.13"/><path class="cls-5" d="M46,58.31A20.58,20.58,0,0,1,19,38.78a20.42,20.42,0,0,1,1.2-6.92c-.06-.15-.12-.31-.17-.47a13.7,13.7,0,0,1-.59-2.26A22.32,22.32,0,0,0,49,59c-.52-.08-1-.18-1.57-.31C47.24,58.64,46.74,58.52,46,58.31Z"/><path class="cls-5" d="M33,19.27a20.56,20.56,0,0,1,26,26.1l1.53,1A22.32,22.32,0,0,0,32.06,17.75l0,.06Z"/><path class="cls-5" d="M37,42.79l-.54-.54h0l.39.39Z"/><path class="cls-5" d="M36.41,42.19l.07.06-.14-.14Z"/><polygon class="cls-5" points="36.48 42.25 36.48 42.26 36.48 42.26 36.48 42.25"/><path class="cls-5" d="M59.62,48.34S50,42.3,49.48,42s-4.56-.35-4.88,6A46.61,46.61,0,0,1,37,42.79c.9.91,2.15,2.16-.15-.14q-.21-.19-.39-.39l-.14-.14A27.31,27.31,0,0,1,30.59,34c6.31-.32,6.23-4.35,6-4.89S30.25,19,30.25,19c-3.74-.72-11.09,3.44-8.2,11.7C29.9,53.08,47.93,56.54,47.93,56.54,56.4,58.71,60.34,52.09,59.62,48.34Z"/><path class="cls-5" d="M42.14,36.17l.94-.78c1.48-1.32,2.72-2.69,2.72-4.4s-1.27-3.2-3.58-3.2a5.65,5.65,0,0,0-3.34,1.05l.67,1.71a3.71,3.71,0,0,1,2.18-.84c1.18,0,1.68.65,1.68,1.49,0,1.19-1.11,2.34-3.34,4.33l-1.32,1.19v1.45H46v-2H42.14Z"/><path class="cls-5" d="M54,33.94V28H51l-3.86,6.22v1.55h4.52v2.44H54V35.73h1.23V33.94Zm-2.26-2.26v2.26H49.4v0l1.37-2.23c.34-.64.61-1.24.94-1.9h.06C51.72,30.44,51.69,31.07,51.69,31.68Z"/><path class="cls-6" d="M47.06,57.25A20.55,20.55,0,0,1,20,37.72a20.42,20.42,0,0,1,1.2-6.92c-.06-.15-.12-.31-.17-.47a13.86,13.86,0,0,1-.59-2.25,22.11,22.11,0,0,0-2.2,9.64A22.36,22.36,0,0,0,40.59,60.05a22.13,22.13,0,0,0,9.48-2.12c-.52-.08-1-.18-1.57-.31C48.3,57.58,47.79,57.47,47.06,57.25Z"/><path class="cls-6" d="M34.09,18.21a20.56,20.56,0,0,1,26,26.1l1.53,1A22.32,22.32,0,0,0,33.12,16.69l.05.06Z"/><path class="cls-7" d="M38.08,41.73l-.54-.53h0l.39.39Z"/><path class="cls-8" d="M37.47,41.13l.07.06-.14-.14Z"/><polygon class="cls-9" points="37.54 41.19 37.54 41.2 37.54 41.2 37.54 41.19"/><path class="cls-6" d="M60.68,47.28s-9.6-6-10.14-6.3-4.56-.35-4.88,6a46.61,46.61,0,0,1-7.58-5.21c.9.91,2.15,2.16-.15-.14l-.39-.39-.14-.14a27.31,27.31,0,0,1-5.75-8.12c6.31-.32,6.23-4.35,6-4.89s-6.31-10.14-6.31-10.14c-3.74-.72-11.09,3.44-8.2,11.7C31,52,49,55.48,49,55.48,57.46,57.65,61.4,51,60.68,47.28Z"/><path class="cls-6" d="M43.2,35.11l.94-.78c1.48-1.32,2.72-2.68,2.72-4.4s-1.27-3.2-3.58-3.2a5.65,5.65,0,0,0-3.34,1.05l.67,1.71a3.75,3.75,0,0,1,2.18-.84c1.18,0,1.68.66,1.68,1.49,0,1.19-1.11,2.34-3.34,4.33l-1.32,1.2v1.44h7.24v-2H43.2Z"/><path class="cls-6" d="M55,32.89v-6H52.09l-3.86,6.22v1.56h4.52v2.43H55V34.68h1.23V32.89Zm-2.26-2.27v2.27H50.46v0l1.36-2.23c.35-.64.62-1.24,1-1.9h.06C52.78,29.38,52.75,30,52.75,30.62Z"/></g></g></svg>