<svg id="Layer_1" data-name="Layer 1" xmlns="http://www.w3.org/2000/svg" viewBox="0 0 80 80"><defs><style>.cls-1{fill:#f7f7f7;}.cls-2{fill:#f54394;}.cls-3{fill:#aa1a62;}.cls-4{fill:#7c8388;}.cls-5{fill:#575f64;}.cls-6{fill:#faecd8;}.cls-7{fill:#f4d7af;}.cls-8{fill:#12c2e9;}.cls-9{fill:#0e92a8;}</style></defs><title>sudung</title><circle class="cls-1" cx="40" cy="40" r="40"/><path class="cls-2" d="M25.77,37a12.35,12.35,0,0,0-9.93,3.69l-4.5,4.49a1.59,1.59,0,0,0,1.54,2.66c2.85-.76,6.62-1,7.55-.31Z"/><path class="cls-3" d="M44.92,56.25,34.38,61.34c.58.8.54,3.33-.15,8a1.59,1.59,0,0,0,2.7,1.36l4.49-4.5A12.44,12.44,0,0,0,44.92,56.25Z"/><path class="cls-4" d="M36,61.88c-3.71,2-4.18,2.11-4.74,2.5a1.58,1.58,0,0,1-2-.23L18,52.91a1.6,1.6,0,0,1-.22-2c.38-.56.42-.92,2.45-4.78l4.45,0L35.92,57.34Z"/><path class="cls-5" d="M36,61.88c-3.71,2-4.18,2.11-4.74,2.5a1.58,1.58,0,0,1-2-.23l-5.62-5.62,6.74-6.74,5.56,5.55Z"/><path class="cls-6" d="M36,61.88,20.23,46.15q11.7-22.09,28.05-27.51l7.64,7.59,7.46,7.46C59.79,44.53,50.62,54,36,61.88Z"/><path class="cls-7" d="M36,61.88,28.12,54l27.8-27.81,7.46,7.46C59.79,44.53,50.62,54,36,61.88Z"/><path class="cls-8" d="M51,31.13,51,31.06A7.94,7.94,0,0,0,39.72,42.3l.06.07A7.95,7.95,0,0,0,51,31.13Z"/><path class="cls-9" d="M51,42.3a8,8,0,0,1-11.17.07L51,31.13A8,8,0,0,1,51,42.3Z"/><path class="cls-2" d="M63.38,33.69a16.28,16.28,0,0,1-10.11-4.81l-.07-.06a16.2,16.2,0,0,1-4.92-10.19,31.35,31.35,0,0,1,3.15-.89,36.24,36.24,0,0,1,12-.63,1.38,1.38,0,0,1,1,.56,1.3,1.3,0,0,1,.41.85,36,36,0,0,1-.65,12C64,31.6,63.72,32.64,63.38,33.69Z"/><path class="cls-3" d="M63.38,33.69a16.28,16.28,0,0,1-10.11-4.81L64.48,17.67a1.3,1.3,0,0,1,.41.85,36,36,0,0,1-.65,12C64,31.6,63.72,32.64,63.38,33.69Z"/><path class="cls-2" d="M35.69,47.9a1.49,1.49,0,0,0-.45-1,1.46,1.46,0,0,0-1.14-.61c-5.85,0-7.15,2-7.49,2.36-9.73,9.74-9.84,14.52-9.84,15a1.63,1.63,0,0,0,.47,1.1.11.11,0,0,0,.09,0,1.42,1.42,0,0,0,.87.38c.81.09,5.38,0,15.15-9.8C35.56,53.2,35.71,51.16,35.69,47.9Z"/><path class="cls-3" d="M35.69,47.9c0,3.26-.13,5.3-2.34,7.51C23.58,65.18,19,65.3,18.2,65.21a1.42,1.42,0,0,1-.87-.38L35.24,46.91A1.49,1.49,0,0,1,35.69,47.9Z"/></svg>