<svg id="Layer_1" data-name="Layer 1" xmlns="http://www.w3.org/2000/svg" viewBox="0 0 694.59 395.31"><defs><style>.cls-1{fill:#e8f2fa;}.cls-2{opacity:0.3;}.cls-3{fill:#a9c2ff;}.cls-4{fill:#dceaff;}.cls-5{opacity:0.5;}.cls-6{fill:#bfdcff;}.cls-7{opacity:0.2;}.cls-8{fill:#89b4fd;}.cls-9{fill:#f54394;}.cls-10{fill:#9bd399;}.cls-11{fill:#e66a00;}.cls-12{fill:#ff912b;}.cls-13{fill:#fc7600;}.cls-14{fill:#f06c00;}.cls-15{fill:#12c2e9;}.cls-16{fill:#e3efff;}.cls-17{fill:#ff7b35;}.cls-18{fill:#2a3967;}.cls-19{fill:#ffae73;}.cls-20{fill:#26529f;}.cls-21{fill:#1e3865;}.cls-22{fill:#8eaff1;}.cls-23{fill:#f99352;}.cls-24{fill:#fff;}.cls-25{fill:#f9924f;}.cls-26{fill:#062646;}.cls-27{fill:#0b3563;}.cls-28{fill:#0d458e;}.cls-29{fill:#ffa05e;}.cls-30{fill:#2d3554;}</style></defs><title>tacnghiep</title><path class="cls-1" d="M26.08,394.55s-48-72.68,4.28-158.19,122.59-42.5,119.19-142S294.77-14.85,347.29,14s98.9,12.33,161.63,14.34c101.74,3.27,130.22,103.66,102,152.51-40,69.32,125.38,77.47,30.17,213.69Z"/><g class="cls-2"><path class="cls-3" d="M105.63,237.92c-4.72-17.35,23.27-27.49,23.27-27.49s32.52,16.13,37.88,13.82S141.67,205,141.67,205c9.11-6.61,40.7-9.22,40.7-9.22s16.37,31.47,21,27.92-15.92-27.13-15.92-27.13c11-2.68,26.14,3.11,26.14,3.11,21.34,11.37,5.64,38.19,5.64,38.19s5.91,10.78,19.59,19.1h0a41,41,0,0,1,6.54,4.31l-2.55,1.49c-.61-.56-1.23-1.08-1.86-1.57h0l0,0-1.7-1.2h0c-1.67-1.06-2.86-1.88-3.67-2.5h0c-5.14-3.41-12.17-7.68-15.18-7.67a5.7,5.7,0,0,0-.14-1.49c.05.48.09,1,.14,1.49,1.13,11.92-19.78,26.28-33.41,30.92s-10.33-1.9-7.05-11.3,17.86-16,20.63-20.56-4.43-3.26-12.17,2.12-7,15.86-19.4,24.79S132.15,266,132.15,266c10.68-2.5,24-17,22.76-20.49s-25,10.92-29.32,12.18S110.36,255.26,105.63,237.92Z"/></g><path class="cls-4" d="M573.94,365.51c17.39-16.89-8.16-47.88-8.16-47.88S517,314,512.33,307.69s42.34-5.08,42.34-5.08c-6-13.93-40.93-38.63-40.93-38.63s-40.6,25.3-43.53,18,37.09-20.57,37.09-20.57c-10.93-10.66-32.47-14.33-32.47-14.33-32.58-1.44-32.75,40.46-32.75,40.46s-14.26,8.47-35.86,8.73h0a56.3,56.3,0,0,0-10.55.52l1.94,3.49c1.09-.23,2.17-.42,3.23-.55h.06l2.8-.23h0c2.68-.09,4.62-.23,6-.39h0c8.31-.44,19.39-.57,22.88,1.5a7.87,7.87,0,0,1,1.19-1.63l-1.19,1.63c-9.48,13.07,4.94,44.09,17.57,58.83s13.3,4.89,15.95-8.29-9.76-30.82-9.85-38,7.39-.75,12.68,10.81-2.72,23.25,5.51,42.1,49.47,13.82,49.47,13.82c-10.69-10.23-16.16-36.19-12.37-39.4s21.56,29.85,25.68,34.25S556.54,382.4,573.94,365.51Z"/><g class="cls-5"><path class="cls-6" d="M205.68,186.58s-22.22-23.14-46.7-28.49a3.56,3.56,0,0,0-3.54,5.69l.11.13C159.14,168.32,188.16,176.45,205.68,186.58Z"/></g><g class="cls-5"><path class="cls-6" d="M212.75,192.67s-37-22-69.75-19.33a3.78,3.78,0,0,0-3.5,3.86c.05,1.3.8,2.85,3.05,4.44C148.53,185.9,187.46,186.07,212.75,192.67Z"/></g><g class="cls-5"><g class="cls-5"><path class="cls-3" d="M473.11,243.61s5.28-33,23-52.08a3.71,3.71,0,0,1,6.41,2.76c0,.06,0,.12,0,.18C502.09,200.37,482.09,224.55,473.11,243.61Z"/></g><g class="cls-5"><path class="cls-3" d="M470.67,253s18.57-40.74,48.2-57.91a3.93,3.93,0,0,1,5.29,1.22c.72,1.15,1,2.91,0,5.61C521.59,209.12,488.39,232.36,470.67,253Z"/></g></g><g class="cls-7"><path class="cls-8" d="M321.18,167.85l12.94-1.42a2.87,2.87,0,0,1,2.71,1.3c.75,1.17,1.54,2.31,2.4,3.43a49.27,49.27,0,0,0,5.1,5.73A2.83,2.83,0,0,1,345,180l-5,12.65a2.79,2.79,0,0,0,1.37,3.55l11.12,5.55a2.77,2.77,0,0,0,3.55-1l6.77-10.54a2.76,2.76,0,0,1,3.11-1.19,50.36,50.36,0,0,0,15.77,1.61,2.86,2.86,0,0,1,2.86,2l2.26,7.27a2.88,2.88,0,0,0,3.28,2l12.11-2.41a2.74,2.74,0,0,0,.7-.23,2.78,2.78,0,0,0,1.56-2.83l-1.05-9.66-.26-2.36a49.85,49.85,0,0,0,5.87-3.86,50.6,50.6,0,0,0,6.91-6.35,2.77,2.77,0,0,1,3.1-.74l10.18,4a2.87,2.87,0,0,0,3.64-1.39l4.24-8.51,1.21-2.44a2.9,2.9,0,0,0-1-3.75l-8.81-5.67a2.76,2.76,0,0,1-1.23-3,49.81,49.81,0,0,0,1.37-10.59,8.82,8.82,0,0,0,0-.89c0-.1,0-.2,0-.3a2.86,2.86,0,0,1,2-2.43l11.81-3.7a1.77,1.77,0,0,0,.38-.15,2.88,2.88,0,0,0,1.57-3.12l-2.39-12.08a2.87,2.87,0,0,0-3.13-2.29l-13.49,1.49a2.78,2.78,0,0,1-2.78-1.47,49.33,49.33,0,0,0-4.21-6.47c-.84-1.11-1.72-2.17-2.64-3.19a2.92,2.92,0,0,1-.54-3l4.8-12.16a2.79,2.79,0,0,0-1.35-3.52l-11-5.48a2.94,2.94,0,0,0-3.77,1l-5.35,8.34a2.87,2.87,0,0,1-3.34,1.17A50.26,50.26,0,0,0,380,91.11a2.87,2.87,0,0,1-2.68-2L374,78.45a3,3,0,0,0-3.37-2l-12,2.37a2.83,2.83,0,0,0-2.26,3.08l.06.57,1.22,11.23a2.87,2.87,0,0,1-1.56,2.89h0a49.68,49.68,0,0,0-7.47,4.71c-1.28,1-2.48,2-3.65,3.07a2.82,2.82,0,0,1-3,.57l-10.34-4.09a2.92,2.92,0,0,0-3.7,1.4l-5.46,11a3.46,3.46,0,0,0-.28,1,2.9,2.9,0,0,0,1.3,2.72l7,4.51a2.9,2.9,0,0,1,1.31,2.53,2.69,2.69,0,0,1-.15.79,50,50,0,0,0-2.59,19.59,2.83,2.83,0,0,1-1.52,2.7,3,3,0,0,1-.45.18l-9.56,3a2.86,2.86,0,0,0-1.95,3.27l.05.28L318,165.53A2.92,2.92,0,0,0,321.18,167.85ZM404,131.36a33.48,33.48,0,0,1,1.73,6,26.24,26.24,0,0,1-1.91,14.19c-.19.4-.4.79-.6,1.18-12.72,23.45-45.88,18.69-51.27-7.83a27.38,27.38,0,0,1,1-12.38,17.42,17.42,0,0,1,1-2.44,30.73,30.73,0,0,1,6.2-8.47A27,27,0,0,1,404,131.36Z"/></g><path class="cls-3" d="M484.87,146.66l8-.88a1.79,1.79,0,0,1,1.69.81c.46.72,1,1.43,1.48,2.12a30.24,30.24,0,0,0,3.17,3.56,1.76,1.76,0,0,1,.43,1.95l-3.1,7.86a1.73,1.73,0,0,0,.85,2.2l6.91,3.45a1.72,1.72,0,0,0,2.2-.61l4.21-6.54a1.71,1.71,0,0,1,1.93-.74,31.27,31.27,0,0,0,9.79,1,1.79,1.79,0,0,1,1.78,1.24l1.4,4.52a1.81,1.81,0,0,0,2,1.22l7.52-1.5a1.57,1.57,0,0,0,.43-.15,1.7,1.7,0,0,0,1-1.75l-.65-6-.16-1.47a31.33,31.33,0,0,0,3.65-2.39,32.33,32.33,0,0,0,4.28-3.95,1.73,1.73,0,0,1,1.93-.46l6.32,2.51a1.8,1.8,0,0,0,2.26-.87l2.64-5.28.75-1.52a1.81,1.81,0,0,0-.64-2.33l-5.47-3.52a1.71,1.71,0,0,1-.76-1.87,31.14,31.14,0,0,0,.85-6.58,5.15,5.15,0,0,0,0-.55,1.15,1.15,0,0,1,0-.19,1.77,1.77,0,0,1,1.25-1.51l7.33-2.29a1.22,1.22,0,0,0,.24-.1,1.79,1.79,0,0,0,1-1.94l-1.48-7.5a1.78,1.78,0,0,0-1.94-1.42l-8.38.92a1.73,1.73,0,0,1-1.73-.91,31.32,31.32,0,0,0-2.61-4c-.52-.69-1.07-1.34-1.64-2a1.84,1.84,0,0,1-.34-1.89l3-7.55a1.74,1.74,0,0,0-.84-2.19l-6.84-3.4a1.83,1.83,0,0,0-2.34.64L532.94,100a1.79,1.79,0,0,1-2.08.73A31,31,0,0,0,521.42,99a1.77,1.77,0,0,1-1.66-1.25l-2.07-6.61a1.83,1.83,0,0,0-2.09-1.25l-7.47,1.48a1.76,1.76,0,0,0-1.41,1.91l0,.35.76,7a1.8,1.8,0,0,1-1,1.8h0a31.65,31.65,0,0,0-4.64,2.93c-.79.61-1.54,1.24-2.26,1.91a1.75,1.75,0,0,1-1.85.35l-6.42-2.54a1.83,1.83,0,0,0-2.3.87l-3.39,6.81a2,2,0,0,0-.17.6,1.83,1.83,0,0,0,.8,1.7l4.38,2.79a1.81,1.81,0,0,1,.81,1.58,2.11,2.11,0,0,1-.09.49,30.85,30.85,0,0,0-1.61,12.17,1.77,1.77,0,0,1-.95,1.67l-.28.11-5.93,1.86a1.77,1.77,0,0,0-1.21,2l0,.17,1.44,7.31A1.81,1.81,0,0,0,484.87,146.66ZM536.31,124a20,20,0,0,1,1.08,3.71,16.31,16.31,0,0,1-1.18,8.81c-.12.25-.25.49-.38.73-7.9,14.57-28.49,11.61-31.83-4.86a16.93,16.93,0,0,1,.62-7.69,11.27,11.27,0,0,1,.62-1.51,19.19,19.19,0,0,1,3.85-5.26A16.73,16.73,0,0,1,536.31,124Z"/><path class="cls-9" d="M438,97.59l5.48-1.84a1.3,1.3,0,0,1,1.31.31,18.1,18.1,0,0,0,1.36,1.26,21.79,21.79,0,0,0,2.76,2,1.25,1.25,0,0,1,.6,1.29l-1,6a1.25,1.25,0,0,0,.93,1.42l5.36,1.35a1.22,1.22,0,0,0,1.45-.75l1.94-5.22a1.24,1.24,0,0,1,1.24-.81,22.49,22.49,0,0,0,7-.79,1.27,1.27,0,0,1,1.43.59l1.67,3a1.28,1.28,0,0,0,1.61.54l5-2.19a1.61,1.61,0,0,0,.28-.17,1.24,1.24,0,0,0,.41-1.38L475.56,98l-.34-1a21.1,21.1,0,0,0,2.19-2.24,22.88,22.88,0,0,0,2.4-3.41,1.22,1.22,0,0,1,1.27-.61l4.81.78a1.27,1.27,0,0,0,1.45-.94l1-4.1.29-1.18a1.28,1.28,0,0,0-.8-1.53l-4.36-1.63a1.23,1.23,0,0,1-.82-1.2,22.73,22.73,0,0,0-.4-4.73c0-.13-.05-.26-.08-.39s0-.09,0-.13a1.25,1.25,0,0,1,.65-1.24l4.78-2.73.15-.1a1.28,1.28,0,0,0,.38-1.51l-2.18-5a1.27,1.27,0,0,0-1.57-.7l-5.72,1.93a1.25,1.25,0,0,1-1.35-.38,22.24,22.24,0,0,0-2.44-2.41c-.47-.41-.95-.78-1.45-1.14a1.3,1.3,0,0,1-.52-1.26l.93-5.74a1.23,1.23,0,0,0-.92-1.4l-5.3-1.34a1.31,1.31,0,0,0-1.54.8l-1.54,4.13a1.28,1.28,0,0,1-1.34.83,22.3,22.3,0,0,0-6.87.23,1.26,1.26,0,0,1-1.35-.62l-2.46-4.31a1.3,1.3,0,0,0-1.65-.55l-5,2.17a1.25,1.25,0,0,0-.69,1.55l.08.24,1.59,4.76a1.29,1.29,0,0,1-.41,1.41h0a22.09,22.09,0,0,0-2.8,2.76,20.8,20.8,0,0,0-1.29,1.68,1.28,1.28,0,0,1-1.24.53l-4.88-.81a1.32,1.32,0,0,0-1.48,1l-1.33,5.29a1.33,1.33,0,0,0,0,.44,1.27,1.27,0,0,0,.82,1.06l3.49,1.3a1.31,1.31,0,0,1,.81,1,2.17,2.17,0,0,1,0,.36,22.17,22.17,0,0,0,.72,8.76,1.25,1.25,0,0,1-.4,1.31.94.94,0,0,1-.18.12l-3.87,2.21a1.27,1.27,0,0,0-.54,1.6l.05.12,2.12,4.9A1.3,1.3,0,0,0,438,97.59ZM470.57,73.9a14.76,14.76,0,0,1,1.32,2.43,11.75,11.75,0,0,1,.51,6.35c0,.19-.1.38-.15.57-3.31,11.39-18.16,12.46-23,1.44a12.22,12.22,0,0,1-.74-5.47,7.16,7.16,0,0,1,.21-1.15,13.52,13.52,0,0,1,1.89-4.27A12,12,0,0,1,470.57,73.9Z"/><path class="cls-10" d="M44.48,394.07H68.13c1.27-1.08-.88-3.52-3.12-3.68a13.89,13.89,0,0,0-3.61.43c-.32-4.33-2.18-23.76-9.19-23-7.87.87,0,8.56,2.23,13.11a106.67,106.67,0,0,1,4.18,10.48c-.64.14-1.3.27-2,.4-1-3.21-4.93-14-9.87-13.36-5.8.73-3.47,5.06.64,7.62,3,1.89,6.72,4.57,8.48,5.87a25.17,25.17,0,0,1-4.63.37C47.22,392.23,45.24,393.43,44.48,394.07Z"/><path class="cls-10" d="M624.57,393.5H597.82c-1.43-1.22,1-4,3.52-4.17a15.69,15.69,0,0,1,4.09.49c.36-4.89,2.47-26.87,10.39-26,8.91,1,0,9.68-2.52,14.83a123.69,123.69,0,0,0-4.73,11.85c.72.16,1.47.31,2.24.45,1.18-3.62,5.57-15.82,11.15-15.11,6.56.84,3.93,5.72-.72,8.63-3.41,2.13-7.6,5.16-9.59,6.63a29.08,29.08,0,0,0,5.23.42C621.46,391.42,623.7,392.77,624.57,393.5Z"/><path class="cls-11" d="M327.81,230.36,314.87,384.2s-1.36,9.32,5.58,9.34c11.41,0,56.77,0,56.77,0s-8.59-1.94-8.48-6.31c.12-5.15,15.12-158.33,15.12-158.33Z"/><path class="cls-12" d="M381.49,390.81c-2.25,0-46.16.08-57.27-.06-4.84-.06-5.69-4.31-5.73-7.05a13.5,13.5,0,0,1,.15-2.29l.34-4,.85-10.19.76-9,1-11.57.81-9.76,9.2-109.31,56.05-1.46s-6.32,64.11-10.79,110.77c-.5,5.2-1,10.18-1.41,14.84-.14,1.48-.28,2.93-.41,4.35-.42,4.41-.79,8.47-1.12,12.05-.18,1.88-.34,3.64-.48,5.24-.57,6.3-.91,10.31-.91,11.08a6.09,6.09,0,0,0,.11,1.24C373.54,390.59,380.64,390.81,381.49,390.81Z"/><polygon class="cls-12" points="191.69 146.65 223.2 273.24 227.52 290.57 242.19 349.53 514.89 349.53 460.79 146.65 191.69 146.65"/><polygon class="cls-11" points="191.69 146.65 187.32 148.1 236.39 353.94 242.19 349.53 191.69 146.65"/><polygon class="cls-13" points="236.39 353.94 507.4 353.94 514.88 349.53 242.19 349.53 236.39 353.94"/><rect class="cls-12" x="331.56" y="390.81" width="58.68" height="2.79" transform="translate(721.8 784.4) rotate(180)"/><polygon class="cls-14" points="375.32 353.94 375.02 356.07 319.83 367.22 320.59 358.21 320.95 353.94 375.32 353.94"/><g class="cls-5"><path class="cls-13" d="M381.49,390.81c-2.25,0-46.16.08-57.27-.06-4.84-.06-5.69-4.31-5.73-7.05l54.93-10.34c-.57,6.3-.91,10.31-.91,11.08a6.09,6.09,0,0,0,.11,1.24C373.54,390.59,380.64,390.81,381.49,390.81Z"/></g><polygon class="cls-13" points="191.69 146.65 460.79 146.65 504.45 309.7 232.28 309.7 191.69 146.65"/><polygon class="cls-15" points="491.75 302.64 239.8 302.64 230.79 266.77 227.31 252.89 225.89 247.23 216.63 210.37 216.16 208.45 211.26 188.97 209.08 180.25 207.21 172.82 202.83 155.38 451.16 155.38 455.97 172.82 458.01 180.25 460.42 188.97 476.25 246.4 476.25 246.41 477.59 251.27 478.22 253.53 489.15 293.18 491.75 302.64"/><polygon class="cls-13" points="334.52 309.7 242.29 350.01 232.28 309.7 334.52 309.7"/><path class="cls-16" d="M357.1,247.57c-20.58,0-40.11-16.75-43.52-37.33s10.56-37.33,31.14-37.33,40.11,16.74,43.52,37.33S377.69,247.57,357.1,247.57Zm-11.31-68.23c-17,0-28.6,13.86-25.77,30.9s19,30.89,36,30.89,28.59-13.86,25.77-30.89S362.82,179.34,345.79,179.34Z"/><path class="cls-12" d="M357.12,247.66c-20.64,0-40.2-16.79-43.63-37.42s10.58-37.42,31.22-37.42c11.2,0,22.55,5,31.13,13.62a44.75,44.75,0,0,1,12.49,23.8,2.73,2.73,0,0,1-2.76,3.3,4.06,4.06,0,0,1-3.85-3.3,36.78,36.78,0,0,0-10.28-19.6c-7.07-7.12-16.41-11.21-25.64-11.21-17,0-28.52,13.82-25.7,30.81S339,241.05,356,241.05a4.05,4.05,0,0,1,3.85,3.3A2.72,2.72,0,0,1,357.12,247.66Z"/><path class="cls-16" d="M428,276.32l.59,3.57a2.93,2.93,0,0,1-3,3.54H300.51a4.36,4.36,0,0,1-4.12-3.54l-.6-3.57a2.93,2.93,0,0,1,3-3.54H423.82A4.36,4.36,0,0,1,428,276.32Z"/><path class="cls-12" d="M387.54,272.78l1.77,10.65h-88.8a4.36,4.36,0,0,1-4.12-3.54l-.6-3.57a2.93,2.93,0,0,1,3-3.54Z"/><polygon class="cls-17" points="369.12 272.78 361.06 283.43 342.67 283.43 350.73 272.78 369.12 272.78"/><polygon class="cls-17" points="387.54 272.78 389.31 283.43 372.27 283.43 380.33 272.78 387.54 272.78"/><polygon class="cls-17" points="339.52 272.78 331.46 283.43 313.08 283.43 321.13 272.78 339.52 272.78"/><path class="cls-17" d="M309.92,272.78l-8.06,10.65h-1.35a4.36,4.36,0,0,1-4.12-3.54l-.6-3.57a2.93,2.93,0,0,1,3-3.54Z"/><path class="cls-16" d="M337,205.29h-7l-.36-2.14h9.75l.3,1.84-4.26,12h-2.73Z"/><path class="cls-16" d="M342.27,210.08c-.66-4,1.23-7.17,4.87-7.17s6.55,3.17,7.21,7.17-1.23,7.17-4.87,7.17S342.93,214.08,342.27,210.08Zm9.57,0c-.46-2.73-2.23-5-4.37-5s-3.15,2.18-2.68,5,2.21,5,4.36,5S352.3,212.85,351.84,210.08Z"/><path class="cls-16" d="M355.84,206.53c-.32-1.92.74-3.54,2.7-3.54a4.07,4.07,0,0,1,3.84,3.54c.32,1.93-.74,3.55-2.7,3.55A4.07,4.07,0,0,1,355.84,206.53Zm4.77,0c-.18-1.1-1-2-1.85-2s-1.34.92-1.16,2a2.19,2.19,0,0,0,1.86,2C360.4,208.55,360.8,207.64,360.61,206.53Zm6.22-3.38h2L361,217h-2Zm-1.44,10.47c-.31-1.92.74-3.54,2.7-3.54a4.07,4.07,0,0,1,3.84,3.54c.32,1.93-.74,3.55-2.7,3.55A4.08,4.08,0,0,1,365.39,213.62Zm4.78,0c-.19-1.1-1-2-1.86-2s-1.34.92-1.15,2a2.18,2.18,0,0,0,1.86,2C370,215.64,370.35,214.73,370.17,213.62Z"/><path class="cls-16" d="M347.41,264.36h.75l.59,3.59H351l.11.68h-3Z"/><path class="cls-16" d="M351.3,267a1.4,1.4,0,0,1,1.45-1.69,2,2,0,0,1,2,1.69,1.39,1.39,0,0,1-1.45,1.68A2.06,2.06,0,0,1,351.3,267Zm2.7,0a1.22,1.22,0,0,0-1.16-1,.81.81,0,0,0-.8,1,1.24,1.24,0,0,0,1.16,1A.81.81,0,0,0,354,267Z"/><path class="cls-16" d="M357.73,268.63l-.07-.39a1.08,1.08,0,0,1-1,.46,1.27,1.27,0,0,1-1.32-1c-.12-.71.38-1.05,1.13-1.05a3,3,0,0,1,.92.13v-.06a.82.82,0,0,0-.91-.69,2,2,0,0,0-.89.2l-.3-.59a2.48,2.48,0,0,1,1.18-.27,1.5,1.5,0,0,1,1.64,1.36l.32,1.91Zm-.21-1.35a2.37,2.37,0,0,0-.76-.12c-.46,0-.7.19-.65.51a.65.65,0,0,0,.7.48c.49,0,.81-.28.74-.68Z"/><path class="cls-16" d="M358.91,267a1.28,1.28,0,0,1,1.22-1.68,1.6,1.6,0,0,1,1.19.57l-.29-1.73h.74l.74,4.45h-.74l-.09-.53a1.06,1.06,0,0,1-1,.6A1.9,1.9,0,0,1,358.91,267Zm2.6,0a1.18,1.18,0,0,0-1.1-1c-.51,0-.86.39-.76,1a1.18,1.18,0,0,0,1.1,1A.8.8,0,0,0,361.51,267Z"/><path class="cls-16" d="M362.71,264.21h.79l.12.71h-.79Zm.23,1.2h.74l.53,3.22h-.74Z"/><path class="cls-16" d="M364.64,265.41h.74l.08.5a1,1,0,0,1,.92-.57,1.35,1.35,0,0,1,1.35,1.24l.34,2.05h-.74l-.3-1.83a.83.83,0,0,0-.82-.79c-.43,0-.68.3-.6.8l.3,1.82h-.73Z"/><path class="cls-16" d="M369.05,269.24l.19-.56a2.29,2.29,0,0,0,1.2.34c.66,0,1-.34.86-1l-.05-.26a1.11,1.11,0,0,1-1,.6,1.78,1.78,0,0,1-1.72-1.52,1.2,1.2,0,0,1,1.21-1.52,1.65,1.65,0,0,1,1.22.55l-.08-.48h.74L372,268a1.49,1.49,0,0,1-.21,1.22,1.56,1.56,0,0,1-1.25.43A3.16,3.16,0,0,1,369.05,269.24Zm2.06-2.38A1.11,1.11,0,0,0,370,266a.72.72,0,0,0-.76.89,1.06,1.06,0,0,0,1.06.89A.75.75,0,0,0,371.11,266.86Z"/><path class="cls-18" d="M175.21,240.13s.63-6.88-7.05-6.88a9,9,0,0,1,3.53,1.89s-4.9-2.87-10.23,1.55-2,15.5-3.64,17.6-7.93,2.53-7.16,9.33,20,15.33,18.8,21c0,0,7.55-11.1,2.15-16.16,0,0,2.63,2.48,2.9,5.42,0,0,.71-5.75-2.95-7.59-3.24-1.63-5.89-7.58-5.61-8.65S175.21,240.13,175.21,240.13Z"/><path class="cls-19" d="M167.65,273.13s5.74,23.74,11.37,28.48c3.38,2.86,13.45,9.4,13.45,9.4l-4.19,1.52s-14-4.71-17.08-8.39-11.69-22.09-11.69-22.09Z"/><path class="cls-15" d="M200.6,319.69l-1.35-3.34a9.47,9.47,0,0,0-8.78-5.92H165.59V393.6h102.9V326.21H210.26A10.42,10.42,0,0,1,200.6,319.69Z"/><path class="cls-20" d="M113.72,314.84c0,.09.1.18.16.27,1.25,2.19,4.13,7.53,7.31,13.39,1.5,2.77,3.07,5.66,4.56,8.38,2.57,4.7,4.9,8.88,6.27,11.09s2.4,3.82,2.82,4.45h0a1.06,1.06,0,0,1,.13.65,34,34,0,0,0,.1,5.89,45.12,45.12,0,0,0,14.75,29.24l3.81.57s-5.4-20-7-31.33a21.23,21.23,0,0,1-.29-4.49c.28-2.94-.24-7.27-1.23-12.24a275.8,275.8,0,0,0-7.81-28.34c-.18-.56-5.55-20-5.55-20-4.5,3.93-20.93,5.56-20.93,5.56S108,304.73,113.72,314.84Z"/><path class="cls-21" d="M161.65,393.6H145.71a8.77,8.77,0,0,1,.45-4.27c.8-1.77,1.94-1.83.15-4.6,1,1,4.27,1.47,6.57,1.16.28.46,1.82,3.53,2.76,4.21S161.33,390.58,161.65,393.6Z"/><path class="cls-21" d="M113.72,314.84c0,.09.1.18.16.27,1.25,2.19,8,14.73,11.22,20.58-3.68-15.12-1.12-30.25-1.12-30.25Z"/><path class="cls-18" d="M173,239.16c.1-.42-9.1,4.16-9.57,4.68-4.32,4.78-3.08,11-.61,11.09,1.58,0,1.27,2.67,1.27,2.67l17.65-7.46S179.65,237.75,173,239.16Z"/><path class="cls-3" d="M167.11,269.57s2.68,5.36,2.35,9.71c0,0-3.24,5.11-11.64,6.41C157.82,285.69,165,269.56,167.11,269.57Z"/><path class="cls-20" d="M126.14,299.14l0-3c-5.93.75-20.47-7.09-20.47-7.09S99.51,293.2,98.66,305c-.41,5.76-3,30.11-3.33,37.38-.1,2.64-.14,4.52-.15,5.27h0a1,1,0,0,1-.25.62,33.37,33.37,0,0,0-3.22,4.93C82.65,370.05,87.39,393,87.39,393l2.1-.54s7.66-23.74,12.67-34a21.12,21.12,0,0,1,2.27-3.88c1.88-2.29,3.86-6.17,5.82-10.84C114,334.85,126.14,299.14,126.14,299.14Z"/><path class="cls-21" d="M100.06,393.6H84.13a8.64,8.64,0,0,1,.45-4.27c.79-1.77,2-2.58,1.74-4.71a5.77,5.77,0,0,0,5,1.9,17.72,17.72,0,0,0,2.76,3.58C95.09,390.85,99.74,390.58,100.06,393.6Z"/><path class="cls-3" d="M156.75,289.11c-2.14.37.35,2.07-2.6,2.39-4.19.45-8.51.77-10.78,1.67a2.45,2.45,0,0,0-1.55,1.26c-1,2.95-7.2,8-7.2,8-27.74-1.26-29.53-13.62-29.53-13.62,18-17.49,33.32-27,46-28.2,3.08-.29,7.23.1,9.18,1,4.43,2,6.86,8,6.86,8S164.88,287.72,156.75,289.11Z"/><path class="cls-22" d="M154.15,291.5c-4.19.45-8.51.77-10.78,1.67-6.55-13.05,5.61-24.24,5.61-24.24S153.23,286.26,154.15,291.5Z"/><path class="cls-19" d="M157.77,266.59s-10.54-.58-12.41,6,3.51,33,4.67,35.74c2.11,5,12.76,19.74,12.76,19.74l3.42-1.77s-6.86-21.63-8.39-23.77C155.42,299.2,160.92,269.46,157.77,266.59Z"/><path class="cls-19" d="M166.21,326.33A16.24,16.24,0,0,1,167.8,328c.71.87.08,1.18,2.12,5.1,0,0-.11.54-.55.45s-2-1.62-2.76-1.52c0,0-.57.47-.63,2a37.52,37.52,0,0,1-.31,5.21c-.25.6-2.08-2.51-3-4.75-.79-2,0-8.59,0-8.59Z"/><path class="cls-3" d="M143.28,281.47c0,.15,10,1.83,16.19-1.33,0,0,5.19-16.27-2.23-15.49s-11.82,3.11-12,6.67A67.62,67.62,0,0,1,143.28,281.47Z"/><path class="cls-19" d="M160,262.74a6.55,6.55,0,0,0,2,4.63c1.32,1.36,3.22,2.42,4.56,1.08a14.38,14.38,0,0,0,2.08-2.5c1.16-2,2.54-4,2.54-4l-6-5.22-.35-.31a15.37,15.37,0,0,1-4.44,5A1.35,1.35,0,0,0,160,262.74Z"/><path class="cls-23" d="M171.2,261.92s-1.38,2-2.54,4c-3.71-2.29-3.71-6.88-3.43-9.25Z"/><path class="cls-19" d="M171.36,264.54s-9-5-5.79-10.56,4.2-9.95,10.08-7,5.76,5.72,5.14,7.83S173.78,265.7,171.36,264.54Z"/><path class="cls-18" d="M182.31,251.59c-.41-2.47-1.66-2.7-2.53-2.54A7.21,7.21,0,0,0,171,245.7a12.24,12.24,0,0,1-7.09,4.26s1,1.94,5.35,3.15a7.44,7.44,0,0,0,4.24-.34,24.1,24.1,0,0,1-6.1,2.3c5.67.52,11.06-4.66,11.62-5.22a8,8,0,0,1,.44,3.72c-.37,1.67-1.85,4.69-.95,5.08C178.53,258.65,182.93,255.29,182.31,251.59Z"/><path class="cls-19" d="M194.12,311s-2.51,1.89-.62,3.12,5.27,1.56,5.28.75C198.83,312.18,197.48,310.25,194.12,311Z"/><path class="cls-24" d="M192.55,368.84h53.17c2.19,0,3.88-3.35,3.91-5.72.09-7.45-7.91-19.35-26-14.09,0,0-5.11-13.8-23.08-12.12-10.55,1-16.43,11.74-17.14,21.34C183,364,187.24,368.84,192.55,368.84Z"/><rect class="cls-9" x="211.34" y="357.59" width="10.3" height="23.66" transform="translate(432.98 738.84) rotate(180)"/><polygon class="cls-9" points="229.27 362.37 203.71 362.37 216.49 350.35 229.27 362.37"/><polygon class="cls-21" points="457.06 251.63 443.62 254.72 436.95 266.79 431.95 239.23 457.06 251.63"/><rect class="cls-21" x="444.96" y="251.38" width="2.45" height="14.2" transform="translate(-65.72 320.5) rotate(-36.99)"/><path class="cls-19" d="M247.66,182.61a1.57,1.57,0,0,0-.28,1.68h0c.4,1.12,1.74,2.37,3.3,3.62l.53.44a1.14,1.14,0,0,1,.11.11l.1.08c1.45,1.34.9,1.65,3.5,4.36,3,3.09,5,3.14,5.6,2.86s-.51-1.88-1.62-3.72c-.05-.09-.1-.18-.16-.27l-.44-.74c-1.3-2.21-1-3.25-.65-6.55.25-2.68,4.17-15,4.17-15l-5.69-1s-1.72,9.79-3.61,11.3c-1,.8-2.14.81-3.11,1.41l-.2.13A7.45,7.45,0,0,0,247.66,182.61Z"/><path class="cls-21" d="M247.66,182.61a1.57,1.57,0,0,0-.28,1.68h0a12,12,0,0,0,3.3,3.61l.53.45a1.14,1.14,0,0,1,.11.11l.1.08c1.45,1.34.9,1.65,3.5,4.36,3,3.09,5,3.14,5.6,2.86s-.51-1.88-1.62-3.72a12.66,12.66,0,0,1-5.29-3.9c-1.72-2.2-2.89-5-4.06-6.72l-.34-.06A7.45,7.45,0,0,0,247.66,182.61Z"/><path class="cls-19" d="M293.55,179.05c.35,1.76,2.86,1.47,5.66.78s2.13.13,6.11-.31,5.19-1.92,5.31-2.52-1.86-.71-4-.95l-.8-.1c-2.38-.29-4.13-1.83-6.29-3.09s-5.11-6.07-5.11-6.07l-5.46.43s2.87,4.35,4,6.24a6.55,6.55,0,0,1,.54,3.72A7.32,7.32,0,0,0,293.55,179.05Z"/><path class="cls-21" d="M299.21,179.83c2.79-.68,2.13.13,6.11-.31s5.19-1.92,5.31-2.52-1.86-.71-4-.95l0,0a11.25,11.25,0,0,1-5.7,1.77c-2.7.07-5.56-.71-7.43-.68a7.32,7.32,0,0,0,0,1.87C293.9,180.81,296.41,180.52,299.21,179.83Z"/><path class="cls-22" d="M272.63,144.14l-5.11,13.73-6.66,17.94a10.84,10.84,0,0,1-3.54-.33,15.39,15.39,0,0,1-3.43-1.66s1.85-19.26,5.31-30.31a19.46,19.46,0,0,1,3-6.43C267.52,130.76,272.63,144.14,272.63,144.14Z"/><path class="cls-3" d="M267.44,122.32c-2.91-.93-10.49,0-18.71,1.48a5.59,5.59,0,0,1-5.76-2.6h0l-20.7-1.62s-6.83,15.14-3.09,24.79a3.64,3.64,0,0,0,3.62,2.34h16.5c10.3,0,21.79-7.07,23.27-7.37,2.43-.48,3.41,4.38,5.84,9.49s22.87,22.62,22.87,22.62a17.75,17.75,0,0,0,4.44-.45,4.35,4.35,0,0,0,1.9-1.2S275,124.76,267.44,122.32Z"/><path class="cls-21" d="M240.77,60.43a7.28,7.28,0,0,0-4-1,11.08,11.08,0,0,1-1.91-.12C227,58.12,222.25,69.6,222,73.06c-.51,6.37-3.87,7.34-8.61,11.32-9.51,8-6.72,17.28-1.52,20.73,3.11,2.07,8.61,0,8.61,0s15-8.36,22.4-12.41C253.89,91.13,245.21,63.07,240.77,60.43Z"/><path class="cls-19" d="M236.67,89.24s-3.63,1.27-6.07.19-4-4.8-4-4.81c1,0,2.19-1,3.08-7l.44.16,7.5,2.69s-.54,2.41-.9,4.7C236.42,87.13,236.26,89,236.67,89.24Z"/><path class="cls-25" d="M237.61,80.51s-.3,1.3-.74,3.72a8.47,8.47,0,0,1-6.76-6.41Z"/><path class="cls-19" d="M238.73,82.9s-10.26-1.38-9.3-7.75.27-10.84,6.86-10.23,7.49,3.23,7.69,5.43S241.42,83.09,238.73,82.9Z"/><path class="cls-21" d="M243.61,66.86s-6.57,5.66-11,6.11-6.16-1-6.16-1a17.55,17.55,0,0,0,4.22-5.72,3.15,3.15,0,0,1,2.59-1.85C236.41,64.16,242.46,64,243.61,66.86Z"/><path class="cls-21" d="M239.5,66.35a16.25,16.25,0,0,1,2.89,3.7,12.41,12.41,0,0,1,.34,6.6s3.42-6.65,1.48-9.89C242.16,63.34,239.5,66.35,239.5,66.35Z"/><path class="cls-12" d="M245.3,104.35c-.31,20.76-.08,16.42-2.35,18.39-.55.47-2.09.76-4.11.89-6.37.42-17.55-.63-18-1.8-1.47-4.07-.43-5.34-1.66-11.57-.12-.66-.28-1.38-.47-2.16-1-4.28-2-5.74,1.61-12.61,3.29-6.23,6.7-11.28,7-11.1,8.67,5.14,9.36.82,9.36.82S245.46,94.22,245.3,104.35Z"/><path class="cls-3" d="M267.52,157.87l-6.66,17.94a10.84,10.84,0,0,1-3.54-.33,15.39,15.39,0,0,1-3.43-1.66s1.85-19.26,5.31-30.31Z"/><path class="cls-12" d="M236.71,85.21s8.93,1.51,10,5.35,4.5,27.15,4.5,27.15-2.52,2.46-4.61.36S240,96.26,240,96.26Z"/><path class="cls-13" d="M238.84,123.63c-6.37.42-17.55-.63-18-1.8-1.47-4.07-.43-5.34-1.66-11.57l3.07-8.64s-.5,9.62,2.33,12.16,11.63,4.88,13,7A7.82,7.82,0,0,1,238.84,123.63Z"/><path class="cls-19" d="M231.55,119.58s6.28-1.4,7.29-.84a15,15,0,0,1,3.8,3.29c.31.71-2.26-.53-3.09-.76a7.48,7.48,0,0,0-2.67.59,8.84,8.84,0,0,1-4.78.48Z"/><path class="cls-12" d="M227.34,84.38S218.91,84.9,216,89c-4.11,5.73-12.26,30.16-7.59,33.41,5.26,3.67,23.94,1,23.94,1s.63-2.9-.24-4.31-14.92-3.67-15.57-4.32,8.11-12.65,8.11-14.6S227.34,84.38,227.34,84.38Z"/><path class="cls-19" d="M239.14,120.49a12.6,12.6,0,0,0,1.75,1.9,1.3,1.3,0,0,0,.71.15l-.89-1.6Z"/><path class="cls-19" d="M238.84,118.74l3.82,1.86a.68.68,0,0,1-.63.24,9.15,9.15,0,0,1-1.66-.45Z"/><polygon class="cls-21" points="271.5 123.11 231.55 123.11 231.55 123.99 271.15 123.99 271.5 123.11"/><polygon class="cls-21" points="240.89 123.99 271.15 123.99 280.25 101.35 250.04 101.35 240.89 123.99"/><path class="cls-24" d="M263.51,112.67a1,1,0,0,0-1-1.44,2.07,2.07,0,0,0-1.85,1.44,1,1,0,0,0,1,1.44A2.06,2.06,0,0,0,263.51,112.67Z"/><path class="cls-13" d="M559.06,216.12s14.66,14.92,15.41,21.11-7.6,15.86-7.6,15.86Z"/><path class="cls-26" d="M550.68,385.12s-.56,8.73-2.25,8.85c-.23,0-8.57,0-8.57,0l-10.64-.08a3.45,3.45,0,0,1,3.18-3.11c3.12-.53,8.33-2.71,10.23-6.82C544.62,379.64,550.68,385.12,550.68,385.12Z"/><path class="cls-26" d="M574.4,385.17s-.56,8.73-2.25,8.85c-.23,0-8.57,0-8.57,0l-10.65-.08a3.46,3.46,0,0,1,3.19-3.1c3.12-.54,8.33-2.72,10.22-6.83C568.34,379.69,574.4,385.17,574.4,385.17Z"/><path class="cls-27" d="M539.09,291.28s2.75,17.81,13.07,49.45,11.7,45.34,11.7,45.34l11.15-.29s.17-34.55-4.58-50.46-.91-57.33-.91-57.33Z"/><path class="cls-28" d="M533.69,278.89a432.85,432.85,0,0,0,4.12,59.81c4.58,33,3,46.95,3,46.95l11.12.39s6.72-33,4.85-49.45S566,280,566,280Z"/><path class="cls-19" d="M555.36,216.13,549.43,220l-8.56-1.61c.12-.7.69-3.56,1.21-6.15l.09-.46c.45-2.21.83-4.1.83-4.1l8-3.52,3-1.3s-.23,2.45-.27,2.8A20.41,20.41,0,0,0,555.36,216.13Z"/><path class="cls-13" d="M543.07,214.14c.17-.07,10.32-3,11.42-2.67s1.75,2.5,1.75,2.5l-16.61,3.71A8.3,8.3,0,0,1,543.07,214.14Z"/><path class="cls-12" d="M570.25,282.29c-1.74,7.84-30.37,8.71-37.73,1.57-.84-.82-.87-4.59-.55-9.68.65-9.95,2.67-24.92,2.76-32.56a61.22,61.22,0,0,1,1.24-10.9,89.3,89.3,0,0,1,3.66-13s14-4.49,16.61-3.71C568.84,217.7,572,274.44,570.25,282.29Z"/><path class="cls-13" d="M532,274.18c.65-9.95,2.67-24.92,2.76-32.56a61.22,61.22,0,0,1,1.24-10.9l8.42-1.47S553.66,264.9,532,274.18Z"/><path class="cls-19" d="M536.56,260.32a2,2,0,0,1-.64,2.29c-1.2.91-2,2.4-1.71,3.49s2.91,2.87,3.82,2.59,2.79-1.72,2.59-2.29,1.26-5-1-6.77S536.56,260.32,536.56,260.32Z"/><path class="cls-12" d="M545.83,216.15s-8,1-14.53,10.67-10.87,16.77-9.68,20.24,12.15,15.54,14,15.54,5-1.36,5.13-4.46c0,0-6.94-12.31-5.42-14,.66-.74,9.29-7.61,10.62-4.17C548.2,245.62,545.83,216.15,545.83,216.15Z"/><path class="cls-29" d="M553.12,205.77c-1.76,3-8.31,5.53-11,6.47l.09-.46c.45-2.21.83-4.1.83-4.1l8-3.52C552.78,204.14,553.85,204.54,553.12,205.77Z"/><path class="cls-19" d="M540,207.18s12.87,4,15.27-4,5.67-13-2.45-15.88-10.63-.33-12.09,2.16S536.7,205.92,540,207.18Z"/><path class="cls-27" d="M541.23,188.68s.8,9.38,2.74,9,3.7-.7,3.41,2.13-3,6.08,3,6.6,14.61-14.89,13-17.82C558.62,180.14,534.4,178.39,541.23,188.68Z"/><rect class="cls-30" y="393.6" width="694.59" height="1.91" rx="0.8"/></svg>