<svg id="Layer_1" data-name="Layer 1" xmlns="http://www.w3.org/2000/svg" viewBox="0 0 612 395.31"><defs><style>.cls-1{fill:#e5c2aa;}.cls-2{fill:#fdd4b8;}.cls-3{fill:#6d6a62;}.cls-4{fill:#d1e9f5;}.cls-5{fill:#587ea2;}.cls-6{fill:#12c2e9;}.cls-7{fill:#e6f5ff;}.cls-8{fill:#17818c;}.cls-9{fill:#6d8086;}.cls-10{fill:#f54394;}.cls-11{fill:#d1eaf2;}.cls-12{fill:#dbb79e;}.cls-13{fill:#f9cfb3;}.cls-14{fill:#3d3b36;}.cls-15{fill:#bad1dd;}.cls-16{fill:#3d5872;}.cls-17{fill:#0db3ce;}.cls-18{fill:#e4f4ff;}.cls-19{fill:#455256;}.cls-20{fill:#cc277a;}.cls-21{fill:#cee5ef;}.cls-22{fill:#c7dde5;}</style></defs><title>tuvan</title><g id="_1" data-name="1"><polygon class="cls-1" points="119.98 142.9 119.98 145.3 119.98 165.18 144.81 189.26 152.72 179.8 165.56 164.46 165.56 140.02 119.98 142.9"/><path class="cls-2" d="M182.68,101.2c-.08-1.68-.94-4.51-3-2.89-.94.74-.48,2.55-1.35,3.15-2.11,1.47-2.32-1.84-2.46-3.3-.53-5.56,1.83-10.9,1.2-16.35-.87-7.61-7.6-12.78-13.93-15.35a30.85,30.85,0,0,0-21-.16,30.88,30.88,0,0,0-21,.16C114.71,69,108,74.2,107.11,81.81c-.63,5.45,1.73,10.79,1.2,16.35-.14,1.46-.35,4.77-2.46,3.3-.87-.6-.41-2.41-1.35-3.15-2.07-1.62-2.93,1.21-3,2.89-.29,6,.53,12.54,3,18,1.46,3.15,3.49,4,5.52,6.33,2.26,2.52,1.88,7.48,2.72,10.62a19,19,0,0,0,2.61,5.81c2.5,3.64,6.85,5.34,9.7,8.64,2.68,3.11,5.16,6.2,8.84,8.2,2.22,1.2,5.31,1.22,8.17,1.08,2.84.14,5.94.12,8.16-1.08,3.68-2,6.16-5.09,8.83-8.2,2.86-3.3,7.21-5,9.71-8.64a18.93,18.93,0,0,0,2.6-5.81c.85-3.14.47-8.1,2.72-10.62,2-2.28,4.07-3.18,5.53-6.33C182.15,113.74,183,107.2,182.68,101.2Z"/><path class="cls-3" d="M104.23,93.68a26.18,26.18,0,0,1,.88,8.64c0,.42,0,1.07,0,1.76h3.78a20.34,20.34,0,0,0,0-2.13,62.28,62.28,0,0,1,.08-6.41c.15-3.08-.2-6.23.08-9.29A15.88,15.88,0,0,1,123.48,72c5.31-.44,10.62.71,15.93.72,6.57,0,9.53-3.32,14.71-6.73,1.39-.92.56-1,2-.64.95.26,2.15,1.61,3,2.13,4.92,3.19,13.76,6.35,15.18,13.06,1.12,5.28.89,10.67.75,16a61.29,61.29,0,0,0-.47,7.55h3c.95-3.24,2.21-7.65,2.52-9.35,1.25-6.81,1-9.81,1.25-12.71,1.07-10.29,1.61-20.13-4.39-28.76-6.42-9.23-15.93-14.62-21-13.94-.28,0-3.72.36-3.29.78-1.81-1.72-5-1.84-7.22-2.41-11.93-3-27,4.83-35.68,13.2-9.14,8.84-7.79,20.21-6.76,31.13C103.27,85.82,103.23,90,104.23,93.68Z"/><path class="cls-4" d="M120,207.35c-.16-1.76,21.84-26.19,21.84-26.19h2.81l20.93,24.67-21.85,61.76Z"/><path class="cls-5" d="M154.18,233.25l-7.44-35.68a5.12,5.12,0,0,1,.44-3.34l2.82-5.62a.93.93,0,0,0-.19-1l-3.26-3.42a9.05,9.05,0,0,1-2.06-2.52c-.31-.74-1.15-2.37-2.13-1.67a7.8,7.8,0,0,0-1.71,2.36,20.49,20.49,0,0,1-2.08,2.19l-2.92,3.06a1,1,0,0,0-.19,1l2.83,5.62a5.12,5.12,0,0,1,.43,3.34l-7.44,35.68a.91.91,0,0,0,0,.54l10.3,28a1.5,1.5,0,0,0,2.22,0l10.31-28A.9.9,0,0,0,154.18,233.25Z"/><path class="cls-6" d="M141.42,255l-17-59.82-7.17-25.16-.76.25-12.65,4c-16.29,5.22-41.7,13.37-42.39,13.85S52.23,207,47,218.35v45.23c1.09,4.51,2.52,8.1,4.26,10,21.86,23.22,79.65,22.2,90.59,23.63Z"/><path class="cls-6" d="M237.9,217.08c-5.26-11.43-13.17-28.44-13.83-28.91s-26.11-8.63-42.4-13.85l-12.64-4-.78-.25-10,34.06L142.42,258v.52l-1-3.5.42,42.14.58.08c4.89-.38,78.24-.08,91.83-23.71,1.37-2.37,2.62-6.5,3.65-11.47Z"/><path class="cls-7" d="M165.9,157.64l-22.56,21.51a.88.88,0,0,1-1.22,0l-22.56-21.51-5,15.61,9.75,34.1L142,181a.89.89,0,0,1,1.48,0l17.73,26.34,9.75-34.1Z"/><path class="cls-8" d="M172,192.06l11.85,5.29-41.38,82.79-40.74-82.79,11.82-5.29L99.89,185a110.33,110.33,0,0,1,3.9-10.67l12.65-4,7.93,24.91L130.68,215l11.38,39.53L154.78,215l3.47-10.88L169,170.3l12.64,4A104.64,104.64,0,0,1,185.56,185Z"/><polygon class="cls-9" points="269.12 272.94 3.57 272.94 3.57 272.94 3.57 292.82 3.57 304.1 269.12 304.1 269.13 304.1 269.13 292.82 269.13 272.94 269.12 272.94"/><path class="cls-10" d="M212.66,207.35H72.87a2,2,0,0,0-1.72.9,1.72,1.72,0,0,0-.26,1.14l8.24,77.54a2,2,0,0,0,2.1,1.59H204.32a2.06,2.06,0,0,0,2.09-1.59l8.23-77.54A1.89,1.89,0,0,0,212.66,207.35Zm-55.45,50.26a.51.51,0,0,1-.52.4H126.16a.5.5,0,0,1-.52-.4l-2-19.24a.46.46,0,0,1,.49-.5h34.68a.45.45,0,0,1,.49.5l-.89,8.44Z"/><path class="cls-11" d="M158.76,237.87H124.08a.46.46,0,0,0-.49.5l2,19.24a.5.5,0,0,0,.52.4h30.53a.51.51,0,0,0,.52-.4l1.15-10.8.89-8.44A.45.45,0,0,0,158.76,237.87Z"/><path class="cls-9" d="M190.31,91.67c1.1-14,0-32.38-10.11-46.14-7.38-10-22.75-18.08-38.21-18.08-15.13,0-30.82,8.05-38.19,18.08C93.69,59.29,92.57,77.65,93.69,91.67c-5.77,3.16-7.3,11.09-6.19,19.76,1.32,10.19,5.78,12.9,14.5,12.15L97.14,90.44h0c-.93-13.32.26-30.34,9.44-42.82C113.25,38.48,128,31.49,142,31c15.66.51,28.75,7.5,35.47,16.65,9.17,12.48,10.36,29.5,9.43,42.82h0L182,123.58l.2,0-15.11,18.6a2.25,2.25,0,0,0-3.13,0l-7.74,7.66a2.37,2.37,0,0,0,0,3.29l1.58,1.66a2.26,2.26,0,0,0,3.23,0l7.74-7.65a2.35,2.35,0,0,0,.59-2.3l17.32-21.36c5.71-.61,8.8-4,9.86-12.15C197.6,102.76,196.08,94.83,190.31,91.67Z"/><polygon class="cls-1" points="459.29 142.9 459.29 145.3 459.29 165.18 484.12 189.26 492.03 179.8 504.87 164.46 504.87 140.02 459.29 142.9"/><path class="cls-2" d="M522,101.2c-.08-1.68-.94-4.51-3-2.89-.94.74-.48,2.55-1.35,3.15-2.11,1.47-2.32-1.84-2.46-3.3-.53-5.56,1.83-10.9,1.2-16.35-.87-7.61-7.6-12.78-13.93-15.35a30.88,30.88,0,0,0-21.05-.16,30.85,30.85,0,0,0-21,.16C454,69,447.29,74.2,446.42,81.81c-.64,5.45,1.73,10.79,1.2,16.35-.14,1.46-.35,4.77-2.46,3.3-.87-.6-.41-2.41-1.35-3.15-2.07-1.62-2.93,1.21-3,2.89-.29,6,.53,12.54,3,18,1.46,3.15,3.49,4,5.53,6.33,2.25,2.52,1.87,7.48,2.72,10.62a18.7,18.7,0,0,0,2.6,5.81c2.5,3.64,6.85,5.34,9.71,8.64,2.67,3.11,5.15,6.2,8.83,8.2,2.22,1.2,5.32,1.22,8.16,1.08,2.86.14,5.95.12,8.17-1.08,3.68-2,6.16-5.09,8.84-8.2,2.85-3.3,7.2-5,9.7-8.64a19,19,0,0,0,2.61-5.81c.84-3.14.46-8.1,2.72-10.62,2-2.28,4.06-3.18,5.52-6.33C521.46,113.74,522.28,107.2,522,101.2Z"/><path class="cls-3" d="M443.54,93.68a26.18,26.18,0,0,1,.88,8.64c0,.42,0,1.07,0,1.76h3.78a17.9,17.9,0,0,0,0-2.13,62.28,62.28,0,0,1,.08-6.41c.16-3.08-.2-6.23.09-9.29A15.87,15.87,0,0,1,462.79,72c5.31-.44,10.62.71,15.93.72,6.57,0,9.53-3.32,14.71-6.73,1.39-.92.56-1,2-.64.94.26,2.15,1.61,3,2.13,4.92,3.19,13.75,6.35,15.17,13.06,1.12,5.28.89,10.67.75,16a63.39,63.39,0,0,0-.47,7.55h2.95c1-3.24,2.21-7.65,2.53-9.35,1.24-6.81.94-9.81,1.25-12.71,1.06-10.29,1.61-20.13-4.4-28.76-6.42-9.23-15.93-14.62-21-13.94-.29,0-3.73.36-3.3.78-1.81-1.72-5-1.84-7.22-2.41-11.93-3-27,4.83-35.67,13.2-9.15,8.84-7.8,20.21-6.77,31.13C442.58,85.82,442.54,90,443.54,93.68Z"/><path class="cls-4" d="M459.29,207.35c-.16-1.76,21.84-26.19,21.84-26.19h2.81l20.93,24.67L483,267.59Z"/><path class="cls-5" d="M493.49,233.25l-7.43-35.68a5.06,5.06,0,0,1,.43-3.34l2.83-5.62a1,1,0,0,0-.2-1l-3.26-3.42a9.23,9.23,0,0,1-2.06-2.52c-.31-.74-1.15-2.37-2.13-1.67s-1.14,1.55-1.7,2.36a20.58,20.58,0,0,1-2.09,2.19c-1,1-1.94,2-2.92,3.06a.93.93,0,0,0-.18,1l2.82,5.62a5.19,5.19,0,0,1,.43,3.34l-7.44,35.68a1,1,0,0,0,0,.54l10.31,28a.84.84,0,0,0,1.12.49.82.82,0,0,0,1.1-.49l10.31-28A.83.83,0,0,0,493.49,233.25Z"/><path class="cls-6" d="M480.73,255l-17-59.82-7.17-25.16-.77.25-12.65,4c-16.29,5.22-41.7,13.37-42.39,13.85s-9.17,18.8-14.41,30.18v45.23c1.09,4.51,2.52,8.1,4.26,10,21.86,23.22,79.65,22.2,90.59,23.63Z"/><path class="cls-6" d="M577.21,217.08c-5.26-11.43-13.16-28.44-13.83-28.91s-26.11-8.63-42.4-13.85l-12.64-4-.78-.25-10,34.06L481.73,258v.52l-1-3.5.42,42.14.58.08c4.89-.38,78.24-.08,91.84-23.71,1.37-2.37,2.61-6.5,3.64-11.47Z"/><path class="cls-7" d="M505.21,157.64l-22.56,21.51a.86.86,0,0,1-1.21,0l-22.57-21.51-5,15.61,9.75,34.1L481.3,181a.89.89,0,0,1,1.48,0l17.73,26.34,9.75-34.1Z"/><path class="cls-8" d="M511.26,192.06l11.85,5.29-41.38,82.79L441,197.35l11.83-5.29L439.2,185a110.33,110.33,0,0,1,3.9-10.67l12.65-4,7.94,24.91L470,215l11.38,39.53L494.09,215l3.47-10.88,10.78-33.81,12.64,4A104.64,104.64,0,0,1,524.87,185Z"/><polygon class="cls-9" points="608.43 272.94 342.88 272.94 342.88 292.82 342.88 304.1 608.43 304.1 608.43 292.82 608.43 272.94"/><path class="cls-10" d="M552,207.35H412.19a2,2,0,0,0-1.73.9,1.84,1.84,0,0,0-.26,1.14l8.24,77.54a2,2,0,0,0,2.1,1.59H543.63a2.06,2.06,0,0,0,2.09-1.59L554,209.39A1.88,1.88,0,0,0,552,207.35Zm-55.45,50.26a.5.5,0,0,1-.52.4H465.47a.53.53,0,0,1-.53-.4l-2-19.24a.46.46,0,0,1,.5-.5h34.68a.46.46,0,0,1,.49.5l-.9,8.44Z"/><path class="cls-11" d="M498.08,237.87H463.4a.46.46,0,0,0-.5.5l2,19.24a.53.53,0,0,0,.53.4H496a.5.5,0,0,0,.52-.4l1.15-10.8.9-8.44A.46.46,0,0,0,498.08,237.87Z"/><path class="cls-9" d="M529.62,91.67c1.1-14,0-32.38-10.11-46.14-7.38-10-22.75-18.08-38.21-18.08-15.13,0-30.82,8.05-38.19,18.08C433,59.29,431.88,77.65,433,91.67c-5.77,3.16-7.3,11.09-6.19,19.76,1.32,10.19,5.78,12.9,14.51,12.15l-4.87-33.14h0c-.93-13.32.26-30.34,9.43-42.82,6.72-9.15,21.47-16.14,35.46-16.65,15.66.51,28.75,7.5,35.47,16.65,9.17,12.48,10.36,29.5,9.43,42.82h0l-4.86,33.14.2,0-15.11,18.6a2.24,2.24,0,0,0-3.12,0l-7.75,7.66a2.39,2.39,0,0,0,0,3.29l1.59,1.66a2.26,2.26,0,0,0,3.23,0l7.74-7.65a2.35,2.35,0,0,0,.59-2.3l17.32-21.36c5.71-.61,8.81-4,9.86-12.15C536.91,102.76,535.39,94.83,529.62,91.67Z"/><polygon class="cls-12" points="282.91 165.38 282.91 168.78 282.91 196.82 317.93 230.78 329.1 217.45 347.2 195.81 347.2 161.33 282.91 165.38"/><path class="cls-13" d="M371.35,106.58c-.11-2.38-1.31-6.37-4.24-4.08-1.33,1-.68,3.59-1.91,4.44-3,2.07-3.26-2.59-3.47-4.65-.74-7.84,2.59-15.37,1.7-23.07-1.24-10.73-10.72-18-19.65-21.65s-16.41-21.88-25.51-18.52c-9.1-3.36-29.1-.85-38,2.77S266,68.49,264.75,79.22c-.88,7.7,2.46,15.23,1.7,23.07-.19,2.06-.48,6.72-3.46,4.65-1.23-.85-.59-3.4-1.9-4.44-2.93-2.29-4.14,1.7-4.25,4.08-.41,8.45.74,17.69,4.28,25.35,2.06,4.44,4.93,5.71,7.79,8.92,3.18,3.56,2.66,10.55,3.84,15a26.57,26.57,0,0,0,3.68,8.18c3.52,5.13,9.65,7.53,13.68,12.2,3.78,4.38,7.28,8.73,12.47,11.55,3.13,1.71,7.5,1.74,11.51,1.53,4,.21,8.39.18,11.52-1.53,5.19-2.82,8.69-7.17,12.47-11.55,4-4.67,10.15-7.07,13.68-12.2a26.57,26.57,0,0,0,3.68-8.18c1.18-4.44.65-11.43,3.83-15,2.87-3.21,5.74-4.48,7.79-8.92C370.61,124.27,371.76,115,371.35,106.58Z"/><path class="cls-14" d="M260.7,96a37,37,0,0,1,1.24,12.2c0,.59-.06,1.49,0,2.47h5.34c.05-1.18,0-2.3,0-3a85.58,85.58,0,0,1,.11-9.06c.21-4.32-.3-8.78.11-13.09.91-9.53,8.5-18.66,12.53-27,2.57-5.3,7.28-10.58,12.86-9.71,3.28.52,5.89,3.07,8.5,5.25a51.29,51.29,0,0,0,23.81,11.23c10,1.8,31.45-1.64,34.35,12.08,1.57,7.45,1.25,15.06,1.06,22.62,0,1.07-.89,6.84-.68,10.64H364c1.34-4.57,3.12-10.78,3.56-13.18,1.76-9.61,1.35-13.84,1.77-17.93,1.51-14.51,2.27-28.4-6.19-40.56-10.45-15-26.56-24.34-44.31-24.35-14.9,0-36.25,5.54-44.67,19.57-15.94,3.94-16.6,32.29-15.36,45.34C259.34,84.89,259.29,90.84,260.7,96Z"/><path class="cls-15" d="M282.91,256.31c-.22-2.5,30.81-36.95,30.81-36.95h4l29.51,34.8-30.82,87.11Z"/><path class="cls-16" d="M331.17,292.83l-10.5-50.33a7.15,7.15,0,0,1,.61-4.71l4-7.92a1.36,1.36,0,0,0-.28-1.38c-1.53-1.62-3.07-3.22-4.6-4.84a12.56,12.56,0,0,1-2.9-3.55c-.44-1-1.62-3.33-3-2.35-1.21.85-1.62,2.19-2.4,3.33a28.59,28.59,0,0,1-2.94,3.09L305,228.49a1.3,1.3,0,0,0-.27,1.38l4,7.92a7.22,7.22,0,0,1,.61,4.71l-10.49,50.33a1.27,1.27,0,0,0,.05.77l14.53,39.45a1.16,1.16,0,0,0,1.57.69,1.14,1.14,0,0,0,1.56-.69l14.55-39.45A1.55,1.55,0,0,0,331.17,292.83Z"/><path class="cls-6" d="M313.16,323.55l-24.05-84.37L279,203.7s-.38.11-1.09.35c-2.53.78-9.28,2.94-17.84,5.65-23,7.37-58.83,18.86-59.79,19.54S187.35,255.76,180,271.82V335.6c1.54,6.36,3.55,11.44,6,14.06C216.81,382.42,298.33,381,313.74,383Z"/><path class="cls-17" d="M449.24,270c-7.42-16.11-18.57-40.1-19.5-40.78s-36.83-12.17-59.81-19.54c-8.52-2.71-15.3-4.85-17.83-5.65-.72-.24-1.1-.35-1.1-.35l-14.11,48-22.32,76v.74l-1.41-4.94.58,59.45.83.1c6.89-.53,110.35-.1,129.54-33.44,1.93-3.35,3.68-9.16,5.13-16.18Z"/><path class="cls-18" d="M347.69,186.19l-31.82,30.33a1.21,1.21,0,0,1-1.71,0l-31.83-30.33-7.11,22L289,256.31l25-37.16a1.23,1.23,0,0,1,2.08,0l25,37.16L354.8,208.2Z"/><path class="cls-8" d="M356.22,234.74l16.71,7.45L314.57,359,257.1,242.19l16.68-7.45-19.19-10a154.62,154.62,0,0,1,5.49-15.06c8.56-2.71,15.31-4.87,17.84-5.65l11.19,35.13,8.9,27.9,16.05,55.75L332,267.08l4.89-15.35,15.21-47.68c2.53.81,9.31,2.94,17.83,5.65a149.45,149.45,0,0,1,5.49,15.06Z"/><path class="cls-19" d="M382.11,93.13c1.57-19.78,0-45.67-14.26-65.07C357.45,13.9,335.77,2.55,314,2.55c-21.35,0-43.48,11.35-53.88,25.51-14.26,19.4-15.83,45.29-14.26,65.07-8.14,4.46-10.29,15.65-8.72,27.87,1.85,14.37,8.14,18.19,20.45,17.14L250.7,91.39l-.06,0C249.33,72.62,251,48.62,264,31c9.48-12.9,30.27-22.76,50-23.48C336,8.25,354.52,18.11,364,31c12.94,17.61,14.61,41.61,13.31,60.4l-.06,0-6.86,46.75.28,0-21.3,26.25a3.18,3.18,0,0,0-4.42,0L334,175.25a3.34,3.34,0,0,0-.06,4.64l2.24,2.35a3.18,3.18,0,0,0,4.54.07l10.92-10.8a3.31,3.31,0,0,0,.84-3.25l24.43-30.11c8.05-.87,12.41-5.6,13.9-17.15C392.4,108.78,390.25,97.59,382.11,93.13Z"/><polygon class="cls-8" points="118.72 348.82 118.72 376.86 118.72 392.76 493.29 392.76 493.29 376.86 493.29 348.82 118.72 348.82"/><path class="cls-20" d="M337.62,299.34a.67.67,0,0,1,.7.72L337.05,312a362.8,362.8,0,0,1,64.83,58.81,2.85,2.85,0,0,0,2.93-2.23l11.62-109.37a2.64,2.64,0,0,0-2.79-2.87H216.47a2.81,2.81,0,0,0-2.43,1.27c16.42,3.13,57.25,13.21,103.85,41.76Z"/><path class="cls-10" d="M337.05,312l-1.62,15.22a.71.71,0,0,1-.73.56H291.63a.72.72,0,0,1-.74-.56L288,300.06a.67.67,0,0,1,.7-.72h29.18c-46.6-28.55-87.43-38.63-103.85-41.76a2.4,2.4,0,0,0-.36,1.6l11.61,109.37a2.89,2.89,0,0,0,3,2.24H401.88A362.8,362.8,0,0,0,337.05,312Z"/><path class="cls-21" d="M288.71,299.34a.67.67,0,0,0-.7.72l2.88,27.13a.72.72,0,0,0,.74.56H334.7a.71.71,0,0,0,.73-.56L337.05,312c-6.46-4.57-12.87-8.77-19.16-12.63Z"/><path class="cls-22" d="M337.62,299.34H317.89c6.29,3.86,12.7,8.06,19.16,12.63l1.27-11.91A.67.67,0,0,0,337.62,299.34Z"/></g><path class="cls-6" d="M142.13,241a.16.16,0,0,0-.16.16v2.43a.16.16,0,0,0,.16.16h.34a.16.16,0,0,1,.16.16v10.87a.16.16,0,0,0,.16.15h2.43a.16.16,0,0,0,.16-.15V243.34A2.37,2.37,0,0,0,143,241Z"/><path class="cls-10" d="M136.84,243.72h4.67a.16.16,0,0,0,.16-.16v-2.43a.16.16,0,0,0-.16-.16h-5.83a1.75,1.75,0,0,0-1.75,1.75v12a.16.16,0,0,0,.16.15h.22a2.36,2.36,0,0,0,2.37-2.36v-3.83a.16.16,0,0,1,.16-.16h4.67a.16.16,0,0,0,.16-.16V246a.16.16,0,0,0-.16-.16h-4.83v-1.92A.16.16,0,0,1,136.84,243.72Z"/><path class="cls-6" d="M149.9,242.35h-1.06a.16.16,0,0,1-.16-.16v-1.06a.16.16,0,0,0-.16-.16h-1.06a.16.16,0,0,0-.16.16v1.06a.16.16,0,0,1-.15.16h-1.07a.16.16,0,0,0-.16.16v1.06a.16.16,0,0,0,.16.16h1.07a.16.16,0,0,1,.15.16V245a.16.16,0,0,0,.16.16h1.06a.16.16,0,0,0,.16-.16v-1.06a.16.16,0,0,1,.16-.16h1.06a.16.16,0,0,0,.16-.16v-1.06A.16.16,0,0,0,149.9,242.35Z"/><path class="cls-6" d="M481.86,242a.16.16,0,0,0-.16.16v2.43a.16.16,0,0,0,.16.16h.35a.16.16,0,0,1,.16.16v10.87a.15.15,0,0,0,.15.15H485a.15.15,0,0,0,.15-.15V244.34a2.36,2.36,0,0,0-2.36-2.37Z"/><path class="cls-10" d="M476.57,244.72h4.68a.16.16,0,0,0,.16-.16v-2.43a.16.16,0,0,0-.16-.16h-5.84a1.74,1.74,0,0,0-1.74,1.75v12a.16.16,0,0,0,.16.15h.22a2.36,2.36,0,0,0,2.37-2.36v-3.83a.16.16,0,0,1,.15-.16h4.68a.16.16,0,0,0,.16-.16V247a.16.16,0,0,0-.16-.16h-4.83v-1.92A.16.16,0,0,1,476.57,244.72Z"/><path class="cls-6" d="M489.64,243.35h-1.06a.16.16,0,0,1-.16-.16v-1.06a.16.16,0,0,0-.16-.16H487.2a.16.16,0,0,0-.16.16v1.06a.16.16,0,0,1-.16.16h-1.06a.16.16,0,0,0-.16.16v1.06a.16.16,0,0,0,.16.16h1.06a.16.16,0,0,1,.16.16V246a.16.16,0,0,0,.16.16h1.06a.16.16,0,0,0,.16-.16v-1.06a.16.16,0,0,1,.16-.16h1.06a.16.16,0,0,0,.16-.16v-1.06A.16.16,0,0,0,489.64,243.35Z"/><path class="cls-6" d="M314.55,304.16a.23.23,0,0,0-.23.23v3.48a.22.22,0,0,0,.23.22H315a.23.23,0,0,1,.23.23v15.54a.22.22,0,0,0,.22.23H319a.23.23,0,0,0,.23-.23V307.54a3.39,3.39,0,0,0-3.38-3.38Z"/><path class="cls-10" d="M307,308.09h6.69a.23.23,0,0,0,.23-.22v-3.48a.23.23,0,0,0-.23-.23h-8.35a2.5,2.5,0,0,0-2.49,2.5v17.2a.22.22,0,0,0,.22.23h.33a3.38,3.38,0,0,0,3.38-3.38v-5.48A.23.23,0,0,1,307,315h6.69a.23.23,0,0,0,.23-.22V311.3a.23.23,0,0,0-.23-.22h-6.91v-2.76A.22.22,0,0,1,307,308.09Z"/><path class="cls-6" d="M325.67,306.14h-1.52a.22.22,0,0,1-.22-.23v-1.52a.23.23,0,0,0-.23-.23h-1.52a.23.23,0,0,0-.23.23v1.52a.22.22,0,0,1-.22.23h-1.52a.22.22,0,0,0-.23.22v1.52a.23.23,0,0,0,.23.23h1.52a.22.22,0,0,1,.22.22v1.53a.22.22,0,0,0,.23.22h1.52a.23.23,0,0,0,.23-.22v-1.53a.22.22,0,0,1,.22-.22h1.52a.23.23,0,0,0,.23-.23v-1.52A.22.22,0,0,0,325.67,306.14Z"/></svg>