<svg id="Layer_1" data-name="Layer 1" xmlns="http://www.w3.org/2000/svg" viewBox="0 0 67.79 47.67"><defs><style>.cls-1{fill:#12c2e9;}.cls-2{fill:#f54394;}</style></defs><title>logo_F1</title><path class="cls-1" d="M67.08,6.28H62.23a.72.72,0,0,1-.72-.72V.72A.71.71,0,0,0,60.8,0H56a.71.71,0,0,0-.71.72V5.56a.72.72,0,0,1-.72.72H49.67A.71.71,0,0,0,49,7v4.84a.71.71,0,0,0,.71.72h4.85a.72.72,0,0,1,.72.72v4.84a.71.71,0,0,0,.71.72H60.8a.71.71,0,0,0,.71-.72V13.28a.72.72,0,0,1,.72-.72h4.85a.71.71,0,0,0,.71-.72V7A.71.71,0,0,0,67.08,6.28Z"/><polygon class="cls-1" points="36.95 0 34.24 0 34.24 10.07 36.95 10.07 36.95 47.67 47.49 47.67 47.49 10.07 47.49 0 36.95 0"/><path class="cls-2" d="M32.69,18.54H10.54a18.2,18.2,0,0,1,.78-4.23q1.56-4.24,5.51-4.24H32.69V0H16.83Q10.35,0,6.4,3.39A17.35,17.35,0,0,0,1.33,12,42.51,42.51,0,0,0,0,23.44V47.67H10.54V28.85H32.69Z"/></svg>