<svg id="Layer_1" data-name="Layer 1" xmlns="http://www.w3.org/2000/svg" viewBox="0 0 64 64"><defs><style>.cls-1{fill:#12c2e9;}.cls-2{fill:#fff;}</style></defs><title>Artboard 5</title><path class="cls-1" d="M55.86,63.76,4.22,48.66A5.86,5.86,0,0,1,1.81,38.8L40.71,1.63a5.86,5.86,0,0,1,9.74,2.84L63.19,56.75A5.86,5.86,0,0,1,55.86,63.76Z"/><path class="cls-2" d="M55.82,44.19v3.32a1,1,0,0,1-1,1H14.41a1,1,0,0,1-1-1V17.69a1,1,0,0,1,1-1h3.31a1,1,0,0,1,1,1V43.2H54.83A1,1,0,0,1,55.82,44.19ZM45.72,25l7.45,15.55H21.37V31.94l7.19-12a1,1,0,0,1,1.65-.08l7.06,9.42,7-4.68A1,1,0,0,1,45.72,25Z"/></svg>