<svg id="Layer_1" data-name="Layer 1" xmlns="http://www.w3.org/2000/svg" viewBox="0 0 63.37 64"><defs><style>.cls-1{fill:#1b75bb;}.cls-2{fill:#fff;}</style></defs><title>Artboard 20</title><path class="cls-1" d="M55.86,63.76,4.22,48.66A5.86,5.86,0,0,1,1.81,38.8L40.71,1.63a5.86,5.86,0,0,1,9.74,2.84L63.19,56.75A5.86,5.86,0,0,1,55.86,63.76Z"/><path class="cls-2" d="M40.57,23.25H50.8V47.94a1.79,1.79,0,0,1-1.8,1.8H23.71a1.8,1.8,0,0,1-1.81-1.8V13a1.81,1.81,0,0,1,1.81-1.81h15V21.45A1.81,1.81,0,0,0,40.57,23.25ZM26.72,17.84a.6.6,0,0,0,.6.6h6a.6.6,0,0,0,.6-.6V16.63a.6.6,0,0,0-.6-.6h-6a.6.6,0,0,0-.6.6Zm.6,5.41h6a.6.6,0,0,0,.6-.6v-1.2a.6.6,0,0,0-.6-.6h-6a.6.6,0,0,0-.6.6v1.2A.6.6,0,0,0,27.32,23.25ZM40.77,39.12a3.42,3.42,0,0,0-2.38-3.27l-3.38-1a1,1,0,0,1-.66-1,.94.94,0,0,1,.88-1h2.12a1.73,1.73,0,0,1,1,.28.63.63,0,0,0,.77-.06l.88-.84a.6.6,0,0,0,0-.91,4.25,4.25,0,0,0-2.36-.86V28.67a.6.6,0,0,0-.61-.6h-1.2a.6.6,0,0,0-.6.6v1.82a3.35,3.35,0,0,0-3.21,3.39,3.41,3.41,0,0,0,2.37,3.27l3.39,1a1,1,0,0,1,.66,1,.94.94,0,0,1-.89,1H35.36a1.83,1.83,0,0,1-1-.28.62.62,0,0,0-.76.06l-.88.84a.59.59,0,0,0,0,.91,4.3,4.3,0,0,0,2.36.86v1.83a.6.6,0,0,0,.6.6H37a.6.6,0,0,0,.6-.6V42.51A3.35,3.35,0,0,0,40.77,39.12Zm10-18.73v.46H41.17V11.21h.46a1.81,1.81,0,0,1,1.28.53l7.37,7.38A1.8,1.8,0,0,1,50.8,20.39Z"/></svg>