<svg id="Layer_1" data-name="Layer 1" xmlns="http://www.w3.org/2000/svg" viewBox="0 0 64 64"><defs><style>.cls-1{fill:#faaf40;}</style></defs><title>Artboard 29</title><path class="cls-1" d="M64,48V60a4,4,0,0,1-4,4H4a4,4,0,0,1-4-4V48a4,4,0,0,1,4-4H8.05a30.55,30.55,0,0,0,9.12,8h-8A1.12,1.12,0,0,0,8,53v2a1.12,1.12,0,0,0,1.2,1H54.79A1.12,1.12,0,0,0,56,55V53a1.12,1.12,0,0,0-1.2-1h-8a30.35,30.35,0,0,0,9.13-8H60A4,4,0,0,1,64,48ZM6,26A26,26,0,1,1,32,52,26,26,0,0,1,6,26Zm15.84-6a7.84,7.84,0,0,0,5.46,7.51l7.79,2.34A2.24,2.24,0,0,1,36.6,32a2.17,2.17,0,0,1-2,2.29H29.7a4,4,0,0,1-2.22-.64,1.43,1.43,0,0,0-1.75.13l-2,1.94a1.4,1.4,0,0,0,.15,2.14,9.84,9.84,0,0,0,5.37,1.92v2.12A2.07,2.07,0,0,0,31.29,44h1.38a2.07,2.07,0,0,0,2.08-2.08V39.83A7.72,7.72,0,0,0,42.14,32a7.83,7.83,0,0,0-5.47-7.51l-7.78-2.34A2.24,2.24,0,0,1,27.38,20a2.17,2.17,0,0,1,2-2.29h4.86a4.05,4.05,0,0,1,2.23.64,1.43,1.43,0,0,0,1.75-.13l2-1.94a1.4,1.4,0,0,0-.15-2.13,9.8,9.8,0,0,0-5.38-1.93V10.08A2.06,2.06,0,0,0,32.69,8H31.3a2.06,2.06,0,0,0-2.07,2.08v2.09A7.73,7.73,0,0,0,21.84,20Z"/></svg>