<svg id="Layer_1" data-name="Layer 1" xmlns="http://www.w3.org/2000/svg" viewBox="0 0 64.06 64"><defs><style>.cls-1{fill:#12c2e9;}.cls-2{fill:#c471ed;}.cls-3{fill:#8bc53f;}</style></defs><title>Artboard 23</title><path class="cls-1" d="M59.9,16.29A32,32,0,0,0,14.69,5.12c-.22.13-.4.44-.76.3L14.25.26c-1.11,1-2,1.8-3,2.6a1,1,0,0,0-.37.75c-.12,2.07-.25,4.14-.41,6.22,0,.5.09.67.61.7,2,.1,4,.25,6,.38.25,0,.53.1.75-.09L21.08,8l-4.77-.32c.47-.31.73-.49,1-.65A28.58,28.58,0,0,1,37.1,3.51,29,29,0,0,1,60,39.35c-.57,2.11-.55,2.07,1.49,2.82.69.25.88,0,1.06-.57A31.28,31.28,0,0,0,59.9,16.29Z"/><path class="cls-2" d="M52.88,53.45c-2-.09-4-.25-5.93-.37-.26,0-.6-.07-.76.06-1,.87-2.06,1.78-3.23,2.8l4.79.34c-.57.35-.9.56-1.23.75A29,29,0,0,1,3.11,34.14l0-.62a31.64,31.64,0,0,1,1-8.88c.57-2.12.56-2.09-1.48-2.82-.68-.25-.88-.06-1.07.56a32,32,0,0,0,45.7,37.77c1-.52,1.89-1.1,2.93-1.71-.11,1.75-.21,3.4-.33,5.29L52.91,61a.8.8,0,0,0,.19-.63c.14-2,.26-4.08.42-6.12C53.56,53.7,53.46,53.48,52.88,53.45Z"/><path class="cls-3" d="M20.94,47.82a15.79,15.79,0,0,0,7.37,2.48l.39,0a2.67,2.67,0,0,0,1.37.16l.39,0a19.38,19.38,0,0,0,4.17,0,17.55,17.55,0,0,0,8.59-2.75c.32-.22.61-.43.6-.91,0-1.55,0-3.11-.11-4.66a5.8,5.8,0,0,0-1.92-4,6.46,6.46,0,0,0-2.93-1.91c-3.14-1.38-6.43-1.34-9.74-1A12.48,12.48,0,0,0,24,36.73a6.94,6.94,0,0,0-3.78,6.05c-.05,1.23,0,2.47-.05,3.7A1.36,1.36,0,0,0,20.94,47.82Z"/><path class="cls-3" d="M32,18.29A7.71,7.71,0,1,0,39.72,26,7.69,7.69,0,0,0,32,18.29Z"/><path class="cls-3" d="M9.48,42.36a21.67,21.67,0,0,0,8,1.83c1,.07,1.25-.2,1.28-1.16a8.72,8.72,0,0,1,5.75-8.25c.71-.3,1.44-.57,2.27-.9a26.18,26.18,0,0,1-2.32-2.65.86.86,0,0,0-.56-.36,17.6,17.6,0,0,0-12.28.45,6.28,6.28,0,0,0-4,6.25,9.28,9.28,0,0,1,0,1.75C7.32,40.93,8.15,41.73,9.48,42.36Z"/><path class="cls-3" d="M56.38,37.84A6.63,6.63,0,0,0,51.68,31a10.73,10.73,0,0,0-3.88-.81l-.59-.06-.52,0H45.47c-3.37-.17-6.34.52-8,3.84.92.38,1.9.73,2.83,1.19a8.64,8.64,0,0,1,5,7.45c.13,1.65.1,1.65,1.78,1.56a18.12,18.12,0,0,0,8-2.06,2,2,0,0,0,1.32-2.29A13.93,13.93,0,0,1,56.38,37.84Z"/><path class="cls-3" d="M41.6,27.86A7,7,0,0,0,52.43,20a7.2,7.2,0,0,0-7.17-4.77,6.88,6.88,0,0,0-5.93,4.28.89.89,0,0,0,.11,1.05,8.73,8.73,0,0,1,1.72,6.32A.92.92,0,0,0,41.6,27.86Z"/><path class="cls-3" d="M24.19,18.55a7,7,0,1,0-1.71,9.27.84.84,0,0,0,.4-.89A9.41,9.41,0,0,1,23,24h0a7.11,7.11,0,0,1,1.3-3,1.56,1.56,0,0,0,0-2.33A.53.53,0,0,0,24.19,18.55Z"/></svg>