<svg id="Layer_1" data-name="Layer 1" xmlns="http://www.w3.org/2000/svg" viewBox="0 0 64 64"><defs><style>.cls-1{fill:#8bc53f;}</style></defs><title>Artboard 16</title><path class="cls-1" d="M45.13,26.23a18.88,18.88,0,0,0-16.63,10L22,32.75a11.37,11.37,0,0,0-.67-9.7l10.14-7.38a8.87,8.87,0,1,0-2.3-3L19,20.13A11.38,11.38,0,1,0,20,36l7,3.7A18.87,18.87,0,1,0,45.13,26.23Zm-8-22.48A5.13,5.13,0,1,1,32,8.88,5.13,5.13,0,0,1,37.14,3.75ZM11.38,36.24A7.63,7.63,0,1,1,19,28.61,7.64,7.64,0,0,1,11.38,36.24ZM45.13,30A15.15,15.15,0,0,1,57.61,53.64a13.89,13.89,0,0,0-4.89-5.7,9,9,0,1,0-15.26-.12,13.79,13.79,0,0,0-5,5.61A15.15,15.15,0,0,1,45.13,30ZM39.87,43.12a5.26,5.26,0,1,1,5.26,5.25A5.27,5.27,0,0,1,39.87,43.12ZM35.28,56.59a10,10,0,0,1,4.84-6,9,9,0,0,0,9.89.07,10,10,0,0,1,4.76,6.09,15.07,15.07,0,0,1-19.49-.17Z"/></svg>