<svg id="Layer_1" data-name="Layer 1" xmlns="http://www.w3.org/2000/svg" viewBox="0 0 63.41 64"><defs><style>.cls-1{fill:#f6921e;}</style></defs><title>Artboard 13</title><path class="cls-1" d="M4.19,59C3.87,56.39,3.5,53.8,3,51.24a6.85,6.85,0,0,0-.3-2Q1.53,41.51.36,33.77A14.49,14.49,0,0,0,.13,32.3a3.15,3.15,0,0,1,1.19-3.52c1.73-.53,1.73-.53,1.37-2-.18-3.52.84-4.54,4.79-4.8h2c3.24,0,6.48.13,9.71,0A6.19,6.19,0,0,1,25,24.65a10.25,10.25,0,0,0,1,1.09A3.94,3.94,0,0,0,27,27,2.82,2.82,0,0,0,29.9,28.5c6.61-.08,13.22,0,19.83,0,2.4,0,3,.49,3.73,2.78.54,3.82,1,7.63,1.61,11.44.51,3.44,1.07,6.87,1.61,10.3.21,2.52.64,5,1.07,7.5a5,5,0,0,1-.31,2.16A3.67,3.67,0,0,1,54.26,64Q31.58,64,8.91,64c-2.56,0-3.49-.63-4.42-3A7.57,7.57,0,0,0,4.19,59Z"/><path class="cls-1" d="M49,25c-.25-2.27,0-4.54-.11-6.8,0-.49-.05-1-.08-1.47a7.64,7.64,0,0,0,0-2.48c.14-2.92.13-5.85,0-8.77a1.25,1.25,0,0,0,0-1c0-.24-.11-.25-.28-.23H24.22c-1.73,0-3.47,0-5.21-.06-.63,0-.76.24-.75.81,0,1.65,0,3.31.06,5v2.22c0,2-.06,3.91,0,5.87,0,.64-.08,1-.86.94-1.19-.09-2.77.38-3.49-.22s-.23-2.26-.24-3.45c0-4,0-7.92,0-11.87C13.71,1.06,14.79,0,17.22,0H49.71c2.39,0,3.35.94,3.35,3.31,0,6.74,0,13.49,0,20.24,0,1.23-.33,1.63-1.51,1.44a6.06,6.06,0,0,0-1.12,0Z"/><path class="cls-1" d="M56.31,29.25c-.13-1.44-.22-2.89-.4-4.33-.09-.7.14-.86.79-.84,1.58.06,3.15.05,4.73.07l.9.4a3.5,3.5,0,0,1,1,3.38c-.94,6.18-1.79,12.37-2.67,18.56a12.15,12.15,0,0,0-.44,3L59.72,52c-.42-.31-.15-.77-.41-1l-.84-6.17Z"/><path class="cls-1" d="M43.94,9.81c1,2.33,0,3.72-2.5,3.72H24.94a2.24,2.24,0,0,1-2.21-1.32A2.14,2.14,0,0,1,23,9.87,2.33,2.33,0,0,1,25,9c2.25,0,4.49,0,6.74,0h2.45L42.72,9Z"/><path class="cls-1" d="M37,17.33c1.53,0,3.07.09,4.6.06a3,3,0,0,1,2.36.87A5.13,5.13,0,0,1,44.42,20a3,3,0,0,1-1.7,2l-2.5.05H29.15a4.1,4.1,0,0,1-3.86-1.41,3.9,3.9,0,0,0-2.05-1.14c-.83-.22-.68-.6-.3-1.14a2.42,2.42,0,0,1,2.17-1c3.12,0,6.24,0,9.35-.07A8.19,8.19,0,0,0,37,17.33Z"/></svg>