<svg id="Layer_1" data-name="Layer 1" xmlns="http://www.w3.org/2000/svg" viewBox="0 0 72.5 64"><defs><style>.cls-1{fill:#f05a28;}.cls-2{fill:#fff;}</style></defs><title>Artboard 18</title><path class="cls-1" d="M52.1,0H20.39a4.55,4.55,0,0,0-3.93,2.27L.61,29.73a4.54,4.54,0,0,0,0,4.54L16.46,61.73A4.55,4.55,0,0,0,20.39,64H52.1A4.55,4.55,0,0,0,56,61.73L71.89,34.27a4.54,4.54,0,0,0,0-4.54L56,2.27A4.55,4.55,0,0,0,52.1,0Z"/><path class="cls-2" d="M20.5,39.79h-5A2.45,2.45,0,0,1,13,37.34V34.89a4.91,4.91,0,0,1,4.9-4.9h4.9a4.9,4.9,0,0,1,3.45,1.43A11.22,11.22,0,0,0,20.5,39.79Zm-5-17.14a4.9,4.9,0,1,1,4.9,4.9A4.91,4.91,0,0,1,15.46,22.65ZM45.55,45.58A2.94,2.94,0,0,0,46,47.13H26.48a3.67,3.67,0,0,1-3.67-3.67v-2.2a8.82,8.82,0,0,1,8.82-8.82h.63a12,12,0,0,0,5.25,1.23c.25,0,.49,0,.75-.05a2.86,2.86,0,0,0,.75.62l.6.35q0,.3,0,.6c-.07.05-2.79,1.21-2,3.85a13.8,13.8,0,0,0,3.07,5.32,3,3,0,0,0,2.21,1A3.77,3.77,0,0,0,45,44.58c.17.1.34.21.52.3ZM28.93,21.43a8.57,8.57,0,1,1,17.13,0,8.44,8.44,0,0,1-.86,3.68l-.18.1-.6-.35a3,3,0,0,0-1.5-.4,3,3,0,0,0-2.22,1A14.18,14.18,0,0,0,37.93,30c-.15,0-.29,0-.43,0A8.56,8.56,0,0,1,28.93,21.43ZM61.7,37.66a.56.56,0,0,1,.25.65,11.43,11.43,0,0,1-2.54,4.39.55.55,0,0,1-.69.11l-2-1.14a9,9,0,0,1-2.82,1.63v2.28a.56.56,0,0,1-.44.54,11.41,11.41,0,0,1-5.07,0,.55.55,0,0,1-.43-.54V43.3a9.2,9.2,0,0,1-2.83-1.63l-2,1.14a.55.55,0,0,1-.69-.11A11.43,11.43,0,0,1,40,38.31a.56.56,0,0,1,.25-.65l2-1.14a8.93,8.93,0,0,1,0-3.26l-2-1.14a.57.57,0,0,1-.25-.65,11.43,11.43,0,0,1,2.54-4.39.57.57,0,0,1,.69-.11l2,1.14A9.2,9.2,0,0,1,48,26.48V24.2a.55.55,0,0,1,.43-.54,11.56,11.56,0,0,1,5.07,0,.56.56,0,0,1,.44.54v2.28a9,9,0,0,1,2.82,1.63l2-1.14a.56.56,0,0,1,.69.11A11.43,11.43,0,0,1,62,31.47a.55.55,0,0,1-.25.65l-2,1.14a9.39,9.39,0,0,1,0,3.26Zm-7-2.77A3.72,3.72,0,1,0,51,38.6,3.72,3.72,0,0,0,54.68,34.89Z"/></svg>