<svg id="Layer_1" data-name="Layer 1" xmlns="http://www.w3.org/2000/svg" viewBox="0 0 64 64"><defs><style>.cls-1{fill:#f54394;}.cls-2{fill:#fff;}</style></defs><title>Artboard 6</title><rect class="cls-1" width="64" height="64" rx="32"/><circle class="cls-2" cx="32" cy="32" r="1.5"/><path class="cls-2" d="M50.54,34.78l.19-1.28H54.5v-3H50.73l-.19-1.28A18.84,18.84,0,0,0,34.78,13.46l-1.28-.2V9.5h-3v3.76l-1.28.2A18.86,18.86,0,0,0,13.45,29.22l-.18,1.28H9.5v3h3.77l.18,1.28A18.86,18.86,0,0,0,29.22,50.54l1.28.19V54.5h3V50.73l1.28-.19A18.84,18.84,0,0,0,50.54,34.78ZM35.31,47.4l-1.81.39V42.5h-3v5.29l-1.81-.39A15.71,15.71,0,0,1,16.6,35.31l-.39-1.81H21.5v-3H16.21l.39-1.81A15.71,15.71,0,0,1,28.69,16.6l1.81-.39V21.5h3V16.21l1.81.39A15.71,15.71,0,0,1,47.4,28.69l.39,1.81H42.5v3h5.29l-.39,1.81A15.71,15.71,0,0,1,35.31,47.4Z"/></svg>