<svg id="Layer_1" data-name="Layer 1" xmlns="http://www.w3.org/2000/svg" viewBox="0 0 64.59 64"><defs><style>.cls-1{fill:#243747;}.cls-2{fill:#b1d33b;}</style></defs><title>Artboard 27</title><path class="cls-1" d="M64.59,64C57,64,49.72,64,42.42,64a.94.94,0,0,1-.92-.6c-.93-1.78-1.84-3.58-2.85-5.32-.44-.75,0-1.15.32-1.66a22.62,22.62,0,0,0-4.23-29.69,23.22,23.22,0,0,0-10.27-5c0-.45.4-.54.65-.74,5-3.95,10-7.92,15-11.82.8-.62.85-1,.21-1.75C38.37,5,36.53,2.64,34.46,0h6C48.06,0,55.68,0,63.3,0c.91,0,1.33,0,1,1.19-2.24,9-4.39,18-6.58,27-.06.25-.17.49-.31.89-2-2.52-3.94-4.91-5.8-7.37-.58-.77-1-.74-1.65-.17q-3.84,3.15-7.8,6.17c-.75.57-.75.93-.26,1.68q10.74,16.34,21.43,32.7Z"/><path class="cls-2" d="M19.92,64A20,20,0,1,1,40,44.37C40,55.11,30.91,64,19.92,64Zm0-5.19c1.37.37,1.7-.3,1.53-1.48,0-.17,0-.36,0-.53-.22-1.23.28-1.74,1.51-2.11a6.28,6.28,0,0,0,1.31-11.56,24.55,24.55,0,0,0-3-1.4,11.07,11.07,0,0,1-3-1.55,2.28,2.28,0,0,1,.64-4.07,5.39,5.39,0,0,1,2.64-.29,11.51,11.51,0,0,1,3.37.85c.4.18.68.32,1-.24,1.18-2.41.91-3-1.7-3.61a5.08,5.08,0,0,0-1.32-.23c-1,.06-1.4-.35-1.25-1.34,0-.3,0-.63,0-.94.24-1.4-.71-1.19-1.56-1.23s-1.63.06-1.4,1.26c.32,1.64-.24,2.48-2,3a5.42,5.42,0,0,0-3.87,5.15,5.48,5.48,0,0,0,2.86,5.25A17,17,0,0,0,19,45.34a13.7,13.7,0,0,1,2.42,1.14,2.82,2.82,0,0,1,1.49,3,2.73,2.73,0,0,1-2.41,2.21,8.76,8.76,0,0,1-5.13-.53c-2-.68-1.89-.68-2.54,1.26-.35,1-.16,1.56.89,1.9a9.32,9.32,0,0,0,2.84.74c1.51,0,2,.67,1.8,2.12C18.19,58.36,18.38,59.27,19.88,58.79Z"/></svg>