<svg id="Layer_1" data-name="Layer 1" xmlns="http://www.w3.org/2000/svg" viewBox="0 0 64 64"><defs><style>.cls-1{fill:#8a5d3b;}.cls-2{fill:#fff;}</style></defs><title>Artboard 26</title><rect class="cls-1" width="64" height="64" rx="32"/><path class="cls-2" d="M53.42,23.66V46.6a.54.54,0,0,1-.53.54H47.53A.54.54,0,0,1,47,46.6V30a2.17,2.17,0,0,0-2.19-2.14H19.19A2.17,2.17,0,0,0,17,30V46.6a.54.54,0,0,1-.53.54H11.11a.54.54,0,0,1-.53-.54V23.66a3.22,3.22,0,0,1,2-3l18.21-7.58A3.19,3.19,0,0,1,32,12.86a3.14,3.14,0,0,1,1.23.25l18.22,7.58A3.22,3.22,0,0,1,53.42,23.66ZM44.85,43.39V46.6a.54.54,0,0,1-.53.54H19.68a.54.54,0,0,1-.53-.54V43.39a.54.54,0,0,1,.54-.54H44.32A.54.54,0,0,1,44.85,43.39Zm0-6.43v3.21a.54.54,0,0,1-.53.54H19.7a.54.54,0,0,1-.53-.54V37a.54.54,0,0,1,.54-.53H44.32A.53.53,0,0,1,44.85,37Zm0-6.43v3.22a.53.53,0,0,1-.53.53H19.72a.54.54,0,0,1-.54-.53V30.53a.53.53,0,0,1,.53-.53h24.6A.53.53,0,0,1,44.85,30.53Z"/></svg>