<svg id="Layer_1" data-name="Layer 1" xmlns="http://www.w3.org/2000/svg" viewBox="0 0 68 63.21"><defs><style>.cls-1{fill:#f05a28;}.cls-2{fill:#fff;}</style></defs><title>Artboard 21</title><rect class="cls-1" x="3.57" y="2.78" width="56.87" height="56.87" rx="6.31" transform="translate(4.49 -4.02) rotate(7.73)"/><path class="cls-2" d="M26.37,30.59a1.75,1.75,0,0,1,.07.51A1.89,1.89,0,0,1,24.55,33H21.61a1.89,1.89,0,0,1-1.82-1.39l-1.41-4.28H8.06L6.65,31.6A1.89,1.89,0,0,1,4.83,33H1.89A1.89,1.89,0,0,1,0,31.1a1.75,1.75,0,0,1,.07-.51L8.13,5.39a3.78,3.78,0,0,1,3.6-2.62h3a3.78,3.78,0,0,1,3.6,2.62ZM15.89,19.77l-2.67-8.11-2.67,8.11ZM67.45,35.41a1.88,1.88,0,0,1,0,2.66L42.9,62.65a1.87,1.87,0,0,1-1.34.56,1.84,1.84,0,0,1-1.33-.56L27,49.41a1.92,1.92,0,0,1-.55-1.34A1.87,1.87,0,0,1,27,46.74l5.34-5.35a1.91,1.91,0,0,1,1.34-.56,1.88,1.88,0,0,1,1.33.56l6.54,6.55L59.45,30.06a1.86,1.86,0,0,1,2.66,0l5.34,5.35ZM30.22,31.1V4.66a1.89,1.89,0,0,1,1.89-1.89H41c5,0,9.55,3.61,10,8.58a8.43,8.43,0,0,1,0,.87,9.44,9.44,0,0,1-1.1,4.43,9.35,9.35,0,0,1,3,6.88c0,.19,0,.38,0,.56-.29,5.1-4.88,8.9-10,8.9H32.11A1.89,1.89,0,0,1,30.22,31.1ZM36.83,15h4.72a2.83,2.83,0,1,0,0-5.66H36.83Zm0,11.34h6.61a2.84,2.84,0,1,0,0-5.67H36.83Z"/></svg>