<svg id="Layer_1" data-name="Layer 1" xmlns="http://www.w3.org/2000/svg" viewBox="0 0 64 64"><defs><style>.cls-1{fill:#558e13;}.cls-2{fill:#fff;}</style></defs><title>Artboard 17</title><rect class="cls-1" width="64" height="64" rx="32"/><path class="cls-2" d="M20.55,39.16V46a2.29,2.29,0,0,1-2.29,2.29H11.39A2.3,2.3,0,0,1,9.1,46V39.16a2.29,2.29,0,0,1,2.29-2.29h6.87A2.28,2.28,0,0,1,20.55,39.16Zm-4-4.58H13.11V30.46a2.75,2.75,0,0,1,2.75-2.75H30.28V23.13H27.42a2.29,2.29,0,0,1-2.29-2.29V14a2.3,2.3,0,0,1,2.29-2.29h9.16A2.3,2.3,0,0,1,38.87,14v6.87a2.29,2.29,0,0,1-2.29,2.29H33.72v4.58H48.14a2.75,2.75,0,0,1,2.75,2.75v4.12H47.46V31.14H33.72v3.44H30.28V31.14H16.54Zm21.18,4.58V46a2.29,2.29,0,0,1-2.29,2.29H28.57A2.29,2.29,0,0,1,26.28,46V39.16a2.28,2.28,0,0,1,2.29-2.29h6.86A2.28,2.28,0,0,1,37.72,39.16Zm17.18,0V46a2.3,2.3,0,0,1-2.29,2.29H45.74A2.29,2.29,0,0,1,43.45,46V39.16a2.28,2.28,0,0,1,2.29-2.29h6.87A2.29,2.29,0,0,1,54.9,39.16Z"/></svg>