<svg id="Layer_1" data-name="Layer 1" xmlns="http://www.w3.org/2000/svg" viewBox="0 0 64 64"><defs><style>.cls-1{fill:#12c2e9;}.cls-2{fill:#c138c1;}</style></defs><title>Artboard 25</title><path class="cls-1" d="M46.67,34.67A17.34,17.34,0,1,1,64,17.33,17.36,17.36,0,0,1,46.67,34.67Zm0-32A14.67,14.67,0,1,0,61.33,17.33,14.68,14.68,0,0,0,46.67,2.67Z"/><path class="cls-1" d="M44,24a1.33,1.33,0,0,1-.94-.39l-5.34-5.33a1.34,1.34,0,0,1,1.89-1.89l4.32,4.33,8.4-9.6a1.33,1.33,0,1,1,2,1.76L45,23.55a1.34,1.34,0,0,1-1,.45Z"/><path class="cls-2" d="M52,45.33H17.33A1.32,1.32,0,0,1,16,44.26L10.69,17.59A1.34,1.34,0,0,1,12,16H22.67a1.34,1.34,0,0,1,0,2.67h-9l4.8,24H50.91l.74-3.7a1.34,1.34,0,0,1,1.56-1,1.32,1.32,0,0,1,1,1.57l-.95,4.76A1.34,1.34,0,0,1,52,45.33Z"/><path class="cls-2" d="M17.33,45.33A1.32,1.32,0,0,1,16,44.26l-6.61-33A4,4,0,0,0,5.49,8H1.33a1.34,1.34,0,0,1,0-2.67H5.49A6.68,6.68,0,0,1,12,10.69l6.61,33.05a1.33,1.33,0,0,1-1.05,1.57,1.1,1.1,0,0,1-.26,0Z"/><path class="cls-2" d="M57.33,50.67H12a4,4,0,0,1,0-8h5.33a1.33,1.33,0,1,1,0,2.66H12A1.34,1.34,0,0,0,12,48H57.33a1.34,1.34,0,1,1,0,2.67Z"/><path class="cls-2" d="M21.33,64a5.34,5.34,0,1,1,5.34-5.33A5.33,5.33,0,0,1,21.33,64Zm0-8A2.67,2.67,0,1,0,24,58.67,2.67,2.67,0,0,0,21.33,56Z"/><path class="cls-2" d="M45.33,64a5.34,5.34,0,1,1,5.34-5.33A5.33,5.33,0,0,1,45.33,64Zm0-8A2.67,2.67,0,1,0,48,58.67,2.67,2.67,0,0,0,45.33,56Z"/></svg>