<svg id="Layer_1" data-name="Layer 1" xmlns="http://www.w3.org/2000/svg" viewBox="0 0 64 64"><defs><style>.cls-1{fill:#00adee;}.cls-2{fill:#fff;}</style></defs><title>Artboard 15</title><rect class="cls-1" width="64" height="64" rx="32"/><path class="cls-2" d="M45.35,25.32v4.45h1.39a.85.85,0,0,1,.84.84v2.78a.85.85,0,0,1-.84.84H45.35v4.45h1.39a.84.84,0,0,1,.84.83v2.78a.85.85,0,0,1-.84.84H45.35v3.33A3.33,3.33,0,0,1,42,49.8H19.76a3.34,3.34,0,0,1-3.34-3.34V17.54a3.34,3.34,0,0,1,3.34-3.34H42a3.33,3.33,0,0,1,3.34,3.34v3.33h1.39a.85.85,0,0,1,.84.84v2.78a.84.84,0,0,1-.84.83ZM38.68,38.23c0-2.21-2.1-4-4.68-4h-.34a7.25,7.25,0,0,1-5.54,0h-.35c-2.58,0-4.67,1.79-4.67,4v1.34a1.46,1.46,0,0,0,1.56,1.33H37.12a1.46,1.46,0,0,0,1.56-1.33ZM26.44,27.55a4.45,4.45,0,1,0,4.45-4.45A4.45,4.45,0,0,0,26.44,27.55Z"/></svg>