<svg id="Layer_1" data-name="Layer 1" xmlns="http://www.w3.org/2000/svg" viewBox="0 0 60 64"><defs><style>.cls-1{fill:#90278e;}</style></defs><title>Artboard 10</title><path class="cls-1" d="M0,39.17V18.82a.5.5,0,0,1,.76-.43l9.58,5.75L.93,39.43A.5.5,0,0,1,0,39.17ZM26.92,50.64l-26-2.75a1,1,0,0,1-.74-1.52L13.34,26.88ZM2.56,52,28,54.79V63a1,1,0,0,1-1.42.91L2.28,53A.5.5,0,0,1,2.56,52ZM2.24,14.64a.5.5,0,0,1,0-.85L21.08,1.47a1,1,0,0,1,1.34,1.39l-10,17.87ZM16.35,22l12-21a2,2,0,0,1,3.4,0L43.65,22H16.35Zm26.2,4L30,48,17.45,26h25.1ZM57.72,53l-24.3,11A1,1,0,0,1,32,63V54.79L57.44,52A.5.5,0,0,1,57.72,53Zm2.13-6.58a1,1,0,0,1-.74,1.52l-26,2.75L46.66,26.88ZM37.57,2.86a1,1,0,0,1,1.35-1.39L57.77,13.79a.5.5,0,0,1,0,.85L47.57,20.73ZM60,18.82V39.17a.5.5,0,0,1-.93.26L49.66,24.14l9.58-5.75A.5.5,0,0,1,60,18.82Z"/></svg>