<svg id="Layer_1" data-name="Layer 1" xmlns="http://www.w3.org/2000/svg" viewBox="0 0 64 64"><defs><style>.cls-1{fill:#1b2656;}.cls-2{fill:#fff;}</style></defs><title>Artboard 31</title><rect class="cls-1" width="64" height="64" rx="32"/><path class="cls-2" d="M22.24,11.77,16.5,25H8.12l7.5-13.27ZM16.47,27.69l10.2,20.88a.25.25,0,0,1-.42.27L8.12,27.69Zm27.12,0L32.23,54.08a.24.24,0,0,1-.45,0L20.41,27.69ZM43.5,25h-23l5.74-13.27H37.76Zm4,2.65h8.35L37.75,48.83a.25.25,0,0,1-.42-.26ZM55.88,25H47.5L41.76,11.77h6.62Z"/></svg>