<svg id="Layer_1" data-name="Layer 1" xmlns="http://www.w3.org/2000/svg" viewBox="0 0 72.5 64"><defs><style>.cls-1{fill:#00a69c;}.cls-2{fill:#fff;}</style></defs><title>Artboard 8</title><path class="cls-1" d="M52.1,0H20.39a4.55,4.55,0,0,0-3.93,2.27L.61,29.73a4.54,4.54,0,0,0,0,4.54L16.46,61.73A4.55,4.55,0,0,0,20.39,64H52.1A4.55,4.55,0,0,0,56,61.73L71.89,34.27a4.54,4.54,0,0,0,0-4.54L56,2.27A4.55,4.55,0,0,0,52.1,0Z"/><path class="cls-2" d="M40.35,44a18.42,18.42,0,0,0,3.87-1,1,1,0,0,1,1.05.14c.94.73,1.91,1.41,2.95,2.17A25.54,25.54,0,0,1,43.47,47c-6.78,1.77-13.22.69-19.41-2.41A48.76,48.76,0,0,1,10.17,34.06c-1-1.12-1-2,0-3.09,5.36-5.7,11.52-10.19,19-12.63A28.7,28.7,0,0,1,36,17.15h1.54C46.63,17.6,53.87,22,60.47,27.8a39,39,0,0,1,3.35,3.33,1.84,1.84,0,0,1,0,2.75,50.33,50.33,0,0,1-8.15,7.21.51.51,0,0,1-.73,0c-.83-.64-1.69-1.25-2.54-1.87.13-.28.39-.36.6-.5a49,49,0,0,0,7.08-5.84c.28-.27.32-.42,0-.72a39.69,39.69,0,0,0-19.06-11,15.29,15.29,0,0,0-4.91-.38,18.72,18.72,0,0,0-6.53,1.31A40.24,40.24,0,0,0,13.69,32.21c-.29.29-.19.43,0,.66a40.9,40.9,0,0,0,15.06,9.86,22.74,22.74,0,0,0,7.36,1.6A14.13,14.13,0,0,0,40.35,44Z"/><path class="cls-2" d="M35.22,22.44a12.22,12.22,0,0,1,4.22.22A10.16,10.16,0,0,1,47,31.2c0,.12.07.24.1.37l0,.77A11.22,11.22,0,0,1,46,37.1c-.15.27-.08.41.15.57l1.38,1c.11.08.23.2.41.08.61-.39,1.06,0,1.53.3l8.38,6c.74.52.85.89.46,1.69A5.12,5.12,0,0,1,57,48.37a1.21,1.21,0,0,1-1.67,0c-2.83-2-5.7-4.07-8.57-6.08-.42-.3-.77-.6-.61-1.2s-.33-.53-.57-.71c-1.15-.85-1.16-.84-2.26.05l-.65.53L40.48,42.1l-1.4.41a18.55,18.55,0,0,1-3.24.19c-.15,0-.29-.09-.44-.12a10.19,10.19,0,0,1-8.34-7.53,10.7,10.7,0,0,1,.61-6.88l.32-.61.45-.72.17-.26.55-.7.38-.41L31,24.18l.49-.33.73-.4A17.62,17.62,0,0,1,35.22,22.44ZM36.85,39.9a7.37,7.37,0,1,0-7.3-7.39A7.42,7.42,0,0,0,36.85,39.9Z"/><path class="cls-2" d="M40.51,32.56A3.59,3.59,0,1,1,37,28.93,3.54,3.54,0,0,1,40.51,32.56Z"/></svg>