<svg id="Layer_1" data-name="Layer 1" xmlns="http://www.w3.org/2000/svg" viewBox="0 0 64 64"><defs><style>.cls-1{fill:#f54394;}.cls-2{fill:#fff;}.cls-3{fill:#fdd7ad;}.cls-4{fill:#f9c795;}</style></defs><title>Artboard 24</title><g id="Page-1"><g id="_002---Sell-Button" data-name="002---Sell-Button"><path id="Shape" class="cls-1" d="M34.15,28.69H60.69A3.31,3.31,0,0,0,64,25.38V3.31A3.31,3.31,0,0,0,60.69,0H3.31A3.31,3.31,0,0,0,0,3.31V25.38a3.31,3.31,0,0,0,3.31,3.31Z"/><path id="Shape-2" data-name="Shape" class="cls-2" d="M11,6.62c2.44,0,4.42,1.49,4.42,3.31a1.11,1.11,0,0,0,2.21,0c0-3-3-5.52-6.63-5.52S4.41,6.89,4.41,9.93s3,5.52,6.62,5.52c2.44,0,4.42,1.48,4.42,3.31s-2,3.31-4.42,3.31-4.41-1.49-4.41-3.31a1.11,1.11,0,0,0-2.21,0c0,3,3,5.52,6.62,5.52s6.63-2.48,6.63-5.52-3-5.52-6.63-5.52c-2.43,0-4.41-1.48-4.41-3.31S8.6,6.62,11,6.62Z"/><path id="Shape-3" data-name="Shape" class="cls-2" d="M30.9,6.62a1.11,1.11,0,0,0,0-2.21H22.07A1.11,1.11,0,0,0,21,5.52V23.17a1.11,1.11,0,0,0,1.1,1.11H30.9a1.11,1.11,0,0,0,0-2.21H23.17V15.45h6.62a1.11,1.11,0,1,0,0-2.21H23.17V6.62Z"/><path id="Shape-4" data-name="Shape" class="cls-2" d="M45.24,22.07H37.52V5.52a1.11,1.11,0,1,0-2.21,0V23.17a1.11,1.11,0,0,0,1.1,1.11h8.83a1.11,1.11,0,0,0,0-2.21Z"/><path id="Shape-5" data-name="Shape" class="cls-2" d="M59.59,22.07H51.86V5.52a1.1,1.1,0,1,0-2.2,0V23.17a1.11,1.11,0,0,0,1.1,1.11h8.83a1.11,1.11,0,0,0,0-2.21Z"/><path id="Shape-6" data-name="Shape" class="cls-3" d="M50.76,44.69V58.48A5.52,5.52,0,0,1,45.24,64H33.1a4.41,4.41,0,0,1-3.36-1.56h0a3.48,3.48,0,0,1-.51-.74,18.07,18.07,0,0,0-3.06-4.26A72.76,72.76,0,0,0,19.1,51.5a3.49,3.49,0,0,1,3.73-5.88l5.86,2.93V29.24a2.76,2.76,0,0,1,5.52,0v8.83a2.76,2.76,0,1,1,5.51,0v3.31a2.76,2.76,0,0,1,5.52,0v3.31a2.76,2.76,0,0,1,5.52,0Z"/><path id="Shape-7" data-name="Shape" class="cls-4" d="M36.41,35.37v11a1.1,1.1,0,1,1-2.2,0V38.07A2.75,2.75,0,0,1,36.41,35.37Z"/><path id="Shape-8" data-name="Shape" class="cls-4" d="M41.93,38.68v7.66a1.11,1.11,0,1,1-2.21,0v-5A2.76,2.76,0,0,1,41.93,38.68Z"/><path id="Shape-9" data-name="Shape" class="cls-4" d="M47.45,42v5.46a1.11,1.11,0,0,1-2.21,0V44.69A2.75,2.75,0,0,1,47.45,42Z"/></g></g></svg>