<svg id="Layer_1" data-name="Layer 1" xmlns="http://www.w3.org/2000/svg" viewBox="0 0 64 64"><defs><style>.cls-1{fill:#12c2e9;}.cls-2{fill:#f54394;}</style></defs><title>Artboard 7</title><g id="Analysis-report-document-develop-infromation"><path class="cls-1" d="M27.43,5.75V26.29H48A21.73,21.73,0,0,0,27.43,5.75Z"/><path class="cls-2" d="M43.4,33.14H22.18l-15,15a21.68,21.68,0,0,0,36.19-15Z"/><path class="cls-2" d="M20.57,10.32A21.67,21.67,0,0,0,5.6,46.5l15-15Z"/><path class="cls-1" d="M54.86,10.29h7.53L53.72,1.61V9.14A1.15,1.15,0,0,0,54.86,10.29Z"/><path class="cls-2" d="M51.43,43.43a8,8,0,1,0,8,8A8,8,0,0,0,51.43,43.43ZM50,55.67a1.15,1.15,0,0,1-1.61,0l-3.43-3.43,1.61-1.62,2.62,2.62,6-6.05,1.62,1.62Z"/><path class="cls-1" d="M54.86,12.57a3.44,3.44,0,0,1-3.43-3.43V0H24a1.14,1.14,0,0,0-1.14,1.14V30.86H44.57A1.15,1.15,0,0,1,45.72,32,24,24,0,0,1,22.86,55.94v6.92A1.14,1.14,0,0,0,24,64H62.86A1.14,1.14,0,0,0,64,62.86V12.57Zm-28.57,16a1.15,1.15,0,0,1-1.15-1.14V4.57a1.15,1.15,0,0,1,1.15-1.14,24,24,0,0,1,24,24,1.15,1.15,0,0,1-1.15,1.14ZM51.43,61.71A10.29,10.29,0,1,1,61.72,51.43,10.29,10.29,0,0,1,51.43,61.71ZM61.72,33.14H52.57V30.86h9.15Zm0-6.85H52.57V24h9.15Zm0-6.86H52.57V17.14h9.15Z"/></g></svg>