<svg id="Layer_1" data-name="Layer 1" xmlns="http://www.w3.org/2000/svg" viewBox="0 0 63.37 64"><defs><style>.cls-1{fill:#eb008b;}.cls-2{fill:#fff;}</style></defs><title>Artboard 28</title><path class="cls-1" d="M55.86,63.76,4.22,48.66A5.86,5.86,0,0,1,1.81,38.8L40.71,1.63a5.86,5.86,0,0,1,9.74,2.84L63.19,56.75A5.86,5.86,0,0,1,55.86,63.76Z"/><path class="cls-2" d="M36.2,42.47a7.81,7.81,0,1,1-15.61,0V11.26a2.61,2.61,0,0,1,2.6-2.61H33.6a2.61,2.61,0,0,1,2.6,2.61ZM31,13.86H25.79v5.2H31Zm0,10.4H25.79v5.21H31Zm-.66,18.21a2,2,0,1,0-1.95,2A2,2,0,0,0,30.34,42.47Zm31.87-5.2V47.68a2.6,2.6,0,0,1-2.6,2.6H35.22c.18-.16.38-.28.55-.45L50.92,34.67h8.69A2.6,2.6,0,0,1,62.21,37.27ZM56.69,24.13A2.59,2.59,0,0,1,55.93,26L38.8,43.12v-22l6.13-6.14h0a2.56,2.56,0,0,1,1.82-.76,2.59,2.59,0,0,1,1.84.76l7.33,7.35A2.59,2.59,0,0,1,56.69,24.13Z"/></svg>