<svg id="Layer_1" data-name="Layer 1" xmlns="http://www.w3.org/2000/svg" viewBox="0 0 72.5 64"><defs><style>.cls-1{fill:#8bc53f;}.cls-2{fill:#fff;}</style></defs><title>Artboard 12</title><path class="cls-1" d="M52.1,0H20.39a4.55,4.55,0,0,0-3.93,2.27L.61,29.73a4.54,4.54,0,0,0,0,4.54L16.46,61.73A4.55,4.55,0,0,0,20.39,64H52.1A4.55,4.55,0,0,0,56,61.73L71.89,34.27a4.54,4.54,0,0,0,0-4.54L56,2.27A4.55,4.55,0,0,0,52.1,0Z"/><path class="cls-2" d="M38.19,48.19H48.62v3.26a2,2,0,0,1-1.95,2H19.28a2,2,0,0,1-2-2V13.64a2,2,0,0,1,2-2h16.3V22.77a2,2,0,0,0,2,2H48.62v3.79L38.19,38.88v6.69a.91.91,0,0,1-.76-.51,3.66,3.66,0,0,0-5.38-1.15l-1.13-3.4a2,2,0,0,0-3.71,0L25.72,45a.9.9,0,0,1-.86.62h-1a1.31,1.31,0,1,0,0,2.61h1a3.53,3.53,0,0,0,3.34-2.41l.86-2.59,1.37,4.11a1.31,1.31,0,0,0,2.41.17l.62-1.25a.92.92,0,0,1,1.65,0A3.48,3.48,0,0,0,38.19,48.19ZM48.62,22.12H38.19V11.69h.5a1.92,1.92,0,0,1,1.38.57l8,8a2,2,0,0,1,.57,1.38Zm5.45,4.67,5.53,5.54L46.42,45.59H40.8V40Zm9.6,1.47-2.23,2.22L55.91,25l2.22-2.22a2.08,2.08,0,0,1,2.94,0l2.6,2.6A2.07,2.07,0,0,1,63.67,28.26Z"/></svg>