<svg id="Layer_1" data-name="Layer 1" xmlns="http://www.w3.org/2000/svg" viewBox="0 0 63.37 64"><defs><style>.cls-1{fill:#288fc9;}.cls-2{fill:#fff;}</style></defs><title>Artboard 30</title><path class="cls-1" d="M55.86,63.76,4.22,48.66A5.86,5.86,0,0,1,1.81,38.8L40.71,1.63a5.86,5.86,0,0,1,9.74,2.84L63.19,56.75A5.86,5.86,0,0,1,55.86,63.76Z"/><path class="cls-2" d="M57.69,25.46,31.63,51.53a2.31,2.31,0,0,1-3.25,0l-6.09-6.09a2.29,2.29,0,0,1,0-3.25L48.35,16.12a2.31,2.31,0,0,1,3.25,0l6.09,6.09A2.29,2.29,0,0,1,57.69,25.46ZM25.44,23.11l-3.83-1.92,3.83-1.91,1.92-3.83,1.91,3.83,3.83,1.91-3.83,1.92-1.91,3.82ZM36.54,20,34.25,18.9l2.29-1.15,1.15-2.3,1.15,2.3,2.3,1.15L38.84,20l-1.15,2.3Zm17.09,3.8L50,20.18,43.76,26.4l3.65,3.65ZM54.54,40l3.82,1.91-3.82,1.92-1.92,3.83-1.91-3.83-3.83-1.92L50.71,40l1.91-3.83Z"/></svg>