<svg id="Layer_1" data-name="Layer 1" xmlns="http://www.w3.org/2000/svg" viewBox="0 0 64.18 64"><defs><style>.cls-1{fill:#29b473;}.cls-2{fill:#fff;}</style></defs><title>Artboard 19</title><polygon class="cls-1" points="52.47 57.32 44.66 58.94 38.5 64 30.84 61.8 23.03 63.42 17.27 57.91 9.6 55.72 7.05 48.16 1.29 42.66 2.55 34.78 0 27.23 4.77 20.84 6.03 12.96 13.22 9.53 17.99 3.14 25.96 3.44 33.15 0 40.07 3.97 48.04 4.26 52.32 10.99 59.23 14.96 59.9 22.9 64.18 29.63 61.07 36.98 61.74 44.92 55.58 49.98 52.47 57.32"/><path class="cls-2" d="M50.84,24.35a2.11,2.11,0,0,1-2.94-.52,19.22,19.22,0,0,0-15.38-8.14,17.84,17.84,0,0,0-13,5.19,16.82,16.82,0,0,0-5,12.25l0,2.08a2.11,2.11,0,0,1-2.11,2h-.06a2.11,2.11,0,0,1-2-2.18V33.19a21,21,0,0,1,6.19-15.3,22.05,22.05,0,0,1,16.07-6.42,23.41,23.41,0,0,1,18.78,9.94A2.11,2.11,0,0,1,50.84,24.35ZM23.35,27.16a10.89,10.89,0,0,0-2.47,7.14A54.65,54.65,0,0,1,20,45a2.11,2.11,0,0,1-4.16-.76,50.92,50.92,0,0,0,.81-9.87,15.23,15.23,0,0,1,3.41-9.86,2.11,2.11,0,0,1,3.28,2.66ZM42,35a75,75,0,0,1-1,13.4,2.11,2.11,0,0,1-4.17-.69,70.32,70.32,0,0,0,.94-12.64,5.1,5.1,0,0,0-5.08-4.89,4.59,4.59,0,0,0-4.79,4.61,62.1,62.1,0,0,1-1.27,13.48,2.11,2.11,0,0,1-4.14-.85,58.07,58.07,0,0,0,1.18-12.56,8.81,8.81,0,0,1,9.08-8.91A9.37,9.37,0,0,1,42,35Zm7.05-.26c0,.43,0,.75,0,1.18a83.05,83.05,0,0,1-.53,9.38,2.11,2.11,0,0,1-4.2-.49,77.68,77.68,0,0,0,.49-10A12.44,12.44,0,0,0,29.63,23.25a2.11,2.11,0,1,1-1-4.11,15.27,15.27,0,0,1,4-.44A16.6,16.6,0,0,1,49.09,34.72ZM35,35.25A68.22,68.22,0,0,1,32.39,55a2.11,2.11,0,1,1-4.07-1.15,64.49,64.49,0,0,0,2.44-18.63,2.11,2.11,0,1,1,4.22,0Zm20.43.52a2.12,2.12,0,0,1-2.12,2.1h0a2.12,2.12,0,0,1-2.1-2.13,21.62,21.62,0,0,0-.42-5.43,2.11,2.11,0,0,1,4.13-.91A26.41,26.41,0,0,1,55.41,35.77Z"/></svg>