<svg id="Layer_1" data-name="Layer 1" xmlns="http://www.w3.org/2000/svg" viewBox="0 0 64 64"><defs><style>.cls-1{fill:#fbbd5e;}.cls-2{fill:#183651;}.cls-3{fill:#12c2e9;}.cls-4{fill:#e0e4e8;}.cls-5{fill:#f54394;}</style></defs><title>Artboard 22</title><circle class="cls-1" cx="32" cy="32" r="32"/><rect class="cls-2" x="43.3" y="24.8" width="2" height="2"/><rect class="cls-2" x="49.4" y="24.8" width="2" height="2"/><rect class="cls-2" x="55.4" y="24.8" width="2" height="2"/><rect class="cls-2" x="6.6" y="37.2" width="2" height="2"/><rect class="cls-2" x="12.6" y="37.2" width="2" height="2"/><rect class="cls-2" x="18.7" y="37.2" width="2" height="2"/><polygon class="cls-2" points="18.6 8.3 17.2 6.9 19 5 17.2 3.1 18.6 1.7 21.9 5 18.6 8.3"/><rect class="cls-2" x="14.2" y="4" width="6.2" height="2"/><rect class="cls-3" x="25.4" y="54.9" width="13.2" height="8.1"/><path class="cls-2" d="M38.6,64H25.4a.94.94,0,0,1-1-1V54.9a.94.94,0,0,1,1-1H38.6a.94.94,0,0,1,1,1V63A.94.94,0,0,1,38.6,64ZM26.4,62H37.6V55.9H26.4Z"/><rect class="cls-4" x="25.4" y="41.4" width="13.2" height="8.1"/><path class="cls-2" d="M38.6,50.5H25.4a.94.94,0,0,1-1-1V41.4a.94.94,0,0,1,1-1H38.6a.94.94,0,0,1,1,1v8.1A.94.94,0,0,1,38.6,50.5Zm-12.2-2H37.6V42.4H26.4Z"/><rect class="cls-3" x="25.4" y="28" width="13.2" height="8.1"/><path class="cls-2" d="M38.6,37H25.4a.94.94,0,0,1-1-1V27.9a.94.94,0,0,1,1-1H38.6a.94.94,0,0,1,1,1V36A.94.94,0,0,1,38.6,37ZM26.4,35H37.6V28.9H26.4Z"/><rect class="cls-4" x="25.4" y="14.5" width="13.2" height="8.1"/><path class="cls-2" d="M38.6,23.6H25.4a.94.94,0,0,1-1-1V14.5a.94.94,0,0,1,1-1H38.6a.94.94,0,0,1,1,1v8.1A1,1,0,0,1,38.6,23.6Zm-12.2-2H37.6V15.5H26.4Z"/><rect class="cls-3" x="25.4" y="1" width="13.2" height="8.1"/><path class="cls-2" d="M38.6,10.1H25.4a.94.94,0,0,1-1-1V1a.94.94,0,0,1,1-1H38.6a.94.94,0,0,1,1,1V9.1A1,1,0,0,1,38.6,10.1Zm-12.2-2H37.6V2H26.4Z"/><polygon class="cls-2" points="43 61.9 41.6 60.5 43.4 58.7 41.6 56.8 43 55.4 46.2 58.7 43 61.9"/><rect class="cls-2" x="38.6" y="57.7" width="6.2" height="2"/><polygon class="cls-2" points="19.4 61.5 17.9 60.1 19.8 58.2 17.9 56.3 19.4 54.9 22.6 58.2 19.4 61.5"/><path class="cls-2" d="M21.1,59.2H8.1a7.35,7.35,0,1,1,.1-14.7H25.4v2H8.2a5.4,5.4,0,1,0,0,10.8h13v1.9Z"/><polygon class="cls-2" points="19.4 34.5 17.9 33.1 19.8 31.3 17.9 29.4 19.4 28 22.6 31.3 19.4 34.5"/><path class="cls-2" d="M21.1,32.3H8.1A7.38,7.38,0,0,1,.7,24.9a7.47,7.47,0,0,1,7.5-7.4H25.4v2H8.2a5.4,5.4,0,0,0,0,10.8h13v2Z"/><polygon class="cls-2" points="44.6 48.5 41.4 45.2 44.6 42 46.1 43.4 44.2 45.2 46.1 47.1 44.6 48.5"/><path class="cls-2" d="M55.8,46.2h-13v-2h13a5.38,5.38,0,0,0,5.4-5.4v-.5a5.38,5.38,0,0,0-5.4-5.4H38.6v-2H55.8a7.38,7.38,0,0,1,7.4,7.4v.5A7.38,7.38,0,0,1,55.8,46.2Z"/><polygon class="cls-2" points="44.6 21.6 41.4 18.3 44.6 15 46.1 16.4 44.2 18.3 46.1 20.2 44.6 21.6"/><path class="cls-2" d="M55.8,19.3h-13v-2h13a5.38,5.38,0,0,0,5.4-5.4v-.5A5.38,5.38,0,0,0,55.8,6H38.6V4H55.8a7.38,7.38,0,0,1,7.4,7.4v.5A7.38,7.38,0,0,1,55.8,19.3Z"/><rect class="cls-5" x="49.8" y="54.9" width="13.2" height="8.1"/><path class="cls-2" d="M63,64H49.8a.94.94,0,0,1-1-1V54.9a.94.94,0,0,1,1-1H63a.94.94,0,0,1,1,1V63A.94.94,0,0,1,63,64ZM50.8,62H62V55.9H50.8Z"/><rect class="cls-5" x="1" y="1" width="13.2" height="8.1"/><path class="cls-2" d="M14.2,10.1H1a.94.94,0,0,1-1-1V1A.94.94,0,0,1,1,0H14.2a.94.94,0,0,1,1,1V9.1A1,1,0,0,1,14.2,10.1ZM2,8.1H13.2V2H2Z"/></svg>