<svg id="Layer_1" data-name="Layer 1" xmlns="http://www.w3.org/2000/svg" viewBox="0 0 62.42 70.5"><defs><style>.cls-1{fill:#12c2e9;}.cls-2{fill:#fff;}</style></defs><title>Artboard 32</title><rect class="cls-1" x="2.78" y="2.78" width="56.87" height="56.87" rx="6.31" transform="translate(4.48 -3.92) rotate(7.73)"/><path class="cls-2" d="M56.56,45.36V61.63a8.87,8.87,0,0,1-8.87,8.87H29.84a4.72,4.72,0,0,1,0-9.43H33a4.71,4.71,0,0,1,4.71,4.72h10a4.16,4.16,0,0,0,4.16-4.16s0-16,0-16.27h0a20.44,20.44,0,1,0-40.87,0v1.57A1.57,1.57,0,0,1,9.41,48.5H7.84a1.57,1.57,0,0,1-1.57-1.57V45.36c.45-13.48,11.11-25.15,25.14-25.15S56.11,31.88,56.56,45.36ZM25.13,51.64A3.15,3.15,0,0,1,22,54.79H20.41a6.29,6.29,0,0,1-6.28-6.29V43.78a6.28,6.28,0,0,1,6.28-6.28H22a3.15,3.15,0,0,1,3.15,3.14Zm15.71,3.15a3.15,3.15,0,0,1-3.14-3.15v-11a3.15,3.15,0,0,1,3.14-3.14h1.58a6.28,6.28,0,0,1,6.28,6.28V48.5a6.29,6.29,0,0,1-6.28,6.29Z"/></svg>