<svg id="Layer_1" data-name="Layer 1" xmlns="http://www.w3.org/2000/svg" viewBox="0 0 63.37 64"><defs><style>.cls-1{fill:#9f40ad;}.cls-2{fill:#fff;}</style></defs><title>Artboard 14</title><path class="cls-1" d="M55.86,63.76,4.22,48.66A5.86,5.86,0,0,1,1.81,38.8L40.71,1.63a5.86,5.86,0,0,1,9.74,2.84L63.19,56.75A5.86,5.86,0,0,1,55.86,63.76Z"/><path class="cls-2" d="M50.74,23V48.73a1.88,1.88,0,0,1-1.89,1.88H22.5a1.88,1.88,0,0,1-1.88-1.88V12.34a1.88,1.88,0,0,1,1.88-1.88H38.19V21.12A1.89,1.89,0,0,0,40.07,23ZM36.1,32.26c.35-1.45.9-3.66.48-5a2,2,0,0,0-3.75-.53c-.39,1.44,0,3.46.64,6a73.7,73.7,0,0,1-3.2,6.73h0C28.13,40.56,24.48,43,26,44.8a2.43,2.43,0,0,0,1.68.78c1.41,0,2.8-1.41,4.8-4.84a44,44,0,0,1,6.19-1.82,12,12,0,0,0,5,1.53A2,2,0,0,0,45.22,37c-1.09-1.06-4.26-.76-5.78-.56A7.9,7.9,0,0,1,36.1,32.26Zm-6,8.62c-1.7,2.73-2.74,3.21-2.74,3.15C27.83,42.8,29.59,41.37,30.11,40.88Zm7.35-3.44a28.84,28.84,0,0,0-4.93,1.72,35.38,35.38,0,0,0,2.22-4.92A10.12,10.12,0,0,0,37.46,37.44ZM34.73,26.86c.66,0,.6,2.9.16,3.68C34.49,29.29,34.5,26.86,34.73,26.86Zm16-6.84v.48h-10v-10h.47A1.84,1.84,0,0,1,42.5,11l7.69,7.68A1.9,1.9,0,0,1,50.74,20ZM41,38c3.16-.23,3.68.49,3.36.7C44.38,38.71,43.93,39.25,41,38Z"/></svg>