<svg id="Layer_1" data-name="Layer 1" xmlns="http://www.w3.org/2000/svg" viewBox="0 0 64.21 62.42"><defs><style>.cls-1{fill:#1b75bb;}.cls-2{fill:#fff;}</style></defs><title>Artboard 11</title><rect class="cls-1" x="2.78" y="2.78" width="56.87" height="56.87" rx="6.31" transform="translate(4.48 -3.92) rotate(7.73)"/><path class="cls-2" d="M64.21,22.68v7.51H16.14V22.68a4.62,4.62,0,0,1,4.51-4.51h7.51v-4.5a4.62,4.62,0,0,1,4.5-4.51h15a4.62,4.62,0,0,1,4.5,4.51v4.5H59.7A4.62,4.62,0,0,1,64.21,22.68Zm-18,10.51h18V46.71a4.62,4.62,0,0,1-4.51,4.51H20.65a4.62,4.62,0,0,1-4.51-4.51V33.19h18V37.7a1.5,1.5,0,0,0,1.5,1.5h9a1.5,1.5,0,0,0,1.5-1.5Zm0-18h-12v3h12Z"/></svg>