<?xml version="1.0" encoding="utf-8"?>
<!-- Generator: Adobe Illustrator 24.0.1, SVG Export Plug-In . SVG Version: 6.00 Build 0)  -->
<svg version="1.1" id="Layer_1" xmlns="http://www.w3.org/2000/svg" xmlns:xlink="http://www.w3.org/1999/xlink" x="0px" y="0px"
	 viewBox="0 0 4063.9 2912.3" style="enable-background:new 0 0 4063.9 2912.3;" xml:space="preserve">
<style type="text/css">
	.st0{fill:#F4F7FA;}
	.st1{fill:url(#SVGID_1_);}
	.st2{opacity:0.16;fill:#FFFFFF;enable-background:new    ;}
	.st3{fill:url(#SVGID_2_);}
	.st4{fill:url(#SVGID_3_);}
	.st5{fill:#D8DEE8;}
	.st6{opacity:0.3;}
	.st7{fill:url(#SVGID_4_);}
	.st8{fill:url(#SVGID_5_);}
	.st9{fill:url(#SVGID_6_);}
	.st10{fill:url(#SVGID_7_);}
	.st11{fill:url(#SVGID_8_);}
	.st12{opacity:0.35;fill:#FFFFFF;enable-background:new    ;}
	.st13{opacity:0.3;fill:url(#SVGID_9_);enable-background:new    ;}
	.st14{opacity:0.67;fill:#FFFFFF;enable-background:new    ;}
	.st15{opacity:0.3;fill:url(#SVGID_10_);enable-background:new    ;}
	.st16{fill:url(#SVGID_11_);}
	.st17{fill:url(#SVGID_12_);}
	.st18{fill:url(#SVGID_13_);}
	.st19{fill:url(#SVGID_14_);}
	.st20{fill:url(#SVGID_15_);}
	.st21{opacity:0.3;fill:url(#SVGID_16_);enable-background:new    ;}
	.st22{fill:url(#SVGID_17_);}
	.st23{fill:url(#SVGID_18_);}
	.st24{fill:url(#SVGID_19_);}
	.st25{fill:url(#SVGID_20_);}
	.st26{fill:url(#SVGID_21_);}
	.st27{opacity:0.3;fill:url(#SVGID_22_);enable-background:new    ;}
	.st28{fill:url(#SVGID_23_);}
	.st29{fill:url(#SVGID_24_);}
	.st30{opacity:0.3;fill:url(#SVGID_25_);enable-background:new    ;}
	.st31{fill:url(#SVGID_26_);}
	.st32{fill:url(#SVGID_27_);}
	.st33{opacity:0.3;fill:#D8DEE8;enable-background:new    ;}
	.st34{opacity:0.56;fill:#FFFFFF;enable-background:new    ;}
	.st35{fill:url(#SVGID_28_);}
	.st36{fill:url(#SVGID_29_);}
	.st37{fill:url(#SVGID_30_);}
	.st38{fill:url(#SVGID_31_);}
	.st39{fill:url(#SVGID_32_);}
	.st40{fill:url(#SVGID_33_);}
	.st41{fill:#FFFFFF;}
	.st42{fill:url(#SVGID_34_);}
</style>
<title>bn_con13</title>
<g>
	<g id="Illustration">
		<path class="st0" d="M1303.5,173.6C1207.8,313,1320,539.1,1178.1,644c-138.2,102.1-307.9-65.3-438.1,22.6
			C546.8,797,582,1393.5,864.5,1764.1c84.9,111.5,155.9,154.8,187.3,280.9c67.5,270.7-169.7,431.7-124.6,565.5
			c101.7,301.4,1664.7,554.3,2291.9-351.5c292.9-423.1,336.7-1034,75-1498C2821.2-77.5,1518.1-139.3,1303.5,173.6z"/>
		
			<linearGradient id="SVGID_1_" gradientUnits="userSpaceOnUse" x1="470.2212" y1="1715.7241" x2="1841.302" y2="1715.7241" gradientTransform="matrix(0.9992 4.013179e-02 4.013179e-02 -0.9992 53.8206 3542.1426)">
			<stop  offset="0" style="stop-color:#12C2E9"/>
			<stop  offset="1" style="stop-color:#0EB2CC"/>
		</linearGradient>
		<path class="st1" d="M1655,2782.6c53.9-16.3,144.7-43.7,210.8-127.1c120.1-151.6,80.6-389.9-2.9-541.6
			c-71.7-130.3-204.8-215.2-470.8-384.8c-250.6-159.8-336.3-178.3-357.4-275.6c-30.2-138.7,113.3-241.4,53.8-397.9
			c-7.1-18.8-31.7-83.3-90.5-107.7c-100.7-41.8-231.2,63.3-292.4,140.9c-59,74.8-122.7,212-75.4,323c34.3,80.5,97.7,79,110.9,152.9
			c13.3,74.4-46.8,98.4-75,220.8c-11.3,48.9-33.8,147,9.2,231.6c55.7,109.4,170.6,97.1,191.3,188c15,65.7-40.2,93.6-39.2,169.6
			c1.3,100.1,98.5,173.7,180.3,233.9C1103.8,2679.5,1363.3,2870.7,1655,2782.6z"/>
		<path class="st2" d="M959.1,990.3c53.5,39.8-110.2,204.3-72.7,429.5c40.3,242.3,288.9,407.1,403.8,483.3
			c196,130,282,106.5,406.2,249.9c49.2,56.7,151.6,174.9,134.6,333.8c-1.6,14.8-21.6,179.1-151.2,252.9
			c-147,83.8-323.1-12.4-474.8-95.4c-91.7-50.1-274.9-150.2-258.1-253.1c10.3-62.9,92.9-112.5,160-125.4
			c95.7-18.5,172.8,35.1,181.9,18.9c8.2-14.6-46.4-72.1-122.5-115.9c-152.2-87.5-234.5-30.5-347-111c-13.6-9.8-120.6-88.6-119-203.6
			c0.9-66.3,37.9-146.4,91.9-158.2c61.1-13.3,117.5,66.4,132,53.9c13.9-12-29.3-92.2-83.6-165.2c-79.7-107.3-116.9-109.7-145.5-177
			c-43.7-102.6-4-207,2-221.9C752.5,1045.7,913.4,956.2,959.1,990.3z"/>
		
			<linearGradient id="SVGID_2_" gradientUnits="userSpaceOnUse" x1="4847.2236" y1="2625.6301" x2="6340.2739" y2="2625.6301" gradientTransform="matrix(-0.96 0.28 -0.28 -0.96 8633.3496 2582.0154)">
			<stop  offset="0" style="stop-color:#FF9085"/>
			<stop  offset="1" style="stop-color:#FB6FBB"/>
		</linearGradient>
		<path class="st3" d="M2375,2687.3c-61.3-2.8-164.4-7.4-256.5-77.8c-167.3-127.9-189.3-390-141.8-572.5
			c40.9-156.8,158.6-281.9,394.2-532.2c221.8-235.8,307.3-278.2,303.6-386.6c-5.2-154.5-184.2-224.6-163.2-405.7
			c2.5-21.7,11.2-96.4,66.7-137.9c95.1-71,261,5,346.4,70.5c82.3,63.2,186.2,191,166,320.9c-14.6,94.1-82,109.5-76.2,191.1
			c5.9,82.1,75.8,91.4,138.2,213.1c24.9,48.6,75,146.2,52.2,247c-29.5,130.4-154.2,148.2-151.7,249.7c1.8,73.3,67.4,88,86.7,168.5
			c25.3,106-57.6,209.7-127.8,295.1C2929.4,2431,2706.5,2702.2,2375,2687.3z"/>
		<path class="st2" d="M2630.4,609c-45.8,56.4,171,186.2,191.6,434c22.3,266.6-196.1,507.1-297.1,618.2
			c-172.2,189.6-269.2,187.9-362,372.4c-36.7,73-113.3,225.2-52.9,388.4c5.6,15.2,70.7,183.2,227.3,226.6
			c177.6,49.2,337.8-99.5,475.8-227.6c83.4-77.4,250-232.1,204.8-336.3c-27.7-63.7-128.1-93.9-202.4-89.6
			c-106,6.1-173.1,83.3-187,68.6c-12.6-13.3,29.8-88.6,98.4-155.1c137.3-133.1,239.4-95,336.7-210c11.8-14,103.6-125.8,71.2-246.8
			c-18.7-69.8-79.2-144.4-139.3-142.4c-68,2.2-106.3,101.5-124.9,92.1c-17.8-9,6.3-105.2,44-196.8
			c55.4-134.6,94.1-147.1,106.3-225.7c18.7-120-51.2-219.6-61.4-233.8C2863.4,612.2,2669.5,560.8,2630.4,609z"/>
		
			<linearGradient id="SVGID_3_" gradientUnits="userSpaceOnUse" x1="1820.3844" y1="4091.4822" x2="2297.7544" y2="4853.002" gradientTransform="matrix(0.42 -0.91 -0.91 -0.42 4032.0977 5995.1978)">
			<stop  offset="0" style="stop-color:#E38DDD"/>
			<stop  offset="1" style="stop-color:#9571F6"/>
		</linearGradient>
		<path class="st4" d="M1297.2,2796.3c20.8-15.3,55.7-41.1,71.4-87.2c28.6-83.8-25-180.6-84.3-233.2
			c-50.9-45.2-121.3-61.4-262.2-93.8c-132.6-30.5-172.4-25.4-196.5-64.1c-34.3-55.2,11.8-121.5-37.9-179.9c-6-7-26.4-31.1-55.6-32.6
			c-49.9-2.6-90.1,62.8-104.5,105.6c-14,41.3-20.4,110.3,17,150.9c27.1,29.5,54.3,19.1,71.3,49c17.2,30.1-5.1,49.7,1.5,106.8
			c2.6,22.8,8,68.6,39.5,98.5c40.8,38.7,88.5,15.7,111.4,51.8c16.5,26-3,46.5,9.1,79.1c15.9,43,69.2,59.8,113.6,73.2
			C1043.5,2836.4,1184.9,2879,1297.2,2796.3z"/>
		<path class="st2" d="M722,2129.8c29.2,9-16.2,105,34.5,196.5c54.6,98.4,187.1,131.3,248.3,146.6c104.5,26,138,2.7,213.6,45.5
			c29.9,16.9,92.2,52.2,109.3,123.3c1.6,6.6,18.1,80.6-26.4,132.3c-50.5,58.7-141.3,44.2-219.5,31.7
			c-47.3-7.6-141.6-22.6-150.2-69.6c-5.2-28.7,22.8-62.8,49.8-78.6c38.5-22.6,79.9-11.4,81.4-19.8c1.3-7.6-31.1-24-70.7-31.2
			c-79.1-14.4-105.9,22.8-166.8,5.3c-7.4-2.1-65.6-19.8-82.6-69.6c-9.8-28.8-6.1-69,15.4-82.3c24.3-15.1,60.9,10.6,65.2,3
			c4.1-7.3-26.8-35.3-61.4-58.5c-50.8-34.1-67.3-29.4-89.9-54c-34.6-37.6-33.5-88.7-33.2-96C641.3,2185.4,697,2122.1,722,2129.8z"/>
		<path class="st5" d="M2397.9,465.9l-1302.4-44.1c-29.8-1-54,22.1-54,51.5v2365.7c0,29.5,24.2,52,54,50.3l1302.4-74.1
			c26.9-1.5,48.7-25.4,48.7-53.4V518.1C2446.6,490.2,2424.8,466.8,2397.9,465.9z"/>
		<g class="st6">
			<path class="st5" d="M1863.5,2212.8c-22.2-270.5,144-382.2,80.7-627.2c-78.3-302.9-379.6-315.9-482.2-613
				c-39.3-113.8-54.8-285.9,57.7-536.4l-424.2-14.4c-29.8-1-54,22.1-54,51.5v2365.7c0,29.5,24.2,52,54,50.3l1161.3-66
				C1961.3,2594.6,1877.1,2379.1,1863.5,2212.8z"/>
		</g>
		
			<linearGradient id="SVGID_4_" gradientUnits="userSpaceOnUse" x1="2388.3555" y1="2343.3477" x2="1427.0756" y2="770.3375" gradientTransform="matrix(1 0 0 -1 0 2910.6609)">
			<stop  offset="0" style="stop-color:#FFFFFF"/>
			<stop  offset="1" style="stop-color:#EBEFF2"/>
		</linearGradient>
		<path class="st7" d="M2397.9,495.7l-1302.4-42.6c-11.7-0.5-21.6,8.5-22.1,20.2c0,0.3,0,0.6,0,1v2363c0,11.4,9.2,20.7,20.5,20.7
			c0.5,0,1.1,0,1.6-0.1l1302.4-72.6c11.1-0.6,20-10.4,20-21.9V517.2C2417.9,505.7,2408.9,496.1,2397.9,495.7z"/>
		<path class="st5" d="M2151.9,2284.6l-790.2,28.5c-18.8,0.8-33.7,16.2-33.8,35c-0.1,17.8,14.2,32.4,32,32.5c0.6,0,1.2,0,1.8,0
			l790.2-30.5c17.6-0.7,31.8-15.9,31.8-33.9S2169.4,2284,2151.9,2284.6z"/>
		<path class="st5" d="M2151.9,2401.2l-790.2,32c-18.8,0.9-33.6,16.3-33.8,35.1c-0.1,17.7,14.1,32.2,31.8,32.3c0.7,0,1.3,0,2,0
			l790.2-34c17.6-0.8,31.8-16,31.8-34S2169.4,2400.4,2151.9,2401.2z"/>
		<path class="st5" d="M2151.9,2517.7l-790.2,35.5c-18.8,1-33.6,16.4-33.8,35.3c-0.2,17.6,14,32,31.6,32.2c0.7,0,1.4,0,2.2-0.1
			l790.2-37.5c17.6-0.8,31.8-16.1,31.8-34.2S2169.4,2516.9,2151.9,2517.7z"/>
		<path class="st5" d="M1742.1,590.3l-397.5-11.3c-8.9-0.3-16.4,6.7-16.7,15.6c0,0.2,0,0.4,0,0.6c0.1,9.3,7.5,16.9,16.7,17.2
			l397.5,10.8c8.7,0.2,16-6.7,16.2-15.4c0-0.2,0-0.4,0-0.6C1758.4,598.2,1751.2,590.7,1742.1,590.3z"/>
		<path class="st5" d="M1742.1,648.9l-397.5-10.4c-8.9-0.3-16.4,6.7-16.7,15.7c0,0.2,0,0.4,0,0.6c0.1,9.3,7.5,16.9,16.7,17.1
			l397.5,9.9c8.8,0.2,16-6.7,16.2-15.5c0-0.2,0-0.4,0-0.5C1758.4,656.7,1751.2,649.3,1742.1,648.9z"/>
		<path class="st5" d="M1742.1,707.5l-397.5-9.5c-9-0.3-16.4,6.8-16.7,15.8c0,0.2,0,0.4,0,0.5c0.1,9.3,7.5,16.8,16.7,17.1l397.5,9
			c8.8,0.2,16-6.8,16.2-15.6c0-0.2,0-0.3,0-0.5C1758.4,715.3,1751.2,707.8,1742.1,707.5z"/>
		
			<linearGradient id="SVGID_5_" gradientUnits="userSpaceOnUse" x1="1524.5728" y1="1942.9968" x2="1610.5627" y2="1165.6769" gradientTransform="matrix(1 0 0 -1 0 2910.6609)">
			<stop  offset="0" style="stop-color:#FFC444"/>
			<stop  offset="1" style="stop-color:#F36F56"/>
		</linearGradient>
		<path class="st8" d="M1588.9,1336.9c25.8-48.8,74.1-83.5,130.7-90l4-241.3c-161.3,4.2-300.3,103.7-362.5,246.3L1588.9,1336.9z"/>
		
			<linearGradient id="SVGID_6_" gradientUnits="userSpaceOnUse" x1="1825.0703" y1="1323.9011" x2="2169.3103" y2="628.6011" gradientTransform="matrix(1 0 0 -1 0 2910.6609)">
			<stop  offset="0" style="stop-color:#E38DDD"/>
			<stop  offset="1" style="stop-color:#9571F6"/>
		</linearGradient>
		<path class="st9" d="M1905.3,1446.6c-13.8,80.2-82.6,141.7-165.9,142.4c-23.8,0.3-47.4-4.6-69.2-14.3l-126.4,207.8
			c60.2,32,127.5,48.1,195.7,46.7c209.7-3.8,379.6-168,398.8-373.9L1905.3,1446.6z"/>
		
			<linearGradient id="SVGID_7_" gradientUnits="userSpaceOnUse" x1="1322.7186" y1="1603.3922" x2="1783.7286" y2="1010.6622" gradientTransform="matrix(1 0 0 -1 0 2910.6609)">
			<stop  offset="0" style="stop-color:#12C2E9"/>
			<stop  offset="1" style="stop-color:#0EB2CC"/>
		</linearGradient>
		<path class="st10" d="M1504.8,1758.9l126.8-208c-39.8-32.7-62.8-81.5-62.6-133c0-12.7,1.4-25.4,4.1-37.8l-228.2-84.7
			c-12.3,39.9-18.5,81.4-18.5,123.2C1326.4,1560.6,1397.2,1685.2,1504.8,1758.9z"/>
		
			<linearGradient id="SVGID_8_" gradientUnits="userSpaceOnUse" x1="2279.0522" y1="2123.5994" x2="1910.6721" y2="1609.8994" gradientTransform="matrix(1 0 0 -1 0 2910.6609)">
			<stop  offset="0" style="stop-color:#FF9085"/>
			<stop  offset="1" style="stop-color:#FB6FBB"/>
		</linearGradient>
		<path class="st11" d="M1764.8,1247.8c76.1,11.8,135.3,75,142.3,153.3l385.4,15.2v-0.5c0-298.7-228.1-547-521.2-569L1764.8,1247.8z
			"/>
		<path class="st12" d="M1866.5,2212.7c-22.1-270.5,144-382.1,80.6-627.2c-78.3-302.9-379.5-315.9-482.1-612.9
			c-37.7-109.1-53.5-271.8,44.5-505.9l-410.8-13.4c-11.7-0.5-21.6,8.5-22.1,20.2c0,0.3,0,0.6,0,0.9v2362.7
			c0,11.4,9.2,20.7,20.5,20.7c0.5,0,1.1,0,1.6-0.1l1125.7-62.7C1957.5,2576.7,1879.5,2372.1,1866.5,2212.7z"/>
		
			<linearGradient id="SVGID_9_" gradientUnits="userSpaceOnUse" x1="1484.2391" y1="2651.4614" x2="887.149" y2="1818.8215" gradientTransform="matrix(1 0 0 -1 0 2910.6609)">
			<stop  offset="0" style="stop-color:#FF9085"/>
			<stop  offset="1" style="stop-color:#FB6FBB"/>
		</linearGradient>
		<path class="st13" d="M1466.1,1075.4l-835-8.3c-18.9-0.1-34.2-15.2-34.2-33.6V715.9c0-18.4,15.3-32.9,34.2-32.4l726.9,17.3
			c17.9,0.5,32.2,15.1,32.3,33.1v273L1466.1,1075.4z"/>
		<polygon class="st14" points="1273.1,815.6 720.1,804.8 720.1,766.7 1273.1,778.3 		"/>
		<polygon class="st14" points="1273.1,890.2 720.1,881 720.1,842.9 1273.1,852.9 		"/>
		<polygon class="st14" points="1273.1,964.8 720.1,957.1 720.1,919 1273.1,927.5 		"/>
		
			<linearGradient id="SVGID_10_" gradientUnits="userSpaceOnUse" x1="-4692.0513" y1="4368.1421" x2="-5205.6016" y2="3652.002" gradientTransform="matrix(-1 0 0 1 -3097.27 -1755.981)">
			<stop  offset="0" style="stop-color:#FF9085"/>
			<stop  offset="1" style="stop-color:#FB6FBB"/>
		</linearGradient>
		<path class="st15" d="M1743.6,1913.3l563.1-12.1c14.7-0.3,26.5,11.7,26.5,26.9v262.2c0,15.2-11.9,27.9-26.5,28.4l-593.5,20
			c-14.8,0.5-27.3-11.1-27.8-25.9c0-0.4,0-0.8,0-1.3v-342.7L1743.6,1913.3z"/>
		<polygon class="st14" points="1785.6,2135.2 2237.1,2121.7 2237.1,2153.4 1785.6,2167.4 		"/>
		<polygon class="st14" points="1785.6,2070.7 2237.1,2058.3 2237.1,2090 1785.6,2103 		"/>
		<polygon class="st14" points="1785.6,2006.3 2237.1,1994.9 2237.1,2026.6 1785.6,2038.5 		"/>
		
			<linearGradient id="SVGID_11_" gradientUnits="userSpaceOnUse" x1="3423.3193" y1="215.7991" x2="3447.1992" y2="-88.001" gradientTransform="matrix(1 -2.443458e-03 -2.443458e-03 -1 -789.4682 2917.4749)">
			<stop  offset="0" style="stop-color:#311944"/>
			<stop  offset="1" style="stop-color:#A03976"/>
		</linearGradient>
		<path class="st16" d="M2680.3,2844.8c0,0-96,43.9-97.5,50.9s61.8-2.5,87.7-1.6s47.1-6.8,44.8-17.7s-11.5-38.5-11.5-38.5
			L2680.3,2844.8z"/>
		
			<linearGradient id="SVGID_12_" gradientUnits="userSpaceOnUse" x1="3484.9634" y1="46.6683" x2="3480.6233" y2="361.3182" gradientTransform="matrix(1 -2.443458e-03 -2.443458e-03 -1 -789.4682 2917.4749)">
			<stop  offset="0" style="stop-color:#FFC444"/>
			<stop  offset="1" style="stop-color:#F36F56"/>
		</linearGradient>
		<path class="st17" d="M2676.7,2809.4l5.9,43.2c0,0,15.2,5.4,25.4-1l4.3-47.5L2676.7,2809.4z"/>
		
			<linearGradient id="SVGID_13_" gradientUnits="userSpaceOnUse" x1="3874.4189" y1="251.2398" x2="3898.2891" y2="-52.5503" gradientTransform="matrix(1 -2.443458e-03 -2.443458e-03 -1 -789.4682 2917.4749)">
			<stop  offset="0" style="stop-color:#311944"/>
			<stop  offset="1" style="stop-color:#A03976"/>
		</linearGradient>
		<path class="st18" d="M3129.2,2809.3l11.2,17.9c3.1,5,4.1,11.1,2.6,16.8c-3.9,14.9-11.6,44-15,51.6c-4.6,10.3-66.8,16.6-66.8,16.6
			s-5.6-7.8,7.3-17.2s21.2-11,25.7-24.9s7.5-53.3,7.5-53.3L3129.2,2809.3z"/>
		
			<linearGradient id="SVGID_14_" gradientUnits="userSpaceOnUse" x1="3898.3684" y1="52.3783" x2="3894.0286" y2="367.0283" gradientTransform="matrix(1 -2.443458e-03 -2.443458e-03 -1 -789.4682 2917.4749)">
			<stop  offset="0" style="stop-color:#FFC444"/>
			<stop  offset="1" style="stop-color:#F36F56"/>
		</linearGradient>
		<path class="st19" d="M3082.5,2763.9c4.1,3.3,24.2,63.8,24.2,63.8s6.5,8.3,18.7-4s5.6-5.5,5.6-5.5l-2.4-59.6L3082.5,2763.9z"/>
		
			<linearGradient id="SVGID_15_" gradientUnits="userSpaceOnUse" x1="3409.8982" y1="556.2888" x2="3642.5215" y2="556.2888" gradientTransform="matrix(1 -2.443458e-03 -2.443458e-03 -1 -789.4682 2917.4749)">
			<stop  offset="0" style="stop-color:#F54394"/>
			<stop  offset="1" style="stop-color:#A00854"/>
		</linearGradient>
		<path class="st20" d="M2621.7,1940.4c-4.8,129.1-4.6,269.3,3.2,419c8.8,168.6,25.9,324.5,47.4,465.8c7.9,0.2,16.1,0.3,24.8,0
			c5.8-0.2,11.5-0.5,16.9-0.9c13.9-37.3,25.7-75.4,35.3-114c10.9-43.9,19.1-88.4,24.5-133.3c18.1-146.2-3.6-158.9,11.2-267.3
			c13.1-96,32-99.8,53.9-236c23.7-147.8,5.8-170-3-178C2798.8,1861.7,2711.6,1885.1,2621.7,1940.4z"/>
		
			<linearGradient id="SVGID_16_" gradientUnits="userSpaceOnUse" x1="3409.9871" y1="556.2593" x2="3642.6372" y2="556.2593" gradientTransform="matrix(1 -2.443458e-03 -2.443458e-03 -1 -789.4682 2917.4749)">
			<stop  offset="0" style="stop-color:#F54394"/>
			<stop  offset="1" style="stop-color:#A00854"/>
		</linearGradient>
		<path class="st21" d="M2836,1895.7c-35.5-32.4-116.4-12.6-201.8,37.3c98.6,106.1,109.5,175,97.8,219.8
			c-13.2,50.6-53.7,65.3-53.4,120.6c0.4,67.9,61.7,85.8,60.6,157.7c-0.8,47.6-27.7,47.1-33.9,105.9c-7.4,69.5,27.9,93.4,16.6,144.8
			c-4.9,22.1-18.8,51.1-58.6,80.9c2.9,21.1,5.9,42,9,62.5c7.9,0.2,16.1,0.3,24.8,0c5.8-0.2,11.5-0.5,16.9-0.9
			c13.9-37.3,25.7-75.4,35.3-114c10.9-43.9,19.1-88.4,24.5-133.4c18.1-146.2-3.6-158.9,11.2-267.3c13.1-96,32-99.8,53.9-236
			C2862.7,1925.8,2844.7,1903.7,2836,1895.7z"/>
		
			<linearGradient id="SVGID_17_" gradientUnits="userSpaceOnUse" x1="3474.4907" y1="579.2476" x2="3942.793" y2="579.2476" gradientTransform="matrix(1 -2.443458e-03 -2.443458e-03 -1 -789.4682 2917.4749)">
			<stop  offset="0" style="stop-color:#F54394"/>
			<stop  offset="1" style="stop-color:#A00854"/>
		</linearGradient>
		<path class="st22" d="M2682.6,1938c100.2,145.9,186.9,300.6,258.9,462.3c55.9,125.5,102.8,254.8,140.4,387
			c8.9,4.1,18.7,5.6,28.4,4.3c18.3-2.5,29.2-14.2,32.1-17.4c10.8-68,13.1-137.2,6.9-205.8c-3-32.8-8.3-87.3-29.3-154.6
			c-23.6-75.4-39.7-79.6-70.4-159.3c-31.9-82.8-24.3-103.4-54.8-207.1c-18.4-62.1-41.2-122.8-68.2-181.6L2682.6,1938z"/>
		
			<linearGradient id="SVGID_18_" gradientUnits="userSpaceOnUse" x1="3073.2559" y1="1639.9994" x2="2545.5759" y2="773.6495" gradientTransform="matrix(1 0 0 -1 0 2910.6609)">
			<stop  offset="0" style="stop-color:#12C2E9"/>
			<stop  offset="1" style="stop-color:#0EB2CC"/>
		</linearGradient>
		<path class="st23" d="M2337.3,1763.4c0.8,30.1,50.3,56.6,90.2,64.8c93.2,19,201.2-48.7,252.5-123.6c10.1-14.7,21.3-32.5,23.9-31.2
			c6.1,3.1-49.9,95.2-74.2,199.8c-12.4,53.6-9.2,78.6-32.4,114.3c-5.3,8.1-11.8,16.5-9.5,26c5.7,23.9,60.4,30.1,98.4,34.4
			c40.1,4.6,77.4,4.1,114.4,3.6c59.1-0.9,63.8-3.9,77.3,2.7c41.1,20.2,38.4,68.6,69.3,75c26,5.4,52.4-23.6,60.7-32.8
			c43.5-47.8,41.1-105.5,48.9-163.7c17.9-135.3,91.4-283.5,163.3-377.3c21.8-28.4,37-43.4,37.9-69.9
			c2.8-77.6-120.2-163.3-222.6-173.2c-28.1-2.7-78.3-1.8-125.4,2.6c-18.8,1.8-38.9,4.4-60.4,8.2c-52.3,9.1-88.6,15.5-125.7,32.5
			c-149.5,68.4-116.9,220.7-278.7,325.9C2389.6,1717.8,2336.4,1731.9,2337.3,1763.4z"/>
		
			<linearGradient id="SVGID_19_" gradientUnits="userSpaceOnUse" x1="2966.1941" y1="1651.0205" x2="2916.4941" y2="1212.6005" gradientTransform="matrix(1 0 0 -1 0 2910.6609)">
			<stop  offset="0" style="stop-color:#FFC444"/>
			<stop  offset="1" style="stop-color:#F36F56"/>
		</linearGradient>
		<path class="st24" d="M2949.8,1232c0,0,6.4,35.8,21.2,61.3c13.4,23,68.6,31.3,80.1,35.3s-17.4,24-48.1,31.3s-120.5,12-138.1,2.3
			s11.4-12.6,32.5-23.7s28.2-56.2,21.6-75.4S2949.8,1232,2949.8,1232z"/>
		
			<linearGradient id="SVGID_20_" gradientUnits="userSpaceOnUse" x1="4775.3701" y1="800.238" x2="4695.54" y2="1002.978" gradientTransform="matrix(0.9989 4.745513e-02 4.745513e-02 -0.9989 -1828.3401 1934.3723)">
			<stop  offset="0" style="stop-color:#444B8C"/>
			<stop  offset="1" style="stop-color:#3E4177"/>
		</linearGradient>
		<path class="st25" d="M2891.4,1221.6c-22.3-15.9-28.4-59-16.1-68.6c3.5-2.8,6.9-1.5,57.2,18.7c25,10,37.2,15.3,41.3,26.4
			c2.5,6.7,2.1,15.8-0.7,23c-1.4,3.7-4.1,8.3-10.2,17c-5.4,7.8-5,7.5-6.7,9.8c-4,5.4-11.6,14.6-25.7,25.2c-0.9-4.9-2.3-9.6-4.1-14.2
			c-2.3-6-5.4-11.7-9.1-16.9C2908.6,1230.1,2898.7,1226.8,2891.4,1221.6z"/>
		
			<linearGradient id="SVGID_21_" gradientUnits="userSpaceOnUse" x1="2921.4602" y1="1701.481" x2="2960.5103" y2="1378.441" gradientTransform="matrix(1 0 0 -1 0 2910.6609)">
			<stop  offset="0" style="stop-color:#FFC444"/>
			<stop  offset="1" style="stop-color:#F36F56"/>
		</linearGradient>
		<path class="st26" d="M2948.5,1262.6c0,0-14.6,21.7-41.6,18.8c-24.2-2.6-25.3-57.2-9.4-68c5.3-3.6,15.7-4.8,24.1-2
			c4.9,1.6,6.5,3.8,14.6,6.2c7.4,2.3,9.6,1.5,11.8,3.6c2.7,2.5,4.6,8.5-0.9,24.2c4.8-4.5,10.5-6,14.3-4c1.3,0.8,2.4,1.9,3.1,3.3
			C2967.7,1250.8,2961.6,1258.5,2948.5,1262.6z"/>
		
			<linearGradient id="SVGID_22_" gradientUnits="userSpaceOnUse" x1="2351.9402" y1="1192.4697" x2="2728.71" y2="1192.4697" gradientTransform="matrix(1 0 0 -1 0 2910.6609)">
			<stop  offset="0" style="stop-color:#12C2E9"/>
			<stop  offset="1" style="stop-color:#0EB2CC"/>
		</linearGradient>
		<path class="st27" d="M2468,1758.8c67.6-15.2,94.5-14.7,127.9-41.6c55.6-44.8,64-113,96.3-112.2c15.3,0.4,27.7,16,36.5,31.3
			c-8.1,12.8-16.3,25.5-24.4,38.2c0-0.5-0.1-0.9-0.4-1c-2.7-1.4-13.9,16.4-23.9,31.2c-51.3,74.9-159.3,142.6-252.5,123.6
			c-26.7-5.5-57.7-19.2-75.5-36.7C2390,1778.6,2428.8,1767.7,2468,1758.8z"/>
		
			<linearGradient id="SVGID_23_" gradientUnits="userSpaceOnUse" x1="5948.9785" y1="1628.9095" x2="6033.7222" y2="1628.9095" gradientTransform="matrix(0.8553 0.5182 0.5182 -0.8553 -3660.4673 106.0727)">
			<stop  offset="0" style="stop-color:#FFC444"/>
			<stop  offset="1" style="stop-color:#F36F56"/>
		</linearGradient>
		<path class="st28" d="M2358,1816.9c0,0-38.1-3.8-60.8-13.5s-37.4,4.2-35.3,13.9s39.5,23.1,54.4,23.6
			C2331.1,1841.3,2358,1816.9,2358,1816.9z"/>
		
			<linearGradient id="SVGID_24_" gradientUnits="userSpaceOnUse" x1="3358.7427" y1="1466.1075" x2="2831.0627" y2="599.7576" gradientTransform="matrix(1 0 0 -1 0 2910.6609)">
			<stop  offset="0" style="stop-color:#12C2E9"/>
			<stop  offset="1" style="stop-color:#0EB2CC"/>
		</linearGradient>
		<path class="st29" d="M3179,2018.5c40.9,3.7,133.1,5.3,198.2-55c108.5-100.4,54.7-291.4,16.9-373.5
			c-43.3-94.2-112.2-146.9-154.1-179c-51.9-39.8-83.7-64-121.8-58.6c-98.7,14-167,216.3-112.8,274.2c17.7,18.9,35.3,8.2,86.6,24.6
			c16.7,5.3,141.4,45,163.1,136.9c15.2,64.3-23.5,139.6-92.4,190.1L3179,2018.5z"/>
		
			<linearGradient id="SVGID_25_" gradientUnits="userSpaceOnUse" x1="2591.5498" y1="1072.9098" x2="3364.5469" y2="1072.9098" gradientTransform="matrix(1 0 0 -1 0 2910.6609)">
			<stop  offset="0" style="stop-color:#12C2E9"/>
			<stop  offset="1" style="stop-color:#0EB2CC"/>
		</linearGradient>
		<path class="st30" d="M2720.2,1985.2c46.3-29.3,53.2-59,105.1-79c67.4-26,99.8,7,133.2-19.7c39.8-31.8,4.6-87.2,34.3-183.3
			c5.1-16.3,43.4-140.3,131.5-156c41.1-7.4,95.3,8.4,116.2,43.2c16.4,27.2,1.1,47.5,21,77.6s43.6,22.7,69,47.7
			c40.2,39.8,46.4,123.7,10.1,171.1c-16.9,22.1-38.9,30.9-80.4,47.3c-22.3,8.9-45.5,15.7-69.1,20.3c50.7-48.7,77-111.4,64.1-166.2
			c-13.5-57.3-67.1-94.3-109.6-115.3c-42.5,80-77.3,172.7-88.8,260c-7.7,58.2-5.4,115.9-48.9,163.7c-8.4,9.2-34.7,38.2-60.7,32.8
			c-30.9-6.4-28.2-54.8-69.3-75c-13.5-6.6-18.2-3.6-77.3-2.7c-36.9,0.5-74.3,1-114.4-3.6c-33.8-3.8-80.7-9.2-94.7-27.2
			C2652.4,2019.2,2693.1,2002.3,2720.2,1985.2z"/>
		
			<linearGradient id="SVGID_26_" gradientUnits="userSpaceOnUse" x1="2199.52" y1="1016.1796" x2="3159.125" y2="1016.1796" gradientTransform="matrix(1 0 0 -1 0 2910.6609)">
			<stop  offset="0" style="stop-color:#444B8C"/>
			<stop  offset="1" style="stop-color:#26264F"/>
		</linearGradient>
		<path class="st31" d="M3152.1,2050.7l4.8-14c7.6-22.4-4.9-46.2-27.9-53.2l-902-274.8l-27.5,93.2l897.4,276.4
			C3119.9,2085.3,3144.5,2073,3152.1,2050.7z"/>
		
			<linearGradient id="SVGID_27_" gradientUnits="userSpaceOnUse" x1="1314.5712" y1="1319.0845" x2="2304.6758" y2="1319.0845" gradientTransform="matrix(1 0 0 -1 0 2910.6609)">
			<stop  offset="0" style="stop-color:#444B8C"/>
			<stop  offset="1" style="stop-color:#26264F"/>
		</linearGradient>
		<path class="st32" d="M1330.7,1456.3c69-272.5,339.2-436.6,606.5-359.7c272.2,78.4,428,373.2,345.3,651.2
			c-80.7,271.4-357.7,417.9-616,334.1C1412.5,1999.7,1263.4,1722.6,1330.7,1456.3z M2204,1723.8c68.3-232.6-62-479-289.3-545.1
			c-223.8-65.1-451.2,71.6-509.9,300.3c-57.6,224.4,68.1,458.2,282.5,527.1C1904.9,2076,2137,1951.8,2204,1723.8L2204,1723.8z"/>
		<path class="st33" d="M2227,1708.7l115,35c7.9,36.7,23.2,57.7,38.7,70.5c58.1,48.2,135.7-4.4,243.9,52.1
			c54.3,28.3,44,46.4,94.9,66.1c84.1,32.7,122.7-12.6,197.1,17.2c75.3,30.1,82.8,95.1,125.5,92.8c18.3-1,41.8-14.3,68-64.7l18.9,5.8
			c23,7,35.5,30.8,27.9,53.2l-4.8,14c-7.6,22.3-32.3,34.6-55.2,27.6l-897.4-276.4L2227,1708.7z"/>
		<path class="st34" d="M1666,2043.4c225.1,72.4,465.4-55.8,534.8-291.8c70.9-240.9-64.1-496.1-299.5-564.5
			c-231.8-67.3-467,74.4-527.6,311.1C1314.3,1730.2,1444.3,1972,1666,2043.4z"/>
		
			<linearGradient id="SVGID_28_" gradientUnits="userSpaceOnUse" x1="-4800.8501" y1="197.3957" x2="-5299.3804" y2="755.5757" gradientTransform="matrix(-0.87 0.49 -0.49 -0.87 -2408.342 4687.519)">
			<stop  offset="0" style="stop-color:#444B8C"/>
			<stop  offset="1" style="stop-color:#26264F"/>
		</linearGradient>
		<path class="st35" d="M1313.3,1479.7c69-272.4,339.2-436.6,606.5-359.7c272.2,78.4,428,373.2,345.3,651.2
			c-80.8,271.4-357.7,417.9-616.1,334.1C1395,2023,1245.9,1745.9,1313.3,1479.7z M2186.5,1747.2c68.3-232.6-62-479-289.3-545.1
			c-223.8-65.1-451.2,71.6-509.9,300.3c-57.6,224.4,68.1,458.2,282.5,527.1C1887.4,2099.4,2119.5,1975.2,2186.5,1747.2z"/>
		
			<linearGradient id="SVGID_29_" gradientUnits="userSpaceOnUse" x1="-5533.5522" y1="1012.4291" x2="-4857.4224" y2="268.1191" gradientTransform="matrix(-0.87 0.49 -0.49 -0.87 -2408.342 4687.519)">
			<stop  offset="0" style="stop-color:#444B8C"/>
			<stop  offset="1" style="stop-color:#26264F"/>
		</linearGradient>
		<path class="st36" d="M1339.4,1487.7c65.3-257,320.5-411.4,572.3-338.6c256.2,74,403,351.7,325.5,613.6
			c-75.8,256.1-336.9,394.7-580.9,315.9C1416.3,2001,1275.4,1739.2,1339.4,1487.7z M2186.5,1747.2c68.3-232.6-62-479-289.3-545.1
			c-223.8-65.1-451.2,71.6-509.9,300.3c-57.6,224.4,68.1,458.2,282.5,527.1C1887.4,2099.4,2119.5,1975.2,2186.5,1747.2z"/>
		
			<linearGradient id="SVGID_30_" gradientUnits="userSpaceOnUse" x1="-2521.3894" y1="1817.3807" x2="-2502.6296" y2="1923.5508" gradientTransform="matrix(-0.86 -0.52 0.52 -0.86 -7.5285 2328.2412)">
			<stop  offset="0" style="stop-color:#FFC444"/>
			<stop  offset="1" style="stop-color:#F36F56"/>
		</linearGradient>
		<path class="st37" d="M3175.5,2009.9l-9.1-22.7c0,0-14.9,0.9-27.1-7.8c-6.6-4.8-18.5-6.2-21.9-5.2s-16.4,0.4-1.6,7.4
			s14.6,12.3,8.5,18.1s-29.6,18.2-38,18.8s6.8,13.7,15.3,15.3s22.5,3.8,39.7-6.4C3147.6,2023.7,3175.5,2009.9,3175.5,2009.9z"/>
		
			<linearGradient id="SVGID_31_" gradientUnits="userSpaceOnUse" x1="1805.1348" y1="1623.0028" x2="4429.6348" y2="4993.6729" gradientTransform="matrix(1 0 0 -1 0 2910.6609)">
			<stop  offset="0" style="stop-color:#F54394"/>
			<stop  offset="1" style="stop-color:#A00854"/>
		</linearGradient>
		<path class="st38" d="M2747.4,145.7l-607.9-37.3c-44.6-2.3-81,32.6-81,77.9v567.8c0,45.4,36.4,82.5,81,82.9l33.8,0.3v139.8
			c0,21,24.8,31.2,45.4,8l127.1-146.2l401.5,1.2c37.6,0.3,67.9-32.9,67.9-74.2v-542C2815.3,182.7,2785,147.6,2747.4,145.7z"/>
		
			<linearGradient id="SVGID_32_" gradientUnits="userSpaceOnUse" x1="2054.0432" y1="1932.7084" x2="2529.4333" y2="2543.2585" gradientTransform="matrix(1 0 0 -1 0 2910.6609)">
			<stop  offset="0" style="stop-color:#FCB148"/>
			<stop  offset="5.000000e-02" style="stop-color:#FDBA46"/>
			<stop  offset="0.14" style="stop-color:#FFC244"/>
			<stop  offset="0.32" style="stop-color:#FFC444"/>
			<stop  offset="0.48" style="stop-color:#FDB946"/>
			<stop  offset="0.78" style="stop-color:#F99C4D"/>
			<stop  offset="0.87" style="stop-color:#F8924F"/>
			<stop  offset="1" style="stop-color:#F8924F"/>
		</linearGradient>
		<path class="st39" d="M2766.7,825.5l-607.8-3.2c-44.6-0.4-81-37.5-81-82.9V171.6c0-45.4,36.3-80.2,81-78l607.9,37.3
			c37.6,1.9,67.9,37,67.9,78.4v542C2834.6,792.6,2804.3,825.8,2766.7,825.5z"/>
		
			<linearGradient id="SVGID_33_" gradientUnits="userSpaceOnUse" x1="2572.4712" y1="2145.2754" x2="2264.7312" y2="2927.9956" gradientTransform="matrix(1 0 0 -1 0 2910.6609)">
			<stop  offset="0" style="stop-color:#FCB148"/>
			<stop  offset="5.000000e-02" style="stop-color:#FDBA46"/>
			<stop  offset="0.14" style="stop-color:#FFC244"/>
			<stop  offset="0.32" style="stop-color:#FFC444"/>
			<stop  offset="0.48" style="stop-color:#FDB946"/>
			<stop  offset="0.78" style="stop-color:#F99C4D"/>
			<stop  offset="0.87" style="stop-color:#F8924F"/>
			<stop  offset="1" style="stop-color:#F8924F"/>
		</linearGradient>
		<path class="st40" d="M2101,754.7v-597c0-24.1,19.3-42.7,43.1-41.5l635,36.7c20,1,36.2,19.7,36.2,41.8v570
			c0,22.1-16.2,39.8-36.2,39.5l-635-5.3C2120.3,798.6,2101,778.8,2101,754.7z"/>
		<path class="st41" d="M2509.2,540.2c0-10.9-2.6-19.4-7.8-25.8c-5.2-6.3-14.3-12.4-27.3-18.3c-13.1-5.9-25.1-11.8-36.2-17.8
			c-10.5-5.5-20.1-12.4-28.7-20.5c-7.9-7.5-14.2-16.5-18.5-26.5c-4.3-10-6.5-21.9-6.5-35.9c0-23.4,7.7-42.4,23-56.9s35.7-22.6,61-24
			V271l31.7,1.3v44.3c24.3,4.7,43.3,15.7,57.1,33.2c13.8,17.4,20.7,39.1,20.7,65.1l-67-2.3c0-14.3-2.7-25.4-8-33.2
			c-5.3-7.9-12.9-12-22.7-12.4c-8.8-0.3-15.6,2.3-20.5,7.8c-4.9,5.5-7.3,13.3-7.3,23.4c0,10.2,2.8,18.4,8.4,24.6
			c5.6,6.2,14.6,12.2,27,18c12.4,5.8,24,11.8,34.9,18c10.3,5.7,19.8,12.6,28.3,20.7c7.8,7.5,14.2,16.5,18.6,26.4
			c4.5,10,6.7,21.9,6.7,35.7c0,23.4-7.2,42.3-21.4,56.7c-14.3,14.4-33.9,22.7-58.7,24.7v41.4l-31.7-0.6v-41.8
			c-29.1-3.8-51.5-14.6-67.2-32.4c-15.7-17.8-23.5-41.1-23.5-69.8l67.9,1.8c0,15.7,3.4,27.8,10.1,36.1c6.7,8.4,16.3,12.7,28.7,13
			c9.1,0.2,16.2-2.4,21.3-7.8S2509.2,550,2509.2,540.2z"/>
		<path class="st41" d="M2695.1,241.4c3.6,0.3,6.4,3.3,6.4,7v452.2c0.1,3.6-2.7,6.5-6.3,6.6c0,0-0.1,0-0.1,0l-443.7-7.4
			c-3.8-0.1-6.7-3.2-6.7-7V228.3c-0.1-3.6,2.8-6.5,6.3-6.6c0.1,0,0.3,0,0.4,0L2695.1,241.4z M2695.1,215.8l-443.7-20.4
			c-18-0.8-32.6,13.4-32.6,31.8v465.3c0,18.4,14.6,33.5,32.6,33.8l443.7,6.7c17.1,0.3,30.9-14,30.9-31.8V249.5
			C2725.9,231.6,2712.2,216.5,2695.1,215.8z"/>
		
			<linearGradient id="SVGID_34_" gradientUnits="userSpaceOnUse" x1="2095.1912" y1="1863.9956" x2="2761.4712" y2="2719.7156" gradientTransform="matrix(1 0 0 -1 0 2910.6609)">
			<stop  offset="0" style="stop-color:#FCB148"/>
			<stop  offset="5.000000e-02" style="stop-color:#FDBA46"/>
			<stop  offset="0.14" style="stop-color:#FFC244"/>
			<stop  offset="0.32" style="stop-color:#FFC444"/>
			<stop  offset="0.48" style="stop-color:#FDB946"/>
			<stop  offset="0.78" style="stop-color:#F99C4D"/>
			<stop  offset="0.87" style="stop-color:#F8924F"/>
			<stop  offset="1" style="stop-color:#F8924F"/>
		</linearGradient>
		<path class="st42" d="M2192.7,962.5V793.9l197,2.2l-157.9,181.5C2218.1,993.2,2192.7,983.4,2192.7,962.5z"/>
	</g>
</g>
</svg>
