<?xml version="1.0" encoding="utf-8"?>
<!-- Generator: Adobe Illustrator 24.0.1, SVG Export Plug-In . SVG Version: 6.00 Build 0)  -->
<svg version="1.1" id="Layer_1" xmlns="http://www.w3.org/2000/svg" xmlns:xlink="http://www.w3.org/1999/xlink" x="0px" y="0px"
	 viewBox="0 0 3738.3 2800" style="enable-background:new 0 0 3738.3 2800;" xml:space="preserve">
<style type="text/css">
	.st0{fill:url(#SVGID_1_);}
	.st1{opacity:0.3;}
	.st2{fill:#91B3FA;}
	.st3{fill:#BDD0FB;}
	.st4{fill:url(#SVGID_2_);}
	.st5{opacity:0.33;fill:#FFFFFF;enable-background:new    ;}
	.st6{opacity:0.66;fill:url(#SVGID_3_);enable-background:new    ;}
	.st7{opacity:0.54;fill:#FFFFFF;enable-background:new    ;}
	.st8{fill:#F54394;}
	.st9{opacity:0.7;fill:#FFFFFF;enable-background:new    ;}
	.st10{opacity:0.78;fill:#FFFFFF;enable-background:new    ;}
	.st11{fill:#7D97F4;}
	.st12{opacity:0.41;fill:#FFFFFF;enable-background:new    ;}
	.st13{opacity:0.67;}
	.st14{fill:#FFFFFF;}
	.st15{fill:url(#SVGID_4_);}
	.st16{fill:url(#SVGID_5_);}
	.st17{fill:url(#SVGID_6_);}
	.st18{fill:url(#SVGID_7_);}
	.st19{fill:url(#SVGID_8_);}
	.st20{fill:url(#SVGID_9_);}
	.st21{fill:url(#SVGID_10_);}
	.st22{fill:#A00854;}
	.st23{fill:url(#SVGID_11_);}
	.st24{fill:url(#SVGID_12_);}
	.st25{fill:url(#SVGID_13_);}
	.st26{fill:url(#SVGID_14_);}
	.st27{fill:url(#SVGID_15_);}
	.st28{fill:url(#SVGID_16_);}
	.st29{fill:url(#SVGID_17_);}
	.st30{fill:url(#SVGID_18_);}
</style>
<title>bn_con11</title>
<g id="Illustration">
	
		<linearGradient id="SVGID_1_" gradientUnits="userSpaceOnUse" x1="3613.1416" y1="-827.5103" x2="1122.4218" y2="2265.8098" gradientTransform="matrix(1 0 0 -1 0 2798.6609)">
		<stop  offset="0" style="stop-color:#DAE3FE"/>
		<stop  offset="1" style="stop-color:#E9EFFD"/>
	</linearGradient>
	<path class="st0" d="M2927.9,2406.3c-57.2,60.2-111.3,99.1-154.1,129.8c-502.7,360.7-1097.6,255.6-1224.1,229.9
		c-186.7-37.9-547.6-111.2-808.5-418C346.6,1883.7,408,1152.4,714.2,669.6c56-88.3,351.8-578.4,953.1-657
		C2031.2-35,2455.4,61,2762.6,318.3C3407.4,858.5,3361.5,1949.8,2927.9,2406.3z"/>
	<g class="st1">
		<path class="st2" d="M917,2281c-0.9,5.8-6.1,10-12,9.6c-13-0.7-26.1-2-39-3.8c-6.3-0.9-10.7-6.7-9.8-13v-0.2
			c1-6.2,6.8-10.4,13-9.6c12.3,1.7,24.8,3,37.1,3.7c6.3,0.3,11.2,5.8,10.9,12.1c0,0,0,0,0,0C917.2,2280.2,917.1,2280.6,917,2281z
			 M818.2,2264.3c-0.1,0.5-0.2,0.9-0.3,1.3c-1.7,6.1-8.1,9.7-14.2,7.9c0,0,0,0,0,0c-12.5-3.6-25.1-7.7-37.2-12.3
			c-5.9-2.4-8.7-9.1-6.3-15c2.3-5.7,8.7-8.5,14.4-6.5c11.5,4.4,23.5,8.3,35.4,11.7C815.6,2253,819.1,2258.5,818.2,2264.3
			L818.2,2264.3z M725.5,2226.3c-0.2,1.3-0.6,2.5-1.3,3.7c-3.1,5.6-10.1,7.6-15.6,4.6c0,0,0,0,0,0c-11.4-6.3-22.7-13.1-33.6-20.3
			c-5.3-3.5-6.8-10.7-3.2-16c3.5-5.3,10.7-6.8,16-3.2l0,0c10.3,6.9,21,13.4,31.9,19.3C723.9,2216.7,726.3,2221.4,725.5,2226.3
			L725.5,2226.3z M643.6,2168.5c-0.3,2.2-1.3,4.2-2.8,5.8c-4.2,4.8-11.5,5.2-16.2,1c0,0,0,0,0,0c-9.7-8.7-19.2-17.9-28.2-27.3
			c-4.4-4.6-4.2-11.9,0.5-16.3c4.6-4.4,11.9-4.2,16.3,0.4c8.5,9,17.5,17.7,26.8,25.9C642.8,2160.7,644.2,2164.6,643.6,2168.5
			L643.6,2168.5z M576.6,2093.9c-1,6.3-6.9,10.5-13.2,9.5c-3-0.5-5.8-2.2-7.5-4.7c-7.5-10.6-14.8-21.6-21.4-32.9
			c-3.1-5.5-1.1-12.6,4.4-15.7c5.4-3,12.1-1.3,15.4,3.9c6.3,10.7,13.2,21.2,20.3,31.2C576.3,2087.8,577.1,2090.8,576.6,2093.9
			L576.6,2093.9z M527.8,2006.3c-1,6.3-6.8,10.6-13.1,9.6c-4-0.6-7.4-3.3-8.9-7c-5-12-9.6-24.4-13.6-36.8c-2-6.1,1.3-12.6,7.4-14.6
			c6.1-2,12.6,1.3,14.6,7.4c3.8,11.8,8.1,23.5,12.9,35C527.9,2002,528.2,2004.1,527.8,2006.3L527.8,2006.3z M567.8,1585.7
			c-0.3,1.6-0.9,3.2-1.8,4.5c-6.8,10.3-13.3,21-19.3,31.9c-2.8,5.7-9.6,8.1-15.4,5.4s-8.1-9.6-5.4-15.4c0.2-0.3,0.3-0.7,0.5-1
			c6.3-11.4,13.1-22.8,20.3-33.6c3.5-5.3,10.6-6.8,15.9-3.4C566.6,1576.6,568.6,1581.2,567.8,1585.7L567.8,1585.7z M499.8,1910.1
			c-1,6.3-6.9,10.5-13.2,9.5c-4.8-0.8-8.7-4.5-9.5-9.4c-2.2-12.8-3.9-25.9-5.1-38.9c-0.6-6.3,4.1-11.9,10.5-12.5
			c6.3-0.6,11.9,4.1,12.5,10.5l0,0c1.1,12.3,2.7,24.8,4.8,36.9C500,1907.5,500,1908.8,499.8,1910.1z M522.2,1674.8
			c-0.1,0.8-0.3,1.5-0.6,2.2c-4.4,11.6-8.3,23.5-11.7,35.4c-1.7,6.1-8.1,9.7-14.2,8s-9.7-8.1-8-14.2c3.6-12.6,7.7-25.1,12.3-37.3
			c2.3-5.9,8.9-8.9,14.8-6.7C520,1664.2,523,1669.5,522.2,1674.8L522.2,1674.8z M493.8,1810.1c-1,6.3-7,10.5-13.2,9.5
			c-5.8-1-9.9-6.1-9.6-11.9c0.7-13,2-26.1,3.8-39v-0.3c1-6.3,7-10.5,13.3-9.5c6.1,1,10.3,6.7,9.5,12.9c-1.7,12.3-2.9,24.8-3.6,37.1
			C493.9,1809.3,493.8,1809.7,493.8,1810.1z"/>
		<path class="st2" d="M618.5,1522.6c-0.4,2.3-1.4,4.5-3.1,6.2c-4.1,4.3-8.2,8.7-12.2,13.2c-4.3,4.6-11.6,4.9-16.3,0.6
			c-4.5-4.2-4.9-11.2-0.9-15.9c4.2-4.7,8.5-9.3,12.8-13.8c4.4-4.6,11.7-4.7,16.3-0.3C617.8,1515.1,619.1,1518.9,618.5,1522.6z"/>
	</g>
	<g class="st1">
		<path class="st2" d="M941.3,1385.3c-0.9,5.6-5.7,9.7-11.4,9.7c-5.9,0-12,0.1-17.9,0.3c-6.3,0.3-11.8-4.6-12.1-10.9
			c-0.3-6.3,4.6-11.8,10.9-12.1c0.1,0,0.2,0,0.2,0c6.3-0.3,12.6-0.4,18.9-0.4c6.4,0,11.5,5.2,11.5,11.5l0,0
			C941.4,1384.1,941.4,1384.7,941.3,1385.3z"/>
		<path class="st2" d="M1383.8,1904.3c-0.8,5.2-1.8,10.5-2.8,15.7c-1.1,6.3-7.1,10.4-13.4,9.2c-6.3-1.1-10.4-7.1-9.2-13.4
			c0-0.1,0-0.2,0.1-0.3c2.4-12.1,4.2-24.2,5.6-36.3c0.5-6.3,6.1-11,12.4-10.5c6.3,0.5,11,6.1,10.5,12.4c0,0.2,0,0.4-0.1,0.7
			C1386,1889.3,1384.9,1896.8,1383.8,1904.3z M1365.2,1978.6c-0.1,0.6-0.3,1.3-0.5,1.9c-4.1,12.2-8.8,24.3-14,36
			c-2.4,5.9-9.1,8.7-15,6.3s-8.7-9.1-6.3-15c0.1-0.2,0.2-0.4,0.2-0.6c4.9-11.1,9.4-22.7,13.3-34.2c2.1-6,8.6-9.2,14.6-7.1
			C1362.9,1967.8,1366.1,1973.2,1365.2,1978.6L1365.2,1978.6z M1389.3,1821.3c-1,6.3-7,10.5-13.2,9.5c-5.4-0.9-9.5-5.5-9.6-11
			c-0.3-12.2-1.2-24.4-2.5-36.6c-0.9-6.3,3.5-12.1,9.8-13s12.1,3.5,13,9.8c0,0.2,0.1,0.4,0.1,0.6c1.4,12.8,2.3,25.7,2.7,38.5
			C1389.5,1819.9,1389.4,1820.6,1389.3,1821.3L1389.3,1821.3z M1323.3,2067.9c-0.2,1.5-0.8,2.9-1.6,4.2c-6.7,10.9-14,21.7-21.6,32
			c-3.8,5.1-11,6.2-16.1,2.4s-6.2-11-2.4-16.1l0,0c7.2-9.8,14.1-20,20.5-30.4c3.3-5.4,10.4-7.1,15.8-3.8
			C1322,2058.7,1324.1,2063.3,1323.3,2067.9L1323.3,2067.9z M1375.8,1723.7c-1,6.3-6.9,10.5-13.2,9.5c-4.5-0.7-8.2-4.1-9.3-8.5
			c-3-11.8-6.5-23.6-10.5-35.1c-2.1-6,1.1-12.6,7.1-14.6s12.6,1.1,14.6,7.1c4.2,12.1,7.9,24.6,11,37
			C1375.9,1720.5,1376,1722.1,1375.8,1723.7z M1341.2,1631.3c-1,6.3-6.9,10.5-13.2,9.5c-3.6-0.6-6.8-2.9-8.4-6.2
			c-5.5-10.9-11.5-21.6-17.9-32c-3.3-5.4-1.6-12.5,3.8-15.8c5.4-3.3,12.5-1.6,15.8,3.8c6.7,10.9,13.1,22.2,18.8,33.7
			C1341.2,1626.5,1341.6,1628.9,1341.2,1631.3L1341.2,1631.3z M1287.3,1548.7c-1,6.3-6.9,10.5-13.2,9.5c-2.8-0.4-5.3-1.9-7.1-4
			c-7.7-9.4-16-18.6-24.5-27.3c-4.2-4.8-3.6-12.1,1.2-16.2c4.4-3.8,11-3.7,15.3,0.2c8.9,9.2,17.6,18.9,25.7,28.8
			C1286.9,1542.2,1287.8,1545.5,1287.3,1548.7L1287.3,1548.7z M1216.6,1479.9c-1,6.3-6.9,10.5-13.2,9.5c-1.9-0.3-3.7-1.1-5.2-2.3
			c-9.6-7.5-19.7-14.7-29.8-21.3c-5.3-3.6-6.6-10.7-3-16c3.5-5.1,10.4-6.6,15.6-3.3c10.7,7,21.3,14.6,31.4,22.4
			C1215.7,1471.5,1217.3,1475.7,1216.6,1479.9L1216.6,1479.9z M1132.6,1428.2c-1,6.3-7,10.5-13.3,9.5c-1-0.2-2.1-0.5-3-0.9
			c-11-5.2-22.4-10-33.8-14.2c-6-2.2-9-8.8-6.8-14.8c2.2-6,8.8-9,14.8-6.8c12,4.5,24,9.5,35.6,15
			C1130.8,1418.2,1133.4,1423.1,1132.6,1428.2L1132.6,1428.2z M1039.3,1396.2c0,0.2-0.1,0.5-0.1,0.7c-1.4,6.2-7.5,10.1-13.7,8.7
			c0,0,0,0,0,0c-8.8-2-17.7-3.7-26.5-5.1c-3.2-0.5-6.4-1-9.6-1.4c-6.3-0.9-10.7-6.7-9.8-13c0,0,0,0,0,0c0.8-6.2,6.5-10.6,12.7-9.9
			c0.1,0,0.2,0,0.3,0c3.3,0.5,6.7,1,10.1,1.5c9.3,1.5,18.7,3.3,27.9,5.4C1036.5,1384.5,1040.3,1390.2,1039.3,1396.2L1039.3,1396.2z"
			/>
		<path class="st2" d="M1262.4,2146c-0.4,2.3-1.5,4.5-3.1,6.2c-4.3,4.5-8.9,8.9-13.4,13.2c-4.7,4.2-12,3.8-16.3-0.9
			c-4.1-4.6-3.9-11.5,0.4-15.8c4.3-4.1,8.6-8.3,12.8-12.6c4.4-4.5,11.7-4.6,16.3-0.2C1261.8,2138.5,1263,2142.3,1262.4,2146z"/>
	</g>
	<path class="st2" d="M1133.1,2109.4c2-1.2,3-3.4,2.6-5.7l-12.5-64.2c22.6-21.2,41.6-46,56.2-73.3l65.2-4.7c2.3-0.2,4.2-1.8,4.8-4
		l20.2-75.9c0.6-2.2-0.3-4.6-2.2-5.8l-54.3-36.5c0.9-31-3.2-61.9-12.2-91.6l42.9-49.5c1.5-1.7,1.7-4.2,0.6-6.2l-39.3-68
		c-1.1-2-3.4-3-5.7-2.6l-64.2,12.5c-21.2-22.6-46-41.6-73.3-56.2l-4.7-65.3c-0.2-2.3-1.8-4.2-4-4.8l-75.9-20.2
		c-2.2-0.6-4.6,0.3-5.8,2.2L935,1544c-31-0.9-61.9,3.2-91.6,12.2l-49.5-42.9c-1.7-1.5-4.2-1.7-6.2-0.6l-68,39.3
		c-2,1.1-3,3.4-2.6,5.7l12.5,64.3c-22.6,21.2-41.6,46-56.2,73.3l-65.3,4.7c-2.3,0.2-4.2,1.8-4.8,4l-20.2,75.9
		c-0.6,2.2,0.3,4.6,2.2,5.8l54.3,36.5c-0.9,31,3.2,61.9,12.2,91.6l-42.9,49.5c-1.5,1.7-1.7,4.2-0.6,6.2l39.3,68c1.2,2,3.4,3,5.7,2.6
		l64.3-12.6c21.2,22.6,46,41.6,73.3,56.2l4.7,65.2c0.2,2.3,1.8,4.2,4,4.8l75.8,20.3c2.2,0.6,4.6-0.3,5.8-2.2l36.5-54.3
		c31,0.9,61.9-3.2,91.6-12.2l49.5,42.9c1.7,1.5,4.2,1.7,6.2,0.6L1133.1,2109.4z"/>
	<path class="st3" d="M1004.4,1843.4c-6.9,43.1-47.5,72.4-90.6,65.4c-43.1-6.9-72.4-47.5-65.4-90.6c6.9-43.1,47.5-72.4,90.6-65.4
		c38.7,6.2,66.9,39.9,66.4,79C1005.3,1835.7,1005,1839.5,1004.4,1843.4z M866.8,1821c-5.4,33,17,64.1,50,69.5
		c33,5.4,64.1-17,69.5-50s-17-64.1-50-69.5c-18.9-3.1-38.2,3-52,16.4C875,1796.4,868.8,1808.2,866.8,1821z"/>
	<path class="st3" d="M1117.2,1859.9c-1.1,6.6-2.4,13.1-4.2,19.5l0,0c-0.5,2-1.1,4.1-1.7,6.1c-3,10-6.8,19.6-11.3,29
		c-0.1,0.1-0.1,0.3-0.2,0.4l-0.5,1.1c-0.3,0.7-0.7,1.4-1,2.1c-1.2,2.3-4,3.1-6.2,1.9c-2.2-1.2-3.1-3.9-2-6.1
		c46.6-90.8,10.8-202.3-80-248.9s-202.3-10.8-248.9,80c-6,11.7-10.8,24.1-14.2,36.8c-26.3,98.5,32.5,200,131,226.2
		c32.3,8.6,66.3,8.3,98.5-0.8c0.6-0.2,1.3-0.2,2-0.1c2.5,0.4,4.3,2.7,3.9,5.2c-0.3,1.8-1.6,3.3-3.4,3.8
		c-33.7,9.6-69.5,9.9-103.4,0.9c-103.4-27.6-165-134.2-137.5-237.5c25.6-96.1,119.8-157.3,218-141.7c6.5,1.1,13,2.5,19.5,4.2
		c96.1,25.6,157.3,119.8,141.6,218L1117.2,1859.9z"/>
	<g class="st1">
		<path class="st2" d="M1153.9,2716.8c-0.5,3.1-3,5.5-6.1,5.9c-6,0.8-12.1,1.3-18.1,1.7c-3.9,0.1-7.2-3-7.3-6.9
			c-0.1-3.7,2.7-6.9,6.4-7.3c5.7-0.4,11.5-0.9,17.3-1.7c3.9-0.5,7.4,2.3,7.9,6.1c0,0,0,0,0,0
			C1154.1,2715.5,1154.1,2716.2,1153.9,2716.8z"/>
		<path class="st2" d="M1099.3,2718.7c-0.6,3.6-3.8,6.2-7.4,6c-10.4-0.6-20.8-1.7-31.1-3.4c-2.2-0.4-4.3-0.7-6.5-1.1
			c-3.8-0.8-6.3-4.4-5.7-8.3c0.7-3.9,4.4-6.4,8.3-5.7c2.1,0.4,4.1,0.7,6.2,1.1c9.8,1.6,19.7,2.7,29.7,3.2c3.9,0.2,6.9,3.6,6.7,7.5
			C1099.4,2718.2,1099.3,2718.4,1099.3,2718.7z M1026.8,2705.4c-0.6,3.9-4.2,6.5-8.1,5.9c-0.3-0.1-0.7-0.1-1-0.2
			c-12-3.8-23.9-8.3-35.3-13.5c-3.6-1.6-5.2-5.8-3.5-9.4s5.8-5.2,9.4-3.5l0,0c11,5,22.2,9.3,33.7,12.8
			C1025.2,2698.5,1027.3,2701.9,1026.8,2705.4z M959.6,2674.9c-0.1,0.9-0.5,1.8-1,2.6c-2.1,3.3-6.4,4.4-9.8,2.3c0,0,0,0,0,0
			c-10.8-6.6-21.1-13.9-31-21.8c-3.1-2.4-3.6-6.9-1.1-10c2.4-3.1,6.9-3.6,10-1.1c9.4,7.5,19.3,14.4,29.5,20.7
			C958.7,2669.3,960,2672.1,959.6,2674.9L959.6,2674.9z M901.9,2628.9c-0.6,3.9-4.3,6.5-8.1,5.9c-1.5-0.2-2.9-1-4-2.1
			c-8.8-9-17.1-18.6-24.8-28.7c-2.3-3.2-1.6-7.6,1.6-9.9c3.1-2.2,7.4-1.6,9.7,1.3c7.3,9.6,15.2,18.7,23.6,27.3
			C901.5,2624.4,902.2,2626.6,901.9,2628.9L901.9,2628.9z M857.3,2570.1c-0.6,3.9-4.3,6.5-8.2,5.9c-2.1-0.3-3.9-1.6-5-3.4
			c-6.3-10.9-12-22.2-17-33.8c-1.5-3.6,0.1-7.8,3.7-9.3c3.6-1.5,7.8,0.1,9.3,3.7l0,0c4.7,11.1,10.2,21.8,16.2,32.2
			C857.2,2566.8,857.5,2568.5,857.3,2570.1L857.3,2570.1z M828.3,2502.3c-0.6,3.9-4.2,6.5-8.1,5.9c-2.7-0.4-5-2.4-5.7-5.1
			c-3.5-12.1-6.3-24.4-8.2-36.9c-0.3-3.9,2.6-7.3,6.5-7.7c3.5-0.3,6.7,2,7.5,5.4c1.9,11.9,4.5,23.6,7.8,35.2
			C828.3,2500.2,828.4,2501.3,828.3,2502.3L828.3,2502.3z M816.7,2429.5c-0.6,3.9-4.3,6.5-8.2,5.9c-3.3-0.6-5.8-3.4-5.9-6.8
			c-0.4-12.6-0.1-25.2,1.1-37.8c0.4-3.9,3.8-6.8,7.7-6.4s6.8,3.8,6.4,7.7l0,0c-1.1,12-1.4,24-1,36.1
			C816.8,2428.6,816.7,2429,816.7,2429.5L816.7,2429.5z M833.4,2320.4c-0.1,0.4-0.2,0.8-0.3,1.2c-3.4,9.9-6.4,19.9-8.7,30.1
			c-0.4,1.6-0.7,3.1-1,4.6c-0.8,3.8-4.6,6.3-8.5,5.4c-3.8-0.8-6.3-4.6-5.4-8.4l0,0c0.3-1.6,0.7-3.2,1.1-4.9
			c2.5-10.7,5.5-21.2,9.1-31.6c1.3-3.7,5.4-5.6,9.1-4.3C832,2313.7,833.9,2317,833.4,2320.4L833.4,2320.4z"/>
	</g>
	<g class="st1">
		<path class="st2" d="M1413,2462.9c-0.9,3.8-4.8,6.2-8.6,5.2c-3.4-0.8-5.6-3.9-5.4-7.4c1.7-11.7,2.8-23.5,3.1-35.4
			c0.2-3.9,3.6-6.9,7.5-6.7c3.8,0.2,6.7,3.3,6.7,7.1C1416,2438.1,1414.9,2450.5,1413,2462.9L1413,2462.9z M1405.5,2498.4
			c0,0.3-0.1,0.5-0.2,0.8c-3.3,12-7.3,23.7-11.9,35.3c-1.5,3.6-5.6,5.4-9.3,3.9c-3.6-1.5-5.4-5.6-3.9-9.3l0,0
			c4.5-11,8.3-22.2,11.4-33.6c1.1-3.8,5-6,8.8-4.9C1403.9,2491.5,1406.1,2494.9,1405.5,2498.4L1405.5,2498.4z M1414.9,2390.3
			c-0.6,3.9-4.3,6.5-8.2,5.9c-3.2-0.5-5.6-3.1-5.9-6.3c-1.2-11.8-3-23.5-5.6-35.1c-0.8-3.8,1.7-7.6,5.6-8.4c3.7-0.8,7.4,1.6,8.3,5.3
			c2.7,12.1,4.6,24.4,5.8,36.8C1415,2389.1,1414.9,2389.7,1414.9,2390.3z M1378.1,2565.7c-0.1,0.8-0.4,1.6-0.8,2.3
			c-6.1,10.8-12.8,21.3-20.1,31.3c-2.4,3.1-6.9,3.6-10,1.2c-2.9-2.3-3.6-6.5-1.5-9.6c7-9.6,13.4-19.5,19.2-29.9
			c1.9-3.4,6.3-4.6,9.7-2.7C1377.2,2559.8,1378.6,2562.7,1378.1,2565.7L1378.1,2565.7z M1399.1,2319.5c-0.6,3.9-4.3,6.5-8.1,5.9
			c-2.6-0.4-4.7-2.2-5.6-4.6c-3.9-11.2-8.6-22.1-13.8-32.7c-1.8-3.5-0.5-7.8,3-9.6c3.5-1.8,7.8-0.5,9.6,3c0,0.1,0.1,0.2,0.1,0.3
			c5.5,11.1,10.4,22.6,14.5,34.3C1399.2,2317.1,1399.3,2318.3,1399.1,2319.5L1399.1,2319.5z M1366.8,2254.5
			c-0.6,3.9-4.3,6.5-8.1,5.9c-2-0.3-3.7-1.4-4.8-3.1c-6.5-9.9-13.6-19.4-21.3-28.4c-2.6-2.9-2.4-7.4,0.5-10c2.9-2.6,7.4-2.4,10,0.5
			c0.1,0.1,0.2,0.2,0.3,0.4c8,9.5,15.5,19.4,22.3,29.8C1366.7,2250.9,1367.1,2252.7,1366.8,2254.5L1366.8,2254.5z M1319.9,2199.1
			c-0.2,1.4-0.8,2.7-1.8,3.7c-2.7,2.9-7.1,3-10,0.4c-8.7-8.1-17.9-15.6-27.5-22.5c-3.2-2.2-4.1-6.7-1.8-9.9c2.2-3.2,6.7-4.1,9.9-1.8
			c0.1,0.1,0.2,0.1,0.3,0.2c10.1,7.3,19.7,15.2,28.8,23.6C1319.5,2194.4,1320.3,2196.8,1319.9,2199.1L1319.9,2199.1z"/>
		<path class="st2" d="M1335,2624.5c-0.2,1.4-0.9,2.7-1.8,3.7c-4.2,4.4-8.5,8.8-12.8,12.9c-2.9,2.6-7.4,2.3-10-0.6
			c-2.5-2.8-2.4-7,0.3-9.7c4.1-3.9,8.3-8.1,12.2-12.3c2.7-2.9,7.2-3,10.1-0.3C1334.6,2619.8,1335.4,2622.2,1335,2624.5L1335,2624.5z
			"/>
	</g>
	<path class="st2" d="M1245.3,2604.1c1.3-0.8,2-2.3,1.7-3.8l-8.4-43c15.1-14.2,27.8-30.8,37.6-49.1l43.7-3.1
		c1.5-0.1,2.8-1.2,3.2-2.7l13.5-50.8c0.4-1.5-0.2-3.1-1.5-3.9l-36.3-24.4c0.6-20.7-2.1-41.4-8.1-61.3l28.7-33.1
		c1-1.2,1.2-2.8,0.4-4.2l-26.3-45.5c-0.8-1.3-2.3-2-3.8-1.7l-42.9,8.5c-14.2-15.1-30.8-27.8-49.1-37.6l-3.1-43.7
		c-0.1-1.5-1.2-2.8-2.7-3.2l-50.8-13.5c-1.5-0.4-3.1,0.2-3.9,1.5l-24.5,36.3c-20.7-0.6-41.4,2.1-61.3,8.2l-33.1-28.7
		c-1.2-1-2.8-1.2-4.2-0.4l-45.5,26.3c-1.3,0.8-2,2.3-1.7,3.8l8.4,43c-15.1,14.2-27.9,30.8-37.7,49.1l-43.7,3.1
		c-1.5,0.1-2.8,1.2-3.2,2.7l-13.5,50.8c-0.4,1.5,0.2,3.1,1.5,3.9l36.3,24.4c-0.6,20.7,2.1,41.4,8.2,61.3l-28.7,33.1
		c-1,1.2-1.2,2.8-0.4,4.2l26.3,45.5c0.8,1.3,2.3,2,3.8,1.7l43-8.4c14.2,15.1,30.8,27.8,49.1,37.6l3.1,43.7c0.1,1.5,1.2,2.8,2.7,3.2
		l50.8,13.5c1.5,0.4,3.1-0.2,3.9-1.5l24.5-36.3c20.7,0.6,41.4-2.1,61.3-8.2l33.1,28.7c1.2,1,2.8,1.2,4.2,0.4L1245.3,2604.1z"/>
	<path class="st3" d="M1160.1,2426.2c-4.8,29.4-32.4,49.3-61.8,44.6s-49.3-32.4-44.6-61.8c4.8-29.4,32.4-49.3,61.8-44.6
		c26.3,4.3,45.6,27.2,45.2,53.9C1160.7,2421,1160.5,2423.6,1160.1,2426.2z M1068,2411.2c-0.3,1.9-0.5,3.9-0.5,5.8
		c-0.3,21.8,17.2,39.8,39,40.1c21.8,0.3,39.8-17.2,40.1-39l0,0c0.3-21.8-17.2-39.8-39.1-40C1087.9,2377.8,1071.1,2391.9,1068,2411.2
		z"/>
	<path class="st3" d="M1238.6,2437.9c-2.2,13.5-6.4,26.6-12.5,38.8l-0.6,1.1c-1.8,3.5-6.1,4.9-9.6,3.1c-3.5-1.8-4.9-6.1-3.1-9.6l0,0
		c3.9-7.6,6.9-15.6,9.1-23.8l0,0c0.1-0.4,0.2-0.9,0.3-1.4c5-19.2,5-39.4,0.2-58.6c-2.6-10.5-6.7-20.5-12-29.9c0-0.1-0.1-0.2-0.1-0.2
		c-0.1-0.2-0.3-0.5-0.4-0.7c-15.8-27.5-42-47.6-72.7-55.7c-4-1.1-8-1.9-12-2.6c-65.3-10.4-126.6,34.2-137,99.4
		c-10.4,65.3,34.2,126.6,99.4,137c17.2,2.7,34.8,1.7,51.6-3.1c3.8-1.1,7.7,1.1,8.8,4.9c1.1,3.8-1.1,7.7-4.9,8.8
		c-18.8,5.4-38.6,6.6-58,3.4c-4.5-0.7-8.9-1.7-13.3-2.8c-71.4-19-113.9-92.4-94.9-163.8c17.7-66.3,82.6-108.5,150.4-97.7
		c4.5,0.7,9,1.7,13.5,2.9C1207.8,2305.2,1249.4,2370.9,1238.6,2437.9z"/>
	
		<linearGradient id="SVGID_2_" gradientUnits="userSpaceOnUse" x1="1401.2216" y1="1438.4352" x2="3145.814" y2="1438.4352" gradientTransform="matrix(1 0 0 -1 0 2798.6609)">
		<stop  offset="0" style="stop-color:#09005D"/>
		<stop  offset="1" style="stop-color:#1A0F91"/>
	</linearGradient>
	<path class="st4" d="M1429.8,138.7c-9.2,433.4-39,1928.5-24.8,2458.3c1.5,56.1,40,101.2,88,103c237.3,9.1,1107.2,32.1,1495.3,13.1
		c80.8-4,145.1-80.6,146.8-175.2c8.1-454.9,25.9-1734.5-16.4-2320.7C3113.6,147,3066.5,91,3006.5,84
		C2748.1,53.8,1874.5-20.2,1539.1,5.3C1478.7,9.9,1431.3,67.8,1429.8,138.7z"/>
	<path class="st2" d="M1535.6,271.7c-12.8,349.8-53.1,1513.7-40.3,1944c1.9,62.9,44.3,113.8,98,117.4
		c221.1,15.1,975.6,48.5,1300,18.1c58.4-5.5,104.2-60.7,107.4-129.2c16.4-356.9,63.6-1440.6,51.4-1866.2
		c-2-67.9-46.9-123.3-104.7-129.4c-239.2-25.1-1041-84.9-1316.6-67.3C1579,162.6,1537.9,211.1,1535.6,271.7z"/>
	<path class="st5" d="M1597.6,340.6c-11.7,325.4-48.5,1408.1-36.8,1808.4c1.7,58.5,40.5,105.8,89.6,109.3
		c202.3,14.1,892.3,45.1,1189,16.9c53.4-5.1,95.3-56.5,98.2-120.2c15-332,58.2-1340.1,47-1735.9c-1.8-63.1-42.9-114.7-95.8-120.4
		c-218.8-23.4-952.1-79-1204.2-62.6C1637.3,239.1,1599.6,284.3,1597.6,340.6z"/>
	
		<linearGradient id="SVGID_3_" gradientUnits="userSpaceOnUse" x1="2016.2157" y1="2708.9919" x2="2343.5115" y2="2708.9919" gradientTransform="matrix(1 0 0 -1 0 2798.6609)">
		<stop  offset="0" style="stop-color:#4F52FF"/>
		<stop  offset="1" style="stop-color:#4042E2"/>
	</linearGradient>
	<path class="st6" d="M2016.2,81L2016.2,81c0,13.3,8.9,24.3,20.2,25c56,3.4,213.9,13.2,284.5,17.9c13.9,0.9,24.8-13.7,22.2-29.7
		l-0.4-2.7c-1.8-10.9-9.6-19.2-19-20.2c-47.7-5.1-191.6-19.3-287-15.3C2025.2,56.5,2016.2,67.6,2016.2,81z"/>
	<path class="st7" d="M1935.6,1733.4h687.9c7,0,12.8,5.7,12.8,12.8v186.1c0,7-5.7,12.8-12.8,12.8h-687.9c-7,0-12.8-5.7-12.8-12.8
		v-186.1C1922.9,1739.1,1928.6,1733.4,1935.6,1733.4z"/>
	<path class="st7" d="M1938.9,1999.1h687.9c7,0,12.8,5.7,12.8,12.8v80.3c0,7-5.7,12.8-12.8,12.8h-687.9c-7,0-12.8-5.7-12.8-12.8
		v-80.3C1926.1,2004.8,1931.9,1999.1,1938.9,1999.1z"/>
	<circle class="st8" cx="2204.4" cy="1317" r="228.9"/>
	<circle class="st8" cx="2204.4" cy="1317" r="221.3"/>
	<path class="st9" d="M2020.1,1236.4c-4.1,0.1-7.5-3.2-7.5-7.3c0-1.1,0.2-2.3,0.7-3.3c34.3-72.3,106.5-119,186.5-120.4
		c12.8-0.3,25.6,0.6,38.2,2.6c4,0.6,6.9,4.3,6.3,8.3c-0.6,4-4.3,6.9-8.3,6.3c-0.1,0-0.2,0-0.3-0.1c-11.8-1.9-23.7-2.7-35.6-2.4
		c-74.4,1.4-141.6,44.8-173.5,112C2025.4,1234.7,2022.9,1236.3,2020.1,1236.4z"/>
	<circle class="st10" cx="2209.3" cy="1321.7" r="187.3"/>
	<path class="st8" d="M2193.9,1461.3l-0.4-20.4c-21.3-0.4-42.4-5-57.4-11.2c-5.4-2.3-8.3-8.1-6.8-13.8l4.8-19.1
		c1.6-6.4,8-10.2,14.4-8.6c0.5,0.1,1.1,0.3,1.6,0.5c14.9,5.9,33.3,10.4,53,10c20.4-0.4,35.6-7.7,35.3-21.9
		c-0.3-12.8-12.2-20.2-40.8-27.2c-40.8-10.2-70.3-27.3-71.1-63c-0.7-32.3,22.4-57.4,63.1-64.8l-0.4-20.4c-0.1-6.6,5.1-12,11.6-12.1
		l12-0.3c6.6-0.1,12,5.1,12.1,11.6c0,0,0,0,0,0l0.4,18.3c19.7,0.4,34.1,3.4,45.5,7.2c5.9,2,9.2,8.1,7.7,14.1l-4.4,17.7
		c-1.6,6.3-8,10.2-14.3,8.7c-0.4-0.1-0.8-0.2-1.1-0.3c-14.3-5.1-29.4-7.5-44.6-7.1c-24.3,0.5-31,10.7-30.8,19.7
		c0.2,11.1,15,18.4,46.7,27.4c45.4,12.6,64.5,30.9,65.2,64.5c0.7,30.9-21.6,59.1-65.9,67l0.5,22.8c0.1,6.6-5.1,12-11.6,12.1
		c0,0,0,0,0,0l-12,0.3C2199.5,1473.1,2194,1467.9,2193.9,1461.3C2193.9,1461.4,2193.9,1461.3,2193.9,1461.3z"/>
	<circle class="st8" cx="2488.2" cy="1033.8" r="292.2"/>
	
		<ellipse transform="matrix(0.7071 -0.7071 0.7071 0.7071 -2.1956 2062.2004)" class="st8" cx="2488.2" cy="1033.8" rx="282.4" ry="282.4"/>
	<path class="st9" d="M2253,928.6c-1.1,0-2.2-0.2-3.3-0.7c-3.6-1.7-5.1-6-3.4-9.6c43.9-91.9,134.4-150.3,236.1-152.5
		c16.2-0.4,32.4,0.8,48.4,3.3c3.9,0.8,6.4,4.5,5.7,8.4c-0.7,3.7-4.2,6.2-8,5.8c-15.2-2.4-30.5-3.5-45.8-3.1
		c-96.3,2.1-181.9,57.3-223.4,144.3C2258.2,927,2255.7,928.6,2253,928.6z"/>
	<circle class="st10" cx="2494.5" cy="1039.8" r="239.1"/>
	<path class="st8" d="M2474.8,1218l-0.6-26c-27.1-0.5-54.1-6.3-73.3-14.3c-6.9-2.9-10.6-10.4-8.7-17.6l6.1-24.4
		c2-8.1,10.3-13,18.4-11c0.7,0.2,1.3,0.4,2,0.6c19.1,7.5,42.5,13.3,67.7,12.7c26.1-0.6,45.4-9.8,45-28
		c-0.4-16.4-15.6-25.8-52.1-34.7c-52.1-13.1-89.7-34.8-90.7-80.4c-0.9-41.2,28.5-73.2,80.6-82.7l-0.6-26
		c-0.2-8.4,6.5-15.3,14.8-15.5l15.3-0.3c8.4-0.2,15.3,6.5,15.5,14.8l0.5,23.3c25.1,0.5,43.4,4.4,58.1,9.2c7.5,2.5,11.8,10.4,9.8,18
		l-5.6,22.5c-2,8.1-10.2,13.1-18.3,11.1c-0.5-0.1-1-0.3-1.4-0.4c-18.3-6.5-37.6-9.6-56.9-9.1c-31,0.7-39.6,13.7-39.3,25.2
		c0.3,14.2,19.1,23.5,59.6,35c57.9,16,82.3,39.4,83.2,82.3c0.9,39.4-27.6,75.4-84,85.5l0.6,29.1c0.2,8.4-6.5,15.3-14.8,15.5
		l-15.3,0.3C2482,1233,2475,1226.4,2474.8,1218z"/>
	<circle class="st8" cx="2884.5" cy="628.9" r="389"/>
	
		<ellipse transform="matrix(0.7071 -0.7071 0.7071 0.7071 400.1851 2223.8513)" class="st8" cx="2884.5" cy="628.9" rx="376.1" ry="376.1"/>
	<path class="st9" d="M2571.3,486.3c-1.1,0-2.2-0.2-3.2-0.7c-3.5-1.7-5-5.8-3.3-9.3c0,0,0,0,0,0c58.1-121.4,177.7-198.6,312.1-201.5
		c21.4-0.5,42.8,1,64,4.4c3.8,0.6,6.4,4.2,5.8,8s-4.2,6.4-8,5.8c-20.3-3.2-40.9-4.7-61.5-4.2c-129.1,2.8-244,76.9-299.8,193.6
		C2576.3,484.7,2573.9,486.3,2571.3,486.3z"/>
	
		<ellipse transform="matrix(0.7071 -0.7071 0.7071 0.7071 396.9708 2232.1162)" class="st10" cx="2892.9" cy="636.9" rx="318.3" ry="318.3"/>
	<path class="st8" d="M2866.8,874.1l-0.7-34.6c-36.1-0.7-72-8.4-97.6-19c-9.2-3.8-14.1-13.8-11.7-23.4l8.1-32.4
		c2.7-10.8,13.7-17.4,24.5-14.6c0.9,0.2,1.8,0.5,2.6,0.8c25.4,10,56.6,17.7,90.1,17c34.8-0.7,60.4-13.1,59.9-37.2
		c-0.5-21.8-20.8-34.3-69.4-46.3c-69.3-17.4-119.4-46.4-120.7-107.1c-1.2-54.8,38-97.5,107.3-110.2l-0.8-34.6
		c-0.2-11.1,8.6-20.4,19.8-20.6l20.3-0.4c11.1-0.2,20.4,8.6,20.6,19.7c0,0,0,0,0,0l0.7,31.1c33.4,0.6,57.9,5.8,77.3,12.2
		c10,3.3,15.7,13.8,13.1,24l-7.4,30c-2.7,10.8-13.6,17.4-24.3,14.7c-0.7-0.2-1.3-0.4-1.9-0.6c-24.3-8.6-50-12.7-75.8-12.1
		c-41.3,0.9-52.7,18.2-52.3,33.5c0.4,18.9,25.4,31.3,79.4,46.6c77.1,21.3,109.6,52.4,110.8,109.6c1.1,52.4-36.8,100.4-111.9,113.8
		l0.8,38.8c0.2,11.1-8.6,20.4-19.8,20.6l-20.3,0.4C2876.2,894.1,2867,885.3,2866.8,874.1z"/>
	<path class="st11" d="M656.7,0.9h1333c11.5,0,20.9,9.3,20.9,20.9v650.5c0,11.5-9.3,20.9-20.9,20.9h-1333
		c-11.5,0-20.9-9.3-20.9-20.9V21.8C635.9,10.2,645.2,0.9,656.7,0.9z"/>
	<path class="st12" d="M685.7,86.6h1261.9c11.5,0,20.9,9.3,20.9,20.9v552.8c0,11.5-9.3,20.9-20.9,20.9H685.7
		c-11.5,0-20.9-9.3-20.9-20.9V107.5C664.9,96,674.2,86.6,685.7,86.6z"/>
	<g class="st13">
		<rect x="707.5" y="198.2" class="st14" width="78.8" height="454.6"/>
	</g>
	<g class="st13">
		<rect x="813.4" y="198.2" class="st14" width="78.8" height="454.6"/>
	</g>
	<g class="st13">
		<rect x="917" y="198.2" class="st14" width="78.8" height="454.6"/>
	</g>
	<g class="st13">
		<rect x="1022.8" y="198.2" class="st14" width="78.8" height="454.6"/>
	</g>
	<g class="st13">
		<rect x="1123.2" y="198.2" class="st14" width="78.8" height="454.6"/>
	</g>
	<g class="st13">
		<rect x="1229" y="198.2" class="st14" width="78.8" height="454.6"/>
	</g>
	<g class="st13">
		<rect x="1332.6" y="198.2" class="st14" width="78.8" height="454.6"/>
	</g>
	<g class="st13">
		<rect x="1438.4" y="198.2" class="st14" width="78.8" height="454.6"/>
	</g>
	<g class="st13">
		<rect x="1543.9" y="198.2" class="st14" width="78.8" height="454.6"/>
	</g>
	<g class="st13">
		<rect x="1649.7" y="198.2" class="st14" width="78.8" height="454.6"/>
	</g>
	<g class="st13">
		<rect x="1753.3" y="198.2" class="st14" width="78.8" height="454.6"/>
	</g>
	<g class="st13">
		<rect x="1859.1" y="198.2" class="st14" width="78.8" height="454.6"/>
	</g>
	<path class="st11" d="M2010.9,145.6V43.4c0-23.9-19.7-43.4-43.6-43.4H679.1c-23.8,0.1-43.1,19.4-43,43.3c0,0,0,0.1,0,0.1v102.3
		H2010.9z"/>
	<rect x="708" y="433.3" class="st11" width="78.8" height="219.4"/>
	<rect x="813.8" y="366.2" class="st11" width="78.8" height="286.6"/>
	<rect x="917.4" y="486.8" class="st11" width="78.8" height="166"/>
	<rect x="1023.2" y="306" class="st11" width="78.8" height="346.8"/>
	<rect x="1123.7" y="248" class="st11" width="78.8" height="404.8"/>
	<rect x="1229.5" y="529.4" class="st11" width="78.8" height="123.4"/>
	<rect x="1333.1" y="406.2" class="st11" width="78.8" height="246.6"/>
	<rect x="1438.9" y="366.2" class="st11" width="78.8" height="286.6"/>
	<rect x="1544.4" y="425.5" class="st11" width="78.8" height="227.3"/>
	<rect x="1650.2" y="274.9" class="st11" width="78.8" height="377.9"/>
	<rect x="1753.8" y="306" class="st11" width="78.8" height="346.8"/>
	<rect x="1859.6" y="349.6" class="st11" width="78.8" height="303.2"/>
	<path class="st11" d="M1357.6,2710c-39.2,3.4-107.2,8.9-160.9,11.3c-32.2,1.4-50.8-1.7-61.5-6c0,1.2,0,2.3,0.1,3.4
		c0.3,5.7,4.9,10.2,10.5,10.5c101.3,5.7,181.9,2,210.6,0.2c4.4-0.2,7.7-3.9,7.5-8.3c-0.1-1.3-0.4-2.5-1.1-3.6
		C1361.3,2714.9,1359.5,2712.4,1357.6,2710z"/>
	
		<linearGradient id="SVGID_4_" gradientUnits="userSpaceOnUse" x1="-3330.7273" y1="122.4284" x2="-3108.3042" y2="122.4284" gradientTransform="matrix(1 0 0 -1 4465.9399 2798.6609)">
		<stop  offset="0" style="stop-color:#09005D"/>
		<stop  offset="1" style="stop-color:#1A0F91"/>
	</linearGradient>
	<path class="st15" d="M1196.8,2721.3c53.6-2.4,121.7-7.9,160.9-11.3c-38.6-47.3-160.9-79.1-160.9-79.1h-34.6
		c-23.8,34.3-27.2,66.9-26.9,84.4C1145.9,2719.5,1164.5,2722.7,1196.8,2721.3z"/>
	
		<linearGradient id="SVGID_5_" gradientUnits="userSpaceOnUse" x1="-3309.5942" y1="185.0241" x2="-3245.1743" y2="185.0241" gradientTransform="matrix(1 0 0 -1 4465.9399 2798.6609)">
		<stop  offset="0" style="stop-color:#FEBBBA"/>
		<stop  offset="1" style="stop-color:#FF928E"/>
	</linearGradient>
	<path class="st16" d="M1156.3,2574.4l3.2,64c0.3,7,5.6,12.7,12.5,13.7c8.7,1.3,17.6,0.6,26-2.1c6-2,10.5-7.1,11.6-13.3l11.1-62.3
		H1156.3z"/>
	<path class="st11" d="M755.4,2783.8c-17-3.1-24.7-14.5-27.9-26.7l-0.1,0.3c-2.6,12.9,3.4,26.1,14.9,32.5c14,7.7,29.3,9,41.2,8.3
		c12.7-0.6,24.3-7.5,30.9-18.4l0.1-0.2C801.7,2788,783.7,2788.9,755.4,2783.8z"/>
	
		<linearGradient id="SVGID_6_" gradientUnits="userSpaceOnUse" x1="-3738.4941" y1="108.0847" x2="-3609.7852" y2="108.0847" gradientTransform="matrix(1 0 0 -1 4465.9399 2798.6609)">
		<stop  offset="0" style="stop-color:#09005D"/>
		<stop  offset="1" style="stop-color:#1A0F91"/>
	</linearGradient>
	<path class="st17" d="M835.5,2594.2H807c-43.4-1.1-70.6,117.1-79.6,163c3.2,12.2,10.9,23.6,27.9,26.7c28.3,5.1,46.3,4.1,59.1-4.1
		c23.5-39.9,35.1-98.3,40.7-132.4C861.5,2608.6,835.5,2594.2,835.5,2594.2z"/>
	
		<linearGradient id="SVGID_7_" gradientUnits="userSpaceOnUse" x1="-3671.5852" y1="218.6499" x2="-3594.5642" y2="218.6499" gradientTransform="matrix(1 0 0 -1 4465.9399 2798.6609)">
		<stop  offset="0" style="stop-color:#FEBBBA"/>
		<stop  offset="1" style="stop-color:#FF928E"/>
	</linearGradient>
	<path class="st18" d="M810.7,2534.8l-15.8,62.9c-1.9,7.7,1.8,15.8,8.9,19.4c8.8,4.6,21.3,9.3,32.8,7.9c5.4-0.7,9.9-4.4,11.6-9.5
		l23.2-66.2L810.7,2534.8z"/>
	
		<linearGradient id="SVGID_8_" gradientUnits="userSpaceOnUse" x1="-3048.5383" y1="1049.8934" x2="-3706.1982" y2="-27.4067" gradientTransform="matrix(1 0 0 -1 4465.9399 2798.6609)">
		<stop  offset="0" style="stop-color:#4F52FF"/>
		<stop  offset="1" style="stop-color:#4042E2"/>
	</linearGradient>
	<path class="st19" d="M1367.2,1706c0,0-141.4,883.8-139.1,888.6c0,0-39,17.8-81.6,2.3c0,0,12.8-472.4,42.7-653.6
		c0,0-241.3,422.3-317.9,632.7c0,0-40-4.8-73.1-26.5c0,0,259.8-760.1,329.1-861.3L1367.2,1706z"/>
	
		<linearGradient id="SVGID_9_" gradientUnits="userSpaceOnUse" x1="1026.5298" y1="2513.9055" x2="1173.8197" y2="1411.7455" gradientTransform="matrix(1 0 0 -1 0 2798.6609)">
		<stop  offset="0" style="stop-color:#4F52FF"/>
		<stop  offset="1" style="stop-color:#4042E2"/>
	</linearGradient>
	<path class="st20" d="M1194.9,1940.2c-3.1,0-5.7-2.6-5.7-5.7c0-1.1,0.3-2.1,0.9-3l52.8-84.4c0.8-1.3,2.2-2.3,3.7-2.6l38.9-7.8
		c3.1-0.7,6.1,1.3,6.7,4.4c0.7,3.1-1.3,6.1-4.4,6.7c0,0-0.1,0-0.1,0l-36.5,7.3l-51.5,82.3
		C1198.7,1939.2,1196.9,1940.2,1194.9,1940.2z"/>
	
		<linearGradient id="SVGID_10_" gradientUnits="userSpaceOnUse" x1="1641.2396" y1="1501.4995" x2="1920.5896" y2="1953.5394" gradientTransform="matrix(1 0 0 -1 0 2798.6609)">
		<stop  offset="0" style="stop-color:#FEBBBA"/>
		<stop  offset="1" style="stop-color:#FF928E"/>
	</linearGradient>
	<path class="st21" d="M2016,840.6c0,0-95.4,21-153.4,47.8c-11.5,5.3-20.7,14.6-26,26.1c-17.3,38-69.3,133.3-170,178.8
		c14.5,19.3,37.8,59.3,48,126.6c60.5-45,112.7-120.2,137.8-243.5c0,0,19.1,10.4,42.9-1.2c12.6-6.1,27.1-14.8,38-21.6
		c10.9-6.7,18.8-17.3,22.1-29.7c4.2-16.3,1.7-30.6,1.7-46l49-15.2C2006.1,862.8,2021,857.3,2016,840.6z"/>
	<path class="st8" d="M1714.7,1219.9c-10.2-67.3-33.5-107.3-48-126.6c-62.6,28.3-143.9,37.3-247.6,1.4c-9.6-3.3-19.5-5.3-29.6-5.8
		c-55.2-3.2-236.9-9.1-387.4,40.6c-31.6,10.4-57.2,33.7-70.5,64.2c-40.7,93.4-106.6,306,76.3,413.4c11.8-29.3,26.6-57.3,44.1-83.5
		c-29.5-49.7-38.2-117.5,14.1-205.9c38.1,102.9,56,253,59.7,319.5c1.2,21.9-2.6,43.7-11.2,63.9l-0.9,2.2c-1.6,3.9,0.2,8.3,4,9.9
		c0.4,0.2,0.8,0.3,1.3,0.4c102.9,23.1,210,16.8,242,14.2c5.7-0.5,10.4-4.5,11.8-10.1c50.1-210.9,50.2-354.8,37.9-445.8
		C1457.6,1282.4,1600.8,1304.7,1714.7,1219.9z"/>
	<path class="st22" d="M1411,1279.1c-2.8,0-5.2-2.1-5.6-4.9c-11.8-88.8-35.5-127-35.7-127.3c-1.7-2.7-0.9-6.2,1.8-7.8
		c2.7-1.7,6.2-0.9,7.8,1.8c1,1.6,25.3,40.7,37.4,131.9c0.4,3.1-1.8,5.9-4.9,6.4C1411.5,1279,1411.3,1279.1,1411,1279.1z"/>
	
		<linearGradient id="SVGID_11_" gradientUnits="userSpaceOnUse" x1="-3292.1104" y1="1584.6721" x2="-3258.7302" y2="1759.8921" gradientTransform="matrix(1 0 0 -1 4465.9399 2798.6609)">
		<stop  offset="0" style="stop-color:#FEBBBA"/>
		<stop  offset="1" style="stop-color:#FF928E"/>
	</linearGradient>
	<path class="st23" d="M1156.9,966c0,0-10.4,110.1-19.6,142.7c-1.4,4.9,0.8,10.2,5.3,12.7c15.6,8.9,52.9,23.4,103.9-1.6
		c8.2-4.1,13.3-12.6,12.9-21.8l-4.5-106.4L1156.9,966z"/>
	
		<linearGradient id="SVGID_12_" gradientUnits="userSpaceOnUse" x1="-3201.7615" y1="1906.108" x2="-3392.1914" y2="1760.3981" gradientTransform="matrix(1 0 0 -1 4465.9399 2798.6609)">
		<stop  offset="0" style="stop-color:#FEBBBA"/>
		<stop  offset="1" style="stop-color:#FF928E"/>
	</linearGradient>
	<path class="st24" d="M1257.2,825.2c0,0,33.3,76.5,35.6,116.7c2.3,40.2,10.9,66.2-35.6,74.3c-46.4,8.1-85.6-15-106.8-55
		c0,0-33.2-61.7-25.8-86.9C1132.1,849,1257.2,825.2,1257.2,825.2z"/>
	
		<linearGradient id="SVGID_13_" gradientUnits="userSpaceOnUse" x1="-3335.8325" y1="2021.5303" x2="-3158.4824" y2="1793.1803" gradientTransform="matrix(1 0 0 -1 4465.9399 2798.6609)">
		<stop  offset="0" style="stop-color:#4F52FF"/>
		<stop  offset="1" style="stop-color:#4042E2"/>
	</linearGradient>
	<path class="st25" d="M1166.3,932.3l2.6-1.2c3.2-1.4,4.7-5.2,3.3-8.4c-0.1-0.1-0.1-0.2-0.2-0.4c-6.6-12.7-19.3-41.6-2.8-48.4
		c21.3-8.7,105.4-25.9,123.6-55.8c17.5-28.7,2-65.8-21.3-76.3c-1.5-0.7-3.4-0.1-4.2,1.4l-1.9,3.7c-0.8,1.5-2.7,2.1-4.3,1.3
		c-0.8-0.4-1.3-1.1-1.6-1.9l0,0c-0.5-1.7-2.2-2.6-3.9-2.2c-0.7,0.2-1.4,0.7-1.8,1.4c-5.6,8.9-20.7,23.4-61,30.9
		c-57.3,10.5-95.2,33.7-96.1,73.3c0,1.7-1.5,3.1-3.2,3.1c-0.6,0-1.2-0.2-1.7-0.5c-4.2-2.6-11-3.8-20,3.8
		c-15.7,13.2-9.3,47.5,25.2,75.8c1.4,1.1,1.6,3,0.5,4.4c-0.2,0.3-0.4,0.5-0.7,0.7c-6.3,4.1-15.6,13.8,8.6,26.7
		c25,13.3,43.6,12.3,50.8,11.1c1.7-0.3,2.9-1.9,2.6-3.6c0-0.1,0-0.1,0-0.2l-7.7-34.8c-0.4-1.7,0.7-3.4,2.4-3.8
		c0.2,0,0.5-0.1,0.7-0.1L1166.3,932.3z"/>
	
		<linearGradient id="SVGID_14_" gradientUnits="userSpaceOnUse" x1="-3225.3948" y1="1936.9955" x2="-3415.825" y2="1791.2855" gradientTransform="matrix(1 0 0 -1 4465.9399 2798.6609)">
		<stop  offset="0" style="stop-color:#FEBBBA"/>
		<stop  offset="1" style="stop-color:#FF928E"/>
	</linearGradient>
	<path class="st26" d="M1167.8,939.7c0,0-12.7-48.9-34.6-35.2c-21.9,13.7,11.4,54.8,29,56.6L1167.8,939.7z"/>
	<path class="st8" d="M1877.9,966.6c-3.1,0-5.7-2.6-5.7-5.7c0-1.3,0.5-2.6,1.3-3.6c3.6-4.5,35.8-43.8,48.4-50.9
		c4.1-2.3,6.6-4.6,7-6.6c0.1-0.6,0.1-1.3-0.1-1.8l-36,7.2l-21,18c-2.4,2-6,1.8-8-0.6s-1.8-6,0.6-8l0,0l22.1-19
		c0.7-0.6,1.6-1.1,2.6-1.3l41.7-8.3c2.2-0.5,4.5,0.5,5.8,2.4c3.3,4.8,4.4,9.6,3.3,14c-1.3,5.3-5.3,9.8-12.5,13.9
		c-8.1,4.5-32,32-45.2,48.2C1881.2,965.8,1879.6,966.6,1877.9,966.6z"/>
	
		<linearGradient id="SVGID_15_" gradientUnits="userSpaceOnUse" x1="-3173.6594" y1="2631.1687" x2="-3133.0195" y2="3093.3589" gradientTransform="matrix(1 0 0 -1 4465.9399 2798.6609)">
		<stop  offset="0" style="stop-color:#FEBBBA"/>
		<stop  offset="1" style="stop-color:#FF928E"/>
	</linearGradient>
	<path class="st27" d="M1166.8,1682.2l150.3-3.2c0,0-131.1-37.1-139.2-27c0,0-81.3-53.4-125.8-128.5c-17.6,26.2-32.4,54.2-44.1,83.5
		C1047.9,1630.5,1100.3,1671.2,1166.8,1682.2z"/>
	
		<linearGradient id="SVGID_16_" gradientUnits="userSpaceOnUse" x1="2204.8596" y1="2623.739" x2="2245.4995" y2="3085.939" gradientTransform="matrix(-1 0 0 -1 3330.3513 2798.6609)">
		<stop  offset="0" style="stop-color:#FEBBBA"/>
		<stop  offset="1" style="stop-color:#FF928E"/>
	</linearGradient>
	<path class="st28" d="M1162.5,1656.2c0,0-3.1,59.9,75.5,51.2c42.7-4.7,111.7-44.6,111.7-44.6S1170,1662.4,1162.5,1656.2z"/>
	
		<linearGradient id="SVGID_17_" gradientUnits="userSpaceOnUse" x1="3235.5808" y1="1067.1798" x2="2934.4609" y2="984.6497" gradientTransform="matrix(-1 -5.000000e-02 5.000000e-02 -1 4311.3481 2801.7593)">
		<stop  offset="0" style="stop-color:#09005D"/>
		<stop  offset="1" style="stop-color:#1A0F91"/>
	</linearGradient>
	<path class="st29" d="M1193.3,1672.3h0.9l373.8-0.4c9.1,0,16.6-7.4,16.6-16.5s-7.4-16.6-16.5-16.6c0,0,0,0,0,0l-373.8,0.4
		c-9.1-0.2-16.7,7-17,16.1C1177,1664.4,1184.2,1672,1193.3,1672.3L1193.3,1672.3L1193.3,1672.3z"/>
	
		<linearGradient id="SVGID_18_" gradientUnits="userSpaceOnUse" x1="2841.2246" y1="1417.6519" x2="2628.8247" y2="1193.1619" gradientTransform="matrix(-1 0 0 -1 4379.5015 2798.6609)">
		<stop  offset="0" style="stop-color:#09005D"/>
		<stop  offset="1" style="stop-color:#1A0F91"/>
	</linearGradient>
	<path class="st30" d="M1903.9,1336.5h-311.3c-22.9-0.1-43.8,13-53.7,33.7l-143.9,301.9h386.8c14.7,0,28-8.9,33.5-22.6l111.6-279.4
		C1933.5,1354,1921.5,1336.5,1903.9,1336.5z"/>
	<path class="st11" d="M1684.6,1491.3c-6.7,20.7-1.8,40.9,11.1,45s28.8-9.4,35.6-30.1s1.8-40.9-11.1-45S1691.4,1470.6,1684.6,1491.3
		z"/>
</g>
</svg>
