<?xml version="1.0" encoding="utf-8"?>
<!-- Generator: Adobe Illustrator 24.0.1, SVG Export Plug-In . SVG Version: 6.00 Build 0)  -->
<svg version="1.1" id="Layer_1" xmlns="http://www.w3.org/2000/svg" xmlns:xlink="http://www.w3.org/1999/xlink" x="0px" y="0px"
	 viewBox="0 0 2475 1650" style="enable-background:new 0 0 2475 1650;" xml:space="preserve">
<style type="text/css">
	.st0{fill:url(#SVGID_1_);}
	.st1{fill:#BDD0FB;}
	.st2{opacity:0.62;fill:#FFFFFF;enable-background:new    ;}
	.st3{fill:#DCE5FE;}
	.st4{fill:#045A63;}
	.st5{fill:#12C2E9;}
	.st6{fill:#0EB2CC;}
	.st7{fill:#A00854;}
	.st8{fill:#F54394;}
	.st9{opacity:0.74;}
	.st10{fill:#FFFFFF;}
	.st11{opacity:0.65;}
	.st12{opacity:0.78;}
	.st13{fill:url(#SVGID_2_);}
	.st14{fill:url(#SVGID_3_);}
	.st15{fill:url(#SVGID_4_);}
	.st16{fill:url(#SVGID_5_);}
	.st17{fill:url(#SVGID_6_);}
	.st18{fill:url(#SVGID_7_);}
	.st19{fill:url(#SVGID_8_);}
	.st20{fill:url(#SVGID_9_);}
	.st21{fill:url(#SVGID_10_);}
	.st22{fill:url(#SVGID_11_);}
	.st23{fill:url(#SVGID_12_);}
	.st24{fill:#F0F0F0;}
	.st25{clip-path:url(#SVGID_14_);}
	.st26{opacity:0.67;fill:#FFFFFF;enable-background:new    ;}
	.st27{fill:url(#SVGID_15_);}
	.st28{fill:url(#SVGID_16_);}
	.st29{fill:url(#SVGID_17_);}
	.st30{fill:url(#SVGID_18_);}
	.st31{fill:url(#SVGID_19_);}
	.st32{fill:url(#SVGID_20_);}
	.st33{fill:url(#SVGID_21_);}
	.st34{fill:url(#SVGID_22_);}
</style>
<title>bn_con9</title>
<g id="Illustration">
	
		<linearGradient id="SVGID_1_" gradientUnits="userSpaceOnUse" x1="117.8529" y1="859.7028" x2="2362.7429" y2="859.7028" gradientTransform="matrix(1 0 0 -1 0 1648.661)">
		<stop  offset="0" style="stop-color:#DAE3FE"/>
		<stop  offset="1" style="stop-color:#E9EFFD"/>
	</linearGradient>
	<path class="st0" d="M1984.5,532.4c-100.5-54.5,26.2-184-17.3-280.1c-8.1-17.9-23.9-40.5-78.7-67.7
		C1649.2,66,1279,124.4,1279,124.4c-313.8,49.5-355.3,126.1-493,76.5c-76.9-27.7-138.6-78.5-260-83.7c-38.9-1.7-110.6-4.7-181,28.6
		c-195.7,92.5-284.7,420-187.6,592c30.7,54.4,67.8,62.7,74.9,120.8c7.2,59-39.1,118.4-92,277.8c-83.4,251.3,242.8,429.2,526.2,272.7
		s244.3-172.7,619.8-9.1s647.4-32.7,884.4-210C2642.8,836.9,2111.8,601.4,1984.5,532.4z"/>
	<path class="st1" d="M948.5,1505.7c0,0,92.2-103.4,77.2-201.2s-89.8-86.1-123-28.3s-63.2,49.9-43.4-4.5s44.5-89.7,3.6-143.8
		s-45.2-77.1-22.2-125.4s51.9-116.7-39.7-141.1S618,912,639.4,1010.2s34.2,108.8,4.8,145.2s-17.2,51.3-13,75s-40.8,29.2-39.8-4.1
		s58.1-112,19.1-148.7s-115.5-37.1-135.1,47.8s43.2,123,40,153.7s-36.8-15.8-66.2,15.4s10.2,55.9,39.3,72.8
		c29.1,17,73,47.3,31.2,69.4s-81.3,1-55.7,69.1L948.5,1505.7z"/>
	<path class="st2" d="M759,932.2c-2.9,1.4-5.7,3.2-8.2,5.1c-2.5,1.9-4.9,4-7.1,6.3c-4.4,4.5-8.2,9.5-11.3,15
		c-5.9,10.7-9.5,22.6-10.5,34.9c-0.2,1.5-0.2,3-0.3,4.5s-0.2,3-0.1,4.5v4.5l0.2,4.5l0.1,2.3l0.3,2.3l0.5,4.5c0.5,3,0.9,6,1.5,8.9
		s1.2,5.9,2,8.8l1.1,4.4l1.2,4.2l4.7,16.9c6.2,22.5,12.2,45,17,67.7s7.8,45.5,7.1,68.1c-0.1,5.6-0.6,11.2-1.4,16.8
		c-0.7,5.5-1.9,11-3.5,16.4c-1.6,5.4-3.6,10.6-6,15.6c-2.7,5.6-4.9,11.4-6.5,17.4c-3,11.6-5.1,23.3-6.4,35.2
		c-1.4,11.7-2.5,23.3-3.3,35c-1.8,23.2-3.3,46.4-7.1,69.3c-0.5,2.9-1,5.7-1.6,8.5s-1.2,5.7-1.9,8.5s-1.5,5.6-2.2,8.4
		c-0.4,1.4-0.9,2.8-1.3,4.1s-0.8,2.8-1.4,4.1l-1.5,4.1c-0.5,1.4-1.2,2.7-1.8,4c-1.1,2.7-2.6,5.2-3.9,7.8c-3,5.1-6.6,9.9-10.8,14.1
		l1,0.9c4.7-4.1,8.8-8.7,12.4-13.8c3.4-5,6.3-10.4,8.7-15.9c4.9-11,8.1-22.4,10.8-34c5.3-23,7.8-46.4,10.7-69.5
		c1.5-11.6,2.7-23.1,4.5-34.5c1.6-11.3,4.1-22.6,7.3-33.6c1.7-5.3,3.7-10.5,6.2-15.6c2.8-5.6,5.2-11.3,7-17.3
		c1.8-5.8,3.2-11.8,4.1-17.8c1-6,1.6-12,1.9-18c1.1-24-2.2-47.6-6.7-70.8c-4.7-23.1-10.6-46-17.7-68.5c-1.8-5.6-3.5-11.3-5.3-16.8
		l-1.4-4.2l-1.3-4.1c-0.9-2.7-1.6-5.5-2.3-8.2s-1.3-5.5-1.9-8.3l-0.7-4.2c-0.3-1.4-0.5-2.8-0.6-4.2c-0.8-5.5-1.2-11.1-1.2-16.7
		c0-5.6,0.5-11.2,1.6-16.7c1.1-5.6,2.7-11,4.8-16.2c1.1-2.6,2.4-5.2,3.9-7.7c1.4-2.5,3-5,4.7-7.3c3.6-4.8,7.8-9.1,12.7-12.7
		L759,932.2z"/>
	<path class="st3" d="M955.2,1282.5c-2.8,18.3-6.6,36.5-11.4,54.3c-2.4,9-5.1,17.8-8,26.6c-0.7,2.2-1.5,4.4-2.3,6.6
		s-1.6,4.4-2.4,6.6c-1.6,4.4-3.3,8.7-5,13s-3.6,8.6-5.7,12.8s-4,8.4-6.1,12.6c-4.3,8.3-8.9,16.5-14,24.4c-5.1,8-10.7,15.7-16.6,23.1
		c-6.2,7.4-12.8,14.5-19.7,21.2l1,1c8-5.8,15.6-12.4,22.5-19.5c6.7-7.1,12.9-14.7,18.6-22.7c5.5-7.9,10.5-16.2,15-24.7
		c2.2-4.3,4.4-8.5,6.3-12.8s3.8-8.7,5.7-13.1s3.5-8.8,5-13.3c0.8-2.2,1.6-4.5,2.3-6.7s1.5-4.5,2.1-6.7c2.8-9,5.1-18.1,7-27.2
		c3.9-18.3,6.6-36.8,7.1-55.4L955.2,1282.5z"/>
	<polygon class="st4" points="1071.2,1143.8 1035.6,1463.3 1448.8,1463.3 1395,1143.8 	"/>
	<path class="st4" d="M377,356.7v731.6c0,60.2,48,109.4,108.1,110.9c267.2,6.9,1201.9,23.6,1456.3,19.8
		c43.7-0.7,79.2-35.6,80.4-79.3c4.9-170,12.9-578.7-16.6-768.4c-6.2-40-39.9-69.9-80.4-71.1c-223.9-7.2-1214.7-29.9-1468.9-24.2
		C412,277.1,377,312.9,377,356.7z"/>
	<path class="st5" d="M422.9,353.2v695.1c0,35.1,28.2,63.8,63.4,64.3l1418.5,17.5c34.6,0.5,63-27.1,63.5-61.7c0-0.2,0-0.5,0-0.7
		l2.4-688.9c0.1-24.9-19.8-45.3-44.7-45.9L473.7,303.6c-27.4-0.7-50.1,21-50.8,48.4C422.9,352.4,422.9,352.8,422.9,353.2z"/>
	<path class="st6" d="M1979,1158.8L1979,1158.8l-1556.2-26.5c-1.2-0.1-2.1-1.1-2-2.3c0.1-1.1,0.9-2,2-2l0,0l1556.2,26.5
		c1.2,0,2.2,1,2.2,2.2C1981.2,1157.8,1980.2,1158.8,1979,1158.8L1979,1158.8z"/>
	<path class="st4" d="M1537.8,1528.6H933c-16.4,0-28.8-11.7-25.6-24.3l7.8-30.7c2.3-9.2,12.5-16,24.5-16.4l583.1-18.2
		c12.6-0.4,23.8,6.3,26.5,15.9l14,48.9C1566.9,1516.6,1554.5,1528.6,1537.8,1528.6z"/>
	<path class="st6" d="M1258.6,1465.8c-1.2,0-2.2-1-2.2-2.2c0-1.2,1-2.2,2.2-2.2l25-0.4c1.2,0,2.2,0.9,2.2,2.1s-0.9,2.2-2.1,2.2
		L1258.6,1465.8L1258.6,1465.8z"/>
	<path class="st6" d="M929.8,1511.9h-0.3c-1.2-0.2-2-1.3-1.8-2.5c0,0,0,0,0,0l3.6-22.3c1.9-12.1,12.2-21,24.5-21.2l265-3.9
		c1.2,0,2.2,0.9,2.2,2.1c0,1.2-0.9,2.2-2.1,2.2c0,0,0,0,0,0l-265,3.9c-10.1,0.1-18.6,7.5-20.2,17.5l-3.6,22.3
		C931.8,1511.2,930.8,1511.9,929.8,1511.9z"/>
	<path class="st6" d="M923.5,636.6c17.7,0.9,32.8-12.8,33.6-30.5s-12.8-32.8-30.5-33.6c-17.7-0.9-32.8,12.8-33.6,30.5
		c-0.4,8.5,2.6,16.8,8.3,23.1C907,632.4,915,636.2,923.5,636.6z"/>
	<path class="st6" d="M1100.5,589.4l-7.9-39.1c-0.2-1.1-1.2-2-2.3-2.2l-32.9-4.4c-6.6-14.3-15.4-27.4-26.2-38.9l8.3-32.2
		c0.3-1.1-0.2-2.4-1.1-3l-33.2-22c-1-0.6-2.2-0.6-3.2,0.1l-26.4,20.2c-14.7-5.5-30.3-8.5-46-9l-16.8-28.6c-0.6-1-1.8-1.5-2.9-1.3
		l-39.1,7.9c-1.1,0.2-2,1.2-2.2,2.3l-4.4,32.9c-14.3,6.6-27.4,15.4-38.9,26.2l-32.2-8.3c-1.1-0.3-2.3,0.1-3,1.1l-22,33.2
		c-0.6,1-0.6,2.2,0.1,3.2l20.2,26.4c-5.5,14.7-8.5,30.3-9,46l-28.7,16.8c-1,0.6-1.5,1.7-1.3,2.9l7.9,39.1c0.2,1.1,1.2,2,2.3,2.2
		l32.9,4.4c6.6,14.3,15.4,27.5,26.2,38.9l-8.3,32.2c-0.3,1.1,0.1,2.3,1.1,3l33.2,22c1,0.6,2.2,0.6,3.2-0.1l26.4-20.3
		c14.7,5.5,30.3,8.5,46,9l16.8,28.6c0.6,1,1.8,1.5,2.9,1.3l39.1-7.9c1.1-0.2,2-1.2,2.2-2.3l4.4-32.9c14.3-6.6,27.4-15.4,38.9-26.2
		l32.2,8.3c1.1,0.3,2.4-0.1,3-1.1l22-33.2c0.6-1,0.6-2.2-0.1-3.2l-20.2-26.4c5.5-14.7,8.5-30.3,9-46l28.6-16.8
		C1100.2,591.6,1100.7,590.5,1100.5,589.4z M1008.4,658.8c-25.2,38-73,54-116,38.8l2.2-6.2c48.4,17.1,101.5-8.2,118.6-56.6
		c17.1-48.4-8.2-101.5-56.6-118.6s-101.5,8.2-118.6,56.6c-5.6,15.8-6.8,32.9-3.5,49.4c0.4,1.9,0.8,3.7,1.3,5.5
		c0.9,3.3,1.9,6.5,3.1,9.6c0,0.1,0,0.1,0.1,0.2c0.2,0.4,0.3,0.8,0.5,1.3c0.3,0.8,0.6,1.5,1,2.3l-6,2.6c-2.8-6.5-5-13.3-6.4-20.2
		c-10.9-53.8,23.9-106.3,77.8-117.2c53.8-10.9,106.3,23.9,117.2,77.8C1028.3,609.9,1023,636.8,1008.4,658.8L1008.4,658.8z
		 M886.4,602.6c1-21.3,19.1-37.8,40.5-36.8s37.8,19.1,36.8,40.5c-1,21.3-19.1,37.8-40.5,36.8c-10.2-0.5-19.9-5-26.8-12.6
		C889.5,622.9,885.9,612.9,886.4,602.6z"/>
	<path class="st6" d="M655.3,813.1c10,4,21.4-0.9,25.4-10.9s-0.9-21.4-10.9-25.4s-21.4,0.9-25.4,10.9c-1.9,4.8-1.9,10.2,0.2,15
		C646.7,807.5,650.5,811.2,655.3,813.1z"/>
	<path class="st6" d="M779.9,795.4l-19.9-10c-1-10.5-3.8-20.8-8.1-30.4l12.3-18.6c0.4-0.7,0.4-1.5-0.1-2.1L747.9,713
		c-0.5-0.6-1.3-0.9-2-0.6l-21.2,7c-8.2-6.7-17.4-12.1-27.2-15.8l-4.4-21.9c-0.2-0.8-0.8-1.4-1.5-1.5l-26.5-3.5
		c-0.8-0.1-1.5,0.3-1.9,1l-10,20c-10.5,1-20.8,3.8-30.4,8.1L604,693.4c-0.7-0.4-1.5-0.4-2.1,0.1l-21.3,16.3c-0.6,0.5-0.8,1.3-0.6,2
		l7,21.2c-6.7,8.2-12.1,17.4-15.8,27.3l-21.9,4.4c-0.8,0.2-1.3,0.8-1.5,1.5l-3.5,26.5c-0.1,0.8,0.3,1.5,1,1.9l19.9,10
		c1,10.5,3.8,20.8,8.1,30.5L561,853.6c-0.4,0.7-0.4,1.5,0.1,2.1l16.3,21.3c0.5,0.6,1.3,0.9,2,0.6l21.2-7
		c8.2,6.7,17.4,12.1,27.2,15.8l4.4,21.9c0.2,0.8,0.8,1.3,1.5,1.5l26.5,3.5c0.8,0.1,1.5-0.3,1.9-1l10-19.9c10.5-1,20.8-3.8,30.4-8.1
		l18.6,12.3c0.7,0.4,1.5,0.4,2.1-0.1l21.3-16.3c0.6-0.5,0.9-1.3,0.6-2l-7-21.2c6.7-8.2,12-17.4,15.8-27.3l21.9-4.4
		c0.8-0.2,1.4-0.8,1.5-1.6l3.5-26.5C781,796.5,780.6,795.8,779.9,795.4z M731.3,803.8c-5,37.7-39.7,64.2-77.4,59.1
		c-12.3-1.6-24-6.6-33.7-14.3l5.3-6.6c26.1,20.8,64.1,16.4,84.8-9.7s16.4-64.1-9.7-84.8s-64.1-16.4-84.8,9.7
		c-6.8,8.5-11.1,18.8-12.6,29.6c-0.5,4-0.7,8.1-0.4,12.2c0,0.2,0,0.5,0,0.7l-8.4,0.7c-0.4-4.9-0.2-9.8,0.4-14.6
		c0-0.4,0.1-0.8,0.2-1.2c4.8-31.9,31.1-56.2,63.3-58.4h0c37.9-2.7,70.8,25.9,73.4,63.8C732.1,794.5,732,799.2,731.3,803.8
		L731.3,803.8z M636.6,784.6c5.7-14.4,22-21.3,36.4-15.6s21.3,22,15.6,36.4s-22,21.3-36.4,15.6c-6.9-2.8-12.4-8.1-15.3-15
		C633.9,799.2,633.8,791.5,636.6,784.6z"/>
	<path class="st6" d="M1698.3,648.1l-5.5-27.4c-0.2-0.8-0.8-1.4-1.6-1.5l-23.1-3.1c-4.6-10-10.8-19.2-18.3-27.3l5.8-22.5
		c0.2-0.8-0.1-1.6-0.8-2.1l-23.3-15.5c-0.7-0.5-1.6-0.4-2.2,0.1l-18.5,14.2c-10.3-3.8-21.2-6-32.3-6.3l-11.8-20.1
		c-0.4-0.7-1.2-1.1-2-0.9l-27.4,5.5c-0.8,0.2-1.4,0.8-1.5,1.6l-3.1,23.1c-10,4.6-19.2,10.8-27.3,18.3l-22.6-5.9
		c-0.8-0.2-1.6,0.1-2.1,0.8l-15.4,23.3c-0.5,0.7-0.4,1.6,0.1,2.2l14.1,18.5c-3.8,10.3-6,21.2-6.3,32.3l-20.1,11.8
		c-0.7,0.4-1,1.2-0.9,2l5.5,27.4c0.2,0.8,0.8,1.4,1.6,1.5l23.1,3.1c4.6,10,10.8,19.3,18.4,27.3l-5.9,22.5c-0.2,0.8,0.1,1.6,0.8,2.1
		l23.3,15.5c0.7,0.5,1.6,0.4,2.2-0.1l18.5-14.1c10.3,3.8,21.2,6,32.3,6.3l11.8,20.1c0.4,0.7,1.2,1,2,0.9l27.4-5.5
		c0.8-0.2,1.4-0.8,1.5-1.6l3.1-23.1c10-4.6,19.2-10.8,27.3-18.3l22.5,5.8c0.8,0.2,1.6-0.1,2.1-0.8l15.4-23.3
		c0.5-0.7,0.4-1.6-0.1-2.2l-14.1-18.5c3.8-10.3,6-21.2,6.3-32.3l20.1-11.8C1698.2,649.7,1698.5,648.9,1698.3,648.1z M1635.6,697.9
		c-18.2,27.4-52.7,39-83.8,28l3-8.3c32.7,11.5,68.6-5.7,80.1-38.4c11.5-32.7-5.7-68.6-38.4-80.1c-32.7-11.5-68.6,5.7-80.1,38.4
		c-5.2,14.8-4.7,30.9,1.4,45.3c0.1,0.2,0.2,0.4,0.3,0.7l-8.1,3.5c-2-4.7-3.6-9.6-4.6-14.6c-0.1-0.4-0.2-0.8-0.2-1.2
		c-6.1-33.1,11.6-66,42.5-79.1l0,0c36.5-15.5,78.7,1.6,94.1,38.1C1651.3,652.4,1648.9,677.9,1635.6,697.9L1635.6,697.9z
		 M1546.2,657.3c0.8-16.1,14.4-28.6,30.5-27.8c16.1,0.8,28.6,14.4,27.8,30.5c-0.8,16.1-14.4,28.6-30.5,27.8
		c-7.8-0.4-15-3.8-20.3-9.5C1548.5,672.5,1545.8,665,1546.2,657.3L1546.2,657.3z"/>
	<path class="st6" d="M1574.4,679c11.2,0.5,20.8-8.1,21.4-19.4s-8.1-20.8-19.4-21.4c-11.2-0.5-20.8,8.1-21.4,19.4
		c-0.3,5.4,1.6,10.7,5.3,14.7C1563.9,676.3,1569,678.7,1574.4,679z"/>
	<path class="st6" d="M1244,902.2c6.2,3.3,13.1,4.5,20,4.5l0,0c15.4,0,29.5-7.8,36.9-21.3c11-20.1,3.6-45.3-16.5-56.4
		c-0.1-0.1-0.2-0.1-0.3-0.2c-20.4-11-45.9-3.5-57,16.9c-11,20-3.7,45.2,16.3,56.2C1243.6,902,1243.7,902.1,1244,902.2L1244,902.2z"
		/>
	<path class="st6" d="M1485.6,893.2l-35.4-23.4c0.4-20.1-2.4-40.2-8.4-59.4l27.5-32.4c0.9-1.1,1.1-2.7,0.3-4l-25.9-43.9
		c-0.8-1.3-2.2-1.9-3.7-1.7l-41.6,8.5c-13.9-14.5-30.1-26.7-47.9-36l-3.4-42.3c-0.1-1.5-1.2-2.7-2.6-3.1l-49.3-12.7
		c-1.4-0.4-3,0.2-3.8,1.5l-23.4,35.4c-20.1-0.4-40.2,2.4-59.4,8.4l-32.4-27.5c-1.1-0.9-2.7-1.1-4-0.3l-43.9,25.9
		c-1.3,0.8-1.9,2.2-1.6,3.7l8.5,41.6c-14.5,13.9-26.7,30.1-36,47.9l-42.3,3.4c-1.5,0.1-2.7,1.2-3.1,2.6l-12.8,49.3
		c-0.4,1.4,0.2,3,1.4,3.8l35.4,23.4c-0.4,20.1,2.4,40.2,8.4,59.4l-27.5,32.3c-1,1.1-1.1,2.7-0.3,4l25.9,43.9c0.8,1.3,2.2,2,3.7,1.7
		l41.6-8.5c13.9,14.5,30.1,26.7,47.9,36l3.4,42.3c0.1,1.5,1.2,2.7,2.6,3.1l49.3,12.7c1.4,0.4,3-0.2,3.8-1.5l23.4-35.4
		c20.1,0.4,40.2-2.4,59.4-8.4l32.3,27.5c1.1,0.9,2.7,1.1,4,0.3l43.9-25.9c1.3-0.8,1.9-2.2,1.6-3.7l-8.5-41.6
		c14.5-13.9,26.7-30.1,36-47.9l42.3-3.4c1.5-0.1,2.7-1.2,3.1-2.6l12.7-49.4C1487.4,895.5,1486.8,894,1485.6,893.2z M1221.4,842.7
		c12.8-23.5,42.3-32.2,65.8-19.4c11.3,6.2,19.7,16.6,23.3,28.9c3.7,12.2,2.2,25.3-3.9,36.4c-8.5,15.6-24.8,24.8-42.6,24.8l0,0
		c-8,0-16.1-1.5-23.2-5.4c-23.3-12.5-32.1-41.5-19.6-64.8C1221.3,843,1221.4,842.8,1221.4,842.7L1221.4,842.7z M1386.8,898
		L1386.8,898c0,0,0.4,0.2,0.4,0.3s0.4,0.1,0.4,0.1v0.1l0,0c0,0-0.4,0-0.5,0.1s-0.2,0-0.2,0s-0.1-0.4-0.1-0.3s-0.1-0.4-0.1-0.4l0,0
		c0,0,0,0.4,0,0.5s0,0.2,0,0.2s-0.1,0.3-0.1,0.3c0,0.1,0,0.1,0,0.2l0,0l-0.1,0.5l0,0c0,0.1-0.5,0.2-0.5,0.3s-0.5,0.1-0.5,0.1h0.4
		h0.9c0,0,0.9,0,0.9,0.1l0,0c-13.3,54.8-66.1,90.4-123,90.4l0,0c-10.6,0-21.2,0-31.5-2.2l0,0c-55.8-13.2-94.8-64.2-94.8-121.8
		c0.1-33.6,13.5-65.7,37.3-89.4c1.3-1.2,3.4-1.2,4.7,0.2c1.2,1.3,1.2,3.3-0.1,4.6c-15.4,15.2-26.4,34.3-31.7,55.3
		c-2.5,9.6-3.8,19.5-3.8,29.4c-0.1,54.5,37,102.1,89.9,115.3l0,0c0,0,0.8,0.5,0.9,0.5c9.8,2.5,19.6,4.5,30.6,4.5v-0.1
		c55.2,0,101.1-36.7,114.9-89.3c0,0-0.4-0.1-0.4-0.1s-0.2-0.1-0.2-0.1s-0.1,0.4-0.1,0.4s-0.1,0.4-0.1,0.4l0,0l0.3-0.5
		c0,0,0.3-0.6,0.3-0.7v0.1h-0.3h0.1c0,0,0.2-0.1,0.2-0.1l0,0c2.3-9.8,3.5-19.8,3.5-29.9c-0.2-64.3-51-117-115.2-119.5
		c-1.7-0.1-3.1-1.5-3.1-3.3v-0.1c2.2-1.8,1.5-3.2,3.3-3.1c69.4,2.5,123.7,60.7,121.3,130.1C1390.4,880,1389.1,889.1,1386.8,898z"/>
	<path class="st7" d="M441.3,902.3H322.7c-14.7,0-28.3,7.8-35.7,20.6l-59.3,102.7c-7.4,12.7-7.4,28.5,0,41.2l59.3,102.7
		c7.4,12.7,21,20.6,35.7,20.6h118.7c14.7,0,28.3-7.9,35.7-20.6l59.3-102.7c7.4-12.7,7.4-28.5,0-41.2L477,922.9
		C469.6,910.2,456.1,902.3,441.3,902.3z"/>
	<path class="st8" d="M322.7,1170.4c-7.7,0-14.8-4.1-18.6-10.7L244.8,1057c-3.8-6.6-3.8-14.8,0-21.5l59.3-102.7
		c3.8-6.7,10.9-10.8,18.6-10.8h118.6c7.7,0,14.7,4.1,18.6,10.7l59.3,102.7c3.8,6.7,3.8,14.8,0,21.5l-59.3,102.7
		c-3.8,6.6-10.9,10.7-18.6,10.7L322.7,1170.4z"/>
	<g class="st9">
		<path class="st10" d="M382,1048.6c-22,0-38.4-23-38.4-43.5c0-20.8,16.5-36.4,38.4-36.4s38.4,15.6,38.4,36.4
			C420.4,1025.6,404,1048.6,382,1048.6z M382,975.2c-18.1,0-31.8,12.8-31.8,29.8s13.9,37,31.8,37s31.8-19.9,31.8-37
			S400.2,975.2,382,975.2L382,975.2z"/>
		<path class="st10" d="M424.1,1123.2h-85.6c-10.8,0-20.3-7.3-23.2-17.7l-3.5-13.1c-3.4-12.2,3.4-24.9,15.4-29
			c20.3-6.8,40-10.2,58.7-10.2c17.5,0,34.8,3,51.2,9c12.1,4.4,18.5,17.6,14.5,29.8l-4.6,14.4
			C443.9,1116.4,434.6,1123.2,424.1,1123.2z M385.9,1059.8c-18,0-37,3.3-56.7,9.8c-8.7,3-13.6,12.2-11.1,21.1l3.5,13.1
			c2.1,7.6,9,12.9,16.9,12.9h85.6c7.6,0,14.3-4.9,16.6-12.1l4.6-14.4c2.9-8.9-1.7-18.5-10.5-21.7
			C419.2,1062.7,402.6,1059.8,385.9,1059.8L385.9,1059.8z"/>
	</g>
	<path class="st7" d="M443.3,209.4H324.6c-14.7,0-28.3,7.9-35.6,20.6l-59.4,102.7c-7.4,12.7-7.4,28.4,0,41.2L289,476.6
		c7.4,12.7,21,20.6,35.7,20.6h118.6c14.7,0,28.3-7.9,35.7-20.6l59.3-102.7c7.4-12.7,7.4-28.4,0-41.2L478.9,230
		C471.6,217.2,458,209.4,443.3,209.4z"/>
	<path class="st8" d="M324.6,477.5c-7.7,0-14.8-4.1-18.6-10.7L246.7,364c-3.8-6.7-3.8-14.8,0-21.5L306,239.8
		c3.8-6.6,10.9-10.7,18.6-10.7h118.6c7.7,0,14.8,4.1,18.6,10.7l59.3,102.7c3.8,6.7,3.8,14.8,0,21.5l-59.3,102.7
		c-3.8,6.6-10.9,10.7-18.6,10.7H324.6z"/>
	<g class="st11">
		<path class="st10" d="M417.3,428.5L417.3,428.5c-0.9,0-1.7-0.2-2.5-0.5c-3.5-1.5-5.1-3.9-5.1-6.6v-15.7h-87.9
			c-9.7,0-18-11.4-18-21.1v-75.2c0-10.6,9.1-16.3,19.1-16.3h122.1c10.2,0,17.8,6.1,17.8,16.3v75.2c0,8.9-6.6,16.3-15.4,17.3
			l-24.1,24.5C421.6,427.7,419.5,428.5,417.3,428.5z M322.8,299.6c-5,0-10.2,4.5-10.2,9.7v75.2c0,4.8,4.4,10,9.2,10h91.5
			c2.4,0,5.3,2.8,5.3,5.2v19.4l23.4-24.6c1-0.9,2.3-1.3,3.6-1.3c4.7,0,8.4-3.8,8.4-8.5c0-0.1,0-0.2,0-0.2v-75.2
			c0-5.4-3.6-9.7-8.9-9.7H322.8z"/>
	</g>
	<path class="st10" d="M324.4,319.5h111c1.7,0,3,1.3,3,3v0.6c0,1.7-1.3,3-3,3h-111c-1.7,0-3-1.3-3-3v-0.6
		C321.4,320.8,322.7,319.5,324.4,319.5z"/>
	<path class="st10" d="M324.4,339.4h111c1.7,0,3,1.3,3,3v0.6c0,1.7-1.3,3-3,3h-111c-1.7,0-3-1.3-3-3v-0.6
		C321.4,340.7,322.7,339.4,324.4,339.4z"/>
	<path class="st10" d="M324.4,363.6h111c1.7,0,3,1.3,3,3v0.6c0,1.7-1.3,3-3,3h-111c-1.7,0-3-1.3-3-3v-0.6
		C321.4,365,322.7,363.6,324.4,363.6z"/>
	<path class="st7" d="M443.3,553.4H324.6c-14.7,0-28.3,7.9-35.6,20.6l-59.4,102.7c-7.4,12.7-7.4,28.5,0,41.2L289,820.7
		c7.4,12.7,21,20.6,35.7,20.6h118.6c14.7,0,28.3-7.9,35.7-20.6l59.3-102.7c7.4-12.7,7.4-28.5,0-41.2L478.9,574
		C471.6,561.3,458,553.4,443.3,553.4z"/>
	<path class="st8" d="M324.6,821.5c-7.7,0-14.8-4.1-18.6-10.7l-59.3-102.7c-3.8-6.7-3.8-14.8,0-21.5L306,583.8
		c3.8-6.6,10.9-10.7,18.6-10.7h118.6c7.7,0,14.8,4.1,18.6,10.7l59.3,102.7c3.8,6.7,3.8,14.8,0,21.5l-59.3,102.7
		c-3.8,6.6-10.9,10.7-18.6,10.7L324.6,821.5z"/>
	<g class="st12">
		<path class="st10" d="M384.5,768.7c-1.2,0-2.4,0-3.7-0.1c-42-1.8-74.8-35.3-73.1-74.6c0.8-19.1,9.6-36.7,24.7-49.5
			c15.2-12.8,34.8-19.4,54.7-18.4c42,1.8,74.9,35.3,73.1,74.6l0,0c-0.8,19.1-9.6,36.7-24.7,49.5
			C421.2,762.3,403.1,768.8,384.5,768.7z M383.4,636c-16.3-0.1-32.1,5.6-44.5,16.1c-12.9,11-20.4,26-21.1,42.3
			c-1.5,33.8,27,62.5,63.5,64.1c17.4,0.9,34.4-4.8,47.7-16c12.9-11,20.4-26,21.1-42.3c1.5-33.8-27-62.5-63.5-64.1
			C385.5,636.1,384.5,636,383.4,636z"/>
		<path class="st10" d="M402.1,697.6c0.1,11.7-0.9,23.4-2.9,34.9c-0.5,2.9-1.1,5.8-1.8,8.6c-0.7,2.8-1.6,5.6-2.6,8.4
			c-1,2.8-2.3,5.4-3.8,7.9c-0.8,1.2-1.8,2.4-2.9,3.4c-0.6,0.5-1.2,0.9-1.9,1.2c-0.7,0.3-1.4,0.5-2.2,0.5c-0.8,0-1.5-0.1-2.2-0.4
			c-0.7-0.3-1.3-0.7-1.9-1.2c-1.1-1-2.1-2.1-2.9-3.3c-1.6-2.5-2.9-5.1-3.9-7.9c-1-2.7-1.9-5.5-2.6-8.4c-0.7-2.8-1.3-5.7-1.9-8.6
			c-1-5.8-1.8-11.6-2.2-17.4s-0.7-11.7-0.8-17.5c0-2.9,0.1-5.8,0.2-8.8s0.3-5.8,0.5-8.8c0.4-5.8,1.1-11.7,2-17.4
			c0.5-2.9,1-5.8,1.7-8.6c0.7-2.9,1.5-5.7,2.4-8.4c0.5-1.4,1-2.8,1.6-4.1c0.6-1.3,1.3-2.6,2.1-3.9c0.8-1.3,1.8-2.4,2.9-3.3
			c0.6-0.5,1.2-0.9,1.9-1.1c0.7-0.3,1.4-0.4,2.2-0.4c0.7,0,1.5,0.2,2.2,0.5c0.7,0.3,1.3,0.7,1.9,1.2c1.1,1,2.1,2.1,2.9,3.3
			c1.6,2.4,3,5.1,4,7.8c1.1,2.7,2,5.5,2.8,8.3c0.8,2.8,1.4,5.7,2,8.5C401.1,674.2,402.2,685.9,402.1,697.6z M401.3,697.6
			c0-5.8-0.2-11.7-0.7-17.5c-0.5-5.8-1.2-11.6-2.3-17.3c-0.5-2.9-1.2-5.7-1.9-8.5c-0.7-2.8-1.6-5.6-2.6-8.3c-1-2.7-2.3-5.3-3.9-7.8
			c-0.8-1.2-1.8-2.3-2.9-3.3c-0.5-0.5-1.2-0.8-1.8-1.2c-0.6-0.3-1.3-0.5-2-0.5c-0.7,0-1.4,0.1-2.1,0.4c-0.7,0.3-1.3,0.7-1.8,1.1
			c-1.1,0.9-2,2.1-2.8,3.3c-0.8,1.2-1.4,2.5-2,3.8c-0.6,1.3-1.1,2.7-1.6,4.1c-0.9,2.8-1.7,5.6-2.3,8.4c-0.6,2.8-1.2,5.7-1.6,8.6
			c-0.9,5.8-1.5,11.6-1.8,17.4s-0.5,11.7-0.5,17.5s0.2,11.7,0.6,17.5s1.1,11.6,2.1,17.3c0.5,2.9,1.1,5.7,1.8,8.5
			c0.7,2.8,1.5,5.6,2.5,8.3c1,2.7,2.2,5.4,3.8,7.8c0.8,1.2,1.7,2.3,2.8,3.2c0.5,0.5,1.1,0.8,1.8,1.1c0.6,0.3,1.3,0.4,2,0.4
			c0.7,0,1.4-0.2,2-0.5c0.6-0.3,1.2-0.7,1.8-1.2c1.1-1,2-2.1,2.8-3.3c1.5-2.5,2.8-5.1,3.7-7.8c1-2.7,1.8-5.5,2.5-8.4
			c0.7-2.8,1.3-5.7,1.8-8.5c1-5.7,1.6-11.5,2.1-17.3S401.3,703.5,401.3,697.6z"/>
		<path class="st10" d="M383.9,764.3c-0.9,0-1.8-0.2-2.7-0.5c-0.8-0.3-1.6-0.8-2.4-1.4c-1.3-1.1-2.4-2.3-3.3-3.7
			c-1.7-2.6-3-5.4-4.1-8.3c-1-2.8-1.9-5.7-2.6-8.6c-0.7-2.7-1.3-5.6-1.9-8.7c-1-5.5-1.8-11.3-2.3-17.6c-0.5-5.7-0.7-11.7-0.8-17.7
			c0-3.1,0.1-6.2,0.2-8.8c0.1-3,0.3-5.9,0.5-8.8c0.5-6.3,1.1-12.1,2-17.6c0.5-3.1,1.1-6,1.7-8.7c0.7-2.9,1.5-5.8,2.5-8.6
			c0.5-1.6,1.1-3,1.7-4.2c0.6-1.4,1.4-2.8,2.2-4.1c0.9-1.4,2-2.7,3.2-3.7c0.7-0.6,1.5-1.1,2.4-1.4c0.9-0.4,1.9-0.5,2.9-0.5
			c1,0,1.9,0.3,2.8,0.7c0.8,0.4,1.6,0.8,2.3,1.4c1.3,1,2.4,2.3,3.3,3.6c1.7,2.5,3.1,5.3,4.2,8.1c1.1,2.8,2,5.6,2.8,8.5
			c0.8,2.7,1.4,5.6,2,8.7c2.2,11.6,3.3,23.4,3.2,35.2l0,0c0.1,11.8-0.9,23.6-2.9,35.2c-0.6,3.1-1.2,6-1.9,8.7
			c-0.7,2.9-1.6,5.8-2.6,8.6c-1,2.9-2.4,5.7-4,8.3c-0.9,1.4-2,2.7-3.2,3.7c-0.7,0.6-1.5,1.1-2.3,1.5c-0.9,0.4-1.9,0.6-2.9,0.7H383.9
			z M383,635.1c-0.4,0-0.9,0.1-1.3,0.3c-0.5,0.2-1,0.5-1.4,0.9c-1,0.8-1.8,1.8-2.4,2.9c-0.7,1.2-1.4,2.4-1.9,3.6
			c-0.5,1.2-1,2.5-1.5,3.9c-0.9,2.7-1.7,5.4-2.3,8.2c-0.6,2.7-1.1,5.4-1.6,8.5c-0.8,5.4-1.4,11-1.8,17.2c-0.3,5.3-0.5,11-0.5,17.4
			c0,5.9,0.2,11.7,0.6,17.3c0.5,6.2,1.1,11.8,2.1,17.2c0.5,3,1.1,5.8,1.8,8.4c0.7,2.8,1.5,5.5,2.5,8.2c0.9,2.6,2.1,5.1,3.6,7.5
			c0.7,1.1,1.5,2,2.5,2.8c0.4,0.3,0.9,0.6,1.4,0.8c0.4,0.2,0.9,0.3,1.3,0.3c0.5,0,0.9-0.1,1.4-0.3c0.5-0.2,1-0.5,1.4-0.9
			c0.9-0.9,1.8-1.8,2.4-2.9c1.5-2.4,2.6-4.9,3.5-7.5c0.9-2.7,1.8-5.4,2.4-8.2c0.6-2.7,1.2-5.4,1.7-8.4c0.9-5.3,1.6-11,2.1-17.2
			c0.4-5.6,0.6-11.4,0.6-17.3l0,0c0-5.9-0.2-11.7-0.7-17.3c-0.4-5.8-1.2-11.5-2.3-17.2c-0.5-3-1.2-5.7-1.9-8.4
			c-0.7-2.8-1.6-5.5-2.6-8.1c-1-2.6-2.2-5.1-3.7-7.4c-0.7-1.1-1.5-2.1-2.5-2.9c-0.4-0.4-0.9-0.7-1.4-0.9
			C384.1,635.2,383.6,635.1,383,635.1L383,635.1z"/>
		<path class="st10" d="M431.5,697.6c0,7.5-1,15.1-3,22.3c-2,7.3-5.1,14.2-9.3,20.5c-2.1,3.1-4.5,6.1-7.1,8.7
			c-2.6,2.7-5.6,5-8.8,7.1c-3.2,2-6.6,3.6-10.2,4.7c-7.2,2.2-15,2.2-22.2,0c-3.6-1.1-7-2.7-10.2-4.7c-3.2-2-6.1-4.4-8.8-7.1
			c-2.6-2.7-5-5.6-7.1-8.7c-4.2-6.3-7.3-13.2-9.4-20.5c-1-3.6-1.8-7.3-2.3-11.1c-0.5-3.7-0.7-7.5-0.8-11.3c0-3.8,0.3-7.5,0.8-11.3
			c0.5-3.7,1.3-7.4,2.3-11.1c2-7.3,5.2-14.2,9.4-20.5c2.1-3.1,4.5-6,7.1-8.7c2.6-2.7,5.6-5,8.8-7.1c3.2-2,6.6-3.6,10.2-4.7
			c3.6-1.1,7.3-1.6,11.1-1.7c3.8,0,7.5,0.6,11.1,1.7c3.6,1.1,7,2.7,10.2,4.7c3.2,2,6.1,4.4,8.7,7.1c2.6,2.7,5,5.6,7.1,8.7
			c4.2,6.3,7.3,13.2,9.3,20.5C430.5,682.6,431.5,690.1,431.5,697.6z M430.5,697.6c0-7.5-1-14.9-2.9-22.1c-1.9-7.2-5-14.1-9-20.3
			c-2-3.1-4.4-6-7-8.7c-2.6-2.7-5.5-5.1-8.6-7.1c-3.1-2-6.5-3.6-10.1-4.7c-3.6-1.1-7.3-1.6-11-1.7c-3.7,0-7.4,0.6-11,1.7
			c-3.5,1.1-6.9,2.7-10,4.7c-3.1,2-6,4.4-8.6,7.1c-2.6,2.7-4.9,5.6-6.9,8.7c-4,6.3-7.1,13.1-9,20.3c-1,3.6-1.7,7.2-2.2,10.9
			c-1,7.4-1,14.9,0,22.3c0.5,3.7,1.2,7.3,2.2,10.9c1.9,7.2,5,14,9,20.3c2,3.1,4.4,6,6.9,8.7c2.6,2.7,5.5,5.1,8.6,7.1
			c3.1,2,6.5,3.6,10.1,4.7c7.1,2.2,14.8,2.2,21.9,0c3.6-1.1,6.9-2.7,10.1-4.7c3.1-2,6-4.4,8.6-7.1c2.6-2.7,4.9-5.6,7-8.7
			c4-6.3,7.1-13.1,9-20.3C429.5,712.5,430.5,705.1,430.5,697.6L430.5,697.6z"/>
		<path class="st10" d="M382.1,764.3c-3.9,0-7.8-0.6-11.6-1.7c-3.7-1.1-7.3-2.8-10.6-4.9c-3.3-2.1-6.3-4.5-9.1-7.3
			c-2.7-2.8-5.2-5.8-7.3-9c-4.3-6.5-7.5-13.5-9.5-21c-1-3.7-1.8-7.5-2.3-11.3c-1-7.6-1-15.4,0-23c0.5-3.8,1.3-7.6,2.3-11.3
			c2.1-7.5,5.3-14.5,9.6-21c2.1-3.2,4.6-6.2,7.3-9c2.7-2.8,5.8-5.2,9.1-7.3c3.3-2.1,6.9-3.7,10.6-4.8c7.5-2.3,15.6-2.3,23.1,0
			c3.7,1.1,7.3,2.8,10.6,4.9c3.3,2.1,6.3,4.5,9,7.3c2.7,2.8,5.2,5.8,7.3,9c4.3,6.4,7.5,13.5,9.5,20.9c2,7.4,3.1,15.1,3.1,22.8l0,0
			c0,7.7-1,15.3-3.1,22.8c-2.1,7.5-5.3,14.5-9.5,21c-2.1,3.2-4.6,6.2-7.3,9c-2.7,2.8-5.8,5.2-9,7.3c-3.3,2.1-6.9,3.7-10.6,4.9
			C389.9,763.7,386,764.3,382.1,764.3z M382.1,634.8c-3.5,0-7.1,0.6-10.5,1.6c-3.4,1.1-6.7,2.6-9.6,4.5c-3,2-5.8,4.2-8.3,6.8
			c-2.5,2.6-4.8,5.4-6.7,8.5c-3.9,6.1-6.9,12.8-8.8,19.8c-1,3.5-1.7,7.1-2.2,10.7c-0.5,3.6-0.7,7.3-0.7,10.9c0,3.6,0.2,7.3,0.7,10.9
			c0.5,3.6,1.2,7.2,2.1,10.7c1.9,7,4.9,13.7,8.9,19.8c2,3,4.2,5.9,6.7,8.5c2.5,2.6,5.3,4.9,8.3,6.8c3,1.9,6.2,3.4,9.6,4.5
			c6.8,2.1,14.1,2.1,20.9,0c3.4-1,6.7-2.6,9.7-4.5c3-1.9,5.8-4.2,8.3-6.8c2.5-2.6,4.8-5.4,6.7-8.5c4-6.1,6.9-12.8,8.8-19.8
			c3.8-14.2,3.8-29.1,0-43.3c-1.9-7-4.8-13.7-8.8-19.8c-2-3-4.2-5.9-6.8-8.5c-2.5-2.6-5.3-4.9-8.3-6.8c-3-1.9-6.2-3.4-9.6-4.5
			C389.1,635.4,385.6,634.8,382.1,634.8L382.1,634.8z"/>
		<path class="st10" d="M324.3,671.9l14.9-0.1l14.9-0.1l29.7-0.1l29.7,0.1l14.9,0.1l14.9,0.1l0,0l0,0l-14.9,0.1l-14.9,0.1l-29.7,0.1
			H354l-14.9-0.1L324.3,671.9C324.3,672,324.3,672,324.3,671.9C324.3,672,324.3,671.9,324.3,671.9z"/>
		<polygon class="st10" points="383.8,674 339.2,673.9 323.6,673.8 322.6,672.7 322.6,672 322.6,670.3 324.3,670.2 354,670 
			383.8,670 428.3,670.1 444.9,670.3 444.9,673.7 443.2,673.8 413.5,674 		"/>
		<path class="st10" d="M341.6,647c3.5,0,7-0.1,10.5-0.1l10.5-0.1c3.5,0,7,0,10.5,0h10.5l21.1,0.1l10.5,0.1c3.5,0,7,0.1,10.5,0.1
			c0,0,0,0,0,0c0,0,0,0.1,0,0.1c-3.5,0.1-7,0.1-10.5,0.1l-10.5,0.1l-21.1,0.1h-10.5c-3.5,0-7,0-10.5,0l-10.5-0.1
			c-3.5,0-7-0.1-10.5-0.1c0,0-0.1,0-0.1-0.1c0,0-0.1-0.1-0.1-0.1C341.5,647,341.5,647,341.6,647L341.6,647z"/>
		<path class="st10" d="M383.8,649h-13.3h-7.8l-14.1-0.1c-2.4,0-4.7,0-7-0.1h-1.7l-0.1-3.5l1.7-0.1c2.3,0,4.5-0.1,6.8-0.1l14.3-0.1
			c2.5,0,5,0,7.4,0h13.7l35.5,0.2l6.7,0.1h1.7l-0.1,3.4H426c-2.3,0-4.7,0.1-7,0.1l-14.1,0.1L383.8,649z"/>
		<path class="st10" d="M319.2,696.9l16.1-0.1l16.1-0.1l32.3,0l32.3,0.1l16.1,0.1l16.1,0.1l0,0l0,0l-16.1,0.1l-16.1,0.1l-32.3,0.1
			l-32.3-0.1l-16.1-0.1L319.2,696.9C319.1,697,319.1,696.9,319.2,696.9C319.1,696.9,319.1,696.9,319.2,696.9z"/>
		<polygon class="st10" points="383.8,699 335.3,698.9 317.5,698.7 317.4,695.3 319.1,695.2 351.5,695 383.8,695 432.2,695.1 
			449.1,695.2 450.1,696.3 450,698.7 448.4,698.7 416.1,698.9 		"/>
		<path class="st10" d="M324.3,721.9l14.9-0.1l14.9-0.1l29.7-0.1l29.7,0.1l14.9,0.1l14.9,0.1l0,0v0.1l-14.9,0.1l-14.9,0.1l-29.7,0.1
			H354l-14.9-0.1L324.3,721.9C324.3,722,324.3,722,324.3,721.9L324.3,721.9C324.3,721.9,324.3,721.9,324.3,721.9z"/>
		<polygon class="st10" points="383.8,724 339.2,723.9 323.6,723.7 322.6,722.7 322.6,721.9 322.6,720.3 324.3,720.2 354,720 
			383.8,720 428.3,720.1 444.9,720.2 444.9,723.7 443.2,723.7 413.5,723.9 		"/>
		<path class="st10" d="M428.1,747.2h-84.4c-0.1,0-0.2-0.1-0.2-0.2c0-0.1,0.1-0.2,0.2-0.2c0,0,0,0,0,0h84.4c0.1,0,0.2,0.1,0.3,0.2
			S428.3,747.2,428.1,747.2C428.1,747.2,428.1,747.2,428.1,747.2L428.1,747.2z"/>
		<path class="st10" d="M428.1,748.9h-84.4c-1.1-0.1-1.9-1-1.8-2.1c0.1-1,0.8-1.7,1.8-1.8h84.4c1.1,0.1,1.9,1,1.8,2.1
			C429.8,748.1,429,748.8,428.1,748.9z"/>
	</g>
	
		<linearGradient id="SVGID_2_" gradientUnits="userSpaceOnUse" x1="-1828.6372" y1="667.6981" x2="-1795.4973" y2="584.5681" gradientTransform="matrix(-1 0 0 -1 -1099.51 1648.661)">
		<stop  offset="0" style="stop-color:#020039"/>
		<stop  offset="1" style="stop-color:#090056"/>
	</linearGradient>
	<path class="st13" d="M709.5,1025.7c0,0-11.2,5.4-13.2,11.7c-1.7,5-14,5.7-15.2,15.5c-0.6,5.1-4.4,9.1-9.5,9.9
		c-12.6,1.9-32.1,8.5-35.2,30.4c-2.4,16.7,6.2,23.1,15.1,25.3c6.6,1.5,10.8,8,9.6,14.6c-1.3,6.4,0.6,13.7,11.7,19.5
		c24.7,13,49.4-30.9,49.4-30.9l5-76.7L709.5,1025.7z"/>
	
		<linearGradient id="SVGID_3_" gradientUnits="userSpaceOnUse" x1="-1897.0244" y1="619.6647" x2="-1835.7944" y2="480.3546" gradientTransform="matrix(-1 0 0 -1 -1099.51 1648.661)">
		<stop  offset="0" style="stop-color:#FF928E"/>
		<stop  offset="1" style="stop-color:#FEB3B1"/>
	</linearGradient>
	<path class="st14" d="M825.8,985.2c0,0-31.8,86.7-85.9,113.8c0,0,18,29.4,27.4,31.2c0,0,57.9-74.1,63.8-134.7L825.8,985.2z"/>
	<path class="st5" d="M607.9,1506.5l-1.6,13.1c-0.3,2.5-2.3,4.5-4.8,4.8c-5.8,0.7-11.7,0.8-17.6,0.3c-2.6-0.3-4.4-2.6-4.1-5.2
		c0-0.3,0.1-0.6,0.2-0.8c1.6-5.1,4.6-12.7,8.8-17.2h14.6c2.5,0,4.5,2,4.5,4.5C608,1506.1,608,1506.3,607.9,1506.5z"/>
	
		<linearGradient id="SVGID_4_" gradientUnits="userSpaceOnUse" x1="-1826.2334" y1="24.6413" x2="-1785.7933" y2="497.3113" gradientTransform="matrix(-1 0 0 -1 -1099.51 1648.661)">
		<stop  offset="0" style="stop-color:#FF928E"/>
		<stop  offset="1" style="stop-color:#FEB3B1"/>
	</linearGradient>
	<path class="st15" d="M722.1,1352.5l2.5,14.5c0,0-8.2,83.4-9.7,116.8c-0.2,5.2,1.1,10.4,3.9,14.9l14.3,23.3l-36.4-21.5l-0.7-4.4
		l6-8.2l-7.8-93.5c-0.5-5.5,0.7-11,3.3-15.9l7.5-14.1L722.1,1352.5z"/>
	<path class="st5" d="M735.5,1525.3h-11.6c-2.2,0-4.2-1-5.6-2.7c-3.6-4.7-11.1-13.9-14.7-14.1c-4.8-0.3-4.2,16.8-4.2,16.8h-2.7
		l-3.4-21.3c-0.9-5.4,1.8-10.7,6.6-13.2l0,0c0,0,1.1,8.2,7.1,11.8s24.4,16.6,24.4,16.6c1.6-0.2,3.2-0.1,4.7,0.1
		c1.7,0.3,2.8,1.9,2.5,3.6C738.2,1524.3,737,1525.3,735.5,1525.3z"/>
	
		<linearGradient id="SVGID_5_" gradientUnits="userSpaceOnUse" x1="-1744.8802" y1="17.611" x2="-1704.4302" y2="490.401" gradientTransform="matrix(-1 0 0 -1 -1099.51 1648.661)">
		<stop  offset="0" style="stop-color:#FF928E"/>
		<stop  offset="1" style="stop-color:#FEB3B1"/>
	</linearGradient>
	<path class="st16" d="M672.2,1359.4c0,0-48.2,91.6-55.9,112.5s-10.4,38.3-10.5,40c-0.2,2.6-3.4,5.1-12.2,5.1
		c-4.6,0-6.8-1.8-7.9-3.6c-0.9-1.5-1-3.4-0.2-5c2.8-5.7,11.7-23.7,14.9-31.9c3.9-9.8,12.3-54.1,17-69.5s9.8-32.1,30-47.5
		C647.4,1359.4,661.2,1345.9,672.2,1359.4z"/>
	<path class="st8" d="M702.7,1209.4c12.5-52.8-19.1-82.6-19.1-82.6c19.9-19.1,56.2-27.8,56.2-27.8s34.6,25.3,30.5,45.1
		c-2.4,11.6-24.3,69.5-24.3,69.5S725.7,1223.2,702.7,1209.4z"/>
	<path class="st4" d="M675.1,1235.5c5.1-15.3,27.6-26.1,27.6-26.1c23,13.8,43.2,4.2,43.2,4.2s4.5,17.4,1.4,33.5
		S724.6,1367,724.6,1367c-31,6.3-78.7-6.3-78.7-6.3C665.6,1325.6,670.1,1250.8,675.1,1235.5z"/>
	
		<linearGradient id="SVGID_6_" gradientUnits="userSpaceOnUse" x1="730.5993" y1="585.757" x2="705.5993" y2="500.257" gradientTransform="matrix(1 0 0 -1 0 1648.661)">
		<stop  offset="0" style="stop-color:#FF928E"/>
		<stop  offset="1" style="stop-color:#FEB3B1"/>
	</linearGradient>
	<path class="st17" d="M717.2,1064.1l-10.1,45.5c-1,4,2.7,3.3,6.7,2.6c6.6-1.3,15.2-3.8,18-9c0.3-0.5,0.5-1.1,0.5-1.7l4.3-31.5
		c0.4-2.5-1-5-3.3-6l-8.4-3.7c-2.9-1.2-6.2,0.1-7.4,2.9C717.4,1063.4,717.3,1063.8,717.2,1064.1z"/>
	
		<linearGradient id="SVGID_7_" gradientUnits="userSpaceOnUse" x1="-1799.3601" y1="463.4866" x2="-1748.8899" y2="463.4866" gradientTransform="matrix(-1 0 0 -1 -1099.51 1648.661)">
		<stop  offset="0" style="stop-color:#FF928E"/>
		<stop  offset="1" style="stop-color:#FEB3B1"/>
	</linearGradient>
	<path class="st18" d="M683.6,1126.8c0,0-70.7,50.6-9,103.7c2,1.9,4.4,3.3,7,4c2.3,0.7,9.2,5.9,12.7,8.7c1.1,0.8,2.6,0.6,3.4-0.4
		c0-0.1,0.1-0.1,0.1-0.2l0,0c0.6-0.9,0.7-2.1,0.2-3.1l-8.8-18.5c-2.4-2.3-6.1-2.4-8.8-0.4l0,0c-1.5,1.1-3.5,0.8-4.7-0.6
		c-0.1-0.2-0.2-0.3-0.3-0.5c-4.8-9.7-13.8-38.2,23.1-70.5c1.4-1.2,1.7-3.2,0.9-4.8C696.8,1139,690.9,1129.2,683.6,1126.8z"/>
	
		<linearGradient id="SVGID_8_" gradientUnits="userSpaceOnUse" x1="-1849.8485" y1="562.2057" x2="-1783.5685" y2="680.1657" gradientTransform="matrix(-1 0 0 -1 -1099.51 1648.661)">
		<stop  offset="0" style="stop-color:#FF928E"/>
		<stop  offset="1" style="stop-color:#FEB3B1"/>
	</linearGradient>
	<path class="st19" d="M729.1,1020.8c0,0,12,5.1,20.1,22.4s2.1,25.3-5.6,26.4s-19.1,0.9-31.2-10.3S713.5,1014.8,729.1,1020.8z"/>
	
		<linearGradient id="SVGID_9_" gradientUnits="userSpaceOnUse" x1="-1835.588" y1="664.9319" x2="-1802.4479" y2="581.7919" gradientTransform="matrix(-1 0 0 -1 -1099.51 1648.661)">
		<stop  offset="0" style="stop-color:#020039"/>
		<stop  offset="1" style="stop-color:#090056"/>
	</linearGradient>
	<path class="st20" d="M720.6,1050.1c0,0-9-25.3,13.4-25.6l5.3,3.7c0,0,8.3-14-5.3-20.8s-29.4-1.2-35.1,17.1
		c-5.8,18.2-6.7,30.4,2.8,39.2s13.5-1.2,13.5-1.2s-5.2-8.2-3.1-12.5s7,0.9,7,0.9L720.6,1050.1z"/>
	
		<linearGradient id="SVGID_10_" gradientUnits="userSpaceOnUse" x1="-1835.7366" y1="554.2847" x2="-1769.4565" y2="672.2448" gradientTransform="matrix(-1 0 0 -1 -1099.51 1648.661)">
		<stop  offset="0" style="stop-color:#FF928E"/>
		<stop  offset="1" style="stop-color:#FEB3B1"/>
	</linearGradient>
	<path class="st21" d="M718.1,1052.9c0,0-4.6-13-10.7-7.8s5,12.1,9.3,14.3L718.1,1052.9z"/>
	
		<linearGradient id="SVGID_11_" gradientUnits="userSpaceOnUse" x1="-1909.113" y1="614.3497" x2="-1847.8828" y2="475.0497" gradientTransform="matrix(-1 0 0 -1 -1099.51 1648.661)">
		<stop  offset="0" style="stop-color:#FF928E"/>
		<stop  offset="1" style="stop-color:#FEB3B1"/>
	</linearGradient>
	<path class="st22" d="M828.8,1001c0.5,1.5-5.1,3.9-8.4-2.4c-0.1-3-2-16-0.2-18.4c9.6-13.1,28.3-29.5,28.3-29.5
		c1.8,1.6,2.1,4.3,0.6,6.2l-9,9.4c1.9,3.4,4.2,6.3,5.3,10.4c0.8,3.2,0.3,6.5-1.3,9.4c-1.6,2.9-3.8,6.6-5.8,9.5
		C836.1,998.7,832.6,1000.7,828.8,1001z"/>
	
		<linearGradient id="SVGID_12_" gradientUnits="userSpaceOnUse" x1="853.3563" y1="842.2365" x2="838.3563" y2="722.2365" gradientTransform="matrix(1 0 0 -1 0 1648.661)">
		<stop  offset="0" style="stop-color:#FF928E"/>
		<stop  offset="1" style="stop-color:#FEB3B1"/>
	</linearGradient>
	<path class="st23" d="M833.6,994.6l-2.1-0.4c0.3-1.4,2.6-14.1,4.5-17.2c0.6-0.7,0.9-1.7,0.8-2.6c-0.1-0.3-0.3-0.6-0.6-0.8l-7.4,6.3
		l-2.5,6.7l-2-0.8l2.7-7.2l9-7.6l0.7,0.3c1.1,0.5,1.9,1.4,2.3,2.5c0.3,1.2,0,2.7-1,4.3C836.4,980.5,834.3,990.8,833.6,994.6z"/>
	<path class="st6" d="M1877.9,1514.4c62.5,11.8,142.3-52.6,168-122.9c26.5-72.4-22.1-102.7-21.7-203.2
		c0.4-114.1,63.3-131.3,104.8-285.1c9.4-34.7,63.6-235.5-3.6-273.2c-62.1-34.8-236.8,65.1-267.4,192.9
		c-21.8,91.2,45.6,129.4,19.9,235.6c-22.6,93.2-82,94.5-104.8,184.4C1745.4,1352.3,1795.8,1498.9,1877.9,1514.4z"/>
	<path class="st1" d="M1882.4,1542c-16.8-123,16-312.6,46.6-450.1c33.1-148.8,70.6-270.2,71-271.5l5.2,1.4
		c-0.4,1.2-37.8,122.5-70.9,271.1c-30.4,137.1-63.2,326.1-46.5,448.4L1882.4,1542z"/>
	<path class="st1" d="M1921.5,1516.5c-58.9-29-79.1-128.6-45.6-161c22.6-21.9,55.1,1.1,86.4-21.5c40-29,10.6-83.5,42-154.2
		c26.8-60.2,90.9-117.1,128.4-105.4c39.3,12.2,59.9,103,26.4,157.6c-21.8,35.5-55.2,37.3-62.4,70.3c-8.4,38.3,32.2,55.8,32.4,93
		C2129.5,1461.9,1999.4,1554.9,1921.5,1516.5z"/>
	<path class="st6" d="M1953.3,1542c-0.3,0-0.7-0.1-1-0.2c-1.1-0.5-1.6-1.8-1.2-2.9c0,0,0-0.1,0.1-0.1
		c78.1-152.1,101-328.6,101.2-330.3c0.2-1.3,1.4-2.2,2.7-2c1.3,0.1,2.2,1.2,2.1,2.5c0,0,0,0,0,0c-0.2,1.8-23.2,179-101.7,331.8
		C1955,1541.5,1954.2,1542,1953.3,1542z"/>
	<path class="st24" d="M2113.5,1254.1c-0.3,0-0.5-0.1-0.7-0.2c-0.5-0.3-0.6-0.9-0.3-1.4c0,0,0.1-0.1,0.1-0.1
		c24.7-29.9,52-74.8,42.1-119.1c-5.9-26.3-22.4-40.1-22.5-40.2c-0.4-0.3-0.5-0.9-0.2-1.4c0,0,0.1-0.1,0.1-0.1
		c0.4-0.5,1.1-0.5,1.6-0.1c0.7,0.6,17.3,14.3,23.3,41.4c5.5,24.9,2.6,66-42.6,120.8C2114.2,1254,2113.9,1254.1,2113.5,1254.1z"/>
	<path class="st24" d="M1916.2,1503.2c-0.4,0-0.8-0.2-1-0.5c-37.9-52.3-50.8-92.6-38.4-120c11-24.3,38.9-28.9,39.2-28.9
		c0.6-0.1,1.2,0.3,1.3,0.9c0.1,0.6-0.3,1.2-0.9,1.2c0,0,0,0-0.1,0c-0.3,0-26.9,4.4-37.4,27.7c-12.1,26.7,0.8,66.3,38.2,117.9
		c0.3,0.5,0.2,1.1-0.2,1.5c0,0,0,0-0.1,0C1916.5,1503.1,1916.4,1503.2,1916.2,1503.2z"/>
	<path class="st8" d="M886.6,592.4v321c0,23.6,20.8,42.8,46.3,42.8h539c25.6,0,46.3-19.2,46.3-42.8v-321H886.6z"/>
	<path class="st7" d="M1360,496.8l-137-82.9c-13-8.1-29.5-8.1-42.5,0l-137,82.9l-158.2,95.7l158.2,95.5l158.3,95.5l158.2-95.6
		l158.3-95.4L1360,496.8z"/>
	<g>
		<defs>
			<polygon id="SVGID_13_" points="1516.5,591 1520.1,591 1520.1,191.5 886.5,191.5 886.5,591 887.1,591 885.3,592.3 1043.5,687.9 
				1201.8,783.5 1360,687.9 1518.3,592.3 			"/>
		</defs>
		<clipPath id="SVGID_14_">
			<use xlink:href="#SVGID_13_"  style="overflow:visible;"/>
		</clipPath>
		<g class="st25">
			<path class="st10" d="M1419.6,231.3H930.5c-7.8,0-13.1,7.6-13.1,15.4v593.9h569.5V298.5L1419.6,231.3z"/>
			<path class="st1" d="M1419.6,231.3l1.1,61.7c0,1.6,0.1,3.1,1.2,4.2c1,1.1,2.4,1.7,3.9,1.7l61.1-0.5L1419.6,231.3z"/>
			<path class="st1" d="M958,341.6h122c2.9,0,5.2,2.3,5.2,5.2v0.6c0,2.9-2.3,5.2-5.2,5.2H958c-2.9,0-5.2-2.3-5.2-5.2v-0.6
				C952.7,343.9,955.1,341.6,958,341.6z"/>
			<path class="st1" d="M958,368h122c2.9,0,5.2,2.3,5.2,5.2v0.6c0,2.9-2.3,5.2-5.2,5.2H958c-2.9,0-5.2-2.3-5.2-5.2v-0.6
				C952.7,370.4,955.1,368,958,368z"/>
			<path class="st1" d="M958,390.1h122c2.9,0,5.2,2.3,5.2,5.2v0.6c0,2.9-2.3,5.2-5.2,5.2H958c-2.9,0-5.2-2.3-5.2-5.2v-0.6
				C952.7,392.5,955.1,390.1,958,390.1z"/>
			<path class="st1" d="M1019.4,449.7h425.1c3.9,0,7.1,3.2,7.1,7.1v1.3c0,3.9-3.2,7.1-7.1,7.1h-425.1c-3.9,0-7.1-3.2-7.1-7.1v-1.3
				C1012.3,452.9,1015.5,449.7,1019.4,449.7z"/>
			<path class="st1" d="M968.9,498.3h477.7c4,0,7.3,3.3,7.3,7.3v0.9c0,4-3.3,7.3-7.3,7.3H968.9c-4,0-7.3-3.3-7.3-7.3v-0.9
				C961.6,501.6,964.8,498.3,968.9,498.3z"/>
			<path class="st1" d="M968.9,549.1h477.7c4,0,7.3,3.3,7.3,7.3v0.9c0,4-3.3,7.3-7.3,7.3H968.9c-4,0-7.3-3.3-7.3-7.3v-0.9
				C961.6,552.3,964.8,549.1,968.9,549.1z"/>
			<path class="st1" d="M968.9,599.8h477.7c4,0,7.3,3.3,7.3,7.3v0.9c0,4-3.3,7.3-7.3,7.3H968.9c-4,0-7.3-3.3-7.3-7.3v-0.9
				C961.6,603.1,964.8,599.8,968.9,599.8z"/>
			<path class="st1" d="M968.9,650.6h477.7c4,0,7.3,3.3,7.3,7.3v0.9c0,4-3.3,7.3-7.3,7.3H968.9c-4,0-7.3-3.3-7.3-7.3v-0.9
				C961.6,653.9,964.8,650.6,968.9,650.6z"/>
			<path class="st1" d="M968.9,701.4h477.7c4,0,7.3,3.3,7.3,7.3v0.9c0,4-3.3,7.3-7.3,7.3H968.9c-4,0-7.3-3.3-7.3-7.3v-0.9
				C961.6,704.6,964.8,701.4,968.9,701.4z"/>
			<path class="st1" d="M968.9,752.2h477.7c4,0,7.3,3.3,7.3,7.3v0.9c0,4-3.3,7.3-7.3,7.3H968.9c-4,0-7.3-3.3-7.3-7.3v-0.9
				C961.6,755.4,964.8,752.2,968.9,752.2z"/>
		</g>
	</g>
	
		<ellipse transform="matrix(0.7071 -0.7071 0.7071 0.7071 304.5546 1513.764)" class="st7" cx="1979.6" cy="389.3" rx="179.2" ry="179.2"/>
	
		<ellipse transform="matrix(0.7071 -0.7071 0.7071 0.7071 304.5581 1513.7762)" class="st8" cx="1979.6" cy="389.3" rx="173.2" ry="173.2"/>
	<path class="st26" d="M1836.7,319.2c-1,0-1.9-0.8-1.9-1.9c0-0.3,0.1-0.6,0.2-0.9c27.4-54.7,83.4-89.2,144.5-89
		c9.8,0,19.6,0.9,29.2,2.6c1,0.1,1.8,1.1,1.7,2.1c-0.1,1-1.1,1.8-2.1,1.7c-0.1,0-0.2,0-0.3,0c-9.4-1.7-18.9-2.6-28.5-2.6
		c-59.7-0.2-114.4,33.5-141.1,86.9C1838.1,318.8,1837.5,319.2,1836.7,319.2z"/>
	
		<ellipse transform="matrix(0.7071 -0.7071 0.7071 0.7071 303.0011 1517.5574)" class="st26" cx="1983.4" cy="393" rx="146.6" ry="146.6"/>
	<path class="st8" d="M1969,502v-15.9c-16.6-0.7-33.1-4.6-44.8-9.7c-4.2-1.9-6.3-6.5-5.1-10.9l4.1-14.9c1.4-5,6.5-7.9,11.4-6.5
		c0.4,0.1,0.8,0.2,1.2,0.4c13.1,5.6,27.1,8.5,41.3,8.7c16,0,28-5.4,28-16.6c0-10-9.2-16-31.5-22c-31.9-8.7-54.7-22.5-54.7-50.5
		c0-25.3,18.4-44.5,50.5-49.7v-16c0-5.1,4.2-9.3,9.3-9.3h9.4c5.1,0,9.3,4.2,9.3,9.3c0,0,0,0,0,0v14.3c15.4,0.6,26.6,3.3,35.5,6.4
		c4.5,1.6,7.1,6.5,5.8,11.2l-3.7,13.7c-1.3,4.9-6.4,7.9-11.4,6.5c-0.3-0.1-0.6-0.2-0.9-0.3c-11.1-4.2-22.9-6.4-34.8-6.3
		c-19,0-24.4,7.9-24.4,14.9c0,8.7,11.4,14.7,36.1,22.3c35.3,10.6,49.9,25.2,49.9,51.6c0,24.2-17.9,45.9-52.7,51.3V502
		c0,5.1-4.2,9.3-9.3,9.3l0,0h-9.4C1973.1,511.3,1969,507.1,1969,502z"/>
	
		<ellipse transform="matrix(0.7071 -0.7071 0.7071 0.7071 165.0028 1727.2382)" class="st7" cx="2167.5" cy="664.4" rx="126.1" ry="126.1"/>
	<circle class="st8" cx="2175.9" cy="671.8" r="121.7"/>
	<path class="st26" d="M2075.5,622.6c-0.2,0-0.4-0.1-0.6-0.2c-0.7-0.3-0.9-1.1-0.6-1.8c19.2-38.4,58.6-62.7,101.6-62.5
		c6.9,0,13.7,0.6,20.5,1.8c0.7,0.1,1.2,0.8,1.1,1.6s-0.8,1.2-1.6,1.1c-48.5-8.8-97,15.3-119.2,59.3
		C2076.5,622.3,2076,622.6,2075.5,622.6z"/>
	<circle class="st26" cx="2178.5" cy="674.5" r="103"/>
	<path class="st8" d="M2168.4,751.1v-11.2c-11.7-0.5-23.3-3.2-31.4-6.8c-2.9-1.3-4.5-4.6-3.6-7.7l2.9-10.4c1-3.5,4.6-5.5,8-4.6
		c0.3,0.1,0.6,0.2,0.8,0.3c9.2,3.9,19,6,29,6.1c11.3,0,19.6-3.8,19.6-11.6c0-7.1-6.5-11.3-22.1-15.5c-22.3-6.1-38.3-15.8-38.3-35.5
		c0-17.7,13-31.3,35.5-34.9v-11.2c0-3.6,2.9-6.5,6.5-6.5l0,0h6.6c3.6,0,6.5,2.9,6.5,6.5v10.1c8.5,0.2,16.9,1.7,24.9,4.5
		c3.2,1.2,5,4.6,4.1,7.8l-2.6,9.7c-0.9,3.5-4.5,5.5-8,4.6c-0.2-0.1-0.4-0.1-0.6-0.2c-7.8-3-16.1-4.5-24.4-4.4
		c-13.4,0-17.2,5.5-17.2,10.5c0,6.1,8,10.3,25.4,15.6c24.8,7.4,35.1,17.7,35.1,36.2c0,17-12.6,32.2-37,36.1v12.5
		c0,3.6-2.9,6.5-6.5,6.5l0,0h-6.6C2171.3,757.6,2168.4,754.7,2168.4,751.1z"/>
	
		<ellipse transform="matrix(0.7071 -0.7071 0.7071 0.7071 14.6418 1602.2622)" class="st7" cx="1941.4" cy="783.5" rx="107.7" ry="107.7"/>
	
		<ellipse transform="matrix(0.7071 -0.7071 0.7071 0.7071 14.6355 1602.334)" class="st8" cx="1941.5" cy="783.5" rx="104.1" ry="104.1"/>
	<path class="st26" d="M1855.7,741.4c-0.6,0-1.1-0.5-1.1-1.2c0-0.2,0-0.3,0.1-0.5c19.4-38.5,61.9-59.6,104.3-51.9
		c0.6,0.1,1,0.7,0.9,1.3c-0.1,0.6-0.7,1-1.3,0.9l0,0c-5.7-1-11.4-1.5-17.1-1.5c-35.9-0.1-68.7,20.1-84.8,52.2
		C1856.5,741.2,1856.1,741.4,1855.7,741.4z"/>
	<circle class="st26" cx="1943.8" cy="785.8" r="88.1"/>
	<path class="st8" d="M1935.1,851.3v-9.6c-9.2-0.3-18.3-2.3-26.9-5.8c-2.5-1.1-3.8-3.9-3.1-6.5l2.4-8.9c0.8-3,3.9-4.7,6.9-3.9
		c0.2,0.1,0.5,0.2,0.7,0.3c7.9,3.4,16.3,5.1,24.8,5.2c9.6,0,16.8-3.3,16.8-10c0-6-5.5-9.6-18.9-13.2c-19.1-5.2-32.8-13.5-32.8-30.3
		c0-15.2,11.1-26.8,30.3-29.8V729c0-3.1,2.5-5.6,5.6-5.6h5.6c3.1,0,5.6,2.5,5.6,5.6c0,0,0,0,0,0v8.6c7.3,0.2,14.5,1.5,21.3,3.8
		c2.7,1,4.2,3.9,3.5,6.7l-2.2,8.3c-0.8,3-3.8,4.7-6.8,3.9c-0.2,0-0.4-0.1-0.5-0.2c-6.7-2.5-13.8-3.8-20.9-3.8
		c-11.4,0-14.7,4.7-14.7,9c0,5.2,6.8,8.8,21.7,13.4c21.2,6.4,30,15.2,30,31c0,14.5-10.8,27.6-31.6,30.8v10.7c0,3.1-2.5,5.6-5.6,5.6
		h-5.6C1937.6,856.9,1935.1,854.4,1935.1,851.3C1935.1,851.3,1935.1,851.3,1935.1,851.3z"/>
	<path class="st10" d="M394.5,659.4l-0.5,6.5l0,0c-0.1,0.6-0.6,1.1-1.2,1c-0.6-0.1-1.1-0.6-1-1.2l0,0l0.6-6.5c0.1-0.6,0.6-1,1.2-0.9
		C394.2,658.3,394.6,658.8,394.5,659.4L394.5,659.4z"/>
	<path class="st10" d="M393.4,681.1v6.5l0,0c-0.1,0.7-0.7,1.2-1.3,1.1c-0.6-0.1-1.1-0.5-1.1-1.1l0,0V681c0-0.7,0.5-1.2,1.2-1.2h0
		C392.8,679.8,393.3,680.4,393.4,681.1L393.4,681.1z"/>
	<path class="st10" d="M394.1,702.7l0.6,6.5l0,0c0.1,0.7-0.5,1.4-1.2,1.5c-0.7,0.1-1.4-0.5-1.5-1.2l0,0l-0.5-6.5
		c-0.1-0.7,0.5-1.4,1.2-1.4C393.4,701.4,394.1,702,394.1,702.7L394.1,702.7z"/>
	<path class="st10" d="M396.7,724.2l1.1,6.4l0,0c0.2,0.8-0.3,1.6-1.1,1.8s-1.6-0.3-1.8-1.1c0-0.1,0-0.1,0-0.2l0,0l-1-6.5
		c-0.1-0.8,0.4-1.5,1.2-1.6C395.8,722.9,396.6,723.4,396.7,724.2L396.7,724.2L396.7,724.2z"/>
	<path class="st10" d="M401,745.5l1.6,6.3l0,0c0.3,0.8,0,1.7-0.8,2.1c-0.8,0.3-1.7,0-2.1-0.8c-0.1-0.1-0.1-0.3-0.1-0.5l0,0l-1.6-6.4
		c-0.2-0.8,0.3-1.7,1.1-1.9S400.8,744.6,401,745.5L401,745.5z"/>
	<path class="st10" d="M407,766.3l2.1,6.2l0,0c0.3,0.9-0.2,1.8-1,2.1s-1.8-0.2-2.1-1l0,0l-2.1-6.2c-0.2-0.9,0.3-1.8,1.1-2
		C405.8,765,406.7,765.4,407,766.3L407,766.3z"/>
	<path class="st10" d="M414.5,786.6l2.6,6l0,0c0.3,0.9-0.2,2-1.1,2.3c-0.9,0.3-1.8-0.1-2.2-0.9l0,0l-2.5-6.1c-0.4-0.9,0-1.9,0.9-2.3
		S414.1,785.6,414.5,786.6L414.5,786.6L414.5,786.6z"/>
	<path class="st10" d="M423.6,806.2l3,5.8l0,0c0.5,0.9,0.1,2.1-0.8,2.6s-2.1,0.1-2.6-0.8l0,0l-3-5.9c-0.5-0.9-0.1-2,0.9-2.5
		C422,804.9,423.1,805.3,423.6,806.2L423.6,806.2z"/>
	<path class="st10" d="M434.1,825.1l3.4,5.5l0,0c0.6,0.9,0.3,2.2-0.6,2.8c0,0,0,0,0,0c-0.9,0.6-2.2,0.3-2.8-0.6c0,0,0,0,0,0l0,0
		l-3.4-5.6c-0.4-1,0-2.2,1-2.6C432.5,824.2,433.5,824.4,434.1,825.1L434.1,825.1z"/>
	<path class="st10" d="M446,843.2l3.8,5.2l0,0c0.7,1,0.4,2.3-0.5,3c-0.9,0.6-2.2,0.4-2.9-0.5l0,0l-3.8-5.4c-0.6-1-0.3-2.3,0.7-2.9
		C444.1,842.2,445.3,842.3,446,843.2L446,843.2z"/>
	<path class="st10" d="M459.1,860.3l4.2,4.9l0,0c0.8,0.9,0.7,2.4-0.3,3.2c-0.9,0.8-2.4,0.7-3.2-0.3l0,0l0,0l-4.2-5.1
		c-0.8-0.9-0.7-2.3,0.3-3.1S458.3,859.4,459.1,860.3L459.1,860.3z"/>
	<path class="st10" d="M473.6,876.4l4.6,4.6l0,0c0.9,0.9,0.9,2.4,0,3.3c-0.9,0.9-2.4,0.9-3.3,0l0,0l0,0l-4.6-4.7
		c-0.9-0.9-0.9-2.4,0-3.3C471.1,875.4,472.6,875.5,473.6,876.4L473.6,876.4z"/>
	<path class="st10" d="M489.2,891.4l4.9,4.2l0,0c1,0.9,1.1,2.4,0.3,3.5c-0.9,1-2.4,1.1-3.5,0.3l0,0l0,0L486,895
		c-1-0.9-1-2.5-0.1-3.4C486.8,890.7,488.2,890.6,489.2,891.4L489.2,891.4z"/>
	<path class="st10" d="M505.9,905l5.2,3.8h0c1.1,0.9,1.3,2.5,0.5,3.6c-0.8,1.1-2.4,1.3-3.5,0.5l0,0l-5.3-4c-1-0.9-1.1-2.6-0.2-3.6
		C503.5,904.5,504.8,904.3,505.9,905L505.9,905z"/>
	<path class="st10" d="M523.6,917.3l5.5,3.4h0.1c1.3,0.7,1.8,2.3,1.1,3.6c-0.7,1.3-2.3,1.8-3.6,1.1c-0.1,0-0.2-0.1-0.3-0.2l0,0
		l-5.6-3.5c-1.2-0.8-1.6-2.4-0.9-3.6S522.4,916.4,523.6,917.3L523.6,917.3z"/>
	<path class="st10" d="M542.3,928l5.8,2.9h0.1c1.4,0.6,2,2.2,1.4,3.6c-0.6,1.4-2.2,2-3.6,1.4c-0.1,0-0.2-0.1-0.2-0.1l0,0l-5.9-3
		c-1.3-0.7-1.9-2.3-1.2-3.6S540.9,927.3,542.3,928L542.3,928z"/>
	<path class="st10" d="M561.8,937.2l6,2.4h0.1c1.4,0.6,2.1,2.2,1.6,3.6s-2.2,2.1-3.6,1.6l0,0l0,0l-6.1-2.5c-1.4-0.6-2-2.3-1.3-3.7
		C559,937.3,560.4,936.7,561.8,937.2L561.8,937.2z"/>
	<path class="st10" d="M582,944.6l6.2,1.9h0.1c1.5,0.5,2.4,2.1,1.9,3.6s-2.1,2.4-3.6,1.9l0,0l-6.3-2c-1.5-0.5-2.2-2.1-1.7-3.6
		C579.1,945,580.6,944.2,582,944.6L582,944.6z"/>
	<path class="st10" d="M602.8,950.4l6.3,1.4h0.1c1.6,0.4,2.6,1.9,2.2,3.5c-0.4,1.6-1.9,2.6-3.5,2.2l0,0l0,0l-6.4-1.5
		c-1.5-0.4-2.5-2-2-3.5C599.8,951,601.2,950.1,602.8,950.4L602.8,950.4z"/>
	<path class="st10" d="M623.9,954.6l6.4,0.9h0.1c1.7,0,3,1.4,2.9,3.1s-1.4,3-3.1,2.9c-0.2,0-0.5,0-0.7-0.1l0,0l-6.5-1
		c-1.6-0.5-2.4-2.2-1.9-3.8C621.5,955.4,622.6,954.6,623.9,954.6L623.9,954.6z"/>
	<path class="st10" d="M645.3,957.2l6.5,0.5h0.1c1.7,0.1,2.9,1.6,2.8,3.3s-1.6,2.9-3.3,2.8l0,0l0,0l-6.6-0.5
		c-1.7-0.1-2.9-1.6-2.8-3.2S643.6,957,645.3,957.2L645.3,957.2z"/>
	<path class="st10" d="M666.9,958.3l6.5,0h0.1c1.7,0,3.1,1.4,3.1,3.1c0,1.7-1.4,3.1-3.1,3.1l0,0l-6.6-0.1c-1.7,0-3.1-1.4-3-3.1
		S665.2,958.3,666.9,958.3L666.9,958.3z"/>
	<path class="st10" d="M688.5,958l6.5-0.4h0.1c1.7-0.1,3.2,1.2,3.4,2.9s-1.2,3.2-2.9,3.4c0,0,0,0-0.1,0l0,0l-6.6,0.3
		c-1.7,0.1-3.2-1.2-3.3-3C685.4,959.6,686.7,958.1,688.5,958L688.5,958z"/>
	<path class="st10" d="M710,956.3l6.4-0.8h0.1c1.8-0.2,3.4,1.1,3.6,2.8s-1.1,3.4-2.8,3.6l0,0l-6.5,0.7c-1.8,0.1-3.3-1.2-3.4-3
		C707.2,958,708.3,956.6,710,956.3L710,956.3z"/>
	<path class="st10" d="M731.4,953.3l6.4-1.1l0,0c1.8-0.3,3.5,0.9,3.8,2.7c0.3,1.8-0.9,3.4-2.6,3.8l0,0l-6.5,1.1
		c-1.8,0.3-3.4-1-3.7-2.8C728.4,955.3,729.6,953.7,731.4,953.3L731.4,953.3z"/>
	<path class="st10" d="M752.5,949.2l6.3-1.5l0,0c1.8-0.4,3.6,0.7,4,2.5s-0.7,3.6-2.5,4l0,0l0,0l-6.4,1.4c-1.8,0.4-3.6-0.7-4-2.5
		S750.7,949.6,752.5,949.2L752.5,949.2L752.5,949.2z"/>
	<path class="st10" d="M773.5,943.8l6.2-1.8l0,0c1.8-0.4,3.7,0.7,4.1,2.5c0.4,1.7-0.5,3.5-2.2,4l0,0l-6.3,1.8
		c-1.8,0.5-3.7-0.5-4.2-2.3S771.6,944.4,773.5,943.8L773.5,943.8z"/>
	<path class="st10" d="M794.1,937.5l6.1-2.1l0,0c1.8-0.7,3.8,0.1,4.5,1.9c0.7,1.8-0.1,3.8-1.9,4.5c-0.1,0-0.2,0.1-0.3,0.1l0,0
		l-6.2,2.1c-1.8,0.5-3.8-0.5-4.3-2.3C791.5,939.9,792.4,938.1,794.1,937.5L794.1,937.5z"/>
	<path class="st10" d="M814.4,930.1l6-2.4l0,0c1.8-0.7,3.9,0.2,4.6,2c0.7,1.8-0.2,3.9-2,4.6l0,0l-6.1,2.4c-1.8,0.7-3.8-0.3-4.5-2.1
		C811.8,932.8,812.7,930.8,814.4,930.1L814.4,930.1z"/>
	<path class="st10" d="M834.3,921.7l5.9-2.7l0,0c1.8-0.8,3.9,0,4.8,1.8c0.8,1.8,0,3.9-1.8,4.8l0,0l-6,2.7c-1.8,0.8-3.9,0-4.8-1.8
		s0-3.9,1.8-4.8L834.3,921.7z"/>
	<path class="st10" d="M853.8,912.4l5.8-3l0,0c1.8-0.8,4,0,4.9,1.8c0.8,1.7,0.1,3.7-1.5,4.7l0,0l-5.9,3c-1.8,0.8-4,0.1-4.8-1.8
		C851.4,915.4,852.1,913.3,853.8,912.4L853.8,912.4z"/>
	<path class="st10" d="M872.9,902.2l5.6-3.2l0,0c1.8-1,4-0.4,5,1.4s0.4,4-1.4,5l0,0l-5.7,3.3c-1.8,0.9-4,0.2-5-1.6
		C870.7,905.3,871.2,903.2,872.9,902.2L872.9,902.2z"/>
	<path class="st10" d="M891.5,891.2l5.5-3.4l0,0c1.6-1.2,4-0.9,5.2,0.7c1.2,1.6,0.9,4-0.7,5.2c-0.2,0.1-0.4,0.3-0.6,0.4l0,0
		l-5.6,3.5c-1.8,1-4,0.4-5.1-1.4C889.4,894.4,889.9,892.3,891.5,891.2L891.5,891.2z"/>
	<path class="st10" d="M909.8,879.5l5.4-3.6l0,0c1.7-1.2,4-0.7,5.2,1s0.7,4-1,5.2l0,0l-5.5,3.7c-1.7,1.1-4,0.6-5.2-1.1
		C907.7,882.9,908.1,880.7,909.8,879.5L909.8,879.5z"/>
	<path class="st10" d="M927.6,867.2l5.3-3.8l0,0c1.7-1.2,4-0.8,5.2,0.8s0.8,4-0.8,5.2l0,0l-5.3,3.8c-1.7,1.1-4.1,0.6-5.2-1.1
		C925.7,870.5,926,868.4,927.6,867.2L927.6,867.2z"/>
	<path class="st10" d="M945,854.3l5.1-4l0,0c1.7-1.3,4-1,5.3,0.7s1,4-0.7,5.3l0,0l0,0l-5.2,4c-1.7,1.3-4,1-5.3-0.7
		S943.3,855.5,945,854.3L945,854.3z"/>
	<path class="st10" d="M962,840.8l5-4.1l0,0c1.6-1.3,4-1.1,5.3,0.5c1.3,1.6,1.1,4-0.5,5.3l0,0l-5.1,4.2c-1.6,1.3-4,1.1-5.3-0.5
		C960.1,844.5,960.3,842.2,962,840.8L962,840.8z"/>
	<path class="st10" d="M978.6,826.9l4.9-4.3l0,0c1.6-1.4,4-1.2,5.4,0.4s1.2,4-0.4,5.4l0,0l-5,4.3c-1.6,1.4-4,1.2-5.4-0.4
		S976.9,828.3,978.6,826.9L978.6,826.9L978.6,826.9z"/>
	<path class="st10" d="M994.9,812.6l4.8-4.4l0,0c1.6-1.4,4-1.2,5.4,0.5c1.3,1.5,1.2,3.8-0.3,5.2l0,0l-4.9,4.4
		c-1.6,1.4-4,1.3-5.4-0.3C993.2,816.5,993.3,814,994.9,812.6L994.9,812.6L994.9,812.6z"/>
	<path class="st10" d="M1010.9,797.9l4.7-4.5l0,0c1.5-1.5,3.9-1.6,5.5-0.1c1.5,1.5,1.6,3.9,0.1,5.5c-0.1,0.1-0.2,0.2-0.3,0.3l0,0
		l-4.8,4.5c-1.5,1.5-3.9,1.5-5.4,0c-1.5-1.5-1.5-3.9,0-5.4C1010.7,798,1010.8,798,1010.9,797.9L1010.9,797.9z"/>
	<path class="st10" d="M1026.6,782.9l4.7-4.5l0,0c1.5-1.5,4-1.6,5.5-0.1c1.5,1.5,1.6,4,0.1,5.5c0,0-0.1,0.1-0.1,0.1l0,0l-4.7,4.6
		c-1.5,1.5-3.9,1.6-5.5,0.1c-1.5-1.5-1.6-3.9-0.1-5.5C1026.5,783.1,1026.5,783,1026.6,782.9L1026.6,782.9z"/>
	<path class="st10" d="M1042.1,767.7l4.6-4.6l0,0c1.5-1.5,4-1.6,5.5-0.1c1.5,1.5,1.6,4,0.1,5.5c0,0,0,0-0.1,0.1l0,0l-4.6,4.6
		c-1.5,1.5-4,1.5-5.5,0S1040.5,769.2,1042.1,767.7L1042.1,767.7z"/>
	<path class="st10" d="M1057.3,752.2l4.6-4.7l0,0c1.5-1.6,4-1.6,5.5-0.1c1.6,1.5,1.6,4,0.1,5.5l0,0l-4.6,4.7c-1.5,1.5-4,1.6-5.5,0.1
		C1055.8,756.2,1055.8,753.8,1057.3,752.2L1057.3,752.2L1057.3,752.2z"/>
	<path class="st10" d="M1072.4,736.5l4.5-4.7c1.5-1.6,4-1.6,5.6-0.1c1.6,1.5,1.6,4,0.1,5.6l0,0l-4.5,4.8c-1.5,1.6-3.9,1.7-5.6,0.3
		c-1.6-1.5-1.7-3.9-0.3-5.6C1072.3,736.7,1072.4,736.6,1072.4,736.5L1072.4,736.5z"/>
	<path class="st10" d="M1087.4,720.7l4.5-4.8c1.7-1.4,4.2-1.1,5.6,0.6c1.1,1.4,1.2,3.4,0.2,4.8l0,0l-4.5,4.8
		c-1.7,1.4-4.2,1.1-5.6-0.7C1086.4,724.1,1086.4,722.2,1087.4,720.7L1087.4,720.7z"/>
	<path class="st10" d="M1102.3,704.8l4.4-4.8c1.7-1.5,4.2-1.3,5.6,0.3c1.3,1.4,1.3,3.5,0.2,5.1l0,0l-4.5,4.8
		c-1.7,1.4-4.2,1.2-5.6-0.5C1101.2,708.4,1101.2,706.3,1102.3,704.8L1102.3,704.8z"/>
	<path class="st10" d="M1117.1,688.9l4.4-4.8c1.5-1.6,4-1.7,5.7-0.2c1.6,1.5,1.7,4,0.2,5.7l0,0l-4.4,4.8c-1.6,1.5-4.1,1.5-5.7-0.1
		C1115.8,692.7,1115.8,690.4,1117.1,688.9L1117.1,688.9z"/>
	<path class="st10" d="M1131.9,672.9l4.4-4.8c1.5-1.6,4.1-1.7,5.7-0.2c1.6,1.5,1.7,4.1,0.2,5.7l0,0l-4.4,4.8
		c-1.5,1.6-4.1,1.7-5.7,0.2C1130.5,677,1130.4,674.5,1131.9,672.9L1131.9,672.9z"/>
	<path class="st10" d="M1146.7,656.9l4.5-4.8c1.5-1.6,4.1-1.7,5.7-0.2c1.6,1.5,1.7,4.1,0.2,5.7l0,0l-4.5,4.8
		c-1.5,1.6-4.1,1.7-5.7,0.2C1145.3,661.1,1145.2,658.5,1146.7,656.9L1146.7,656.9z"/>
	<path class="st10" d="M1161.6,641l4.5-4.8c1.5-1.7,4.1-1.8,5.7-0.4c1.7,1.5,1.8,4.1,0.4,5.7c-0.1,0.1-0.1,0.1-0.2,0.2l0,0l-4.5,4.7
		c-1.5,1.7-4,1.9-5.7,0.4c-1.7-1.5-1.9-4-0.4-5.7C1161.5,641.1,1161.5,641.1,1161.6,641L1161.6,641z"/>
	<path class="st10" d="M1176.6,625.2l4.5-4.7c1.6-1.6,4.1-1.7,5.8-0.1c1.6,1.6,1.7,4.1,0.1,5.8l0,0l-4.5,4.7l0,0
		c-1.6,1.6-4.2,1.5-5.8-0.1C1175.3,629.2,1175.2,626.8,1176.6,625.2L1176.6,625.2z"/>
	<path class="st10" d="M1191.8,609.5l4.6-4.7c1.5-1.7,4.1-1.8,5.8-0.2s1.8,4.1,0.2,5.8c-0.1,0.1-0.1,0.1-0.2,0.2l0,0l-4.6,4.6l0,0
		c-1.6,1.6-4.2,1.5-5.8-0.1C1190.4,613.5,1190.4,611.1,1191.8,609.5L1191.8,609.5z"/>
	<path class="st10" d="M1207.2,594l4.7-4.6c1.6-1.7,4.2-1.8,5.8-0.2s1.8,4.2,0.2,5.8c-0.1,0.1-0.2,0.2-0.3,0.3l0,0l-4.6,4.6l0,0
		c-1.6,1.6-4.2,1.7-5.8,0.1c-1.6-1.6-1.7-4.2-0.1-5.8C1207.1,594.1,1207.2,594,1207.2,594L1207.2,594z"/>
	<path class="st10" d="M1222.8,578.7l4.7-4.5c1.7-1.6,4.3-1.5,5.9,0.1s1.5,4.3-0.1,5.9l0,0l0,0l0,0l-4.7,4.5l0,0
		c-1.7,1.6-4.3,1.5-5.9-0.1S1221.2,580.3,1222.8,578.7L1222.8,578.7L1222.8,578.7z"/>
	<path class="st10" d="M1238.7,563.7l4.8-4.4c1.7-1.5,4.3-1.4,5.8,0.3c1.5,1.7,1.4,4.3-0.3,5.8l0,0l-4.8,4.4l0,0
		c-1.7,1.5-4.3,1.4-5.8-0.2C1237,567.9,1237.1,565.3,1238.7,563.7L1238.7,563.7z"/>
	<path class="st10" d="M1254.9,549l4.9-4.3c1.6-1.6,4.3-1.5,5.8,0.1c1.6,1.6,1.5,4.3-0.1,5.8c-0.1,0.1-0.2,0.2-0.3,0.2l0,0l-4.9,4.3
		l0,0c-1.7,1.5-4.3,1.3-5.8-0.4C1253.1,553.1,1253.3,550.5,1254.9,549L1254.9,549z"/>
	<path class="st10" d="M1271.5,534.7l5-4.2c1.8-1.4,4.4-1.1,5.8,0.7c1.3,1.7,1.1,4.1-0.5,5.6l0,0l-5,4.2l0,0c-1.8,1.4-4.4,1-5.8-0.8
		C1269.7,538.6,1269.9,536.2,1271.5,534.7L1271.5,534.7z"/>
	<path class="st10" d="M1288.4,520.9l5.2-4.1c1.7-1.5,4.3-1.3,5.8,0.4c1.5,1.7,1.3,4.3-0.4,5.8c-0.1,0.1-0.2,0.1-0.3,0.2l0,0l-5.1,4
		l0,0c-1.8,1.4-4.4,1-5.7-0.8C1286.5,524.7,1286.8,522.2,1288.4,520.9L1288.4,520.9z"/>
	<path class="st10" d="M1305.7,507.5l5.3-3.9c1.8-1.3,4.4-1,5.7,0.8c1.3,1.8,1,4.4-0.8,5.7l0,0l0,0l-5.2,3.9l0,0
		c-1.9,1.3-4.4,0.8-5.7-1.1C1303.8,511.1,1304.1,508.7,1305.7,507.5L1305.7,507.5z"/>
	<path class="st10" d="M1323.4,494.6l5.4-3.7c1.8-1.4,4.3-1,5.7,0.8s1,4.3-0.8,5.7c-0.1,0.1-0.2,0.1-0.3,0.2l0,0l-5.3,3.7l0,0
		c-1.9,1.2-4.4,0.7-5.6-1.2C1321.3,498.2,1321.8,495.8,1323.4,494.6L1323.4,494.6z"/>
	<path class="st10" d="M1341.6,482.3l5.5-3.6c1.9-1.2,4.4-0.7,5.6,1.2c1.2,1.9,0.7,4.4-1.2,5.6l0,0l0,0l-5.4,3.5l0,0
		c-1.9,1.2-4.4,0.7-5.6-1.2C1339.2,486,1339.8,483.5,1341.6,482.3L1341.6,482.3z"/>
	<path class="st10" d="M1360.2,470.7l5.7-3.4c1.9-1.1,4.4-0.5,5.5,1.4s0.5,4.4-1.4,5.5l0,0l-5.6,3.3l0,0c-1.9,1.1-4.4,0.5-5.5-1.4
		S1358.3,471.8,1360.2,470.7L1360.2,470.7z"/>
	<path class="st10" d="M1379.2,459.8l5.8-3.1c1.9-1.2,4.3-0.7,5.5,1.2c1.2,1.9,0.7,4.3-1.2,5.5c-0.2,0.1-0.3,0.2-0.5,0.3l0,0
		l-5.7,3.1l0,0c-1.9,1.1-4.4,0.3-5.4-1.6C1376.6,463.2,1377.3,460.7,1379.2,459.8L1379.2,459.8L1379.2,459.8z"/>
	<path class="st10" d="M1398.6,449.5l5.9-2.9c2-0.9,4.4,0.1,5.2,2.2c0.8,1.9,0.1,4-1.7,5l0,0l-5.8,2.9l0,0c-1.9,1.1-4.4,0.4-5.4-1.5
		c-1.1-1.9-0.4-4.4,1.5-5.4C1398.4,449.6,1398.6,449.5,1398.6,449.5L1398.6,449.5z"/>
	<path class="st10" d="M1418.4,440l6-2.7c2.1-0.7,4.4,0.4,5.1,2.5c0.6,1.8-0.1,3.8-1.8,4.7l0,0l-5.9,2.7l0,0
		c-2.1,0.7-4.4-0.4-5.1-2.5C1416,442.9,1416.8,440.9,1418.4,440L1418.4,440z"/>
	<path class="st10" d="M1438.4,431.2l6.1-2.5c2.1-0.5,4.3,0.8,4.9,2.9c0.4,1.7-0.3,3.5-1.9,4.4l0,0l-6,2.5l0,0
		c-2.1,0.5-4.3-0.8-4.9-2.9C1436.2,433.9,1437,432.1,1438.4,431.2L1438.4,431.2z"/>
	<path class="st10" d="M1458.8,423.2l6.2-2.3c2-0.8,4.3,0.3,5.1,2.3c0.8,2-0.3,4.3-2.3,5.1l0,0l0,0l-6.1,2.3l0,0
		c-2,0.8-4.3-0.1-5.2-2.1c-0.8-2,0.1-4.3,2.1-5.2C1458.7,423.2,1458.8,423.2,1458.8,423.2L1458.8,423.2z"/>
	<path class="st10" d="M1479.5,415.8l6.3-2.1c2-0.8,4.3,0.3,5,2.3c0.8,2-0.3,4.3-2.3,5c-0.1,0-0.2,0.1-0.3,0.1l0,0l-6.2,2l0,0
		c-2,0.7-4.3-0.3-5-2.4C1476.3,418.8,1477.3,416.5,1479.5,415.8C1479.4,415.8,1479.5,415.8,1479.5,415.8L1479.5,415.8z"/>
	<path class="st10" d="M1500.4,409.2l6.3-1.8c2.1-0.6,4.2,0.6,4.8,2.7s-0.6,4.2-2.7,4.8l0,0l-6.2,1.8l0,0c-2.1,0.5-4.2-0.7-4.8-2.8
		C1497.4,411.9,1498.5,409.8,1500.4,409.2L1500.4,409.2z"/>
	<path class="st10" d="M1521.5,403.3l6.4-1.6c2.1-0.5,4.2,0.7,4.7,2.8s-0.7,4.2-2.8,4.7l0,0l0,0l-6.3,1.6l0,0
		c-2.1,0.5-4.2-0.7-4.7-2.8C1518.2,406,1519.5,403.9,1521.5,403.3L1521.5,403.3L1521.5,403.3z"/>
	<path class="st10" d="M1542.8,398.2l6.4-1.4c2.1-0.5,4.2,0.9,4.6,3c0.5,2.1-0.9,4.2-3,4.6l0,0l-6.3,1.4l0,0c-2.1,0.5-4.2-0.9-4.6-3
		C1539.5,400.7,1540.8,398.7,1542.8,398.2L1542.8,398.2z"/>
	<path class="st10" d="M1564.3,393.9l6.5-1.2c2.1-0.3,4.1,1.2,4.3,3.3c0.3,2-1,3.8-3,4.3l0,0l-6.4,1.2l0,0c-2.1,0.4-4.1-1-4.5-3.1
		S1562.3,394.2,1564.3,393.9L1564.3,393.9z"/>
	<path class="st10" d="M1585.9,390.2l6.5-0.9c2.1-0.2,4,1.3,4.3,3.4c0.2,2-1.2,3.9-3.2,4.2l0,0l-6.4,0.9l0,0c-2.1,0.4-4.1-0.9-4.5-3
		c-0.4-2.1,0.9-4.1,3-4.5C1585.7,390.3,1585.9,390.2,1585.9,390.2L1585.9,390.2z"/>
	<path class="st10" d="M1607.7,387.4l6.5-0.7c2.1-0.2,4,1.3,4.2,3.4s-1.3,4-3.4,4.2l0,0l-6.5,0.7l0,0c-2.1,0.2-4-1.4-4.1-3.6
		C1604.3,389.5,1605.7,387.7,1607.7,387.4L1607.7,387.4z"/>
	<path class="st10" d="M1629.5,385.3l6.6-0.5c2.1-0.1,3.9,1.5,4.1,3.6c0.1,2.1-1.4,3.9-3.5,4.1l0,0l-6.5,0.5l0,0
		c-2.1,0.2-3.9-1.4-4.1-3.5C1625.9,387.3,1627.4,385.5,1629.5,385.3L1629.5,385.3z"/>
	<path class="st10" d="M1651.4,384l6.6-0.2c2.1,0,3.8,1.7,3.8,3.8c0,2-1.5,3.6-3.5,3.8l0,0l-6.5,0.3l0,0c-2.1,0-3.8-1.7-3.8-3.8
		C1647.9,385.8,1649.4,384.1,1651.4,384L1651.4,384z"/>
	<path class="st10" d="M1673.3,383.5h6.6c2.1-0.1,3.9,1.5,4,3.6c0.1,2.1-1.5,3.9-3.6,4c-0.1,0-0.3,0-0.4,0h-6.6
		c-2.1,0-3.8-1.7-3.8-3.8C1669.5,385.2,1671.2,383.5,1673.3,383.5L1673.3,383.5z"/>
	<path class="st10" d="M1695.2,383.8l6.6,0.2c2.1,0.1,3.7,1.8,3.6,3.9c-0.1,2.1-1.8,3.7-3.9,3.6l0,0l0,0l-6.5-0.2l0,0
		c-2.1-0.1-3.7-1.8-3.6-3.9C1691.4,385.3,1693.2,383.7,1695.2,383.8L1695.2,383.8z"/>
	<path class="st10" d="M1717.1,384.8l6.6,0.5c2.1,0.1,3.6,1.9,3.5,4s-1.9,3.6-4,3.5l0,0l0,0l-6.5-0.5l0,0c-2.1-0.2-3.6-2-3.4-4.1
		C1713.4,386.2,1715.1,384.7,1717.1,384.8L1717.1,384.8z"/>
	<path class="st10" d="M1738.9,386.7l6.5,0.7c2,0.3,3.5,2.2,3.1,4.3c-0.3,1.9-2,3.3-4,3.2l0,0l-6.4-0.7l0,0
		c-2.1-0.2-3.5-2.1-3.3-4.1S1736.9,386.5,1738.9,386.7L1738.9,386.7z"/>
	<path class="st10" d="M1760.7,389.3l6.5,1c2,0.3,3.4,2.2,3.1,4.3c-0.3,2-2.2,3.3-4.1,3.1l0,0l-6.4-0.9l0,0c-2-0.3-3.4-2.2-3.1-4.2
		S1758.7,389.1,1760.7,389.3L1760.7,389.3z"/>
	<path class="st10" d="M1782.3,392.8l6.5,1.2c2,0.4,3.3,2.4,2.9,4.4c-0.4,2-2.3,3.3-4.3,2.9l0,0l-6.4-1.2l0,0
		c-2-0.3-3.4-2.2-3.1-4.3C1778.3,393.9,1780.2,392.5,1782.3,392.8C1782.3,392.8,1782.3,392.8,1782.3,392.8L1782.3,392.8z"/>
	<path class="st10" d="M1803.8,397.2l6.4,1.5c2,0.4,3.3,2.3,2.9,4.3s-2.3,3.3-4.3,2.9c-0.1,0-0.2,0-0.2-0.1l0,0l-6.3-1.5l0,0
		c-2-0.5-3.1-2.6-2.6-4.6C1800.2,398,1802,396.9,1803.8,397.2L1803.8,397.2z"/>
	<path class="st10" d="M1825.1,402.6l6.3,1.8c2,0.4,3.2,2.4,2.8,4.4c-0.4,2-2.4,3.2-4.4,2.8c-0.1,0-0.3-0.1-0.4-0.1l0,0l-6.2-1.8
		h-0.1c-1.9-0.6-3-2.7-2.4-4.6C1821.3,403.2,1823.3,402.1,1825.1,402.6L1825.1,402.6z"/>
	<path class="st10" d="M1846.1,409l6.2,2.1c1.9,0.6,2.9,2.7,2.3,4.6s-2.7,2.9-4.6,2.3l0,0l-6.1-2.1h-0.1c-1.9-0.7-2.8-2.8-2.1-4.7
		C1842.4,409.4,1844.3,408.5,1846.1,409L1846.1,409z"/>
	<path class="st10" d="M1866.8,416.5l6.1,2.5c1.8,0.7,2.7,2.8,2,4.7c-0.7,1.8-2.8,2.7-4.7,2l0,0l-6-2.4h-0.1c-1.8-0.8-2.6-3-1.8-4.8
		C1863.2,416.7,1865.1,415.9,1866.8,416.5L1866.8,416.5z"/>
	<path class="st10" d="M1887,425.1l6,2.8c1.7,1,2.3,3.1,1.3,4.8c-0.9,1.5-2.7,2.2-4.3,1.6l0,0l-5.9-2.7h-0.1c-1.7-0.9-2.4-3-1.5-4.8
		C1883.4,425.2,1885.4,424.4,1887,425.1L1887,425.1z"/>
	<path class="st10" d="M1906.7,435l5.8,3.2c1.7,1,2.2,3.1,1.3,4.8c-0.9,1.6-3,2.2-4.7,1.3l0,0l-5.7-3.1h-0.1
		c-1.7-0.9-2.3-3.1-1.4-4.8S1905,434.1,1906.7,435L1906.7,435L1906.7,435z"/>
	<path class="st10" d="M1925.6,446.2l5.5,3.6c1.6,1.1,2,3.2,0.9,4.8c-1,1.5-3.1,2-4.7,1h-0.1l-5.4-3.5h-0.1c-1.6-1-2.1-3.2-1-4.8
		S1924,445.2,1925.6,446.2L1925.6,446.2z"/>
	<path class="st10" d="M1943.8,458.7l5.3,4c1.5,1.1,1.8,3.3,0.6,4.8s-3.3,1.8-4.8,0.6h-0.1l-5.1-3.9l-0.1,0
		c-1.5-1.1-1.8-3.3-0.7-4.8C1940.1,457.8,1942.3,457.6,1943.8,458.7L1943.8,458.7L1943.8,458.7z"/>
	<path class="st10" d="M1960.9,472.6l4.9,4.4c1.4,1.2,1.5,3.4,0.3,4.7s-3.4,1.5-4.7,0.3v0l-4.8-4.3l-0.1,0c-1.4-1.2-1.6-3.3-0.5-4.7
		c1.2-1.4,3.3-1.6,4.7-0.5C1960.8,472.5,1960.9,472.5,1960.9,472.6L1960.9,472.6z"/>
	<path class="st10" d="M1976.8,487.9l4.5,4.9c1.2,1.3,1.2,3.4-0.2,4.7c-1.3,1.2-3.4,1.2-4.7-0.2l0,0v-0.1l-4.4-4.7l-0.1-0.1
		c-1.2-1.4-1-3.5,0.3-4.7C1973.7,486.6,1975.6,486.6,1976.8,487.9L1976.8,487.9z"/>
	<path class="st10" d="M1991.3,504.5l4,5.3c1.1,1.4,0.8,3.5-0.6,4.6c-1.4,1.1-3.5,0.8-4.6-0.6l0,0v-0.1l-3.9-5.1l-0.1-0.1
		c-1.1-1.4-0.8-3.5,0.6-4.6C1988.1,502.9,1990.2,503.1,1991.3,504.5L1991.3,504.5z"/>
	<path class="st10" d="M2004.1,522.5l3.5,5.6c0.9,1.5,0.3,3.5-1.2,4.4c-1.4,0.8-3.3,0.4-4.2-1v-0.1l-3.4-5.5l-0.1-0.1
		c-0.9-1.5-0.5-3.5,1-4.4C2001.2,520.5,2003.2,521,2004.1,522.5L2004.1,522.5z"/>
	<path class="st10" d="M2015.1,541.7l2.9,6c0.8,1.6,0.1,3.5-1.4,4.2c-1.6,0.8-3.5,0.1-4.2-1.4v-0.1l-2.9-5.8v-0.1
		c-0.8-1.6-0.1-3.5,1.4-4.2C2012.5,539.5,2014.4,540.1,2015.1,541.7L2015.1,541.7z"/>
	<path class="st10" d="M2024.1,561.8l2.3,6.2c0.6,1.6-0.2,3.4-1.8,4c-1.6,0.6-3.4-0.2-4-1.8l0,0v-0.1l-2.3-6v-0.1
		c-0.7-1.6,0-3.4,1.6-4.1s3.4,0,4.1,1.6C2024.1,561.6,2024.2,561.7,2024.1,561.8L2024.1,561.8z"/>
	<path class="st10" d="M2031.3,582.7l1.8,6.4c0.4,1.7-0.7,3.3-2.3,3.6c-1.5,0.3-3.1-0.5-3.6-2v-0.1l-1.8-6.2v-0.1
		c-0.5-1.6,0.3-3.3,1.9-3.9c1.6-0.5,3.3,0.3,3.9,1.9C2031.3,582.5,2031.3,582.6,2031.3,582.7L2031.3,582.7z"/>
	<path class="st10" d="M2036.5,604.1l1.2,6.5c0.3,1.6-0.8,3.2-2.4,3.5c-1.6,0.3-3.2-0.8-3.5-2.4v-0.1l-1.2-6.3v-0.1
		c-0.3-1.6,0.8-3.2,2.4-3.5C2034.6,601.4,2036.2,602.5,2036.5,604.1L2036.5,604.1z"/>
	<path class="st10" d="M2039.9,625.9l0.6,6.6c-0.1,1.7-1.5,2.9-3.2,2.8c-1.3-0.1-2.4-1-2.7-2.2v0l-0.7-6.4v-0.1
		c0.1-1.7,1.5-2.9,3.1-2.9C2038.4,623.7,2039.6,624.6,2039.9,625.9L2039.9,625.9z"/>
	<path class="st10" d="M2041.4,647.9l0.1,6.6c0,1.6-1.3,2.9-2.9,2.9c-1.6,0-2.9-1.3-2.9-2.9l0,0v-0.1l-0.1-6.5v0
		c-0.1-1.6,1.1-3,2.7-3.1c1.6-0.1,3,1.1,3.1,2.7C2041.4,647.7,2041.4,647.8,2041.4,647.9L2041.4,647.9z"/>
	<path class="st10" d="M2041,669.9l-0.5,6.6c-0.1,1.6-1.5,2.8-3.1,2.6c-1.6-0.1-2.8-1.5-2.7-3.1l0,0V676l0.4-6.4v-0.1
		c0.2-1.6,1.6-2.7,3.2-2.5C2039.9,667.1,2041,668.4,2041,669.9L2041,669.9z"/>
	<path class="st10" d="M2038.8,691.8l-1,6.5c-0.2,1.5-1.7,2.6-3.2,2.3c-1.5-0.2-2.6-1.7-2.3-3.2v0l1-6.4v-0.1
		c0.2-1.6,1.5-2.7,3.1-2.5c1.6,0.2,2.7,1.5,2.5,3.1C2038.9,691.6,2038.9,691.7,2038.8,691.8L2038.8,691.8z"/>
	<path class="st10" d="M2034.8,713.4l-1.6,6.4c-0.4,1.5-1.9,2.4-3.3,2c-1.5-0.4-2.4-1.9-2-3.3l0,0v-0.1l1.5-6.3v-0.1
		c0.3-1.5,1.7-2.5,3.3-2.2s2.5,1.7,2.2,3.3C2034.8,713.3,2034.8,713.3,2034.8,713.4L2034.8,713.4z"/>
	<path class="st10" d="M2028.9,734.6l-2.1,6.3c-0.5,1.4-2.1,2.1-3.5,1.6c-1.4-0.5-2.1-2-1.7-3.4v-0.1l2.1-6.1v-0.1
		c0.5-1.4,2-2.2,3.5-1.7C2028.6,731.7,2029.3,733.2,2028.9,734.6L2028.9,734.6L2028.9,734.6z"/>
	<path class="st10" d="M2021.2,755.3l-2.7,6c-0.6,1.3-2.2,2-3.5,1.4c-1.3-0.6-2-2.2-1.4-3.5l0,0V759l2.6-5.9V753
		c0.6-1.4,2.2-2,3.5-1.4S2021.7,753.8,2021.2,755.3L2021.2,755.3z"/>
	<path class="st10" d="M2011.6,775.1l-3.2,5.8c-0.7,1.3-2.3,1.7-3.6,1c-1.3-0.7-1.7-2.3-1-3.6l0,0l0,0l3.1-5.7v-0.1
		c0.8-1.2,2.4-1.6,3.6-0.8C2011.7,772.4,2012.1,773.9,2011.6,775.1L2011.6,775.1z"/>
	<path class="st10" d="M2000.1,793.9l-3.8,5.4c-0.9,1.1-2.5,1.3-3.6,0.5c-1-0.8-1.3-2.2-0.6-3.4v-0.1l3.7-5.3V791
		c0.8-1.2,2.4-1.5,3.6-0.7C2000.6,791.1,2000.9,792.7,2000.1,793.9L2000.1,793.9z"/>
	<path class="st10" d="M1986.9,811.5l-4.3,5c-0.9,1-2.5,1-3.5,0.1c-0.9-0.9-1-2.3-0.3-3.3l0.1-0.1l4.2-4.9v-0.1
		c0.9-1.1,2.4-1.2,3.5-0.4S1987.8,810.3,1986.9,811.5C1986.9,811.4,1986.9,811.5,1986.9,811.5L1986.9,811.5z"/>
	<path class="st10" d="M1971.9,827.6l-4.8,4.5c-0.9,0.9-2.4,0.9-3.3-0.1c-0.9-0.9-0.9-2.4,0.1-3.3h0.1l4.7-4.5v0
		c1-0.9,2.5-0.9,3.4,0.1C1972.9,825.3,1972.8,826.8,1971.9,827.6L1971.9,827.6L1971.9,827.6z"/>
	<path class="st10" d="M1955.4,842.2l-5.2,4c-1,0.8-2.4,0.6-3.2-0.4c-0.8-1-0.6-2.4,0.4-3.2l0,0h0.1l5.1-4l0,0
		c1-0.7,2.5-0.5,3.2,0.5C1956.4,840.1,1956.2,841.4,1955.4,842.2L1955.4,842.2z"/>
	<path class="st10" d="M1937.5,855l-5.6,3.5c-1.1,0.6-2.4,0.2-3-0.9c-0.5-1-0.3-2.2,0.6-2.8h0.1l5.4-3.5h0.1c1-0.7,2.4-0.4,3.1,0.7
		C1938.9,853,1938.6,854.4,1937.5,855L1937.5,855z"/>
	<path class="st10" d="M1918.5,866.1l-5.9,3c-1,0.5-2.3,0.1-2.8-0.9c-0.5-1-0.1-2.3,0.9-2.8h0.1l5.8-3l0,0c1-0.6,2.3-0.1,2.9,0.9
		C1920,864.2,1919.6,865.5,1918.5,866.1L1918.5,866.1L1918.5,866.1z"/>
	<path class="st10" d="M1898.6,875.3l-6.1,2.4c-1,0.4-2.2-0.1-2.6-1.1s0.1-2.2,1.1-2.6l0,0l6-2.4l0,0c1-0.4,2.2,0.1,2.7,1.1
		C1900.1,873.7,1899.6,874.9,1898.6,875.3L1898.6,875.3L1898.6,875.3z"/>
	<path class="st10" d="M1878,882.8l-6.3,1.9c-1,0.3-2.1-0.3-2.4-1.3c-0.3-1,0.3-2.1,1.3-2.4l0,0l6.2-1.9l0,0
		c1.1-0.1,2.1,0.7,2.2,1.8C1879.1,881.6,1878.6,882.4,1878,882.8L1878,882.8z"/>
	<path class="st10" d="M1856.7,888.4l-6.4,1.3c-1,0.2-2-0.4-2.2-1.4c-0.2-1,0.4-2,1.4-2.2l0,0l6.3-1.4l0,0c1-0.2,2,0.4,2.2,1.4
		C1858.3,887.2,1857.7,888.2,1856.7,888.4L1856.7,888.4L1856.7,888.4z"/>
	<path class="st10" d="M1835.2,892.3l-6.5,0.8c-1,0.1-1.9-0.6-2-1.5c0,0,0,0,0,0c-0.1-1,0.5-1.9,1.5-2c0,0,0,0,0,0l0,0l6.4-0.8l0,0
		c1-0.1,1.9,0.6,2,1.6c0.1,1-0.6,1.9-1.6,2L1835.2,892.3z"/>
	<path class="st10" d="M1813.3,894.3l-6.6,0.2c-0.9,0-1.7-0.7-1.8-1.6s0.7-1.7,1.6-1.8h0.1l6.5-0.3l0,0c0.9-0.1,1.8,0.6,1.9,1.5
		s-0.6,1.8-1.5,1.9C1813.4,894.3,1813.4,894.3,1813.3,894.3L1813.3,894.3z"/>
	<path class="st10" d="M1791.4,894.4l-6.6-0.3c-0.9-0.1-1.5-0.9-1.4-1.8c0.1-0.8,0.8-1.4,1.6-1.4l0,0l6.5,0.3l0,0
		c0.9,0,1.6,0.8,1.6,1.7C1793,893.8,1792.2,894.5,1791.4,894.4L1791.4,894.4z"/>
	<path class="st10" d="M1769.6,892.8l-6.5-0.9c-0.8-0.1-1.4-0.9-1.3-1.7c0.1-0.8,0.9-1.4,1.7-1.3l0,0l6.5,0.8l0,0
		c0.8,0.3,1.2,1.1,1,1.9C1770.7,892.2,1770.1,892.7,1769.6,892.8L1769.6,892.8z"/>
	<path class="st10" d="M1747.9,889.2l-6.4-1.5c-0.8-0.2-1.3-0.9-1.1-1.7c0.2-0.8,0.9-1.3,1.7-1.1l0,0l6.3,1.4l0,0
		c0.8,0.2,1.2,1,1,1.8C1749.3,888.8,1748.6,889.3,1747.9,889.2L1747.9,889.2z"/>
	<path class="st10" d="M1726.7,883.7l-6.2-2c-0.7-0.2-1.1-1-0.9-1.7c0.2-0.7,1-1.1,1.7-0.9l0,0l6.2,1.9l0,0c0.7,0.2,1.1,1,0.9,1.7
		S1727.4,883.9,1726.7,883.7L1726.7,883.7L1726.7,883.7z"/>
	<path class="st10" d="M1706.1,876.3l-6-2.6c-0.6-0.3-0.9-1.1-0.6-1.7c0.3-0.6,1-0.9,1.6-0.6l0,0l6,2.5l0,0c0.7,0.3,1,1,0.7,1.7
		C1707.5,876.2,1706.8,876.5,1706.1,876.3L1706.1,876.3z"/>
	<path class="st10" d="M1686.3,866.9l-5.7-3.2c-0.5-0.3-0.7-1.1-0.4-1.6c0.3-0.5,1-0.7,1.5-0.4l0,0l5.7,3.1l0,0
		c0.6,0.3,0.8,1,0.5,1.6S1686.8,867.2,1686.3,866.9L1686.3,866.9L1686.3,866.9z"/>
	<path class="st10" d="M1667.6,855.6l-4.2-2.9c-0.5-0.4-0.5-1.1-0.1-1.5c0.3-0.4,0.9-0.5,1.4-0.3l0,0l4.2,2.9l0,0
		c0.5,0.3,0.7,1,0.4,1.5C1668.8,855.8,1668.1,856,1667.6,855.6C1667.6,855.6,1667.5,855.6,1667.6,855.6L1667.6,855.6z"/>
	<path class="st8" d="M1528,1565c2.8,0.1,5.3-1.8,6-4.5l94-497.4c0.6-2.9-1.7-5.7-5-6.2s-6.4,1.5-7,4.4l-94,497.5
		c-0.6,2.9,1.7,5.7,5,6.2C1527.3,1565,1527.7,1565,1528,1565z"/>
	<path class="st8" d="M1845,1565c0.4,0,0.8,0,1.2-0.1c3.3-0.6,5.4-3.4,4.7-6.3l-110.8-491c-0.7-2.9-3.8-4.8-7.1-4.2
		s-5.4,3.4-4.7,6.4l110.8,491C1839.8,1563.3,1842.3,1565.1,1845,1565z"/>
	<path class="st8" d="M1599.7,1186h160.6c3.3,0,6-2.4,6-5.4s-2.7-5.4-6-5.4h-160.6c-3.3,0-6,2.4-6,5.4S1596.4,1186,1599.7,1186z"/>
	<path class="st8" d="M1602.6,1186h154.8c3,0.2,5.6-2,5.8-5s-2-5.6-5-5.8c-0.3,0-0.5,0-0.8,0h-154.8c-3-0.2-5.6,2-5.8,5s2,5.6,5,5.8
		C1602.1,1186,1602.4,1186,1602.6,1186z"/>
	<path class="st8" d="M1599.7,1276h160.6c3.3,0,6-2.4,6-5.4s-2.7-5.4-6-5.4h-160.6c-3.3,0-6,2.4-6,5.4S1596.4,1276,1599.7,1276z"/>
	<path class="st8" d="M1585.1,1276h194.7c3.3,0,6-2.4,6-5.4s-2.7-5.4-6-5.4h-194.7c-3.3,0-6,2.4-6,5.4S1581.8,1276,1585.1,1276z"/>
	<path class="st8" d="M1599.7,1365.9h160.6c3.3,0,6-2.4,6-5.4s-2.7-5.4-6-5.4h-160.6c-3.3,0-6,2.4-6,5.4
		S1596.4,1365.9,1599.7,1365.9z"/>
	<path class="st8" d="M1566.5,1365.9h233c3.3,0,6-2.4,6-5.4s-2.7-5.4-6-5.4h-233c-3.3,0-6,2.4-6,5.4S1563.2,1365.9,1566.5,1365.9z"
		/>
	<path class="st8" d="M1599.7,1455.9h218.6c3.3,0,6-2.4,6-5.4s-2.7-5.4-6-5.4h-218.6c-3.3,0-6,2.4-6,5.4
		S1596.4,1455.9,1599.7,1455.9z"/>
	<path class="st8" d="M1551.5,1455.9h266.8c3.3,0,6-2.4,6-5.4s-2.7-5.4-6-5.4h-266.8c-3.3,0-6,2.4-6,5.4
		S1548.2,1455.9,1551.5,1455.9z"/>
	<path class="st4" d="M1744.2,1243.9c0,0,3.9,6.2,4.9,23.5c0.1,1.6-1.1,2.9-2.6,3c-0.1,0-0.1,0-0.2,0h-30.7c-1,0-1.8-0.8-1.8-1.8
		c0-0.2,0-0.4,0.1-0.6c1.8-5.3,7.2-18.3,19.3-25.7L1744.2,1243.9z"/>
	
		<linearGradient id="SVGID_15_" gradientUnits="userSpaceOnUse" x1="-766.1" y1="408.6703" x2="-751.7999" y2="408.6703" gradientTransform="matrix(-1 0 0 -1 979.41 1648.661)">
		<stop  offset="0" style="stop-color:#FF928E"/>
		<stop  offset="1" style="stop-color:#FEB3B1"/>
	</linearGradient>
	<path class="st27" d="M1745.5,1232.2l-1.7,14.5c-0.1,1.3-1.1,2.3-2.4,2.4c-2.2,0.3-4.3,0.3-6.5-0.1c-2.2-0.4-3.7-2.3-3.7-4.4v-14
		L1745.5,1232.2z"/>
	<path class="st4" d="M1668.3,1242.3c3.8,6.6,5.8,14,5.7,21.6c-0.1,3-2.5,5.3-5.4,5.3H1621c-1.3,0-2.3-1-2.3-2.2
		c0-0.8,0.4-1.5,1-1.9c9-6.3,26.7-18.1,39.5-22.8H1668.3z"/>
	
		<linearGradient id="SVGID_16_" gradientUnits="userSpaceOnUse" x1="-693.84" y1="415.0031" x2="-679.6122" y2="415.0031" gradientTransform="matrix(-1 0 0 -1 979.41 1648.661)">
		<stop  offset="0" style="stop-color:#FF928E"/>
		<stop  offset="1" style="stop-color:#FEB3B1"/>
	</linearGradient>
	<path class="st28" d="M1673.3,1226.6l-3.7,18c-0.4,2-2.4,3.3-4.4,2.9c0,0,0,0,0,0c-1.5-0.3-2.9-0.9-4.2-1.8
		c-1.5-0.9-2.2-2.6-1.9-4.3l3.8-21.8L1673.3,1226.6z"/>
	<path class="st4" d="M1738.7,977c0,0,12.9,11.3,15.3,25s-6.9,235.3-6.9,235.3s-12.8,2.1-19.5-1.9c0,0-7.9-143.9-13.8-177.1
		c0,0-31.3,149-40,175.9c0,0-12.4,1.5-16.4-0.8c0,0,8.2-193.2,18.5-227.5L1738.7,977z"/>
	<path class="st5" d="M1714.2,1053.8c-0.1,0-0.3,0-0.4,0c-0.8-0.2-1.3-1.1-1.1-1.9l5.5-20.9c0.1-0.4,0.3-0.7,0.7-0.9l11.8-7.6
		c0.7-0.5,1.7-0.3,2.1,0.5c0,0,0,0,0,0c0.5,0.7,0.3,1.7-0.5,2.1l-11.3,7.2l-5.3,20.4C1715.5,1053.4,1714.9,1053.8,1714.2,1053.8z"/>
	<path class="st7" d="M1605.9,851.5c53.7-8.1,68.6,2.1,68.6,2.1l-23.2,42.7c0,0-53.1,2.5-93.1-24.2c5.7-7.2,10.3-15.2,13.7-23.8
		C1582.8,852.1,1594.5,853.2,1605.9,851.5z"/>
	
		<linearGradient id="SVGID_17_" gradientUnits="userSpaceOnUse" x1="-538.8172" y1="822.9951" x2="-485.9471" y2="822.9951" gradientTransform="matrix(-1 7.000000e-02 -7.000000e-02 -1 1097.3662 1681.9709)">
		<stop  offset="0" style="stop-color:#FF928E"/>
		<stop  offset="1" style="stop-color:#FEB3B1"/>
	</linearGradient>
	<path class="st29" d="M1516,777.9c0-0.9,0.7-1.7,1.6-1.7c0.6,0,1.2,0.3,1.5,0.9l7.9,14.2c1.5,2.7,2.2,5.9,1.8,9l-1.8,8.7
		c-0.4,4.2,0.9,8.4,3.8,11.6c6.9,7.5,21.3,21,41,27.7c-3.4,8.6-8,16.6-13.7,23.8c-14.7-9.8-27.6-23.6-35.4-42.8
		c-3.2-0.8-5.5-3.6-5.6-6.8L1516,777.9z"/>
	<path class="st8" d="M1594,872.8c19.1-20.5,55.3-29.8,76.4-33.6c9.2-1.7,18.3,3.5,21.5,12.2c9.4,25.4,35.2,91.5,40.2,102.9
		c4.1,9.3,8.4,18.4,11.1,24.1c1.6,3.4,0.2,7.5-3.2,9.1c-17.7,8.5-49.5,18.2-62.4,21.9c-2.3,0.7-4.8-0.7-5.5-3
		c-0.1-0.4-0.2-0.8-0.2-1.3c0-2.5-0.7-5-2-7.1l-48.8-81.4c-30.4,33.8-57.1,36.8-77.6,29.5c3.4-10.4,5.7-21.1,6.8-32
		C1580.6,908.9,1594,872.8,1594,872.8z"/>
	
		<linearGradient id="SVGID_18_" gradientUnits="userSpaceOnUse" x1="1291.6781" y1="568.3439" x2="1396.6781" y2="640.3438" gradientTransform="matrix(1 0 0 -1 0 1648.661)">
		<stop  offset="0" style="stop-color:#FF928E"/>
		<stop  offset="1" style="stop-color:#FEB3B1"/>
	</linearGradient>
	<path class="st30" d="M1498,905.8l5.9-9.5c17.7,12.1,34.3,19.9,46.4,17.8c-1.1,10.9-3.4,21.6-6.8,32
		C1516.5,936.4,1498,905.8,1498,905.8z"/>
	
		<linearGradient id="SVGID_19_" gradientUnits="userSpaceOnUse" x1="1273.5416" y1="594.7886" x2="1378.5416" y2="666.7886" gradientTransform="matrix(1 0 0 -1 0 1648.661)">
		<stop  offset="0" style="stop-color:#FF928E"/>
		<stop  offset="1" style="stop-color:#FEB3B1"/>
	</linearGradient>
	<path class="st31" d="M1505.7,892.3l-0.6-0.7c-1.8-2-7.2-7.6-10.7-3.5c-4.2,5-16.9,25.7-16.9,25.7s-18.8,14.3-19.4,19l26.7-10.1
		c2.4-0.9,4.4-2.4,6-4.4l13.4-17.3C1506.3,898.6,1506.8,895.3,1505.7,892.3z"/>
	
		<linearGradient id="SVGID_20_" gradientUnits="userSpaceOnUse" x1="-607.4652" y1="905.9339" x2="-718.1053" y2="702.6539" gradientTransform="matrix(-1 0 0 -1 979.41 1648.661)">
		<stop  offset="0" style="stop-color:#FF928E"/>
		<stop  offset="1" style="stop-color:#FEB3B1"/>
	</linearGradient>
	<path class="st32" d="M1641.5,801.4l16.2,39.6c0,0-18.7,12.9-33.7,11.7l-8.1-35.6L1641.5,801.4z"/>
	
		<linearGradient id="SVGID_21_" gradientUnits="userSpaceOnUse" x1="-404.1643" y1="-637.4254" x2="-453.0642" y2="-702.1054" gradientTransform="matrix(-0.82 -0.58 0.58 -0.82 1660.4667 36.152)">
		<stop  offset="0" style="stop-color:#FF928E"/>
		<stop  offset="1" style="stop-color:#FEB3B1"/>
	</linearGradient>
	<path class="st33" d="M1614.1,774.4c-0.4,0.5-11.8,41.6-11.8,41.6l23.6,6l16.6-37.3C1642.5,784.7,1620.3,765.6,1614.1,774.4z"/>
	<path class="st4" d="M1633.6,790.4l-7.2,20.3c-0.1,0.3-0.2,0.5-0.4,0.7c-1,1.4-4.7,5.9-9.1,1.8c-4-3.7-7.7-7-11.1-7.6
		c-1.5-0.3-3,0.7-3.4,2.2c-1.9,6.5-3.2,13.1-4,19.8c-0.2,1.5,0.9,3,2.4,3.2c4.6,0.9,14.4,2.5,22.5,1.9c1.1-0.1,2.1-0.7,2.6-1.7
		c2.3-4.9,9.1-19.8,11.7-23.7c2.4-3.6,8.3-3.5,10.8-3.3c0.8,0.1,1.6-0.2,2.2-0.7c2.2-1.9,6.3-6.7,0.5-12.5c-1.2-1.2-1.2-3.1,0-4.2
		c0,0,0.1-0.1,0.1-0.1c2.5-2.3,5.1-6.5,1-11.6s-9.8-4.4-13.2-3.2c-1.4,0.5-2.9-0.1-3.6-1.3c-0.5-0.9-1.5-1.3-2.5-1.2
		c-1.7,0.1-3.1-1.2-3.2-2.8c0-0.1,0-0.1,0-0.2c0.1-3.3-1.1-7.6-6.9-9.4c-10.3-3.2-16.7,6.8-17.4,14.2s10.7,10.3,17.4,9.8
		c5.1-0.4,8.9,4.7,10.4,7.1C1633.8,788.6,1633.9,789.5,1633.6,790.4z"/>
	
		<linearGradient id="SVGID_22_" gradientUnits="userSpaceOnUse" x1="-477.0084" y1="-687.7183" x2="-437.7982" y2="-647.4883" gradientTransform="matrix(-0.82 -0.58 0.58 -0.82 1660.4667 36.152)">
		<stop  offset="0" style="stop-color:#FF928E"/>
		<stop  offset="1" style="stop-color:#FEB3B1"/>
	</linearGradient>
	<path class="st34" d="M1635,814.7c0,0,1.7-12.9,7-13.5s10.6,3.8,5.3,11C1640.7,821.2,1635,814.7,1635,814.7z"/>
</g>
</svg>
