<svg id="Illustration" xmlns="http://www.w3.org/2000/svg" xmlns:xlink="http://www.w3.org/1999/xlink" viewBox="0 0 1200 800"><defs><style>.cls-1,.cls-2{opacity:0.4;}.cls-1{fill:url(#linear-gradient);}.cls-2{fill:url(#linear-gradient-2);}.cls-3{opacity:0.8;}.cls-4{opacity:0.72;}.cls-5{fill:url(#linear-gradient-3);}.cls-11,.cls-14,.cls-15,.cls-18,.cls-21,.cls-40,.cls-52,.cls-6,.cls-9{fill:#fff;}.cls-6{opacity:0.86;}.cls-7{opacity:0.71;}.cls-8{fill:url(#linear-gradient-4);}.cls-9{opacity:0.43;}.cls-10{fill:url(#linear-gradient-5);}.cls-11{opacity:0.45;}.cls-12{fill:url(#linear-gradient-6);}.cls-13{fill:url(#linear-gradient-7);}.cls-14{opacity:0.2;}.cls-15{opacity:0.53;}.cls-16{fill:url(#linear-gradient-8);}.cls-17{fill:url(#linear-gradient-9);}.cls-18{opacity:0.5;}.cls-19{fill:url(#linear-gradient-10);}.cls-20{opacity:0.85;}.cls-22{opacity:0.49;}.cls-23{fill:url(#linear-gradient-11);}.cls-24{fill:url(#linear-gradient-12);}.cls-25{fill:url(#linear-gradient-13);}.cls-26{opacity:0.64;}.cls-27{fill:url(#linear-gradient-14);}.cls-28{fill:url(#linear-gradient-15);}.cls-29{fill:url(#linear-gradient-16);}.cls-30{fill:url(#linear-gradient-17);}.cls-31{fill:url(#linear-gradient-18);}.cls-32{fill:url(#linear-gradient-19);}.cls-33{fill:url(#linear-gradient-20);}.cls-34{fill:url(#linear-gradient-21);}.cls-35{fill:url(#linear-gradient-22);}.cls-36{fill:url(#linear-gradient-23);}.cls-37{fill:url(#linear-gradient-24);}.cls-38{fill:url(#linear-gradient-25);}.cls-39{fill:url(#linear-gradient-26);}.cls-40{opacity:0.54;}.cls-41{fill:url(#linear-gradient-27);}.cls-42{fill:url(#linear-gradient-28);}.cls-43{fill:#e992ec;}.cls-44{fill:url(#linear-gradient-29);}.cls-45{fill:url(#linear-gradient-30);}.cls-46{fill:url(#linear-gradient-31);}.cls-47{fill:url(#linear-gradient-32);}.cls-48,.cls-49{opacity:0.6;}.cls-48{fill:url(#linear-gradient-33);}.cls-49{fill:url(#linear-gradient-34);}.cls-50{fill:url(#linear-gradient-35);}.cls-51{fill:url(#linear-gradient-36);}.cls-52{opacity:0.57;}.cls-53{fill:url(#linear-gradient-37);}.cls-54{fill:url(#linear-gradient-38);}.cls-55{fill:url(#linear-gradient-39);}.cls-56{fill:url(#linear-gradient-40);}.cls-57{fill:url(#linear-gradient-41);}.cls-58{fill:url(#linear-gradient-42);}.cls-59{fill:url(#linear-gradient-43);}.cls-60{fill:url(#linear-gradient-44);}.cls-61{fill:url(#linear-gradient-45);}.cls-62{fill:url(#linear-gradient-46);}.cls-63{fill:url(#linear-gradient-47);}.cls-64{fill:url(#linear-gradient-48);}.cls-65{fill:url(#linear-gradient-49);}.cls-66{fill:url(#linear-gradient-50);}.cls-67{fill:url(#linear-gradient-51);}.cls-68{fill:url(#linear-gradient-52);}.cls-69{fill:url(#linear-gradient-53);}.cls-70{fill:url(#linear-gradient-54);}.cls-71{fill:#f8a570;}.cls-72{fill:url(#linear-gradient-55);}.cls-73{fill:url(#linear-gradient-56);}.cls-74{fill:url(#linear-gradient-57);}.cls-75{fill:url(#linear-gradient-58);}.cls-76{fill:url(#linear-gradient-59);}.cls-77{fill:url(#linear-gradient-60);}.cls-78{fill:url(#linear-gradient-61);}.cls-79{fill:url(#linear-gradient-62);}.cls-80{fill:url(#linear-gradient-63);}.cls-81{fill:url(#linear-gradient-64);}.cls-82{fill:url(#linear-gradient-65);}.cls-83{fill:url(#linear-gradient-66);}.cls-84{fill:url(#linear-gradient-67);}.cls-85{fill:url(#linear-gradient-68);}.cls-86{fill:url(#linear-gradient-69);}.cls-87{fill:url(#linear-gradient-70);}.cls-88{fill:url(#linear-gradient-71);}.cls-89{fill:url(#linear-gradient-72);}.cls-90{fill:url(#linear-gradient-73);}.cls-91{fill:url(#linear-gradient-74);}.cls-92{fill:url(#linear-gradient-75);}.cls-93{fill:url(#linear-gradient-76);}.cls-94{fill:url(#linear-gradient-77);}.cls-95{fill:url(#linear-gradient-78);}.cls-96{fill:url(#linear-gradient-79);}.cls-97{fill:url(#linear-gradient-80);}.cls-98{fill:url(#linear-gradient-81);}.cls-99{fill:url(#linear-gradient-82);}.cls-100{fill:url(#linear-gradient-83);}.cls-101{fill:url(#linear-gradient-84);}.cls-102{fill:url(#linear-gradient-85);}.cls-103{fill:url(#linear-gradient-86);}.cls-104{fill:url(#linear-gradient-87);}.cls-105{fill:url(#linear-gradient-88);}.cls-106{fill:url(#linear-gradient-89);}.cls-107{fill:url(#linear-gradient-90);}.cls-108{fill:url(#linear-gradient-91);}.cls-109{fill:url(#linear-gradient-92);}.cls-110{fill:url(#linear-gradient-93);}.cls-111{fill:url(#linear-gradient-94);}.cls-112{fill:#b13ac8;}.cls-113{fill:url(#linear-gradient-95);}.cls-114{fill:url(#linear-gradient-96);}.cls-115{fill:url(#linear-gradient-97);}.cls-116{fill:url(#linear-gradient-98);}.cls-117{fill:url(#linear-gradient-99);}.cls-118{fill:url(#linear-gradient-100);}.cls-119{fill:url(#linear-gradient-101);}.cls-120{fill:url(#linear-gradient-102);}.cls-121{fill:url(#linear-gradient-103);}.cls-122{fill:url(#linear-gradient-104);}.cls-123{fill:url(#linear-gradient-105);}.cls-124{fill:url(#linear-gradient-106);}.cls-125{fill:url(#linear-gradient-107);}.cls-126{fill:url(#linear-gradient-108);}.cls-127{fill:url(#linear-gradient-109);}.cls-128{fill:url(#linear-gradient-110);}.cls-129{fill:url(#linear-gradient-111);}.cls-130{fill:url(#linear-gradient-112);}.cls-131{fill:url(#linear-gradient-113);}.cls-132{fill:url(#linear-gradient-114);}.cls-133{fill:url(#linear-gradient-115);}.cls-134{fill:url(#linear-gradient-116);}.cls-135{fill:url(#linear-gradient-117);}.cls-136{fill:url(#linear-gradient-118);}.cls-137{fill:url(#linear-gradient-119);}.cls-138{fill:url(#linear-gradient-120);}.cls-139{fill:url(#linear-gradient-121);}.cls-140{fill:url(#linear-gradient-122);}.cls-141{fill:url(#linear-gradient-123);}.cls-142{fill:url(#linear-gradient-124);}.cls-143{fill:url(#linear-gradient-125);}.cls-144{fill:url(#linear-gradient-126);}.cls-145{fill:url(#linear-gradient-127);}.cls-146{fill:url(#linear-gradient-128);}.cls-147{fill:url(#linear-gradient-129);}.cls-148{fill:url(#linear-gradient-130);}.cls-149{fill:url(#linear-gradient-131);}.cls-150{fill:url(#linear-gradient-132);}.cls-151{fill:url(#linear-gradient-133);}.cls-152{fill:url(#linear-gradient-134);}.cls-153{fill:url(#linear-gradient-135);}.cls-154{fill:url(#linear-gradient-136);}.cls-155{fill:url(#linear-gradient-137);}.cls-156{fill:url(#linear-gradient-138);}.cls-157{fill:url(#linear-gradient-139);}.cls-158{fill:url(#linear-gradient-140);}.cls-159{fill:url(#linear-gradient-141);}</style><linearGradient id="linear-gradient" x1="1811.48" y1="387.11" x2="2753.05" y2="387.11" gradientTransform="matrix(-1, 0, 0, 1, 2900, 0)" gradientUnits="userSpaceOnUse"><stop offset="0" stop-color="#b37cff"/><stop offset="1" stop-color="#f895e7"/></linearGradient><linearGradient id="linear-gradient-2" x1="1840.17" y1="387.11" x2="2724.36" y2="387.11" xlink:href="#linear-gradient"/><linearGradient id="linear-gradient-3" x1="5268.85" y1="2247.88" x2="5494.78" y2="2247.88" gradientTransform="matrix(-0.85, -0.52, -0.52, 0.85, 6620.16, 1299.68)" gradientUnits="userSpaceOnUse"><stop offset="0" stop-color="#a737d5"/><stop offset="1" stop-color="#ef497a"/></linearGradient><linearGradient id="linear-gradient-4" x1="4203.6" y1="2176.46" x2="4405.16" y2="2176.46" gradientTransform="matrix(0.97, -0.24, 0.24, 0.97, -3762.08, -684.07)" gradientUnits="userSpaceOnUse"><stop offset="0" stop-color="#cb236d"/><stop offset="1" stop-color="#4c246d"/></linearGradient><linearGradient id="linear-gradient-5" x1="6346.04" y1="3139.72" x2="6451.79" y2="3139.72" gradientTransform="translate(-2588.51 -5718.24) rotate(33.32)" xlink:href="#linear-gradient-3"/><linearGradient id="linear-gradient-6" x1="3847.37" y1="-2433.31" x2="4111.59" y2="-2433.31" gradientTransform="matrix(0.5, -0.86, 0.86, 0.5, 414.79, 5141.36)" xlink:href="#linear-gradient-3"/><linearGradient id="linear-gradient-7" x1="8165.04" y1="-446.47" x2="8309.17" y2="-446.47" gradientTransform="matrix(-0.93, 0.37, 0.37, 0.93, 8076.79, -2078.71)" xlink:href="#linear-gradient-4"/><linearGradient id="linear-gradient-8" x1="-7614.71" y1="220.87" x2="-7932.36" y2="462.72" gradientTransform="matrix(-1, 0, 0, 1, -7115.74, 0)" gradientUnits="userSpaceOnUse"><stop offset="0" stop-color="#2b3582"/><stop offset="1" stop-color="#150e42"/></linearGradient><linearGradient id="linear-gradient-9" x1="-7935.84" y1="532.8" x2="-7573.73" y2="100.52" gradientTransform="matrix(-1, 0, 0, 1, -7115.74, 0)" gradientUnits="userSpaceOnUse"><stop offset="0" stop-color="#fdf53f"/><stop offset="1" stop-color="#d93c65"/></linearGradient><linearGradient id="linear-gradient-10" x1="-7803.2" y1="355.97" x2="-7710.88" y2="26.87" xlink:href="#linear-gradient-8"/><linearGradient id="linear-gradient-11" x1="-7716.83" y1="265.73" x2="-7796.1" y2="340.95" xlink:href="#linear-gradient-9"/><linearGradient id="linear-gradient-12" x1="-7665.67" y1="270.3" x2="-7736.04" y2="337.08" xlink:href="#linear-gradient-9"/><linearGradient id="linear-gradient-13" x1="-7608.68" y1="270.44" x2="-7679.05" y2="337.22" xlink:href="#linear-gradient-9"/><linearGradient id="linear-gradient-14" x1="-287.96" y1="-1580.06" x2="-554.65" y2="-1509.24" xlink:href="#linear-gradient-9"/><linearGradient id="linear-gradient-15" x1="-279.79" y1="-1549.29" x2="-546.48" y2="-1478.46" gradientTransform="matrix(1, 0, 0, -1, 8413.14, 876.68)" xlink:href="#linear-gradient-9"/><linearGradient id="linear-gradient-16" x1="-277.5" y1="-1540.53" x2="-544.19" y2="-1469.7" gradientTransform="matrix(1, 0, 0, -1, 8387.51, 888.61)" xlink:href="#linear-gradient-9"/><linearGradient id="linear-gradient-17" x1="-280.3" y1="-1551.12" x2="-546.99" y2="-1480.3" gradientTransform="matrix(1, 0, 0, -1, 8361.88, 859.12)" xlink:href="#linear-gradient-9"/><linearGradient id="linear-gradient-18" x1="-274.55" y1="-1529.39" x2="-541.24" y2="-1458.57" gradientTransform="matrix(1, 0, 0, -1, 8336.25, 898.83)" xlink:href="#linear-gradient-9"/><linearGradient id="linear-gradient-19" x1="-277.71" y1="-1541.51" x2="-544.4" y2="-1470.69" gradientTransform="matrix(1, 0, 0, -1, 8310.62, 866.11)" xlink:href="#linear-gradient-9"/><linearGradient id="linear-gradient-20" x1="-275.85" y1="-1534.68" x2="-542.54" y2="-1463.86" gradientTransform="matrix(1, 0, 0, -1, 8284.98, 873.95)" xlink:href="#linear-gradient-9"/><linearGradient id="linear-gradient-21" x1="-274.05" y1="-1527.49" x2="-540.74" y2="-1456.67" gradientTransform="matrix(1, 0, 0, -1, 8259.35, 882.47)" xlink:href="#linear-gradient-9"/><linearGradient id="linear-gradient-22" x1="-277.4" y1="-1540.16" x2="-544.09" y2="-1469.34" gradientTransform="matrix(1, 0, 0, -1, 8233.72, 848.55)" xlink:href="#linear-gradient-9"/><linearGradient id="linear-gradient-23" x1="-275.7" y1="-1533.88" x2="-542.39" y2="-1463.06" gradientTransform="matrix(1, 0, 0, -1, 8208.09, 855.2)" xlink:href="#linear-gradient-9"/><linearGradient id="linear-gradient-24" x1="-273.6" y1="-1526.01" x2="-540.3" y2="-1455.18" gradientTransform="matrix(1, 0, 0, -1, 8182.46, 865.26)" xlink:href="#linear-gradient-9"/><linearGradient id="linear-gradient-25" x1="-268.51" y1="-1506.58" x2="-535.2" y2="-1435.76" gradientTransform="matrix(1, 0, 0, -1, 8156.82, 900)" xlink:href="#linear-gradient-9"/><linearGradient id="linear-gradient-26" x1="-270.39" y1="-1513.75" x2="-537.08" y2="-1442.93" gradientTransform="matrix(1, 0, 0, -1, 8131.19, 877.87)" xlink:href="#linear-gradient-9"/><linearGradient id="linear-gradient-27" x1="10283.51" y1="636.72" x2="10042.03" y2="793.26" gradientTransform="translate(-9997.87)" gradientUnits="userSpaceOnUse"><stop offset="0" stop-color="#53d8ff"/><stop offset="1" stop-color="#3840f7"/></linearGradient><linearGradient id="linear-gradient-28" x1="827.92" y1="660.12" x2="688.52" y2="662.01" gradientTransform="matrix(-1, 0, 0, 1, 1054.44, 0)" xlink:href="#linear-gradient-4"/><linearGradient id="linear-gradient-29" x1="11675.51" y1="-4088.41" x2="11594.91" y2="-4137.26" gradientTransform="matrix(1, 0.07, -0.25, 0.89, -11726.6, 3014.27)" xlink:href="#linear-gradient-27"/><linearGradient id="linear-gradient-30" x1="11630.77" y1="-4106.47" x2="11538.54" y2="-4204" gradientTransform="matrix(1, 0.07, -0.25, 0.89, -11726.6, 3014.27)" xlink:href="#linear-gradient-27"/><linearGradient id="linear-gradient-31" x1="11669.62" y1="-4089.22" x2="11594.33" y2="-4134.85" gradientTransform="matrix(1, 0.07, -0.25, 0.89, -11726.6, 3014.27)" xlink:href="#linear-gradient-27"/><linearGradient id="linear-gradient-32" x1="-14739.31" y1="-3659.35" x2="-14704.91" y2="-3669.31" gradientTransform="matrix(-1, -0.07, -0.07, 1, -14085.01, 2751.93)" xlink:href="#linear-gradient-27"/><linearGradient id="linear-gradient-33" x1="387" y1="452.53" x2="546.89" y2="485.14" gradientTransform="matrix(0.93, -0.09, 0.07, 0.8, 21.51, -188.16)" xlink:href="#linear-gradient"/><linearGradient id="linear-gradient-34" x1="559.81" y1="510.41" x2="648.19" y2="528.43" gradientTransform="matrix(0.93, -0.09, 0.07, 0.8, 21.51, -188.16)" xlink:href="#linear-gradient"/><linearGradient id="linear-gradient-35" x1="-139.58" y1="279.57" x2="-176.83" y2="406.84" gradientTransform="matrix(-1, 0, 0, 1, 196.57, 0)" xlink:href="#linear-gradient-9"/><linearGradient id="linear-gradient-36" x1="-141.69" y1="272.67" x2="-210.4" y2="384.82" gradientTransform="matrix(-1, 0, 0, 1, 196.57, 0)" xlink:href="#linear-gradient-9"/><linearGradient id="linear-gradient-37" x1="-89.52" y1="279.57" x2="-126.77" y2="406.84" gradientTransform="matrix(-1, 0, 0, 1, 196.57, 0)" xlink:href="#linear-gradient-9"/><linearGradient id="linear-gradient-38" x1="-91.63" y1="272.67" x2="-160.34" y2="384.82" gradientTransform="matrix(-1, 0, 0, 1, 196.57, 0)" xlink:href="#linear-gradient-9"/><linearGradient id="linear-gradient-39" x1="-110.5" y1="343.51" x2="-166.04" y2="391.41" gradientTransform="matrix(-1, 0, 0, 1, 196.57, 0)" xlink:href="#linear-gradient-27"/><linearGradient id="linear-gradient-40" x1="-6706.52" y1="688.98" x2="-6664.95" y2="688.98" gradientTransform="matrix(-1, 0, 0, 1, -5981.88, 0)" xlink:href="#linear-gradient-27"/><linearGradient id="linear-gradient-41" x1="-6706.53" y1="680.83" x2="-6666.12" y2="680.83" gradientTransform="matrix(-1, 0, 0, 1, -5981.88, 0)" xlink:href="#linear-gradient-8"/><linearGradient id="linear-gradient-42" x1="-6702.69" y1="669.45" x2="-6690.97" y2="669.45" gradientTransform="matrix(-1, 0, 0, 1, -5981.88, 0)" gradientUnits="userSpaceOnUse"><stop offset="0" stop-color="#f9b776"/><stop offset="1" stop-color="#f47960"/></linearGradient><linearGradient id="linear-gradient-43" x1="-6780.74" y1="699.29" x2="-6764.8" y2="699.29" gradientTransform="matrix(-1, 0, 0, 1, -5981.88, 0)" xlink:href="#linear-gradient-27"/><linearGradient id="linear-gradient-44" x1="-6780.62" y1="683.43" x2="-6757.23" y2="683.43" gradientTransform="matrix(-1, 0, 0, 1, -5981.88, 0)" xlink:href="#linear-gradient-8"/><linearGradient id="linear-gradient-45" x1="-6768.46" y1="663.34" x2="-6754.47" y2="663.34" xlink:href="#linear-gradient-42"/><linearGradient id="linear-gradient-46" x1="-6655.25" y1="512.3" x2="-6774.75" y2="708.05" gradientTransform="matrix(-1, 0, 0, 1, -5981.88, 0)" xlink:href="#linear-gradient-27"/><linearGradient id="linear-gradient-47" x1="-6692.9" y1="548.59" x2="-6681.77" y2="526.77" gradientTransform="matrix(-1, 0, 0, 1, -5981.88, 0)" xlink:href="#linear-gradient-27"/><linearGradient id="linear-gradient-48" x1="-6575.95" y1="368.52" x2="-6631.38" y2="440.64" xlink:href="#linear-gradient-42"/><linearGradient id="linear-gradient-49" x1="-6641.71" y1="385.41" x2="-6826.78" y2="604.76" gradientTransform="matrix(-1, 0, 0, 1, -5981.88, 0)" xlink:href="#linear-gradient-3"/><linearGradient id="linear-gradient-50" x1="673.42" y1="414.14" x2="682.28" y2="414.14" gradientTransform="matrix(1, 0, 0, 1, 0, 0)" xlink:href="#linear-gradient-3"/><linearGradient id="linear-gradient-51" x1="-6699.51" y1="415.13" x2="-6693.44" y2="383.29" xlink:href="#linear-gradient-42"/><linearGradient id="linear-gradient-52" x1="-6683.1" y1="356.72" x2="-6717.7" y2="383.19" xlink:href="#linear-gradient-42"/><linearGradient id="linear-gradient-53" x1="-6707.46" y1="335.75" x2="-6675.23" y2="377.24" gradientTransform="matrix(-1, 0, 0, 1, -5981.88, 0)" xlink:href="#linear-gradient-8"/><linearGradient id="linear-gradient-54" x1="-6687.39" y1="351.11" x2="-6721.99" y2="377.58" xlink:href="#linear-gradient-42"/><linearGradient id="linear-gradient-55" x1="-6673.67" y1="449.67" x2="-6693.53" y2="479.46" xlink:href="#linear-gradient-42"/><linearGradient id="linear-gradient-56" x1="731.4" y1="454.48" x2="711.94" y2="483.67" gradientTransform="matrix(1, 0, 0, 1, 0, 0)" xlink:href="#linear-gradient-42"/><linearGradient id="linear-gradient-57" x1="1714.08" y1="684.67" x2="1659.37" y2="699.66" gradientTransform="translate(-1020.24 -118.78) rotate(-2.83)" xlink:href="#linear-gradient-8"/><linearGradient id="linear-gradient-58" x1="1700.55" y1="445.48" x2="1661.96" y2="486.27" gradientTransform="translate(-1049.15)" xlink:href="#linear-gradient-8"/><linearGradient id="linear-gradient-59" x1="1677.15" y1="455.67" x2="1659.7" y2="481.94" gradientTransform="translate(-1049.15)" xlink:href="#linear-gradient-27"/><linearGradient id="linear-gradient-60" x1="-816.82" y1="293.95" x2="-854.07" y2="421.23" gradientTransform="matrix(-1, 0, 0, 1, 196.57, 0)" xlink:href="#linear-gradient-9"/><linearGradient id="linear-gradient-61" x1="-818.93" y1="287.05" x2="-887.64" y2="399.21" gradientTransform="matrix(-1, 0, 0, 1, 196.57, 0)" xlink:href="#linear-gradient-9"/><linearGradient id="linear-gradient-62" x1="-766.76" y1="293.95" x2="-804.02" y2="421.23" gradientTransform="matrix(-1, 0, 0, 1, 196.57, 0)" xlink:href="#linear-gradient-9"/><linearGradient id="linear-gradient-63" x1="-768.88" y1="287.05" x2="-837.58" y2="399.21" gradientTransform="matrix(-1, 0, 0, 1, 196.57, 0)" xlink:href="#linear-gradient-9"/><linearGradient id="linear-gradient-64" x1="-788.5" y1="357.51" x2="-844.04" y2="405.41" gradientTransform="matrix(-1, 0, 0, 1, 196.57, 0)" xlink:href="#linear-gradient-27"/><linearGradient id="linear-gradient-65" x1="-1195.42" y1="449.85" x2="-1111.15" y2="449.85" gradientTransform="matrix(-0.99, -0.12, -0.12, 0.99, -76.84, -79.23)" xlink:href="#linear-gradient-8"/><linearGradient id="linear-gradient-66" x1="-1195.42" y1="447.97" x2="-1177.94" y2="447.97" gradientTransform="matrix(-0.99, -0.12, -0.12, 0.99, -76.84, -79.23)" xlink:href="#linear-gradient-8"/><linearGradient id="linear-gradient-67" x1="11926.77" y1="690.94" x2="11943.65" y2="584.74" gradientTransform="translate(-10969.05)" xlink:href="#linear-gradient-4"/><linearGradient id="linear-gradient-68" x1="11933.4" y1="691.78" x2="11950.63" y2="583.37" gradientTransform="translate(-10969.05)" xlink:href="#linear-gradient-4"/><linearGradient id="linear-gradient-69" x1="11919.72" y1="694.94" x2="11937.66" y2="582.07" gradientTransform="translate(-10969.05)" xlink:href="#linear-gradient-9"/><linearGradient id="linear-gradient-70" x1="-730.94" y1="674.44" x2="-717.2" y2="674.44" gradientTransform="matrix(-1, 0, 0, 1, 196.57, 0)" xlink:href="#linear-gradient-42"/><linearGradient id="linear-gradient-71" x1="-749.95" y1="638.09" x2="-691.58" y2="556.28" gradientTransform="matrix(-1, 0, 0, 1, 196.57, 0)" gradientUnits="userSpaceOnUse"><stop offset="0" stop-color="#2b3582"/><stop offset="0.23" stop-color="#252a70"/><stop offset="0.73" stop-color="#19164f"/><stop offset="1" stop-color="#150e42"/></linearGradient><linearGradient id="linear-gradient-72" x1="-740.87" y1="687.12" x2="-727.98" y2="687.12" gradientTransform="matrix(-1, 0, 0, 1, 196.57, 0)" xlink:href="#linear-gradient-42"/><linearGradient id="linear-gradient-73" x1="-770.99" y1="678.86" x2="-767.77" y2="569.47" gradientTransform="matrix(-1, 0, 0, 1, 196.57, 0)" xlink:href="#linear-gradient-8"/><linearGradient id="linear-gradient-74" x1="-691.24" y1="572.47" x2="-722.95" y2="522.83" gradientTransform="matrix(-1, 0, 0, 1, 196.57, 0)" xlink:href="#linear-gradient-9"/><linearGradient id="linear-gradient-75" x1="-701.48" y1="538.45" x2="-656.51" y2="538.45" gradientTransform="matrix(-1, 0, 0, 1, 196.57, 0)" xlink:href="#linear-gradient-42"/><linearGradient id="linear-gradient-76" x1="-722.22" y1="484.59" x2="-823.34" y2="558.14" gradientTransform="matrix(-1, 0, 0, 1, 196.57, 0)" xlink:href="#linear-gradient-9"/><linearGradient id="linear-gradient-77" x1="-744.39" y1="472.08" x2="-714.55" y2="472.08" gradientTransform="matrix(-1, 0, 0, 1, 196.57, 0)" xlink:href="#linear-gradient-42"/><linearGradient id="linear-gradient-78" x1="-736.72" y1="464.65" x2="-837.84" y2="538.2" gradientTransform="matrix(-1, 0, 0, 1, 196.57, 0)" xlink:href="#linear-gradient-9"/><linearGradient id="linear-gradient-79" x1="-809.25" y1="510.41" x2="-721" y2="505.35" gradientTransform="matrix(-1, 0, 0, 1, 196.57, 0)" xlink:href="#linear-gradient-9"/><linearGradient id="linear-gradient-80" x1="-764.74" y1="538.99" x2="-878.97" y2="737.5" gradientTransform="matrix(-1, 0, 0, 1, 196.57, 0)" xlink:href="#linear-gradient-42"/><linearGradient id="linear-gradient-81" x1="-235.29" y1="-1453.19" x2="-272.59" y2="-1403.84" gradientTransform="matrix(-0.8, -0.61, -0.61, 0.8, -155.56, 1450.67)" xlink:href="#linear-gradient-42"/><linearGradient id="linear-gradient-82" x1="-263.78" y1="-1441.28" x2="-219.22" y2="-1441.28" gradientTransform="matrix(-0.8, -0.61, -0.61, 0.8, -155.56, 1450.67)" xlink:href="#linear-gradient-8"/><linearGradient id="linear-gradient-83" x1="-289.92" y1="-1414.11" x2="-260.01" y2="-1444.8" gradientTransform="matrix(-0.8, -0.61, -0.61, 0.8, -155.56, 1450.67)" xlink:href="#linear-gradient-42"/><linearGradient id="linear-gradient-84" x1="11839.3" y1="1241.75" x2="11780.81" y2="1257.78" gradientTransform="translate(-10940.15 -118.78) rotate(-2.83)" xlink:href="#linear-gradient-8"/><linearGradient id="linear-gradient-85" x1="11836.17" y1="498.84" x2="11794.67" y2="542.7" gradientTransform="translate(-10969.05)" xlink:href="#linear-gradient-8"/><linearGradient id="linear-gradient-86" x1="11811.08" y1="509.76" x2="11792.25" y2="538.12" gradientTransform="translate(-10969.05)" xlink:href="#linear-gradient-27"/><linearGradient id="linear-gradient-87" x1="10173.41" y1="527.73" x2="10135.97" y2="552" gradientTransform="translate(-9155.74)" xlink:href="#linear-gradient-27"/><linearGradient id="linear-gradient-88" x1="888.06" y1="531.36" x2="866.45" y2="531.66" gradientTransform="matrix(-1, 0, 0, 1, 1896.57, 0)" xlink:href="#linear-gradient-27"/><linearGradient id="linear-gradient-89" x1="848.43" y1="534.46" x2="905.18" y2="549.74" gradientTransform="matrix(-1, 0, 0, 1, 1896.57, 0)" xlink:href="#linear-gradient-3"/><linearGradient id="linear-gradient-90" x1="-583.43" y1="637" x2="-884.43" y2="637" gradientTransform="matrix(-1, 0, 0, 1, 196.57, 0)" xlink:href="#linear-gradient-27"/><linearGradient id="linear-gradient-91" x1="-583.43" y1="637" x2="-781.43" y2="637" gradientTransform="matrix(-1, 0, 0, 1, 196.57, 0)" xlink:href="#linear-gradient-27"/><linearGradient id="linear-gradient-92" x1="11740.24" y1="563.11" x2="12051.94" y2="563.11" gradientTransform="translate(-10969.05)" xlink:href="#linear-gradient-27"/><linearGradient id="linear-gradient-93" x1="-790.09" y1="562.95" x2="-897.95" y2="562.95" gradientTransform="matrix(-1, 0, 0, 1, 196.57, 0)" xlink:href="#linear-gradient-27"/><linearGradient id="linear-gradient-94" x1="8577.52" y1="194.41" x2="8557.19" y2="334.26" gradientTransform="matrix(-1, 0, 0, 1, 9206.87, 0)" xlink:href="#linear-gradient-9"/><linearGradient id="linear-gradient-95" x1="7094.24" y1="534.04" x2="7036.38" y2="664.99" gradientTransform="translate(-6908.7)" gradientUnits="userSpaceOnUse"><stop offset="0" stop-color="#12c2e9"/><stop offset="0.66" stop-color="#12c2e9"/><stop offset="1" stop-color="#f54394"/></linearGradient><linearGradient id="linear-gradient-96" x1="7142" y1="555.15" x2="7084.14" y2="686.09" xlink:href="#linear-gradient-95"/><linearGradient id="linear-gradient-97" x1="7086.33" y1="610.87" x2="7096.48" y2="562.15" xlink:href="#linear-gradient-95"/><linearGradient id="linear-gradient-98" x1="7157.21" y1="621.93" x2="7198.07" y2="621.93" gradientTransform="translate(-6908.7)" xlink:href="#linear-gradient-4"/><linearGradient id="linear-gradient-99" x1="7188.69" y1="543.35" x2="7177.53" y2="620.49" gradientTransform="translate(-6908.7)" xlink:href="#linear-gradient-4"/><linearGradient id="linear-gradient-100" x1="7159.25" y1="609.61" x2="7170.31" y2="609.61" gradientTransform="translate(-6908.7)" xlink:href="#linear-gradient-42"/><linearGradient id="linear-gradient-101" x1="7221.3" y1="613.83" x2="7254.3" y2="613.83" gradientTransform="translate(-6908.7)" xlink:href="#linear-gradient-4"/><linearGradient id="linear-gradient-102" x1="7244" y1="551.35" x2="7232.83" y2="628.5" gradientTransform="translate(-6908.7)" xlink:href="#linear-gradient-4"/><linearGradient id="linear-gradient-103" x1="7098.11" y1="559.72" x2="7185.64" y2="559.72" gradientTransform="translate(-6908.7)" xlink:href="#linear-gradient-8"/><linearGradient id="linear-gradient-104" x1="7211.62" y1="610.54" x2="7224.82" y2="610.54" gradientTransform="translate(-6908.7)" xlink:href="#linear-gradient-42"/><linearGradient id="linear-gradient-105" x1="7177.62" y1="523.25" x2="7081.52" y2="632.2" gradientTransform="translate(-6908.7)" xlink:href="#linear-gradient-8"/><linearGradient id="linear-gradient-106" x1="7138.29" y1="424.52" x2="7144.8" y2="408.11" gradientTransform="translate(-6908.7)" xlink:href="#linear-gradient-42"/><linearGradient id="linear-gradient-107" x1="4016.5" y1="-3300.02" x2="4110.93" y2="-3184.94" xlink:href="#linear-gradient-95"/><linearGradient id="linear-gradient-108" x1="224.91" y1="456.79" x2="236.37" y2="456.79" gradientTransform="matrix(1, 0, 0, 1, 0, 0)" xlink:href="#linear-gradient-95"/><linearGradient id="linear-gradient-109" x1="7193.9" y1="488.35" x2="7224.39" y2="488.35" gradientTransform="translate(-6908.7)" xlink:href="#linear-gradient-42"/><linearGradient id="linear-gradient-110" x1="-2972.89" y1="370.57" x2="-2983.87" y2="334.36" gradientTransform="translate(2622.31 -1419.75) rotate(-30.48)" xlink:href="#linear-gradient-42"/><linearGradient id="linear-gradient-111" x1="-2982.79" y1="307.48" x2="-2973.61" y2="359.86" gradientTransform="translate(2622.31 -1419.75) rotate(-30.48)" xlink:href="#linear-gradient-8"/><linearGradient id="linear-gradient-112" x1="-2984.11" y1="370.41" x2="-2993.99" y2="337.83" gradientTransform="translate(2622.31 -1419.75) rotate(-30.48)" xlink:href="#linear-gradient-42"/><linearGradient id="linear-gradient-113" x1="-5843.22" y1="-4902.43" x2="-5924.77" y2="-4823.59" gradientTransform="matrix(-1.39, -0.07, -0.07, 1.39, -14695.48, -95.81)" gradientUnits="userSpaceOnUse"><stop offset="0" stop-color="#9cfffb"/><stop offset="1" stop-color="#9bfffa"/></linearGradient><linearGradient id="linear-gradient-114" x1="-1093.98" y1="-8562.74" x2="-1175.53" y2="-8483.9" gradientTransform="matrix(0.65, -1.23, -1.23, -0.65, -360.98, -9410.84)" xlink:href="#linear-gradient-113"/><linearGradient id="linear-gradient-115" x1="7199.01" y1="634.48" x2="7205.1" y2="778.12" gradientTransform="translate(-6908.7)" xlink:href="#linear-gradient-27"/><linearGradient id="linear-gradient-116" x1="7240.65" y1="632.72" x2="7246.74" y2="776.35" gradientTransform="translate(-6908.7)" xlink:href="#linear-gradient-27"/><linearGradient id="linear-gradient-117" x1="7222.55" y1="633.48" x2="7228.64" y2="777.12" gradientTransform="translate(-6908.7)" xlink:href="#linear-gradient-27"/><linearGradient id="linear-gradient-118" x1="7215.56" y1="493.94" x2="7204.33" y2="576.94" gradientTransform="translate(-6908.7)" xlink:href="#linear-gradient-8"/><linearGradient id="linear-gradient-119" x1="-1192.33" y1="565.92" x2="-1281.97" y2="911.18" gradientTransform="matrix(1, 0, 0, -1, 1634.64, 1334.34)" xlink:href="#linear-gradient-95"/><linearGradient id="linear-gradient-120" x1="-1184.21" y1="568.03" x2="-1273.84" y2="913.29" gradientTransform="matrix(1, 0, 0, -1, 1634.64, 1397.93)" xlink:href="#linear-gradient-95"/><linearGradient id="linear-gradient-121" x1="-1200.52" y1="563.79" x2="-1290.16" y2="909.06" gradientTransform="matrix(-1, 0, 0, 1, -802.59, 0)" xlink:href="#linear-gradient-95"/><linearGradient id="linear-gradient-122" x1="-1284.21" y1="644.65" x2="-1241.47" y2="644.65" gradientTransform="matrix(-1, 0, 0, 1, -802.59, 0)" xlink:href="#linear-gradient-42"/><linearGradient id="linear-gradient-123" x1="-1258.06" y1="672.5" x2="-1264.35" y2="768.89" gradientTransform="matrix(-1, 0, 0, 1, -802.59, 0)" xlink:href="#linear-gradient-4"/><linearGradient id="linear-gradient-124" x1="-1334.39" y1="647.57" x2="-1244.21" y2="647.57" gradientTransform="matrix(-1, 0, 0, 1, -802.59, 0)" xlink:href="#linear-gradient-42"/><linearGradient id="linear-gradient-125" x1="-1247.34" y1="673.86" x2="-1231.14" y2="614.12" gradientTransform="matrix(-1, 0, 0, 1, -802.59, 0)" xlink:href="#linear-gradient-3"/><linearGradient id="linear-gradient-126" x1="-1318.72" y1="668.55" x2="-1325" y2="764.93" gradientTransform="matrix(-1, 0, 0, 1, -802.59, 0)" xlink:href="#linear-gradient-4"/><linearGradient id="linear-gradient-127" x1="-1234.25" y1="516.87" x2="-1186.33" y2="621.17" gradientTransform="matrix(-1, 0, 0, 1, -802.59, 0)" xlink:href="#linear-gradient-9"/><linearGradient id="linear-gradient-128" x1="-1232.56" y1="527.22" x2="-1238.01" y2="492.27" gradientTransform="matrix(-1, 0, 0, 1, -802.59, 0)" xlink:href="#linear-gradient-42"/><linearGradient id="linear-gradient-129" x1="72.41" y1="220.76" x2="112.25" y2="247.82" gradientTransform="matrix(-0.65, -0.76, -0.76, 0.65, 677.58, 404.74)" xlink:href="#linear-gradient-42"/><linearGradient id="linear-gradient-130" x1="141.95" y1="169.91" x2="75.12" y2="239.44" gradientTransform="matrix(-0.65, -0.76, -0.76, 0.65, 677.58, 404.74)" xlink:href="#linear-gradient-8"/><linearGradient id="linear-gradient-131" x1="74.8" y1="217.24" x2="114.64" y2="244.31" gradientTransform="matrix(-0.65, -0.76, -0.76, 0.65, 677.58, 404.74)" xlink:href="#linear-gradient-42"/><linearGradient id="linear-gradient-132" x1="-1207.2" y1="573.92" x2="-1122.48" y2="573.92" gradientTransform="matrix(-1, 0, 0, 1, -802.59, 0)" xlink:href="#linear-gradient-42"/><linearGradient id="linear-gradient-133" x1="171.65" y1="198.46" x2="104.82" y2="267.99" gradientTransform="matrix(-0.65, -0.76, -0.76, 0.65, 677.58, 404.74)" xlink:href="#linear-gradient-8"/><linearGradient id="linear-gradient-134" x1="-1266.74" y1="622.14" x2="-1320.07" y2="636.75" gradientTransform="matrix(-1, -0.05, -0.05, 1, -831.5, -118.78)" xlink:href="#linear-gradient-8"/><linearGradient id="linear-gradient-135" x1="-1277.77" y1="530.74" x2="-1315.61" y2="570.73" gradientTransform="matrix(-1, 0, 0, 1, -802.59, 0)" xlink:href="#linear-gradient-8"/><linearGradient id="linear-gradient-136" x1="-1300.64" y1="540.7" x2="-1317.81" y2="566.55" gradientTransform="matrix(-1, 0, 0, 1, -802.59, 0)" xlink:href="#linear-gradient-27"/><linearGradient id="linear-gradient-137" x1="-1406.34" y1="588.42" x2="-1124.26" y2="588.42" gradientTransform="matrix(-1, 0, 0, 1, -802.59, 0)" xlink:href="#linear-gradient-113"/><linearGradient id="linear-gradient-138" x1="-1390.14" y1="650.25" x2="-1334.45" y2="650.25" gradientTransform="matrix(-1, 0, 0, 1, -802.59, 0)" xlink:href="#linear-gradient-113"/><linearGradient id="linear-gradient-139" x1="-1383.71" y1="650.25" x2="-1328.02" y2="650.25" gradientTransform="matrix(-1, 0, 0, 1, -802.59, 0)" xlink:href="#linear-gradient-113"/><linearGradient id="linear-gradient-140" x1="-1189.95" y1="650.25" x2="-1134.27" y2="650.25" gradientTransform="matrix(-1, 0, 0, 1, -802.59, 0)" xlink:href="#linear-gradient-113"/><linearGradient id="linear-gradient-141" x1="-1183.52" y1="650.25" x2="-1127.84" y2="650.25" gradientTransform="matrix(-1, 0, 0, 1, -802.59, 0)" xlink:href="#linear-gradient-113"/></defs><title>bn_con7</title><path class="cls-1" d="M625.89,684.4s319.7,3.71,408.75-79.91,55.54-167-12.65-190.63-79.82-48.18-43.13-81.31,83.29-101.14,5.92-169.48S819.13,192.89,750,179.85s-41.77-56.93-132.71-26.62-70.88-57.95-144-65.95-65.62,91.81-140.81,54.13-136.71-32.48-169,27.36-18.29,140.44,52.64,188.47,63.31,44.76,36.81,92S202.6,651.61,323.27,673.78,625.89,684.4,625.89,684.4Z"/><path class="cls-2" d="M625.39,666.28s300.22,3.49,383.85-75,52.14-156.83-11.89-179-75-45.24-40.5-76.35,78.22-95,5.56-159.16-155.56,28-220.49,15.76S702.7,139,617.3,167.49s-66.57-54.43-135.22-61.94-61.61,86.22-132.23,50.84-128.37-30.5-158.73,25.69S174,314,240.55,359.06s59.45,42,34.56,86.35-47.21,190.08,66.11,210.9S625.39,666.28,625.39,666.28Z"/><g class="cls-3"><g class="cls-4"><path class="cls-5" d="M838.75,229.1c25.94,27.72,170.31,195.26,37.43,359,0,0-123.44-85.83-42.86-357.7A3.21,3.21,0,0,1,838.75,229.1Z"/><path class="cls-6" d="M843.35,266.89s6.35,17.07,14.86,43c2.13,6.49,4.39,13.53,6.72,21s4.75,15.35,7.15,23.54,4.83,16.66,7.23,25.3q1.74,6.48,3.52,13.06c1.12,4.4,2.3,8.79,3.39,13.21s2.22,8.83,3.24,13.25,2.09,8.81,3,13.19q.74,3.29,1.45,6.54c.46,2.17.91,4.34,1.36,6.49.93,4.29,1.75,8.56,2.56,12.75,3.22,16.78,5.64,32.57,7.14,46.18.43,3.4.7,6.67,1,9.78.14,1.56.28,3.07.41,4.55s.18,2.91.27,4.3c.16,2.78.36,5.38.44,7.79s.13,4.63.18,6.63c0,1,.05,1.95.07,2.84s0,1.73,0,2.51c0,1.56,0,2.89-.05,4l0,3.3a2,2,0,0,1-4,0h0v-.09s0-1.13.06-3.24c0-1.06,0-2.36.07-3.89,0-.77,0-1.59.05-2.47s0-1.81-.05-2.8q-.06-3-.12-6.55c-.06-2.38-.25-5-.38-7.7-.07-1.38-.13-2.8-.23-4.26s-.24-3-.37-4.51c-.25-3.08-.49-6.32-.89-9.7-1.38-13.51-3.66-29.23-6.74-46-.77-4.19-1.55-8.44-2.44-12.73-.43-2.15-.87-4.3-1.3-6.48s-.93-4.34-1.4-6.52c-.92-4.37-1.92-8.77-2.94-13.17s-2.07-8.83-3.12-13.24-2.2-8.82-3.29-13.21-2.28-8.74-3.41-13.06c-2.32-8.64-4.64-17.13-7-25.31s-4.7-16.09-7-23.56-4.47-14.52-6.55-21c-8.29-26-14.49-43.06-14.49-43.06a.85.85,0,0,1,1.59-.59Z"/></g><g class="cls-7"><path class="cls-8" d="M971,145.55a3.61,3.61,0,0,0-6.86,1.41c-1.43,36.26-8.16,131.21-39.75,188.28-51.43,92.93-68.21,227.91-8.3,281.46C916.06,616.7,1147.52,514.42,971,145.55Z"/><path class="cls-9" d="M975.7,195.71l.14,1.1c.07.73.19,1.86.29,3.25.24,2.82.52,6.95.81,12.2.55,10.52,1.15,25.55,1.31,43.6,0,9,0,18.81-.15,29.15s-.5,21.24-1,32.52-1.24,22.91-2.2,34.73c-.23,2.95-.47,5.92-.7,8.89s-.56,6-.84,8.94c-.52,6-1.22,12-1.86,17.94-.3,3-.69,6-1.06,9l-1.14,8.94q-1.26,8.91-2.6,17.71c-1,5.85-1.88,11.66-2.93,17.38q-.81,4.28-1.59,8.51c-.27,1.41-.53,2.81-.79,4.21s-.58,2.79-.86,4.17c-2.26,11.06-4.67,21.72-7.3,31.73-.67,2.5-1.32,5-2,7.4-.32,1.22-.64,2.42-1,3.62s-.69,2.37-1,3.54c-1.4,4.66-2.67,9.19-4,13.5s-2.77,8.4-4.06,12.32-2.77,7.53-4,11q-1,2.58-1.87,5l-1.89,4.58c-1.21,2.93-2.33,5.63-3.33,8.07-2.1,4.83-3.93,8.55-5.09,11.12l-1.82,3.92a.5.5,0,0,1-.92-.4v0s.6-1.38,1.71-4,2.79-6.35,4.79-11.21c1-2.44,2-5.15,3.15-8.1.58-1.48,1.17-3,1.79-4.6l1.75-5c1.19-3.46,2.51-7.12,3.79-11s2.53-8,3.88-12.32,2.52-8.83,3.86-13.49l1-3.53c.3-1.2.6-2.41.91-3.62l1.86-7.39c2.45-10,4.84-20.63,7-31.66l.84-4.15c.25-1.4.51-2.8.76-4.2.52-2.81,1-5.64,1.55-8.49,1-5.7,1.89-11.5,2.85-17.32s1.7-11.74,2.52-17.67,1.58-11.87,2.23-17.84,1.38-11.92,1.92-17.88q.43-4.47.86-8.91c.25-3,.5-5.92.74-8.86,1-11.78,1.7-23.4,2.31-34.64s1.06-22.12,1.31-32.44.4-20.07.47-29.08,0-17.27-.12-24.59-.29-13.7-.46-18.95-.36-9.38-.53-12.19c-.07-1.42-.16-2.44-.2-3.16l-.11-1.1v0a.5.5,0,0,1,1-.12Z"/></g><g class="cls-7"><path class="cls-10" d="M926.55,596.37s-9.87-51.07,30.27-113.54c37.24-58,130.26-193.53,144-260.48a2.79,2.79,0,0,1,5.47-.07c7.14,31.68,18.81,112.44-19.06,203.35C1038.43,542.87,926.55,596.37,926.55,596.37Z"/><path class="cls-11" d="M1094.55,283.18s.16,1.33.26,3.86c0,1.26.11,2.82.09,4.65s-.06,3.94-.17,6.3-.35,5-.57,7.8-.7,5.88-1.08,9.15c-.23,1.63-.54,3.29-.82,5s-.56,3.51-.93,5.31-.8,3.66-1.21,5.55-.79,3.85-1.35,5.8a256.94,256.94,0,0,1-7.7,25c-1.67,4.33-3.18,8.87-5.22,13.31l-2.95,6.78c-.94,2.31-2.08,4.55-3.2,6.82-4.33,9.17-9.44,18.33-14.89,27.47-2.85,4.5-5.65,9.06-8.58,13.6l-9,13.35-9.2,13.26c-3.07,4.4-6.19,8.74-9.28,13L1009.44,482l-9.16,12.34c-6.11,8-12,15.79-17.61,23.15s-10.9,14.3-15.66,20.79-9.07,12.48-12.72,17.9c-1.82,2.71-3.41,5.32-4.94,7.69s-2.72,4.68-3.89,6.71c-2.16,4.15-3.88,7.41-4.78,9.74l-1.52,3.54v0a.5.5,0,0,1-.93-.37s.48-1.27,1.39-3.63a105.51,105.51,0,0,1,4.46-10c1.13-2.08,2.34-4.4,3.73-6.89s3-5.12,4.76-7.9c3.53-5.55,7.6-11.76,12.31-18.32s9.86-13.64,15.33-21.1l17.22-23.42,9.05-12.39,9.17-12.76,9.21-13L1034,440.8l9-13.36c2.89-4.45,5.72-9,8.56-13.39,5.45-9,10.53-18.05,15-27,1.15-2.23,2.3-4.43,3.27-6.7s2-4.46,3-6.66c.5-1.1,1-2.2,1.48-3.29s.9-2.2,1.35-3.29q1.32-3.29,2.59-6.49c3.37-8.56,6-16.85,8.25-24.56.61-1.92,1-3.84,1.51-5.7s.92-3.68,1.37-5.46c.77-3.57,1.49-7,2.13-10.18s1.1-6.23,1.45-9,.73-5.38.88-7.72c.1-1.17.19-2.28.28-3.32s.11-2,.17-2.93c.12-1.82.15-3.37.16-4.63,0-2.52,0-3.86,0-3.86a.06.06,0,0,1,.06-.07A.06.06,0,0,1,1094.55,283.18Z"/></g></g><g class="cls-3"><path class="cls-12" d="M238.5,283.86c-11.36,42.93-67.26,295.47,160.3,390.49,0,0,79.6-156.79-154-392.19A3.75,3.75,0,0,0,238.5,283.86Z"/><path class="cls-6" d="M256.52,325.08s3.06,21,8.89,52.39c1.46,7.84,3.09,16.32,4.88,25.28s3.74,18.39,5.87,28.12,4.4,19.78,6.79,30c1.23,5.08,2.47,10.21,3.72,15.35s2.56,10.29,3.92,15.43,2.68,10.28,4.11,15.37,2.79,10.18,4.27,15.2c.72,2.51,1.45,5,2.17,7.5s1.49,5,2.24,7.4c1.45,4.91,3,9.72,4.52,14.46,3,9.48,6.16,18.58,9.26,27.16s6.21,16.61,9.24,24c1.46,3.69,3,7.17,4.46,10.49L333,618c.71,1.56,1.44,3.06,2.12,4.52,1.39,2.91,2.63,5.67,3.88,8.15s2.44,4.77,3.5,6.82l1.5,2.92c.5.9,1,1.74,1.42,2.52.88,1.56,1.62,2.9,2.23,4l1.86,3.31,0,.08a2,2,0,0,1-3.49,2v0l-1.87-3.37-2.23-4c-.44-.8-.92-1.65-1.42-2.57l-1.5-3q-1.59-3.13-3.49-6.92c-1.26-2.52-2.49-5.31-3.87-8.26-.68-1.48-1.4-3-2.1-4.58l-2.1-4.9c-1.44-3.35-3-6.87-4.42-10.6-3-7.42-6.06-15.53-9.13-24.16s-6.13-17.8-9.12-27.33c-1.48-4.77-3-9.61-4.44-14.55q-1.09-3.69-2.19-7.44L296,523c-1.44-5-2.81-10.14-4.18-15.27s-2.68-10.28-4-15.44S285.28,482,284,476.83s-2.43-10.3-3.62-15.4c-2.33-10.22-4.56-20.29-6.6-30.05s-3.94-19.23-5.68-28.2-3.32-17.49-4.72-25.34c-5.63-31.43-8.55-52.52-8.55-52.52a.85.85,0,0,1,1.68-.24Z"/></g><g class="cls-3"><path class="cls-13" d="M142.05,424.13a2.58,2.58,0,0,1,4.57-2.05c16,20.44,59.55,72.75,101.73,92.67C317,547.2,383.17,618.53,370.77,674.64,370.77,674.64,193.69,712,142.05,424.13Z"/><path class="cls-9" d="M161,454.85l.39.68,1.21,1.9c1.08,1.69,2.73,4.14,4.81,7.27s4.68,6.88,7.7,11.16,6.47,9.06,10.24,14.28,8,10.81,12.46,16.65,9.32,12,14.34,18.25,10.32,12.7,15.82,19.12l4.13,4.83,4.23,4.8c2.8,3.23,5.71,6.38,8.59,9.56s5.86,6.27,8.74,9.42l8.83,9.2c3,3,5.91,6,8.88,8.86s5.88,5.76,8.85,8.46c5.88,5.49,11.69,10.65,17.28,15.45s11,9.16,16.08,13.12L321,633.4c2.37,1.73,4.65,3.31,6.78,4.83l3.1,2.19,2.95,1.93,5.19,3.41c3.18,2,5.73,3.48,7.44,4.54l2.64,1.6h0a.5.5,0,0,1-.51.86l-2.7-1.5c-1.76-1-4.39-2.37-7.63-4.29l-5.33-3.27-3-1.86-3.18-2.11c-2.17-1.47-4.53-3-6.95-4.67l-7.52-5.44c-5.16-3.89-10.72-8.17-16.42-12.9s-11.59-9.88-17.53-15.36c-3-2.7-5.92-5.6-8.95-8.45s-5.95-5.88-9-8.86l-8.92-9.19c-2.93-3.14-5.88-6.27-8.76-9.48s-5.78-6.39-8.57-9.65l-4.22-4.84L225.8,546c-5.49-6.47-10.74-13-15.78-19.27s-9.73-12.55-14.12-18.5-8.5-11.62-12.24-16.89c-7.42-10.56-13.31-19.57-17.37-25.92-2-3.18-3.57-5.7-4.6-7.44-.52-.85-.92-1.57-1.19-2l-.37-.7a.49.49,0,0,1,.2-.67.5.5,0,0,1,.67.19Z"/></g><path class="cls-14" d="M275.31,410h-182a7.05,7.05,0,0,1-7.05-7h0a7,7,0,0,1,7.05-7H275.31a7,7,0,0,1,7,7h0A7,7,0,0,1,275.31,410Z"/><path class="cls-15" d="M297.18,437.55h-182a7,7,0,0,1-7-7h0a7,7,0,0,1,7-7.05H297.18a7,7,0,0,1,7,7.05h0A7,7,0,0,1,297.18,437.55Z"/><path class="cls-15" d="M245.41,492.74H115.13a7,7,0,0,1-7-7.05h0a7,7,0,0,1,7-7H245.41a7,7,0,0,1,7.05,7h0A7,7,0,0,1,245.41,492.74Z"/><path class="cls-14" d="M317.6,465.15h-182a7.05,7.05,0,0,1-7.05-7h0a7,7,0,0,1,7.05-7H317.6a7,7,0,0,1,7,7h0A7,7,0,0,1,317.6,465.15Z"/><path class="cls-16" d="M841.1,220.47l-359-6.07c-14.45-.24-26.06,12.15-25.2,26.93l12.36,212.52a21.9,21.9,0,0,0,21.42,20.86l345.12,3.41a15.93,15.93,0,0,0,15.89-15.51l8.26-221.81A19.4,19.4,0,0,0,841.1,220.47Z"/><path class="cls-17" d="M835.59,225.88l-349.66-5.77a24.18,24.18,0,0,0-24.54,25.62l12,202.19a21.1,21.1,0,0,0,20.86,19.85L830.39,471a15.35,15.35,0,0,0,15.48-14.75l8-211A18.64,18.64,0,0,0,835.59,225.88Z"/><path class="cls-18" d="M829.06,232.85l-333-5.5a23,23,0,0,0-23.37,24.4l11.46,192.54A20.09,20.09,0,0,0,504,463.18l320.06,3.09a14.6,14.6,0,0,0,14.74-14l7.66-201A17.75,17.75,0,0,0,829.06,232.85Z"/><path class="cls-19" d="M485.12,219.94l351.13,5.8a18.72,18.72,0,0,1,18.4,19.43L854.08,260H461.33l-.85-14.37A24.28,24.28,0,0,1,485.12,219.94Z"/><g class="cls-20"><path class="cls-21" d="M825.21,232.93a3.16,3.16,0,1,0,3.16-3.16A3.16,3.16,0,0,0,825.21,232.93Z"/><path class="cls-21" d="M825.21,242.18a3.16,3.16,0,1,0,3.16-3.15A3.15,3.15,0,0,0,825.21,242.18Z"/><path class="cls-21" d="M825.21,251.44a3.16,3.16,0,1,0,3.16-3.16A3.16,3.16,0,0,0,825.21,251.44Z"/></g><g class="cls-22"><path class="cls-21" d="M777.19,349.57h37.87a9.06,9.06,0,0,1,9,9.5l-4.31,88a9.05,9.05,0,0,1-9,8.62H777.19a9.06,9.06,0,0,1-9.06-9.06v-88A9.05,9.05,0,0,1,777.19,349.57Z"/><path class="cls-21" d="M686.09,269.71,819,271.76a9.05,9.05,0,0,1,8.9,9.5l-2.21,45.2a9.06,9.06,0,0,1-9.05,8.61H686A9.06,9.06,0,0,1,676.9,326V278.76A9.05,9.05,0,0,1,686.09,269.71Z"/><rect class="cls-21" x="676.9" y="349.57" width="80" height="106.12" rx="9.05"/></g><circle class="cls-21" cx="632.05" cy="294.37" r="22.74" transform="translate(-23.03 533.14) rotate(-45)"/><circle class="cls-21" cx="575.54" cy="294.37" r="22.74" transform="translate(131.88 764.54) rotate(-73.75)"/><circle class="cls-21" cx="519.04" cy="295.11" r="22.74" transform="matrix(0.22, -0.98, 0.98, 0.22, 117.82, 737.28)"/><path class="cls-23" d="M618.54,289.56a14.6,14.6,0,1,0,13.51-9.05c-.25,0-.49,0-.74,0v-3.71h.74a18.27,18.27,0,1,1-16.91,11.28Z"/><path class="cls-24" d="M568,307.47a14.6,14.6,0,1,0,7.78-27c-.24,0-.49,0-.73,0v-3.71h.73a18.3,18.3,0,1,1-9.61,33.88Z"/><path class="cls-25" d="M506.85,303.32a14.6,14.6,0,1,0,12.08-22.81c-.25,0-.49,0-.74,0v-3.71h.74a18.3,18.3,0,1,1-15.08,28.68Z"/><g class="cls-26"><path class="cls-21" d="M613.52,326.73h37.05a4.21,4.21,0,1,1,0,8.42H613.52a4.21,4.21,0,0,1,0-8.42Z"/><path class="cls-21" d="M557,326.73h37.05a4.21,4.21,0,0,1,0,8.42H557a4.21,4.21,0,0,1,0-8.42Z"/><path class="cls-21" d="M537.56,335.15h-37a4.21,4.21,0,1,1,0-8.42h37a4.21,4.21,0,1,1,0,8.42Z"/><rect class="cls-21" x="609.31" y="339.83" width="45.47" height="33.22" rx="4.21"/><rect class="cls-21" x="552.81" y="339.83" width="45.47" height="33.22" rx="4.21"/><rect class="cls-21" x="496.3" y="339.83" width="45.47" height="33.22" rx="4.21"/></g><path class="cls-27" d="M749.69,406.23v33.41a9.46,9.46,0,0,1-9.46,9.46H694.47a9.72,9.72,0,0,1-9.72-9.71V389.08a4.61,4.61,0,0,1,8-3.08l8.84,9.89a9.76,9.76,0,0,0,13.22,1.22l.84-.65a8.36,8.36,0,0,1,10.5.26l4.84,4.12a12.81,12.81,0,0,0,13.43,2h0A3.73,3.73,0,0,1,749.69,406.23Z"/><rect class="cls-28" x="644.87" y="420.98" width="7.67" height="34.72" transform="translate(1297.4 876.68) rotate(180)"/><rect class="cls-29" x="632.05" y="432.91" width="7.67" height="22.78" transform="translate(1271.77 888.61) rotate(180)"/><rect class="cls-30" x="619.23" y="403.42" width="7.67" height="52.27" transform="translate(1246.14 859.12) rotate(180)"/><rect class="cls-31" x="606.42" y="443.14" width="7.67" height="12.56" transform="translate(1220.5 898.83) rotate(180)"/><rect class="cls-32" x="593.6" y="410.41" width="7.67" height="45.28" transform="translate(1194.87 866.11) rotate(180)"/><rect class="cls-33" x="580.79" y="418.25" width="7.67" height="37.44" transform="translate(1169.24 873.95) rotate(180)"/><rect class="cls-34" x="567.97" y="426.78" width="7.67" height="28.92" transform="translate(1143.61 882.47) rotate(180)"/><rect class="cls-35" x="555.15" y="392.86" width="7.67" height="62.84" transform="translate(1117.98 848.55) rotate(180)"/><rect class="cls-36" x="542.34" y="399.5" width="7.67" height="56.19" transform="translate(1092.34 855.2) rotate(180)"/><rect class="cls-37" x="529.52" y="409.56" width="7.67" height="46.14" transform="translate(1066.71 865.26) rotate(180)"/><rect class="cls-38" x="516.71" y="444.3" width="7.67" height="11.39" transform="translate(1041.08 900) rotate(180)"/><rect class="cls-39" x="503.89" y="422.17" width="7.67" height="33.52" transform="translate(1015.45 877.87) rotate(180)"/><path class="cls-40" d="M632.47,392.86h33.74a2.69,2.69,0,1,1,0,5.37H632.47a2.69,2.69,0,1,1,0-5.37Z"/><path class="cls-40" d="M632.47,384.46h33.74a2.69,2.69,0,1,1,0,5.37H632.47a2.69,2.69,0,1,1,0-5.37Z"/><path class="cls-40" d="M571.58,392.86h33.75a2.69,2.69,0,0,1,0,5.37H571.58a2.69,2.69,0,0,1,0-5.37Z"/><path class="cls-40" d="M571.58,384.46h33.75a2.69,2.69,0,0,1,0,5.37H571.58a2.69,2.69,0,0,1,0-5.37Z"/><path class="cls-41" d="M379.65,686.55H118.51V634.29H379.65C374.06,634.29,374.06,686.55,379.65,686.55Z"/><path class="cls-42" d="M118.51,673.47V649.55c0-8.43,5.16-15.26,11.53-15.26H378.55a9.06,9.06,0,0,0,9.06-9.07,2.75,2.75,0,0,0-2.75-2.75H113.26c-6.23,0-16.12,9.79-16.12,21.87v33.41c0,11.39,9.6,20.62,15.47,20.62H383.43a4.18,4.18,0,0,0,4.18-4.18,7.63,7.63,0,0,0-7.63-7.64H128.39C122.93,686.55,118.51,680.7,118.51,673.47Z"/><path class="cls-21" d="M370.61,646H125.75a1,1,0,0,1,0-2H370.61a1,1,0,0,1,0,2Z"/><path class="cls-21" d="M370.61,653.77H125.75a1,1,0,0,1,0-2H370.61a1,1,0,0,1,0,2Z"/><path class="cls-21" d="M370.61,661.53H125.75a1,1,0,0,1,0-2H370.61a1,1,0,0,1,0,2Z"/><path class="cls-21" d="M370.61,669.28H125.75a1,1,0,0,1,0-2H370.61a1,1,0,0,1,0,2Z"/><path class="cls-21" d="M370.61,677H125.75a1,1,0,0,1,0-2H370.61a1,1,0,1,1,0,2Z"/><path class="cls-14" d="M1044.68,155h-182a7,7,0,0,1-7-7.05h0a7,7,0,0,1,7-7h182a7,7,0,0,1,7,7h0A7.05,7.05,0,0,1,1044.68,155Z"/><path class="cls-15" d="M1066.56,182.56h-182a7,7,0,0,1-7-7h0a7,7,0,0,1,7-7.05h182a7,7,0,0,1,7,7.05h0A7,7,0,0,1,1066.56,182.56Z"/><path class="cls-15" d="M1014.79,237.75H884.51a7,7,0,0,1-7-7.05h0a7,7,0,0,1,7-7h130.28a7,7,0,0,1,7,7h0A7,7,0,0,1,1014.79,237.75Z"/><path class="cls-14" d="M1087,210.15h-182a7,7,0,0,1-7-7h0a7,7,0,0,1,7-7h182a7,7,0,0,1,7,7h0A7,7,0,0,1,1087,210.15Z"/><path class="cls-43" d="M226.77,449.07,224,450.16a.92.92,0,0,1-.67-1.71h0l2.8-1.08a.91.91,0,0,1,.66,1.7Z"/><path class="cls-43" d="M216,453.93l-2.63,1.45a.93.93,0,0,1-.9-1.62h0l2.63-1.45a.93.93,0,1,1,.9,1.62Z"/><path class="cls-43" d="M205.85,460.17,203.43,462a1,1,0,0,1-1.32-.21.94.94,0,0,1,.21-1.31h0l2.42-1.77a.94.94,0,0,1,1.11,1.51Z"/><path class="cls-43" d="M196.58,467.62l-2.2,2a.95.95,0,1,1-1.29-1.39h0l2.2-2a.95.95,0,1,1,1.29,1.39Z"/><path class="cls-43" d="M188.21,476.06l-2,2.27a1,1,0,1,1-1.45-1.26h0l2-2.26a1,1,0,0,1,1.36-.1A1,1,0,0,1,188.21,476.06Z"/><path class="cls-43" d="M180.78,485.36l-1.72,2.45a1,1,0,1,1-1.59-1.12h0l1.72-2.45a1,1,0,1,1,1.59,1.12Z"/><path class="cls-43" d="M174.31,495.34,172.83,498a1,1,0,1,1-1.71-1h0l1.48-2.61a1,1,0,0,1,1.71,1Z"/><path class="cls-43" d="M168.81,505.9l-1.23,2.74a1,1,0,0,1-1.31.5,1,1,0,0,1-.51-1.32h0l1.24-2.74a1,1,0,0,1,1.81.82Z"/><path class="cls-43" d="M164.31,516.92l-1,2.84a1,1,0,0,1-1.91-.66h0l1-2.84a1,1,0,0,1,1.9.66Z"/><path class="cls-43" d="M160.83,528.3l-.71,2.92a1,1,0,0,1-2-.49h0l.71-2.91a1,1,0,0,1,2,.48Z"/><path class="cls-43" d="M158.4,540l-.44,3a1,1,0,0,1-1.17.87,1,1,0,0,1-.87-1.17h0l.45-3a1,1,0,1,1,2,.31Z"/><path class="cls-43" d="M157.07,551.78l-.15,3a1,1,0,0,1-2.09-.1h0l.17-3a1,1,0,1,1,2.07.11Z"/><path class="cls-43" d="M156.89,563.68l.13,3a1.06,1.06,0,1,1-2.11.09h0l-.13-3a1.06,1.06,0,0,1,2.11-.09Z"/><path class="cls-43" d="M157.83,575.53l.41,3a1.06,1.06,0,1,1-2.11.29h0l-.41-3a1.08,1.08,0,0,1,.92-1.2A1.06,1.06,0,0,1,157.83,575.53Z"/><path class="cls-43" d="M159.85,587.26l.67,2.93a1.08,1.08,0,1,1-2.1.48h0l-.67-2.93a1.08,1.08,0,1,1,2.1-.48Z"/><path class="cls-43" d="M162.89,598.77l.92,2.86a1.09,1.09,0,0,1-2.07.67h0l-.91-2.85a1.09,1.09,0,1,1,2.07-.67Z"/><path class="cls-43" d="M166.91,610l1.15,2.76a1.1,1.1,0,1,1-2,.86h0l-1.15-2.77a1.1,1.1,0,1,1,2-.85Z"/><path class="cls-43" d="M171.85,620.81l1.38,2.66a1.12,1.12,0,0,1-2,1h0l-1.38-2.67a1.11,1.11,0,0,1,2-1Z"/><path class="cls-43" d="M177.67,631.2l1.59,2.53a1.12,1.12,0,1,1-1.9,1.2h0l-1.6-2.54a1.13,1.13,0,1,1,1.91-1.19Z"/><path class="cls-43" d="M184.32,641.07l1.8,2.4a1.14,1.14,0,0,1-.23,1.59,1.13,1.13,0,0,1-1.59-.22h0l-1.8-2.4a1.14,1.14,0,1,1,1.82-1.36Z"/><path class="cls-43" d="M191.75,650.36l2,2.24a1.16,1.16,0,0,1-.1,1.63,1.14,1.14,0,0,1-1.62-.1h0l-2-2.25a1.14,1.14,0,0,1,1.71-1.52Z"/><path class="cls-43" d="M199.94,659l2.18,2.06a1.18,1.18,0,0,1,0,1.65,1.17,1.17,0,0,1-1.64,0h0l-2.18-2.07a1.16,1.16,0,0,1,1.6-1.68Z"/><path class="cls-43" d="M208.83,666.9l2.35,1.87a1.17,1.17,0,1,1-1.46,1.83h0l-2.35-1.87a1.17,1.17,0,0,1,1.46-1.83Z"/><path class="cls-43" d="M218.38,674l2.51,1.65a1.18,1.18,0,0,1-1.3,2h0L217.08,676a1.18,1.18,0,0,1,1.3-2Z"/><path class="cls-43" d="M228.55,680.15l2.64,1.39h0a1.19,1.19,0,1,1-1.12,2.11h0l-2.66-1.41a1.19,1.19,0,1,1,1.11-2.11Z"/><path class="cls-43" d="M239.24,685.33l2.77,1.15a1.21,1.21,0,0,1-.93,2.23h0l-2.77-1.16a1.2,1.2,0,1,1,.93-2.22Z"/><path class="cls-43" d="M250.36,689.52l2.86.91a1.22,1.22,0,1,1-.73,2.32h0l-2.86-.91a1.2,1.2,0,0,1-.79-1.52A1.21,1.21,0,0,1,250.36,689.52Z"/><path class="cls-43" d="M261.81,692.72l2.93.65a1.23,1.23,0,1,1-.53,2.4h0l-2.93-.65a1.23,1.23,0,0,1,.53-2.4Z"/><path class="cls-43" d="M273.5,694.91l3,.4a1.24,1.24,0,0,1-.32,2.46h0l-3-.4a1.24,1.24,0,0,1,.33-2.46Z"/><path class="cls-43" d="M285.33,696.11l3,.15a1.26,1.26,0,0,1-.12,2.51h0l-3-.16a1.25,1.25,0,1,1,.12-2.5Z"/><path class="cls-43" d="M297.23,696.34l3-.09a1.26,1.26,0,0,1,1.31,1.22,1.27,1.27,0,0,1-1.23,1.31h0l-3,.08a1.26,1.26,0,1,1-.07-2.52Z"/><path class="cls-43" d="M309.1,695.62l3-.33a1.27,1.27,0,0,1,.28,2.53h0l-3,.33a1.27,1.27,0,0,1-.28-2.53Z"/><path class="cls-43" d="M320.89,694l2.94-.56a1.27,1.27,0,0,1,.48,2.5h0l-2.95.55a1.27,1.27,0,1,1-.47-2.5Z"/><path class="cls-43" d="M332.51,691.44l2.9-.78a1.27,1.27,0,1,1,.66,2.46h0l-2.9.78a1.27,1.27,0,0,1-.66-2.46Z"/><path class="cls-43" d="M343.91,688l2.83-1a1.28,1.28,0,1,1,.85,2.41h0l-2.83,1a1.27,1.27,0,0,1-1.63-.78A1.29,1.29,0,0,1,343.91,688Z"/><path class="cls-43" d="M355,683.75l2.75-1.2a1.28,1.28,0,1,1,1,2.34h0l-2.75,1.21a1.28,1.28,0,0,1-1-2.35Z"/><path class="cls-43" d="M365.79,678.67l2.65-1.4a1.28,1.28,0,1,1,1.2,2.27h0l-2.66,1.4a1.28,1.28,0,0,1-1.19-2.27Z"/><path class="cls-43" d="M376.2,672.87l2.56-1.57a1.29,1.29,0,0,1,1.34,2.2h0l-2.56,1.56a1.28,1.28,0,1,1-1.34-2.19Z"/><path class="cls-43" d="M386.23,666.43l2.47-1.71a1.29,1.29,0,0,1,1.47,2.12h0l-2.47,1.71a1.29,1.29,0,0,1-1.47-2.12Z"/><path class="cls-43" d="M395.89,659.43l2.37-1.84a1.29,1.29,0,0,1,1.59,2h0l-2.38,1.84a1.29,1.29,0,0,1-1.58-2Z"/><path class="cls-43" d="M405.19,651.94l2.28-2a1.29,1.29,0,0,1,1.68,2h0l-2.28,1.95a1.29,1.29,0,0,1-1.68-2Z"/><path class="cls-43" d="M414.15,644l2.19-2a1.3,1.3,0,1,1,1.77,1.9h0l-2.2,2a1.3,1.3,0,0,1-1.83-.07A1.29,1.29,0,0,1,414.15,644Z"/><path class="cls-43" d="M422.79,635.78l2.12-2.12a1.31,1.31,0,0,1,1.84,0,1.29,1.29,0,0,1,0,1.83h0l-2.13,2.12a1.3,1.3,0,1,1-1.83-1.84Z"/><path class="cls-43" d="M431.16,627.24l2.06-2.19a1.3,1.3,0,0,1,1.89,1.79h0L433.05,629a1.3,1.3,0,0,1-1.89-1.78Z"/><path class="cls-43" d="M439.28,618.45l2-2.23a1.3,1.3,0,1,1,1.94,1.74h0l-2,2.23a1.3,1.3,0,0,1-1.94-1.74Z"/><path class="cls-43" d="M447.21,609.48l2-2.27a1.3,1.3,0,1,1,2,1.7h0l-2,2.28a1.31,1.31,0,0,1-2-1.71Z"/><path class="cls-43" d="M455,600.36l1.93-2.3a1.31,1.31,0,1,1,2,1.68h0L457,602a1.31,1.31,0,0,1-2-1.68Z"/><path class="cls-43" d="M462.63,591.13l1.9-2.32a1.31,1.31,0,1,1,2,1.66h0l-1.9,2.32a1.31,1.31,0,1,1-2-1.66Z"/><path class="cls-43" d="M470.2,581.83l1.88-2.33a1.32,1.32,0,1,1,2.05,1.65h0l-1.89,2.33a1.31,1.31,0,1,1-2-1.65Z"/><path class="cls-43" d="M477.73,572.49l1.88-2.34a1.33,1.33,0,0,1,1.85-.2,1.31,1.31,0,0,1,.2,1.85h0l-1.88,2.33a1.32,1.32,0,0,1-2-1.65Z"/><path class="cls-43" d="M485.26,563.14l1.89-2.33a1.32,1.32,0,1,1,2.05,1.66h0l-1.89,2.33a1.32,1.32,0,1,1-2.05-1.66Z"/><path class="cls-43" d="M492.83,553.82l1.9-2.32a1.33,1.33,0,0,1,2,1.68h0l-1.91,2.32a1.32,1.32,0,1,1-2-1.68Z"/><path class="cls-43" d="M500.48,544.56l1.92-2.3a1.33,1.33,0,1,1,2,1.7h0l-1.93,2.3a1.32,1.32,0,0,1-2-1.7Z"/><path class="cls-43" d="M508.24,535.38l2-2.27a1.33,1.33,0,1,1,2,1.74h0l-2,2.27a1.33,1.33,0,0,1-2-1.74Z"/><path class="cls-43" d="M516.17,526.33l2-2.23a1.33,1.33,0,0,1,2,1.78h0l-2,2.23a1.33,1.33,0,1,1-2-1.78Z"/><path class="cls-43" d="M524.29,517.45l2.06-2.18a1.33,1.33,0,0,1,1.94,1.83h0l-2,2.18a1.33,1.33,0,1,1-1.94-1.83Z"/><path class="cls-43" d="M532.64,508.79l2.12-2.13a1.34,1.34,0,0,1,1.89,1.89h0l-2.12,2.12a1.33,1.33,0,0,1-1.89-1.88Z"/><path class="cls-43" d="M541.27,500.38l2.19-2.05a1.34,1.34,0,0,1,1.83,2h0l-2.2,2a1.33,1.33,0,1,1-1.82-1.95Z"/><path class="cls-43" d="M550.2,492.28l2.27-1.95a1.34,1.34,0,1,1,1.75,2h0L552,494.31a1.34,1.34,0,0,1-1.75-2Z"/><path class="cls-43" d="M559.46,484.56l2.36-1.85a1.34,1.34,0,1,1,1.66,2.11h0l-2.36,1.86a1.35,1.35,0,0,1-1.66-2.12Z"/><path class="cls-43" d="M569.1,477.29l2.45-1.73a1.35,1.35,0,0,1,1.55,2.21h0l-2.45,1.72a1.35,1.35,0,1,1-1.55-2.2Z"/><path class="cls-43" d="M579.1,470.54l2.54-1.59a1.35,1.35,0,1,1,1.44,2.28h0l-2.54,1.6a1.35,1.35,0,0,1-1.44-2.29Z"/><path class="cls-43" d="M589.45,464.33l2.63-1.45a1.35,1.35,0,0,1,1.31,2.36h0l-2.62,1.45a1.35,1.35,0,1,1-1.32-2.36Z"/><path class="cls-43" d="M600.12,458.68l2.69-1.32a1.35,1.35,0,1,1,1.19,2.43h0l-2.69,1.31a1.35,1.35,0,1,1-1.19-2.43Z"/><path class="cls-43" d="M611.06,453.59l2.76-1.17a1.36,1.36,0,0,1,1.07,2.5h0l-2.76,1.17a1.36,1.36,0,0,1-1.07-2.5Z"/><path class="cls-43" d="M622.26,449.08l2.82-1a1.36,1.36,0,0,1,.93,2.56h0l-2.82,1a1.36,1.36,0,0,1-.93-2.56Z"/><path class="cls-43" d="M633.67,445.16l2.87-.89a1.36,1.36,0,0,1,.8,2.61h0l-2.87.88a1.36,1.36,0,0,1-.8-2.6Z"/><path class="cls-43" d="M645.27,441.82l2.91-.73a1.36,1.36,0,1,1,.67,2.64h0l-2.91.74a1.37,1.37,0,0,1-.67-2.65Z"/><path class="cls-43" d="M657,439.09l2.94-.59a1.37,1.37,0,0,1,.54,2.68h0l-2.94.59a1.38,1.38,0,0,1-1.61-1.08A1.35,1.35,0,0,1,657,439.09Z"/><path class="cls-43" d="M668.9,437l3-.44a1.37,1.37,0,0,1,.4,2.71h0l-3,.44a1.37,1.37,0,0,1-1.55-1.16A1.35,1.35,0,0,1,668.9,437Z"/><path class="cls-43" d="M680.87,435.41l3-.29a1.37,1.37,0,0,1,.26,2.73h0l-3,.29a1.37,1.37,0,0,1-.26-2.73Z"/><path class="cls-43" d="M692.9,434.48l3-.14a1.36,1.36,0,0,1,1.43,1.31,1.38,1.38,0,0,1-1.31,1.44h0l-3,.13a1.37,1.37,0,1,1-.13-2.74Z"/><path class="cls-43" d="M705,434.15l3,0a1.38,1.38,0,1,1,0,2.75h-3a1.39,1.39,0,0,1-1.37-1.39A1.37,1.37,0,0,1,705,434.15Z"/><path class="cls-43" d="M717,434.43l3,.17a1.38,1.38,0,0,1,1.31,1.45,1.39,1.39,0,0,1-1.46,1.31h0l-3-.17a1.37,1.37,0,0,1-1.3-1.45A1.38,1.38,0,0,1,717,434.43Z"/><path class="cls-43" d="M729.06,435.33l3,.31a1.38,1.38,0,0,1-.29,2.75h0l-3-.31a1.38,1.38,0,1,1,.29-2.75Z"/><path class="cls-43" d="M741,436.83l3,.47a1.38,1.38,0,0,1-.43,2.73h0l-3-.47a1.38,1.38,0,1,1,.43-2.73Z"/><path class="cls-43" d="M752.92,438.94l2.94.62a1.39,1.39,0,1,1-.58,2.71h0l-2.93-.62a1.38,1.38,0,1,1,.57-2.71Z"/><path class="cls-43" d="M764.68,441.66l2.9.77a1.39,1.39,0,1,1-.71,2.68h0l-2.9-.77a1.39,1.39,0,1,1,.71-2.68Z"/><path class="cls-43" d="M776.29,445l2.85.92a1.39,1.39,0,0,1-.85,2.65h0l-2.86-.92a1.39,1.39,0,1,1,.86-2.65Z"/><path class="cls-43" d="M787.7,448.9l2.8,1.07a1.4,1.4,0,1,1-1,2.61h0l-2.8-1.07a1.4,1.4,0,1,1,1-2.61Z"/><path class="cls-43" d="M798.89,453.42l2.75,1.22a1.4,1.4,0,0,1-1.14,2.56h0L797.76,456a1.4,1.4,0,0,1,1.13-2.56Z"/><path class="cls-43" d="M809.83,458.53l2.68,1.36a1.4,1.4,0,0,1-1.27,2.5h0L808.56,461a1.4,1.4,0,0,1,1.27-2.5Z"/><path class="cls-43" d="M820.48,464.22l2.6,1.5a1.4,1.4,0,0,1-1.4,2.43h0l-2.6-1.5a1.4,1.4,0,0,1,1.4-2.43Z"/><path class="cls-43" d="M830.81,470.47l2.52,1.64a1.41,1.41,0,0,1-1.54,2.36h0l-2.51-1.64a1.41,1.41,0,0,1,1.53-2.36Z"/><path class="cls-43" d="M840.79,477.26l2.43,1.75a1.41,1.41,0,0,1-1.65,2.29h0l-2.43-1.76a1.41,1.41,0,1,1,1.65-2.28Z"/><path class="cls-43" d="M850.47,484.41l2.38,1.82a1.41,1.41,0,1,1-1.71,2.25h0l-2.38-1.82a1.41,1.41,0,1,1,1.71-2.25Z"/><path class="cls-43" d="M860,491.77l2.35,1.85a1.41,1.41,0,1,1-1.74,2.23h0L858.23,494a1.41,1.41,0,1,1,1.75-2.22Z"/><path class="cls-43" d="M869.41,499.18l2.36,1.85a1.41,1.41,0,1,1-1.74,2.23h0l-2.37-1.85a1.42,1.42,0,0,1,1.75-2.23Z"/><path class="cls-43" d="M878.88,506.51l2.4,1.81a1.42,1.42,0,0,1-1.72,2.26h0l-2.39-1.81a1.42,1.42,0,1,1,1.71-2.26Z"/><path class="cls-43" d="M888.49,513.62l2.45,1.73a1.42,1.42,0,1,1-1.64,2.32h0l-2.45-1.73a1.42,1.42,0,0,1,1.64-2.32Z"/><path class="cls-43" d="M898.35,520.34l2.53,1.61a1.43,1.43,0,1,1-1.53,2.41h0l-2.53-1.61a1.43,1.43,0,0,1,1.53-2.41Z"/><path class="cls-43" d="M908.54,526.49l2.63,1.44a1.43,1.43,0,1,1-1.37,2.51h0L907.17,529a1.43,1.43,0,1,1,1.37-2.51Z"/><path class="cls-43" d="M919.13,531.84l2.75,1.2a1.43,1.43,0,1,1-1.13,2.62h0l-2.76-1.2a1.43,1.43,0,0,1,1.14-2.62Z"/><path class="cls-43" d="M930.17,536.12,933,537a1.43,1.43,0,0,1-.84,2.74h0l-2.86-.89a1.43,1.43,0,1,1,.84-2.73Z"/><path class="cls-43" d="M941.61,539l2.95.5a1.43,1.43,0,0,1-.47,2.83h0l-3-.5a1.44,1.44,0,1,1,.48-2.83Z"/><path class="cls-43" d="M953.31,540.38l3,0a1.44,1.44,0,0,1-.06,2.88h0l-3-.06a1.44,1.44,0,1,1,.06-2.87Z"/><path class="cls-43" d="M965.06,539.89l3-.41a1.44,1.44,0,0,1,.4,2.85h0l-3,.42a1.44,1.44,0,0,1-.4-2.86Z"/><path class="cls-43" d="M976.61,537.61l2.87-.85a1.44,1.44,0,1,1,.82,2.77h0l-2.87.85a1.44,1.44,0,1,1-.82-2.77Z"/><path class="cls-43" d="M987.73,533.68l2.73-1.23a1.44,1.44,0,1,1,1.19,2.63h0l-2.73,1.24a1.45,1.45,0,0,1-1.19-2.64Z"/><path class="cls-43" d="M998.25,528.31l2.55-1.57a1.45,1.45,0,1,1,1.52,2.47h0l-2.56,1.57a1.45,1.45,0,0,1-1.51-2.47Z"/><path class="cls-43" d="M1008.05,521.69l2.36-1.85a1.45,1.45,0,1,1,1.79,2.28h0l-2.36,1.85a1.45,1.45,0,0,1-1.79-2.29Z"/><path class="cls-43" d="M1017.05,514l2.15-2.1a1.45,1.45,0,1,1,2,2.08h0l-2.15,2.1a1.45,1.45,0,0,1-2-2.08Z"/><path class="cls-43" d="M1025.2,505.41l1.92-2.3a1.46,1.46,0,0,1,2.24,1.86h0l-1.92,2.31a1.46,1.46,0,0,1-2.24-1.87Z"/><path class="cls-43" d="M1032.44,496l1.69-2.48a1.46,1.46,0,1,1,2.41,1.64h0l-1.68,2.48a1.46,1.46,0,0,1-2.42-1.64Z"/><path class="cls-43" d="M1038.73,486l1.43-2.63a1.46,1.46,0,1,1,2.57,1.39h0l-1.43,2.64a1.46,1.46,0,1,1-2.57-1.4Z"/><path class="cls-43" d="M1044,475.37l1.16-2.77a1.47,1.47,0,1,1,2.7,1.14h0l-1.17,2.77a1.46,1.46,0,1,1-2.69-1.14Z"/><path class="cls-43" d="M1048.18,464.28l.88-2.86a1.47,1.47,0,1,1,2.81.86h0l-.88,2.87a1.47,1.47,0,1,1-2.81-.87Z"/><path class="cls-43" d="M1051.25,452.83l.61-2.94a1.47,1.47,0,1,1,2.88.6h0l-.62,2.94a1.47,1.47,0,1,1-2.87-.6Z"/><path class="cls-43" d="M1053.29,441.13l.36-3a1.47,1.47,0,1,1,2.92.35h0l-.36,3a1.47,1.47,0,1,1-2.92-.36Z"/><path class="cls-43" d="M1054.35,429.3l.11-3a1.48,1.48,0,1,1,3,.11h0l-.12,3a1.47,1.47,0,1,1-2.94-.12Z"/><path class="cls-43" d="M1054.46,417.42l-.11-3a1.48,1.48,0,1,1,3-.11h0l.11,3a1.48,1.48,0,1,1-3,.11Z"/><path class="cls-43" d="M1053.67,405.56l-.33-3a1.48,1.48,0,1,1,2.94-.33h0l.34,3a1.48,1.48,0,0,1-2.95.33Z"/><path class="cls-43" d="M1052,393.78l-.54-2.95a1.48,1.48,0,0,1,2.92-.54h0l.54,2.95a1.48,1.48,0,0,1-2.92.54Z"/><path class="cls-43" d="M1049.58,382.14l-.74-2.91a1.49,1.49,0,1,1,2.88-.74h0l.74,2.91a1.49,1.49,0,1,1-2.88.74Z"/><path class="cls-43" d="M1046.36,370.68l-.93-2.85a1.49,1.49,0,0,1,2.83-.93h0l.93,2.85a1.49,1.49,0,0,1-2.83.92Z"/><path class="cls-43" d="M1042.4,359.45l-1.11-2.78a1.49,1.49,0,1,1,2.77-1.11h0l1.11,2.79a1.49,1.49,0,1,1-2.77,1.1Z"/><path class="cls-43" d="M1037.73,348.5l-1.28-2.71a1.49,1.49,0,1,1,2.7-1.28h0l1.28,2.71a1.49,1.49,0,0,1-2.7,1.28Z"/><path class="cls-43" d="M1032.39,337.86l-1.45-2.62a1.5,1.5,0,1,1,2.62-1.45h0l1.45,2.63a1.49,1.49,0,1,1-2.62,1.44Z"/><path class="cls-43" d="M1026.38,327.59l-1.61-2.53a1.5,1.5,0,1,1,2.52-1.61h0l1.62,2.52a1.5,1.5,0,0,1-2.53,1.62Z"/><path class="cls-43" d="M1019.73,317.75l-1.8-2.4a1.49,1.49,0,0,1,2.37-1.79l1.81,2.39a1.51,1.51,0,0,1-.29,2.09,1.49,1.49,0,0,1-2.09-.29Z"/><path class="cls-43" d="M1012.34,308.41l-2-2.28a1.47,1.47,0,0,1,2.23-1.91l2,2.28a1.46,1.46,0,1,1-2.22,1.91Z"/><path class="cls-43" d="M1004.43,299.48l-2-2.19a1.44,1.44,0,0,1,2.1-2l2.06,2.18a1.45,1.45,0,1,1-2.11,2Z"/><path class="cls-43" d="M996.14,290.87,994,288.75a1.42,1.42,0,0,1,2-2l2.14,2.1a1.43,1.43,0,1,1-2,2Z"/><path class="cls-43" d="M987.57,282.54l-2.19-2.06a1.4,1.4,0,1,1,1.91-2l2.19,2a1.4,1.4,0,0,1-1.91,2.06Z"/><path class="cls-43" d="M978.76,274.44l-2.24-2a1.38,1.38,0,0,1,1.82-2.07l2.25,2a1.38,1.38,0,0,1-1.83,2.07Z"/><path class="cls-43" d="M969.75,266.56l-2.28-1.95a1.35,1.35,0,0,1,1.74-2.06l2.3,1.93a1.36,1.36,0,0,1-1.75,2.08Z"/><path class="cls-43" d="M960.59,258.85l-2.32-1.9a1.29,1.29,0,0,1,1.63-2l2.33,1.88a1.31,1.31,0,0,1-1.63,2Z"/><path class="cls-43" d="M951.27,251.33l-2.36-1.86a1.23,1.23,0,0,1,1.51-1.93l2.38,1.83a1.24,1.24,0,1,1-1.52,2Z"/><path class="cls-43" d="M941.8,244l-2.39-1.81a1.17,1.17,0,0,1,1.39-1.87l2.41,1.78a1.18,1.18,0,1,1-1.4,1.9Z"/><path class="cls-43" d="M932.18,236.86l-2.43-1.75a1.1,1.1,0,0,1-.25-1.54,1.11,1.11,0,0,1,1.53-.26l2.45,1.73a1.12,1.12,0,1,1-1.29,1.83Z"/><path class="cls-43" d="M922.41,229.94l-2.47-1.71a1,1,0,0,1,1.16-1.7l2.49,1.67a1,1,0,1,1-1.16,1.75Z"/><path class="cls-43" d="M912.5,223.22,910,221.58a.93.93,0,0,1,1-1.56l2.54,1.6a1,1,0,0,1-1,1.61Z"/><path class="cls-43" d="M902.4,216.79l-2.56-1.56a.83.83,0,0,1,.85-1.42l2.59,1.52a.85.85,0,0,1,.3,1.16.86.86,0,0,1-1.17.31Z"/><path class="cls-43" d="M892.09,210.71l-2.62-1.46a.72.72,0,0,1-.28-1,.73.73,0,0,1,1-.28l2.65,1.4a.73.73,0,0,1,.31,1,.74.74,0,0,1-1,.31Z"/><polygon class="cls-44" points="876.73 180.46 872.45 198.17 862.29 187.66 876.73 180.46"/><path class="cls-45" d="M799.53,151.07l37.71,53.5a4.61,4.61,0,0,0,6.56,1l52.29-39.88a1.85,1.85,0,0,0,.66-2,1.83,1.83,0,0,0-1.56-1.35Z"/><polygon class="cls-46" points="876.72 180.46 799.53 151.07 868.3 186.92 867.32 191.88 876.72 180.46"/><polygon class="cls-47" points="863.28 190.71 872.45 198.17 868.3 186.92 863.28 190.71"/><path class="cls-48" d="M432.41,149.47c-2.79-12.31,9.53-31.41,36.85-18.61.08-6,30.33-27.76,49.36,9.28,1.55-9.64,25.42-7.44,31.31,8,8.37-4.84,31.59,12.53,4,18.9-35.25,8.13-117.21,15.59-134.16-4.28S432.41,149.47,432.41,149.47Z"/><path class="cls-49" d="M590.52,177.78c-1.53-6.81,5.27-17.36,20.37-10.29.05-3.3,16.76-15.34,27.28,5.13.86-5.33,14.06-4.11,17.31,4.4,4.63-2.68,17.46,6.92,2.2,10.44-19.48,4.49-64.78,8.62-74.15-2.36S590.52,177.78,590.52,177.78Z"/><path class="cls-50" d="M364.29,312.41l3.84,61.42h-23V314.12a4,4,0,0,1,2.72-3.79c3.05-1,8.23-2.34,13.31-1.44A3.82,3.82,0,0,1,364.29,312.41Z"/><path class="cls-51" d="M393.12,312.11l-2.56,61.66h-21.8l-1.66-62.35a3.81,3.81,0,0,1,2.7-3.75c7.09-2.13,14.13-2.34,21.09.84A3.81,3.81,0,0,1,393.12,312.11Z"/><path class="cls-52" d="M387.27,354l-.17,2.15a1.19,1.19,0,0,1-1.26,1.1l-11.42-.66a1.2,1.2,0,0,1-1.13-1.11l-.11-1.48a1.2,1.2,0,0,1,1.19-1.29h11.7A1.2,1.2,0,0,1,387.27,354Z"/><path class="cls-52" d="M386.8,359.16V360a1.07,1.07,0,0,1-1.11,1.06l-10.94-.45a1.08,1.08,0,0,1-1-1.07v-.83a1.06,1.06,0,0,1,1.12-1.06l10.94.5A1.07,1.07,0,0,1,386.8,359.16Z"/><path class="cls-52" d="M371.83,312.37a2.13,2.13,0,0,1,1.65-.7l13.34.61a2.36,2.36,0,0,1,2.12,2.5l-.69,30.62a2.35,2.35,0,0,1-2.08,2.38l-11.75.76a2.15,2.15,0,0,1-1.62-.64,2.56,2.56,0,0,1-.71-1.73l-.91-32A2.63,2.63,0,0,1,371.83,312.37Z"/><path class="cls-52" d="M361.32,356.36l-.14,2.15a1.08,1.08,0,0,1-1.08,1.1l-9.74-.66a1.13,1.13,0,0,1-1-1.11l-.09-1.49a1.13,1.13,0,0,1,1-1.28h10A1.13,1.13,0,0,1,361.32,356.36Z"/><path class="cls-52" d="M360.92,361.49v.79a1,1,0,0,1-.94,1.06l-9.33-.45a1,1,0,0,1-.88-1.07V361a1,1,0,0,1,1-1.07l9.33.51A1,1,0,0,1,360.92,361.49Z"/><path class="cls-18" d="M350.51,313.91l7.61-.87a3,3,0,0,1,3.29,2.86l.91,29.5a3,3,0,0,1-.86,2.18,2.94,2.94,0,0,1-2.18.87l-7.23-.19a3,3,0,0,1-2.88-2.83L347.89,317A3,3,0,0,1,350.51,313.91Z"/><path class="cls-53" d="M314.23,312.41l3.85,61.42h-23V314.12a4,4,0,0,1,2.72-3.79c3.05-1,8.23-2.34,13.32-1.44A3.82,3.82,0,0,1,314.23,312.41Z"/><path class="cls-54" d="M343.06,312.11l-2.55,61.66H318.7l-1.65-62.35a3.8,3.8,0,0,1,2.69-3.75c7.09-2.13,14.13-2.34,21.09.84A3.78,3.78,0,0,1,343.06,312.11Z"/><path class="cls-52" d="M337.21,354l-.16,2.15a1.2,1.2,0,0,1-1.27,1.1l-11.42-.66a1.21,1.21,0,0,1-1.13-1.11l-.11-1.48a1.2,1.2,0,0,1,1.2-1.29H336A1.19,1.19,0,0,1,337.21,354Z"/><path class="cls-52" d="M336.74,359.16V360a1.06,1.06,0,0,1-1.11,1.06l-10.94-.45a1.07,1.07,0,0,1-1-1.07v-.83a1.06,1.06,0,0,1,1.11-1.06l11,.5A1.07,1.07,0,0,1,336.74,359.16Z"/><path class="cls-52" d="M321.78,312.37a2.1,2.1,0,0,1,1.64-.7l13.35.61a2.36,2.36,0,0,1,2.11,2.5l-.68,30.62a2.36,2.36,0,0,1-2.08,2.38l-11.75.76a2.13,2.13,0,0,1-1.62-.64,2.57,2.57,0,0,1-.72-1.73l-.91-32A2.59,2.59,0,0,1,321.78,312.37Z"/><path class="cls-52" d="M311.27,356.36l-.14,2.15a1.1,1.1,0,0,1-1.08,1.1l-9.74-.66a1.13,1.13,0,0,1-1-1.11l-.1-1.49a1.14,1.14,0,0,1,1-1.28h10A1.14,1.14,0,0,1,311.27,356.36Z"/><path class="cls-52" d="M310.87,361.49v.79a1,1,0,0,1-.95,1.06l-9.33-.45a1,1,0,0,1-.87-1.07V361a1,1,0,0,1,.95-1.07l9.33.51A1,1,0,0,1,310.87,361.49Z"/><path class="cls-18" d="M300.46,313.91l7.6-.87a3,3,0,0,1,3.3,2.86l.9,29.5a3,3,0,0,1-3,3.05l-7.23-.19a3,3,0,0,1-2.88-2.83L297.84,317A3,3,0,0,1,300.46,313.91Z"/><rect class="cls-55" x="276" y="370" width="134" height="9" rx="3.26"/><path class="cls-56" d="M684.24,687c7.12.62,19.48,1.62,29.23,2,5.86.26,9.23-.32,11.17-1.09,0,.21,0,.42,0,.61a2,2,0,0,1-1.91,1.91,344,344,0,0,1-38.28,0,1.43,1.43,0,0,1-1.16-2.16A11.77,11.77,0,0,1,684.24,687Z"/><path class="cls-57" d="M713.47,689c-9.75-.43-22.11-1.43-29.23-2,7-8.59,29.23-14.38,29.23-14.38h6.28a26.37,26.37,0,0,1,4.89,15.34C722.7,688.69,719.33,689.27,713.47,689Z"/><path class="cls-58" d="M720.8,662.33,720.22,674a2.67,2.67,0,0,1-2.27,2.5,10.39,10.39,0,0,1-4.72-.4,3.13,3.13,0,0,1-2.11-2.41l-2-11.32Z"/><path class="cls-59" d="M793.66,700.38a6.16,6.16,0,0,0,5.08-4.85v.06A5.52,5.52,0,0,1,796,701.5a14.07,14.07,0,0,1-7.49,1.52,6.94,6.94,0,0,1-5.61-3.35l0,0C785.25,701.13,788.51,701.3,793.66,700.38Z"/><path class="cls-60" d="M779.1,665.92h5.18c7.88-.21,12.84,21.28,14.46,29.61a6.16,6.16,0,0,1-5.08,4.85c-5.15.92-8.41.75-10.74-.74-4.26-7.25-6.37-17.86-7.39-24C774.38,668.55,779.1,665.92,779.1,665.92Z"/><path class="cls-61" d="M783.61,655.12l2.88,11.44a3.11,3.11,0,0,1-1.62,3.52,11.07,11.07,0,0,1-6,1.44,2.61,2.61,0,0,1-2.12-1.73l-4.22-12Z"/><path class="cls-62" d="M682.48,504.53S708.17,665.12,707.75,666a21.34,21.34,0,0,0,14.83.41s-2.32-85.84-7.76-118.76c0,0,43.84,76.73,57.76,115a34.71,34.71,0,0,0,13.28-4.82s-47.21-138.11-59.81-156.5Z"/><path class="cls-63" d="M713.79,547.06a1,1,0,0,1-.85-.47l-9.37-15-6.64-1.34a1,1,0,1,1,.39-2l7.07,1.42a1,1,0,0,1,.65.45l9.6,15.34a1,1,0,0,1-.32,1.38A1,1,0,0,1,713.79,547.06Z"/><path class="cls-64" d="M564.59,347.28s17.34,3.83,27.88,8.69a9.61,9.61,0,0,1,4.72,4.75c3.15,6.9,12.59,24.23,30.88,32.49-2.63,3.5-6.88,10.77-8.72,23-11-8.18-20.48-21.84-25-44.24a8.9,8.9,0,0,1-7.79-.22,79.1,79.1,0,0,1-6.91-3.92,9,9,0,0,1-4-5.39c-.76-3-.31-5.56-.31-8.35l-8.91-2.76A3.18,3.18,0,0,1,564.59,347.28Z"/><path class="cls-65" d="M619.35,416.21c1.84-12.23,6.09-19.5,8.72-23,11.37,5.14,26.15,6.78,45,.25a20.21,20.21,0,0,1,5.38-1.06c10-.58,43.06-1.66,70.39,7.37a21.25,21.25,0,0,1,12.81,11.67c7.39,17,19.36,55.6-13.87,75.11a82.08,82.08,0,0,0-8-15.18c5.35-9,6.94-21.35-2.56-37.41-6.92,18.7-10.17,46-10.85,58.05a26,26,0,0,0,2,11.62l.17.4a1.37,1.37,0,0,1-1,1.87c-18.71,4.21-38.16,3.06-44,2.58a2.37,2.37,0,0,1-2.13-1.83c-9.1-38.33-9.12-64.47-6.89-81C666.06,427.55,640,431.61,619.35,416.21Z"/><path class="cls-66" d="M674.53,427h-.15a1.11,1.11,0,0,1-1-1.24c2.2-16.6,6.62-23.71,6.81-24a1.11,1.11,0,0,1,1.87,1.19c-.05.07-4.36,7.07-6.48,23.11A1.12,1.12,0,0,1,674.53,427Z"/><path class="cls-67" d="M720.69,370.08s1.9,20,3.56,25.92a2,2,0,0,1-1,2.31c-2.83,1.62-9.61,4.26-18.89-.29a4.21,4.21,0,0,1-2.33-4l.81-19.34Z"/><path class="cls-68" d="M702.48,344.48s-6.05,13.9-6.45,21.2-2,12,6.45,13.5,15.55-2.73,19.4-10c0,0,6-11.2,4.68-15.79S702.48,344.48,702.48,344.48Z"/><path class="cls-69" d="M719,364l-.48-.21a1.17,1.17,0,0,1-.57-1.59c1.19-2.3,3.51-7.57.52-8.8-3.87-1.58-19.16-4.7-22.47-10.13-3.17-5.22-.36-12,3.87-13.87a.6.6,0,0,1,.76.25l.35.67a.58.58,0,0,0,1.06-.11h0a.57.57,0,0,1,1-.15c1,1.63,3.75,4.26,11.08,5.61,10.41,1.92,17.29,6.13,17.46,13.33a.58.58,0,0,0,.89.47c.77-.47,2-.69,3.64.7,2.86,2.4,1.69,8.64-4.57,13.76a.57.57,0,0,0,0,.92c1.14.74,2.83,2.5-1.56,4.85s-7.93,2.23-9.23,2a.57.57,0,0,1-.46-.69l1.39-6.32a.57.57,0,0,0-.56-.7Z"/><path class="cls-70" d="M718.74,365.29s2.31-8.89,6.29-6.4-2.07,10-5.27,10.29Z"/><path class="cls-71" d="M589.69,370.15a1,1,0,0,1-.78-.37c-2.49-3.07-6.73-7.93-8.21-8.77a4.12,4.12,0,0,1-2.25-2.5A3.18,3.18,0,0,1,579,356a1,1,0,0,1,1-.42l7.57,1.52a1,1,0,0,1,.45.22l4,3.45a1,1,0,0,1-1.31,1.52L587,359l-6.57-1.32a.55.55,0,0,0,0,.38c.08.37.54.8,1.28,1.22,2.28,1.29,8.13,8.43,8.79,9.24a1,1,0,0,1-.78,1.64Z"/><path class="cls-72" d="M718.91,500.21l-27.32-.59s23.82-6.73,25.3-4.9c0,0,14.76-9.7,22.85-23.35a82.08,82.08,0,0,1,8,15.18C740.51,490.81,731,498.2,718.91,500.21Z"/><path class="cls-73" d="M719.68,495.48s.56,10.89-13.73,9.31c-7.76-.86-20.29-8.1-20.29-8.1S718.33,496.6,719.68,495.48Z"/><path class="cls-74" d="M714.08,498.4h-.15L646,498.33a3,3,0,1,1,0-6l67.91.07a3,3,0,0,1,.15,6Z"/><path class="cls-75" d="M585,437.39h56.56a10.78,10.78,0,0,1,9.75,6.12l26.15,54.86H607.13a6.54,6.54,0,0,1-6.09-4.1L580.76,443.5A4.47,4.47,0,0,1,585,437.39Z"/><path class="cls-76" d="M624.81,465.52c1.22,3.77.32,7.43-2,8.17s-5.24-1.7-6.47-5.47-.32-7.43,2-8.17S623.58,461.75,624.81,465.52Z"/><path class="cls-77" d="M1041.53,326.8l3.85,61.41h-23v-59.7a4,4,0,0,1,2.72-3.79c3-1,8.22-2.34,13.31-1.44A3.82,3.82,0,0,1,1041.53,326.8Z"/><path class="cls-78" d="M1070.36,326.5l-2.55,61.65H1046l-1.65-62.34a3.82,3.82,0,0,1,2.69-3.76c7.09-2.13,14.13-2.34,21.09.84A3.8,3.8,0,0,1,1070.36,326.5Z"/><path class="cls-52" d="M1064.51,368.41l-.16,2.15a1.2,1.2,0,0,1-1.27,1.11l-11.42-.67a1.2,1.2,0,0,1-1.13-1.1l-.11-1.49a1.21,1.21,0,0,1,1.2-1.29h11.7A1.19,1.19,0,0,1,1064.51,368.41Z"/><path class="cls-52" d="M1064,373.55v.79a1.07,1.07,0,0,1-1.11,1.06l-10.94-.46a1.06,1.06,0,0,1-1-1.06v-.83a1.07,1.07,0,0,1,1.11-1.07l11,.51A1.05,1.05,0,0,1,1064,373.55Z"/><path class="cls-52" d="M1049.08,326.76a2.06,2.06,0,0,1,1.64-.7l13.35.61a2.36,2.36,0,0,1,2.11,2.5l-.68,30.62a2.34,2.34,0,0,1-2.08,2.37l-11.75.76a2.09,2.09,0,0,1-1.62-.63,2.59,2.59,0,0,1-.72-1.73l-.91-32A2.61,2.61,0,0,1,1049.08,326.76Z"/><path class="cls-52" d="M1038.57,370.74l-.14,2.15a1.11,1.11,0,0,1-1.08,1.11l-9.74-.67a1.12,1.12,0,0,1-1-1.11l-.1-1.48a1.14,1.14,0,0,1,1-1.29h10A1.13,1.13,0,0,1,1038.57,370.74Z"/><path class="cls-52" d="M1038.17,375.88v.78a1,1,0,0,1-1,1.07l-9.33-.46a1,1,0,0,1-.87-1.06v-.84a1,1,0,0,1,1-1.06l9.33.5A1,1,0,0,1,1038.17,375.88Z"/><path class="cls-18" d="M1027.76,328.3l7.6-.87a3,3,0,0,1,3.3,2.85l.9,29.51a3,3,0,0,1-3,3l-7.23-.2a2.94,2.94,0,0,1-2.87-2.83l-1.28-28.43A3,3,0,0,1,1027.76,328.3Z"/><path class="cls-79" d="M991.48,326.8l3.84,61.41h-23v-59.7a4,4,0,0,1,2.72-3.79c3.05-1,8.23-2.34,13.31-1.44A3.82,3.82,0,0,1,991.48,326.8Z"/><path class="cls-80" d="M1020.31,326.5l-2.56,61.65H996l-1.66-62.34a3.83,3.83,0,0,1,2.69-3.76c7.09-2.13,14.14-2.34,21.1.84A3.83,3.83,0,0,1,1020.31,326.5Z"/><path class="cls-52" d="M1014.46,368.41l-.17,2.15a1.2,1.2,0,0,1-1.26,1.11L1001.6,371a1.19,1.19,0,0,1-1.12-1.1l-.11-1.49a1.19,1.19,0,0,1,1.19-1.29h11.7A1.21,1.21,0,0,1,1014.46,368.41Z"/><path class="cls-52" d="M1014,373.55v.79a1.07,1.07,0,0,1-1.11,1.06l-11-.46a1.06,1.06,0,0,1-1-1.06v-.83A1.07,1.07,0,0,1,1002,372l10.94.51A1.06,1.06,0,0,1,1014,373.55Z"/><path class="cls-52" d="M999,326.76a2.08,2.08,0,0,1,1.65-.7l13.34.61a2.37,2.37,0,0,1,2.12,2.5l-.69,30.62a2.33,2.33,0,0,1-2.08,2.37l-11.75.76a2.1,2.1,0,0,1-1.62-.63,2.53,2.53,0,0,1-.71-1.73l-.91-32A2.6,2.6,0,0,1,999,326.76Z"/><path class="cls-52" d="M988.51,370.74l-.14,2.15a1.1,1.1,0,0,1-1.08,1.11l-9.74-.67a1.12,1.12,0,0,1-1-1.11l-.09-1.48a1.13,1.13,0,0,1,1-1.29h10A1.13,1.13,0,0,1,988.51,370.74Z"/><path class="cls-52" d="M988.11,375.88v.78a1,1,0,0,1-1,1.07l-9.33-.46a1,1,0,0,1-.87-1.06v-.84a1,1,0,0,1,.95-1.06l9.33.5A1,1,0,0,1,988.11,375.88Z"/><path class="cls-18" d="M977.7,328.3l7.6-.87a3,3,0,0,1,2.28.7,2.92,2.92,0,0,1,1,2.15l.91,29.51a3,3,0,0,1-.87,2.18,2.94,2.94,0,0,1-2.17.87l-7.23-.2a3,3,0,0,1-2.88-2.83l-1.28-28.43A3,3,0,0,1,977.7,328.3Z"/><rect class="cls-81" x="954" y="384" width="134" height="9" rx="3.26"/><path class="cls-82" d="M964,553.84l83.63,10.43,11.21-90a8.59,8.59,0,0,0-7.46-9.59l-66.58-8.3a8.59,8.59,0,0,0-9.58,7.47Z"/><path class="cls-83" d="M1051,464.67l.3,0a8.59,8.59,0,0,1,7.46,9.59l-10.75,86.25-17.34-2.16,10.75-86.26A8.59,8.59,0,0,1,1051,464.67Z"/><rect class="cls-84" x="959.9" y="610.34" width="7.81" height="84.47"/><path class="cls-85" d="M998,696.45H929.6v-2.38a2.71,2.71,0,0,1,2.71-2.71H995.1a2.92,2.92,0,0,1,2.92,2.92Z"/><rect class="cls-86" x="919.54" y="590.23" width="91.42" height="25.93" rx="8.93"/><path class="cls-87" d="M923.65,666.38l3.65,10.54a3.66,3.66,0,0,1-1.42,4.3,9.54,9.54,0,0,1-3,1.17,4.26,4.26,0,0,1-4.72-2.14L913.77,672Z"/><path class="cls-88" d="M959.15,571.47s-45.82,7.94-65.47,26.1,18,76.07,18,76.07,6.17,0,13.66-6.46c0,0-22.35-43.55-3.09-56.25,21.65-14.28,46.61-17.5,46.61-17.5l-9.31-20.56Z"/><path class="cls-89" d="M937.44,683.8c-.05,1.35-2.81,6-4.43,8.58a4.2,4.2,0,0,1-3.56,2,11.16,11.16,0,0,1-3-.35,2.74,2.74,0,0,1-1.84-3.4l3.16-10.78Z"/><path class="cls-90" d="M1003.25,557.72s10.17,27.21,0,35.48-34.45,17.59-39.87,34.07-14.62,48.5-26.94,59.85c0,0-8.65-.84-11.89-4.29,0,0,7-47.81,11.64-60.08,4-10.62,9.91-26,21.22-34.52,3.24-2.46,2.67-6.34,1.17-10.12l-2.73-6.87Z"/><path class="cls-91" d="M897.13,536.4c17.06,1,11.75-26.23,11.44-27.31l25.89,18.29s-1.37,14.57-22.9,22.22a26.73,26.73,0,0,1-14.82,1.07A23.6,23.6,0,0,0,897.13,536.4Z"/><path class="cls-92" d="M864.15,528.2c6.35-4.43,13.56,0,13.56,0,8.5,5.55,14.78,7.92,19.42,8.2a23.6,23.6,0,0,1-.39,14.27c-9.52-2-16.34-8.94-19.3-12.47a3.06,3.06,0,0,0-4.25-.47c-1.33,1-2.61,2.48-2.38,4,.46,3-3,3.92-3.25,2.84s1.18-7.46,1.18-7.46-6.89,6.93-9.58,9.59-6.08,0-6.08,0S857.79,532.62,864.15,528.2Z"/><path class="cls-93" d="M976.68,467s-24.82-9.94-71,28.19c0,0-3.86,8,.35,15.1s44.31,41.74,49.83,60.95c0,0,23.89,7.76,48.6-10.65C1004.45,560.59,1002.27,507.14,976.68,467Z"/><path class="cls-94" d="M927.62,458.13l12.21,14.81a4.87,4.87,0,0,1,.65,5.23c-1.7,3.46-5.72,8.49-14.65,7.8a7.5,7.5,0,0,1-6.16-4.21l-8.55-17.66Z"/><path class="cls-95" d="M995.9,530.43c2.88-11.73-26.31-37.89-26.31-37.89L976.68,467s63,41.95,47,75.69a24.59,24.59,0,0,1-8.91,10.49C1009.66,539.52,1001.57,533.25,995.9,530.43Z"/><path class="cls-96" d="M995.92,528.72a.69.69,0,0,0,.67-.52c2.94-12-25.31-37.49-26.52-38.57a.68.68,0,0,0-1,.05.7.7,0,0,0,0,1c.29.25,28.85,26,26.1,37.21a.7.7,0,0,0,.5.84Z"/><path class="cls-97" d="M951.69,529.42s34.6,13.44,43,3.33a5.65,5.65,0,0,0,1.16-2.32c5.67,2.82,13.76,9.09,18.83,22.75-18.19,11.62-49.3-6.47-57.71-11.81a6.28,6.28,0,0,0-4.65-.85c-3.24.67-8.85,1.66-11.87,1.19-4.42-.68-10.77,14.92-17.94,10.11C922.56,551.82,928.7,524.71,951.69,529.42Z"/><path class="cls-98" d="M907.19,433.34c-.3.39-10.13,31.38-10.13,31.38L914.88,470l13.68-28S912.18,426.79,907.19,433.34Z"/><path class="cls-99" d="M921.62,446l-6,15.3a2.43,2.43,0,0,1-.31.54c-.78,1-3.73,4.37-7,1.14-2.93-2.92-5.65-5.55-8.24-6.1a2.3,2.3,0,0,0-2.67,1.55,99.69,99.69,0,0,0-3.58,15,2.29,2.29,0,0,0,1.77,2.54c3.49.8,10.89,2.27,17.13,2.07a2.3,2.3,0,0,0,2-1.27c1.85-3.68,7.52-14.84,9.58-17.71,1.94-2.69,6.43-2.45,8.31-2.21a2.25,2.25,0,0,0,1.71-.49c1.7-1.39,5-5,.73-9.54a2.31,2.31,0,0,1,.17-3.31c2-1.71,4.11-4.79,1.09-8.83s-7.32-3.63-9.95-2.78a2.3,2.3,0,0,1-2.73-1.12,1.82,1.82,0,0,0-1.84-.95,2.26,2.26,0,0,1-2.33-2.4c.14-2.55-.65-5.81-5-7.36-7.76-2.73-12.94,4.68-13.64,10.32s7.9,8.14,13,7.94c3.88-.14,6.62,3.81,7.71,5.71A2.27,2.27,0,0,1,921.62,446Z"/><path class="cls-100" d="M922,464.64s1.63-9.79,5.74-10.12,8,3.18,3.69,8.55C926.15,469.75,922,464.64,922,464.64Z"/><path class="cls-101" d="M934,555.91h-.17l-72.6-.08a3.25,3.25,0,1,1,0-6.5l72.6.08a3.25,3.25,0,0,1,.16,6.49Z"/><path class="cls-102" d="M795.94,490H856.4a11.51,11.51,0,0,1,10.42,6.61l27.95,59.27H819.64a7,7,0,0,1-6.52-4.43L791.45,496.6A4.82,4.82,0,0,1,795.94,490Z"/><path class="cls-103" d="M838.53,520.39c1.31,4.07.35,8-2.16,8.83s-5.6-1.84-6.91-5.91-.34-8,2.17-8.83S837.22,516.32,838.53,520.39Z"/><path class="cls-104" d="M1032.25,535.46H991.76v-8.1h40.49C1031.38,527.36,1031.38,535.46,1032.25,535.46Z"/><path class="cls-105" d="M991.76,533.43v-3.71a2.14,2.14,0,0,1,1.79-2.36h38.53a1.4,1.4,0,0,0,1.4-1.41.42.42,0,0,0-.42-.42H991c-1,0-2.5,1.51-2.5,3.39v5.18c0,1.76,1.49,3.19,2.4,3.19h42a.65.65,0,0,0,.64-.65,1.18,1.18,0,0,0-1.18-1.18h-39A1.84,1.84,0,0,1,991.76,533.43Z"/><path class="cls-21" d="M1030.85,530h-38a1,1,0,1,1,0-2h38a1,1,0,0,1,0,2Z"/><path class="cls-21" d="M1030.85,531.22h-38a1,1,0,0,1,0-2h38a1,1,0,0,1,0,2Z"/><path class="cls-21" d="M1030.85,532.43h-38a1,1,0,0,1,0-2h38a1,1,0,0,1,0,2Z"/><path class="cls-21" d="M1030.85,533.63h-38a1,1,0,0,1,0-2h38a1,1,0,0,1,0,2Z"/><path class="cls-21" d="M1030.85,534.83h-38a1,1,0,0,1,0-2h38a1,1,0,0,1,0,2Z"/><rect class="cls-106" x="968.73" y="537.18" width="73.09" height="17.64" rx="3.41"/><path class="cls-21" d="M1032.41,553.3h-6.28a1.66,1.66,0,0,1-1.65-1.66V540.36a1.65,1.65,0,0,1,1.65-1.65h6.28a1.65,1.65,0,0,1,1.65,1.65v11.28A1.66,1.66,0,0,1,1032.41,553.3Zm-6.28-13.59a.65.65,0,0,0-.65.65v11.28a.66.66,0,0,0,.65.66h6.28a.66.66,0,0,0,.65-.66V540.36a.65.65,0,0,0-.65-.65Z"/><path class="cls-21" d="M1022.77,553.3h-1.34a1.45,1.45,0,0,1-1.44-1.44V540.15a1.44,1.44,0,0,1,1.44-1.44h1.34a1.43,1.43,0,0,1,1.44,1.44v11.71A1.44,1.44,0,0,1,1022.77,553.3Zm-1.34-13.59a.44.44,0,0,0-.44.44v11.71a.44.44,0,0,0,.44.44h1.34a.44.44,0,0,0,.44-.44V540.15a.44.44,0,0,0-.44-.44Z"/><path class="cls-107" d="M1081,569V700.72a4.36,4.36,0,0,1-4.27,4.28H784.79c-2.29,0-4.79-2-4.79-4.28V569Z"/><path class="cls-108" d="M978,569V700.72c0,2.3-2.59,4.28-4.89,4.28H780V569Z"/><path class="cls-109" d="M1082.83,559.06a3.39,3.39,0,0,0-.63-2.66,3,3,0,0,0-2.33-1.18H774.66a3.43,3.43,0,0,0-2.93,1.72,3.9,3.9,0,0,0-.23,3.55l3.31,7.64A4.63,4.63,0,0,0,779,571h298.77a3.57,3.57,0,0,0,3.44-3Z"/><path class="cls-110" d="M1090.27,554.91a4.32,4.32,0,0,1,3.21,1.38,3.92,3.92,0,0,1,1,3.22l-1.12,7.84a4.32,4.32,0,0,1-4.2,3.65H986.81l-.15-15.64Z"/><path class="cls-111" d="M665.75,352.94S556,298.71,591.89,258.79s102.81-24,106.2,18S620,309,665.75,352.94Z"/><path class="cls-21" d="M649.62,270.1H601.18a1,1,0,0,1,0-2h48.44a1,1,0,0,1,0,2Z"/><path class="cls-21" d="M678.37,270.1H664a1,1,0,0,1,0-2h14.37a1,1,0,0,1,0,2Z"/><path class="cls-21" d="M617.73,279.9H599.54a1,1,0,0,1,0-2h18.19a1,1,0,0,1,0,2Z"/><path class="cls-21" d="M676.74,279.9H644.42a1,1,0,0,1,0-2h32.32a1,1,0,0,1,0,2Z"/><path class="cls-21" d="M646.26,289.71H597.91a1,1,0,0,1,0-2h48.35a1,1,0,0,1,0,2Z"/><path class="cls-21" d="M675.11,289.71H658.37a1,1,0,0,1,0-2h16.74a1,1,0,0,1,0,2Z"/><path class="cls-112" d="M221,309.24a3.1,3.1,0,0,1-.73-.09l-17-4a3.18,3.18,0,0,1-2.44-2.79L199.48,289a64.89,64.89,0,0,1-15.4-11.07l-13.1,3a3.18,3.18,0,0,1-3.42-1.44l-9.18-14.82a3.19,3.19,0,0,1,.23-3.7l8.49-10.4a65.65,65.65,0,0,1-3-18.72l-11.36-7.17a3.2,3.2,0,0,1-1.41-3.44l4-17a3.18,3.18,0,0,1,2.79-2.44l13.37-1.36a64.85,64.85,0,0,1,11.06-15.4l-3-13.1a3.19,3.19,0,0,1,1.43-3.42l14.82-9.18a3.19,3.19,0,0,1,3.7.24l10.41,8.48a65.59,65.59,0,0,1,18.72-3l7.17-11.36a3.21,3.21,0,0,1,3.43-1.41l17,4a3.19,3.19,0,0,1,2.45,2.79L260,172.4a65.54,65.54,0,0,1,15.4,11.06l13.1-3a3.21,3.21,0,0,1,3.42,1.43l9.18,14.82a3.19,3.19,0,0,1-.24,3.7l-8.49,10.41a64.9,64.9,0,0,1,3.05,18.72l11.37,7.17a3.19,3.19,0,0,1,1.4,3.43l-4,17a3.2,3.2,0,0,1-2.79,2.45L288,261A65.3,65.3,0,0,1,277,276.36l3,13.1a3.2,3.2,0,0,1-1.44,3.42l-14.82,9.18a3.19,3.19,0,0,1-3.7-.24l-10.41-8.49a64.83,64.83,0,0,1-18.71,3.05l-7.18,11.37A3.19,3.19,0,0,1,221,309.24Zm-16.22-7.83,15.85,3.72,8-12.74h1.14a61.2,61.2,0,0,0,19.56-3.19l1.05-.36,11.66,9.52,13.85-8.58-3.32-14.68.78-.78A61.51,61.51,0,0,0,285,258.19l.49-1,15-1.52,3.73-15.85-12.74-8v-1.1a61.27,61.27,0,0,0-3.19-19.61l-.36-1,9.52-11.67-8.58-13.84-14.68,3.32-.78-.78a61.06,61.06,0,0,0-16.13-11.59l-1-.49-1.52-15-15.85-3.72-8,12.74h-1.15a61.2,61.2,0,0,0-19.56,3.19l-1.05.35-11.66-9.51-13.84,8.58,3.32,14.68-.78.78a60.74,60.74,0,0,0-11.59,16.13l-.49,1-15,1.53-3.72,15.85,12.74,8v1.1a61.17,61.17,0,0,0,3.2,19.6l.35,1.05L162.08,263l8.57,13.84,14.69-3.32.77.78a61.4,61.4,0,0,0,16.14,11.59l1,.49Zm25.41-26.6A44.07,44.07,0,0,1,192.64,254a44.7,44.7,0,0,1-4.07-8.45,2,2,0,0,1,3.77-1.34,40.59,40.59,0,0,0,3.7,7.69,40,40,0,1,0-1.54-39.5,2,2,0,0,1-3.55-1.83,44.07,44.07,0,1,1,39.22,64.28Z"/><path class="cls-112" d="M229.72,248.18a17.16,17.16,0,1,1,.3,0Zm0-31a13.48,13.48,0,0,0-9.37,23.16h0a13.48,13.48,0,1,0,9.37-23.16Z"/><path class="cls-112" d="M151.54,196.81a.46.46,0,0,1-.2-.05.5.5,0,0,1-.26-.66q.51-1.14,1-2.28a.49.49,0,0,1,.66-.24.5.5,0,0,1,.24.67c-.36.75-.7,1.5-1,2.26A.53.53,0,0,1,151.54,196.81Z"/><path class="cls-112" d="M309.9,201.71a.51.51,0,0,1-.47-.33c-.57-1.56-1.19-3.11-1.85-4.62a.5.5,0,1,1,.91-.4c.67,1.53,1.3,3.1,1.88,4.67a.5.5,0,0,1-.3.64A.35.35,0,0,1,309.9,201.71Zm-4-9.18a.49.49,0,0,1-.44-.27c-.75-1.48-1.56-2.95-2.39-4.38a.5.5,0,0,1,.86-.5c.85,1.44,1.66,2.93,2.42,4.42a.5.5,0,0,1-.22.67A.49.49,0,0,1,305.9,192.53Zm-151-2.45a.53.53,0,0,1-.24-.06.51.51,0,0,1-.2-.68c.81-1.47,1.67-2.93,2.56-4.34a.49.49,0,0,1,.69-.16.51.51,0,0,1,.16.69c-.88,1.4-1.73,2.84-2.53,4.29A.51.51,0,0,1,154.86,190.08Zm146-6.19a.51.51,0,0,1-.42-.23c-.91-1.37-1.88-2.74-2.88-4.06a.5.5,0,0,1,.1-.7.51.51,0,0,1,.7.1c1,1.34,2,2.72,2.91,4.11a.49.49,0,0,1-.13.69A.51.51,0,0,1,300.85,183.89Zm-140.66-2.28a.46.46,0,0,1-.29-.1.5.5,0,0,1-.11-.69c1-1.36,2-2.71,3.05-4a.49.49,0,0,1,.7-.08.51.51,0,0,1,.07.71c-1,1.28-2.05,2.62-3,4A.52.52,0,0,1,160.19,181.61Zm134.62-5.71a.49.49,0,0,1-.38-.18c-1.06-1.25-2.19-2.5-3.33-3.69a.5.5,0,0,1,0-.71.5.5,0,0,1,.71,0c1.16,1.21,2.29,2.46,3.37,3.73a.51.51,0,0,1-.05.71A.52.52,0,0,1,294.81,175.9Zm-128.33-2.08a.46.46,0,0,1-.33-.13.5.5,0,0,1,0-.71c.62-.67,1.25-1.35,1.89-2s1.06-1.09,1.6-1.62a.51.51,0,0,1,.71.72c-.54.52-1.07,1.06-1.59,1.6s-1.26,1.31-1.87,2A.5.5,0,0,1,166.48,173.82Zm121.41-5.16a.5.5,0,0,1-.34-.13c-1.21-1.13-2.47-2.23-3.74-3.28a.52.52,0,0,1-.07-.71.51.51,0,0,1,.71-.06c1.28,1.06,2.55,2.18,3.78,3.32a.5.5,0,0,1-.34.86Zm-114.26-1.85a.52.52,0,0,1-.38-.17.51.51,0,0,1,.05-.71c1.26-1.1,2.57-2.18,3.89-3.2a.5.5,0,1,1,.61.79c-1.3,1-2.6,2.08-3.84,3.16A.48.48,0,0,1,173.63,166.81Zm106.55-4.53a.55.55,0,0,1-.3-.09c-1.32-1-2.7-1.93-4.09-2.83a.5.5,0,0,1,.54-.84c1.41.91,2.8,1.87,4.15,2.86a.5.5,0,0,1,.1.7A.51.51,0,0,1,280.18,162.28Zm-98.63-1.61a.51.51,0,0,1-.42-.21.52.52,0,0,1,.13-.7c1.38-.94,2.81-1.86,4.24-2.72a.5.5,0,0,1,.52.86c-1.42.85-2.83,1.75-4.19,2.69A.5.5,0,0,1,181.55,160.67Zm90.23-3.82a.47.47,0,0,1-.25-.07c-1.43-.81-2.91-1.59-4.4-2.32a.5.5,0,0,1,.44-.9c1.51.74,3,1.53,4.46,2.35a.49.49,0,0,1,.18.68A.49.49,0,0,1,271.78,156.85Zm-81.65-1.34a.49.49,0,0,1-.44-.26.5.5,0,0,1,.21-.68c1.48-.77,3-1.52,4.53-2.2a.49.49,0,0,1,.66.25.5.5,0,0,1-.25.66c-1.51.68-3,1.41-4.48,2.18A.46.46,0,0,1,190.13,155.51Zm72.67-3.07a.48.48,0,0,1-.2,0c-1.52-.64-3.08-1.24-4.64-1.79a.51.51,0,0,1-.31-.64.5.5,0,0,1,.64-.3c1.58.55,3.16,1.16,4.7,1.81a.5.5,0,0,1,.27.65A.51.51,0,0,1,262.8,152.44Zm-63.54-1a.51.51,0,0,1-.47-.32.49.49,0,0,1,.29-.64c1.56-.6,3.16-1.16,4.76-1.66a.51.51,0,0,1,.63.33.5.5,0,0,1-.33.62c-1.58.5-3.16,1.05-4.7,1.64Zm54.1-2.28-.14,0c-1.59-.46-3.21-.87-4.82-1.23a.5.5,0,0,1,.22-1c1.62.37,3.27.79,4.87,1.25a.5.5,0,0,1,.35.62A.51.51,0,0,1,253.36,149.12Zm-44.55-.73a.5.5,0,0,1-.12-1c1.62-.41,3.27-.78,4.91-1.09a.51.51,0,0,1,.59.4.5.5,0,0,1-.4.58c-1.62.31-3.26.67-4.86,1.08Zm34.78-1.46h-.08c-1.63-.27-3.29-.49-4.93-.66a.5.5,0,1,1,.1-1c1.66.17,3.34.39,5,.66a.5.5,0,0,1-.08,1Zm-25-.41a.5.5,0,0,1-.06-1c1.66-.22,3.34-.39,5-.51a.49.49,0,0,1,.53.46.5.5,0,0,1-.46.54c-1.65.12-3.31.28-4.95.5Zm15-.63h0c-1.64-.07-3.31-.1-5-.08h0a.49.49,0,0,1-.5-.49.5.5,0,0,1,.49-.51c1.68,0,3.37,0,5,.08a.5.5,0,0,1,0,1Z"/><path class="cls-112" d="M312.18,208.9a.5.5,0,0,1-.48-.37c-.21-.8-.44-1.6-.68-2.39a.5.5,0,0,1,.33-.62.51.51,0,0,1,.63.33c.24.81.47,1.61.69,2.42a.5.5,0,0,1-.36.61Z"/><path class="cls-112" d="M303.51,274.26a.45.45,0,0,1-.25-.07.49.49,0,0,1-.18-.68c.42-.72.82-1.44,1.22-2.17a.5.5,0,0,1,.88.48c-.4.74-.82,1.47-1.24,2.19A.5.5,0,0,1,303.51,274.26Z"/><path class="cls-112" d="M230.05,316.6a.5.5,0,0,1-.5-.49.52.52,0,0,1,.5-.51c1.63,0,3.28-.06,4.9-.15a.5.5,0,1,1,.06,1c-1.64.1-3.31.16-4.95.16Zm-4.92-.12h0c-1.65-.09-3.31-.22-4.94-.41a.5.5,0,0,1-.44-.55.51.51,0,0,1,.55-.44c1.61.18,3.26.32,4.88.4a.51.51,0,0,1,.48.53A.5.5,0,0,1,225.13,316.48Zm14.75-.48a.49.49,0,0,1-.49-.44.5.5,0,0,1,.44-.55c1.61-.2,3.24-.44,4.84-.72a.49.49,0,0,1,.58.4.5.5,0,0,1-.4.58c-1.62.29-3.27.54-4.91.73Zm-24.54-.61h-.09c-1.62-.27-3.25-.6-4.86-1a.49.49,0,0,1-.37-.6.5.5,0,0,1,.6-.37c1.58.36,3.2.69,4.8,1a.5.5,0,0,1-.08,1Zm34.25-1.11a.5.5,0,0,1-.49-.39.5.5,0,0,1,.37-.6c1.58-.38,3.18-.8,4.73-1.27a.49.49,0,0,1,.62.33.51.51,0,0,1-.33.63c-1.58.47-3.19.9-4.79,1.28Zm-43.85-1.1a.32.32,0,0,1-.14,0c-1.58-.46-3.17-1-4.72-1.52a.5.5,0,0,1-.3-.64.49.49,0,0,1,.64-.3c1.53.54,3.1,1.05,4.66,1.5a.5.5,0,0,1-.14,1ZM259,311.45a.52.52,0,0,1-.47-.33.5.5,0,0,1,.3-.64c1.53-.56,3.06-1.17,4.56-1.81a.49.49,0,0,1,.65.26.5.5,0,0,1-.26.66c-1.51.65-3.06,1.26-4.61,1.83A.47.47,0,0,1,259,311.45Zm-62.56-1.57a.48.48,0,0,1-.2,0c-1.51-.64-3-1.33-4.5-2.06a.5.5,0,0,1-.23-.67.51.51,0,0,1,.67-.23c1.46.72,3,1.41,4.45,2a.5.5,0,0,1-.19,1Zm71.61-2.34a.51.51,0,0,1-.45-.27.5.5,0,0,1,.23-.67c1.45-.73,2.9-1.52,4.31-2.33a.49.49,0,0,1,.68.18.51.51,0,0,1-.18.69c-1.43.82-2.9,1.61-4.37,2.35A.42.42,0,0,1,268.07,307.54Zm-80.44-2a.45.45,0,0,1-.25-.07c-1.43-.81-2.85-1.67-4.24-2.57a.5.5,0,0,1,.55-.84c1.36.89,2.77,1.74,4.18,2.54a.5.5,0,0,1,.19.68A.49.49,0,0,1,187.63,305.53Zm89-2.91a.48.48,0,0,1-.41-.23.5.5,0,0,1,.14-.69c1.36-.9,2.71-1.84,4-2.81a.5.5,0,1,1,.6.8c-1.32,1-2.69,1.94-4.06,2.84A.49.49,0,0,1,276.6,302.62Zm-97.24-2.44a.49.49,0,0,1-.3-.1c-1.32-1-2.64-2-3.91-3a.5.5,0,0,1-.07-.7.5.5,0,0,1,.71-.07c1.25,1,2.56,2.05,3.86,3a.49.49,0,0,1,.11.7A.51.51,0,0,1,179.36,300.18Zm105.15-3.45a.5.5,0,0,1-.32-.88c1.24-1,2.48-2.14,3.66-3.25a.5.5,0,0,1,.71,0,.49.49,0,0,1,0,.7c-1.2,1.13-2.45,2.24-3.71,3.3A.54.54,0,0,1,284.51,296.73Zm-112.75-2.82a.5.5,0,0,1-.34-.13c-.48-.44-.95-.89-1.42-1.34-.72-.7-1.43-1.41-2.12-2.13a.49.49,0,0,1,0-.7.5.5,0,0,1,.71,0q1,1.06,2.1,2.1c.46.45.93.89,1.4,1.33a.5.5,0,0,1-.34.86ZM291.69,290a.49.49,0,0,1-.36-.84c1.12-1.19,2.22-2.41,3.27-3.65a.49.49,0,0,1,.7-.06.51.51,0,0,1,.06.71c-1.06,1.25-2.17,2.49-3.31,3.69A.51.51,0,0,1,291.69,290Zm-126.77-3.16a.52.52,0,0,1-.38-.17c-1.07-1.25-2.12-2.54-3.12-3.85a.5.5,0,0,1,.79-.61c1,1.29,2,2.58,3.09,3.81a.5.5,0,0,1-.38.82Zm133.13-4.36a.49.49,0,0,1-.3-.1.51.51,0,0,1-.1-.7c1-1.3,1.93-2.65,2.83-4a.5.5,0,1,1,.84.56c-.91,1.36-1.88,2.72-2.87,4A.51.51,0,0,1,298.05,282.46ZM158.93,279a.48.48,0,0,1-.41-.22c-.92-1.36-1.82-2.77-2.66-4.18a.51.51,0,0,1,.18-.69.5.5,0,0,1,.68.18c.83,1.39,1.71,2.78,2.63,4.13a.51.51,0,0,1-.14.7A.46.46,0,0,1,158.93,279Zm-5-8.46a.51.51,0,0,1-.45-.27c-.76-1.47-1.48-3-2.15-4.47a.5.5,0,0,1,.91-.41c.66,1.48,1.38,3,2.13,4.42a.5.5,0,0,1-.21.67A.53.53,0,0,1,153.9,270.53Zm-4-9a.49.49,0,0,1-.47-.32c-.59-1.54-1.13-3.12-1.62-4.69a.49.49,0,0,1,.32-.62.49.49,0,0,1,.63.32c.49,1.56,1,3.11,1.6,4.63a.5.5,0,0,1-.29.65Z"/><path class="cls-112" d="M146.91,252.09a.5.5,0,0,1-.48-.37c-.21-.82-.4-1.63-.58-2.45a.5.5,0,0,1,.38-.6.51.51,0,0,1,.6.39c.18.8.37,1.61.57,2.41a.51.51,0,0,1-.36.61Z"/><path class="cls-112" d="M361.64,284.86a2.07,2.07,0,0,1-1.91-1.27l-2.39-5.7a32.27,32.27,0,0,1-8.23-2.8l-5.36,3.05a2.07,2.07,0,0,1-2.4-.25l-6.29-5.54a2,2,0,0,1-.55-2.34l2.34-5.71a31.66,31.66,0,0,1-3.83-7.81l-6-1.64a2.07,2.07,0,0,1-1.52-1.86l-.53-8.37a2.09,2.09,0,0,1,1.26-2.05l5.7-2.38a31.78,31.78,0,0,1,2.81-8.23l-3-5.37a2.07,2.07,0,0,1,.24-2.39l5.54-6.3a2.1,2.1,0,0,1,2.35-.55l5.7,2.35a32,32,0,0,1,7.81-3.84l1.64-6a2.06,2.06,0,0,1,1.87-1.52l8.36-.54a2.08,2.08,0,0,1,2.05,1.27l2.38,5.7a32,32,0,0,1,8.24,2.81l5.36-3.06a2.1,2.1,0,0,1,2.4.25l6.29,5.54a2.07,2.07,0,0,1,.55,2.34l-2.34,5.71a32.37,32.37,0,0,1,3.83,7.81l5.95,1.64a2,2,0,0,1,1.52,1.86l.54,8.37a2.07,2.07,0,0,1-1.27,2l-5.7,2.38a31.76,31.76,0,0,1-2.8,8.23l3.05,5.37a2.05,2.05,0,0,1-.25,2.39l-5.53,6.3a2.1,2.1,0,0,1-2.35.55L381.45,273a31.69,31.69,0,0,1-7.81,3.84L372,282.8a2.08,2.08,0,0,1-1.87,1.52l-8.37.54Zm-12.59-13.19.73.39a29.08,29.08,0,0,0,8.88,3l.82.14,2.76,6.6,7.05-.45,1.9-6.9.79-.24a29.2,29.2,0,0,0,8.42-4.13l.67-.48,6.62,2.71,4.66-5.3-3.53-6.22.39-.73a29,29,0,0,0,3-8.88l.14-.81,6.6-2.77-.45-7.05-6.9-1.89-.24-.79a29.07,29.07,0,0,0-4.13-8.42l-.48-.68,2.71-6.62-5.3-4.66L378,221.05l-.73-.39a28.65,28.65,0,0,0-8.88-3l-.81-.14-2.76-6.6-7,.45-1.9,6.9-.79.24a28.85,28.85,0,0,0-8.42,4.14l-.68.48-6.61-2.72-4.67,5.3,3.54,6.22-.39.73a28.74,28.74,0,0,0-3,8.88l-.13.82L328,245.09l.45,7L335.4,254l.23.8a29.1,29.1,0,0,0,4.14,8.42l.48.67-2.72,6.62,5.31,4.66Zm14.62-3.62a21.66,21.66,0,0,1-14.34-5.4,22,22,0,0,1-3.13-3.41,1.5,1.5,0,1,1,2.41-1.78,19.2,19.2,0,0,0,2.7,2.93,18.72,18.72,0,1,0-6.05-17.46,1.5,1.5,0,1,1-2.95-.54,21.74,21.74,0,1,1,21.36,25.66Z"/><path class="cls-112" d="M363.5,255.81a9.45,9.45,0,0,1-4.3-1.05h0a9.44,9.44,0,1,1,7.2.59A9.65,9.65,0,0,1,363.5,255.81ZM361,251.2a5.47,5.47,0,0,0,4.16.34,5.45,5.45,0,0,0-3.34-10.37,5.45,5.45,0,0,0-.82,10Z"/><path class="cls-112" d="M318.88,241.48h-.06a.5.5,0,0,1-.44-.56c.1-.83.23-1.67.37-2.5a.5.5,0,0,1,1,.18c-.14.81-.27,1.63-.36,2.44A.51.51,0,0,1,318.88,241.48Z"/><path class="cls-112" d="M320.4,234.12l-.14,0a.51.51,0,0,1-.34-.62,45.55,45.55,0,0,1,1.72-4.79.5.5,0,1,1,.92.39,45.75,45.75,0,0,0-1.68,4.68A.49.49,0,0,1,320.4,234.12Zm3.91-9.25a.44.44,0,0,1-.24-.07.49.49,0,0,1-.19-.68,45.62,45.62,0,0,1,2.72-4.29.51.51,0,0,1,.7-.12.5.5,0,0,1,.12.7,45.84,45.84,0,0,0-2.67,4.2A.51.51,0,0,1,324.31,224.87ZM397.1,217a.52.52,0,0,1-.38-.17,44.84,44.84,0,0,0-3.51-3.52.5.5,0,0,1,.67-.75,43.68,43.68,0,0,1,3.59,3.61.5.5,0,0,1,0,.7A.5.5,0,0,1,397.1,217Zm-66.93-.26a.5.5,0,0,1-.34-.13.49.49,0,0,1,0-.7,45.16,45.16,0,0,1,3.61-3.58.5.5,0,1,1,.67.75,43.29,43.29,0,0,0-3.54,3.5A.5.5,0,0,1,330.17,216.7Zm59.45-6.45a.45.45,0,0,1-.29-.09,45.81,45.81,0,0,0-4.21-2.65.5.5,0,1,1,.49-.87,45.68,45.68,0,0,1,4.3,2.71.5.5,0,0,1,.12.69A.51.51,0,0,1,389.62,210.25Zm-51.92-.2a.48.48,0,0,1-.41-.21.5.5,0,0,1,.12-.7,45.69,45.69,0,0,1,4.32-2.68.5.5,0,0,1,.48.88A45,45,0,0,0,338,210,.49.49,0,0,1,337.7,210.05Zm43.14-4.67a.71.71,0,0,1-.2,0,45.69,45.69,0,0,0-4.68-1.67.49.49,0,0,1-.34-.62.51.51,0,0,1,.62-.34,47.8,47.8,0,0,1,4.79,1.7.5.5,0,0,1,.27.66A.51.51,0,0,1,380.84,205.38Zm-34.33-.14a.49.49,0,0,1-.46-.31.5.5,0,0,1,.28-.65,45.3,45.3,0,0,1,4.8-1.65.49.49,0,0,1,.62.34.5.5,0,0,1-.34.62,42.89,42.89,0,0,0-4.71,1.62A.58.58,0,0,1,346.51,205.24Zm24.69-2.68h-.09a45.28,45.28,0,0,0-4.94-.58.5.5,0,0,1,.06-1,45.3,45.3,0,0,1,5.06.58.5.5,0,0,1-.09,1Zm-15-.05a.5.5,0,0,1-.09-1,47.71,47.71,0,0,1,5.06-.55.5.5,0,0,1,.05,1,45.49,45.49,0,0,0-4.94.54Z"/><path class="cls-112" d="M401.63,223a.51.51,0,0,1-.43-.23c-.43-.7-.89-1.39-1.36-2.06a.5.5,0,0,1,.12-.7.52.52,0,0,1,.7.12c.48.69.95,1.4,1.39,2.11a.49.49,0,0,1-.16.69A.48.48,0,0,1,401.63,223Z"/><path class="cls-112" d="M407,258.4h-.13a.5.5,0,0,1-.35-.61c.21-.79.4-1.6.57-2.41a.5.5,0,0,1,.59-.39.51.51,0,0,1,.39.59c-.17.83-.37,1.66-.59,2.46A.48.48,0,0,1,407,258.4Z"/><path class="cls-112" d="M363.48,291.81H363a.51.51,0,0,1-.5-.51.47.47,0,0,1,.51-.49h.44a43.86,43.86,0,0,0,4.44-.23.51.51,0,0,1,.55.45.5.5,0,0,1-.45.55C366.52,291.73,365,291.81,363.48,291.81Zm-5.39-.33H358a45.67,45.67,0,0,1-4.92-.88.49.49,0,0,1-.37-.6.5.5,0,0,1,.6-.37,46.14,46.14,0,0,0,4.81.86.5.5,0,0,1-.06,1Zm14.77-.66a.5.5,0,0,1-.1-1,46.4,46.4,0,0,0,4.72-1.28.5.5,0,1,1,.31.95,47.68,47.68,0,0,1-4.82,1.31Zm-24.38-1.61a.51.51,0,0,1-.17,0,44,44,0,0,1-4.61-1.93.5.5,0,1,1,.44-.9,43.39,43.39,0,0,0,4.51,1.89.5.5,0,0,1,.3.64A.49.49,0,0,1,348.48,289.21Zm33.76-1.5a.48.48,0,0,1-.45-.29.49.49,0,0,1,.24-.66,44.83,44.83,0,0,0,4.34-2.28.5.5,0,0,1,.51.86,46.73,46.73,0,0,1-4.43,2.33A.52.52,0,0,1,382.24,287.71Zm-42.65-2.81a.54.54,0,0,1-.27-.07,46.89,46.89,0,0,1-4.08-2.89.5.5,0,1,1,.62-.78,48.59,48.59,0,0,0,4,2.82.5.5,0,0,1-.26.92Zm51.13-2.26a.5.5,0,0,1-.3-.9,43.35,43.35,0,0,0,3.73-3.17.5.5,0,0,1,.69.73,47.35,47.35,0,0,1-3.82,3.24A.47.47,0,0,1,390.72,282.64Zm-58.87-3.88a.54.54,0,0,1-.36-.14,45.53,45.53,0,0,1-3.35-3.72.5.5,0,0,1,.78-.63,43.45,43.45,0,0,0,3.28,3.64.49.49,0,0,1,0,.7A.5.5,0,0,1,331.85,278.76Zm66-2.93a.51.51,0,0,1-.32-.12.49.49,0,0,1-.06-.7,41.72,41.72,0,0,0,2.94-3.92.51.51,0,0,1,.7-.13.49.49,0,0,1,.13.69,44.84,44.84,0,0,1-3,4A.5.5,0,0,1,397.88,275.83Zm5.5-8.21a.46.46,0,0,1-.23-.06.49.49,0,0,1-.21-.67l.12-.24c.7-1.38,1.34-2.79,1.9-4.22a.5.5,0,0,1,.64-.29.5.5,0,0,1,.29.65A46.16,46.16,0,0,1,404,267.1l-.13.25A.5.5,0,0,1,403.38,267.62Z"/><path class="cls-112" d="M325.63,271a.51.51,0,0,1-.43-.23c-.44-.7-.88-1.43-1.29-2.17a.5.5,0,0,1,.19-.68.51.51,0,0,1,.68.19c.4.72.83,1.43,1.27,2.12a.5.5,0,0,1-.16.69A.5.5,0,0,1,325.63,271Z"/><path class="cls-113" d="M165.38,544.71c-1.67,2.48-8.34,58.68-9.38,79.43a2.45,2.45,0,0,0,2.45,2.57h0a2.45,2.45,0,0,0,2.43-2.08l12.2-78.13Z"/><path class="cls-114" d="M219,544.71c1.68,2.48,8.34,58.68,9.39,79.43a2.45,2.45,0,0,1-2.46,2.57h0a2.46,2.46,0,0,1-2.43-2.08L211.29,546.5Z"/><path class="cls-115" d="M155.3,540.32v.62c0,4.41,3.76,8,8.52,8.1l56.36,1c4.68.08,8.59-3.31,8.82-7.65l0-.56c.23-4.52-3.61-8.34-8.5-8.43l-56.38-1C159.31,532.27,155.34,535.85,155.3,540.32Z"/><path class="cls-116" d="M264.94,622.1c-10,0-14.45-.86-16.43-1.64a3.8,3.8,0,0,0,3.7,2.94h35.44a1.72,1.72,0,0,0,1.66-2.18C285.27,621.55,276.69,622.1,264.94,622.1Z"/><path class="cls-117" d="M289.31,621.22a1.52,1.52,0,0,0-.29-.6c-2.7-3.45-8.12-8.86-15.5-8.76-10.8.16-14.57,1.33-23,.07l-2,6.57a3.74,3.74,0,0,0-.06,2c2,.78,6.41,1.64,16.43,1.64C276.69,622.1,285.27,621.55,289.31,621.22Z"/><path class="cls-118" d="M253,604.85l-2.43,8.27s5.39,2.46,10.13.49l.93-7.17Z"/><path class="cls-119" d="M326.44,616.89c-7.81,6.28-11.8,8.39-13.83,9a3.8,3.8,0,0,0,4.72,0L345,603.67a1.72,1.72,0,0,0-.07-2.73C342,603.73,335.6,609.53,326.44,616.89Z"/><path class="cls-120" d="M344.89,600.94a1.59,1.59,0,0,0-.6-.28c-4.25-1-11.85-1.79-17.54,2.91-8.33,6.89-10.54,10.16-17.87,14.44l2.55,6.34a3.73,3.73,0,0,0,1.18,1.56c2-.63,6-2.74,13.83-9C335.6,609.53,342,603.73,344.89,600.94Z"/><path class="cls-121" d="M201,510.61s60,4.9,72.29,10.69-10,87-10,87-3.35,1.61-10.8-.71c0,0,7.64-59.91,1.95-72.9l-64.94-10.62Z"/><path class="cls-122" d="M302.92,606.61c.56.51,6,11.4,6,11.4s6-1.3,7.24-5.1l-5.41-9.84Z"/><path class="cls-123" d="M164.83,510.11A30.27,30.27,0,0,0,163,521.06a16.44,16.44,0,0,0,15.7,16.09l70.91,3.24a3.39,3.39,0,0,1,3.13,2.55c1.67,6.45,9.82,26.24,49.63,65.73a3.22,3.22,0,0,0,4,.44l5.67-3.58a1.32,1.32,0,0,0,.43-1.77l-41.29-70.5a16,16,0,0,0-9.71-7.2L201,510.61Z"/><path class="cls-124" d="M234.71,400s-7.6,13.43-15.34,19.94l16,8.93s3.61-14.22,11.85-18.38Z"/><path class="cls-125" d="M163.54,510.61s19.14,4.67,37.41,0c0,0,25.57-34.37,35.46-43.72,0,0,15.78,24.89,50.9,28.42l2-4.37s-28-12.89-36.57-32.69S240.64,430,232.81,424.83c-4.88-3.22-7.8-5.42-9.31-6.62a2.5,2.5,0,0,0-2.86-.18C212.33,423.1,173.22,449.88,163.54,510.61Z"/><path class="cls-126" d="M235.38,466.18a1,1,0,0,1-.8-.4,76.18,76.18,0,0,1-9.6-17,1,1,0,1,1,1.87-.71,75.81,75.81,0,0,0,9.32,16.52A1,1,0,0,1,236,466,1,1,0,0,1,235.38,466.18Z"/><path class="cls-127" d="M285.2,488.65l3.95-1,12-2.78a5.53,5.53,0,0,1,4.22.71L315.69,492l-28.5,0Z"/><path class="cls-128" d="M247.21,383.78s6.5,21.66,3.59,29.3-15.7,4.51-25.67-4.16l-3.65-22.71Z"/><path class="cls-129" d="M227.7,398.63a.82.82,0,0,0,.58-1.11,21.63,21.63,0,0,1-1.67-6.72s-1.63-1.57,5.32-1.83,17.33-.76,20.53-6,.56-20-10.13-10.67a.83.83,0,0,1-1.29-.24c-1-2.09-3.94-6.58-9.47-5.32-5.19,1.19-6.42,4.57-6.7,6.34a.82.82,0,0,1-1.12.63c-2.31-.94-8-2.48-11.87,2.9-3.2,4.43-2.3,7.48-1.26,9.09A.82.82,0,0,1,210,387c-1.68.17-4,1.1-4.52,4.84-.74,5.18,5.07,5.87,6.75,6a.83.83,0,0,1,.67.4C214,400,219,407.82,225.64,410a.82.82,0,0,0,1.06-.9l-1.23-9.16a.82.82,0,0,1,.63-.92Z"/><path class="cls-130" d="M228.64,400.09s-6.4-6.56-7.79-2.39,5.43,7.53,9.32,6.65Z"/><path class="cls-131" d="M274.19,497.61h.14l60.88-.07a2.72,2.72,0,1,0,0-5.44l-60.88.07a2.72,2.72,0,0,0-.13,5.43Z"/><path class="cls-132" d="M358.79,438a.52.52,0,0,0-.06.13l-25.62,55.23a2.72,2.72,0,1,0,4.93,2.28l25.62-55.23a2.72,2.72,0,0,0-4.87-2.41Z"/><path class="cls-133" d="M301.3,500.67c-.27,1.1-25.67,96.37-32.11,120.53a4.36,4.36,0,0,0,4.18,5.51h0a4.34,4.34,0,0,0,4.2-3.31l28.19-114.34Z"/><path class="cls-134" d="M315.21,500.67c.26,1.1,25.67,96.37,32.11,120.53a4.36,4.36,0,0,1-4.18,5.51h0a4.33,4.33,0,0,1-4.2-3.31l-28.2-114.34Z"/><path class="cls-135" d="M316.27,497.55H300.44v12.71a3.29,3.29,0,0,0,3.27,3.3h2.17V542.1a2.49,2.49,0,0,0,2.47,2.51h0a2.49,2.49,0,0,0,2.48-2.51V513.56h1.1a4.36,4.36,0,0,0,4.34-4.38Z"/><path class="cls-136" d="M261.54,494.5h88.34a2.72,2.72,0,0,1,2.63,2.06l1.23,4.83a2.74,2.74,0,0,1-2.64,3.43l-90.65-.53a2.73,2.73,0,0,1-2.6-3.41l1.07-4.31A2.7,2.7,0,0,1,261.54,494.5Z"/><rect class="cls-137" x="413.02" y="634.67" width="6.01" height="65" transform="translate(832.04 1334.34) rotate(180)"/><path class="cls-138" d="M389.7,697h52.64a0,0,0,0,1,0,0v.24a3.68,3.68,0,0,1-3.68,3.68H393.38a3.68,3.68,0,0,1-3.68-3.68V697A0,0,0,0,1,389.7,697Z" transform="translate(832.04 1397.93) rotate(180)"/><rect class="cls-139" x="381.89" y="620.1" width="66.19" height="18.77" rx="6.46"/><path class="cls-140" d="M460.39,591.33a52.19,52.19,0,0,1,19,8.1,5,5,0,0,1,2.21,4.78c-1.21,9.52-6.15,40.35-22.45,70.46a7.58,7.58,0,0,0-.73,5.2l2.83,13.18,5.25,4.93H453l-9-24.38,3.85-1.22a7.27,7.27,0,0,0,5.09-6.82l.45-26.15a29.78,29.78,0,0,1,7.15-19.69l-21.61-1.05Z"/><path class="cls-141" d="M471.77,700.36c1.23,1.61-13.26,3.74-20.59.21,0,0-10.15-17.66-10.15-26.75,0,0,.81-1.86,6.77-1.44,0,0,3.41,20.91,7,23.26s10.06.23,10.06.23S470,698,471.77,700.36Z"/><path class="cls-142" d="M441.61,620.1c.12-.19,23.26-2.78,23.26-2.78a53.8,53.8,0,0,0,1.61,16.73c2.37,9.69,36.36,51.66,36.36,51.66L499.28,697a57.34,57.34,0,0,0,32.52,2l-22.09-13.26s-20.67-70.43-33.33-83l-23.2-8Z"/><path class="cls-143" d="M389.7,579.12S376.36,599,375.27,608s3.65,12.72,17.65,13.33,51.35.59,51.35.59l31.88-27.24s-23.24-8.3-29.28-10.64S389.7,579.12,389.7,579.12Z"/><path class="cls-144" d="M500.62,693.21s-3.83,3.71-1.24,7.85c0,0,30.39,5.38,38.64,2.94,0,0-1.71-3.91-11-8.36l.68.52a1.11,1.11,0,0,1-.73,2C520.84,697.81,508.17,696.68,500.62,693.21Z"/><path class="cls-145" d="M425.77,576.5s15.53-14.79,23.17-24.59a20.78,20.78,0,0,0,3.52-18.7c-3.49-11.76-9.69-23.94-10.26-25.83-.86-2.91-18.28-2.79-18.28-2.79s-34.26,22.24-47.73,59.91l15.12,4.71s8.95-15,17.79-24.55c0,0-15.3,20.2-15.84,28.48Z"/><path class="cls-146" d="M444.31,491.14c-.18.6-4.73,15.67-5.08,16s-10,.83-14.5-2.26l9.79-19.55Z"/><path class="cls-147" d="M461.51,476.55s2.68,8.5-2.72,20.43-12.27,12.33-16.24,8.83-8.95-9.52-8.5-20.79S457.71,465.77,461.51,476.55Z"/><path class="cls-148" d="M442.48,485.15s9.18-16,19.32-4.4l.42,4.39s11-1.94,8.46-12A19.68,19.68,0,0,0,444,460.38c-12.06,5.1-16.69,12.08-17,20.94s6.62,6.53,6.62,6.53,1.93-6.34,5.15-7.17,2.65,4.06,2.65,4.06Z"/><path class="cls-149" d="M439.89,485.09s4.77-8.18-.65-9-4.08,7.94-3.31,11.18Z"/><path class="cls-150" d="M457.41,577.59,446,566.6l-15.79,6.66s-15.71,2.44-24.7,0l-9-2.43-20.32-6.33-3.19,9a5.43,5.43,0,0,0,2,6.24,36.11,36.11,0,0,0,5.14,3.2c2.67,1.17,66-.81,66-.81Z"/><path class="cls-151" d="M443.33,462.56a3.51,3.51,0,0,0,3.1-5.4c-4.78-7.77-14.79-17.3-33.22-9.17-20.76,9.16-31.78,13-36,10.92a3.54,3.54,0,0,0-5.07,4.06c.65,2.22,2.35,4.72,5.86,7.38C405.07,490.89,426.79,461.43,443.33,462.56Z"/><path class="cls-152" d="M414.23,582.78h.15l66.19-.07a3,3,0,1,0,0-5.93l-66.19.08a3,3,0,0,0-.14,5.92Z"/><path class="cls-153" d="M540.07,522.68H485a10.52,10.52,0,0,0-9.51,6l-25.48,54h68.5a6.38,6.38,0,0,0,5.94-4l19.76-50A4.4,4.4,0,0,0,540.07,522.68Z"/><path class="cls-154" d="M501.23,550.39c-1.19,3.71-.31,7.31,2,8.05s5.1-1.68,6.29-5.39.31-7.32-2-8S502.43,546.68,501.23,550.39Z"/><path class="cls-155" d="M321.71,585.2a2.47,2.47,0,0,1,.58-2.12,2.8,2.8,0,0,1,2.1-.93H600.6a3.19,3.19,0,0,1,2.65,1.36,2.78,2.78,0,0,1,.21,2.82l-3,6.07a4.2,4.2,0,0,1-3.8,2.29H326.29a3.13,3.13,0,0,1-3.12-2.41Z"/><path class="cls-156" d="M585.12,713.18a2.33,2.33,0,0,0,1-.2,2.5,2.5,0,0,0,1.27-3.26L536.51,588.81a2.4,2.4,0,0,0-3.18-1.3,2.5,2.5,0,0,0-1.27,3.26l50.83,120.91A2.43,2.43,0,0,0,585.12,713.18Z"/><path class="cls-157" d="M527.85,713.18a2.42,2.42,0,0,0,2.23-1.5l50.84-120.91a2.5,2.5,0,0,0-1.27-3.26,2.41,2.41,0,0,0-3.19,1.3L525.63,709.72A2.5,2.5,0,0,0,526.9,713,2.28,2.28,0,0,0,527.85,713.18Z"/><path class="cls-158" d="M384.94,713.18a2.28,2.28,0,0,0,.95-.2,2.5,2.5,0,0,0,1.27-3.26L336.33,588.81a2.41,2.41,0,0,0-3.19-1.3,2.5,2.5,0,0,0-1.27,3.26l50.84,120.91A2.42,2.42,0,0,0,384.94,713.18Z"/><path class="cls-159" d="M327.67,713.18a2.43,2.43,0,0,0,2.23-1.5l50.83-120.91a2.5,2.5,0,0,0-1.27-3.26,2.4,2.4,0,0,0-3.18,1.3L325.44,709.72a2.5,2.5,0,0,0,1.27,3.26A2.33,2.33,0,0,0,327.67,713.18Z"/></svg>