<?xml version="1.0" encoding="utf-8"?>
<!-- Generator: Adobe Illustrator 24.0.1, SVG Export Plug-In . SVG Version: 6.00 Build 0)  -->
<svg version="1.1" id="Layer_1" xmlns="http://www.w3.org/2000/svg" xmlns:xlink="http://www.w3.org/1999/xlink" x="0px" y="0px"
	 viewBox="0 0 3967 2800" style="enable-background:new 0 0 3967 2800;" xml:space="preserve">
<style type="text/css">
	.st0{opacity:0.3;fill:url(#SVGID_1_);enable-background:new    ;}
	.st1{opacity:0.63;fill:url(#SVGID_2_);enable-background:new    ;}
	.st2{fill:#F54394;}
	.st3{fill:#FFFFFF;}
	.st4{fill:url(#SVGID_3_);}
	.st5{fill:url(#SVGID_4_);}
	.st6{fill:url(#SVGID_5_);}
	.st7{opacity:0.37;fill:#FFFFFF;enable-background:new    ;}
	.st8{opacity:0.53;}
	.st9{fill:url(#SVGID_6_);}
	.st10{fill:url(#SVGID_7_);}
	.st11{fill:url(#SVGID_8_);}
	.st12{fill:url(#SVGID_9_);}
	.st13{fill:url(#SVGID_10_);}
	.st14{fill:url(#SVGID_11_);}
	.st15{fill:url(#SVGID_12_);}
	.st16{opacity:0.57;fill:#FFFFFF;enable-background:new    ;}
	.st17{clip-path:url(#SVGID_14_);}
	.st18{fill:url(#SVGID_15_);}
	.st19{clip-path:url(#SVGID_17_);}
	.st20{fill:url(#SVGID_18_);}
	.st21{clip-path:url(#SVGID_20_);}
	.st22{fill:url(#SVGID_21_);}
	.st23{opacity:0.24;fill:#FFFFFF;enable-background:new    ;}
	.st24{opacity:0.54;fill:#FFFFFF;enable-background:new    ;}
	.st25{fill:url(#SVGID_22_);}
	.st26{fill:url(#SVGID_23_);}
	.st27{fill:url(#SVGID_24_);}
	.st28{fill:url(#SVGID_25_);}
	.st29{fill:url(#SVGID_26_);}
	.st30{fill:url(#SVGID_27_);}
	.st31{fill:url(#SVGID_28_);}
	.st32{fill:url(#SVGID_29_);}
	.st33{fill:url(#SVGID_30_);}
	.st34{fill:url(#SVGID_31_);}
	.st35{opacity:0.48;}
	.st36{opacity:0.91;fill:#FFFFFF;enable-background:new    ;}
	.st37{fill:url(#SVGID_32_);}
	.st38{opacity:0.5;fill:#FFFFFF;enable-background:new    ;}
	.st39{fill:url(#SVGID_33_);}
	.st40{fill:url(#SVGID_34_);}
	.st41{fill:url(#SVGID_35_);}
	.st42{fill:url(#SVGID_36_);}
	.st43{fill:url(#SVGID_37_);}
	.st44{fill:url(#SVGID_38_);}
	.st45{fill:url(#SVGID_39_);}
	.st46{fill:url(#SVGID_40_);}
	.st47{fill:url(#SVGID_41_);}
	.st48{fill:url(#SVGID_42_);}
	.st49{fill:url(#SVGID_43_);}
	.st50{fill:url(#SVGID_44_);}
	.st51{fill:url(#SVGID_45_);}
	.st52{fill:url(#SVGID_46_);}
	.st53{fill:url(#SVGID_47_);}
	.st54{fill:url(#SVGID_48_);}
	.st55{fill:url(#SVGID_49_);}
	.st56{fill:url(#SVGID_50_);}
	.st57{fill:url(#SVGID_51_);}
	.st58{fill:url(#SVGID_52_);}
	.st59{fill:url(#SVGID_53_);}
	.st60{fill:url(#SVGID_54_);}
	.st61{fill:url(#SVGID_55_);}
	.st62{fill:url(#SVGID_56_);}
	.st63{fill:url(#SVGID_57_);}
	.st64{fill:url(#SVGID_58_);}
	.st65{fill:url(#SVGID_59_);}
	.st66{fill:url(#SVGID_60_);}
	.st67{fill:url(#SVGID_61_);}
	.st68{fill:url(#SVGID_62_);}
	.st69{fill:url(#SVGID_63_);}
	.st70{fill:url(#SVGID_64_);}
	.st71{fill:url(#SVGID_65_);}
	.st72{fill:url(#SVGID_66_);}
	.st73{fill:url(#SVGID_67_);}
	.st74{fill:url(#SVGID_68_);}
	.st75{fill:url(#SVGID_69_);}
	.st76{fill:url(#SVGID_70_);}
	.st77{fill:url(#SVGID_71_);}
	.st78{fill:url(#SVGID_72_);}
	.st79{fill:url(#SVGID_73_);}
	.st80{fill:url(#SVGID_74_);}
	.st81{fill:url(#SVGID_75_);}
	.st82{fill:url(#SVGID_76_);}
	.st83{fill:url(#SVGID_77_);}
	.st84{fill:url(#SVGID_78_);}
	.st85{fill:url(#SVGID_79_);}
	.st86{fill:url(#SVGID_80_);}
	.st87{fill:url(#SVGID_81_);}
	.st88{fill:url(#SVGID_82_);}
	.st89{fill:url(#SVGID_83_);}
	.st90{fill:url(#SVGID_84_);}
	.st91{fill:url(#SVGID_85_);}
	.st92{fill:url(#SVGID_86_);}
	.st93{fill:url(#SVGID_87_);}
	.st94{fill:url(#SVGID_88_);}
	.st95{fill:url(#SVGID_89_);}
</style>
<title>bn_con5</title>
<g>
	<g id="Illustration">
		
			<linearGradient id="SVGID_1_" gradientUnits="userSpaceOnUse" x1="3607.4277" y1="-443.5086" x2="1670.2375" y2="1618.651" gradientTransform="matrix(1 0 0 -1 0 2798.6609)">
			<stop  offset="0" style="stop-color:#B37CFF"/>
			<stop  offset="1" style="stop-color:#F895E7"/>
		</linearGradient>
		<path class="st0" d="M3035.9,2405.9c-72.2,73.1-136.8,116-186.3,148.5c-482.5,316.3-1034,225.1-1204.6,194
			c-275.1-50.3-507.4-85.7-706.9-262.7c-453.4-402.1-431.4-1241-84.9-1760.7c41.1-61.6,387-565,939.7-635.9
			c13.5-1.7,23.6-2.7,32.4-3.6c85.5-8.9,615.4-55.8,1047.4,299.6c61.9,50.9,161.4,142.6,253.7,282.5
			C3464,1179.1,3465.1,1971.6,3035.9,2405.9z"/>
		
			<linearGradient id="SVGID_2_" gradientUnits="userSpaceOnUse" x1="1608.3829" y1="1860.11" x2="2815.0229" y2="1860.11" gradientTransform="matrix(0.7821 0.6232 0.6232 -0.7821 -141.5893 838.2791)">
			<stop  offset="0" style="stop-color:#B37CFF"/>
			<stop  offset="1" style="stop-color:#F895E7"/>
		</linearGradient>
		<path class="st1" d="M2791.8,483c5.8-69.9,217.5-134.9,200.7-282.9l-122.5-86.9c0,0-33,184.8-96.7,238.4s-81.9,2.9-61-43.3
			S2841,162.9,2826.5,102c0,0-11.8-48.1-70.2-20.9S2605.5,43.8,2583,0c0,0-6.5,28.2-51.2,85.1c-44.7,56.9-93.8,110.9-45.8,155.2
			S2617,316,2605.3,354.5s-174.6,12.6-191.4-116.3c0,0-78,85-76.7,121s51,86.9,149.7,90.6s142.8,35,134,63.9
			c-8.8,28.9-293.4-24.9-300.3-131.2c0,0-71.3,202.8-66.5,229.7c4.9,26.8,126.9,58.8,207.3,49.6c80.4-9.2,146.5,37.6,155.6,67.5
			c9.1,29.8-84.9-13.5-134.4-9.6c-49.5,3.8-241.5-66.1-241.5-66.1s19.3,21.5,5.4,93.5c-13.9,72,5.4,198.8,51.2,200.1
			c45.8,1.3,263.6-35.2,331.8-21.9s120,38.4,83.1,55.1s-125.2,0.8-191.8,8.2s-235.4,47.4-264.3,11.3c0,0,13.2,196.5,187.7,257.9
			c0,0,95.5-25.8,159.4-93.5c63.9-67.7,93.8-93.3,123.4-80.1s-15,59.6-55.9,100.7s-134.1,138.8-177.9,135c0,0,268,77.1,351-94
			c77.9-160.5,65.7-186,63.9-188.5c7.4,9,234.5,279.1,433.2-63.1c0,0-67.2,65.4-125.9,43.2s-167.3,2.2-157.1-41.3
			s223.3,37.6,285.8-35.1s50.7-218.5-36.6-278c0,0-20.3,85.5-111.2,118.5S2974,834.5,3017,771.4s293.5-105.1,318.8-164.4
			s-131.1-223.5-131.1-223.5s-11,31.9-84.5,119s-175,171-180.6,139.8s64.6-81.3,125.6-128.5s108.7-135.1,85.4-168.8
			s-119.9-118-119.9-118s-71.9,130.2-98.7,192.3S2786,552.9,2791.8,483z M2937.1,897.8c-78.2,49.6-57.9-26-33.1-74
			C2922.7,787.3,3015.3,848.2,2937.1,897.8L2937.1,897.8z M2875.1,733.1c-51,34-79.4,20-67.7-12
			C2834.5,647.8,2926.1,699.1,2875.1,733.1L2875.1,733.1z M2789.4,567c-26.5,20.2-41.8,21-45.4-16.6S2815.8,546.8,2789.4,567z"/>
		<path class="st2" d="M860,27.8c-2.3-12.4,12.8-20.4,21.9-11.6c92.1,89,312.8,354.7,250.5,812.7
			c-78.2,574.7,38.8,786.4,186.3,916.6c0,0-204.2-63.1-330.1-278.1C679.2,939.7,901.5,248.2,860,27.8z"/>
		<path class="st3" d="M928.6,208.6c10.8,64.3,20.3,128.7,27.4,193.4c7.5,64.6,13,129.4,16.5,194.4c3.2,64.9,5.3,129.9,4.5,194.8
			c-0.5,65-3.7,129.8-7.2,194.9c-3.1,65.1-6.6,130.7-3.4,196.8c3.2,66.1,14.2,132.7,37.1,195.3c5.7,15.6,11.8,31.2,18.7,46.3
			c6.6,15.2,13.9,30.1,21.5,44.9c15.2,29.5,32.5,58,51.8,85.1c38.7,54.1,85.6,102.3,137.5,143.3c5.4,4.4,13.3,3.6,17.7-1.8
			c4.4-5.4,3.6-13.3-1.8-17.7l0,0l0,0c-12.3-10.3-24.5-20.8-36.2-31.7c-5.9-5.4-11.6-11-17.4-16.5c-5.6-5.7-11.4-11.3-16.8-17.2
			c-21.9-23.2-42.2-48-60.6-74.2c-36.9-52.1-66.2-109.9-88.2-169.7c-10.7-30-19.1-60.9-25.1-92.2c-5.9-31.5-9.7-63.3-11.4-95.3
			c-3.6-64.2-0.7-129.1,2-194.2c2.7-65.1,4.7-130.6,4.1-196.1c-0.2-32.7-1-65.4-2.4-98.1c-0.6-16.3-1.5-32.7-2.4-49
			c-1-16.3-2.2-32.6-3.4-48.9c-5.2-65.2-12.3-130.2-21.5-194.9c-9.5-64.6-20.7-129-34.4-192.9c-0.4-1.8-2.1-3-4-2.7
			C929.5,205.1,928.2,206.8,928.6,208.6L928.6,208.6L928.6,208.6z"/>
		
			<linearGradient id="SVGID_3_" gradientUnits="userSpaceOnUse" x1="669.4672" y1="1166.7614" x2="1033.5873" y2="2798.5513" gradientTransform="matrix(1 0 0 -1 0 2798.6609)">
			<stop  offset="0" style="stop-color:#A737D5"/>
			<stop  offset="1" style="stop-color:#EF497A"/>
		</linearGradient>
		<path class="st4" d="M1033.8,1676.4c-10.1,21.6-44.2,27.3-65,11c-114.8-89.5-412-366.3-373.8-807.4
			c32.2-372.6,6.2-577.8-13.5-670.4c-4.2-19.6,24.6-31.6,42.2-17.7C817.4,346,1400.7,894.8,1033.8,1676.4z"/>
		<path class="st3" d="M995.1,1675.5c-0.6,0.3-1.3,0.6-1.9,0.8c-5.7,1.8-12.2-0.6-14.5-5.3c-2.6-5.3-256.7-538.5-240.6-1058.6
			c0.2-5,5.3-8.9,11.4-8.7c6.1,0.2,11,4.5,10.8,9.5c-15.9,516.3,236.5,1046.1,239.1,1051.4C1001.5,1668.7,999.5,1673.3,995.1,1675.5
			z"/>
		
			<linearGradient id="SVGID_4_" gradientUnits="userSpaceOnUse" x1="2569.4888" y1="2535.686" x2="1328.6487" y2="-1.9441" gradientTransform="matrix(1 0 0 -1 0 2798.6609)">
			<stop  offset="0" style="stop-color:#2B3582"/>
			<stop  offset="1" style="stop-color:#150E42"/>
		</linearGradient>
		<path class="st5" d="M679.2,641.9v1362.1c0,112.1,78.7,203.7,177.4,206.6c438.5,12.8,1972.2,43.9,2389.6,37
			c71.7-1.2,129.9-66.3,131.9-147.7c8.1-316.4,21.1-1077.4-27.3-1430.7c-10.2-74.4-65.5-130-131.9-132.4
			c-367.4-13.3-1993.2-55.7-2410.4-45C736.6,493.6,679.2,560.3,679.2,641.9z"/>
		
			<linearGradient id="SVGID_5_" gradientUnits="userSpaceOnUse" x1="2060.4304" y1="2272.0908" x2="1934.6007" y2="-290.9191" gradientTransform="matrix(1 0 0 -1 0 2798.6609)">
			<stop  offset="0" style="stop-color:#53D8FF"/>
			<stop  offset="1" style="stop-color:#3840F7"/>
		</linearGradient>
		<path class="st6" d="M754.5,635.3v1294.1c0,65.4,46.3,118.7,103.9,119.7l2327.7,32.6c57.2,1,104-51.2,104.2-116.1l3.9-1282.6
			c0.1-46.4-32.4-84.4-73.3-85.5L837.9,543C792.1,541.7,754.5,583.4,754.5,635.3z"/>
		<path class="st7" d="M807.5,687.4v1188.3c0,60.1,43.8,109,98.3,109.9l2200.2,30c54,0.9,98.3-47,98.5-106.6l3.7-1177.7
			c0.1-42.6-30.6-77.5-69.3-78.5L886.3,602.6C843.1,601.5,807.5,639.7,807.5,687.4z"/>
		<g class="st8">
			<rect x="2046.3" y="715.5" class="st3" width="67.8" height="1195.1"/>
			<rect x="2159.5" y="715.5" class="st3" width="67.8" height="1195.1"/>
			<rect x="2272.8" y="715.5" class="st3" width="67.8" height="1195.1"/>
			<rect x="2386" y="715.5" class="st3" width="67.8" height="1195.1"/>
			<rect x="2499.2" y="715.5" class="st3" width="67.8" height="1195.1"/>
			<rect x="2612.4" y="715.5" class="st3" width="67.8" height="1195.1"/>
			<rect x="2725.6" y="715.5" class="st3" width="67.8" height="1195.1"/>
		</g>
		
			<linearGradient id="SVGID_6_" gradientUnits="userSpaceOnUse" x1="2142.2493" y1="1642.7809" x2="1907.2493" y2="-31.559" gradientTransform="matrix(1 0 0 -1 0 2798.6609)">
			<stop  offset="0" style="stop-color:#FDF53F"/>
			<stop  offset="0.66" style="stop-color:#E57A58"/>
			<stop  offset="1" style="stop-color:#D93C65"/>
		</linearGradient>
		<rect x="2046.3" y="1285.2" class="st9" width="67.8" height="625.4"/>
		
			<linearGradient id="SVGID_7_" gradientUnits="userSpaceOnUse" x1="2268.0652" y1="1625.1215" x2="2033.0651" y2="-49.2086" gradientTransform="matrix(1 0 0 -1 0 2798.6609)">
			<stop  offset="0" style="stop-color:#FDF53F"/>
			<stop  offset="0.66" style="stop-color:#E57A58"/>
			<stop  offset="1" style="stop-color:#D93C65"/>
		</linearGradient>
		<rect x="2159.5" y="1500.1" class="st10" width="67.8" height="410.5"/>
		
			<linearGradient id="SVGID_8_" gradientUnits="userSpaceOnUse" x1="2342.5356" y1="1614.67" x2="2107.5457" y2="-59.66" gradientTransform="matrix(1 0 0 -1 0 2798.6609)">
			<stop  offset="0" style="stop-color:#FDF53F"/>
			<stop  offset="0.66" style="stop-color:#E57A58"/>
			<stop  offset="1" style="stop-color:#D93C65"/>
		</linearGradient>
		<rect x="2272.8" y="968.9" class="st11" width="67.8" height="941.7"/>
		
			<linearGradient id="SVGID_9_" gradientUnits="userSpaceOnUse" x1="2502.7976" y1="1592.1711" x2="2267.8076" y2="-82.1588" gradientTransform="matrix(1 0 0 -1 0 2798.6609)">
			<stop  offset="0" style="stop-color:#FDF53F"/>
			<stop  offset="0.66" style="stop-color:#E57A58"/>
			<stop  offset="1" style="stop-color:#D93C65"/>
		</linearGradient>
		<rect x="2386" y="1684.4" class="st12" width="67.8" height="226.2"/>
		
			<linearGradient id="SVGID_10_" gradientUnits="userSpaceOnUse" x1="2573.2463" y1="1582.2914" x2="2338.2563" y2="-92.0385" gradientTransform="matrix(1 0 0 -1 0 2798.6609)">
			<stop  offset="0" style="stop-color:#FDF53F"/>
			<stop  offset="0.66" style="stop-color:#E57A58"/>
			<stop  offset="1" style="stop-color:#D93C65"/>
		</linearGradient>
		<rect x="2499.2" y="1094.8" class="st13" width="67.8" height="815.8"/>
		
			<linearGradient id="SVGID_11_" gradientUnits="userSpaceOnUse" x1="2694.0029" y1="1565.3405" x2="2459.0027" y2="-108.9895" gradientTransform="matrix(1 0 0 -1 0 2798.6609)">
			<stop  offset="0" style="stop-color:#FDF53F"/>
			<stop  offset="0.66" style="stop-color:#E57A58"/>
			<stop  offset="1" style="stop-color:#D93C65"/>
		</linearGradient>
		<rect x="2612.4" y="1236.1" class="st14" width="67.8" height="674.6"/>
		
			<linearGradient id="SVGID_12_" gradientUnits="userSpaceOnUse" x1="2815.5894" y1="1548.2809" x2="2580.5994" y2="-126.059" gradientTransform="matrix(1 0 0 -1 0 2798.6609)">
			<stop  offset="0" style="stop-color:#FDF53F"/>
			<stop  offset="0.66" style="stop-color:#E57A58"/>
			<stop  offset="1" style="stop-color:#D93C65"/>
		</linearGradient>
		<rect x="2725.6" y="1389.6" class="st15" width="67.8" height="521"/>
		<path class="st16" d="M1003.3,656.9c-88.1,0-159.5,71.4-159.5,159.5c0,88.1,71.4,159.5,159.5,159.5s159.5-71.4,159.5-159.5
			c0,0,0,0,0,0C1162.8,728.4,1091.4,656.9,1003.3,656.9C1003.3,656.9,1003.3,656.9,1003.3,656.9z M1003.3,907.3
			c-50.2,0-90.9-40.7-90.9-90.9c0-50.2,40.7-90.9,90.9-90.9c50.2,0,90.9,40.7,90.9,90.9c0,0,0,0,0,0
			C1094.2,866.7,1053.5,907.3,1003.3,907.3z"/>
		<g>
			<defs>
				<path id="SVGID_13_" d="M1003.3,656.9c-88.1,0-159.5,71.4-159.5,159.5c0,88.1,71.4,159.5,159.5,159.5s159.5-71.4,159.5-159.5
					c0,0,0,0,0,0C1162.8,728.4,1091.4,656.9,1003.3,656.9C1003.3,656.9,1003.3,656.9,1003.3,656.9z M1003.3,907.3
					c-50.2,0-90.9-40.7-90.9-90.9c0-50.2,40.7-90.9,90.9-90.9c50.2,0,90.9,40.7,90.9,90.9c0,0,0,0,0,0
					C1094.2,866.7,1053.5,907.3,1003.3,907.3z"/>
			</defs>
			<clipPath id="SVGID_14_">
				<use xlink:href="#SVGID_13_"  style="overflow:visible;"/>
			</clipPath>
			<g class="st17">
				
					<linearGradient id="SVGID_15_" gradientUnits="userSpaceOnUse" x1="1024.1194" y1="2113.4209" x2="1002.2394" y2="1470.161" gradientTransform="matrix(1 0 0 -1 0 2798.6609)">
					<stop  offset="0" style="stop-color:#FDF53F"/>
					<stop  offset="1" style="stop-color:#D93C65"/>
				</linearGradient>
				<rect x="780.5" y="781.4" class="st18" width="473.9" height="200.5"/>
			</g>
		</g>
		<path class="st16" d="M1392.1,656.9c-88.1,0-159.5,71.4-159.5,159.5S1304,976,1392.1,976s159.5-71.4,159.5-159.5c0,0,0,0,0,0
			C1551.7,728.4,1480.3,656.9,1392.1,656.9C1392.2,656.9,1392.2,656.9,1392.1,656.9z M1392.1,907.3c-50.2,0-90.9-40.6-90.9-90.8
			s40.6-90.9,90.8-90.9s90.9,40.6,90.9,90.8c0,0,0,0,0,0.1C1483,866.6,1442.3,907.3,1392.1,907.3z"/>
		<g>
			<defs>
				<path id="SVGID_16_" d="M1392.1,656.9c-88.1,0-159.5,71.4-159.5,159.5S1304,976,1392.1,976s159.5-71.4,159.5-159.5c0,0,0,0,0,0
					C1551.7,728.4,1480.3,656.9,1392.1,656.9C1392.2,656.9,1392.2,656.9,1392.1,656.9z M1392.1,907.3c-50.2,0-90.9-40.6-90.9-90.8
					s40.6-90.9,90.8-90.9s90.9,40.6,90.9,90.8c0,0,0,0,0,0.1C1483,866.6,1442.3,907.3,1392.1,907.3z"/>
			</defs>
			<clipPath id="SVGID_17_">
				<use xlink:href="#SVGID_16_"  style="overflow:visible;"/>
			</clipPath>
			<g class="st19">
				
					<linearGradient id="SVGID_18_" gradientUnits="userSpaceOnUse" x1="1411.2238" y1="2100.2607" x2="1389.3438" y2="1457.0009" gradientTransform="matrix(1 0 0 -1 0 2798.6609)">
					<stop  offset="0" style="stop-color:#FDF53F"/>
					<stop  offset="1" style="stop-color:#D93C65"/>
				</linearGradient>
				<rect x="1169.4" y="703.9" class="st20" width="473.9" height="278"/>
			</g>
		</g>
		<path class="st16" d="M1781,656.9c-88.1,0-159.5,71.4-159.5,159.5c0,88.1,71.4,159.5,159.5,159.5c88.1,0,159.5-71.4,159.5-159.5
			c0,0,0,0,0,0C1940.5,728.4,1869.1,656.9,1781,656.9C1781,656.9,1781,656.9,1781,656.9z M1781,907.3c-50.2,0-90.9-40.7-90.9-90.9
			s40.7-90.9,90.9-90.9c50.2,0,90.9,40.7,90.9,90.9c0,0,0,0,0,0C1871.9,866.7,1831.2,907.3,1781,907.3z"/>
		<g>
			<defs>
				<path id="SVGID_19_" d="M1781,656.9c-88.1,0-159.5,71.4-159.5,159.5c0,88.1,71.4,159.5,159.5,159.5
					c88.1,0,159.5-71.4,159.5-159.5c0,0,0,0,0,0C1940.5,728.4,1869.1,656.9,1781,656.9C1781,656.9,1781,656.9,1781,656.9z
					 M1781,907.3c-50.2,0-90.9-40.7-90.9-90.9s40.7-90.9,90.9-90.9c50.2,0,90.9,40.7,90.9,90.9c0,0,0,0,0,0
					C1871.9,866.7,1831.2,907.3,1781,907.3z"/>
			</defs>
			<clipPath id="SVGID_20_">
				<use xlink:href="#SVGID_19_"  style="overflow:visible;"/>
			</clipPath>
			<g class="st21">
				
					<linearGradient id="SVGID_21_" gradientUnits="userSpaceOnUse" x1="1802.6642" y1="2086.9409" x2="1780.7842" y2="1443.6808" gradientTransform="matrix(1 0 0 -1 0 2798.6609)">
					<stop  offset="0" style="stop-color:#FDF53F"/>
					<stop  offset="1" style="stop-color:#D93C65"/>
				</linearGradient>
				<rect x="1558.2" y="881.7" class="st22" width="473.9" height="100.3"/>
			</g>
		</g>
		<path class="st23" d="M1904.8,1939.3l-976.3-7.3c-19.3-0.1-34.8-15.8-34.8-35.1v-501.7c0-19.4,15.7-35.1,35.1-35.1c0,0,0,0,0,0
			H1905c19.4,0,35.1,15.7,35.1,35.1v0v509c0,19.4-15.7,35.1-35.1,35C1904.9,1939.3,1904.8,1939.3,1904.8,1939.3z"/>
		<path class="st24" d="M1753.3,1586.7L1627.8,1454l-180,195.8l-127-137.1l-119.2,134.6l-91.3-111l-180,187.4v135.6
			c0,17.9,14.4,32.5,32.3,32.6l908.1,6.8c18,0.1,32.7-14.3,32.9-32.4c0-0.1,0-0.2,0-0.3v-368.8L1753.3,1586.7z"/>
		<rect x="1754.1" y="1583" class="st3" width="3.3" height="315.8"/>
		
			<linearGradient id="SVGID_22_" gradientUnits="userSpaceOnUse" x1="2066.3506" y1="1900.6857" x2="1046.4404" y2="92.6658" gradientTransform="matrix(1 0 0 -1 0 2798.6609)">
			<stop  offset="0" style="stop-color:#53D8FF"/>
			<stop  offset="1" style="stop-color:#3840F7"/>
		</linearGradient>
		<rect x="1626.1" y="1453.9" class="st25" width="3.3" height="443"/>
		
			<linearGradient id="SVGID_23_" gradientUnits="userSpaceOnUse" x1="1970.8811" y1="1954.5354" x2="950.9709" y2="146.5256" gradientTransform="matrix(1 0 0 -1 0 2798.6609)">
			<stop  offset="0" style="stop-color:#53D8FF"/>
			<stop  offset="1" style="stop-color:#3840F7"/>
		</linearGradient>
		<rect x="1446.1" y="1647.4" class="st26" width="3.3" height="248.3"/>
		
			<linearGradient id="SVGID_24_" gradientUnits="userSpaceOnUse" x1="1849.3151" y1="2023.1174" x2="829.4052" y2="215.0974" gradientTransform="matrix(1 0 0 -1 0 2798.6609)">
			<stop  offset="0" style="stop-color:#53D8FF"/>
			<stop  offset="1" style="stop-color:#3840F7"/>
		</linearGradient>
		<rect x="1322.5" y="1517.6" class="st27" width="3.3" height="378.1"/>
		
			<linearGradient id="SVGID_25_" gradientUnits="userSpaceOnUse" x1="1783.2926" y1="2060.3589" x2="763.3824" y2="252.339" gradientTransform="matrix(1 0 0 -1 0 2798.6609)">
			<stop  offset="0" style="stop-color:#53D8FF"/>
			<stop  offset="1" style="stop-color:#3840F7"/>
		</linearGradient>
		<rect x="1199.9" y="1643.3" class="st28" width="3.3" height="252.3"/>
		
			<linearGradient id="SVGID_26_" gradientUnits="userSpaceOnUse" x1="1690.0359" y1="2112.9626" x2="670.1258" y2="304.9427" gradientTransform="matrix(1 0 0 -1 0 2798.6609)">
			<stop  offset="0" style="stop-color:#53D8FF"/>
			<stop  offset="1" style="stop-color:#3840F7"/>
		</linearGradient>
		<rect x="1110.5" y="1527" class="st29" width="3.3" height="366.2"/>
		
			<linearGradient id="SVGID_27_" gradientUnits="userSpaceOnUse" x1="1141.386" y1="1365.832" x2="992.7059" y2="916.332" gradientTransform="matrix(1 0 0 -1 0 2798.6609)">
			<stop  offset="0" style="stop-color:#FDF53F"/>
			<stop  offset="1" style="stop-color:#D93C65"/>
		</linearGradient>
		<path class="st30" d="M1147.2,1522.4c0,19.6-15.9,35.4-35.4,35.4c-19.6,0-35.4-15.9-35.4-35.4c0-19.6,15.9-35.4,35.4-35.4
			C1131.3,1487,1147.2,1502.9,1147.2,1522.4L1147.2,1522.4z"/>
		
			<linearGradient id="SVGID_28_" gradientUnits="userSpaceOnUse" x1="1225.8672" y1="1225.2247" x2="1121.1672" y2="908.6747" gradientTransform="matrix(1 0 0 -1 0 2798.6609)">
			<stop  offset="0" style="stop-color:#FDF53F"/>
			<stop  offset="1" style="stop-color:#D93C65"/>
		</linearGradient>
		<path class="st31" d="M1230,1636.6c0,13.8-11.2,25-25,25c-13.8,0-25-11.2-25-25s11.2-25,25-25c0,0,0,0,0,0
			C1218.8,1611.6,1230,1622.7,1230,1636.6C1230,1636.5,1230,1636.5,1230,1636.6z"/>
		
			<linearGradient id="SVGID_29_" gradientUnits="userSpaceOnUse" x1="1347.8833" y1="1349.6528" x2="1236.8833" y2="1014.1028" gradientTransform="matrix(1 0 0 -1 0 2798.6609)">
			<stop  offset="0" style="stop-color:#FDF53F"/>
			<stop  offset="1" style="stop-color:#D93C65"/>
		</linearGradient>
		<path class="st32" d="M1352.2,1515.9c0,14.6-11.8,26.5-26.4,26.5s-26.4-11.8-26.5-26.4c0-14.6,11.8-26.5,26.4-26.5c0,0,0,0,0,0
			C1340.4,1489.4,1352.2,1501.3,1352.2,1515.9z"/>
		
			<linearGradient id="SVGID_30_" gradientUnits="userSpaceOnUse" x1="1474.33" y1="1219.1106" x2="1372.08" y2="909.9707" gradientTransform="matrix(1 0 0 -1 0 2798.6609)">
			<stop  offset="0" style="stop-color:#FDF53F"/>
			<stop  offset="1" style="stop-color:#D93C65"/>
		</linearGradient>
		<path class="st33" d="M1478.3,1641.2c0,13.5-10.9,24.4-24.4,24.4c-13.5,0-24.4-10.9-24.4-24.4c0-13.5,10.9-24.4,24.4-24.4
			c0,0,0,0,0,0C1467.4,1616.8,1478.3,1627.7,1478.3,1641.2z"/>
		
			<linearGradient id="SVGID_31_" gradientUnits="userSpaceOnUse" x1="1646.8939" y1="1404.5626" x2="1554.1039" y2="1124.0526" gradientTransform="matrix(1 0 0 -1 0 2798.6609)">
			<stop  offset="0" style="stop-color:#FDF53F"/>
			<stop  offset="1" style="stop-color:#D93C65"/>
		</linearGradient>
		<path class="st34" d="M1650.5,1450c0,12.2-9.9,22.1-22.1,22.1s-22.1-9.9-22.1-22.1s9.9-22.1,22.1-22.1c0,0,0,0,0,0
			C1640.6,1427.9,1650.5,1437.8,1650.5,1450z"/>
		<circle class="st2" cx="1760.2" cy="1578.4" r="22.7"/>
		<g class="st35">
			<path class="st3" d="M1168.2,1209.7H895.5c-11.4,0-20.6,6.4-20.6,14.4s9.2,14.4,20.6,14.4h272.7c11.4,0,20.7-6.4,20.7-14.4
				S1179.6,1209.7,1168.2,1209.7z"/>
			<path class="st3" d="M1168.2,1146H895.5c-11.4,0-20.6,6.4-20.6,14.4s9.2,14.4,20.6,14.4h272.7c11.4,0,20.7-6.4,20.7-14.4
				S1179.6,1146,1168.2,1146z"/>
			<path class="st3" d="M1168.2,1082.3H895.5c-11.4,0-20.6,6.4-20.6,14.4s9.2,14.4,20.6,14.4h272.7c11.4,0,20.7-6.4,20.7-14.4
				S1179.6,1082.3,1168.2,1082.3z"/>
		</g>
		<g class="st35">
			<path class="st3" d="M1547.3,1209.7h-272.7c-11.4,0-20.7,6.4-20.7,14.4s9.3,14.4,20.7,14.4h272.7c11.4,0,20.7-6.4,20.7-14.4
				S1558.7,1209.7,1547.3,1209.7z"/>
			<path class="st3" d="M1547.3,1146h-272.7c-11.4,0-20.7,6.4-20.7,14.4s9.3,14.4,20.7,14.4h272.7c11.4,0,20.7-6.4,20.7-14.4
				S1558.7,1146,1547.3,1146z"/>
			<path class="st3" d="M1547.3,1082.3h-272.7c-11.4,0-20.7,6.4-20.7,14.4s9.3,14.4,20.7,14.4h272.7c11.4,0,20.7-6.4,20.7-14.4
				S1558.7,1082.3,1547.3,1082.3z"/>
		</g>
		<g class="st35">
			<path class="st3" d="M1926.4,1209.7h-272.7c-11.4,0-20.7,6.4-20.7,14.4s9.2,14.4,20.7,14.4h272.7c11.4,0,20.7-6.4,20.7-14.4
				S1937.8,1209.7,1926.4,1209.7z"/>
			<path class="st3" d="M1926.4,1146h-272.7c-11.4,0-20.7,6.4-20.7,14.4s9.2,14.4,20.7,14.4h272.7c11.4,0,20.7-6.4,20.7-14.4
				S1937.8,1146,1926.4,1146z"/>
			<path class="st3" d="M1926.4,1082.3h-272.7c-11.4,0-20.7,6.4-20.7,14.4s9.2,14.4,20.7,14.4h272.7c11.4,0,20.7-6.4,20.7-14.4
				S1937.8,1082.3,1926.4,1082.3z"/>
		</g>
		
			<ellipse transform="matrix(0.7071 -0.7071 0.7071 0.7071 -4.025 2480.5632)" class="st36" cx="2992.3" cy="1245.1" rx="132.4" ry="132.4"/>
		
			<linearGradient id="SVGID_32_" gradientUnits="userSpaceOnUse" x1="3172.605" y1="1720.2634" x2="2711.0449" y2="1282.2234" gradientTransform="matrix(1 0 0 -1 0 2798.6609)">
			<stop  offset="0" style="stop-color:#53D8FF"/>
			<stop  offset="1" style="stop-color:#3840F7"/>
		</linearGradient>
		<path class="st37" d="M3071,1217.2c17.8,43.4-2.9,93.1-46.4,110.9s-93.1-2.9-110.9-46.4c-17.8-43.4,2.9-93.1,46.4-110.9
			c10.2-4.2,21.2-6.4,32.3-6.4c1.4,0,2.9,0,4.3,0.1V1143c-1.4-0.1-2.8-0.1-4.3-0.1c-58.8,0-106.5,47.8-106.4,106.6
			c0,58.8,47.8,106.5,106.6,106.4c58.8,0,106.5-47.8,106.4-106.6c0-14-2.8-27.8-8.1-40.8L3071,1217.2z"/>
		<path class="st38" d="M3101.1,1433.6h-215.7c-13.5-0.5-24.9,10-25.5,23.5c-0.5,13.5,10,24.9,23.5,25.5c0.7,0,1.3,0,2,0h215.7
			c13.5-0.5,24.1-12,23.5-25.5C3124.1,1444.3,3113.9,1434.1,3101.1,1433.6L3101.1,1433.6z"/>
		<circle class="st36" cx="2991.7" cy="819.6" r="132.4"/>
		
			<linearGradient id="SVGID_33_" gradientUnits="userSpaceOnUse" x1="3142.002" y1="2119.1477" x2="2732.272" y2="1730.2977" gradientTransform="matrix(1 0 0 -1 0 2798.6609)">
			<stop  offset="0" style="stop-color:#53D8FF"/>
			<stop  offset="1" style="stop-color:#3840F7"/>
		</linearGradient>
		<path class="st39" d="M3036.7,895.9c-39.8,25-92.2,12.9-117.2-26.8c-25-39.8-12.9-92.2,26.8-117.2c13.5-8.5,29.1-13,45.1-13
			c1.4,0,2.9,0,4.3,0.1v-21.5c-1.4,0-2.9-0.1-4.3-0.1c-58.9,0-106.6,47.7-106.6,106.6c0,58.9,47.7,106.6,106.6,106.6
			c19.8,0,39.2-5.5,56-15.9L3036.7,895.9z"/>
		<path class="st38" d="M3101.7,1008.1H2886c-13.5-0.5-24.9,10-25.5,23.5c-0.5,13.5,10,24.9,23.5,25.5c0.7,0,1.3,0,2,0h215.7
			c13.5-0.5,24.1-12,23.5-25.5C3124.7,1018.8,3114.5,1008.6,3101.7,1008.1L3101.7,1008.1z"/>
		<circle class="st36" cx="2992.8" cy="1672.8" r="132.4"/>
		
			<linearGradient id="SVGID_34_" gradientUnits="userSpaceOnUse" x1="3236.6575" y1="1377.1823" x2="4040.1575" y2="2211.1924" gradientTransform="matrix(1 0 0 -1 0 2798.6609)">
			<stop  offset="0" style="stop-color:#53D8FF"/>
			<stop  offset="1" style="stop-color:#3840F7"/>
		</linearGradient>
		<path class="st40" d="M3064.9,1720.6c-26.4,38.8-79.3,48.8-118.1,22.4s-48.8-79.3-22.4-118.1c15.8-23.2,42.1-37.1,70.2-37.2
			c1.4,0,2.9,0,4.3,0.1v-21.6c-1.4,0-2.9-0.1-4.3-0.1c-58.9,0-106.6,47.7-106.6,106.6c0,58.9,47.7,106.6,106.6,106.6
			c35.1,0,67.9-17.3,87.8-46.2L3064.9,1720.6z"/>
		<path class="st38" d="M2884.9,1906h215.7c13.5-0.5,24.1-12,23.5-25.5c-0.5-12.8-10.7-23-23.5-23.5h-215.7
			c-13.5,0.5-24.1,12-23.5,25.5C2861.9,1895.3,2872.1,1905.5,2884.9,1906z"/>
		<path class="st2" d="M2346.1,1406.3c15.2,1.1,28.6-14.5,51.8-42.3c16.5-19.8,21.2-31.4,25.2-35.7c3.6-3.8,17.6-21.4,10.6-26.7
			c0,0-7.6-3.8-11.1-5.1c-3-1.3-6.4-1.2-9.4,0.1c-2.4,1.3-25,15.6-25,15.6s-25.9,14.6-38,24.3c-12.1,9.7-30.3,24.1-34.5,31.9
			c-3.5,6.5-1.7,13.6,2.4,19.9c3.8,6,9.1,10.9,15.4,14.3C2337.4,1404.6,2341.7,1405.8,2346.1,1406.3z"/>
		<path class="st2" d="M2388.8,1313c5.7,1.4,10.7,1.8,14.6,3.6c0,0,0.1,0.1,0.2,0.1c4.4,2,8.5,4.6,12.1,7.8c1.7-1.7,3.4-3.4,5.1-5.1
			c-15.8-14-24.4-10.9-24.4-10.9C2393.1,1310.4,2392.1,1311.1,2388.8,1313z"/>
		
			<linearGradient id="SVGID_35_" gradientUnits="userSpaceOnUse" x1="-1744.3114" y1="1304.647" x2="-1744.3114" y2="1304.647" gradientTransform="matrix(-1 -2.000000e-02 2.000000e-02 -1 628.9244 2575.4307)">
			<stop  offset="0" style="stop-color:#E38DDD"/>
			<stop  offset="1" style="stop-color:#9571F6"/>
		</linearGradient>
		<path class="st41" d="M2399.3,1305.7L2399.3,1305.7z"/>
		
			<linearGradient id="SVGID_36_" gradientUnits="userSpaceOnUse" x1="-1757.3091" y1="1308.5878" x2="-1767.2474" y2="1288.1611" gradientTransform="matrix(-1 -2.000000e-02 2.000000e-02 -1 628.9244 2575.4307)">
			<stop  offset="0" style="stop-color:#2B3582"/>
			<stop  offset="1" style="stop-color:#150E42"/>
		</linearGradient>
		<path class="st42" d="M2396.2,1308.6c8.9,1.2,17.2,5.2,23.8,11.4c1.2-1.2,9.8-9.1,12.1-13.2c0.4-0.6,0.6-1.4,0.6-2.1
			c0-1.3-1.6-2.8-6.7-5.2c-2.2-1-4.4-1.9-6.7-2.6c-1.3-0.4-2.6-0.4-3.9,0.2C2414.5,1297.4,2407.5,1302,2396.2,1308.6z"/>
		
			<linearGradient id="SVGID_37_" gradientUnits="userSpaceOnUse" x1="-1731.2084" y1="1292.2673" x2="-1737.6487" y2="1279.0366" gradientTransform="matrix(-1 -2.000000e-02 2.000000e-02 -1 628.9244 2575.4307)">
			<stop  offset="0" style="stop-color:#2B3582"/>
			<stop  offset="1" style="stop-color:#150E42"/>
		</linearGradient>
		<path class="st43" d="M2371.8,1326c0.9,1.8,3.7,3.5,9.4,6.7l22.3-16.1c-3.4-1.7-6.9-3-10.6-4.1c-1.4-0.4-3-0.2-4.3,0.6
			c-7.9,4.7-14.9,8.8-14.9,8.8S2370.7,1323.8,2371.8,1326z"/>
		
			<linearGradient id="SVGID_38_" gradientUnits="userSpaceOnUse" x1="-1741.0713" y1="1287.413" x2="-1749.2017" y2="1270.703" gradientTransform="matrix(-1 -2.000000e-02 2.000000e-02 -1 628.9244 2575.4307)">
			<stop  offset="0" style="stop-color:#2B3582"/>
			<stop  offset="1" style="stop-color:#150E42"/>
		</linearGradient>
		<path class="st44" d="M2381,1332.6c1.4,0.8,5.8,3.3,7,3.9c6.4,3.3,11.8,2.6,15.9-1.1c0.9-0.8,6.2-5.4,11.8-11
			c-3.7-3.1-7.7-5.7-12.1-7.8l-1.1-0.5L2381,1332.6z"/>
		<path class="st38" d="M2403.2,1330.3L2403.2,1330.3l-9.9-1c-0.5,0-0.8-0.5-0.7-0.9c0,0,0,0,0,0c0.1-0.5,0.5-0.8,0.9-0.8l8.7,0.9
			l-1-5.7c-0.1-0.5,0.2-0.9,0.6-1c0,0,0,0,0,0c0.4-0.1,0.9,0.2,1,0.6c0,0,0,0,0,0.1l1.2,6.8c0.1,0.4-0.2,0.9-0.6,1
			C2403.4,1330.3,2403.3,1330.3,2403.2,1330.3L2403.2,1330.3z"/>
		<path class="st38" d="M2385.8,1324.2L2385.8,1324.2c-0.5,0-0.8-0.4-0.8-0.9c0,0,0,0,0,0l0.3-4.6c0-0.4,0.3-0.7,0.8-0.8l5.5-0.6
			c0.5,0,0.9,0.3,0.9,0.7c0,0.5-0.3,0.9-0.7,0.9l0,0l-4.8,0.5l-0.2,3.9C2386.7,1323.9,2386.3,1324.2,2385.8,1324.2
			C2385.8,1324.2,2385.8,1324.2,2385.8,1324.2z"/>
		
			<linearGradient id="SVGID_39_" gradientUnits="userSpaceOnUse" x1="2756.7942" y1="1439.7594" x2="2698.1541" y2="1248.0994" gradientTransform="matrix(-1 0 0 -1 4919.2578 2798.6609)">
			<stop  offset="0" style="stop-color:#F9B776"/>
			<stop  offset="1" style="stop-color:#F47960"/>
		</linearGradient>
		<path class="st45" d="M2059.3,1487.7c0,0,136,49.2,199.8,25.9c2.8-1,5.5-2.2,8.1-3.6c59.5-31.4,66.8-116.4,66.8-116.4l26.7,5.3
			c0,0,8.7,136.6-84.9,195.3c-46.1,28.9-116.9,38.9-225.8,4.5L2059.3,1487.7z"/>
		
			<linearGradient id="SVGID_40_" gradientUnits="userSpaceOnUse" x1="2819.0437" y1="1492.1595" x2="2750.1836" y2="1267.1095" gradientTransform="matrix(1 0 0 -1 -425.78 2798.6609)">
			<stop  offset="0" style="stop-color:#F9B776"/>
			<stop  offset="1" style="stop-color:#F47960"/>
		</linearGradient>
		<path class="st46" d="M2335.3,1401l-1.3-7.4c0,0-5.6-18.1,9.2-35.9c21.3-25.7,36.9-16.3,36.9-16.3c-0.7,3.4-1,6.9-1,10.4
			c0.1,2.5,2.2,4.5,4.7,4.5c1.1,0,2.2-0.5,3-1.2l34.8-31.9c0,0,9.7,50.7-64.8,85.6L2335.3,1401z"/>
		
			<linearGradient id="SVGID_41_" gradientUnits="userSpaceOnUse" x1="2824.333" y1="1516.9141" x2="3165.293" y2="1046.4541" gradientTransform="matrix(-1 0 0 -1 4919.2578 2798.6609)">
			<stop  offset="0" style="stop-color:#2B3582"/>
			<stop  offset="1" style="stop-color:#150E42"/>
		</linearGradient>
		<path class="st47" d="M1947,1310.9c0,0,5.7,11.3-31.3,29.1c-20.6,9.9-60.6,24.5-65.9,67.1c-2.7,22-19,39.7-40.9,43
			c-54.6,8.4-138.8,36.7-152.3,131.6c-10.3,72.4,26.6,99.8,65.3,109.3c28.4,7,47.3,34.6,41.6,63.4c-5.5,27.5,2.7,59.4,50.4,84.6
			c106.9,56.4,213.7-133.7,213.7-133.7l21.9-331.9L1947,1310.9z"/>
		<path class="st2" d="M1695.6,2602.5l-4.4,36c-0.8,6.8-6.2,12.2-13.1,13c-11.6,1.3-30.1,2.7-48.2,0.8c-7-0.8-12-7.1-11.2-14.1
			c0.1-0.8,0.3-1.6,0.5-2.4c4.4-13.9,12.5-34.8,24.2-47.1h40c6.8,0,12.3,5.5,12.3,12.4C1695.7,2601.5,1695.7,2602,1695.6,2602.5z"/>
		
			<linearGradient id="SVGID_42_" gradientUnits="userSpaceOnUse" x1="-1122.3884" y1="-126.2975" x2="-1011.4482" y2="1170.2324" gradientTransform="matrix(-1 0 0 -1 899.0477 2798.6609)">
			<stop  offset="0" style="stop-color:#F9B776"/>
			<stop  offset="1" style="stop-color:#F47960"/>
		</linearGradient>
		<path class="st48" d="M2008.8,2180.2l6.8,39.7c0,0-22.6,228.9-26.6,320.5c-0.6,14.3,3.1,28.6,10.6,40.8l39.3,63.8l-99.8-58.9
			l-2-12.2l16.3-22.5l-21.5-256.4c-1.2-15.1,1.9-30.2,9-43.5l20.7-38.8L2008.8,2180.2z"/>
		<path class="st2" d="M2045.4,2654.3h-31.9c-6,0-11.6-2.7-15.2-7.5c-9.9-12.9-30.5-38.1-40.4-38.8c-13.3-0.9-11.6,46.2-11.6,46.2
			h-7.4l-9.4-58.5c-2.4-14.7,5-29.3,18.2-36.2l0,0c0,0,3,22.4,19.5,32.3s66.8,45.4,66.8,45.4c4.3-0.5,8.7-0.4,13,0.3
			C2057,2639.4,2055.6,2654.3,2045.4,2654.3z"/>
		
			<linearGradient id="SVGID_43_" gradientUnits="userSpaceOnUse" x1="-899.2393" y1="-145.5874" x2="-788.2693" y2="1151.2825" gradientTransform="matrix(-1 0 0 -1 899.0477 2798.6609)">
			<stop  offset="0" style="stop-color:#F9B776"/>
			<stop  offset="1" style="stop-color:#F47960"/>
		</linearGradient>
		<path class="st49" d="M1872,2199.1c0,0-132.4,251.2-153.4,308.5s-28.4,105.2-28.7,109.7c-0.4,7.1-9.3,13.9-33.5,13.9
			c-12.5,0-18.7-5-21.7-9.9c-2.5-4.2-2.7-9.4-0.5-13.7c7.7-15.5,32-65,41-87.5c10.8-26.8,33.9-148.4,46.6-190.6s27-88.1,82.2-130.4
			C1803.8,2199.1,1841.7,2162,1872,2199.1z"/>
		
			<linearGradient id="SVGID_44_" gradientUnits="userSpaceOnUse" x1="-1119.4692" y1="1179.8123" x2="-1064.3992" y2="668.9022" gradientTransform="matrix(-1 0 0 -1 899.0477 2798.6609)">
			<stop  offset="0" style="stop-color:#FDF53F"/>
			<stop  offset="0.66" style="stop-color:#E57A58"/>
			<stop  offset="1" style="stop-color:#D93C65"/>
		</linearGradient>
		<path class="st50" d="M1955.6,1787.6c34.2-144.7-52.4-226.6-52.4-226.6c43.9-42.1,116.7-65.8,143.6-73.4c6.6-1.9,13.7-0.4,19,3.9
			c23.1,18.7,84.2,72.8,75.1,117c-6.6,31.8-66.7,190.7-66.7,190.7S2018.6,1825.4,1955.6,1787.6z"/>
		<path class="st2" d="M1879.9,1859.2c13.9-41.9,75.7-71.6,75.7-71.6c63,37.9,118.6,11.6,118.6,11.6s12.5,47.7,3.9,91.9
			c-8.6,44.3-62.6,328.9-62.6,328.9c-85.1,17.2-215.9-17.3-215.9-17.3C1853.8,2106.4,1866,1901.1,1879.9,1859.2z"/>
		
			<linearGradient id="SVGID_45_" gradientUnits="userSpaceOnUse" x1="-1134.5295" y1="1151.7008" x2="-1113.6895" y2="1304.1407" gradientTransform="matrix(-1 0 0 -1 899.0477 2798.6609)">
			<stop  offset="0" style="stop-color:#F9B776"/>
			<stop  offset="1" style="stop-color:#F47960"/>
		</linearGradient>
		<path class="st51" d="M1995.2,1389.1l-27.8,124.7c-2.7,11,7.4,9.2,18.5,7.1c18.2-3.4,41.6-10.5,49.5-24.6c0.8-1.5,1.2-3.1,1.4-4.7
			l11.9-86.5c0.9-6.9-2.8-13.5-9.1-16.3l-23-10.2c-7.8-3.5-17,0-20.5,7.9C1995.8,1387.3,1995.5,1388.2,1995.2,1389.1z"/>
		
			<linearGradient id="SVGID_46_" gradientUnits="userSpaceOnUse" x1="-1085.5198" y1="1690.8503" x2="-903.7" y2="2014.4403" gradientTransform="matrix(-0.98 -0.19 0.19 -0.98 680.4922 2897.1956)">
			<stop  offset="0" style="stop-color:#F9B776"/>
			<stop  offset="1" style="stop-color:#F47960"/>
		</linearGradient>
		<path class="st52" d="M2048.4,1275.4c0,0,29.6,20,42.3,71s-7.9,69.2-29.1,68.1c-21.2-1.1-51.8-7.7-78.4-44.2
			S2009.7,1251,2048.4,1275.4z"/>
		
			<linearGradient id="SVGID_47_" gradientUnits="userSpaceOnUse" x1="2856.9998" y1="1574.5417" x2="3213.1399" y2="1083.1417" gradientTransform="matrix(-1 0 0 -1 4919.2578 2798.6609)">
			<stop  offset="0" style="stop-color:#2B3582"/>
			<stop  offset="1" style="stop-color:#150E42"/>
		</linearGradient>
		<path class="st53" d="M2010,1349.7c0,0-10.8-73,49.8-61.8l12.3,12.8c0,0,29.7-33.4-3.2-58.7c-32.8-25.3-78.4-18.8-103.6,27.2
			s-34.4,78.3-13.3,106.9s37,4.1,37,4.1s-9.7-24.7-1.7-35.3s18.4,6.2,18.4,6.2L2010,1349.7z"/>
		
			<linearGradient id="SVGID_48_" gradientUnits="userSpaceOnUse" x1="-1055.9149" y1="1663.7705" x2="-874.0948" y2="1987.3505" gradientTransform="matrix(-0.98 -0.19 0.19 -0.98 680.4922 2897.1956)">
			<stop  offset="0" style="stop-color:#F9B776"/>
			<stop  offset="1" style="stop-color:#F47960"/>
		</linearGradient>
		<path class="st54" d="M2009.6,1363c0,0-5.3-37.6-24.5-26.8s6.9,35.1,17.4,43.4L2009.6,1363z"/>
		
			<linearGradient id="SVGID_49_" gradientUnits="userSpaceOnUse" x1="2945.689" y1="1114.1445" x2="3088.0034" y2="1114.1445" gradientTransform="matrix(-1 0 0 -1 4919.2578 2798.6609)">
			<stop  offset="0" style="stop-color:#F9B776"/>
			<stop  offset="1" style="stop-color:#F47960"/>
		</linearGradient>
		<path class="st55" d="M1902.8,1563.1c0,0-58.9,94.3-70.7,165s100.2,100.2,141.4,58.9l-5.9-29.5c0,0-64.8,11.8-70.7-23.6
			s53-106,53-106S1932.3,1574.9,1902.8,1563.1z"/>
		
			<linearGradient id="SVGID_50_" gradientUnits="userSpaceOnUse" x1="2524.7949" y1="1220.89" x2="2682.345" y2="564.4401" gradientTransform="matrix(1 0 0 -1 -455.03 2798.6609)">
			<stop  offset="0" style="stop-color:#2B3582"/>
			<stop  offset="1" style="stop-color:#150E42"/>
		</linearGradient>
		<path class="st56" d="M1952.1,1847.6l67-234c0.8-2.7,3-4.6,5.8-4.9c12.1-1.4,47.3-5.4,87.9-8.8c48.9-4.1,105.7-7.5,139.7-4.6
			c3.8,0.3,6.6,3.6,6.3,7.4c-0.1,0.9-0.3,1.7-0.7,2.5c-19.3,39-98.7,197.9-138.5,250c-1.3,1.7-3.4,2.7-5.5,2.7l-155.5-1.4
			c-3.8,0-6.8-3.1-6.8-6.9C1951.8,1848.9,1951.9,1848.2,1952.1,1847.6z"/>
		
			<linearGradient id="SVGID_51_" gradientUnits="userSpaceOnUse" x1="2623.4595" y1="1324.3562" x2="2589.9097" y2="1177.0162" gradientTransform="matrix(1 0 0 -1 -455.03 2798.6609)">
			<stop  offset="0" style="stop-color:#53D8FF"/>
			<stop  offset="1" style="stop-color:#3840F7"/>
		</linearGradient>
		<path class="st57" d="M2119.7,1579.6l48.6-8.1c1.9-0.3,3.7,1,4,2.9c0.1,0.6,0,1.1-0.1,1.7l-4.8,14.6c-0.4,1.3-1.5,2.2-2.8,2.4
			l-46.7,6.2c-1.9,0.2-3.6-1.1-3.9-3.1c0-0.4,0-0.8,0.1-1.2l3-12.7C2117.3,1580.9,2118.4,1579.9,2119.7,1579.6z"/>
		
			<linearGradient id="SVGID_52_" gradientUnits="userSpaceOnUse" x1="2605.8784" y1="1262.561" x2="2589.8284" y2="1166.271" gradientTransform="matrix(1 0 0 -1 -455.03 2798.6609)">
			<stop  offset="0" style="stop-color:#53D8FF"/>
			<stop  offset="1" style="stop-color:#3840F7"/>
		</linearGradient>
		<path class="st58" d="M2083.4,1620.8l4-20.8c0.4-2.1,2.1-3.7,4.2-3.9l98.1-10c2.6-0.3,5,1.6,5.3,4.3c0.1,0.5,0,1.1-0.1,1.6
			l-6.2,26c-0.5,2.1-2.3,3.6-4.4,3.7l-95.9,4.8c-2.7,0.1-4.9-1.9-5-4.6C2083.3,1621.5,2083.3,1621.1,2083.4,1620.8z"/>
		
			<linearGradient id="SVGID_53_" gradientUnits="userSpaceOnUse" x1="2416.8425" y1="1047.2236" x2="2506.1089" y2="1047.2236" gradientTransform="matrix(1 0 0 -1 -455.03 2798.6609)">
			<stop  offset="0" style="stop-color:#F9B776"/>
			<stop  offset="1" style="stop-color:#F47960"/>
		</linearGradient>
		<path class="st59" d="M1968.3,1791.1c0,0-9.3-38.4-5.6-52s11.1-31.1,35.4-27.2s53,14.1,53,14.1s-1.4,17.7-19.9,12l11.5,8.9
			c0,0-1.6,14.2-17.3,6.6l10.7,11.8c0,0-6.7,11.7-18.2,4.2S2000.8,1795.7,1968.3,1791.1z"/>
		<path class="st3" d="M1735.2,1648.5c-1.8-0.1-3.6-0.7-5.1-1.8c-25-16.3-38.3-49.9-32.4-81.7c3.6-19.1,13-35.5,26.6-46.3
			c9.7-7.7,21.2-12.3,32.1-16.5c18.4-7,37.4-13.1,56.4-18.3l4.7-1.3c11.1-3,22.6-6,33-11.2c13.3-6.7,23-16.4,27.4-27.3
			c2.7-6.8,3.4-14.3,4.2-21.6c0.9-9,1.9-18.2,6.3-26.1c0.1-0.2,0.4-0.3,0.6-0.2c0,0,0,0,0,0c0.2,0.1,0.3,0.4,0.2,0.6
			c-4.4,7.7-5.3,16.9-6.2,25.7c-0.8,7.4-1.5,15-4.3,21.9c-4.4,11.2-14.3,21-27.8,27.8c-10.5,5.3-22,8.3-33.2,11.3l-4.7,1.3
			c-19,5.1-37.9,11.3-56.3,18.2c-10.9,4.1-22.3,8.8-31.8,16.3c-13.4,10.7-22.8,26.9-26.3,45.8c-5.8,31.5,7.3,64.7,32,80.8
			c1.8,1.2,5.3,2.7,6.8,0.6c0.2-0.2,0.4-0.3,0.7-0.1c0.2,0.2,0.3,0.4,0.1,0.7C1737.6,1648,1736.4,1648.6,1735.2,1648.5z"/>
		<path class="st3" d="M1728.8,1618.5c-0.2,0-0.3-0.1-0.4-0.2c-9.6-14.4-14.7-29.5-14.5-43.8c0.2-16.7,7.9-32.1,20.2-40.4
			c0.2-0.1,0.5,0,0.6,0.2c0.1,0.2,0.1,0.5-0.1,0.6c-12,8.1-19.6,23.3-19.8,39.6c-0.1,14,4.8,29,14.4,43.2c0.1,0.2,0.1,0.5-0.1,0.6
			C1729,1618.5,1728.9,1618.5,1728.8,1618.5z"/>
		
			<linearGradient id="SVGID_54_" gradientUnits="userSpaceOnUse" x1="-3147.2686" y1="437.8642" x2="-3421.4888" y2="-182.7457" gradientTransform="matrix(-1 0 0 -1 40.3575 2798.6609)">
			<stop  offset="0" style="stop-color:#B37CFF"/>
			<stop  offset="1" style="stop-color:#F895E7"/>
		</linearGradient>
		<path class="st60" d="M3283.2,2411.4c7.9,11.8,39.6,278.1,44.5,376.4c0.3,6.4-4.7,11.9-11.2,12.1c-5.9,0.2-11-4-12-9.8
			l-57.8-370.3L3283.2,2411.4z"/>
		
			<linearGradient id="SVGID_55_" gradientUnits="userSpaceOnUse" x1="-2920.9351" y1="337.8515" x2="-3195.1553" y2="-282.7483" gradientTransform="matrix(-1 0 0 -1 40.3575 2798.6609)">
			<stop  offset="0" style="stop-color:#B37CFF"/>
			<stop  offset="1" style="stop-color:#F895E7"/>
		</linearGradient>
		<path class="st61" d="M3029.1,2411.4c-7.9,11.8-39.5,278.1-44.5,376.4c-0.3,6.4,4.7,11.9,11.2,12.1c5.9,0.2,11-4,12-9.8
			l57.8-370.3L3029.1,2411.4z"/>
		
			<linearGradient id="SVGID_56_" gradientUnits="userSpaceOnUse" x1="3164.8811" y1="468.1894" x2="3324.7612" y2="1660.5693" gradientTransform="matrix(1 0 0 -1 0 2798.6609)">
			<stop  offset="0" style="stop-color:#B37CFF"/>
			<stop  offset="1" style="stop-color:#F895E7"/>
		</linearGradient>
		<path class="st62" d="M3331,2390.6v2.9c0.2,20.9-17.8,38-40.4,38.4l-267.1,4.5c-22.2,0.4-40.7-15.7-41.8-36.3l-0.1-2.6
			c-1.1-21.5,17.1-39.5,40.3-39.9l267.2-4.8C3311.9,2352.4,3330.8,2369.4,3331,2390.6z"/>
		
			<linearGradient id="SVGID_57_" gradientUnits="userSpaceOnUse" x1="-2848.8513" y1="21.3462" x2="-2655.1362" y2="21.3462" gradientTransform="matrix(-1 0 0 -1 40.3575 2798.6609)">
			<stop  offset="0" style="stop-color:#A737D5"/>
			<stop  offset="1" style="stop-color:#EF497A"/>
		</linearGradient>
		<path class="st63" d="M2811.3,2778.1c47.5,0,68.5-4.1,77.9-7.8c-1.9,8.2-9.2,14-17.6,13.9h-168c-4.5,0-8.2-3.7-8.2-8.2
			c0-0.7,0.1-1.4,0.3-2.1C2715,2775.5,2755.6,2778.1,2811.3,2778.1z"/>
		<path class="st2" d="M2695.8,2774c0.3-1,0.7-2,1.4-2.9c12.8-16.3,38.5-42,73.5-41.5c51.2,0.7,69.1,6.3,108.9,0.3l9.4,31.1
			c0.9,3,1,6.2,0.3,9.3c-9.4,3.7-30.4,7.8-77.9,7.8C2755.6,2778.1,2715,2775.5,2695.8,2774z"/>
		
			<linearGradient id="SVGID_58_" gradientUnits="userSpaceOnUse" x1="2823.1343" y1="60.3645" x2="3331.1042" y2="372.7847" gradientTransform="matrix(1 0 0 -1 0 2798.6609)">
			<stop  offset="0" style="stop-color:#C4421B"/>
			<stop  offset="1" style="stop-color:#5C0E16"/>
		</linearGradient>
		<path class="st64" d="M2868,2696.4l11.5,39.2c0,0-25.5,11.6-48,2.3l-4.4-34L2868,2696.4z"/>
		
			<linearGradient id="SVGID_59_" gradientUnits="userSpaceOnUse" x1="-2545.0713" y1="59.7252" x2="-2388.6921" y2="59.7252" gradientTransform="matrix(-1 0 0 -1 40.3575 2798.6609)">
			<stop  offset="0" style="stop-color:#A737D5"/>
			<stop  offset="1" style="stop-color:#EF497A"/>
		</linearGradient>
		<path class="st65" d="M2519.9,2753.4c37,29.7,55.9,39.7,65.6,42.7c-6.6,5.2-15.9,5.1-22.4-0.2l-130.9-105.2
			c-3.5-2.8-4.1-7.9-1.3-11.4c0.5-0.6,1-1.1,1.6-1.5C2446.4,2691.1,2476.4,2718.6,2519.9,2753.4z"/>
		<path class="st2" d="M2432.4,2677.9c0.8-0.6,1.8-1.1,2.8-1.4c20.2-4.7,56.2-8.5,83.1,13.8c39.5,32.6,49.9,48.1,84.7,68.4l-12.1,30
			c-1.2,2.9-3.1,5.5-5.6,7.4c-9.6-3-28.6-13-65.6-42.7C2476.4,2718.6,2446.4,2691.1,2432.4,2677.9z"/>
		<path class="st2" d="M3114.6,2249.8c0,0-284.3,23.3-342.6,50.7s47.6,412.2,47.6,412.2s15.9,7.6,51.2-3.3c0,0-36.2-283.9-9.3-345.5
			l307.8-50.3L3114.6,2249.8z"/>
		
			<linearGradient id="SVGID_60_" gradientUnits="userSpaceOnUse" x1="2588.4907" y1="200.2713" x2="2637.9407" y2="-318.9289" gradientTransform="matrix(1 0 0 -1 0 2798.6609)">
			<stop  offset="0" style="stop-color:#C4421B"/>
			<stop  offset="1" style="stop-color:#5C0E16"/>
		</linearGradient>
		<path class="st66" d="M2631.3,2704.7c-2.6,2.4-28.2,54.1-28.2,54.1s-28.5-6.2-34.3-24.2l25.6-46.6L2631.3,2704.7z"/>
		<path class="st2" d="M3285.8,2247.4c6.1,16.6,9.1,34.2,8.9,51.9c-0.5,41-33.5,74.2-74.4,76.3l-336.1,15.3
			c-7.1,0.3-13.1,5.2-14.9,12.1c-7.9,30.5-46.5,124.4-235.2,311.5c-5,5-12.8,5.8-18.8,2.1l-26.9-17c-2.8-1.8-3.7-5.5-2-8.4
			l195.7-334.1c10.3-17,26.8-29.2,46-34.1l286.4-73.2L3285.8,2247.4z"/>
		
			<linearGradient id="SVGID_61_" gradientUnits="userSpaceOnUse" x1="-2938.481" y1="956.9308" x2="-2907.6406" y2="1034.7109" gradientTransform="matrix(-1 0 0 -1 40.3575 2798.6609)">
			<stop  offset="0" style="stop-color:#C4421B"/>
			<stop  offset="1" style="stop-color:#5C0E16"/>
		</linearGradient>
		<path class="st67" d="M2954.6,1725.4c0,0,36,63.7,72.7,94.5l-75.9,42.3c0,0-17.1-67.4-56.1-87.1L2954.6,1725.4z"/>
		
			<linearGradient id="SVGID_62_" gradientUnits="userSpaceOnUse" x1="-3066.052" y1="780.1627" x2="-2726.322" y2="222.4527" gradientTransform="matrix(-1 0 0 -1 40.3575 2798.6609)">
			<stop  offset="0" style="stop-color:#FDF53F"/>
			<stop  offset="0.66" style="stop-color:#E57A58"/>
			<stop  offset="1" style="stop-color:#D93C65"/>
		</linearGradient>
		<path class="st68" d="M3291.9,2249.8c0,0-90.7,22.1-177.3,0c0,0-121.2-162.9-168.1-207.2c0,0-74.8,118-241.2,134.7l-9.3-20.7
			c0,0,132.5-61.1,173.3-154.9s57.2-133.9,94.3-158.4c23.1-15.3,37-25.7,44.1-31.3c3.9-3.1,9.3-3.5,13.6-0.9
			C3060.7,1835,3246,1961.9,3291.9,2249.8z"/>
		
			<linearGradient id="SVGID_63_" gradientUnits="userSpaceOnUse" x1="3040.6465" y1="1166.7114" x2="2864.1265" y2="207.4815" gradientTransform="matrix(1 0 0 -1 0 2798.6609)">
			<stop  offset="0" style="stop-color:#FDF53F"/>
			<stop  offset="0.66" style="stop-color:#E57A58"/>
			<stop  offset="1" style="stop-color:#D93C65"/>
		</linearGradient>
		<path class="st69" d="M2952.8,2035.4l-2.8-1.8l44.8-79.5l3,1.4C2997.7,1956,2981.3,1998.2,2952.8,2035.4z"/>
		
			<linearGradient id="SVGID_64_" gradientUnits="userSpaceOnUse" x1="2651.614" y1="694.0319" x2="2593.1741" y2="359.1318" gradientTransform="matrix(1 0 0 -1 0 2798.6609)">
			<stop  offset="0" style="stop-color:#C4421B"/>
			<stop  offset="1" style="stop-color:#5C0E16"/>
		</linearGradient>
		<path class="st70" d="M2715.3,2145.7l-18.7-5l-56.9-13.2c-6.8-1.6-14-0.4-20,3.4l-48.9,30.8l135.1-0.2L2715.3,2145.7z"/>
		
			<linearGradient id="SVGID_65_" gradientUnits="userSpaceOnUse" x1="-778.3362" y1="1317.2407" x2="-933.196" y2="1198.7406" gradientTransform="matrix(-0.99 -0.13 0.13 -0.99 1938.5118 2882.1528)">
			<stop  offset="0" style="stop-color:#C4421B"/>
			<stop  offset="1" style="stop-color:#5C0E16"/>
		</linearGradient>
		<path class="st71" d="M2897.4,1630c0,0-35,58.2-41.1,90.3s-15.8,52.2,20.8,63.7s70.6-3,91.9-33c0,0,33.3-46.2,30-67.3
			S2897.4,1630,2897.4,1630z"/>
		
			<linearGradient id="SVGID_66_" gradientUnits="userSpaceOnUse" x1="-891.8796" y1="1406.829" x2="-751.6396" y2="1226.2689" gradientTransform="matrix(-0.99 -0.13 0.13 -0.99 1938.5118 2882.1528)">
			<stop  offset="0" style="stop-color:#2B3582"/>
			<stop  offset="1" style="stop-color:#150E42"/>
		</linearGradient>
		<path class="st72" d="M2959.3,1726.1l-4.7-0.6c0,0,24.8-37.4,8.6-46.7s-82.3-32.1-93.7-58.1c-11.1-25.1,5.5-53.4,25.4-59.3
			c1.3-0.3,2.6,0.4,3,1.6l1.2,3.2c0.5,1.3,2,2,3.3,1.5c0.7-0.2,1.2-0.7,1.5-1.4c0.6-1.3,2.1-1.9,3.3-1.3c0.6,0.2,1,0.7,1.3,1.3
			c3.5,7.8,14.1,21.1,45.9,31.4c45.1,14.6,73.2,37.3,69.7,69.4c-0.2,1.4,0.9,2.7,2.3,2.8c0.5,0.1,1,0,1.4-0.2
			c3.7-1.6,9.3-1.9,15.8,5.2c11.3,12.3,2.4,39.3-28.4,58.4c-1.2,0.7-1.6,2.3-0.9,3.5c0.1,0.2,0.3,0.4,0.5,0.6
			c4.6,4,11.1,12.7-9.8,20.6c-21.3,8-33,5.3-37.3,3.6c-1.2-0.5-1.8-1.7-1.6-2.9l5.5-28.1c0.3-1.4-0.7-2.7-2.1-3c0,0-0.1,0-0.1,0
			L2959.3,1726.1z"/>
		
			<linearGradient id="SVGID_67_" gradientUnits="userSpaceOnUse" x1="-795.0525" y1="1344.3282" x2="-949.9224" y2="1225.8282" gradientTransform="matrix(-0.99 -0.13 0.13 -0.99 1938.5118 2882.1528)">
			<stop  offset="0" style="stop-color:#C4421B"/>
			<stop  offset="1" style="stop-color:#5C0E16"/>
		</linearGradient>
		<path class="st73" d="M2955.2,1729.6c0,0,15.4-38.1,31.6-24.7s-15,42.9-29.4,42.6L2955.2,1729.6z"/>
		
			<linearGradient id="SVGID_68_" gradientUnits="userSpaceOnUse" x1="24109.4922" y1="23407.7285" x2="23722.9922" y2="23034.0684" gradientTransform="matrix(1.39 -7.000000e-02 -7.000000e-02 -1.39 1820.7806 3177.708)">
			<stop  offset="0" style="stop-color:#9CFFFB"/>
			<stop  offset="1" style="stop-color:#9BFFFA"/>
		</linearGradient>
		<path class="st74" d="M2767.5,2188.1h-0.7l-288.5-0.3c-7.1,0-12.9-5.8-12.9-12.9c0-7.1,5.8-12.9,12.9-12.9l288.5,0.3
			c7.1-0.1,13,5.6,13,12.7C2779.9,2182.1,2774.4,2187.9,2767.5,2188.1L2767.5,2188.1z"/>
		
			<linearGradient id="SVGID_69_" gradientUnits="userSpaceOnUse" x1="-2650.7065" y1="-38.1589" x2="-2621.8462" y2="-718.8989" gradientTransform="matrix(-1 0 0 -1 40.3575 2798.6609)">
			<stop  offset="0" style="stop-color:#53D8FF"/>
			<stop  offset="1" style="stop-color:#3840F7"/>
		</linearGradient>
		<path class="st75" d="M2639,2202.6c1.3,5.2,121.6,456.8,152.2,571.2c3.1,10.9-3.3,22.2-14.2,25.3c-10.9,3.1-22.2-3.3-25.3-14.2
			c-0.1-0.2-0.1-0.4-0.2-0.7l-133.6-541.9L2639,2202.6z"/>
		
			<linearGradient id="SVGID_70_" gradientUnits="userSpaceOnUse" x1="-2453.3862" y1="-29.7883" x2="-2424.5256" y2="-710.5283" gradientTransform="matrix(-1 0 0 -1 40.3575 2798.6609)">
			<stop  offset="0" style="stop-color:#53D8FF"/>
			<stop  offset="1" style="stop-color:#3840F7"/>
		</linearGradient>
		<path class="st76" d="M2573.1,2202.6c-1.3,5.2-121.7,456.8-152.2,571.2c-3.1,10.9,3.3,22.2,14.2,25.3c10.9,3.1,22.2-3.3,25.3-14.2
			c0.1-0.2,0.1-0.4,0.2-0.7l133.7-541.9L2573.1,2202.6z"/>
		
			<linearGradient id="SVGID_71_" gradientUnits="userSpaceOnUse" x1="-2539.1948" y1="-33.4297" x2="-2510.3352" y2="-714.1697" gradientTransform="matrix(-1 0 0 -1 40.3575 2798.6609)">
			<stop  offset="0" style="stop-color:#53D8FF"/>
			<stop  offset="1" style="stop-color:#3840F7"/>
		</linearGradient>
		<path class="st77" d="M2568.1,2187.9h75v60.2c0.1,8.6-6.9,15.6-15.5,15.7c0,0,0,0,0,0h-10.3V2399c0.2,6.5-4.9,11.9-11.4,12.1
			c-6.5,0.2-11.9-4.9-12.1-11.4c0-0.2,0-0.5,0-0.7v-135.3h-5.2c-11.4-0.1-20.6-9.4-20.6-20.8c0,0,0,0,0,0L2568.1,2187.9z"/>
		
			<linearGradient id="SVGID_72_" gradientUnits="userSpaceOnUse" x1="2650.6267" y1="1109.0612" x2="2590.6768" y2="164.8611" gradientTransform="matrix(1 0 0 -1 0 2798.6609)">
			<stop  offset="0" style="stop-color:#53D8FF"/>
			<stop  offset="1" style="stop-color:#3840F7"/>
		</linearGradient>
		<path class="st78" d="M2827.4,2173.4h-418.7c-5.9,0-11,4-12.4,9.8l-5.9,22.9c-1.8,7,2.4,14,9.4,15.8c1,0.3,2.1,0.4,3.1,0.4
			l429.6-2.5c7.2-0.1,12.9-6.1,12.8-13.2c0-1-0.1-2-0.4-2.9l-5.1-20.4C2838.5,2177.5,2833.3,2173.4,2827.4,2173.4z"/>
		
			<linearGradient id="SVGID_73_" gradientUnits="userSpaceOnUse" x1="-1171.9591" y1="53.1407" x2="-1108.0592" y2="455.0806" gradientTransform="matrix(-1 0 0 -1 -260.7321 2798.6609)">
			<stop  offset="0" style="stop-color:#B37CFF"/>
			<stop  offset="1" style="stop-color:#F895E7"/>
		</linearGradient>
		<rect x="873.4" y="2440.5" class="st79" width="29.6" height="319.7"/>
		
			<linearGradient id="SVGID_74_" gradientUnits="userSpaceOnUse" x1="-1146.4346" y1="49.0815" x2="-1082.5447" y2="451.0216" gradientTransform="matrix(-1 0 0 -1 -260.7323 2798.6609)">
			<stop  offset="0" style="stop-color:#B37CFF"/>
			<stop  offset="1" style="stop-color:#F895E7"/>
		</linearGradient>
		<path class="st80" d="M758.7,2766.4h258.9v-1.4c0-9.9-8-17.9-17.9-17.9c0,0,0,0,0,0H777.9C767.3,2747.1,758.7,2755.7,758.7,2766.4
			z"/>
		
			<linearGradient id="SVGID_75_" gradientUnits="userSpaceOnUse" x1="-1177.7635" y1="336.0425" x2="-1003.1634" y2="580.4827" gradientTransform="matrix(-1 0 0 -1 -260.7323 2798.6609)">
			<stop  offset="0" style="stop-color:#B37CFF"/>
			<stop  offset="1" style="stop-color:#F895E7"/>
		</linearGradient>
		<path class="st81" d="M752,2368.9h262c17.6,0,31.8,14.2,31.8,31.8v28.8c0,17.6-14.2,31.8-31.8,31.8H752
			c-17.6,0-31.8-14.2-31.8-31.8v-28.8C720.2,2383.1,734.5,2368.9,752,2368.9z"/>
		
			<linearGradient id="SVGID_76_" gradientUnits="userSpaceOnUse" x1="-1471.5034" y1="309.0558" x2="-1261.3312" y2="309.0558" gradientTransform="matrix(-1 0 0 -1 -260.7323 2798.6609)">
			<stop  offset="0" style="stop-color:#F9B776"/>
			<stop  offset="1" style="stop-color:#F47960"/>
		</linearGradient>
		<path class="st82" d="M1106.4,2227.3c0,0,43.9,6.8,93.3,39.8c7.8,5.2,12,14.3,10.9,23.5c-5.9,46.9-30.2,198.5-110.4,346.6
			c-4.2,7.8-5.5,16.9-3.6,25.6l13.9,64.8l25.8,24.2h-66.5l-44.3-119.9l19-6c14.7-4.7,24.7-18.2,25-33.6l2.2-128.6
			c-1.9-57.3,35.1-96.8,35.1-96.8l-106.3-5.2L1106.4,2227.3z"/>
		<path class="st2" d="M1162.3,2763.6c6.1,7.9-65.2,18.4-101.3,1c0,0-49.9-86.9-49.9-131.6c0,0,4-9.1,33.3-7.1
			c0,0,16.8,102.9,34.5,114.4s49.5,1.2,49.5,1.2S1153.4,2751.9,1162.3,2763.6z"/>
		
			<linearGradient id="SVGID_77_" gradientUnits="userSpaceOnUse" x1="-1718.3511" y1="294.6967" x2="-1274.7212" y2="294.6967" gradientTransform="matrix(-1 0 0 -1 -260.7323 2798.6609)">
			<stop  offset="0" style="stop-color:#F9B776"/>
			<stop  offset="1" style="stop-color:#F47960"/>
		</linearGradient>
		<path class="st83" d="M1014,2368.9c0.6-1,114.4-13.7,114.4-13.7s-3.7,34.6,7.9,82.3c11.6,47.7,178.8,254.1,178.8,254.1l-17.5,55.6
			c54.2,18.9,107.5,21.9,160,9.6l-108.6-65.2c0,0-101.7-346.4-163.9-408.3l-114.1-39.5L1014,2368.9z"/>
		
			<linearGradient id="SVGID_78_" gradientUnits="userSpaceOnUse" x1="925.0406" y1="421.8929" x2="1003.4207" y2="1153.443" gradientTransform="matrix(1 0 0 -1 0 2798.6609)">
			<stop  offset="0" style="stop-color:#2B3582"/>
			<stop  offset="1" style="stop-color:#150E42"/>
		</linearGradient>
		<path class="st84" d="M758.7,2167.3c0,0-65.6,97.6-71,142.1c-5.4,44.5,18,62.6,86.8,65.6s252.6,2.9,252.6,2.9l156.8-134
			c0,0-114.3-40.8-144-52.3C1010.2,2180,758.7,2167.3,758.7,2167.3z"/>
		<path class="st2" d="M1304.3,2728.4c0,0-18.9,18.3-6.1,38.6c0,0,149.5,26.5,190.1,14.5c0,0-8.4-19.2-54.1-41.1l3.4,2.6
			c2.4,1.8,2.9,5.3,1,7.7c-1.1,1.4-2.8,2.2-4.6,2.1C1403.7,2751,1341.4,2745.5,1304.3,2728.4z"/>
		<path class="st2" d="M976.4,1592.7c-11-1.5-51.7-5.4-59.4,20.7c-1,3.5-5.1,4.8-7.5,2.5c-12.5-11.7-42.1-33.4-76-16.1
			c-29.9,15.3-28.2,44.8-23.8,62.8c1.1,4.3-3.6,8.2-7.1,5.7c-25-17.3-83.1-47.7-122.8,7.3c-37.1,51.3-9.4,85,9.4,100.1
			c3.2,2.6,1.4,8.1-2.7,8.7c-14.2,2-34,10.9-44,43.1c-15.8,50.5,69.8,88.9,79.9,93.2c0.6,0.3,1.3,0.4,2,0.3l176.1-15.9
			c1.4-0.2,2.7-0.9,3.5-2.1l113.1-157c0.9-1.3,1.2-2.8,0.8-4.3l-38-145.8C979.5,1594.2,978.1,1592.9,976.4,1592.7z"/>
		
			<linearGradient id="SVGID_79_" gradientUnits="userSpaceOnUse" x1="-1225.7817" y1="937.5707" x2="-990.0818" y2="424.5706" gradientTransform="matrix(-1 0 0 -1 -260.7323 2798.6609)">
			<stop  offset="0" style="stop-color:#FDF53F"/>
			<stop  offset="0.66" style="stop-color:#E57A58"/>
			<stop  offset="1" style="stop-color:#D93C65"/>
		</linearGradient>
		<path class="st85" d="M936.1,2154.4c0,0,76.4-72.7,114-120.9c20.3-26.1,26.7-60.3,17.3-92c-17.2-57.8-47.7-117.7-50.5-127.1
			c-4.3-14.3-89.9-13.7-89.9-13.7s-168.6,109.4-234.8,294.7l74.4,23.1c0,0,44-73.8,87.5-120.8c0,0-75.2,99.4-77.9,140.1
			L936.1,2154.4z"/>
		
			<linearGradient id="SVGID_80_" gradientUnits="userSpaceOnUse" x1="-1220.1011" y1="903.501" x2="-1242.2813" y2="1045.871" gradientTransform="matrix(-1 0 0 -1 -260.7323 2798.6609)">
			<stop  offset="0" style="stop-color:#F9B776"/>
			<stop  offset="1" style="stop-color:#F47960"/>
		</linearGradient>
		<path class="st86" d="M1027.3,1734.5c-0.9,3-23.3,77.1-25,78.6s-49,4.1-71.3-11.1l37.8-79L1027.3,1734.5z"/>
		
			<linearGradient id="SVGID_81_" gradientUnits="userSpaceOnUse" x1="-1295.5968" y1="2223.7188" x2="-1099.5968" y2="2090.5886" gradientTransform="matrix(-0.74 -0.67 0.67 -0.74 -1358.8424 2484.3616)">
			<stop  offset="0" style="stop-color:#F9B776"/>
			<stop  offset="1" style="stop-color:#F47960"/>
		</linearGradient>
		<path class="st87" d="M1090.5,1630c0,0,18.7,39.6,0.1,101.4c-18.5,61.7-51.8,68.1-73.4,53.7s-49.9-40.6-55-95.8
			C957,1634,1064.9,1579.9,1090.5,1630z"/>
		<path class="st2" d="M1003.3,1684.3c0,0,34.3-83.8,91.3-34.1l4.9,21.2c0,0,52.3-16.7,33.4-63.9c-18.8-47.2-81.1-84.6-136.5-51.9
			c-55.4,32.7-75.2,76.8-70.8,120.2s36.5,27.5,36.5,27.5s5.3-32.2,20.4-38.3s15.6,18,15.6,18L1003.3,1684.3z"/>
		
			<linearGradient id="SVGID_82_" gradientUnits="userSpaceOnUse" x1="-1295.766" y1="2230.2734" x2="-1099.7762" y2="2097.1433" gradientTransform="matrix(-0.74 -0.67 0.67 -0.74 -1358.8424 2484.3616)">
			<stop  offset="0" style="stop-color:#F9B776"/>
			<stop  offset="1" style="stop-color:#F47960"/>
		</linearGradient>
		<path class="st88" d="M992.4,1701.4c0,0,17.9-43-9.1-43.7s-14.7,41.4-8.8,56.7L992.4,1701.4z"/>
		
			<linearGradient id="SVGID_83_" gradientUnits="userSpaceOnUse" x1="-1092.7212" y1="657.0216" x2="-676.0394" y2="657.0216" gradientTransform="matrix(-1 0 0 -1 -260.7323 2798.6609)">
			<stop  offset="0" style="stop-color:#F9B776"/>
			<stop  offset="1" style="stop-color:#F47960"/>
		</linearGradient>
		<path class="st89" d="M1091.7,2159.8l-56.1-54.1l-77.6,32.8c0,0-77.3,12-121.5,0l-44.2-12l-100-31.1l-15.7,44.4
			c-4,11.3,0,23.8,9.8,30.7c8.6,6.1,18.8,12.9,25.3,15.7c13.2,5.8,324.5-4,324.5-4L1091.7,2159.8z"/>
		<path class="st2" d="M879.3,2185.3h0.8l325.6-0.4c8,0,14.6-6.5,14.6-14.5c0-8-6.5-14.6-14.5-14.6c0,0-0.1,0-0.1,0l-325.6,0.4
			c-8-0.1-14.7,6.3-14.8,14.3C865.1,2178.4,871.4,2185,879.3,2185.3L879.3,2185.3z"/>
		
			<linearGradient id="SVGID_84_" gradientUnits="userSpaceOnUse" x1="972.9512" y1="503.481" x2="1558.2112" y2="956.3608" gradientTransform="matrix(1 0 0 -1 0 2798.6609)">
			<stop  offset="0" style="stop-color:#A737D5"/>
			<stop  offset="1" style="stop-color:#EF497A"/>
		</linearGradient>
		<path class="st90" d="M1498.3,1889.7h-271.1c-20,0-38.2,11.5-46.7,29.6l-125.3,265.8H1392c12.9,0,24.5-7.9,29.2-19.9l97.2-245.9
			c4.4-11.1-1.1-23.7-12.2-28.1C1503.7,1890.2,1501,1889.7,1498.3,1889.7z"/>
		<path class="st23" d="M1307.3,2025.9c-5.9,18.3-1.5,36,9.7,39.6c11.2,3.6,25.1-8.3,31-26.5c5.9-18.3,1.5-36-9.7-39.6
			S1313.2,2007.7,1307.3,2025.9z"/>
		
			<linearGradient id="SVGID_85_" gradientUnits="userSpaceOnUse" x1="-1672.5178" y1="255.6088" x2="-1897.2078" y2="-502.0711" gradientTransform="matrix(-1 0 0 -1 -260.7323 2798.6609)">
			<stop  offset="0" style="stop-color:#53D8FF"/>
			<stop  offset="1" style="stop-color:#3840F7"/>
		</linearGradient>
		<path class="st91" d="M1524.4,2798.4c1.6,0,3.2-0.4,4.7-1c5.9-2.4,8.8-9.2,6.3-15.2c0-0.1-0.1-0.1-0.1-0.2l-250-570.9
			c-2.7-6-9.6-8.7-15.7-6.1c-5.9,2.5-8.8,9.3-6.3,15.2c0,0.1,0.1,0.1,0.1,0.2l250,570.9C1515.3,2795.6,1519.6,2798.4,1524.4,2798.4z
			"/>
		
			<linearGradient id="SVGID_86_" gradientUnits="userSpaceOnUse" x1="-1643.4164" y1="246.9827" x2="-1868.1063" y2="-510.6975" gradientTransform="matrix(-1 0 0 -1 -260.7323 2798.6609)">
			<stop  offset="0" style="stop-color:#53D8FF"/>
			<stop  offset="1" style="stop-color:#3840F7"/>
		</linearGradient>
		<path class="st92" d="M1242.7,2798.4c4.8,0,9.1-2.7,11-7.1l250-570.9c2.6-5.9-0.2-12.8-6-15.3c-0.1,0-0.1-0.1-0.2-0.1
			c-6-2.6-13,0.2-15.7,6.1L1231.7,2782c-2.6,5.9,0.2,12.7,6,15.3c0.1,0,0.1,0.1,0.2,0.1C1239.5,2798,1241.1,2798.3,1242.7,2798.4z"
			/>
		
			<linearGradient id="SVGID_87_" gradientUnits="userSpaceOnUse" x1="-1100.8645" y1="86.0819" x2="-1325.5442" y2="-671.588" gradientTransform="matrix(-1 0 0 -1 -260.7323 2798.6609)">
			<stop  offset="0" style="stop-color:#53D8FF"/>
			<stop  offset="1" style="stop-color:#3840F7"/>
		</linearGradient>
		<path class="st93" d="M902.5,2798.4c1.6,0,3.2-0.4,4.7-1c5.9-2.4,8.8-9.2,6.3-15.2c0-0.1-0.1-0.1-0.1-0.2l-250-570.9
			c-2.7-6-9.7-8.7-15.7-6.1c-5.9,2.5-8.8,9.3-6.3,15.2c0,0.1,0.1,0.1,0.1,0.2l250,570.9C893.4,2795.6,897.7,2798.4,902.5,2798.4z"/>
		
			<linearGradient id="SVGID_88_" gradientUnits="userSpaceOnUse" x1="-1071.7882" y1="77.4631" x2="-1296.4781" y2="-680.207" gradientTransform="matrix(-1 0 0 -1 -260.7323 2798.6609)">
			<stop  offset="0" style="stop-color:#53D8FF"/>
			<stop  offset="1" style="stop-color:#3840F7"/>
		</linearGradient>
		<path class="st94" d="M620.8,2798.4c4.8,0,9.1-2.7,11-7.1l250-570.9c2.6-5.9-0.2-12.8-6-15.3c-0.1,0-0.1-0.1-0.2-0.1
			c-6-2.6-13,0.2-15.7,6.1l-250,570.9c-2.6,5.9,0.2,12.7,6,15.3c0.1,0,0.1,0.1,0.2,0.1C617.6,2798,619.2,2798.3,620.8,2798.4z"/>
		
			<linearGradient id="SVGID_89_" gradientUnits="userSpaceOnUse" x1="-1458.1964" y1="192.0505" x2="-1682.8865" y2="-565.6294" gradientTransform="matrix(-1 0 0 -1 -260.7323 2798.6609)">
			<stop  offset="0" style="stop-color:#53D8FF"/>
			<stop  offset="1" style="stop-color:#3840F7"/>
		</linearGradient>
		<path class="st95" d="M597.5,2197.1c-0.5-3.6,0.2-7.3,2-10.4c1.8-2.9,4.4-4.6,7.2-4.6h941.9c3.7,0,7.1,2.5,9,6.7
			c2,4.4,2.2,9.3,0.7,13.9l-10.2,29.9c-2.3,6.8-7.4,11.2-13,11.2H613c-5.2,0-9.6-5-10.6-11.9L597.5,2197.1z"/>
	</g>
</g>
</svg>
