<?xml version="1.0" encoding="utf-8"?>
<!-- Generator: Adobe Illustrator 24.0.1, SVG Export Plug-In . SVG Version: 6.00 Build 0)  -->
<svg version="1.1" id="Layer_1" xmlns="http://www.w3.org/2000/svg" xmlns:xlink="http://www.w3.org/1999/xlink" x="0px" y="0px"
	 viewBox="0 0 4361.5 2900.9" style="enable-background:new 0 0 4361.5 2900.9;" xml:space="preserve">
<style type="text/css">
	.st0{fill:#F4F7FA;}
	.st1{fill:url(#SVGID_1_);}
	.st2{fill:url(#SVGID_2_);}
	.st3{fill:url(#SVGID_3_);}
	.st4{fill:url(#SVGID_4_);}
	.st5{fill:url(#SVGID_5_);}
	.st6{fill:url(#SVGID_6_);}
	.st7{fill:url(#SVGID_7_);}
	.st8{fill:#FFFFFF;}
	.st9{fill:url(#SVGID_8_);}
	.st10{opacity:0.3;fill:url(#SVGID_9_);enable-background:new    ;}
	.st11{opacity:0.48;fill:#FFFFFF;enable-background:new    ;}
	.st12{fill:url(#SVGID_10_);}
	.st13{opacity:0.3;}
	.st14{fill:url(#SVGID_11_);}
	.st15{clip-path:url(#SVGID_13_);}
	.st16{fill:url(#SVGID_14_);}
	.st17{fill:#D8DEE8;}
	.st18{fill:url(#SVGID_15_);}
	.st19{fill:url(#SVGID_16_);}
	.st20{opacity:0.3;fill:url(#SVGID_17_);enable-background:new    ;}
	.st21{fill:url(#SVGID_18_);}
	.st22{fill:url(#SVGID_19_);}
	.st23{clip-path:url(#SVGID_21_);}
	.st24{fill:url(#SVGID_22_);}
	.st25{opacity:0.3;fill:url(#SVGID_23_);enable-background:new    ;}
	.st26{fill:url(#SVGID_24_);}
	.st27{fill:url(#SVGID_25_);}
	.st28{fill:url(#SVGID_26_);}
	.st29{fill:url(#SVGID_27_);}
	.st30{fill:url(#SVGID_28_);}
	.st31{fill:url(#SVGID_29_);}
	.st32{fill:url(#SVGID_30_);}
	.st33{fill:url(#SVGID_31_);}
	.st34{opacity:0.3;fill:url(#SVGID_32_);enable-background:new    ;}
	.st35{fill:url(#SVGID_33_);}
	.st36{fill:url(#SVGID_34_);}
	.st37{opacity:0.3;fill:url(#SVGID_35_);enable-background:new    ;}
	.st38{fill:url(#SVGID_36_);}
	.st39{fill:url(#SVGID_37_);}
	.st40{fill:url(#SVGID_38_);}
	.st41{fill:url(#SVGID_39_);}
	.st42{fill:url(#SVGID_40_);}
	.st43{fill:url(#SVGID_41_);}
	.st44{fill:url(#SVGID_42_);}
</style>
<title>bn_con12</title>
<g>
	<g id="Illustration">
		<path class="st0" d="M3561.4,1415.7c47.9,244.4,145,739.6-87.3,1071c-421.6,601.3-1855.3,559-2460.9-199.2
			c-52.4-65.6-315-407.4-286.3-875.6C776.5,599.8,1673.7-120,2392.8,21.4c420.8,82.7,700.5,444.7,815.7,593.7
			C3255.9,676.5,3473.2,966,3561.4,1415.7z"/>
		
			<linearGradient id="SVGID_1_" gradientUnits="userSpaceOnUse" x1="4610.5186" y1="1698.0114" x2="2976.9487" y2="2160.2712" gradientTransform="matrix(1 0 0 -1 0 2900.6609)">
			<stop  offset="0" style="stop-color:#311944"/>
			<stop  offset="1" style="stop-color:#A03976"/>
		</linearGradient>
		<path class="st1" d="M3347.8,1084.9c52.3,26.6,118,2.2,146.8-54.5s9.7-124.1-42.6-150.7c-2.7-1.4-5.5-2.5-8.3-3.6
			c9.6-30.9,17-62.5,22-94.5c3,0,6-0.1,9.1-0.3c59.7-5.3,107.1-60.2,105.8-122.5s-50.6-108.6-110.3-103.2c-3.1,0.3-6.2,0.8-9.2,1.3
			c-6.2-30.7-14.7-60.9-25.6-90.3c2.7-1.6,5.5-3.3,8.1-5.1c51.1-35.8,67.4-106.4,36.5-157.7s-97.4-63.9-148.5-28.1
			c-2.6,1.8-5.1,3.8-7.5,5.8c-20.3-22.4-42.5-43.1-66.2-61.8c1.7-2.8,3.3-5.6,4.8-8.5c28.8-56.7,66.3-118.5,13.6-144.3
			c-122-59.5-174.3-8.6-203.1,48.1c-1.5,2.9-2.8,5.9-4,8.9c-29.1-8.2-58.9-13.8-89-17c0.2-3.2,0.3-6.3,0.3-9.5
			c-1.2-62.3,17.2-96.1-42.7-97.2c-130.6-2.5-174.7,54.2-173.5,116.5c0.1,3.3,0.3,6.4,0.7,9.6c-30.1,8.6-59.6,19.5-88,32.6
			c-1.4-2.8-2.8-5.6-4.4-8.2c-30.9-51.3-97.4-63.9-148.5-28.1c-51.1,35.8-67.4,106.4-36.5,157.7c1.6,2.6,3.3,5.1,5.1,7.5
			c-22.9,22.9-44.1,47.5-63.4,73.5c-2.5-1.6-5.1-3.1-7.8-4.5c-52.3-26.6-118-2.2-146.8,54.5s-9.7,124.1,42.6,150.7
			c2.7,1.4,5.5,2.5,8.3,3.6c-9.6,30.9-17,62.5-22,94.5c-3,0-6,0.1-9.1,0.3c-59.7,5.3-107.1,60.2-105.8,122.5s50.8,108.6,110.4,103.2
			c3.1-0.3,6.2-0.8,9.2-1.3c6.2,30.7,14.7,60.9,25.6,90.3c-2.8,1.6-5.5,3.3-8.1,5.1c-51.1,35.8-67.4,106.4-36.5,157.7
			c30.9,51.3,133.3,75.2,184.4,39.4c2.6-1.8-30.8-15.1-28.4-17.1c20.3,22.4,42.5,43.1,66.2,61.8c-1.7,2.8-3.3,5.6-4.8,8.5
			c-28.8,56.6-9.7,124.1,42.7,150.7s118,2.2,146.8-54.5c1.5-2.9,2.8-5.9,4-8.9c29.1,8.2,58.9,13.8,89,17c-0.2,3.2-0.3,6.3-0.3,9.5
			c1.3,62.3,50.6,108.6,110.3,103.2s107.1-60.2,105.8-122.5c-0.1-3.3-0.3-6.4-0.7-9.6c30.1-8.6,59.5-19.5,88-32.6
			c1.4,2.8,2.8,5.5,4.4,8.2c30.9,51.3,97.4,63.9,148.5,28.2s67.4-106.4,36.5-157.7c-1.6-2.6-3.3-5.1-5.1-7.5
			c22.9-22.9,44.1-47.5,63.4-73.5C3342.6,1082,3345.1,1083.6,3347.8,1084.9z M2695.7,1093.2c-190-96.4-259.3-341.3-154.9-547
			c104.4-205.7,343.1-294.2,533-197.8s259.3,341.4,154.9,547S2885.6,1189.7,2695.7,1093.2L2695.7,1093.2z"/>
		
			<linearGradient id="SVGID_2_" gradientUnits="userSpaceOnUse" x1="4606.2388" y1="1682.8812" x2="2972.6587" y2="2145.1411" gradientTransform="matrix(1 0 0 -1 0 2900.6609)">
			<stop  offset="0" style="stop-color:#311944"/>
			<stop  offset="1" style="stop-color:#A03976"/>
		</linearGradient>
		<path class="st2" d="M3474.8,781.3c59.7-5.3,107.1-60.2,105.8-122.5s-50.6-108.6-110.3-103.2c-3.1,0.3-6.2,0.8-9.2,1.3
			c-6.2-30.7-14.7-60.9-25.6-90.3c2.7-1.6,5.5-3.3,8.1-5.1c51.1-35.8,114.3-122.2,78.2-170.1c-68.4-90.9-139.1-51.5-190.2-15.8
			c-2.6,1.8-5.1,3.8-7.5,5.8c-20.3-22.4-42.5-43.1-66.2-61.8c1.7-2.8,3.3-5.6,4.8-8.5c15.6-30.8,17-64.8,6.7-93.7
			c-49.3,86.8-97.9,174-145.8,261.6c151.5,111,199.8,329.9,105.1,516.4c-80.3,158.1-239.8,246.9-395.6,235.7
			c-6.9,18-13.8,36.2-21.2,54c-20.2,48.4-43.1,95.9-66.1,143.3c14.4,2.7,29,4.8,43.5,6.4c-0.2,3.2-0.3,6.3-0.3,9.5
			c1.3,62.3,39.1,115.3,147.3,109.6c59.8-3.2,70.1-66.5,68.9-128.8c-0.1-3.3-0.3-6.4-0.7-9.6c30.1-8.6,59.6-19.5,88-32.7
			c1.4,2.8,2.8,5.6,4.4,8.2c30.9,51.3,138.2,73.1,189.3,37.4s26.6-115.6-4.4-166.9c-1.6-2.6-3.3-5.1-5.1-7.5
			c22.9-22.9,44.1-47.5,63.4-73.5c2.5,1.6,5.1,3.1,7.8,4.5c52.3,26.6,118,2.2,146.8-54.5s9.7-124.1-42.6-150.7
			c-2.7-1.4-5.5-2.5-8.3-3.6c9.6-30.9,17-62.5,22-94.5C3468.7,781.6,3471.7,781.6,3474.8,781.3z"/>
		
			<linearGradient id="SVGID_3_" gradientUnits="userSpaceOnUse" x1="2934.1086" y1="2730.3406" x2="2959.6489" y2="667.4907" gradientTransform="matrix(1 0 0 -1 0 2900.6609)">
			<stop  offset="0" style="stop-color:#F54394"/>
			<stop  offset="1" style="stop-color:#FB6FBB"/>
		</linearGradient>
		<path class="st3" d="M3404.1,1091.3c52.3,26.6,118,2.2,146.8-54.5s9.7-124.1-42.6-150.7c-2.7-1.4-5.5-2.5-8.3-3.6
			c9.6-30.9,17-62.5,22-94.5c3,0,6-0.1,9.1-0.3c59.7-5.3,107.1-60.2,105.8-122.5s-50.7-108.6-110.4-103.2c-3.1,0.3-6.2,0.8-9.2,1.3
			c-6.2-30.7-14.7-60.9-25.5-90.3c2.7-1.6,5.5-3.3,8.1-5.1c51.1-35.8,67.4-106.4,36.5-157.7s-97.4-63.9-148.5-28.1
			c-2.6,1.8-5.1,3.8-7.5,5.8c-20.3-22.4-42.5-43.1-66.2-61.8c1.7-2.8,3.3-5.6,4.8-8.5c28.8-56.6,9.7-124.1-42.6-150.7
			s-118-2.2-146.8,54.5c-1.5,2.9-2.8,5.9-4,8.9c-29.1-8.2-58.9-13.8-89-17c0.2-3.2,0.3-6.3,0.3-9.5
			c-1.2-62.3-50.6-108.6-110.3-103.2S2819.4,60.6,2820.6,123c0.1,3.3,0.3,6.4,0.7,9.6c-30.1,8.6-59.6,19.5-88,32.7
			c-1.4-2.8-2.8-5.6-4.4-8.2c-30.9-51.3-97.4-63.9-148.5-28.2c-51.1,35.8-67.4,106.4-36.5,157.7c1.6,2.6,3.3,5.1,5.1,7.5
			c-22.9,22.9-44.1,47.5-63.4,73.5c-2.5-1.6-5.1-3.1-7.8-4.5c-52.3-26.6-118-2.2-146.8,54.5c-28.8,56.6-9.7,124.1,42.6,150.7
			c2.7,1.4,5.5,2.5,8.3,3.6c-9.6,30.9-17,62.5-22,94.5c-3,0-6,0.1-9.1,0.3c-59.7,5.3-107.1,60.2-105.8,122.5s50.6,108.6,110.3,103.2
			c3.1-0.3,6.2-0.8,9.2-1.3c6.2,30.7,14.7,60.9,25.6,90.3c-2.8,1.6-5.5,3.3-8.1,5.1c-51.1,35.8-67.4,106.4-36.5,157.7
			c30.9,51.3,97.4,63.9,148.4,28.2c2.6-1.8,5.1-3.8,7.5-5.8c20.3,22.4,42.5,43.1,66.2,61.8c-1.7,2.8-3.3,5.6-4.8,8.5
			c-28.8,56.6-9.7,124.1,42.7,150.7s118,2.2,146.8-54.5c1.5-2.9,2.8-5.9,4-8.9c29.1,8.1,58.9,13.8,89,17c-0.2,3.2-0.3,6.3-0.3,9.5
			c1.3,62.3,50.6,108.6,110.3,103.2s107.1-60.2,105.8-122.5c-0.1-3.3-0.3-6.4-0.7-9.6c30.1-8.6,59.6-19.5,88-32.7
			c1.4,2.8,2.8,5.6,4.4,8.2c30.9,51.3,97.4,63.9,148.5,28.2s67.4-106.4,36.5-157.7c-1.6-2.6-3.3-5.1-5.1-7.5
			c22.9-22.9,44.1-47.5,63.4-73.5C3398.8,1088.4,3401.4,1090,3404.1,1091.3z M2752,1099.6c-189.9-96.4-259.3-341.3-154.9-547
			c104.4-205.7,343-294.2,533-197.8s259.3,341.4,154.9,547S2941.9,1196.1,2752,1099.6L2752,1099.6z"/>
		
			<linearGradient id="SVGID_4_" gradientUnits="userSpaceOnUse" x1="1967.8691" y1="387.6297" x2="1767.7792" y2="303.5897" gradientTransform="matrix(1 0 0 -1 0 2900.6609)">
			<stop  offset="0" style="stop-color:#40447E"/>
			<stop  offset="1" style="stop-color:#3C3B6B"/>
		</linearGradient>
		<path class="st4" d="M3613.1,2403.5l-2848.4-24.8v73.4c0,19.9,12.4,36.9,29.3,39.9l805.4,144.5c9.5,1.7,19.2,2.2,28.9,1.4
			l1953.8-164.8c17.4-1.5,30.9-18.5,30.9-38.9V2403.5z"/>
		
			<linearGradient id="SVGID_5_" gradientUnits="userSpaceOnUse" x1="1700.6815" y1="1269.5179" x2="1483.5215" y2="1178.318" gradientTransform="matrix(1 0 0 -1 0 2900.6609)">
			<stop  offset="0" style="stop-color:#40447E"/>
			<stop  offset="1" style="stop-color:#3C3B6B"/>
		</linearGradient>
		<path class="st5" d="M2696.2,2284.6L796.1,2418.8c-34,2.4-61.6-23.1-61.6-57V1003.5c0.1-34,27.7-61.4,61.6-61.4h1900.1
			c28,0,50.7,24.8,50.7,55.5v1227.9C2746.8,2256.1,2724.2,2282.6,2696.2,2284.6z"/>
		
			<linearGradient id="SVGID_6_" gradientUnits="userSpaceOnUse" x1="764.7286" y1="1220.1378" x2="2777.1287" y2="1220.1378" gradientTransform="matrix(1 0 0 -1 0 2900.6609)">
			<stop  offset="0" style="stop-color:#40447E"/>
			<stop  offset="1" style="stop-color:#3C3B6B"/>
		</linearGradient>
		<path class="st6" d="M2726.5,2284.6L826.4,2418.8c-34,2.4-61.6-23.1-61.6-57V1003.5c0.1-34,27.7-61.4,61.6-61.4h1900.1
			c28,0,50.7,24.8,50.7,55.5v1227.9C2777.1,2256.1,2754.5,2282.6,2726.5,2284.6z"/>
		
			<linearGradient id="SVGID_7_" gradientUnits="userSpaceOnUse" x1="2447.8152" y1="2222.1663" x2="812.3354" y2="-63.3138" gradientTransform="matrix(1 0 0 -1 0 2900.6609)">
			<stop  offset="0" style="stop-color:#F54394"/>
			<stop  offset="1" style="stop-color:#FB6FBB"/>
		</linearGradient>
		<path class="st7" d="M2667.3,2198L897.5,2314.6c-27.7,1.8-50.2-19.1-50.2-46.8V1078.6c0-27.7,22.4-50.2,50.2-50.3l1769.8-7.3
			c23.1-0.1,41.8,20.3,41.8,45.5v1083.2C2709.1,2174.8,2690.4,2196.5,2667.3,2198z"/>
		<path class="st8" d="M1843.5,979.2c0,12.6-9.8,22.9-21.9,22.9s-21.9-10.2-21.9-22.8s9.8-22.9,21.9-22.9S1843.5,966.6,1843.5,979.2
			z"/>
		
			<linearGradient id="SVGID_8_" gradientUnits="userSpaceOnUse" x1="764.7286" y1="475.9561" x2="3613.0986" y2="475.9561" gradientTransform="matrix(1 0 0 -1 0 2900.6609)">
			<stop  offset="0" style="stop-color:#40447E"/>
			<stop  offset="1" style="stop-color:#3C3B6B"/>
		</linearGradient>
		<path class="st9" d="M2679.1,2278.5L764.7,2419.8l834.7,149.8c9.5,1.7,19.2,2.2,28.9,1.4l1984.8-167.4l-903.6-124.1
			C2699.4,2278,2689.2,2277.7,2679.1,2278.5z"/>
		
			<linearGradient id="SVGID_9_" gradientUnits="userSpaceOnUse" x1="1044.0586" y1="499.296" x2="3131.0486" y2="499.296" gradientTransform="matrix(1 0 0 -1 0 2900.6609)">
			<stop  offset="0" style="stop-color:#40447E"/>
			<stop  offset="1" style="stop-color:#3C3B6B"/>
		</linearGradient>
		<polygon class="st10" points="1044.1,2423.4 2637.8,2303.9 3131,2371.1 1551,2498.8 		"/>
		<path class="st11" d="M2268.7,1912c-146.5-78.8-261.7,21-372.8-77.5c-67.4-59.7-34.3-104.3-117.2-193.6
			c-91.8-98.9-151.6-65.6-243.9-154.6c-116.7-112.5-58.3-200.1-158.9-280.8c-122-98-253.5-7.3-369.6-101.3
			c-50.1-40.5-77.6-99.5-91.9-162.2H800.8c-19.9,0-36,16.1-36.1,36v1408c0,19.9,16.2,34.9,36.1,33.5l1936.5-137.4
			c9.5-0.7,17.9-6.2,23.3-14.3c-141.8-5.2-228.9-52.7-284.5-101.8C2367.2,2070,2386.1,1975.2,2268.7,1912z"/>
		
			<linearGradient id="SVGID_10_" gradientUnits="userSpaceOnUse" x1="1274.6445" y1="2334.1543" x2="1582.9246" y2="1762.3842" gradientTransform="matrix(1 0 0 -1 0 2900.6609)">
			<stop  offset="0" style="stop-color:#AA80F9"/>
			<stop  offset="1" style="stop-color:#6165D7"/>
		</linearGradient>
		<ellipse class="st12" cx="1358" cy="721.2" rx="232.9" ry="185.4"/>
		<path class="st8" d="M1358,599.9c-46,0-83.3,37.3-83.3,83.3c0,29.8,35,99.2,59.6,144.3c7.1,13.1,23.6,17.9,36.6,10.8
			c4.5-2.5,8.3-6.2,10.8-10.8c24.6-45.1,59.6-114.5,59.6-144.3C1441.3,637.2,1404,599.9,1358,599.9z M1358,727.9
			c-24.7,0-44.7-20-44.7-44.7s20-44.7,44.7-44.7c24.7,0,44.7,20,44.7,44.7v0C1402.7,707.9,1382.7,727.9,1358,727.9
			C1358,727.9,1358,727.9,1358,727.9L1358,727.9z"/>
		<g class="st13">
			
				<linearGradient id="SVGID_11_" gradientUnits="userSpaceOnUse" x1="1185.4987" y1="2299.4011" x2="1487.8087" y2="1692.751" gradientTransform="matrix(1 0 0 -1 0 2900.6609)">
				<stop  offset="0" style="stop-color:#AA80F9"/>
				<stop  offset="1" style="stop-color:#6165D7"/>
			</linearGradient>
			<path class="st14" d="M1414.6,859.3c-28.1-54.7,0.3-105.9-37.7-141.3c-38.6-35.9-88.7-2.5-142.7-31.8
				c-20.9-11.3-44.1-33-61.3-77.5c-29.9,31.2-47.7,70.2-47.7,112.5c0,102.4,104.3,185.4,232.8,185.4c28.3,0.1,56.5-4.1,83.6-12.3
				C1430.6,884.3,1421.4,872.5,1414.6,859.3z"/>
		</g>
		<g>
			<defs>
				<polygon id="SVGID_12_" points="2173.8,2230.5 1268.9,2289.8 840.2,1720.9 1099,1048 3320.8,452.6 3520.9,1525.1 3164.2,2354.5 
									"/>
			</defs>
			<clipPath id="SVGID_13_">
				<use xlink:href="#SVGID_12_"  style="overflow:visible;"/>
			</clipPath>
			<g class="st15">
				
					<linearGradient id="SVGID_14_" gradientUnits="userSpaceOnUse" x1="1509.7743" y1="992.4172" x2="2167.9622" y2="992.4172" gradientTransform="matrix(1 0 0 -1 0 2900.6609)">
					<stop  offset="0" style="stop-color:#311944"/>
					<stop  offset="1" style="stop-color:#6B3976"/>
				</linearGradient>
				<path class="st16" d="M1989,2481.3c-58-3.9-112.7-42.6-136.2-102.1l-332-839.6c-30.2-76.4,3.9-163,76.5-193.7
					c73.2-30.9,187.3,5.5,218.3,82.8l340.6,848.7c32.1,80-4.1,167.5-80.5,195C2056.9,2479.2,2008.1,2482.6,1989,2481.3z"/>
				<path class="st17" d="M1597.3,1345.9c73.2-30.9,187.3,5.5,218.3,82.8l311.4,776c-52.1-14.1-113.8-12.8-173.1-67.5
					c-98.6-91-50.1-207.7-128.2-311.6c-35.7-47.5-101.8-97.5-236.4-112.5l-68.6-173.5C1490.5,1463.1,1524.6,1376.6,1597.3,1345.9z"
					/>
				
					<linearGradient id="SVGID_15_" gradientUnits="userSpaceOnUse" x1="942.4673" y1="1570.9573" x2="1130.0773" y2="1506.6372" gradientTransform="matrix(1 0 0 -1 0 2900.6609)">
					<stop  offset="0" style="stop-color:#311944"/>
					<stop  offset="1" style="stop-color:#6B3976"/>
				</linearGradient>
				<path class="st18" d="M1161.3,1160.9c2.8,0,5.7,0.2,8.5,0.6l205.2-2.4v561.8l-198.2-2.9c-5.1,1.4-10.3,2.1-15.5,2.1
					c-70.4,0-127.4-125.2-127.4-279.6S1090.9,1160.9,1161.3,1160.9z"/>
				
					<linearGradient id="SVGID_16_" gradientUnits="userSpaceOnUse" x1="-727.8749" y1="2317.1804" x2="-291.805" y2="-94.8698" gradientTransform="matrix(1 0 0 -1 2755.05 2900.6609)">
					<stop  offset="0" style="stop-color:#AA80F9"/>
					<stop  offset="1" style="stop-color:#6165D7"/>
				</linearGradient>
				<path class="st19" d="M1375,1159.1c-77.7,187.1-77.7,373.5,0,561.8l1526.7,516.8l15.8-1576.8L1375,1159.1z"/>
				
					<linearGradient id="SVGID_17_" gradientUnits="userSpaceOnUse" x1="-870.2345" y1="2290.5859" x2="-434.3644" y2="-120.324" gradientTransform="matrix(1 0 0 -1 2755.05 2900.6609)">
					<stop  offset="0" style="stop-color:#AA80F9"/>
					<stop  offset="1" style="stop-color:#6165D7"/>
				</linearGradient>
				<path class="st20" d="M2489.6,1774.2c-145.2-57.9-190.3-279.6-358.8-287.1c-132.2-5.8-172.1,129.3-301.6,114.7
					c-132.6-14.9-154.9-165.5-303.4-218.5c-67.5-24.1-138.2-19.7-206.8,0.7c-9.2,111.7,9.4,224,56,336.9l1526.7,516.7l-90.3-535.4
					C2660.8,1794.7,2559.9,1802.3,2489.6,1774.2z"/>
				
					<linearGradient id="SVGID_18_" gradientUnits="userSpaceOnUse" x1="2601.1907" y1="1966.2334" x2="1738.6465" y2="948.9884" gradientTransform="matrix(-1 0 0 -1 5145.6475 2900.6609)">
					<stop  offset="0" style="stop-color:#E38DDD"/>
					<stop  offset="1" style="stop-color:#9571F6"/>
				</linearGradient>
				<ellipse class="st21" cx="2975.7" cy="1443.1" rx="371.4" ry="815.4"/>
				
					<linearGradient id="SVGID_19_" gradientUnits="userSpaceOnUse" x1="2662.4749" y1="1457.636" x2="3320.8186" y2="1457.636" gradientTransform="matrix(1 0 0 -1 0 2900.6609)">
					<stop  offset="0" style="stop-color:#D8DEE8"/>
					<stop  offset="1" style="stop-color:#FFFFFF"/>
				</linearGradient>
				<path class="st22" d="M2975.7,2230.8c43.5,0,86.3-19.2,127.2-57.2c41.6-38.6,79.2-94.4,111.7-165.9
					c68.5-150.3,106.2-350.9,106.2-564.6s-37.7-414.3-106.2-564.6c-32.6-71.5-70.2-127.4-111.7-166c-40.8-37.9-83.6-57.2-127.2-57.2
					s-86.3,19.2-127.2,57.2c-41.6,38.6-79.2,94.4-111.7,166c-28.6,62.9-51.9,134.5-69.3,212.2c-24.2,108.1,45.7,221,45.7,345.4
					c0,132.3-68.2,266.4-41,379.8c16.8,69.9,38.4,134.5,64.5,191.8c32.6,71.5,70.2,127.4,111.7,165.9
					C2889.4,2211.5,2932.2,2230.8,2975.7,2230.8z"/>
				<g>
					<defs>
						<path id="SVGID_20_" d="M2975.7,2230.8c43.5,0,86.3-19.2,127.2-57.2c41.6-38.6,79.2-94.4,111.7-165.9
							c68.5-150.3,106.2-350.9,106.2-564.6s-37.7-414.3-106.2-564.6c-32.6-71.5-70.2-127.4-111.7-166
							c-40.8-37.9-83.6-57.2-127.2-57.2s-86.3,19.2-127.2,57.2c-41.6,38.6-79.2,94.4-111.7,166c-68.5,150.4-106.2,350.9-106.2,564.6
							s37.7,414.3,106.2,564.6c32.6,71.5,70.2,127.3,111.7,166C2889.4,2211.5,2932.2,2230.8,2975.7,2230.8z"/>
					</defs>
					<clipPath id="SVGID_21_">
						<use xlink:href="#SVGID_20_"  style="overflow:visible;"/>
					</clipPath>
					<g class="st23">
						
							<linearGradient id="SVGID_22_" gradientUnits="userSpaceOnUse" x1="-174.3565" y1="2232.7664" x2="110.0334" y2="659.7465" gradientTransform="matrix(1 0 0 -1 2755.05 2900.6609)">
							<stop  offset="0" style="stop-color:#FFC444"/>
							<stop  offset="1" style="stop-color:#F36F56"/>
						</linearGradient>
						<path class="st24" d="M3006.3,1453.8c0,206.6-129.9,370.6-288,366.4c-155.6-4.1-279.9-170.2-279.9-371
							s124.4-364.9,279.9-366.5C2876.4,1081,3006.3,1247.2,3006.3,1453.8z"/>
						
							<linearGradient id="SVGID_23_" gradientUnits="userSpaceOnUse" x1="-16.6329" y1="2030.4807" x2="193.327" y2="869.1406" gradientTransform="matrix(1 0 0 -1 2755.05 2900.6609)">
							<stop  offset="0" style="stop-color:#FFC444"/>
							<stop  offset="1" style="stop-color:#F36F56"/>
						</linearGradient>
						<path class="st25" d="M2981.3,1450.4c0,153.4-63.3,275.2-140.3,272.1c-75.8-3.1-136.4-126.4-136.4-275.5s60.6-271,136.4-272.1
							C2918,1173.6,2981.3,1297,2981.3,1450.4z"/>
					</g>
				</g>
			</g>
		</g>
		
			<linearGradient id="SVGID_24_" gradientUnits="userSpaceOnUse" x1="2635.2993" y1="2287.8232" x2="1913.9893" y2="2491.9333" gradientTransform="matrix(1 0 0 -1 0 2900.6609)">
			<stop  offset="0" style="stop-color:#311944"/>
			<stop  offset="1" style="stop-color:#A03976"/>
		</linearGradient>
		<path class="st26" d="M2077.8,560.9c23.1,11.7,52.1,1,64.8-24.1s4.3-54.8-18.8-66.5c-1.2-0.6-2.4-1.1-3.6-1.6
			c4.2-13.7,7.5-27.6,9.7-41.7c1.3,0,2.6,0,4-0.1c26.4-2.4,47.3-26.6,46.7-54.1s-22.4-47.9-48.7-45.6c-1.4,0.1-2.7,0.3-4.1,0.6
			c-2.7-13.6-6.5-26.9-11.3-39.9c1.2-0.7,2.4-1.5,3.6-2.3c22.6-15.8,29.8-47,16.1-69.6c-13.7-22.6-43-28.2-65.6-12.4
			c-1.1,0.8-2.2,1.7-3.3,2.6c-9-9.9-18.7-19-29.2-27.3c0.8-1.2,1.5-2.4,2.1-3.7c12.7-25,29.3-52.3,6-63.7
			c-53.8-26.3-77-3.8-89.7,21.2c-0.7,1.3-1.2,2.6-1.8,3.9c-12.9-3.6-26-6.1-39.3-7.5c0.1-1.4,0.1-2.8,0.1-4.2
			c-0.6-27.5,7.6-42.4-18.8-42.9c-57.7-1.1-77.2,23.9-76.6,51.4c0,1.4,0.1,2.8,0.3,4.2c-13.3,3.8-26.3,8.6-38.8,14.4
			c-0.6-1.2-1.2-2.4-1.9-3.6c-13.7-22.7-43-28.2-65.6-12.4c-22.5,15.8-29.8,47-16.1,69.6c0.7,1.2,1.5,2.2,2.3,3.3
			c-10.1,10.1-19.5,21-28,32.5c-1.1-0.7-2.3-1.4-3.4-2c-23.1-11.7-52.1-1-64.8,24.1c-12.7,25.1-4.3,54.8,18.8,66.5
			c1.2,0.6,2.4,1.1,3.6,1.6c-4.2,13.7-7.5,27.6-9.7,41.7c-1.3,0-2.7,0-4,0.1c-26.4,2.4-47.3,26.6-46.7,54.1
			c0.5,27.5,22.4,47.9,48.7,45.6c1.4-0.1,2.7-0.3,4.1-0.6c2.7,13.6,6.5,26.9,11.3,39.9c-1.2,0.7-2.4,1.4-3.6,2.3
			c-22.6,15.8-29.8,47-16.1,69.6s58.9,33.2,81.4,17.4c1.2-0.8-13.6-6.6-12.5-7.5c9,9.9,18.7,19,29.2,27.3c-0.7,1.2-1.5,2.5-2.1,3.8
			c-12.7,25-4.3,54.8,18.8,66.5c23.1,11.7,52.1,1,64.8-24.1c0.7-1.3,1.2-2.6,1.8-3.9c12.9,3.6,26,6.1,39.3,7.5
			c-0.1,1.4-0.1,2.8-0.1,4.2c0.6,27.5,22.4,47.9,48.7,45.6s47.3-26.6,46.7-54.1c0-1.4-0.2-2.8-0.3-4.2c13.3-3.8,26.3-8.6,38.8-14.4
			c0.6,1.2,1.2,2.4,1.9,3.6c13.7,22.7,43,28.2,65.6,12.4c22.5-15.8,29.8-47,16.1-69.6c-0.7-1.2-1.5-2.2-2.3-3.3
			c10.1-10.1,19.5-21,28-32.5C2075.4,559.6,2076.6,560.3,2077.8,560.9z M1789.8,564.5c-83.8-42.6-114.5-150.7-68.3-241.5
			s151.5-129.9,235.4-87.3s114.5,150.7,68.4,241.5C1979,568,1873.7,607.1,1789.8,564.5L1789.8,564.5z"/>
		
			<linearGradient id="SVGID_25_" gradientUnits="userSpaceOnUse" x1="2633.4268" y1="2281.2051" x2="1912.1167" y2="2485.3152" gradientTransform="matrix(1 0 0 -1 0 2900.6609)">
			<stop  offset="0" style="stop-color:#311944"/>
			<stop  offset="1" style="stop-color:#A03976"/>
		</linearGradient>
		<path class="st27" d="M2133.8,426.8c26.4-2.4,47.3-26.6,46.7-54.1s-22.4-47.9-48.7-45.6c-1.4,0.1-2.7,0.3-4.1,0.6
			c-2.7-13.6-6.5-26.9-11.3-39.9c1.2-0.7,2.4-1.5,3.6-2.3c22.6-15.8,50.4-54,34.5-75.1c-30.2-40.1-61.4-22.8-84-7
			c-1.2,0.8-2.2,1.7-3.3,2.6c-9-9.9-18.7-19-29.2-27.3c0.8-1.2,1.5-2.4,2.1-3.7c6.6-12.8,7.7-27.8,3-41.4
			c-21.8,38.3-43.2,76.8-64.4,115.5c66.9,49,88.2,145.7,46.4,228c-35.4,69.8-105.9,109-174.7,104.1c-3.1,8-6.1,16-9.4,23.8
			c-8.9,21.4-19,42.3-29.2,63.3c6.4,1.2,12.8,2.1,19.2,2.8c-0.1,1.4-0.1,2.8-0.1,4.2c0.6,27.5,17.3,50.9,65,48.4
			c26.4-1.4,31-29.4,30.4-56.9c0-1.4-0.2-2.8-0.3-4.2c13.3-3.8,26.3-8.6,38.8-14.4c0.6,1.2,1.2,2.4,1.9,3.6
			c13.7,22.7,61,32.3,83.6,16.5c22.6-15.8,11.7-51-1.9-73.7c-0.7-1.2-1.5-2.3-2.3-3.3c10.1-10.1,19.5-21,28-32.5
			c1.1,0.7,2.3,1.4,3.4,2c23.1,11.7,52.1,1,64.8-24s4.3-54.8-18.8-66.5c-1.2-0.6-2.4-1.1-3.7-1.6c4.2-13.7,7.5-27.6,9.7-41.7
			C2131.1,426.9,2132.5,426.9,2133.8,426.8z"/>
		
			<linearGradient id="SVGID_26_" gradientUnits="userSpaceOnUse" x1="1895.0984" y1="2743.6511" x2="1906.3784" y2="1832.8011" gradientTransform="matrix(1 0 0 -1 0 2900.6609)">
			<stop  offset="0" style="stop-color:#F54394"/>
			<stop  offset="1" style="stop-color:#FB6FBB"/>
		</linearGradient>
		<path class="st28" d="M2102.6,563.7c23.1,11.7,52.1,1,64.8-24s4.3-54.8-18.8-66.5c-1.2-0.6-2.4-1.1-3.6-1.6
			c4.2-13.7,7.5-27.6,9.7-41.8c1.3,0,2.7,0,4-0.1c26.4-2.4,47.3-26.6,46.7-54.1s-22.4-47.9-48.7-45.6c-1.4,0.1-2.7,0.3-4.1,0.6
			c-2.7-13.6-6.5-26.9-11.3-39.9c1.2-0.7,2.4-1.4,3.6-2.3c22.5-15.8,29.8-47,16.1-69.6c-13.7-22.6-43-28.2-65.6-12.4
			c-1.2,0.8-2.3,1.7-3.3,2.6c-9-9.9-18.7-19-29.2-27.3c0.7-1.2,1.5-2.4,2.1-3.8c12.7-25,4.3-54.8-18.8-66.5s-52.1-1-64.8,24
			c-0.7,1.3-1.2,2.6-1.8,3.9c-12.9-3.6-26-6.1-39.3-7.5c0.1-1.4,0.2-2.8,0.1-4.2c-0.6-27.5-22.4-47.9-48.7-45.6
			s-47.3,26.6-46.7,54.1c0,1.4,0.2,2.9,0.3,4.2c-13.3,3.8-26.3,8.6-38.8,14.4c-0.6-1.2-1.2-2.4-1.9-3.6
			c-13.7-22.7-43-28.2-65.6-12.4c-22.5,15.8-29.8,47-16.1,69.6c0.7,1.2,1.5,2.3,2.2,3.3c-10.1,10.1-19.5,21-28,32.5
			c-1.1-0.7-2.3-1.4-3.4-2c-23.1-11.7-52.1-1-64.8,24.1c-12.7,25-4.2,54.8,18.8,66.5c1.2,0.6,2.4,1.1,3.6,1.6
			c-4.2,13.7-7.5,27.6-9.7,41.8c-1.3,0-2.7,0-4,0.1c-26.3,2.4-47.3,26.6-46.7,54.1s22.4,47.9,48.7,45.6c1.4-0.1,2.7-0.3,4.1-0.6
			c2.7,13.6,6.5,26.9,11.3,39.9c-1.2,0.7-2.4,1.4-3.6,2.3c-22.5,15.8-29.8,47-16.1,69.6s43,28.2,65.6,12.4c1.2-0.8,2.2-1.7,3.3-2.6
			c9,9.9,18.7,19,29.2,27.3c-0.7,1.2-1.5,2.5-2.1,3.8c-12.7,25-4.3,54.8,18.8,66.5c23.1,11.7,52.1,1,64.8-24
			c0.7-1.3,1.2-2.6,1.8-3.9c12.9,3.6,26,6.1,39.3,7.5c-0.1,1.4-0.2,2.8-0.1,4.2c0.6,27.5,22.4,47.9,48.7,45.6s47.3-26.6,46.7-54.1
			c0-1.4-0.2-2.8-0.3-4.2c13.3-3.8,26.3-8.6,38.8-14.4c0.6,1.2,1.2,2.5,1.9,3.6c13.7,22.7,43,28.2,65.6,12.4s29.8-47,16.1-69.6
			c-0.7-1.2-1.5-2.3-2.2-3.3c10.1-10.1,19.5-21,28-32.5C2100.3,562.4,2101.4,563.1,2102.6,563.7z M1814.6,567.3
			c-83.9-42.6-114.5-150.7-68.4-241.5s151.5-129.9,235.4-87.3c83.9,42.6,114.5,150.7,68.4,241.5
			C2003.9,570.8,1898.5,609.9,1814.6,567.3z"/>
		
			<linearGradient id="SVGID_27_" gradientUnits="userSpaceOnUse" x1="3766.8315" y1="138.3897" x2="3700.1816" y2="358.1397" gradientTransform="matrix(0.99 0.12 0.12 -0.99 -2427.9431 2606.2302)">
			<stop  offset="0" style="stop-color:#444B8C"/>
			<stop  offset="1" style="stop-color:#26264F"/>
		</linearGradient>
		<path class="st29" d="M1266.7,2811c-8.2,13.1-6.9,19.3-5.5,22.1c4.1,8.2,16.8,2.2,47.6,9.1c6.3,1.6,12.9,2.1,19.4,1.4
			c7.6-1,16.8-4,16.7-6.1c-0.1-0.7-1.3-1.2-1.8-1.3c-8.4-2.7-60.8-25-60.8-25L1266.7,2811z"/>
		
			<linearGradient id="SVGID_28_" gradientUnits="userSpaceOnUse" x1="3710.0481" y1="176.8413" x2="3710.0481" y2="529.8913" gradientTransform="matrix(0.99 0.12 0.12 -0.99 -2427.9431 2606.2302)">
			<stop  offset="0" style="stop-color:#FFC444"/>
			<stop  offset="1" style="stop-color:#F36F56"/>
		</linearGradient>
		<path class="st30" d="M1265.7,2780.2l1.6,31.4c0,0,12.3,10.8,17-0.3c3.4-7.9,5.6-30,5.6-30L1265.7,2780.2z"/>
		
			<linearGradient id="SVGID_29_" gradientUnits="userSpaceOnUse" x1="3840.46" y1="176.8413" x2="3840.46" y2="529.8913" gradientTransform="matrix(0.99 0.12 0.12 -0.99 -2427.9431 2606.2302)">
			<stop  offset="0" style="stop-color:#FFC444"/>
			<stop  offset="1" style="stop-color:#F36F56"/>
		</linearGradient>
		<polygon class="st31" points="1421,2811.9 1404.2,2846.1 1385.6,2841.1 1393.4,2808.6 		"/>
		
			<linearGradient id="SVGID_30_" gradientUnits="userSpaceOnUse" x1="3864.3035" y1="167.9476" x2="3797.6633" y2="387.7076" gradientTransform="matrix(0.99 0.12 0.12 -0.99 -2427.9431 2606.2302)">
			<stop  offset="0" style="stop-color:#444B8C"/>
			<stop  offset="1" style="stop-color:#26264F"/>
		</linearGradient>
		<path class="st32" d="M1396.3,2865.1c-8-11.9-16.3-11.7-17.2-19.4c-0.7-6,3.7-12.9,9.4-15c8-3,16.7,3.9,18.6,5.5
			c13.2,10.7,7.9,24.7,20.6,32.4c2.6,1.5,6.7,3.3,10.8,8c1.7,2,6,6.9,4.6,9.9c-1.7,3.4-10.1,2.4-18.1,1.4
			c-9.6-1.1-14.4-1.7-18.7-5.1C1400.1,2878.2,1402.5,2874.3,1396.3,2865.1z"/>
		
			<linearGradient id="SVGID_31_" gradientUnits="userSpaceOnUse" x1="3677.3735" y1="938.0812" x2="3644.9436" y2="208.5712" gradientTransform="matrix(0.99 0.12 0.12 -0.99 -2427.9431 2606.2302)">
			<stop  offset="0" style="stop-color:#311944"/>
			<stop  offset="1" style="stop-color:#893976"/>
		</linearGradient>
		<path class="st33" d="M1241.6,2029.7c-3.5,62.1-1.4,124.4,6.3,186.1c7,55.2,12.9,65.1,13.4,102.9c1,82.3-26.3,91.8-38.7,183.6
			c-13.8,101.4,6.6,184.6,14.7,216.3c5.7,22.4,12.8,44.5,21.1,66.1c8.7,8.9,23.2,7,38.5,5.2c13.2-91.9,27.3-178.3,40.5-270.2
			c29.4-137.5,58.8-275,88.2-412.4L1241.6,2029.7z"/>
		
			<linearGradient id="SVGID_32_" gradientUnits="userSpaceOnUse" x1="3677.3684" y1="938.0814" x2="3644.9385" y2="208.5714" gradientTransform="matrix(0.99 0.12 0.12 -0.99 -2427.9431 2606.2302)">
			<stop  offset="0" style="stop-color:#311944"/>
			<stop  offset="1" style="stop-color:#893976"/>
		</linearGradient>
		<path class="st34" d="M1296.9,2789.9c13.2-91.9,27.3-178.3,40.5-270.2c29.4-137.5,58.8-275,88.2-412.4l-184-77.6
			c-0.3,4.8-0.4,9.4-0.6,14.1c82.1,84.1,94.3,146.4,90,187.8c-5.2,50.3-34.8,72.9-35.5,146.3c-0.5,52.5,14.4,63,10.5,110.1
			c-5,60.6-33.9,92.6-49.5,126.6c-15,32.9-23.4,80.4-5.4,150.6c2.5,7.3,4.9,13.9,7.1,19.5C1267,2793.6,1281.6,2791.7,1296.9,2789.9z
			"/>
		
			<linearGradient id="SVGID_33_" gradientUnits="userSpaceOnUse" x1="4158.979" y1="631.8489" x2="3564.5491" y2="658.869" gradientTransform="matrix(0.99 0.12 0.12 -0.99 -2427.9431 2606.2302)">
			<stop  offset="0" style="stop-color:#311944"/>
			<stop  offset="1" style="stop-color:#893976"/>
		</linearGradient>
		<path class="st35" d="M1347.4,2108.4c39.9,82.1,60.5,145.8,71.3,185c6.6,23.9,12.3,48.7,11.5,80.6c-0.9,31-7.6,61.6-19.8,90.1
			c-13.5,28.6-24.1,58.5-31.6,89.2c-27.2,110.4-8.8,206.1,7.3,261.6l32.6,15.2c42.4-93.4,76.9-190.2,103.3-289.3
			c17.8-66.8,31.5-119.2,37.2-186.8c6-71.3,5.2-184.8-41.9-324.3L1347.4,2108.4z"/>
		
			<linearGradient id="SVGID_34_" gradientUnits="userSpaceOnUse" x1="3288.3848" y1="468.187" x2="3709.8848" y2="1368.8271" gradientTransform="matrix(0.99 0.12 0.12 -0.99 -2427.9431 2606.2302)">
			<stop  offset="0.49" style="stop-color:#EBEFF2"/>
			<stop  offset="1" style="stop-color:#FFFFFF"/>
		</linearGradient>
		<path class="st36" d="M1424.5,1493.7c70.2,18.1,123.4,35.4,144.5,74.7c22.3,41.5-20.8,67.8-39,153.4
			c-27.9,131,44.1,186.7,11.2,318.2c-8.7,34.5-22.7,67.4-41.5,97.5c-24.6,16.9-63.3,39.5-114.4,52.7c-74.3,19.3-108.8,1.6-206.4-0.9
			c-159.7-4.1-187.3,40-256.8,5.7c-70.2-34.7-116.3-116.5-98.2-148.3c10.9-19,38.9-4.3,82.7-25.1c56.4-26.9,50.9-70.4,97.5-103.5
			c67-47.5,122.9,10.7,180.3-30.7c58-41.9,73.9-154.1,56.4-223.2c-11.4-45.1-7.7-92.8-15.2-138.8c-0.9-5.5-0.2-11.2,2-16.4
			c11-25.1,58.8-26.2,94.8-26.6C1377.4,1481.8,1418.7,1492.2,1424.5,1493.7z"/>
		
			<linearGradient id="SVGID_35_" gradientUnits="userSpaceOnUse" x1="827.5286" y1="861.3839" x2="1549.9369" y2="861.3839" gradientTransform="matrix(1 0 0 -1 0 2900.6609)">
			<stop  offset="0" style="stop-color:#AA80F9"/>
			<stop  offset="1" style="stop-color:#6165D7"/>
		</linearGradient>
		<path class="st37" d="M934.6,2145.6c23.2-12.8,14.8-55.4,49.2-74.8c32-18,53.3,10.8,99.1,0.8c58.6-12.8,60.2-68.1,116.5-81.1
			c40.5-9.4,50.3,16.8,107,22.6c56.7,5.8,133-11.5,185.1-67.7c19.8-21.6,34.8-47.1,43.8-75c11.1,50.3,23.7,99,6,169.6
			c-8.7,34.5-22.7,67.4-41.5,97.5c-24.6,16.9-63.3,39.5-114.4,52.7c-74.3,19.3-108.8,1.6-206.4-0.9c-159.7-4.1-187.3,40-256.8,5.7
			c-44.9-22.2-79.8-63.5-94.5-98.8C886.6,2147.2,917.7,2154.9,934.6,2145.6z"/>
		
			<linearGradient id="SVGID_36_" gradientUnits="userSpaceOnUse" x1="3749.5164" y1="1637.2533" x2="3673.4763" y2="1514.2533" gradientTransform="matrix(0.99 0.12 0.12 -0.99 -2427.9431 2606.2302)">
			<stop  offset="0" style="stop-color:#FFC444"/>
			<stop  offset="1" style="stop-color:#F36F56"/>
		</linearGradient>
		<path class="st38" d="M1475.8,1373.8c0,0,16.6,38.5,15.7,64.4s-29.9,21.7-29.9,21.7l-0.3,16.4c-0.2,14,7.8,26.8,20.5,32.7
			l11.2,5.2c0,0-76.5,9.9-115.2-22.5l11.9-0.2c16.9-0.3,31.3-12.4,34.3-29l1.3-6.9C1425.5,1455.6,1419.1,1374,1475.8,1373.8z"/>
		
			<linearGradient id="SVGID_37_" gradientUnits="userSpaceOnUse" x1="4033.6458" y1="1446.2367" x2="3880.3857" y2="1198.3069" gradientTransform="matrix(0.99 0.12 0.12 -0.99 -2427.9431 2606.2302)">
			<stop  offset="0" style="stop-color:#444B8C"/>
			<stop  offset="1" style="stop-color:#26264F"/>
		</linearGradient>
		<path class="st39" d="M1552.5,1793.9l114.4-197.3c1.4-2.4,4.3-3.6,7-3l160,37.4c3.4,0.8,5.6,4.2,4.8,7.6c-0.2,0.7-0.4,1.4-0.8,2
			l-132.7,212.2c-1.6,2.6-4.8,3.7-7.6,2.6l-140.7-50.8L1552.5,1793.9z"/>
		
			<linearGradient id="SVGID_38_" gradientUnits="userSpaceOnUse" x1="4083.7637" y1="1426.2532" x2="3951.3735" y2="1177.6931" gradientTransform="matrix(0.99 0.1 0.1 -0.99 -2449.6499 2648.6426)">
			<stop  offset="0" style="stop-color:#FFC444"/>
			<stop  offset="1" style="stop-color:#F36F56"/>
		</linearGradient>
		<path class="st40" d="M1580.6,1771.5l92.6-159.8c1.1-2,3.4-3,5.7-2.4l129.6,30.3c2.8,0.7,4.5,3.4,3.9,6.2
			c-0.1,0.6-0.3,1.1-0.7,1.6l-107.4,171.8c-1.3,2.1-3.9,3-6.2,2.1l-113.9-41.1L1580.6,1771.5z"/>
		
			<linearGradient id="SVGID_39_" gradientUnits="userSpaceOnUse" x1="4019.1147" y1="1462.5415" x2="4055.5947" y2="1538.1915" gradientTransform="matrix(0.99 0.12 0.12 -0.99 -2427.9431 2606.2302)">
			<stop  offset="0" style="stop-color:#AA80F9"/>
			<stop  offset="1" style="stop-color:#6165D7"/>
		</linearGradient>
		<path class="st41" d="M1700.6,1613.6l7.3-12.8c1-1.8,3.1-2.7,5.1-2.2l66.7,15c2.5,0.6,4.1,3.1,3.5,5.6c-0.1,0.5-0.3,0.9-0.5,1.3
			l-8.2,13.9c-1,1.8-3.1,2.7-5.2,2.2l-65.8-16.1c-2.5-0.6-4-3.2-3.4-5.7C1700.2,1614.4,1700.4,1614,1700.6,1613.6z"/>
		<path class="st8" d="M1787.9,1668.5l-0.3-0.1l-117.3-27.7c-1.4-0.4-2.3-1.8-2-3.3c0.4-1.4,1.8-2.3,3.3-2l117.3,27.7
			c1.5,0.3,2.4,1.8,2,3.2C1790.5,1667.8,1789.3,1668.7,1787.9,1668.5L1787.9,1668.5z"/>
		<path class="st8" d="M1780.5,1679.9l-0.3-0.1l-116.6-28.8c-1.5-0.3-2.4-1.7-2.1-3.2c0.3-1.5,1.7-2.4,3.2-2.1c0.1,0,0.1,0,0.2,0
			l116.6,28.8c1.5,0.3,2.4,1.7,2.2,3.2S1782,1680.1,1780.5,1679.9L1780.5,1679.9L1780.5,1679.9z"/>
		<path class="st8" d="M1719,1692.5l-0.4-0.1l-63.4-17.5c-1.4-0.4-2.3-1.9-1.9-3.3c0,0,0,0,0,0c0.4-1.4,1.9-2.3,3.3-1.9l63.4,17.5
			c1.4,0.4,2.3,1.9,1.9,3.3C1721.6,1691.9,1720.4,1692.7,1719,1692.5L1719,1692.5z"/>
		
			<linearGradient id="SVGID_40_" gradientUnits="userSpaceOnUse" x1="4066.2224" y1="1348.1654" x2="4029.4424" y2="1288.6754" gradientTransform="matrix(0.99 0.12 0.12 -0.99 -2427.9431 2606.2302)">
			<stop  offset="0" style="stop-color:#FFC444"/>
			<stop  offset="1" style="stop-color:#F36F56"/>
		</linearGradient>
		<path class="st42" d="M1737.6,1800.9c0,0,28.3-15.2,32.7-27.6s6.1-36.3,6.1-36.3l-18.9,32c0,0-7.2-2.9-9.3-14.3s-8.5-1.8-7.2,6.8
			C1742.4,1770.1,1737.6,1800.9,1737.6,1800.9z"/>
		
			<linearGradient id="SVGID_41_" gradientUnits="userSpaceOnUse" x1="3476.6321" y1="380.1038" x2="3898.1221" y2="1280.7336" gradientTransform="matrix(0.99 0.12 0.12 -0.99 -2427.9431 2606.2302)">
			<stop  offset="0.49" style="stop-color:#EBEFF2"/>
			<stop  offset="1" style="stop-color:#FFFFFF"/>
		</linearGradient>
		<path class="st43" d="M1557.7,1554.6c19.3,14.6,35.8,32.6,48.6,53.1c45.8,74,17.5,144.9,58.6,175.3c11.8,8.7,33.1,17,74.2,7.1
			l14.4,9.7c0,0,8.7,96.4-106.4,88s-157.3-157-157.3-157L1557.7,1554.6z"/>
		
			<linearGradient id="SVGID_42_" gradientUnits="userSpaceOnUse" x1="1042.3124" y1="974.9135" x2="1208.4724" y2="1387.6436" gradientTransform="matrix(1 0 0 -1 0 2900.6609)">
			<stop  offset="0" style="stop-color:#444B8C"/>
			<stop  offset="1" style="stop-color:#26264F"/>
		</linearGradient>
		<path class="st44" d="M1461.1,1409.5c-3.9-0.6-6.7-5.8-9.4-4.6s-3.2,8.5-1.2,13.8c1.3,3.3,3.5,6.1,6.4,8.1
			c-4.6,5.3-8.1,11.6-10,18.4c-5.1,18.4,3.6,34.2,7,43.4c15.4,41.2-18.8,101.5-53.2,130.5c-28,23.6-39.2,12.2-56.3,32
			c-33.4,38.4,4.3,86.8-15.8,140.5c-30.5,81.7-164.8,95.7-170.3,96.2c-2.2,0.2-3.7,0.3-5.9,0.5c-60.1,4.5-151.1,11.3-210.3-42.6
			c-44.3-40.3-60.8-105.5-52.6-161c2.2-14.6,11.2-70,60.4-111.7c7.8-6.6,54-45.7,111.7-41.5c30.6,2.3,35.8,13.5,59.7,8.8
			c32.7-6.5,54.8-33.9,68.5-50.9c25.2-31.3,16.7-39.2,34.2-54.1c34.3-29.3,69.4-1.2,105.6-26.6c35.7-25,18.7-64.4,52.9-85.8
			c35.3-22.1,98.1-8.1,109.2,22.6C1501.2,1371.8,1472.9,1411.5,1461.1,1409.5z"/>
	</g>
</g>
</svg>
