<?xml version="1.0" encoding="utf-8"?>
<!-- Generator: Adobe Illustrator 24.0.1, SVG Export Plug-In . SVG Version: 6.00 Build 0)  -->
<svg version="1.1" id="Layer_1" xmlns="http://www.w3.org/2000/svg" xmlns:xlink="http://www.w3.org/1999/xlink" x="0px" y="0px"
	 viewBox="0 0 3710 2800" style="enable-background:new 0 0 3710 2800;" xml:space="preserve">
<style type="text/css">
	.st0{fill:url(#SVGID_1_);}
	.st1{fill:#91B3FA;}
	.st2{fill:#BDD0FB;}
	.st3{fill:url(#SVGID_2_);}
	.st4{fill:url(#SVGID_3_);}
	.st5{fill:url(#SVGID_4_);}
	.st6{fill:url(#SVGID_5_);}
	.st7{fill:url(#SVGID_6_);}
	.st8{fill:#F54394;}
	.st9{fill:#FFBDDE;}
	.st10{fill:#FFFFFF;}
	.st11{fill:url(#SVGID_7_);}
	.st12{fill:url(#SVGID_8_);}
	.st13{fill:url(#SVGID_9_);}
	.st14{fill:url(#SVGID_10_);}
	.st15{fill:url(#SVGID_11_);}
	.st16{fill:url(#SVGID_12_);}
	.st17{fill:url(#SVGID_13_);}
	.st18{fill:url(#SVGID_14_);}
	.st19{fill:url(#SVGID_15_);}
	.st20{fill:url(#SVGID_16_);}
	.st21{fill:url(#SVGID_17_);}
	.st22{fill:url(#SVGID_18_);}
	.st23{fill:url(#SVGID_19_);}
	.st24{fill:url(#SVGID_20_);}
	.st25{fill:url(#SVGID_21_);}
	.st26{fill:url(#SVGID_22_);}
	.st27{fill:#7D97F4;}
	.st28{fill:#12C2E9;}
	.st29{fill:url(#SVGID_23_);}
	.st30{fill:url(#SVGID_24_);}
	.st31{fill:url(#SVGID_25_);}
	.st32{fill:url(#SVGID_26_);}
	.st33{fill:url(#SVGID_27_);}
	.st34{fill:url(#SVGID_28_);}
	.st35{fill:url(#SVGID_29_);}
	.st36{fill:url(#SVGID_30_);}
	.st37{fill:url(#SVGID_31_);}
	.st38{fill:url(#SVGID_32_);}
	.st39{fill:url(#SVGID_33_);}
	.st40{fill:url(#SVGID_34_);}
	.st41{fill:url(#SVGID_35_);}
	.st42{fill:url(#SVGID_36_);}
	.st43{fill:url(#SVGID_37_);}
	.st44{fill:url(#SVGID_38_);}
	.st45{fill:url(#SVGID_39_);}
	.st46{fill:url(#SVGID_40_);}
	.st47{fill:url(#SVGID_41_);}
	.st48{fill:url(#SVGID_42_);}
	.st49{fill:url(#SVGID_43_);}
	.st50{fill:url(#SVGID_44_);}
	.st51{fill:url(#SVGID_45_);}
	.st52{fill:url(#SVGID_46_);}
	.st53{fill:url(#SVGID_47_);}
	.st54{fill:url(#SVGID_48_);}
	.st55{fill:url(#SVGID_49_);}
	.st56{fill:url(#SVGID_50_);}
	.st57{fill:url(#SVGID_51_);}
	.st58{fill:url(#SVGID_52_);}
	.st59{fill:url(#SVGID_53_);}
	.st60{fill:url(#SVGID_54_);}
	.st61{fill:url(#SVGID_55_);}
	.st62{fill:url(#SVGID_56_);}
	.st63{fill:url(#SVGID_57_);}
	.st64{fill:url(#SVGID_58_);}
</style>
<title>bn_con8</title>
<g id="Illustration">
	
		<linearGradient id="SVGID_1_" gradientUnits="userSpaceOnUse" x1="3594.0544" y1="-817.6504" x2="1109.5345" y2="2267.9797" gradientTransform="matrix(1 0 0 -1 0 2798.6531)">
		<stop  offset="0" style="stop-color:#DAE3FE"/>
		<stop  offset="1" style="stop-color:#E9EFFD"/>
	</linearGradient>
	<path class="st0" d="M2910.6,2399.4c-57.1,60.1-111.1,98.8-153.7,129.4c-501.5,359.8-1094.9,254.9-1221,229.3
		c-186.2-37.8-546.2-110.9-806.5-417c-393.8-463-332.4-1192.6-27-1674.1c55.9-88.1,351-577,950.8-655.4
		c363-47.5,786.1,48.3,1092.5,305C3388.8,855.5,3343,1944.1,2910.6,2399.4z"/>
	<path class="st1" d="M502.9,947.6c-2.8-1.3-4.6-4.1-4.7-7.2c0-10.4,0.1-21,0.5-31.4c0.2-4.2,3.8-7.5,8-7.4c0.1,0,0.1,0,0.2,0
		c10.6,0.5,7,10.8,7.1,39c0,4.2-3.4,7.7-7.7,7.7c-0.1,0-0.1,0-0.2,0C505,948.3,503.9,948,502.9,947.6z"/>
	<path class="st1" d="M508.8,811.6c3.3-19.7,7.5-39.5,12.4-58.9c1.1-4.1,5.3-6.6,9.5-5.5c0,0,0,0,0.1,0c11.5,3.1,3.5,9.1-6.4,67.2
		c-0.7,4.2-4.8,7-9,6.3c0,0-0.1,0-0.1,0C511.1,819.9,508.2,815.9,508.8,811.6z M551.2,659.8c7.4-18.7,15.6-37.4,24.3-55
		c4.6-9.5,18.7-2.1,14.3,7c-8.6,17.6-16.5,35.6-23.8,53.9c-1.6,4.1-6.2,6.1-10.3,4.4C551.6,668.5,549.6,663.9,551.2,659.8
		L551.2,659.8z M624,520.1c11-16.6,22.8-33,35.2-48.8c6.4-8.1,18.9,1.6,12.6,9.7c-12.1,15.4-23.7,31.5-34.5,47.8
		C631.6,537.3,618.3,528.6,624,520.1z M724.5,409.4c-3.1-3-3.1-7.8-0.2-10.9c0,0,0.1-0.1,0.1-0.1c14.3-14,29.3-27.6,44.7-40.5
		c7.9-6.6,18.3,5.3,10.3,12c-15.1,12.6-29.8,25.9-43.8,39.7C732.5,412.6,727.6,412.5,724.5,409.4z M846.2,310.7
		c-2.4-3.5-1.5-8.3,2-10.6c0.1,0,0.1-0.1,0.2-0.1c17-10.8,34.5-21.1,52.3-30.5c9.1-4.8,16.8,8.9,7.7,13.7
		c-17.4,9.3-34.7,19.3-51.3,29.9C853.5,315.4,848.6,314.4,846.2,310.7z M990.2,243.1c-1.9-0.8-3.3-2.4-4.1-4.3
		c-1.6-3.9,0.3-8.4,4.2-10c0.1,0,0.1-0.1,0.2-0.1c18.9-7.2,38.3-13.7,57.7-19.3c4.2-1.2,8.6,1.1,9.9,5.3c1.3,4-0.9,8.3-4.9,9.6
		c-0.1,0-0.1,0-0.2,0.1c-19,5.6-38,11.9-56.5,19C994.4,244.1,992.1,244,990.2,243.1L990.2,243.1z M1142.9,202.4
		c-2.4-1.1-4.1-3.2-4.6-5.8c-0.8-4.2,2-8.1,6.2-8.9c0.1,0,0.1,0,0.2,0c20-3.2,40.4-5.7,60.6-7.3c4.3-0.4,8.2,2.8,8.7,7.1
		c0.4,4.2-2.6,8-6.8,8.4c-0.1,0-0.2,0-0.2,0c-19.8,1.6-39.8,4-59.4,7.2C1145.9,203.3,1144.3,203.1,1142.9,202.4L1142.9,202.4z
		 M1296.6,185.9c0.1-4.3,3.7-7.6,8-7.4c0.1,0,0.1,0,0.2,0c20.3,0.9,40.9,2.6,61.1,5.1c10.4,1.3,8.7,16.7-1.7,15.5
		c-19.8-2.4-40-4.1-59.9-5C1300,193.9,1296.5,190.3,1296.6,185.9L1296.6,185.9z M1790.5,390.3c-44.7-39.5-55.4-39.6-48.2-49
		c2.7-3.4,7.6-4,11.1-1.4c16.3,12.3,32.3,25.3,47.6,38.8C1808.8,385.7,1798.4,397.2,1790.5,390.3z M1454.4,207.4
		c1.1-4.2,5.3-6.7,9.5-5.6c0,0,0,0,0,0c19.8,5,39.6,10.8,59,17.2c10,3.3,5.1,18.1-4.8,14.8c-19-6.3-38.4-12-57.8-16.9
		C1456,215.9,1453.4,211.7,1454.4,207.4z M1662.2,298.4c-51.7-29.7-62.3-27.7-57.2-38.4c3.2-6.8,11.5-3.6,10.5-3.6
		c18.5,8.8,36.8,18.4,54.5,28.5c3.8,2.1,5.1,6.8,3,10.6c0,0,0,0,0,0.1C1670.7,299.4,1665.9,300.6,1662.2,298.4L1662.2,298.4z"/>
	<path class="st1" d="M1880,483.6c-16.8-20.7-27.6-28-19.5-34.9c3.3-2.8,8.3-2.4,11.2,0.9c18.2,20.7,27.5,29,19.4,35.3
		C1888.7,486.8,1882.7,486.9,1880,483.6z"/>
	<path class="st1" d="M2051.1,1064.1c-3.1-1.4-5-4.7-4.6-8.1c1.3-10.2,2.3-20.4,3.2-30.6c0.4-4.2,4.1-7.4,8.4-7c0.1,0,0.1,0,0.2,0
		c4.3,0.4,7.5,4.2,7.2,8.5c-0.9,10.4-1.9,20.9-3.3,31.2c-0.6,4.2-4.4,7.2-8.7,6.6c0,0-0.1,0-0.1,0
		C2052.6,1064.7,2051.8,1064.5,2051.1,1064.1z"/>
	<path class="st1" d="M940.2,1640.5c-19.7-9.7-39.3-20.4-58.1-31.7c-3.7-2.2-5-7-2.8-10.7c0,0,0,0,0-0.1c6.3-10.3,10,0,67.8,28.6
		c3.9,1.9,5.5,6.6,3.7,10.5c0,0,0,0,0,0C947.5,1643.8,939.3,1640.5,940.2,1640.5z M1034.5,1671.8c3.8-11.4,10.1-2.1,72.2,13.5
		c4.2,1,6.8,5.2,5.9,9.5c-1,4.2-5.3,6.7-9.4,5.6c0,0-0.1,0-0.1,0c-21.2-5.3-42.6-11.6-63.4-18.7
		C1035.4,1680.3,1033.2,1675.9,1034.5,1671.8z M794,1547.3c-17.1-13.7-33.9-28.3-49.8-43.5c-3.1-2.9-3.3-7.8-0.4-10.9
		c0,0,0.1-0.1,0.1-0.1c8.5-8.7,9.8,2.2,60,42.5c3.4,2.6,4,7.5,1.4,10.9c0,0-0.1,0.1-0.1,0.1C802.3,1549.6,797.4,1550.1,794,1547.3z
		 M1206.2,1718.8c-3.1-1.4-4.9-4.6-4.6-7.9c0.4-4.2,4.2-7.3,8.5-6.9c0.1,0,0.1,0,0.2,0c21.4,2.4,43.1,3.9,64.5,4.5
		c4.3,0.1,7.8,3.7,7.8,8c-0.1,4.2-3.5,7.6-7.8,7.6c-0.1,0-0.1,0-0.2,0c-21.9-0.6-44-2.2-65.8-4.6
		C1207.8,1719.4,1206.9,1719.1,1206.2,1718.8L1206.2,1718.8z M1377.1,1719.1c-2.5-1.1-4.2-3.5-4.6-6.2c-0.5-4.2,2.4-8,6.7-8.6
		c0.1,0,0.1,0,0.2,0c21.3-2.3,42.7-5.5,63.7-9.6c4.3-0.8,8.4,1.9,9.4,6.2c0.9,4.1-1.7,8.2-5.8,9.1c-0.1,0-0.1,0-0.2,0
		c-21.4,4.1-43.3,7.4-65,9.8C1379.9,1720,1378.4,1719.7,1377.1,1719.1L1377.1,1719.1z M1543.3,1682.5c-1.9-0.9-3.5-2.5-4.2-4.5
		c-1.5-4,0.6-8.4,4.5-9.8c0.1,0,0.2-0.1,0.2-0.1c20.2-6.8,40.3-14.6,59.8-23.1c4-1.7,8.6,0.1,10.5,4c1.8,3.8,0.2,8.4-3.7,10.2
		c-0.1,0-0.2,0.1-0.2,0.1c-19.9,8.6-40.4,16.6-61,23.5C1547.3,1683.5,1545.2,1683.4,1543.3,1682.5L1543.3,1682.5z M1696.9,1610.9
		c-1.4-0.7-2.6-1.7-3.4-3c-2.3-3.5-1.3-8.3,2.2-10.6c0.1,0,0.1-0.1,0.2-0.1c18.1-11,36-22.9,53-35.4c3.5-2.5,8.5-1.8,11.1,1.7
		c2.6,3.3,2,8.1-1.3,10.7c-0.1,0-0.1,0.1-0.2,0.1c-17.4,12.8-35.7,24.9-54.1,36.2C1702,1611.8,1699.2,1612,1696.9,1610.9
		L1696.9,1610.9z M1828,1506.1c-8.7-8.7,2.3-9.5,43.7-57.2c6.7-7.8,18.8,2.5,12.1,10.2c-14.1,16.3-29.1,32.1-44.6,47.1
		C1836,1509.3,1831,1509.2,1828,1506.1z M1936,1377.2c-10.4-6.6,0.1-9.8,29.6-65.5c4.8-9,18.9-1.7,14,7.4
		c-10.1,19-21.1,37.8-32.7,55.8C1944.4,1378.5,1939.6,1379.5,1936,1377.2z M2011.6,1227.4c-3.7-1.7-5.6-5.9-4.2-9.8
		c7.2-19.9,13.7-40.2,19.2-60.5c1.2-4.1,5.5-6.6,9.6-5.4c0,0,0,0,0.1,0c4.2,1.1,6.7,5.4,5.6,9.6c-5.6,20.7-12.2,41.4-19.6,61.7
		c-1.5,4-6,6.1-10.1,4.6c0,0,0,0,0,0C2012,1227.6,2011.8,1227.5,2011.6,1227.4L2011.6,1227.4z"/>
	<path class="st1" d="M671.2,1424.6c-17.3-21.5-26.1-30.2-17.8-36.1c8.6-6.1,12.5,4.6,30.1,26.6c2.7,3.3,2.2,8.1-1,10.8
		c-0.1,0-0.1,0.1-0.2,0.1C678.9,1428.7,673.9,1428,671.2,1424.6z"/>
	<path class="st1" d="M771.4,1234.6l113.2-6c31.9,43.4,70.5,81.3,114.3,112.5c-3.3,108.5-11.2,115.9,0.1,120.6l126.3,52.2
		c3.6,1.5,7.9,0.6,10.5-2.3l74.3-83.1c53,8.9,107,9.3,160.1,1.1l76.1,84.3c2.7,3,6.9,3.9,10.6,2.5l125.2-50.4c3.6-1.5,5.9-5.1,5.6-9
		l-8-111.6c43.2-30.4,81.1-67.9,112.2-110.7l113.3,7.6c3.9,0.3,7.6-2,9.1-5.6l50.8-123.5c1.5-3.7,0.5-7.8-2.5-10.4l-85.6-74.7
		c8.2-52.3,7.6-105.6-1.7-157.8c80.7-73.5,91.3-72.8,86.5-83.9c-54.5-121-50.2-130.6-62.6-130l-113.2,6
		c-31.9-43.3-70.5-81.3-114.3-112.4c3.3-108.4,11.2-115.9-0.1-120.5c-126.3-49.7-128.8-58.8-136.8-49.9l-74.3,83.1
		c-53-8.9-107-9.3-160.1-1.1c-75.1-79.8-75.3-91.3-86.7-86.7c-123.1,52-131.8,47.3-130.9,59.4l8,111.6
		c-43.2,30.4-81.1,67.9-112.1,110.7c-108.3-5-117.7-13.3-122.4-2c-48.1,123.1-57.5,125.8-48.3,133.9l85.6,74.7
		c-8.2,52.3-7.6,105.6,1.7,157.8c-80.4,73.3-91.3,72.8-86.5,83.9C763.3,1225.5,759,1235.2,771.4,1234.6z"/>
	<path class="st2" d="M1153.8,925.5c9.9-71.3,76.9-120.3,149.4-109.3s123.5,77.9,113.6,149.1s-76.9,120.3-149.4,109.3l0,0
		C1194.9,1063.7,1144,996.7,1153.8,925.5z M1269,1063.1L1269,1063.1L1269,1063.1z M1300,839.3c-58.8-8.9-114.5,30.4-122.7,89.8
		c-8.1,58.5,33.7,113.5,93.3,122.5s114.6-31.3,122.7-89.8S1359.5,848.3,1300,839.3L1300,839.3z"/>
	<path class="st2" d="M1148,1247.3L1148,1247.3c-17.8-8.2-35-17.9-51.2-29c-4.7-3.2-6.5-9.3-4.2-14.5c0.3-0.6,0.6-1.2,1-1.8
		c3.8-5.3,11.1-6.6,16.5-2.8c18.7,12.7,38.6,23.5,59.5,32.2l0,0c157.9,65.3,337.5-3.8,406.8-154.1c1.8-3.8,3.5-7.7,5.1-11.7
		c65.6-159.4-13.8-341.8-175.5-408.8c-161.4-66.8-346.4,6.9-411.9,165.8c-38.9,94.6-15.5,161.6-20,171.3
		c-4.8,10.5-20.7,8.1-22.5-3.3c-10.4-64.4-1.3-130.4,26-189.6c121.3-263.3,507.5-252.5,623.3,17.1c35.6,83,36.6,174.1,2.6,256.6
		c-1.7,4.3-3.6,8.5-5.5,12.7c-35.2,76.4-97.5,135.5-176.8,167.4c-83.6,33.7-176.1,33-260.4-1.9
		C1156.5,1251.1,1152.3,1249.3,1148,1247.3z"/>
	<path class="st1" d="M2133.6,752.5c19.4,22.9,42.4,42.4,68.1,57.9l1.3,63.3c0.1,7,6.1,4.3,75.9,28.2c6.5,2.1,5.7-4,43.8-52.4
		c29.9,2.4,60,0,89.1-7.2l45.7,43.9c5.1,4.9,7.4-1.3,73.6-33.8c2-1,3.1-3.2,2.8-5.4l-8.9-62.7c22.9-19.4,42.4-42.4,57.9-68.1
		c60.4-2.5,66,1.7,68.1-4.9c21.8-72,26.9-74,21.5-78l-50.6-38c2.4-29.9,0-60-7.2-89.1l43.9-45.7c4.9-5.1-1.3-7.4-33.8-73.6
		c-3.1-6-6.6-1.3-68.1,6.1c-19.4-22.9-42.4-42.4-68.1-57.9l-1.3-63.3c-0.1-7-6.1-4.3-75.9-28.2c-6.4-2.1-5.6,3.7-43.8,52.4
		c-29.9-2.4-60,0-89.1,7.2l-45.7-43.9c-1.6-1.6-4-1.9-6-0.9l-67.6,34.6c-2,1-3.1,3.2-2.8,5.4l8.9,62.7
		c-22.9,19.4-42.4,42.4-57.9,68.1c-60.4,2.5-66-1.7-68.1,4.9c-21.8,72-26.9,73.9-21.5,78l50.6,38c-2.4,29.9,0,60,7.2,89.1
		c-41,44.5-47.9,45.5-44.8,51.6l34.6,67.6C2068.7,764.7,2072.5,759.9,2133.6,752.5z"/>
	<path class="st2" d="M2266,567.6c2.8-43.7,40.5-76.8,84.2-74c43.7,2.8,76.8,40.5,74,84.2c-2.8,43.7-40.5,76.8-84.2,74l0,0
		C2296.3,649,2263.2,611.3,2266,567.6z M2340.7,640.1L2340.7,640.1L2340.7,640.1z M2289.6,569.1c-1.9,30.6,21.3,57.1,51.9,59.1l0,0
		c49.2,3.2,78-55.1,45.4-92.2C2354.4,499.1,2292.8,519.7,2289.6,569.1L2289.6,569.1z"/>
	<path class="st1" d="M1947.3,691.3c-3-10.2-5.7-20.7-8-31.1c-0.9-4.2,1.8-8.4,6-9.3c10.7-2.3,9.2,9.6,17,35.9
		c1.2,4.2-1.1,8.6-5.3,9.8C1952.8,697.9,1948.4,695.5,1947.3,691.3L1947.3,691.3z"/>
	<path class="st1" d="M1930.4,555.3c0.9-21.6,3.5-43.2,7.7-64.4c2-10.2,17.5-7.1,15.4,3.1c-11.3,56.4-2.5,70.1-15.6,69.5
		C1933.6,563.4,1930.2,559.7,1930.4,555.3C1930.4,555.3,1930.4,555.3,1930.4,555.3z M1975.4,401.7c-3.9-1.9-5.5-6.6-3.6-10.5
		c9.5-19.5,20.5-38.2,32.9-55.9c6-8.5,18.9,0.5,12.9,9c-11.9,17.1-22.5,35.1-31.6,53.8C1982.6,404.9,1974.4,401.7,1975.4,401.7
		L1975.4,401.7z M2077.2,270.4c-4-1.8-5.7-6.5-3.8-10.5c0.5-1,1.2-1.9,2-2.7c16.5-14.1,34-26.8,52.4-38.2c3.7-2.3,8.5-1.1,10.8,2.6
		c2.3,3.7,1.1,8.5-2.6,10.8l0,0c-17.7,10.9-34.6,23.2-50.4,36.8C2083.3,271.3,2079.9,271.7,2077.2,270.4L2077.2,270.4z
		 M2222.6,190.4c-3.9-1.8-5.7-6.5-3.9-10.4c0.9-2,2.7-3.6,4.9-4.2c20.7-6.3,41.9-11,63.3-14.1c4.3-0.7,8.4,2.1,9.1,6.4
		c0.7,4.3-2.1,8.4-6.4,9.1c-0.2,0-0.3,0-0.5,0.1c-20.6,2.9-41,7.4-60.9,13.5C2226.4,191.4,2224.4,191.2,2222.6,190.4L2222.6,190.4z
		 M2383.5,167.3c0.5-4.3,4.4-7.5,8.7-7c0,0,0,0,0,0c21.5,2.4,42.8,6.5,63.7,12.3c10,2.7,5.9,18-4.2,15.2
		c-20.1-5.5-40.6-9.5-61.3-11.8C2386.1,175.5,2382.9,171.6,2383.5,167.3C2383.4,167.2,2383.4,167.2,2383.5,167.3L2383.5,167.3z"/>
	<path class="st1" d="M2571.4,243.6c-23.8-16.4-34.3-18.1-28.9-27.3c2.1-3.7,6.9-5.1,10.6-2.9c0,0,0.1,0,0.1,0.1
		c9.2,5.3,18.3,11.1,27.1,17.2c3.6,2.5,4.5,7.4,2,11S2575,246.1,2571.4,243.6L2571.4,243.6L2571.4,243.6z"/>
	<path class="st1" d="M2741.3,521.8c-3.7-28.8-9.4-37.6,1-39.8c4.3-0.9,8.4,1.8,9.3,6.1c0,0,0,0,0,0c2.2,10.4,3.9,21,5.3,31.7
		c0.6,4.3-2.4,8.3-6.7,8.9s-8.3-2.4-8.9-6.7C2741.3,521.9,2741.3,521.9,2741.3,521.8L2741.3,521.8z"/>
	<path class="st1" d="M2209.3,956.8c4.1-12.4,13.4,0.4,69.5,9.7c10.3,1.7,7.7,17.3-2.6,15.5c-21-3.5-41.7-8.6-61.9-15.3
		C2210.2,965.4,2208,960.9,2209.3,956.8C2209.3,956.8,2209.3,956.8,2209.3,956.8z M2371.2,979.2c-0.4-4.3,2.9-8.1,7.2-8.5
		c57.2-4.7,67-16.7,70.1-3.9c1,4.2-1.6,8.5-5.8,9.5c0,0,0,0,0,0c-20.7,5-41.8,8.4-63,10.1C2375.3,986.7,2371.5,983.5,2371.2,979.2
		L2371.2,979.2z M2528.8,936.3c-6.1-11.6,9.4-9.4,55.1-43.5c8.4-6.2,17.8,6.4,9.4,12.6c-17.1,12.7-35.1,24.2-53.9,34.1
		C2535.6,941.6,2530.8,940.1,2528.8,936.3L2528.8,936.3z M2656.8,834.9c-10.2-8.3,5-12.3,33.7-61.6c5.2-9,18.9-1.1,13.6,7.9
		c-10.7,18.4-22.8,36-36.2,52.5C2665.2,837.1,2660.2,837.6,2656.8,834.9L2656.8,834.9z M2729.4,681.6c15.6-55.2,7.8-68.6,20.9-67
		c4.3,0.5,7.4,4.4,6.9,8.8c0,0,0,0,0,0c-2.6,21.1-6.8,42.1-12.6,62.6c-1.2,4.2-5.5,6.6-9.7,5.4
		C2730.7,690.2,2728.2,685.8,2729.4,681.6L2729.4,681.6L2729.4,681.6z"/>
	<path class="st1" d="M2120.6,921.9c-9-5.8-17.8-12-26.3-18.4c-3.4-2.6-4.1-7.5-1.5-11c6.6-8.7,13.2,1.3,36.3,16.2
		c3.6,2.4,4.5,7.3,2.1,10.9C2128.9,923.1,2124.2,924.1,2120.6,921.9L2120.6,921.9z"/>
	<path class="st2" d="M2249,741c-5.8-3-8.1-10.1-5-15.9c3-5.8,10.1-8.1,15.9-5c0.2,0.1,0.4,0.2,0.5,0.3
		c50.5,29.2,112.3,30.8,164.2,4.2c135.4-69.4,119.4-269.1-25.5-315.8c-83.4-26.9-172.6,13.7-208.3,91.3
		c-36,78.2,4.7,118.9-20.2,124.6c-6.3,1.5-12.7-2.5-14.2-8.8c0,0,0,0,0,0c-8-34.4-6.4-70.3,4.4-103.9
		c32.9-102.2,143-158.9,245.6-125.8c110.3,35.6,166.6,160.3,117.2,267.7c-39.9,86.6-140.3,134.8-236.9,103.7l0,0
		C2273.5,753.4,2260.9,747.8,2249,741z"/>
	
		<linearGradient id="SVGID_2_" gradientUnits="userSpaceOnUse" x1="2137.7183" y1="1792.5763" x2="2103.4783" y2="1566.5763" gradientTransform="matrix(1 0 0 -1 0 2798.6531)">
		<stop  offset="0" style="stop-color:#09005D"/>
		<stop  offset="1" style="stop-color:#1A0F91"/>
	</linearGradient>
	<path class="st3" d="M2216.7,1023.4c-0.3-3.7-4.1-6.9-10.4-9.4c6.9-3.8,10.8-7.9,10.4-11.9c-1-12.2-39.5-19-86.1-15.2
		s-83.5,16.7-82.5,28.8c0.3,3.7,4.1,6.9,10.4,9.4c-6.9,3.8-10.8,7.9-10.4,12c0.3,3.7,4.1,6.9,10.4,9.4c-6.9,3.8-10.8,7.9-10.4,11.9
		c0.3,3.7,4.1,6.9,10.4,9.4c-6.9,3.8-10.8,7.9-10.4,12c0.4,5.4,8.2,9.7,20.8,12.6c-0.2,4.4-0.1,8.8,0.3,13.2c1.8,22.4,27,40,60.4,40
		s62.2-24,62.6-46.4c0.1-4.9-0.1-9.8-0.6-14.7c16-5.3,25.7-11.8,25.2-18.2c-0.3-3.7-4.1-6.9-10.4-9.4c6.9-3.8,10.8-7.9,10.4-11.9
		c-0.3-3.7-4.1-6.9-10.4-9.4C2213.2,1031.5,2217,1027.4,2216.7,1023.4z"/>
	
		<linearGradient id="SVGID_3_" gradientUnits="userSpaceOnUse" x1="2145.2866" y1="1886.2767" x2="2086.1465" y2="1234.1267" gradientTransform="matrix(1 0 0 -1 0 2798.6531)">
		<stop  offset="0" style="stop-color:#53D8FF"/>
		<stop  offset="1" style="stop-color:#3840F7"/>
	</linearGradient>
	<path class="st4" d="M2109.1,1097.1c-12.4,0.1-24.7-0.9-36.9-3c-0.6-0.1-1-0.7-0.9-1.3s0.7-1,1.3-0.9c16.4,3.1,38.2,3.8,61.5,1.9
		c19.1-1.5,36.9-4.6,51.6-8.9c0.6-0.2,1.2,0.2,1.4,0.8c0.2,0.6-0.2,1.2-0.8,1.4c-14.8,4.3-32.8,7.4-52,9
		C2125.6,1096.8,2117.2,1097.1,2109.1,1097.1z"/>
	
		<linearGradient id="SVGID_4_" gradientUnits="userSpaceOnUse" x1="2147.0491" y1="1886.1228" x2="2087.9189" y2="1233.9629" gradientTransform="matrix(1 0 0 -1 0 2798.6531)">
		<stop  offset="0" style="stop-color:#53D8FF"/>
		<stop  offset="1" style="stop-color:#3840F7"/>
	</linearGradient>
	<path class="st5" d="M2109.4,1075.7c-18,0-34-1.7-45.3-4.9c-0.6-0.1-1-0.7-0.9-1.3s0.7-1,1.3-0.9c0,0,0.1,0,0.1,0
		c16.1,4.6,42.1,6,69.5,3.8c27.1-2.2,52.3-7.7,67.6-14.7c0.5-0.4,1.2-0.2,1.6,0.3c0.4,0.5,0.2,1.2-0.3,1.6c-0.1,0.1-0.2,0.1-0.4,0.2
		c-15.4,7.1-41,12.7-68.3,14.9C2125.8,1075.4,2117.4,1075.7,2109.4,1075.7z"/>
	
		<linearGradient id="SVGID_5_" gradientUnits="userSpaceOnUse" x1="2143.8179" y1="1886.4093" x2="2084.688" y2="1234.2593" gradientTransform="matrix(1 0 0 -1 0 2798.6531)">
		<stop  offset="0" style="stop-color:#53D8FF"/>
		<stop  offset="1" style="stop-color:#3840F7"/>
	</linearGradient>
	<path class="st6" d="M2109.1,1054.4c-19.4,0-36.4-2-47.8-5.8c-0.6-0.2-0.9-0.8-0.7-1.4c0.2-0.6,0.8-0.9,1.4-0.7
		c15.9,5.2,42.8,7,72.1,4.6c27.1-2.2,52.3-7.7,67.6-14.7c0.5-0.4,1.2-0.2,1.6,0.3c0.4,0.5,0.2,1.2-0.3,1.6c-0.1,0.1-0.2,0.1-0.4,0.2
		c-15.4,7.1-41,12.7-68.3,14.9C2125.6,1054,2117.2,1054.4,2109.1,1054.4z"/>
	
		<linearGradient id="SVGID_6_" gradientUnits="userSpaceOnUse" x1="2145.4087" y1="1886.2646" x2="2086.2786" y2="1234.1146" gradientTransform="matrix(1 0 0 -1 0 2798.6531)">
		<stop  offset="0" style="stop-color:#53D8FF"/>
		<stop  offset="1" style="stop-color:#3840F7"/>
	</linearGradient>
	<path class="st7" d="M2109.3,1033c-15.4,0-29.4-1.3-40.3-3.7c-0.6-0.1-1-0.7-0.9-1.3s0.7-1,1.3-0.9l0,0c16.4,3.6,39.9,4.6,64.6,2.6
		c26.8-2.2,52-7.6,67.2-14.5c0.6-0.2,1.2,0.2,1.4,0.8c0.1,0.5-0.1,0.9-0.4,1.2c-15.5,7-40.9,12.6-68,14.7
		C2125.7,1032.6,2117.3,1033,2109.3,1033z"/>
	<path class="st8" d="M2016.9,915.4c-5.7-20-15.2-38.7-28.2-55c-27.7-34.9-72.9-106-78.5-202.9c-8.1-141,117-211.6,231.1-202
		c114.1,9.6,226.7,94.5,214.4,225.7c-7.6,80.7-52.8,141.9-86.4,177.1c-21.3,22.4-36.7,49.7-44.8,79.4
		c-10.1,36.4-34.1,81.9-91.2,84.6C2059.4,1026,2028.7,957.1,2016.9,915.4z"/>
	<path class="st9" d="M2152.1,994.2l39.9-259.7c0.8-5.4,3.5-9,5.9-8s3.7,6,2.9,11.4c0,0.1-0.1,0.3-0.1,0.5l-45.5,257.3
		c-0.3,1.9-1.3,3.2-2.2,2.7S2151.8,996.1,2152.1,994.2z"/>
	<path class="st9" d="M2110.7,996.3l-39.9-259.7c-0.8-5.4-3.5-9-5.9-8.1s-3.7,6-2.9,11.4c0,0.1,0.1,0.3,0.1,0.5l45.5,257.3
		c0.3,1.9,1.3,3.2,2.2,2.7S2111,998.2,2110.7,996.3z"/>
	<path class="st10" d="M2191.8,712.3c-1.2-1.7-3.4-2.3-5.2-1.4l-22.2,10.4l-7.7-22c-0.5-1.2-1.5-2.2-2.7-2.7
		c-2.5-1.1-5.4-0.2-6.8,2.1v0.1l-18.3,33.3l-17-47.5v-0.1c-0.5-1.2-1.4-2.3-2.6-2.9c-2.8-1.6-6.4-0.9-8.4,1.7l-25.6,35.2
		c-1,1.4-0.7,3.3,0.7,4.3c0.1,0,0.1,0.1,0.2,0.1c1.7,1.1,4,0.9,5.4-0.6l22.5-25.1l20.3,45.1l0,0c0.4,0.8,1,1.4,1.8,1.8
		c1.9,0.9,4.1,0.3,5.3-1.4l19.6-31.4l7.4,15.9l0.1,0.2c0.1,0.1,0.1,0.2,0.2,0.3c1.2,1.7,3.4,2.3,5.2,1.4l26.4-12.3
		c1.6-0.6,2.4-2.4,1.8-4.1C2191.9,712.5,2191.8,712.4,2191.8,712.3z"/>
	<path class="st10" d="M2270.2,824.8c-2.8,0-5.1-2.3-5.1-5.1c0-1.1,0.4-2.1,1-3c6.7-9,12.9-18.4,18.5-28.1c1.4-2.4,4.6-3.2,7-1.7
		c2.3,1.4,3.2,4.4,1.8,6.8c-5.8,10.1-12.2,19.8-19.2,29.1C2273.3,824.1,2271.8,824.8,2270.2,824.8z"/>
	<path class="st10" d="M2303,768.4c-0.7,0-1.4-0.1-2-0.4c-2.6-1.1-3.7-4.1-2.6-6.7c42.2-97.2,5.8-178.7,5.4-179.5
		c-1.3-2.5-0.3-5.5,2.2-6.8s5.5-0.3,6.8,2.2c0.1,0.1,0.1,0.3,0.2,0.4c1.6,3.5,38.6,86.5-5.3,187.8
		C2306.8,767.3,2305,768.5,2303,768.4z"/>
	
		<linearGradient id="SVGID_7_" gradientUnits="userSpaceOnUse" x1="6639.1074" y1="214.1423" x2="6035.7378" y2="-442.1578" gradientTransform="matrix(1 9.424639e-03 9.424639e-03 -1 -4990.4067 2719.9788)">
		<stop  offset="0" style="stop-color:#09005D"/>
		<stop  offset="1" style="stop-color:#1A0F91"/>
	</linearGradient>
	<path class="st11" d="M1459,2615.8c0,0-6.6,35.3-10,70.3c-1.3,13.3,8.5,25,21.7,26.3c0.4,0,0.7,0.1,1.1,0.1
		c46.6,2.4,146.3,7.1,182.1,5.9c4.3-0.2,7.7-3.8,7.5-8.2c0-0.9-0.2-1.7-0.5-2.5l0,0c-1.6-4.2-4.8-7.6-8.9-9.6l-164-77.3L1459,2615.8
		z"/>
	
		<linearGradient id="SVGID_8_" gradientUnits="userSpaceOnUse" x1="6442.9077" y1="165.0715" x2="6496.5034" y2="165.0715" gradientTransform="matrix(1 9.424639e-03 9.424639e-03 -1 -4990.4067 2719.9788)">
		<stop  offset="0" style="stop-color:#FEBBBA"/>
		<stop  offset="1" style="stop-color:#FF928E"/>
	</linearGradient>
	<path class="st12" d="M1454,2595l4.6,42.4c0,0,28.7,13.7,48.6-1.2l-11.5-47.3L1454,2595z"/>
	
		<linearGradient id="SVGID_9_" gradientUnits="userSpaceOnUse" x1="6686.6099" y1="956.4937" x2="6173.1699" y2="260.5837" gradientTransform="matrix(1 9.424639e-03 9.424639e-03 -1 -4990.4067 2719.9788)">
		<stop  offset="0" style="stop-color:#09005D"/>
		<stop  offset="1" style="stop-color:#1A0F91"/>
	</linearGradient>
	<path class="st13" d="M1465.4,1799.5c-2.3,11-16.9,551.3,38.6,794c0.9,4-1.1,8-4.9,9.5c-15.1,5.7-31,8.7-47.1,9.1
		c-6.5,0.2-12.2-4.1-14-10.3c-16-56.4-92.4-338.6-100.2-607.6c-8.7-300.6,0.1-10.2,0.1-10.2l8.5-185.7L1465.4,1799.5z"/>
	
		<linearGradient id="SVGID_10_" gradientUnits="userSpaceOnUse" x1="6503.7295" y1="338.6288" x2="5900.3394" y2="-317.7012" gradientTransform="matrix(1 9.424639e-03 9.424639e-03 -1 -4990.4067 2719.9788)">
		<stop  offset="0" style="stop-color:#09005D"/>
		<stop  offset="1" style="stop-color:#1A0F91"/>
	</linearGradient>
	<path class="st14" d="M1269.2,2632.4c0,0-10.1,17.8-20.2,65.1c-1.7,7.9,3.3,15.8,11.3,17.5c0.5,0.1,1,0.2,1.5,0.2
		c15.4,1.7,39.1,3.8,58.1,3.9c8.1,0,14.7-6.5,14.8-14.6c0-0.5,0-1.1-0.1-1.6c-1.9-17.3-8.2-45.8-28.3-68.2L1269.2,2632.4z"/>
	
		<linearGradient id="SVGID_11_" gradientUnits="userSpaceOnUse" x1="6249.7734" y1="167.8813" x2="6296.041" y2="167.8813" gradientTransform="matrix(1 9.424639e-03 9.424639e-03 -1 -4990.4067 2719.9788)">
		<stop  offset="0" style="stop-color:#FEBBBA"/>
		<stop  offset="1" style="stop-color:#FF928E"/>
	</linearGradient>
	<path class="st15" d="M1261,2577.9l11.1,64.1c0,0,11.5,8.7,34.5,2.7l-4.9-68.9L1261,2577.9z"/>
	
		<linearGradient id="SVGID_12_" gradientUnits="userSpaceOnUse" x1="6595.1362" y1="1023.9867" x2="6081.6963" y2="328.0768" gradientTransform="matrix(1 9.424639e-03 9.424639e-03 -1 -4990.4067 2719.9788)">
		<stop  offset="0" style="stop-color:#09005D"/>
		<stop  offset="1" style="stop-color:#1A0F91"/>
	</linearGradient>
	<path class="st16" d="M1236.6,1813.9c-50,284.7,3.5,704.8,22.1,787.1c1.1,5,5.2,8.9,10.3,9.8c8.6,1.5,22.9,2.8,37-1.1
		c4.9-1.4,8.3-5.7,8.5-10.7c3.2-66.4,2.4-474,48-634.6c2.3-8.1,7.4-15.2,14.3-20.1l86-59.9l7.5-98.1L1236.6,1813.9z"/>
	<path class="st8" d="M1542.8,1276.5c-141.6-3.7-298.1,34.3-298.1,34.3c-44.6,245.8-12.4,530.2-12.4,530.2
		c109.3,29.8,233.4-15.4,233.4-15.4c19.2-102.8,107-391.6,107-391.6c69.3-7.9,126.4-27.3,173.6-53.3
		c-35.4-41.8-51.8-94.8-58.8-126.1C1637.2,1269.8,1586.5,1277.6,1542.8,1276.5z"/>
	
		<linearGradient id="SVGID_13_" gradientUnits="userSpaceOnUse" x1="6663.7041" y1="1563.3737" x2="6937.5493" y2="1563.3737" gradientTransform="matrix(1 9.424639e-03 9.424639e-03 -1 -4990.4067 2719.9788)">
		<stop  offset="0" style="stop-color:#FEBBBA"/>
		<stop  offset="1" style="stop-color:#FF928E"/>
	</linearGradient>
	<path class="st17" d="M1963,1072c-13.8-16.9-31.4-9.2-31.4-9.2c-21.7,87.8-131.6,158.1-244.2,191.9c7,31.3,23.4,84.2,58.8,126.1
		C1933.4,1277.9,1963,1072,1963,1072z"/>
	
		<linearGradient id="SVGID_14_" gradientUnits="userSpaceOnUse" x1="6779.8447" y1="1609.2432" x2="6963.585" y2="1191.1932" gradientTransform="matrix(-1 -1.000000e-02 1.000000e-02 -1 8665.21 2851.4028)">
		<stop  offset="0" style="stop-color:#FEBBBA"/>
		<stop  offset="1" style="stop-color:#FF928E"/>
	</linearGradient>
	<path class="st18" d="M1959.6,1076.2c1.4,4.6-15.5,11.5-25.3-7.5c-0.3-9.1-5.4-48,0.1-55.3c29.2-39.1,85.7-87.9,85.7-87.9
		c9.4,9.4,1.5,18.5,1.5,18.5l-27.4,28c5.6,10.3,12.4,19,15.6,31.5c2.3,9.5,0.8,19.5-4.1,28c-4.8,8.5-11.4,19.6-17.7,28.3
		C1976.1,1076.2,1959.6,1076.2,1959.6,1076.2z"/>
	
		<linearGradient id="SVGID_15_" gradientUnits="userSpaceOnUse" x1="6936.4243" y1="1748.8457" x2="7013.0942" y2="1866.7157" gradientTransform="matrix(1 9.424639e-03 9.424639e-03 -1 -4990.4067 2719.9788)">
		<stop  offset="0" style="stop-color:#FEBBBA"/>
		<stop  offset="1" style="stop-color:#FF928E"/>
	</linearGradient>
	<path class="st19" d="M1982.1,990.3l-24.9,20.7l-8,20.8l21.8,24.7c0,0,7.8-41.3,13.4-50.3S1987.2,993,1982.1,990.3z"/>
	<path class="st8" d="M1297.6,1448.4l-53-137.6c0,0-133.1,88.6-155.9,202.3c25,2.1,70.4,9,114.7,31.9
		C1213.7,1491.4,1297.6,1448.4,1297.6,1448.4z"/>
	
		<linearGradient id="SVGID_16_" gradientUnits="userSpaceOnUse" x1="6064.4712" y1="1175.6107" x2="6410.9937" y2="1175.6107" gradientTransform="matrix(1 9.424639e-03 9.424639e-03 -1 -4990.4067 2719.9788)">
		<stop  offset="0" style="stop-color:#FEBBBA"/>
		<stop  offset="1" style="stop-color:#FF928E"/>
	</linearGradient>
	<path class="st20" d="M1412,1578.5c0,0-149.3,82.5-198.7,10.4c-10.3-15-12.6-29.8-9.9-43.8c-44.3-22.9-89.7-29.8-114.7-31.9
		c-6.9,34.3-3.8,70.8,16.1,108c86.2,161.4,326.5-5.8,326.5-5.8L1412,1578.5z"/>
	
		<linearGradient id="SVGID_17_" gradientUnits="userSpaceOnUse" x1="6330.4272" y1="1546.0369" x2="6467.4531" y2="1546.0369" gradientTransform="matrix(1 9.424639e-03 9.424639e-03 -1 -4990.4067 2719.9788)">
		<stop  offset="0" style="stop-color:#FEBBBA"/>
		<stop  offset="1" style="stop-color:#FF928E"/>
	</linearGradient>
	<path class="st21" d="M1400.5,1160.2l-46.3,129.8c-0.8,2.1,0.1,4.5,2.1,5.7c12.2,6.9,56.3,27,109.9-6.3c5.6-3.4,9.4-9.2,10.3-15.7
		l15.7-112.6L1400.5,1160.2z"/>
	
		<linearGradient id="SVGID_18_" gradientUnits="userSpaceOnUse" x1="816.2368" y1="1218.9327" x2="765.0368" y2="1387.7926" gradientTransform="matrix(0.75 -0.66 -0.66 -0.75 1718.1095 2601.3679)">
		<stop  offset="0" style="stop-color:#FEBBBA"/>
		<stop  offset="1" style="stop-color:#FF928E"/>
	</linearGradient>
	<path class="st22" d="M1499.7,1040.5c0,0,48.6,93.6,41.9,131.2s-68,34.3-121.2,3.2l-36.5-100.8L1499.7,1040.5z"/>
	
		<linearGradient id="SVGID_19_" gradientUnits="userSpaceOnUse" x1="769.9427" y1="1513.9773" x2="812.7726" y2="1269.7173" gradientTransform="matrix(0.75 -0.66 -0.66 -0.75 1718.1095 2601.3679)">
		<stop  offset="0" style="stop-color:#09005D"/>
		<stop  offset="1" style="stop-color:#1A0F91"/>
	</linearGradient>
	<path class="st23" d="M1423.1,1125.5c2-0.8,2.9-3.1,2-5c-0.1-0.2-0.2-0.4-0.3-0.6c-3.9-6.1-11.2-18.5-13.5-29.3
		c0,0-8.8-5.8,22.8-13s78.7-18.5,88.9-45.3c9.9-26.1-14.8-92.1-55.7-40.1c-1.3,1.7-3.7,2-5.4,0.7c-0.3-0.2-0.5-0.4-0.7-0.7
		c-6.5-8.7-23.8-26.7-48-16.1c-22.7,9.9-25.4,26.5-25.2,34.8c0.1,2.1-1.6,3.9-3.7,3.9c-0.3,0-0.6,0-0.9-0.1
		c-11.4-2.3-38.8-4.4-51.9,23.6c-10.8,23.1-4,36.3,2.2,42.8c1.5,1.5,1.4,3.9-0.1,5.4c-0.5,0.4-1,0.8-1.6,0.9
		c-7.5,2.2-17.3,8.5-16.5,26.1c1.1,24.3,28.3,22.5,36.1,21.4c1.3-0.2,2.5,0.3,3.4,1.2c6.6,7.4,36.2,38.9,68.6,43
		c2.1,0.2,4-1.3,4.3-3.4c0.1-0.6,0-1.1-0.2-1.7l-13.6-40.9c-0.6-1.9,0.3-4,2.1-4.8L1423.1,1125.5z"/>
	
		<linearGradient id="SVGID_20_" gradientUnits="userSpaceOnUse" x1="763.9077" y1="1219.7261" x2="717.8477" y2="1371.6462" gradientTransform="matrix(0.75 -0.66 -0.66 -0.75 1718.1095 2601.3679)">
		<stop  offset="0" style="stop-color:#FEBBBA"/>
		<stop  offset="1" style="stop-color:#FF928E"/>
	</linearGradient>
	<path class="st24" d="M1428.7,1131.3c0,0-35-24.5-37.8-4.2s31.4,29.8,48.5,22.4L1428.7,1131.3z"/>
	
		<linearGradient id="SVGID_21_" gradientUnits="userSpaceOnUse" x1="6229.9614" y1="1417.2588" x2="6421.1714" y2="620.5688" gradientTransform="matrix(1 0 0 -1 -4705.6602 2798.6531)">
		<stop  offset="0" style="stop-color:#09005D"/>
		<stop  offset="1" style="stop-color:#1A0F91"/>
	</linearGradient>
	<path class="st25" d="M1381.5,1708.9l81.3-284c0.9-3.2,3.7-5.6,7-6c14.7-1.7,57.4-6.5,106.7-10.7c59.4-5,128.3-9.1,169.5-5.6
		c4.6,0.4,8,4.4,7.6,8.9c-0.1,1.1-0.4,2.1-0.9,3.1c-23.4,47.4-119.8,240.2-168.1,303.4c-1.6,2.1-4.1,3.3-6.7,3.3l-188.7-1.8
		c-4.6,0-8.3-3.8-8.2-8.4C1381.2,1710.4,1381.3,1709.6,1381.5,1708.9z"/>
	
		<linearGradient id="SVGID_22_" gradientUnits="userSpaceOnUse" x1="6098.9272" y1="1206.4725" x2="6207.2637" y2="1206.4725" gradientTransform="matrix(1 0 0 -1 -4705.6602 2798.6531)">
		<stop  offset="0" style="stop-color:#FEBBBA"/>
		<stop  offset="1" style="stop-color:#FF928E"/>
	</linearGradient>
	<path class="st26" d="M1401.1,1640.3c0,0-11.3-46.6-6.8-63.1s13.4-37.8,42.9-33s64.3,17.2,64.3,17.2s-1.8,21.5-24.2,14.6l13.9,10.8
		c0,0-2,17.2-20.9,8l12.9,14.3c0,0-8.1,14.1-22.1,5.1S1440.6,1645.9,1401.1,1640.3z"/>
	<path class="st1" d="M1571.1,1493c0,13.2,10.7,23.9,23.9,23.9s23.9-10.7,23.9-23.9c0-13.2-10.7-23.9-23.9-23.9l0,0
		C1581.8,1469.1,1571.1,1479.8,1571.1,1493z"/>
	<path class="st1" d="M1472,1508.8l-6.1-1.8l16.6-56.2c2.6-9.1,10-16,19.3-17.9c52.5-11,190.7-13.2,196.5-13.3l0.1,6.3
		c-1.4,0-143.5,2.3-195.3,13.1c-7,1.5-12.5,6.7-14.5,13.5L1472,1508.8z"/>
	<path class="st27" d="M509.6,2303.5c-8.7,12.8-43.1,303.2-48.5,410.5c-0.3,7,5.1,12.9,12.1,13.3c0.2,0,0.4,0,0.6,0l0,0
		c6.3,0,11.6-4.6,12.6-10.8l63-403.8L509.6,2303.5z"/>
	<path class="st27" d="M786.6,2303.5c8.7,12.8,43.1,303.2,48.5,410.5c0.3,7-5.1,12.9-12,13.3c-0.2,0-0.4,0-0.7,0l0,0
		c-6.3,0-11.6-4.6-12.5-10.8l-63-403.8L786.6,2303.5z"/>
	<path class="st27" d="M457.5,2280.8v3.2c-0.2,22.8,19.4,41.5,44,41.9l291.3,5c24.2,0.4,44.4-17.1,45.6-39.5l0.2-2.9
		c1.2-23.4-18.6-43.1-43.9-43.6l-291.4-5.2C478.3,2239.2,457.7,2257.7,457.5,2280.8z"/>
	<path class="st1" d="M1071.1,2703.4c-51.8,0-74.7-4.4-84.9-8.5c2.1,8.9,10,15.2,19.1,15.2h183.2c4.9,0,8.9-4,8.9-8.9
		c0-0.8-0.1-1.6-0.3-2.3C1176.1,2700.6,1131.8,2703.4,1071.1,2703.4z"/>
	<path class="st28" d="M1197,2698.9c-0.3-1.1-0.8-2.2-1.5-3.1c-14-17.8-42-45.8-80.1-45.3c-55.8,0.8-75.3,6.8-118.7,0.3l-10.2,33.9
		c-1,3.3-1.1,6.8-0.3,10.1c10.3,4.1,33.2,8.5,84.9,8.5C1131.8,2703.4,1176.1,2700.6,1197,2698.9z"/>
	
		<linearGradient id="SVGID_23_" gradientUnits="userSpaceOnUse" x1="996.6834" y1="159.786" x2="1053.8335" y2="159.786" gradientTransform="matrix(1 0 0 -1 0 2798.6531)">
		<stop  offset="0" style="stop-color:#FEBBBA"/>
		<stop  offset="1" style="stop-color:#FF928E"/>
	</linearGradient>
	<path class="st29" d="M1009.3,2614.3l-12.6,42.7c0,0,27.9,12.7,52.3,2.5l4.8-37L1009.3,2614.3z"/>
	<path class="st1" d="M1388.9,2676.5c-40.4,32.4-61,43.3-71.5,46.6c7.2,5.6,17.3,5.5,24.4-0.2l142.8-114.7c3.8-3.1,4.5-8.6,1.4-12.5
		c-0.5-0.6-1.1-1.2-1.7-1.6C1469,2608.5,1436.2,2638.5,1388.9,2676.5z"/>
	<path class="st28" d="M1484.3,2594.1c-0.9-0.7-2-1.2-3.1-1.5c-22-5.1-61.3-9.2-90.7,15.1c-43,35.6-54.4,52.5-92.3,74.6l13.2,32.8
		c1.3,3.2,3.4,5.9,6.1,8.1c10.5-3.3,31.1-14.2,71.5-46.6C1436.2,2638.5,1469,2608.5,1484.3,2594.1z"/>
	
		<linearGradient id="SVGID_24_" gradientUnits="userSpaceOnUse" x1="680.7133" y1="417.6116" x2="1133.0521" y2="417.6116" gradientTransform="matrix(1 0 0 -1 0 2798.6531)">
		<stop  offset="0" style="stop-color:#09005D"/>
		<stop  offset="1" style="stop-color:#1A0F91"/>
	</linearGradient>
	<path class="st30" d="M740.4,2127.3c0,0,310,25.3,373.6,55.3s-51.9,449.5-51.9,449.5s-17.3,8.3-55.8-3.6c0,0,39.5-309.6,10.1-376.8
		l-335.6-54.9L740.4,2127.3z"/>
	
		<linearGradient id="SVGID_25_" gradientUnits="userSpaceOnUse" x1="1267.3434" y1="154.9572" x2="1335.5635" y2="154.9572" gradientTransform="matrix(1 0 0 -1 0 2798.6531)">
		<stop  offset="0" style="stop-color:#FEBBBA"/>
		<stop  offset="1" style="stop-color:#FF928E"/>
	</linearGradient>
	<path class="st31" d="M1267.3,2623.4c2.9,2.6,30.8,58.9,30.8,58.9s31.1-6.7,37.4-26.4l-28-50.8L1267.3,2623.4z"/>
	
		<linearGradient id="SVGID_26_" gradientUnits="userSpaceOnUse" x1="1091.6052" y1="606.0753" x2="595.0052" y2="43.0255" gradientTransform="matrix(1 0 0 -1 0 2798.6531)">
		<stop  offset="0" style="stop-color:#09005D"/>
		<stop  offset="1" style="stop-color:#1A0F91"/>
	</linearGradient>
	<path class="st32" d="M553.7,2124.7c0,0-10.1,24.3-9.7,56.6c0.6,44.7,36.5,80.9,81.1,83.1l366.4,16.7c7.7,0.4,14.3,5.7,16.2,13.2
		c8.6,33.3,50.7,135.6,256.4,339.7c5.5,5.4,14,6.4,20.5,2.2l29.3-18.5c3.1-1.9,4.1-6,2.2-9.1l-213.4-364.3
		c-11.2-18.5-29.2-31.9-50.2-37.2l-312.3-79.8L553.7,2124.7z"/>
	
		<linearGradient id="SVGID_27_" gradientUnits="userSpaceOnUse" x1="888.3915" y1="1116.3016" x2="922.0215" y2="1201.1117" gradientTransform="matrix(1 0 0 -1 0 2798.6531)">
		<stop  offset="0" style="stop-color:#FEBBBA"/>
		<stop  offset="1" style="stop-color:#FF928E"/>
	</linearGradient>
	<path class="st33" d="M914.8,1555.5c0,0-39.3,69.4-79.3,103l82.7,46.2c0,0,18.6-73.5,61.2-95L914.8,1555.5z"/>
	<path class="st28" d="M547,2127.3c0,0,98.9,24.1,193.4,0c0,0,132.1-177.6,183.2-226c0,0,81.5,128.7,263,146.9l10.1-22.6
		c0,0-144.5-66.6-189-168.9S945.5,1710.7,905,1684c-25.2-16.6-40.3-28-48.1-34.2c-4.2-3.4-10.2-3.8-14.8-1
		C799.2,1675,597.1,1813.4,547,2127.3z"/>
	
		<linearGradient id="SVGID_28_" gradientUnits="userSpaceOnUse" x1="910.317" y1="976.8008" x2="1564.1271" y2="2066.481" gradientTransform="matrix(1 0 0 -1 0 2798.6531)">
		<stop  offset="0" style="stop-color:#09005D"/>
		<stop  offset="1" style="stop-color:#1A0F91"/>
	</linearGradient>
	<path class="st34" d="M918.3,1898.8c-2,0-3.8-0.9-5-2.5c-31.5-41.1-49-86.4-49.8-88.3c-1.2-3.3,0.6-6.9,3.9-8.1
		c3.2-1.1,6.6,0.4,7.9,3.5c0.2,0.4,17.7,45.5,48,85.1c2.1,2.8,1.6,6.8-1.2,8.9C921.1,1898.3,919.7,1898.8,918.3,1898.8L918.3,1898.8
		z"/>
	
		<linearGradient id="SVGID_29_" gradientUnits="userSpaceOnUse" x1="1175.7434" y1="786.4423" x2="1333.3035" y2="786.4423" gradientTransform="matrix(1 0 0 -1 0 2798.6531)">
		<stop  offset="0" style="stop-color:#FEBBBA"/>
		<stop  offset="1" style="stop-color:#FF928E"/>
	</linearGradient>
	<path class="st35" d="M1175.7,2013.8l20.4-5.4l62-14.4c7.5-1.7,15.3-0.4,21.8,3.7l53.3,33.6l-147.3-0.3L1175.7,2013.8z"/>
	
		<linearGradient id="SVGID_30_" gradientUnits="userSpaceOnUse" x1="3107.6365" y1="1024.829" x2="2938.7666" y2="895.6188" gradientTransform="matrix(0.9914 -0.1305 -0.1305 -0.9914 -1956.371 2931.7627)">
		<stop  offset="0" style="stop-color:#FEBBBA"/>
		<stop  offset="1" style="stop-color:#FF928E"/>
	</linearGradient>
	<path class="st36" d="M977.1,1451.5c0,0,38.2,63.4,44.8,98.5c6.6,35,17.2,57-22.6,69.4s-77-3.3-100.2-36c0,0-36.3-50.3-32.7-73.4
		S977.1,1451.5,977.1,1451.5z"/>
	
		<linearGradient id="SVGID_31_" gradientUnits="userSpaceOnUse" x1="2989.3242" y1="1126.8601" x2="3142.2441" y2="929.98" gradientTransform="matrix(0.9914 -0.1305 -0.1305 -0.9914 -1956.371 2931.7627)">
		<stop  offset="0" style="stop-color:#09005D"/>
		<stop  offset="1" style="stop-color:#1A0F91"/>
	</linearGradient>
	<path class="st37" d="M909.7,1556.2l5.2-0.7c0,0-27-40.8-9.3-50.9s89.7-35,102.2-63.3c12.1-27.3-6-58.3-27.7-64.7
		c-1.4-0.4-2.8,0.4-3.3,1.8l-1.3,3.4c-0.5,1.4-2.1,2.2-3.6,1.7c-0.7-0.3-1.3-0.8-1.6-1.5l0,0c-0.6-1.4-2.2-2.1-3.6-1.5
		c-0.6,0.3-1.1,0.8-1.4,1.4c-3.9,8.5-15.4,23-50,34.2c-49.2,15.9-79.8,40.7-76,75.6c0.2,1.5-0.9,2.9-2.5,3.1c-0.5,0.1-1.1,0-1.5-0.3
		c-4-1.8-10.1-2-17.2,5.7c-12.3,13.5-2.7,42.9,30.9,63.7c1.3,0.8,1.8,2.5,1,3.8c-0.1,0.3-0.3,0.5-0.5,0.7
		c-5,4.3-12.1,13.9,10.6,22.4c23.3,8.7,35.9,5.8,40.6,3.9c1.3-0.5,2-1.8,1.7-3.2l-6-30.6c-0.3-1.5,0.7-3,2.2-3.3c0.1,0,0.1,0,0.2,0
		L909.7,1556.2z"/>
	
		<linearGradient id="SVGID_32_" gradientUnits="userSpaceOnUse" x1="3086.6753" y1="1052.2236" x2="2917.8052" y2="923.0037" gradientTransform="matrix(0.9914 -0.1305 -0.1305 -0.9914 -1956.371 2931.7627)">
		<stop  offset="0" style="stop-color:#FEBBBA"/>
		<stop  offset="1" style="stop-color:#FF928E"/>
	</linearGradient>
	<path class="st38" d="M911.8,1562.5c0,0-16.8-41.5-34.5-26.9s16.3,46.8,32,46.4L911.8,1562.5z"/>
	
		<linearGradient id="SVGID_33_" gradientUnits="userSpaceOnUse" x1="24035.0098" y1="25550.4355" x2="23613.5703" y2="25142.9844" gradientTransform="matrix(-1.39 -7.000000e-02 7.000000e-02 -1.39 -977.0156 3024.3081)">
		<stop  offset="0" style="stop-color:#09005D"/>
		<stop  offset="1" style="stop-color:#1A0F91"/>
	</linearGradient>
	<path class="st39" d="M1118.8,2060.1h0.7l314.6-0.3c7.8,0.2,14.2-5.9,14.4-13.7c0.2-7.8-5.9-14.2-13.7-14.4c-0.2,0-0.5,0-0.7,0
		l-314.6,0.3c-7.8-0.1-14.1,6.1-14.3,13.8C1105.2,2053.5,1111.2,2059.8,1118.8,2060.1L1118.8,2060.1z"/>
	
		<linearGradient id="SVGID_34_" gradientUnits="userSpaceOnUse" x1="20207.8008" y1="22993.6621" x2="19786.3809" y2="22586.2227" gradientTransform="matrix(0.65 -1.23 1.23 0.65 7180.7158 -3592.9517)">
		<stop  offset="0" style="stop-color:#09005D"/>
		<stop  offset="1" style="stop-color:#1A0F91"/>
	</linearGradient>
	<path class="st40" d="M1556,1752c-0.1,0.2-0.2,0.4-0.3,0.6L1423.3,2038c-3.4,7-0.6,15.4,6.3,18.8c7,3.4,15.4,0.6,18.8-6.4
		c0.1-0.2,0.2-0.4,0.3-0.7l132.4-285.4c3.2-7.1,0.1-15.4-7-18.6C1567.5,1742.7,1559.6,1745.4,1556,1752L1556,1752z"/>
	<rect x="2346.7" y="2346.9" class="st27" width="33.2" height="359.1"/>
	<path class="st27" d="M2508.7,2713h-290.8c0-11.9,9.7-21.6,21.6-21.6h0h247.6C2499.1,2691.4,2508.7,2701,2508.7,2713
		C2508.7,2713,2508.7,2713,2508.7,2713L2508.7,2713z"/>
	<path class="st27" d="M2221.9,2266.5h294.3c19.7,0,35.7,16,35.7,35.7v32.3c0,19.7-16,35.7-35.7,35.7h-294.3
		c-19.7,0-35.7-16-35.7-35.7v-32.3C2186.2,2282.5,2202.2,2266.5,2221.9,2266.5z"/>
	
		<linearGradient id="SVGID_35_" gradientUnits="userSpaceOnUse" x1="1753.0986" y1="-975.8443" x2="2174.2788" y2="708.8956" gradientTransform="matrix(1 0 0 -1 0 2798.6531)">
		<stop  offset="0" style="stop-color:#FEBBBA"/>
		<stop  offset="1" style="stop-color:#FF928E"/>
	</linearGradient>
	<path class="st41" d="M2118.2,2107.5c0,0-49.3,7.6-104.8,44.7c-8.8,5.8-13.5,16-12.2,26.4c6.7,52.6,34,222.9,124,389.3
		c4.7,8.8,6.1,19,4,28.7l-15.6,72.8l-29,27.2h74.8L2209,2562l-21.3-6.7c-16.5-5.2-27.8-20.4-28.1-37.7l-2.5-144.5
		c2.1-64.4-39.5-108.8-39.5-108.8l119.4-5.8L2118.2,2107.5z"/>
	
		<linearGradient id="SVGID_36_" gradientUnits="userSpaceOnUse" x1="2706.1079" y1="1088.1403" x2="2305.718" y2="414.0601" gradientTransform="matrix(1 0 0 -1 0 2798.6531)">
		<stop  offset="0" style="stop-color:#09005D"/>
		<stop  offset="1" style="stop-color:#1A0F91"/>
	</linearGradient>
	<path class="st42" d="M2055.3,2709.8c-6.8,8.9,73.3,20.7,113.7,1.2c0,0,56.1-97.6,56.1-147.8c0,0-4.4-10.2-37.4-7.9
		c0,0-18.8,115.5-38.7,128.5s-55.6,1.3-55.6,1.3S2065.4,2696.7,2055.3,2709.8z"/>
	
		<linearGradient id="SVGID_37_" gradientUnits="userSpaceOnUse" x1="1957.8007" y1="89.7139" x2="2042.0306" y2="1346.2438" gradientTransform="matrix(1 0 0 -1 0 2798.6531)">
		<stop  offset="0" style="stop-color:#FEBBBA"/>
		<stop  offset="1" style="stop-color:#FF928E"/>
	</linearGradient>
	<path class="st43" d="M2222,2266.5c-0.6-1.1-128.5-15.4-128.5-15.4s4.2,38.9-8.9,92.4s-200.8,285.4-200.8,285.4l19.7,62.4
		c-60.9,21.2-120.8,24.6-179.7,10.8l122-73.2c0,0,114.2-389.1,184.1-458.6L2158,2126L2222,2266.5z"/>
	
		<linearGradient id="SVGID_38_" gradientUnits="userSpaceOnUse" x1="2031.1234" y1="640.387" x2="2589.2966" y2="640.387" gradientTransform="matrix(1 0 0 -1 0 2798.6531)">
		<stop  offset="0" style="stop-color:#09005D"/>
		<stop  offset="1" style="stop-color:#1A0F91"/>
	</linearGradient>
	<path class="st44" d="M2508.7,2040c0,0,73.7,109.6,79.7,159.6s-20.2,70.3-97.5,73.6s-283.7,3.3-283.7,3.3L2031.1,2126
		c0,0,128.4-45.8,161.7-58.8S2508.7,2040,2508.7,2040z"/>
	
		<linearGradient id="SVGID_39_" gradientUnits="userSpaceOnUse" x1="2477.4167" y1="1223.9849" x2="2077.0676" y2="549.986" gradientTransform="matrix(1 0 0 -1 0 2798.6531)">
		<stop  offset="0" style="stop-color:#09005D"/>
		<stop  offset="1" style="stop-color:#1A0F91"/>
	</linearGradient>
	<path class="st45" d="M1895.9,2670.3c0,0,21.2,20.5,6.9,43.4c0,0-167.9,29.8-213.5,16.3c0,0,9.5-21.6,60.8-46.2l-3.8,2.9
		c-2.7,2-3.2,5.9-1.2,8.6c1.2,1.6,3.2,2.5,5.2,2.4C1784.2,2695.7,1854.2,2689.5,1895.9,2670.3z"/>
	
		<linearGradient id="SVGID_40_" gradientUnits="userSpaceOnUse" x1="2424.3059" y1="1572.6365" x2="2342.1062" y2="1140.8364" gradientTransform="matrix(1 0 0 -1 0 2798.6531)">
		<stop  offset="0" style="stop-color:#09005D"/>
		<stop  offset="1" style="stop-color:#1A0F91"/>
	</linearGradient>
	<path class="st46" d="M2189.6,1345c150.6-25.6,221.5,97.2,216.3,123c-0.5,2.6,1.2,5,3.8,5.5c0.7,0.1,1.4,0.1,2.1-0.1
		c17.3-4.7,55.5-10.5,79.2,19.2c20.9,26.2,5.3,50.9-7.5,64.5c-1.8,1.9-1.7,4.9,0.1,6.7c1,1,2.4,1.5,3.9,1.3
		c31.8-4,100.9-5,112.2,59.7c10.5,60.4-31.5,77.4-56.4,82.2c-2.6,0.5-4.2,3-3.7,5.6c0.3,1.3,1,2.4,2.1,3.1
		c12.4,7.9,26.8,24.2,21,56.3c-9.1,50.4-107.9,46.3-119.5,45.6c-0.7,0-1.4-0.3-2.1-0.6l-158.3-90.1c-1.2-0.7-2.1-1.9-2.3-3.3
		l-32-184.5c-0.3-1.5,0.2-3,1.3-4.1l-103.2-145.6C2109.3,1383.7,2187.8,1345.3,2189.6,1345z"/>
	<path class="st28" d="M2309.5,2025.5c0,0-85.8-81.7-128-135.8c-22.8-29.3-30.1-67.8-19.5-103.3c19.3-65,53.6-132.3,56.7-142.7
		c4.8-16.1,101-15.4,101-15.4s189.3,122.9,263.7,331l-83.5,26c0,0-49.4-82.9-98.3-135.7c0,0,84.5,111.6,87.5,157.4L2309.5,2025.5z"
		/>
	
		<linearGradient id="SVGID_41_" gradientUnits="userSpaceOnUse" x1="2288.2771" y1="1032.406" x2="2254.647" y2="1248.2161" gradientTransform="matrix(1 0 0 -1 0 2798.6531)">
		<stop  offset="0" style="stop-color:#FEBBBA"/>
		<stop  offset="1" style="stop-color:#FF928E"/>
	</linearGradient>
	<path class="st47" d="M2207,1554c1,3.3,26.1,86.6,28.1,88.3s55.1,4.6,80.1-12.5l-62-121.3L2207,1554z"/>
	
		<linearGradient id="SVGID_42_" gradientUnits="userSpaceOnUse" x1="1598.6033" y1="-1988.573" x2="1818.7533" y2="-2138.1028" gradientTransform="matrix(0.6042 -0.7968 -0.7968 -0.6042 -444.7332 1609.7791)">
		<stop  offset="0" style="stop-color:#FEBBBA"/>
		<stop  offset="1" style="stop-color:#FF928E"/>
	</linearGradient>
	<path class="st48" d="M2106.4,1447c0,0-12.1,47.7,21.4,111.8s71.6,64.1,92.4,43.5s46.4-55.4,40.3-117.4S2123.9,1386.3,2106.4,1447z
		"/>
	
		<linearGradient id="SVGID_43_" gradientUnits="userSpaceOnUse" x1="1745.2019" y1="-1809.6624" x2="1663.012" y2="-2241.4524" gradientTransform="matrix(0.6042 -0.7968 -0.7968 -0.6042 -444.7332 1609.7791)">
		<stop  offset="0" style="stop-color:#09005D"/>
		<stop  offset="1" style="stop-color:#1A0F91"/>
	</linearGradient>
	<path class="st49" d="M2214,1488.3c0,0-55.7-85.2-107.9-18.1l-0.9,24.4c0,0-61.2-7.3-50.5-63.4c10.7-56.1,63.6-91.2,131.7-66.9
		s107.1,49.2,111.5,98s-34.4,38.1-34.4,38.1s-12.7-34.4-30.7-37.9s-13.3,23.2-13.3,23.2L2214,1488.3z"/>
	
		<linearGradient id="SVGID_44_" gradientUnits="userSpaceOnUse" x1="1611.8049" y1="-1969.1405" x2="1831.9449" y2="-2118.6704" gradientTransform="matrix(0.6042 -0.7968 -0.7968 -0.6042 -444.7332 1609.7791)">
		<stop  offset="0" style="stop-color:#FEBBBA"/>
		<stop  offset="1" style="stop-color:#FF928E"/>
	</linearGradient>
	<path class="st50" d="M2228.3,1487.2c0,0-28.9-43.6,0.7-50.1s25,42.5,21.8,60.6L2228.3,1487.2z"/>
	
		<linearGradient id="SVGID_45_" gradientUnits="userSpaceOnUse" x1="2426.3933" y1="787.3692" x2="2894.387" y2="787.3692" gradientTransform="matrix(1 0 0 -1 0 2798.6531)">
		<stop  offset="0" style="stop-color:#FEBBBA"/>
		<stop  offset="1" style="stop-color:#FF928E"/>
	</linearGradient>
	<path class="st51" d="M2134.7,2031.6l63-60.8l87.2,36.8c0,0,86.8,13.4,136.5,0l49.7-13.4l112.3-34.9l17.6,49.8
		c4.5,12.7,0,26.7-11,34.5c-9.7,6.9-21.1,14.5-28.4,17.7c-14.8,6.5-364.5-4.5-364.5-4.5L2134.7,2031.6z"/>
	
		<linearGradient id="SVGID_46_" gradientUnits="userSpaceOnUse" x1="2427.5378" y1="738.6523" x2="2132.8977" y2="657.8924" gradientTransform="matrix(0.9988 -4.937274e-02 -4.937274e-02 -0.9988 47.0702 2820.7268)">
		<stop  offset="0" style="stop-color:#09005D"/>
		<stop  offset="1" style="stop-color:#1A0F91"/>
	</linearGradient>
	<path class="st52" d="M2373.2,2060.2h-0.8l-365.7-0.4c-9,0-16.4-7.3-16.4-16.4c0-9,7.3-16.3,16.4-16.4l365.7,0.4
		c9,0,16.4,7.3,16.4,16.4C2388.8,2052.6,2381.9,2059.8,2373.2,2060.2L2373.2,2060.2z"/>
	
		<linearGradient id="SVGID_47_" gradientUnits="userSpaceOnUse" x1="2036.5042" y1="1025.9064" x2="1827.4541" y2="804.9464" gradientTransform="matrix(1 0 0 -1 0 2798.6531)">
		<stop  offset="0" style="stop-color:#09005D"/>
		<stop  offset="1" style="stop-color:#1A0F91"/>
	</linearGradient>
	<path class="st53" d="M1678,1728.2h304.6c22.5,0,42.9,13,52.5,33.3l140.8,298.5h-378.5c-14.5,0-27.5-8.8-32.8-22.3l-109.2-276.3
		c-4.9-12.5,1.2-26.6,13.7-31.6C1671.9,1728.8,1674.9,1728.2,1678,1728.2z"/>
	<path class="st27" d="M1892.5,1881.3c6.6,20.5,1.7,40.4-10.9,44.5s-28.2-9.3-34.8-29.8s-1.7-40.4,10.9-44.5
		S1886,1860.8,1892.5,1881.3z"/>
	
		<linearGradient id="SVGID_48_" gradientUnits="userSpaceOnUse" x1="-6200.2158" y1="-254.9634" x2="-6197.126" y2="-582.1833" gradientTransform="matrix(-1 0 0 -1 -3509.313 2798.6531)">
		<stop  offset="0" style="stop-color:#09005D"/>
		<stop  offset="1" style="stop-color:#1A0F91"/>
	</linearGradient>
	<path class="st54" d="M2790.2,2667.7c2.6,15.4,4.4,31,5.4,46.6c0.7,10.8-7.3,20.1-18.1,21.2c-37.4,3.6-122.6,10.3-177,2.5
		c-5-0.7-8.5-5.3-7.8-10.3c0.3-2.1,1.3-4,2.8-5.4c22.4-20.9,76.6-61.6,165.8-70.4L2790.2,2667.7z"/>
	
		<linearGradient id="SVGID_49_" gradientUnits="userSpaceOnUse" x1="-6279.0679" y1="110.4568" x2="-6296.0376" y2="243.1968" gradientTransform="matrix(-1 0 0 -1 -3509.313 2798.6531)">
		<stop  offset="0" style="stop-color:#FEBBBA"/>
		<stop  offset="1" style="stop-color:#FF928E"/>
	</linearGradient>
	<path class="st55" d="M2808.8,2619.7l-18.9,46.4c-2.6,6.4-9,10.3-15.9,9.6c-5.2-0.5-10.4-1.5-15.5-3c-10.7-3.3-16.7-14.6-13.5-25.3
		l14.3-47.8L2808.8,2619.7z"/>
	
		<linearGradient id="SVGID_50_" gradientUnits="userSpaceOnUse" x1="-6642.2813" y1="-259.133" x2="-6639.1914" y2="-586.353" gradientTransform="matrix(-1 0 0 -1 -3509.313 2798.6531)">
		<stop  offset="0" style="stop-color:#09005D"/>
		<stop  offset="1" style="stop-color:#1A0F91"/>
	</linearGradient>
	<path class="st56" d="M3132.3,2704.6c0,0-37.9,31.7-52.7,72.4c-4.1,11.2,4.5,23,16.4,23h78c10.2,0,18.4-8.2,18.4-18.4
		c0-1.1-0.1-2.1-0.3-3.2C3187.3,2750.4,3173,2704.8,3132.3,2704.6z"/>
	
		<linearGradient id="SVGID_51_" gradientUnits="userSpaceOnUse" x1="-6650.147" y1="64.967" x2="-6666.6968" y2="194.3168" gradientTransform="matrix(-1 0 0 -1 -3509.313 2798.6531)">
		<stop  offset="0" style="stop-color:#FEBBBA"/>
		<stop  offset="1" style="stop-color:#FF928E"/>
	</linearGradient>
	<path class="st57" d="M3179.3,2663.4c0,0-7.7,33.9-13.5,56.3c-1,3.8-4.9,6.1-8.8,5.1c-0.2-0.1-0.4-0.1-0.6-0.2
		c-11.8-4.2-21.4-6.1-28.4-5.1c-3,0.3-5.8-1.9-6.1-4.9c0-0.2,0-0.4,0-0.6l-0.7-56.3L3179.3,2663.4z"/>
	
		<linearGradient id="SVGID_52_" gradientUnits="userSpaceOnUse" x1="2880.4773" y1="1109.28" x2="3033.6572" y2="363.6299" gradientTransform="matrix(1 0 0 -1 0 2798.6531)">
		<stop  offset="0" style="stop-color:#09005D"/>
		<stop  offset="1" style="stop-color:#1A0F91"/>
	</linearGradient>
	<path class="st58" d="M2977.7,1901l-230.5,703.2c0,0,44.2,28.9,65.3,27.8l273.8-565.1c0,0,47.9,348.2,24.7,598.2l78.4,6
		c0,0,127.5-638.9,30.9-857.7L2977.7,1901z"/>
	<path class="st28" d="M3084.8,2060.7h0.3c1.2-0.2,2.1-1.3,1.9-2.5l-8.9-71c-0.2-1.2-1.3-2.1-2.5-1.9s-2.1,1.3-1.9,2.5l9,71
		C3082.8,2059.9,3083.7,2060.7,3084.8,2060.7z"/>
	<path class="st28" d="M2934.5,1282.2c0,0,186.8,16.6,160.3,149.6c0,0,103.2,194.3,151.5,423.1c1.5,7.3-3.1,14.4-10.4,15.9
		c-0.2,0-0.3,0.1-0.5,0.1l-311,53.3c-8.6,1.5-16.8-3.9-19-12.3l-74.3-287.2l-29,133.5l-92-24l77.4-392.4
		C2787.5,1341.9,2798.4,1284.7,2934.5,1282.2z"/>
	<path class="st1" d="M2829.5,1611.9c0.2,0,0.3,0,0.5,0c1.2-0.3,2-1.5,1.8-2.8l-25.9-119c-0.3-1.2-1.5-2-2.8-1.8s-2,1.5-1.8,2.8
		l25.9,119C2827.5,1611.2,2828.4,1611.9,2829.5,1611.9z"/>
	
		<linearGradient id="SVGID_53_" gradientUnits="userSpaceOnUse" x1="-6525.0962" y1="914.512" x2="-6293.2163" y2="914.512" gradientTransform="matrix(-1 0 0 -1 -3509.313 2798.6531)">
		<stop  offset="0" style="stop-color:#FEBBBA"/>
		<stop  offset="1" style="stop-color:#FF928E"/>
	</linearGradient>
	<path class="st59" d="M2848.2,1966.1c9.8-5.4,21.3-6.9,32.1-4.2l21.6,5.4c4.2,1,8.5-1.5,9.5-5.7c0.1-0.3,0.1-0.7,0.2-1l22.4-199.3
		c28,13.3,68.4,11.7,81.7,10.7l-51.5,235h-180.3L2848.2,1966.1z"/>
	
		<linearGradient id="SVGID_54_" gradientUnits="userSpaceOnUse" x1="-6311.416" y1="1205.2054" x2="-5878.3765" y2="1205.2054" gradientTransform="matrix(-1 0 0 -1 -3509.313 2798.6531)">
		<stop  offset="0" style="stop-color:#FEBBBA"/>
		<stop  offset="1" style="stop-color:#FF928E"/>
	</linearGradient>
	<path class="st60" d="M2369.1,1533.8l5.4-18.1c3.1-10.4,10.8-18.9,20.9-22.9l98.6-39.7c0,0,1.5-12.7-20.8-21.2
		s-17.1-33.6-17.1-33.6s30.5,13.9,75.1,36c25.5,12.6,39.9,34.9,47.4,51.7l223.4,272.3l-26.2,18c-31.9,21.9-75.4,13.8-97.3-18
		c-1.5-2.2-2.9-4.5-4.2-6.9l-121-232.1C2492.6,1537.5,2431.1,1541,2369.1,1533.8z"/>
	
		<linearGradient id="SVGID_55_" gradientUnits="userSpaceOnUse" x1="-6467.3057" y1="1448.0767" x2="-6316.5957" y2="1602.6967" gradientTransform="matrix(-1 0 0 -1 -3509.313 2798.6531)">
		<stop  offset="0" style="stop-color:#FEBBBA"/>
		<stop  offset="1" style="stop-color:#FF928E"/>
	</linearGradient>
	<path class="st61" d="M2874,1155.2l57.4,160.8c0,0-50.9,39.8-88,26.3l-28.9-92.2C2814.5,1250.1,2836.6,1137.5,2874,1155.2z"/>
	
		<linearGradient id="SVGID_56_" gradientUnits="userSpaceOnUse" x1="-6248.749" y1="1700.1285" x2="-6436.6484" y2="1451.5586" gradientTransform="matrix(-1 0 0 -1 -3509.313 2798.6531)">
		<stop  offset="0" style="stop-color:#FEBBBA"/>
		<stop  offset="1" style="stop-color:#FF928E"/>
	</linearGradient>
	<path class="st62" d="M2702.6,1097.4c0,2.5,55.3,156.6,55.3,156.6l87.4-33.5l-30.7-153.9C2814.5,1066.7,2702.6,1056,2702.6,1097.4z
		"/>
	<path class="st8" d="M2799.2,1104.2l22.5,79.7c0.3,1,0.4,2.1,0.4,3.1c0,6.5-1.6,28.9-24.4,25.8c-20.7-2.8-39.6-5-51.6,0.7
		c-5.4,2.5-8,8.8-6,14.4c5,14,17,45.3,31.5,71c3,5.2,9.4,7.3,14.9,4.8c16.4-7.5,50.6-24.2,74.9-44c3.3-2.7,4.9-6.9,4.1-11.1
		c-3.8-20.4-15.2-82.4-15.7-100.2c-0.5-16.7,18.3-29.4,26.5-34.2c2.7-1.6,4.6-4.2,5.4-7.2c2.6-10.7,4.8-35-26.2-40.4
		c-6.3-1.1-10.6-7.1-9.5-13.4c0-0.1,0-0.3,0.1-0.4c2.6-12.8,1.8-31.8-22.6-38.7c-24.8-7.1-40.4,7.8-48.3,19.3
		c-3.2,4.6-9.3,6.2-14.4,3.8c-2.9-1.3-6.5-1.4-10.3,1.8c-4.9,4-12.1,3.2-16-1.7c-0.2-0.3-0.4-0.6-0.6-0.9
		c-7.2-10.6-20.4-21.3-42.6-14.1c-39.5,12.8-37.6,58.3-23.1,83s56.5,8.5,76.3-7.9c15.1-12.5,38.1-5,48.3-0.7
		C2795.8,1098.1,2798.2,1100.8,2799.2,1104.2z"/>
	
		<linearGradient id="SVGID_57_" gradientUnits="userSpaceOnUse" x1="-6523.9326" y1="1503.2831" x2="-6373.2324" y2="1657.9031" gradientTransform="matrix(-1 0 0 -1 -3509.313 2798.6531)">
		<stop  offset="0" style="stop-color:#FEBBBA"/>
		<stop  offset="1" style="stop-color:#FF928E"/>
	</linearGradient>
	<path class="st63" d="M2857.6,1177.5c0,0-23.4-44.2-7.9-58.1s41.6-11.6,40.9,22.9C2889.7,1185.3,2857.6,1177.5,2857.6,1177.5z"/>
	<path class="st1" d="M2997.7,1775c7.6,0,15.2-0.3,22.8-1.1l1.7-0.2l68-317c0.3-1.3-0.6-2.5-1.8-2.7c-1.2-0.2-2.4,0.5-2.7,1.7
		l-67.3,313.8c-10.1,0.9-64.2,4.5-92.7-15.7l58.9-275.5l-12.3-23.2c-0.6-1.1-2-1.5-3.2-0.9c-1.1,0.6-1.5,2-0.9,3.1l11.5,21.7
		l-59.2,276.7l1.2,0.9C2942.3,1772.1,2975.5,1775,2997.7,1775z"/>
	<path class="st28" d="M959.1,2741.6c-1.6,0-3.2-0.3-4.7-1c-6-2.8-8.8-10.4-6.2-17l248.5-630.5c2.6-6.6,9.6-9.6,15.6-6.8
		s8.8,10.4,6.2,17L970,2733.8C968.3,2738.4,964,2741.5,959.1,2741.6z"/>
	<path class="st28" d="M1239,2741.6c-4.9-0.1-9.2-3.2-10.9-7.8l-248.5-630.5c-2.6-6.6,0.2-14.2,6.2-17s13,0.2,15.6,6.8l248.5,630.5
		c2.6,6.6-0.2,14.2-6.2,17C1242.2,2741.3,1240.6,2741.6,1239,2741.6z"/>
	<path class="st28" d="M2645.5,2741.6c-1.6,0-3.2-0.3-4.7-1c-6-2.8-8.8-10.4-6.2-17l248.5-630.5c2.6-6.6,9.6-9.6,15.6-6.8
		s8.8,10.4,6.2,17l-248.5,630.5C2654.7,2738.5,2650.4,2741.5,2645.5,2741.6z"/>
	<path class="st28" d="M2925.4,2741.6c-4.9-0.1-9.2-3.2-10.9-7.8L2666,2103.3c-2.6-6.6,0.2-14.2,6.2-17s13,0.2,15.6,6.8l248.5,630.5
		c2.6,6.6-0.2,14.2-6.2,17C2928.6,2741.3,2927,2741.6,2925.4,2741.6z"/>
	<path class="st1" d="M2609.4,2048.6h359.9v-37.1h-359.9C2617.1,2011.4,2617.1,2048.6,2609.4,2048.6z"/>
	
		<linearGradient id="SVGID_58_" gradientUnits="userSpaceOnUse" x1="2947.3789" y1="1384.3234" x2="2857.709" y2="1007.6833" gradientTransform="matrix(1 0 0 -1 0 2798.6531)">
		<stop  offset="0" style="stop-color:#09005D"/>
		<stop  offset="1" style="stop-color:#1A0F91"/>
	</linearGradient>
	<path class="st64" d="M2966,2048.6c1.9,0,3.4-1.5,3.4-3.4v-30.4c0-1.9-1.5-3.4-3.4-3.4h-364.2c-1.9,0-3.4-1.5-3.4-3.4v-1.6
		c0-1.9,1.5-3.4,3.4-3.4H2990c8.6,0,15.5,7,15.5,15.5l0,0v23.7c0,8.1-6.6,14.7-14.7,14.7h-389c-1.9,0-3.4-1.5-3.4-3.4v-1.6
		c0-1.9,1.5-3.4,3.4-3.4L2966,2048.6z"/>
	<path class="st28" d="M3021.5,2073.6c1.2-4.1-0.4-8.4-4.5-11.7s-10.1-5.1-16.4-5.1H844.1c-8.4,0-16.2,2.8-20.7,7.5
		s-5.1,10.6-1.6,15.6l23.4,33.6c5.3,7.7,17,12.6,29.7,12.6h2110.9c11.9,0,22.1-5.6,24.3-13.3L3021.5,2073.6z"/>
</g>
</svg>
