<svg id="Слой_2" data-name="Слой 2" xmlns="http://www.w3.org/2000/svg" viewBox="0 0 3189.68 1708"><defs><style>.cls-1{fill:#ebf2f9;}.cls-2{fill:#aed3ff;}.cls-3{fill:#d2e4ff;}.cls-4{fill:#f3f9ff;}.cls-5{fill:#f54394;}.cls-6{fill:#a6c7f9;}.cls-7{fill:#c65447;}.cls-8{fill:#e57970;}.cls-9{fill:#f9afd4;}.cls-10{fill:#a8d29f;}.cls-11{fill:#f1a34f;}.cls-12{fill:#82b378;}.cls-13{fill:#dd8936;}.cls-14{fill:#a00854;}.cls-15{fill:#163560;}.cls-16{fill:#1c468a;}.cls-17{fill:#ffb27d;}.cls-18{fill:#fca56b;}.cls-19{fill:#12c2e9;}.cls-20{fill:#d68d5d;}.cls-21{fill:#80bdcc;}.cls-22{fill:#e7f1fd;}.cls-23{fill:#5f9aa8;}.cls-24{fill:#c45446;}.cls-25{fill:#0c9aa8;}.cls-26{fill:#e49963;}.cls-27{fill:#2b478b;}.cls-28{fill:#4a75cb;}.cls-29{fill:#202f4e;}</style></defs><title>bn_con14</title><path class="cls-1" d="M2845.29,583.49c-125.43-107-276.65-752.25-794.67-416.18C1783,340.94,1331.69,18.24,958.15,129.7,615.1,232.06,582,569.31,615.22,679.21c67,222-141.6,255-335.16,350.39C-23.56,1179.2,199.7,1705,486.54,1707.49s2024.51-5,2024.51-5,416.69,1,590-228.92C3287.48,1226.08,3169.28,859.86,2845.29,583.49Z"/><rect class="cls-2" x="2316.72" y="186.5" width="714.11" height="1199.82" transform="translate(5347.55 1572.81) rotate(180)"/><rect class="cls-3" x="2294.33" y="186.5" width="714.11" height="1199.82"/><rect class="cls-4" x="2342.97" y="253.52" width="618.54" height="417.92"/><rect class="cls-4" x="2618.88" y="1063.62" width="331.97" height="223.13"/><path class="cls-5" d="M2368.47,466.82s105.61-13.16,170.15,46.3,184.75,5.26,233.16,0c84.16-9.16,150.14,18.37,169.7,48.64v90.8h-573Z"/><rect class="cls-6" x="2450.33" y="320.7" width="4.42" height="141.79"/><rect class="cls-6" x="2624" y="381.54" width="4.42" height="141.79"/><rect class="cls-6" x="2803.21" y="349.46" width="4.42" height="141.79"/><path class="cls-6" d="M2504.16,342.45h-33.92a3.7,3.7,0,0,1-3.69-3.69h0a3.7,3.7,0,0,1,3.69-3.68h33.92a3.7,3.7,0,0,1,3.69,3.68h0A3.7,3.7,0,0,1,2504.16,342.45Z"/><path class="cls-6" d="M2504.16,355.73h-33.92a3.7,3.7,0,0,1-3.69-3.69h0a3.7,3.7,0,0,1,3.69-3.69h33.92a3.7,3.7,0,0,1,3.69,3.69h0A3.7,3.7,0,0,1,2504.16,355.73Z"/><path class="cls-6" d="M2675.26,414.72h-33.93a3.7,3.7,0,0,1-3.68-3.68h0a3.7,3.7,0,0,1,3.68-3.69h33.93A3.7,3.7,0,0,1,2679,411h0A3.7,3.7,0,0,1,2675.26,414.72Z"/><path class="cls-6" d="M2675.26,427.73h-33.93a3.7,3.7,0,0,1-3.68-3.69h0a3.7,3.7,0,0,1,3.68-3.69h33.93A3.7,3.7,0,0,1,2679,424h0A3.7,3.7,0,0,1,2675.26,427.73Z"/><path class="cls-6" d="M2857.41,361.26h-33.92a3.7,3.7,0,0,1-3.69-3.69h0a3.7,3.7,0,0,1,3.69-3.69h33.92a3.7,3.7,0,0,1,3.69,3.69h0A3.7,3.7,0,0,1,2857.41,361.26Z"/><path class="cls-6" d="M2857.41,374.26h-33.92a3.7,3.7,0,0,1-3.69-3.69h0a3.7,3.7,0,0,1,3.69-3.69h33.92a3.7,3.7,0,0,1,3.69,3.69h0A3.7,3.7,0,0,1,2857.41,374.26Z"/><path class="cls-4" d="M2839.36,778.34a61.08,61.08,0,1,1,61.08,61.07A61.07,61.07,0,0,1,2839.36,778.34Z"/><path class="cls-7" d="M2956.33,778.34a55.89,55.89,0,0,1-93.68,41.19l37.79-41.19v-55.9A55.9,55.9,0,0,1,2956.33,778.34Z"/><path class="cls-6" d="M2879.15,768.49h-20.08a1.68,1.68,0,0,1-1.68-1.68h0a1.69,1.69,0,0,1,1.68-1.68h20.08a1.69,1.69,0,0,1,1.68,1.68h0A1.68,1.68,0,0,1,2879.15,768.49Z"/><circle class="cls-4" cx="2748.8" cy="778.34" r="61.07"/><path class="cls-8" d="M2748.8,778.34l34.35,44.1a55.9,55.9,0,1,1,21.32-49.21Z"/><path class="cls-6" d="M2791.84,792.16h-14a1.69,1.69,0,0,1-1.69-1.68h0a1.69,1.69,0,0,1,1.69-1.68h14a1.69,1.69,0,0,1,1.69,1.68h0A1.69,1.69,0,0,1,2791.84,792.16Z"/><path class="cls-4" d="M2839.36,946.55a61.08,61.08,0,1,1,61.08,61.08A61.07,61.07,0,0,1,2839.36,946.55Z"/><path class="cls-5" d="M2956.33,946.55a55.89,55.89,0,0,1-93.68,41.19l37.79-41.19V890.66A55.89,55.89,0,0,1,2956.33,946.55Z"/><path class="cls-6" d="M2879.15,936.71h-20.08a1.69,1.69,0,0,1-1.68-1.69h0a1.69,1.69,0,0,1,1.68-1.68h20.08a1.69,1.69,0,0,1,1.68,1.68h0A1.69,1.69,0,0,1,2879.15,936.71Z"/><path class="cls-4" d="M2687.73,946.55a61.08,61.08,0,1,1,61.07,61.08A61.07,61.07,0,0,1,2687.73,946.55Z"/><path class="cls-7" d="M2804.47,941.45a55.91,55.91,0,1,0-21.32,49.2l-34.35-44.1Z"/><path class="cls-6" d="M2791.84,960.37h-14a1.69,1.69,0,0,1-1.69-1.68h0a1.69,1.69,0,0,1,1.69-1.68h14a1.69,1.69,0,0,1,1.69,1.68h0A1.69,1.69,0,0,1,2791.84,960.37Z"/><polygon class="cls-6" points="2936.53 1271.16 2631.82 1271.16 2631.82 1091.12 2635.61 1091.12 2635.61 1267.37 2936.53 1267.37 2936.53 1271.16"/><path class="cls-6" d="M2727.08,1206.05c-37.3-29.69-77,0-77,0v50.76H2929V1125.6C2853.19,1127.51,2764.38,1235.74,2727.08,1206.05Z"/><path class="cls-6" d="M2653.3,1104.85h129.94a3.2,3.2,0,1,0,0-6.39H2653.3a3.2,3.2,0,0,0,0,6.39Z"/><path class="cls-6" d="M2653.3,1120.45h129.94a3.2,3.2,0,1,0,0-6.39H2653.3a3.2,3.2,0,0,0,0,6.39Z"/><rect class="cls-6" x="2650.11" y="1128.79" width="91.26" height="6.39" rx="2.61"/><rect class="cls-3" x="1199.09" width="977.09" height="1473.56"/><rect class="cls-4" x="1293.5" y="82.42" width="786.67" height="876.84"/><circle class="cls-4" cx="1451.7" cy="1239.4" r="141.48" transform="translate(-451.2 1389.52) rotate(-45)"/><path class="cls-5" d="M1571.29,1239.41a119.58,119.58,0,1,0-47,95.08l-72.54-95.08,111.76,42.65A119.53,119.53,0,0,0,1571.29,1239.41Z"/><circle class="cls-4" cx="1933.74" cy="1239.4" r="141.48" transform="matrix(0.23, -0.97, 0.97, 0.23, 283.21, 2836.66)"/><path class="cls-5" d="M1933.74,1119.81a119.58,119.58,0,0,0-85.23,203.48l85.23-83.88,111.75,42.65a119.67,119.67,0,0,0-111.75-162.25Z"/><path class="cls-9" d="M1916.26,1178.69h-50.91a3.64,3.64,0,0,0-3.63,3.64h0a3.64,3.64,0,0,0,3.63,3.63h50.91a3.64,3.64,0,0,0,3.64-3.63h0A3.65,3.65,0,0,0,1916.26,1178.69Z"/><path class="cls-9" d="M1916.26,1190.21h-50.91a3.64,3.64,0,0,0,0,7.27h50.91a3.64,3.64,0,1,0,0-7.27Z"/><path class="cls-9" d="M1886.38,1201.72h-21a3.64,3.64,0,0,0,0,7.27h21a3.64,3.64,0,0,0,0-7.27Z"/><path class="cls-9" d="M1433.25,1178.69h-50.91a3.65,3.65,0,0,0-3.64,3.64h0a3.64,3.64,0,0,0,3.64,3.63h50.91a3.64,3.64,0,0,0,3.63-3.63h0A3.64,3.64,0,0,0,1433.25,1178.69Z"/><path class="cls-9" d="M1433.25,1190.21h-50.91a3.64,3.64,0,1,0,0,7.27h50.91a3.64,3.64,0,0,0,0-7.27Z"/><path class="cls-9" d="M1403.36,1201.72h-21a3.64,3.64,0,1,0,0,7.27h21a3.64,3.64,0,1,0,0-7.27Z"/><rect class="cls-6" x="1363.55" y="395.79" width="83.01" height="517.12"/><rect class="cls-6" x="1499.55" y="251.65" width="83.01" height="661.26"/><rect class="cls-6" x="1647.94" y="520.84" width="83.01" height="392.06"/><rect class="cls-6" x="1792.34" y="339.93" width="83.01" height="572.98"/><rect class="cls-6" x="1937.49" y="597.58" width="83.01" height="315.32"/><path class="cls-6" d="M1871.41,265.38h-70.3a7.28,7.28,0,0,0,0,14.55h70.3a7.28,7.28,0,1,0,0-14.55Z"/><path class="cls-6" d="M1817.13,291.85h-16a7.27,7.27,0,0,0,0,14.54h16a7.27,7.27,0,0,0,0-14.54Z"/><path class="cls-6" d="M1581.73,152.76h-70.31a7.28,7.28,0,0,0,0,14.55h70.31a7.28,7.28,0,0,0,0-14.55Z"/><path class="cls-6" d="M1527.44,179.23h-16a7.29,7.29,0,0,0-7.27,7.27h0a7.29,7.29,0,0,0,7.27,7.27h16a7.29,7.29,0,0,0,7.27-7.27h0A7.29,7.29,0,0,0,1527.44,179.23Z"/><path class="cls-6" d="M1724.6,443.66h-70.3a7.28,7.28,0,0,0,0,14.55h70.3a7.28,7.28,0,0,0,0-14.55Z"/><path class="cls-6" d="M1670.31,470.13h-16a7.29,7.29,0,0,0-7.27,7.27h0a7.29,7.29,0,0,0,7.27,7.27h16a7.29,7.29,0,0,0,7.27-7.27h0A7.29,7.29,0,0,0,1670.31,470.13Z"/><path class="cls-6" d="M2014.15,520.84h-70.31a7.28,7.28,0,0,0,0,14.55h70.31a7.28,7.28,0,0,0,0-14.55Z"/><path class="cls-6" d="M1959.86,547.31h-16a7.27,7.27,0,1,0,0,14.54h16a7.27,7.27,0,1,0,0-14.54Z"/><rect class="cls-2" x="353.13" y="558.56" width="714.11" height="402.02"/><rect class="cls-3" x="376.35" y="558.56" width="714.11" height="402.02"/><circle class="cls-4" cx="571.65" cy="750.49" r="129.12" transform="translate(-363.24 624.03) rotate(-45)"/><path class="cls-4" d="M1010.18,678.36H796.28a14.13,14.13,0,0,0-14.09,14.1h0a14.13,14.13,0,0,0,14.09,14.09h213.9a14.13,14.13,0,0,0,14.1-14.09h0A14.13,14.13,0,0,0,1010.18,678.36Z"/><path class="cls-4" d="M1010.18,736.4H796.28a14.13,14.13,0,0,0-14.09,14.09h0a14.13,14.13,0,0,0,14.09,14.09h213.9a14.13,14.13,0,0,0,14.1-14.09h0A14.13,14.13,0,0,0,1010.18,736.4Z"/><path class="cls-4" d="M1010.18,794.43H796.28a14.1,14.1,0,0,0,0,28.19h213.9a14.1,14.1,0,1,0,0-28.19Z"/><path class="cls-10" d="M453.43,748.62H571.65V630.4A118.23,118.23,0,0,0,453.43,748.62Z"/><path class="cls-11" d="M689.87,752.42H453.43A118.22,118.22,0,0,0,571.65,870.64h0A118.22,118.22,0,0,0,689.87,752.42Z"/><path class="cls-12" d="M551.23,687.84H487.07a6.64,6.64,0,0,0,0,13.27h64.16a6.64,6.64,0,1,0,0-13.27Z"/><path class="cls-12" d="M501.69,712H487.07a6.64,6.64,0,0,0,0,13.27h14.62a6.64,6.64,0,0,0,0-13.27Z"/><path class="cls-13" d="M646.49,781.32H582.33a6.64,6.64,0,1,0,0,13.28h64.16a6.64,6.64,0,0,0,0-13.28Z"/><path class="cls-13" d="M596.94,805.47H582.33a6.66,6.66,0,0,0-6.64,6.64h0a6.66,6.66,0,0,0,6.64,6.64h14.61a6.66,6.66,0,0,0,6.64-6.64h0A6.66,6.66,0,0,0,596.94,805.47Z"/><path class="cls-2" d="M302.83,1032.58v411.15h714.11V1032.58Z"/><path class="cls-3" d="M326.05,1032.58v411.15h714.11V1032.58Z"/><circle class="cls-4" cx="521.35" cy="1225.46" r="129.12"/><path class="cls-4" d="M746,1181.52h213.9a14.1,14.1,0,0,0,0-28.19H746a14.1,14.1,0,0,0,0,28.19Z"/><path class="cls-4" d="M959.88,1211.36H746a14.1,14.1,0,0,0,0,28.19h213.9a14.1,14.1,0,0,0,0-28.19Z"/><path class="cls-4" d="M959.88,1269.4H746a14.13,14.13,0,0,0-14.09,14.09h0a14.14,14.14,0,0,0,14.09,14.1h213.9a14.14,14.14,0,0,0,14.09-14.1h0A14.13,14.13,0,0,0,959.88,1269.4Z"/><path class="cls-11" d="M521.35,1227.55l-118.21-1.5c0,.5,0,1,0,1.5a118.23,118.23,0,0,0,181.65,99.77Z"/><rect class="cls-13" x="454.91" y="1264.78" width="77.43" height="13.27" rx="6.64"/><path class="cls-13" d="M476.16,1288.93H461.54a6.64,6.64,0,0,0,0,13.28h14.62a6.64,6.64,0,0,0,0-13.28Z"/><rect class="cls-2" x="302.83" y="120.11" width="714.12" height="372.57"/><rect class="cls-3" x="326.05" y="120.11" width="714.11" height="372.57"/><circle class="cls-4" cx="521.35" cy="311.87" r="129.12" transform="translate(-67.83 459.99) rotate(-45)"/><path class="cls-10" d="M521.35,193.66A118.22,118.22,0,0,0,464.61,415.6c18.94-35.08,56.74-103.73,56.74-103.73l56,104.14a118.22,118.22,0,0,0-56-222.35Z"/><rect class="cls-4" x="731.89" y="239.74" width="242.09" height="28.19" rx="14.09"/><path class="cls-4" d="M959.88,297.77H746A14.1,14.1,0,0,0,746,326h213.9a14.1,14.1,0,1,0,0-28.19Z"/><path class="cls-4" d="M959.88,355.81H746A14.1,14.1,0,0,0,746,384h213.9a14.1,14.1,0,1,0,0-28.19Z"/><path class="cls-12" d="M525.7,255.41H461.54a6.64,6.64,0,0,0,0,13.27H525.7a6.64,6.64,0,1,0,0-13.27Z"/><path class="cls-12" d="M476.16,279.56H461.54a6.65,6.65,0,0,0-6.63,6.64h0a6.65,6.65,0,0,0,6.63,6.64h14.62a6.65,6.65,0,0,0,6.63-6.64h0A6.65,6.65,0,0,0,476.16,279.56Z"/><path class="cls-14" d="M1205.8,763.53s83.3,86,87.3,118.42-39.63,83.15-39.63,83.15Z"/><path class="cls-15" d="M1170.19,1655.6s-2.84,45.72-11.68,46.37c-1.18.09-44.86.09-44.86.09l-55.76-.32s.36-13.44,16.66-16.28,43.58-14.3,53.46-35.84C1138.39,1627,1170.19,1655.6,1170.19,1655.6Z"/><path class="cls-15" d="M1294.39,1655.6s-2.84,45.72-11.68,46.37c-1.18.09-44.86.09-44.86.09l-55.93-.2s.53-13.56,16.83-16.4,43.58-14.3,53.46-35.84C1262.6,1627,1294.39,1655.6,1294.39,1655.6Z"/><path class="cls-15" d="M1108.43,1165.37s14.59,93.28,69,258.86,61.82,237.27,61.82,237.27a238.79,238.79,0,0,0,30.26,2.14c9.83,0,28.1-3.77,28.1-3.77s.5-181-24.57-264.22-5.41-300.17-5.41-300.17Z"/><path class="cls-16" d="M1080,1100.59s-2.07,140.55,22.25,313.14,16.08,245.84,16.08,245.84,20,3.58,27.05,3.82c7.53.25,31.2-1.89,31.2-1.89s34.8-172.64,24.82-259,47.67-296.42,47.67-296.42Z"/><path class="cls-17" d="M1192.79,771.66,1165.31,792l-39.7-8.36c.55-3.62,3.17-18.63,5.56-32.22.14-.8.29-1.6.42-2.39l3.81-21.5,37.08-18.48,13.83-6.89c0,.24-1.07,12.83-1.22,14.67C1182.5,749.48,1192.79,771.66,1192.79,771.66Z"/><path class="cls-14" d="M1128.39,761.39c.87-.36,54-16,59.78-14.14s9.19,13.08,9.19,13.08L1110.44,780S1117.29,766.07,1128.39,761.39Z"/><path class="cls-5" d="M1271.48,1117.94c-9,41.09-158.91,46-197.55,8.66-4.4-4.25-4.61-24-3-50.7,3.25-52.1,13.66-130.48,14.06-170.53.2-19.34,2.86-39.12,6.4-57.08a463.9,463.9,0,0,1,19-68.32s73.22-23.67,86.92-19.64C1263.37,779.72,1280.49,1076.85,1271.48,1117.94Z"/><path class="cls-14" d="M1071,1075.9c3.25-52.1,13.66-130.48,14.06-170.53.2-19.34,2.86-39.12,6.4-57.08l44-7.77S1178.54,1016.41,1071,1075.9Z"/><path class="cls-17" d="M1094.82,1003.27s3,7.18-3.3,12-10.39,12.62-9,18.33,15.28,15,20.07,13.51,14.55-9,13.5-12,6.56-26.4-5.12-35.41S1094.82,1003.27,1094.82,1003.27Z"/><path class="cls-5" d="M1144.08,769.43s-43,8-77.19,58.48-56.74,87.94-50.44,106.12,63.78,81.23,73.69,81.23,25.89-7.21,26.79-23.42c0,0-40.46-60.65-32.49-69.73,3.41-3.88,52.53-43.76,59.55-25.75C1155.59,926.17,1144.08,769.43,1144.08,769.43Z"/><path class="cls-18" d="M1182.31,717.42c-8.14,15.58-38.49,29.06-51.14,34,.14-.8.29-1.6.42-2.39l3.81-21.5,37.08-18.48C1180.68,708.93,1185.67,711,1182.31,717.42Z"/><path class="cls-17" d="M1123.45,728.39s54.9,17.12,65-17.23,24-55.27-10.57-67.66-45.32-1.29-51.5,9.35S1109.44,723.05,1123.45,728.39Z"/><path class="cls-15" d="M1128.57,649.54s3.5,40,11.77,38.24,15.76-3,14.55,9-12.67,26,12.8,28.1,62.1-63.57,55.1-76C1202.6,613,1099.38,605.75,1128.57,649.54Z"/><polygon class="cls-17" points="140.25 1578.38 156.96 1648.77 181.99 1648.63 182.91 1578.38 140.25 1578.38"/><polygon class="cls-17" points="350.81 1581.38 398.36 1648.77 416.89 1624.97 388.27 1572.12 350.81 1581.38"/><path class="cls-15" d="M227.18,653.45c-8.64-4.91-19-5.44-26.24-5,1.87-1.92,5.54-2.62,5.54-2.62C202,645.14,192,649.6,192,649.6c-62.48-24.08-72.3,67.92-71,89.29s-21,28.35-53.5,45.19C5.45,816.21,0,859.24,0,859.24c.48.28,1,.61,1.52,1,3.08-5.22,9.42-15,14.76-16.48-.2.47-6.31,13.47-8.6,20.93,18.3,13.91,52.53,44.76,76.39,66.62C84,927,84.13,921,85.69,917.75l3,17.75c12.77,11.73,21.57,20,21.57,20-1.58-17.28,78.11-108.42,119.69-135.72,10.12-14.9,13.72-41.22,14-43.29-1.75,20.87-5.32,32.58-8.51,39.17C270.59,783.24,250.09,666.47,227.18,653.45Z"/><path class="cls-17" d="M227.44,821.13c.21.09-20.07,10.63-35.33,6.45-14.35-3.91-23.73-22.52-23.53-22.56,6.08-1.21,7.83-9.56,7.7-45.45l2.75.54,46.19,9.15s-1.05,14.54-1.08,28.24C224.11,809,224.81,819.9,227.44,821.13Z"/><path class="cls-19" d="M175.2,668.52s22.79-24.26,51.4-1.24C226.6,667.28,210,664.4,175.2,668.52Z"/><path class="cls-20" d="M225.22,769.26s-1.05,14.54-1.08,28.24c-25.85-.73-39.51-24.31-45.11-37.39Z"/><path class="cls-15" d="M174.26,755.09s-13.55-21.41-16.8-39.71c-2.32-13.07,4.33-61.51,53-54.53a66.06,66.06,0,0,1,27.42,10.37c10.57,7.14,25.82,22.54,8.77,64.81l-4.43,14.28Z"/><path class="cls-21" d="M409.35,1606.5l-24.49.75-26.51.81s-61.22-68.16-95.56-177.43c-.8-2.54-1.65-5.12-2.54-7.72-18.8-54.8-57.76-123.59-78.29-185.85-3.27-9.92-6.2-19.25-8.84-28.09-.84-2.83-1.66-5.61-2.44-8.35-15.13-52.57-19.52-87.09-23.55-124l148.26,1.18S319.33,1329.68,409.35,1606.5Z"/><path class="cls-22" d="M274.64,992.64c-.38,70.55,10.35,100.82,10.35,100.82s-63.49,32.25-138.93,8.51c-.89-.28-62.48-14.33-62.48-14.33,1.27-2.86,12.49-50.4,13.73-53,15.92-34.21,28-49.21,29.91-59.73,3.5-19.63,3.58-39.95,1.83-59.11A474.38,474.38,0,0,0,110.76,823c20.56-4.67,40.34-12.67,61.74-20.7,4.92,6.13,19.43,12.32,32.48,12,15-.33,19.73-6.69,19.17-13.85,16,8.92,28.75,17.39,28.75,17.39,13.61,23.65,41.22,46.61,43.22,82.88C296.61,909.62,274.65,990.66,274.64,992.64Z"/><path class="cls-23" d="M147.13,1000.5c-6.49,9.18-18.91,64.93-49.82,71.94,15.92-39.74,28-57.16,29.91-69.38,3.5-22.8,3.58-46.4,1.83-68.66,10.35-18.14,18.08-30.57,18.08-30.57.81-2.94,16.44-51.27,21.45-8.07S154.37,990.24,147.13,1000.5Z"/><path class="cls-17" d="M233.86,782.23s-61.17,1-61.21-37.09-8-63.62,31.09-65.88,46.65,12.27,49.76,25S249.77,781,233.86,782.23Z"/><path class="cls-15" d="M251.68,683.06c-9.44-11.44-16.58-8.95-20.59-5.51-13.21-19.75-55,8.81-55,8.81-4.09,27.34-23.8,43-23.8,43s11.15,6.89,36.85.28c20.22-5.2,34.9-34,40.24-46,3.63,3.23,11.31,10.7,13.61,18,3.05,9.7,4.42,29.67,10.24,29C253.24,730.63,265.86,700.25,251.68,683.06Z"/><path class="cls-17" d="M156.12,1644.83a67.93,67.93,0,0,1-3.19,28.86s-4.1,18.67,14.29,19,22.89-1.39,20.81-12.84-6-31.24-6-31.24Z"/><path class="cls-24" d="M189.77,1701.87l-.06,0h-38l-.06,0c-2.08-9.77,1.32-28.16,1.32-28.16,20.82,19.9,33.85-.5,33.85-.5C190.16,1681.72,189.77,1701.87,189.77,1701.87Z"/><path class="cls-17" d="M461.2,1682.61s-33.9-38.49-44.31-57.64l-25.2,12.91L448,1690.8l13.18-1.74Z"/><path class="cls-24" d="M482,1701.8H435c-4.14-3.73-8.09-11.25-12.93-21.11-2.77-5.65-9-8.76-15.35-10.47v31.58H397l-9-33.58c-6-11.25-1.5-21.57,2.72-30.46,4.91,0,19.16,3.54,44.2,32.31,8.23,9.45,17.31,12.82,26.34,12.54a2.24,2.24,0,0,0,.37.2C475.83,1689.35,480.48,1697.39,482,1701.8Z"/><path class="cls-19" d="M479.71,845.46s-40.15,22.45-54.49,28.92c-5.1,2.3-14.34,6.6-23.78,11-5.7,2.66-11.47,5.37-16.46,7.72a20.69,20.69,0,0,1-24.52-5.29c-21.74-25.38-78-80.4-136.1-87.3l-.21-.09,0,.07h-.07l.32.63c3.26,8.12,35.12,87.7,36.1,104.48,1,17.69,4.17,289.31,4.17,289.31s-2.09,12.49,21.85,7.29,30.18-10.41,30.18-10.41S293.84,1024.24,300.08,966c1.22-11.43.12-24.29-2.44-37.56,35.39,21.44,77.11,31,77.11,31s15.56-6.79,39.74-21.77c10.15-6.3,21.92-16.34,33.51-27,14-12.84,38.09-43.84,38.09-43.84Z"/><path class="cls-23" d="M384.86,1607.25l-26.51.81s-61.22-68.16-95.56-177.43c-.8-2.54-1.65-5.12-2.54-7.72-18.8-54.8-57.76-123.59-78.29-185.85-3.27-9.92-6.2-19.25-8.84-28.09-.84-2.83-1.66-5.61-2.44-8.35l21.83-16.56s65.55,106.15,85.85,206C296,1476.87,366.59,1581.28,384.86,1607.25Z"/><path class="cls-21" d="M194.79,1399.4c.37,48.58-2.08,160.27-8.41,206.51H162.9c-13,0-19.45-.19-19.45-.19-15.87-80.39-27.16-146.91-35.38-204.23-6.74-47-12.74-87.37-17.35-122.09-4.64-34.93-7.87-64.19-9-88.9q-.27-5.84-.39-11.36t-.06-10.77l128.11-12.49C207.75,1241,194.58,1371.17,194.79,1399.4Z"/><path class="cls-23" d="M162.9,1605.91c-13,0-19.45-.19-19.45-.19-15.87-80.39-27.16-146.91-35.38-204.23-6.74-47-12.74-87.37-17.35-122.09-4.64-34.93-7.87-64.19-9-88.9l47,27.65s-30,10.58-18.56,90.72S147,1594.56,162.9,1605.91Z"/><path class="cls-19" d="M169,1189.71s-9,32.6-40.24,28.44-75.62-22.9-75.62-22.9S66.44,1153.1,83,1097.71c20.09-67,45-153.49,56.67-208,3.29-15.28,5.54-28,6.37-37.17l26.44-50.28s38.08,86.7,40.16,108.56S169,1189.71,169,1189.71Z"/><path class="cls-17" d="M280.45,935.2c-15,2-20.78,10-22.64,20.73-1,5.82-4,11.56-6.54,15.62-15,.8-50.61,2.74-80.56,4.64l-2.47,39.28c24.6-3.06,54.83-9.31,89.62-21.21,2.68-.46,6-2.12,10.2-5.55,21.56-17.66,33.8-47.23,33.84-51.46S295.48,933.23,280.45,935.2Z"/><path class="cls-25" d="M167.57,956.6c-1.4,35.38-9.72,104.06-83.95,140.83-.2.09-.4.2-.6.28,20.09-67,45-153.49,56.67-208C153.32,910.08,168.33,937.11,167.57,956.6Z"/><path class="cls-19" d="M172.5,802.25s-63.5,4.5-78.76,38.5S73.62,987.83,93,1021.13c0,0,26.75,7.62,74.05-1.22l1.75-.34s15.09-36.94,1.56-44.23c0,0-39.89,2.08-35.73-11.1S172.5,802.25,172.5,802.25Z"/><path class="cls-17" d="M522.75,818.78C488.59,814.39,480,845.46,480,845.46l6.38,21.34c10.53,1.46,19.74-1.29,28.23-13.44s10.83-7.48,16.23-16.52C538.13,824.57,526.67,820,522.75,818.78Z"/><path class="cls-17" d="M425.22,874.38c-5.1,2.3-14.34,6.6-23.78,11,5.05,9,11.37,25.27,13.05,52.21,10.15-6.3,23.29-16.79,34.51-27.8,18-17.66,37.09-43,37.09-43l-6.38-21.34S439.56,867.91,425.22,874.38Z"/><path class="cls-26" d="M2237.45,1121.91s-24.29,6.24-39.73,1.59-42,3-46.31,8.61-2.7,7.87,4.93,9.82,34.7,13.48,52.48,6.8,41-6.92,41-6.92Z"/><path class="cls-25" d="M2447.4,910.89s-27.29,193.95-72.48,211.32c-22.29,8.58-120.83,28-150,30,0,0-7.14-5.79-5.4-29.37,0,0,103.24-37.91,117.9-58.52,21.83-30.67-13.55-125.32,13.84-154.13S2424.8,869,2447.4,910.89Z"/><path class="cls-27" d="M2443.91,1658.21v-42.29h66.58a3.28,3.28,0,0,0,3.27-3.26v-6.78a3.28,3.28,0,0,0-3.27-3.27h-66.58V1361.89a12.31,12.31,0,0,0-12.28-12.28h-13.17a12.32,12.32,0,0,0-12.29,12.28v240.72H2339.6a3.28,3.28,0,0,0-3.27,3.27v6.78a3.28,3.28,0,0,0,3.27,3.26h66.57v42.29c-48.17,3.64-86.76,21-97.59,43.39H2541.5C2530.68,1679.19,2492.08,1661.85,2443.91,1658.21Z"/><path class="cls-15" d="M2438.2,1319.51a339.17,339.17,0,0,1-26.66,38.14c-29.33,37-61.25,67.56-66.82,96.42a130.77,130.77,0,0,1-5.15,18.47c-2.32,6.61-5.19,13.56-8.51,20.74-12.45,27-31.06,57.33-49.64,84.87-32.13,47.6-62.34,87.32-62.34,87.32l-55.39-2.36c2.21-5.55,26.38-71.28,58.7-151.6,13.13-32.61,27.08-67.29,40.55-100.74,1.79-4.47,3.59-8.91,5.36-13.32,4.12-10.24,8.17-20.32,12.13-30.13L2335,1231.84s121.31-45.95,133.9-16.17C2479.24,1240.22,2470.78,1264.27,2438.2,1319.51Z"/><path class="cls-15" d="M2217.35,1655.4s-2.83,45.71-11.68,46.37c-1.17.09-44.85.09-44.85.09l-55.77-.33s.37-13.43,16.67-16.27,43.58-14.3,53.45-35.84C2185.56,1626.75,2217.35,1655.4,2217.35,1655.4Z"/><path class="cls-15" d="M2345.63,1524.8s38.54,24.76,34.8,32.8c-.5,1.07-21.79,39.21-21.79,39.21l-27.47,48.53s-11.55-6.87-6.09-22.48,8.77-45-5.23-64.15C2305.13,1538.59,2345.63,1524.8,2345.63,1524.8Z"/><path class="cls-16" d="M2293.5,1210s-152.26,94.85-169.26,158.58,202.54,199.71,202.54,199.71,24.08-21.24,28.33-36.82c0,0-99.23-118.89-120.76-145.54-13.22-16.37,195.47-56.66,221-96.32s16.37-73,16.37-73Z"/><rect class="cls-5" x="2257.9" y="1331.82" width="334.29" height="84.99" rx="11.33"/><path class="cls-26" d="M2363.91,877.64a85.86,85.86,0,0,0-23.2,21c36.48,9.43,96.95-24.37,96.95-24.37s-23.48-15.77-32.18-50.44q-.66-2.62-1.19-5.38a109.7,109.7,0,0,1-2-19l-16.76,15-27.86,25s.63,10.36,4.12,28.17Q2362.71,872.31,2363.91,877.64Z"/><path class="cls-19" d="M2476.11,1049.72c-5.22,70.28,3.56,177.11-2.36,195.62-5.12,16-65.32,6.52-88.58,1.19-8.61-2-19-4.79-29.82-8.12-30-9.31-62.78-22.59-66.3-32.46a8.37,8.37,0,0,1-.32-1.13,9,9,0,0,1,.06-4.14c1.17-5,5.68-10.46,6.22-22.91.59-13.9.5-30.27,1-47.86,0-2,.06-4.15.27-6.12v-.72l0-1.13c.5-19.62,1.53-40.26,2.72-60.72.76-12.86,1.63-25.58,2.64-37.78,2.62-31.48,6.15-59.47,10.82-77.17,7.64-28.85,24.49-47.67,39.82-61.46l11.08-9.51c12.38,2.7,27,.91,40.24-5.36,14.32-6.8,19.26-11.67,21.76-9.83C2458.49,885.62,2482.28,963.81,2476.11,1049.72Z"/><path class="cls-25" d="M2355.53,1238.55c-30.05-9.31-62.79-22.59-66.31-32.46a8.37,8.37,0,0,1-.32-1.13l.06-4.14c1.17-5,5.69-10.46,6.22-22.91.59-13.9.5-30.26,1-47.86,0-2,.06-4.15.28-6.12v-.72l0-1.13,113.5-51.47S2416.55,1162.08,2355.53,1238.55Z"/><path class="cls-20" d="M2357.69,839.47s.63,10.36,4.12,28.17c27.21-8.79,39.55-33.36,43.67-43.79,1.17-2.94,1.68-4.76,1.68-4.76l-2.87-.62-18.74-4Z"/><path class="cls-26" d="M2346.68,839.19s59.77,6.75,63.4-30.54,13.78-61.54-24.23-67.42S2339,748.86,2334.79,761,2331.22,836.48,2346.68,839.19Z"/><path class="cls-27" d="M2409.82,811.22s-3.79-49.5-58.2-54.63c-37.27-3.51-16.49-35.59-12.52-40.7,0,0,28.55,3.91,57.82,8.75C2458.36,734.79,2415.85,803.51,2409.82,811.22Z"/><rect class="cls-28" x="2092.85" y="1030.83" width="5.5" height="144.06" transform="translate(-238.24 701.59) rotate(-18)"/><rect class="cls-28" x="2115.13" y="1161.56" width="151.17" height="9.04" transform="translate(-24.4 47.05) rotate(-1.22)"/><path class="cls-26" d="M2250,1151.73s-23.45,8.88-39.32,6-41.43,7.61-45.06,13.68-1.83,8.11,6,9.2,36,9.58,52.91,1,40-11.4,40-11.4Z"/><path class="cls-19" d="M2435.36,918.84s-5.74,195.79-48.74,218c-21.22,11-117,41.16-145.77,46.31,0,0-7.73-5-8.6-28.6,0,0,98.43-49,110.73-71.15,18.31-32.9-27.28-123.07-3.24-154.72S2408.27,879.66,2435.36,918.84Z"/><path class="cls-29" d="M3096.83,1707.84H32.21a3,3,0,0,1-3-3h0a3,3,0,0,1,3-3H3096.83a3,3,0,0,1,3,3h0A3,3,0,0,1,3096.83,1707.84Z"/></svg>