<svg xmlns="http://www.w3.org/2000/svg" xmlns:xlink="http://www.w3.org/1999/xlink" viewBox="0 0 2715.23 2770.52"><defs><style>.cls-1{fill:none;}.cls-2{fill:url(#linear-gradient);}.cls-3{fill:#f54394;}.cls-18,.cls-19,.cls-21,.cls-4{fill:#fff;}.cls-4{opacity:0.49;}.cls-5{fill:#7d97f4;}.cls-6{fill:url(#linear-gradient-2);}.cls-7{fill:url(#linear-gradient-3);}.cls-8{fill:#91b3fa;}.cls-9{fill:url(#linear-gradient-4);}.cls-10{fill:#a00854;}.cls-11{fill:url(#linear-gradient-5);}.cls-12{fill:url(#linear-gradient-6);}.cls-13{fill:url(#linear-gradient-7);}.cls-14{fill:url(#linear-gradient-8);}.cls-15{clip-path:url(#clip-path);}.cls-16{fill:url(#linear-gradient-9);}.cls-17{fill:url(#linear-gradient-10);}.cls-19{fill-rule:evenodd;}.cls-20{fill:#fca7d2;}.cls-21{opacity:0.78;}.cls-22{fill:url(#linear-gradient-11);}.cls-23{fill:url(#linear-gradient-12);}.cls-24{fill:url(#linear-gradient-13);}.cls-25{fill:url(#linear-gradient-14);}.cls-26{fill:url(#linear-gradient-15);}.cls-27{fill:url(#linear-gradient-16);}.cls-28{fill:url(#linear-gradient-17);}.cls-29{fill:url(#linear-gradient-18);}.cls-30{fill:url(#linear-gradient-19);}.cls-31{fill:#12c2e9;}.cls-32{fill:url(#linear-gradient-20);}.cls-33{fill:url(#linear-gradient-21);}.cls-34{fill:url(#linear-gradient-22);}.cls-35{fill:url(#linear-gradient-23);}.cls-36{fill:url(#linear-gradient-24);}.cls-37{fill:url(#linear-gradient-25);}.cls-38{fill:url(#linear-gradient-26);}.cls-39{fill:url(#linear-gradient-27);}</style><linearGradient id="linear-gradient" x1="2879.59" y1="3064.02" x2="887.05" y2="913.33" gradientUnits="userSpaceOnUse"><stop offset="0" stop-color="#dae3fe"/><stop offset="1" stop-color="#e9effd"/></linearGradient><linearGradient id="linear-gradient-2" x1="651.08" y1="3383.43" x2="1074.12" y2="2412.93" gradientUnits="userSpaceOnUse"><stop offset="0" stop-color="#4f52ff"/><stop offset="1" stop-color="#4042e2"/></linearGradient><linearGradient id="linear-gradient-3" x1="1209.1" y1="3042.83" x2="1592.32" y2="2082.3" xlink:href="#linear-gradient-2"/><linearGradient id="linear-gradient-4" x1="1224.81" y1="1944.68" x2="2269.95" y2="2984.84" xlink:href="#linear-gradient-2"/><linearGradient id="linear-gradient-5" x1="-1048.1" y1="-134.4" x2="-1613.29" y2="-956.49" gradientTransform="translate(1676.14 1504.56) rotate(40.25)" xlink:href="#linear-gradient-2"/><linearGradient id="linear-gradient-6" x1="1904.17" y1="512.32" x2="1992.1" y2="721.35" gradientUnits="userSpaceOnUse"><stop offset="0" stop-color="#09005d"/><stop offset="1" stop-color="#1a0f91"/></linearGradient><linearGradient id="linear-gradient-7" x1="1910.63" y1="-384.05" x2="2079.85" y2="133.54" xlink:href="#linear-gradient-2"/><linearGradient id="linear-gradient-8" x1="2790.64" y1="74.53" x2="2516.34" y2="311.22" xlink:href="#linear-gradient-2"/><clipPath id="clip-path"><path class="cls-1" d="M2387.54,621.1c-3.9-4-12.41-19.29-19.7-58.91-7.05-38.28-10.93-87.94-10.93-139.83s3.88-101.54,10.93-139.83c7.29-39.62,15.8-54.94,19.7-58.91,3.91,4,12.42,19.29,19.71,58.91,7.05,38.29,62.67,88,62.67,139.83s-55.62,101.55-62.67,139.83C2400,601.81,2391.45,617.13,2387.54,621.1Z"/></clipPath><linearGradient id="linear-gradient-9" x1="2442.63" y1="351" x2="2309.9" y2="503.64" xlink:href="#linear-gradient-6"/><linearGradient id="linear-gradient-10" x1="1837.39" y1="333.3" x2="1943.57" y2="520.77" xlink:href="#linear-gradient-6"/><linearGradient id="linear-gradient-11" x1="253.42" y1="2722.48" x2="395.4" y2="2722.48" gradientUnits="userSpaceOnUse"><stop offset="0" stop-color="#53d8ff"/><stop offset="1" stop-color="#3840f7"/></linearGradient><linearGradient id="linear-gradient-12" x1="253.41" y1="2694.65" x2="391.39" y2="2694.65" xlink:href="#linear-gradient-6"/><linearGradient id="linear-gradient-13" x1="266.53" y1="2655.8" x2="306.52" y2="2655.8" gradientUnits="userSpaceOnUse"><stop offset="0" stop-color="#febbba"/><stop offset="1" stop-color="#ff928e"/></linearGradient><linearGradient id="linear-gradient-14" x1="0" y1="2757.69" x2="54.41" y2="2757.69" xlink:href="#linear-gradient-11"/><linearGradient id="linear-gradient-15" x1="0.4" y1="2703.54" x2="80.26" y2="2703.54" xlink:href="#linear-gradient-6"/><linearGradient id="linear-gradient-16" x1="41.91" y1="2634.95" x2="89.7" y2="2634.95" xlink:href="#linear-gradient-13"/><linearGradient id="linear-gradient-17" x1="428.51" y1="2119.16" x2="20.44" y2="2787.63" xlink:href="#linear-gradient-6"/><linearGradient id="linear-gradient-18" x1="318.94" y1="1256.42" x2="318.94" y2="1978.06" xlink:href="#linear-gradient-2"/><linearGradient id="linear-gradient-19" x1="699.33" y1="1628.17" x2="510.03" y2="1874.44" xlink:href="#linear-gradient-13"/><linearGradient id="linear-gradient-20" x1="710.48" y1="1060.44" x2="446.7" y2="1702.46" xlink:href="#linear-gradient-2"/><linearGradient id="linear-gradient-21" x1="277.38" y1="1787.34" x2="298.09" y2="1678.61" xlink:href="#linear-gradient-13"/><linearGradient id="linear-gradient-22" x1="333.42" y1="1587.86" x2="215.26" y2="1678.27" xlink:href="#linear-gradient-13"/><linearGradient id="linear-gradient-23" x1="250.24" y1="1516.27" x2="360.29" y2="1657.96" xlink:href="#linear-gradient-6"/><linearGradient id="linear-gradient-24" x1="318.76" y1="1568.7" x2="200.6" y2="1659.12" xlink:href="#linear-gradient-13"/><linearGradient id="linear-gradient-25" x1="388.04" y1="1864.58" x2="305.33" y2="1988.63" xlink:href="#linear-gradient-13"/><linearGradient id="linear-gradient-26" x1="-3739.95" y1="1912.03" x2="-3926.79" y2="1963.23" gradientTransform="matrix(-1, -0.05, -0.05, 1, -3397.91, -80.15)" xlink:href="#linear-gradient-6"/><linearGradient id="linear-gradient-27" x1="-3913.97" y1="1895.11" x2="-4045.76" y2="2034.41" gradientTransform="matrix(-1, 0, 0, 1, -3417.5, 0)" xlink:href="#linear-gradient-6"/></defs><title>bn_con10</title><g id="Illustration"><path class="cls-2" d="M2601.92,1838.42c-273.79,640-996.51,914.83-1562.77,868-154.61-12.79-465.69-38.54-708.59-268.24C-135.91,1997-64.07,1075,382.48,532.09,440,462.18,838-6.21,1458.3.06c454.13,4.59,772.88,261.13,811.64,293.09,49,40.37,157,136.31,254.28,288.51C2752.91,939.28,2773,1438.52,2601.92,1838.42Z"/><path class="cls-3" d="M1008,1245.85H342.67a41.71,41.71,0,0,1-41.25-35.52L223.94,694.69a20.19,20.19,0,0,1,20-23.2H1008Z"/><path class="cls-4" d="M743.51,1001.75H371.24a5.54,5.54,0,0,1-5.47-4.62l-12.95-76.64a5.55,5.55,0,0,1,5.47-6.47H720.86a5.55,5.55,0,0,1,5.47,4.62l21.32,77.67A4.29,4.29,0,0,1,743.51,1001.75Z"/><path class="cls-4" d="M768.21,1092.3a4.57,4.57,0,0,1-4.38,5.83H386.62a4.57,4.57,0,0,1-4.53-3.81l-10.56-63A4.55,4.55,0,0,1,376,1026H744.46a6.2,6.2,0,0,1,6,4.5Z"/><path class="cls-4" d="M719.8,891.31H354.68a9.08,9.08,0,0,1-8.94-7.45l-9.39-51.28a9.1,9.1,0,0,1,8.94-10.73H702.18a9.08,9.08,0,0,1,9,7.56l13.92,55.16A5.42,5.42,0,0,1,719.8,891.31Z"/><path class="cls-5" d="M1249.62,1977.6H584.33a41.7,41.7,0,0,1-41.25-35.51L465.6,1426.44a20.19,20.19,0,0,1,20-23.19h764.05Z"/><path class="cls-4" d="M939,1733.36H566.75a5.54,5.54,0,0,1-5.46-4.62l-12.95-76.63a5.55,5.55,0,0,1,5.47-6.47H916.38a5.54,5.54,0,0,1,5.47,4.62l21.32,77.67A4.3,4.3,0,0,1,939,1733.36Z"/><path class="cls-4" d="M963.73,1823.92a4.56,4.56,0,0,1-4.39,5.82H582.13a4.54,4.54,0,0,1-4.52-3.8L567,1763a4.56,4.56,0,0,1,4.5-5.31H940a6.23,6.23,0,0,1,6,4.5Z"/><path class="cls-4" d="M915.31,1622.93H550.2a9.09,9.09,0,0,1-8.94-7.46l-9.39-51.28a9.08,9.08,0,0,1,8.94-10.72H897.69a9.08,9.08,0,0,1,9,7.56l13.92,55.15A5.43,5.43,0,0,1,915.31,1622.93Z"/><path class="cls-6" d="M1455.91,2709.36H799.44a52,52,0,0,1-51.39-44.24L673.81,2171a31.35,31.35,0,0,1,31-36h751.1Z"/><path class="cls-4" d="M1155.12,2463.94H782.85a5.54,5.54,0,0,1-5.47-4.62l-12.94-76.64a5.53,5.53,0,0,1,5.46-6.46h362.58a5.54,5.54,0,0,1,5.46,4.62l21.33,77.66A4.3,4.3,0,0,1,1155.12,2463.94Z"/><path class="cls-4" d="M1179.82,2554.5a4.56,4.56,0,0,1-4.38,5.82H798.23a4.56,4.56,0,0,1-4.53-3.8l-10.56-63a4.55,4.55,0,0,1,4.49-5.31h368.44a6.2,6.2,0,0,1,6,4.5Z"/><path class="cls-4" d="M1131.41,2353.5H766.29a9.08,9.08,0,0,1-8.94-7.45L748,2294.77a9.09,9.09,0,0,1,8.94-10.72h356.89a9.09,9.09,0,0,1,9,7.56l13.91,55.15A5.42,5.42,0,0,1,1131.41,2353.5Z"/><path class="cls-7" d="M2091.52,2091.24c0,16.35-224.89,48.31-505.56,48.31s-498.5-35.64-498.5-52,215.19-25.93,495.86-25.93S2091.52,2074.89,2091.52,2091.24Z"/><path class="cls-5" d="M2301.22,1360.37c0,20.65-352.49,71.64-748.55,71.64s-667.58-49.74-667.58-70.4S1190.88,1326,1586.94,1326,2301.22,1339.71,2301.22,1360.37Z"/><path class="cls-8" d="M2043.25,2004.67c-314.45,35.17-620.89,33.8-920.09-.61a94.63,94.63,0,0,1-79.93-66.85l-168.77-564.8a8.64,8.64,0,0,1,10.63-10.8c226.09,63.27,1214.32,68.46,1409.17-.93a5.2,5.2,0,0,1,6.74,6.38L2131.68,1931A104.39,104.39,0,0,1,2043.25,2004.67Z"/><path class="cls-9" d="M1834.4,2736a1770.3,1770.3,0,0,1-503.38-.87,96.75,96.75,0,0,1-79-67.93l-170.22-569.68a7.83,7.83,0,0,1,8.75-10c318.5,50.94,699.71,48.35,987.83.74a10.26,10.26,0,0,1,11.47,13.09l-168,559.59A106.84,106.84,0,0,1,1834.4,2736Z"/><path class="cls-10" d="M2494.57,627.85c0,24.1-399.33,43.64-906.56,43.64S681.51,652,681.51,627.85s399.27-43.63,906.5-43.63S2494.57,603.75,2494.57,627.85Z"/><path class="cls-8" d="M1055.57,724a296.68,296.68,0,0,0,174.14,14c111-24.48,193.76-107.9,222.68-210.12L1165.52,447Z"/><path class="cls-5" d="M1452.39,527.9a296.56,296.56,0,0,0,4.16-145.1,299.89,299.89,0,0,0-18.87-57.39L1165.52,447Z"/><path class="cls-8" d="M1437.68,325.41a297.84,297.84,0,0,0-135.16-143.08L1165.52,447Z"/><path class="cls-11" d="M1140.12,452.59,962.05,213.53c-91.06,67.91-139,185.12-113,303.25,22.12,100.28,92.35,177.53,181.08,212.84Z"/><path class="cls-5" d="M1302.52,182.33a298.19,298.19,0,0,0-84.38-28.75C1200.52,265.52,1165.52,447,1165.52,447Z"/><path class="cls-5" d="M1218.14,153.58a298.83,298.83,0,0,0-230.69,54.35L1165.52,447S1200.52,265.52,1218.14,153.58Z"/><path class="cls-12" d="M1848.49,504.46s70.75,186.6,93.11,225.41c26,45.06,101.73,16.35,98-21.36s-92.31-193.58-92.31-193.58Z"/><polygon class="cls-13" points="1944.09 368.53 2383.85 216.06 2379.23 628.67 1932.07 528.9 1944.09 368.53"/><ellipse class="cls-5" cx="2384.26" cy="423.56" rx="43.2" ry="212.04"/><path class="cls-14" d="M2387.54,621.1c-3.9-4-12.41-19.29-19.7-58.91-7.05-38.28-10.93-87.94-10.93-139.83s3.88-101.54,10.93-139.83c7.29-39.62,15.8-54.94,19.7-58.91,3.91,4,12.42,19.29,19.71,58.91,7.05,38.29,10.93,88,10.93,139.83s-3.88,101.55-10.93,139.83C2400,601.81,2391.45,617.13,2387.54,621.1Z"/><g class="cls-15"><path class="cls-16" d="M2442.92,420.78c0,36-19.41,65.24-57.82,65.24s-69.56-29.21-69.56-65.24,31.14-65.23,69.56-65.23S2442.92,384.76,2442.92,420.78Z"/></g><path class="cls-17" d="M1873.17,359.66c20.68-2.4,50.35-3.27,82.42,4.08-10.57,55.2-9,112.73,3.25,172.31h-90.46a29.32,29.32,0,0,1-29-24.73c-4.5-28.55-10-76.55-4.14-115.1A43.39,43.39,0,0,1,1873.17,359.66Z"/><path class="cls-8" d="M1927.46,401.94H1857a6.43,6.43,0,0,1-5.4-9.92,1.81,1.81,0,1,1,3,2,2.8,2.8,0,0,0,2.36,4.32h70.48a2.81,2.81,0,0,0,2.8-2.8v-5a2.81,2.81,0,0,0-2.8-2.8h-71a1.82,1.82,0,0,1,0-3.63h71a6.44,6.44,0,0,1,6.43,6.43v5A6.44,6.44,0,0,1,1927.46,401.94Z"/><path class="cls-8" d="M1921.17,433.15h-70.48a6.43,6.43,0,0,1-5.4-9.92,1.82,1.82,0,0,1,3,2,2.81,2.81,0,0,0,2.35,4.33h70.48a2.81,2.81,0,0,0,2.81-2.81v-5a2.8,2.8,0,0,0-2.81-2.8h-71a1.82,1.82,0,0,1,0-3.63h71a6.43,6.43,0,0,1,6.43,6.43v5A6.43,6.43,0,0,1,1921.17,433.15Z"/><path class="cls-8" d="M2008,357.36a1.81,1.81,0,0,1-.55-3.54l333.07-106a1.82,1.82,0,0,1,1.1,3.46l-333.07,106A2.09,2.09,0,0,1,2008,357.36Z"/><path class="cls-8" d="M1963,375.77a1.81,1.81,0,0,1-.68-3.49l17.14-7a1.81,1.81,0,0,1,1.37,3.35l-17.14,7A1.87,1.87,0,0,1,1963,375.77Z"/><path class="cls-8" d="M1927.46,469.71H1857a6.43,6.43,0,0,1-5.4-9.92,1.81,1.81,0,1,1,3,2,2.8,2.8,0,0,0,2.36,4.32h70.48a2.8,2.8,0,0,0,2.8-2.8v-5a2.81,2.81,0,0,0-2.8-2.81h-71a1.81,1.81,0,1,1,0-3.62h71a6.44,6.44,0,0,1,6.43,6.43v5A6.44,6.44,0,0,1,1927.46,469.71Z"/><path class="cls-8" d="M1934.06,510.29h-70.49a6.43,6.43,0,0,1-5.39-9.92,1.81,1.81,0,1,1,3,2,2.8,2.8,0,0,0,2.35,4.32h70.49a2.8,2.8,0,0,0,2.8-2.8v-5a2.81,2.81,0,0,0-2.8-2.8h-71a1.81,1.81,0,1,1,0-3.62h71a6.44,6.44,0,0,1,6.43,6.42v5A6.44,6.44,0,0,1,1934.06,510.29Z"/><path class="cls-8" d="M1997,730.91a46.31,46.31,0,0,1-9.81-1.06,45.33,45.33,0,0,1-32-25.93l-56.32-125.1a1.81,1.81,0,0,1,3.31-1.49l56.31,125.11A41.81,41.81,0,0,0,1988,726.31a40.9,40.9,0,0,0,36-9.21c.53-.46,1.07-.94,1.6-1.43a1.81,1.81,0,1,1,2.45,2.67c-.56.51-1.11,1-1.66,1.49A44.33,44.33,0,0,1,1997,730.91Z"/><path class="cls-8" d="M1892.21,561.39a1.81,1.81,0,0,1-1.65-1.07l-6.28-14a1.81,1.81,0,1,1,3.3-1.49l6.28,14a1.8,1.8,0,0,1-.91,2.39A1.76,1.76,0,0,1,1892.21,561.39Z"/><path class="cls-8" d="M2432.62,418.91a1.8,1.8,0,0,1-1.8-1.69c-1.26-17.65-7.37-30.81-18.19-39.12-18.7-14.36-45.39-9.42-45.66-9.37a1.81,1.81,0,1,1-.68-3.56c1.16-.22,28.57-5.28,48.55,10.06,11.67,9,18.26,23,19.59,41.73a1.81,1.81,0,0,1-1.68,1.94Z"/><path class="cls-5" d="M1701,551.56c.67-3.12-1.66-6.69-6.3-10.38,6.67-1.45,10.85-3.89,11.58-7.29,2.19-10.29-28-25.43-67.33-33.81s-73.06-6.83-75.25,3.46c-.67,3.12,1.66,6.69,6.3,10.38-6.67,1.45-10.85,3.89-11.58,7.29-.66,3.12,1.66,6.69,6.3,10.38-6.67,1.45-10.85,3.89-11.57,7.29-.67,3.12,1.66,6.69,6.3,10.37-6.68,1.45-10.86,3.89-11.58,7.29-1,4.56,4.39,10.05,14.08,15.5a91.06,91.06,0,0,0-3,10.93c-4,19,12.46,39.71,40,47.94s57.31-4.45,63.12-22.95a96.93,96.93,0,0,0,3.08-12.28c14.5-.46,24.13-3.44,25.27-8.78.66-3.13-1.66-6.69-6.3-10.38,6.67-1.45,10.85-3.89,11.58-7.29.66-3.12-1.67-6.69-6.31-10.38C1696.14,557.4,1700.32,555,1701,551.56Z"/><path class="cls-8" d="M1594,586a173.57,173.57,0,0,1-29.76-11.6,1,1,0,0,1,.89-1.71c12.74,6.62,30.61,12.57,50.32,16.77,16.14,3.43,31.63,5.29,44.8,5.38a1,1,0,1,1,0,1.92c-13.3-.08-28.93-2-45.19-5.41C1607.71,589.74,1600.64,587.94,1594,586Z"/><path class="cls-8" d="M1599.45,568.32c-14.84-4.43-27.68-9.78-36.23-15.24a1,1,0,0,1,1-1.63c12.19,7.78,33.3,15.36,56.46,20.29,22.91,4.88,45.13,6.57,59.43,4.53a1,1,0,1,1,.28,1.9c-14.52,2.08-37,.38-60.11-4.54C1613.09,572.09,1606.07,570.3,1599.45,568.32Z"/><path class="cls-8" d="M1604.53,550.61c-16-4.78-29.54-10.61-38-16.54a1,1,0,0,1,1.1-1.58c11.84,8.25,33.67,16.32,58.41,21.59,22.9,4.87,45.12,6.56,59.43,4.52a1,1,0,0,1,1.09.82,1,1,0,0,1-.82,1.09c-14.52,2.07-37,.37-60.11-4.55C1618.26,554.4,1611.18,552.59,1604.53,550.61Z"/><path class="cls-8" d="M1609.93,533c-12.7-3.79-24-8.27-32.34-13a1,1,0,0,1,.94-1.69c12.61,7,31.83,13.63,52.73,18.08,22.7,4.83,44.8,6.54,59.11,4.57a1,1,0,1,1,.26,1.9c-14.51,2-36.86.29-59.77-4.59C1623.62,536.75,1616.58,535,1609.93,533Z"/><path class="cls-3" d="M1562.64,413.09a135.52,135.52,0,0,0-9.71-52.41c-14.27-35.68-34.09-105.49-14.78-186.93,28.1-118.46,148.79-145.92,240.68-109.86s163.93,134,121.4,239.31c-26.18,64.8-78.59,104.22-115,125a160.92,160.92,0,0,0-56.63,54.56c-17.33,27.61-48.37,59.2-96.21,47.4C1570.44,514.86,1562.08,450.41,1562.64,413.09Z"/><path class="cls-10" d="M1654.87,511.56l97-204.65c2-4.23,5.07-6.55,6.86-5.19s1.6,5.89-.41,10.12l-.17.36-101,201.28c-.76,1.51-1.87,2.28-2.48,1.71S1654.17,513,1654.87,511.56Z"/><path class="cls-10" d="M1620.13,503,1651.2,278.7c.64-4.64-.65-8.27-2.88-8.11s-4.57,4.05-5.21,8.69c0,.12,0,.27,0,.4l-25.9,223.71c-.19,1.68.32,2.94,1.14,2.8S1619.9,504.65,1620.13,503Z"/><path class="cls-4" d="M1757.16,288.42a3.61,3.61,0,0,0-4-2.41l-20.93,3.09-1-20.06a4,4,0,0,0-1.56-2.91,4.72,4.72,0,0,0-6.16.05l0,.05-23.32,23-2.31-43.38v-.07a4.63,4.63,0,0,0-1.4-3,5.74,5.74,0,0,0-7.34-.71l-29.8,22.76a2.66,2.66,0,0,0-.35,3.89,3.69,3.69,0,0,0,4.64.85l24.78-15.18,5.6,42.28v0a3.08,3.08,0,0,0,1,1.88,3.66,3.66,0,0,0,4.72.18l23.89-21.1,2.16,14.92,0,.14a2.06,2.06,0,0,0,.07.32,3.6,3.6,0,0,0,4,2.42l24.84-3.68A2.7,2.7,0,0,0,1757.16,288.42Z"/><path class="cls-4" d="M1793.65,402.45a6.09,6.09,0,0,1-3.17-2.22,6.17,6.17,0,0,1,1.24-8.63,252.88,252.88,0,0,0,22.08-18.53,6.16,6.16,0,1,1,8.47,9,263,263,0,0,1-23.16,19.45A6.14,6.14,0,0,1,1793.65,402.45Z"/><path class="cls-4" d="M1834.68,364a6.17,6.17,0,0,1-3-9.88c58.3-69.24,48.47-144.78,48.37-145.54a6.16,6.16,0,0,1,12.21-1.71c.46,3.3,10.67,81.79-51.14,155.19A6.17,6.17,0,0,1,1834.68,364Z"/><circle class="cls-8" cx="2014.09" cy="166.38" r="143.87"/><path class="cls-18" d="M2014.09,256.6a90.22,90.22,0,1,1,90.22-90.22A90.32,90.32,0,0,1,2014.09,256.6Zm0-165.32a75.1,75.1,0,1,0,75.11,75.1A75.19,75.19,0,0,0,2014.09,91.28Z"/><path class="cls-19" d="M1985.83,201.12V136.26a8.94,8.94,0,0,1,13.5-7.69L2054,161a8.94,8.94,0,0,1,0,15.38l-54.66,32.43A8.94,8.94,0,0,1,1985.83,201.12Z"/><circle class="cls-8" cx="646.54" cy="383.65" r="151.18"/><path class="cls-18" d="M646.54,489.27A25.23,25.23,0,0,1,624.78,477C598.6,433.76,567.4,376.81,567.4,351.05c0-40.26,35.5-73,79.14-73s79.13,32.76,79.13,73c0,25.76-31.2,82.71-57.37,126A25.23,25.23,0,0,1,646.54,489.27Zm0-201c-38,0-68.95,28.18-68.95,62.83,0,18,20.38,62,55.9,120.68a15.25,15.25,0,0,0,26.09,0c35.53-58.69,55.9-102.68,55.9-120.68C715.48,316.4,684.56,288.22,646.54,288.22Z"/><path class="cls-18" d="M640.41,402A49.13,49.13,0,0,1,591.33,353a5.1,5.1,0,1,1,10.19,0,38.89,38.89,0,1,0,7.7-23.23,5.1,5.1,0,1,1-8.17-6.09A49.08,49.08,0,1,1,640.41,402Z"/><path class="cls-20" d="M2208.8,1272.38c-416.33,27.12-841.05,25.27-1273.25-2.43a118.14,118.14,0,0,1-106-85.49L674.8,643a12.91,12.91,0,0,1,13.66-16.39c588.16,56.57,1188.06,55.08,1799-.1A13,13,0,0,1,2501.15,643l-148.48,513.64A160.67,160.67,0,0,1,2208.8,1272.38Z"/><circle class="cls-10" cx="2011.81" cy="2042.06" r="210.24" transform="translate(-854.71 2020.67) rotate(-45)"/><circle class="cls-3" cx="2011.81" cy="2042.06" r="203.25" transform="translate(-854.71 2020.67) rotate(-45)"/><path class="cls-4" d="M1844.21,1962.29a4.66,4.66,0,0,1-4.16-6.76,191.47,191.47,0,0,1,171.76-105.76,194,194,0,0,1,34.68,3.12,4.67,4.67,0,1,1-1.67,9.18,184.63,184.63,0,0,0-33-3,182.19,182.19,0,0,0-163.43,100.63A4.66,4.66,0,0,1,1844.21,1962.29Z"/><circle class="cls-21" cx="2016.24" cy="2046.49" r="172.03" transform="translate(-856.54 2025.1) rotate(-45)"/><path class="cls-3" d="M1999.36,2174.37v-18.71c-19.51-.78-38.81-5.39-52.52-11.39a10.82,10.82,0,0,1-6-12.79l4.75-17.43a10.92,10.92,0,0,1,14.82-7.14c13.59,5.7,30.38,10.21,48.48,10.21,18.79,0,32.81-6.37,32.81-19.43,0-11.79-10.83-18.79-37-25.8-37.26-10.19-64-26.44-64-59.24,0-29.62,21.66-52.24,59.25-58.29v-18.72a10.9,10.9,0,0,1,10.9-10.9h11a10.9,10.9,0,0,1,10.9,10.9v16.81c18,.72,31.2,3.81,41.63,7.47a10.86,10.86,0,0,1,6.78,13.1l-4.38,16.13a10.87,10.87,0,0,1-14.35,7.34,113.58,113.58,0,0,0-40.83-7.41c-22.29,0-28.66,9.23-28.66,17.52,0,10.19,13.37,17.19,42.36,26.11,41.41,12.43,58.6,29.62,58.6,60.52,0,28.35-21,53.83-61.79,60.2v20.94a10.9,10.9,0,0,1-10.9,10.91h-11A10.9,10.9,0,0,1,1999.36,2174.37Z"/><rect class="cls-3" x="1805.83" y="2306.81" width="411.95" height="78.47" rx="3.63"/><rect class="cls-3" x="1806.16" y="2399.99" width="411.95" height="78.47" rx="3.63"/><rect class="cls-3" x="1806.48" y="2493.17" width="411.95" height="78.47" rx="3.63"/><rect class="cls-3" x="1806.8" y="2586.35" width="411.95" height="78.47" rx="3.63"/><rect class="cls-3" x="1807.13" y="2679.53" width="411.95" height="78.47" rx="3.63"/><circle class="cls-10" cx="2472.09" cy="2136.04" r="210.24" transform="translate(-786.35 2373.66) rotate(-45)"/><circle class="cls-3" cx="2472.09" cy="2136.04" r="203.25" transform="translate(-786.35 2373.66) rotate(-45)"/><path class="cls-4" d="M2304.49,2056.27a4.66,4.66,0,0,1-4.16-6.76,191.47,191.47,0,0,1,171.76-105.75,193.81,193.81,0,0,1,34.68,3.12,4.66,4.66,0,1,1-1.67,9.17,184.55,184.55,0,0,0-33-3,182.21,182.21,0,0,0-163.44,100.63A4.65,4.65,0,0,1,2304.49,2056.27Z"/><circle class="cls-21" cx="2476.52" cy="2140.47" r="172.03" transform="translate(-788.19 2378.09) rotate(-45)"/><path class="cls-3" d="M2459.63,2268.36v-18.72c-19.51-.78-38.8-5.39-52.51-11.39a10.81,10.81,0,0,1-6-12.78l4.75-17.44a10.92,10.92,0,0,1,14.81-7.14c13.6,5.7,30.39,10.21,48.49,10.21,18.79,0,32.81-6.37,32.81-19.43,0-11.78-10.83-18.79-36.95-25.8-37.26-10.19-64-26.43-64-59.24,0-29.62,21.66-52.24,59.24-58.29v-18.71a10.9,10.9,0,0,1,10.91-10.91h11a10.9,10.9,0,0,1,10.91,10.91v16.8c18.05.72,31.19,3.81,41.62,7.48a10.83,10.83,0,0,1,6.78,13.1l-4.37,16.12a10.88,10.88,0,0,1-14.36,7.34,113.52,113.52,0,0,0-40.82-7.41c-22.3,0-28.66,9.24-28.66,17.52,0,10.19,13.37,17.2,42.36,26.12,41.4,12.42,58.6,29.62,58.6,60.51,0,28.35-21,53.83-61.79,60.2v21a10.9,10.9,0,0,1-10.9,10.9h-11A10.91,10.91,0,0,1,2459.63,2268.36Z"/><rect class="cls-3" x="2266.11" y="2400.79" width="411.95" height="78.47" rx="3.63"/><rect class="cls-3" x="2266.43" y="2493.97" width="411.95" height="78.47" rx="3.63"/><rect class="cls-3" x="2266.76" y="2587.15" width="411.95" height="78.47" rx="3.63"/><rect class="cls-3" x="2267.08" y="2680.34" width="411.95" height="78.47" rx="3.63"/><path class="cls-22" d="M391.39,2715.61c-24.32,2.11-66.53,5.52-99.81,7-20,.88-31.53-1.08-38.16-3.74,0,.75,0,1.46.06,2.11a6.88,6.88,0,0,0,6.54,6.5,1170.77,1170.77,0,0,0,130.7.14,4.91,4.91,0,0,0,4-7.37A41,41,0,0,0,391.39,2715.61Z"/><path class="cls-23" d="M291.58,2722.6c33.28-1.47,75.49-4.88,99.81-7-23.91-29.34-99.81-49.11-99.81-49.11H270.14c-14.75,21.25-16.88,41.49-16.72,52.36C260.05,2721.52,271.57,2723.48,291.58,2722.6Z"/><path class="cls-24" d="M266.53,2631.5l2,39.7a9.06,9.06,0,0,0,7.74,8.53,35.23,35.23,0,0,0,16.1-1.34,10.72,10.72,0,0,0,7.21-8.24l6.93-38.65Z"/><path class="cls-25" d="M17.72,2761.41c-10.55-1.9-15.32-9-17.32-16.55l0,.2a18.86,18.86,0,0,0,9.23,20.2c8.7,4.76,18.2,5.57,25.58,5.18A23.66,23.66,0,0,0,54.35,2759l.06-.1C46.46,2764,35.31,2764.58,17.72,2761.41Z"/><path class="cls-26" d="M67.45,2643.73H49.77C22.84,2643,5.93,2716.43.4,2744.86c2,7.57,6.77,14.65,17.32,16.55,17.59,3.17,28.74,2.57,36.69-2.51,14.55-24.74,21.76-61,25.23-82.13C83.58,2652.72,67.45,2643.73,67.45,2643.73Z"/><path class="cls-27" d="M52,2606.89l-9.81,39a10.58,10.58,0,0,0,5.51,12c5.49,2.82,13.22,5.78,20.33,4.92a8.84,8.84,0,0,0,7.22-5.9l14.41-41.08Z"/><path class="cls-28" d="M397.38,2092.63S309.65,2641,311.1,2644c0,0-24.23,11-50.65,1.41,0,0,7.94-293.15,26.53-405.56,0,0-149.73,262-197.28,392.58,0,0-24.79-2.95-45.32-16.46,0,0,161.21-471.63,204.22-534.45Z"/><path class="cls-29" d="M290.48,2237a2.54,2.54,0,0,1-1.37-.4,2.59,2.59,0,0,1-.83-3.57l32.79-52.36a2.62,2.62,0,0,1,1.68-1.17l24.13-4.85a2.59,2.59,0,1,1,1,5.08l-23,4.63-32.19,51.42A2.59,2.59,0,0,1,290.48,2237Z"/><path class="cls-30" d="M800,1555.64s-59.2,13.06-95.2,29.69a32.84,32.84,0,0,0-16.11,16.19c-10.77,23.59-43,82.74-105.47,111,9,11.94,23.49,36.78,29.8,78.54,37.53-27.93,69.93-74.58,85.48-151.08,0,0,11.84,6.44,26.62-.74,7.81-3.79,16.82-9.17,23.59-13.4a30.89,30.89,0,0,0,13.71-18.41c2.57-10.1,1.06-19,1.06-28.52l30.43-9.43S803,1566,800,1555.64Z"/><path class="cls-31" d="M613,1791c-6.31-41.76-20.8-66.6-29.8-78.54-38.81,17.53-89.3,23.14-153.6.86a68.11,68.11,0,0,0-18.37-3.62c-34.23-2-147-5.67-240.35,25.16a72.52,72.52,0,0,0-43.76,39.83c-25.24,57.94-66.12,189.88,47.36,256.5a281.3,281.3,0,0,1,27.38-51.83c-18.27-30.82-23.69-72.92,8.74-127.74,23.65,63.85,34.74,157,37.06,198.24a88.59,88.59,0,0,1-7,39.65l-.58,1.37a4.7,4.7,0,0,0,3.3,6.41c63.88,14.35,130.32,10.45,150.17,8.81a8.18,8.18,0,0,0,7.3-6.26C432,1969,432,1879.7,424.42,1823.26,453.48,1829.76,542.34,1843.61,613,1791Z"/><path class="cls-32" d="M424.55,1826.78a2.6,2.6,0,0,1-2.57-2.25c-7.29-55.11-22.15-79.16-22.3-79.4a2.59,2.59,0,0,1,4.38-2.77c.63,1,15.59,25.08,23.06,81.49a2.59,2.59,0,0,1-2.23,2.91Z"/><path class="cls-33" d="M266.9,1633.48s-6.46,68.33-12.15,88.54a6.9,6.9,0,0,0,3.25,7.89c9.66,5.52,32.82,14.52,64.5-1a14.35,14.35,0,0,0,8-13.53l-2.79-66Z"/><path class="cls-34" d="M329.08,1546.06s20.67,47.49,22.06,72.41,6.76,41.09-22.06,46.11-53.09-9.34-66.24-34.16c0,0-20.6-38.25-16-53.92S329.08,1546.06,329.08,1546.06Z"/><path class="cls-35" d="M272.69,1612.57l1.64-.72a4,4,0,0,0,1.93-5.44c-4.06-7.85-12-25.84-1.75-30,13.19-5.41,65.43-16.06,76.7-34.6C362,1524,352.45,1501,338,1494.42a2,2,0,0,0-2.6.85l-1.2,2.27a2,2,0,0,1-3.61-.37,2,2,0,0,0-3.53-.5c-3.46,5.54-12.82,14.53-37.83,19.15-35.55,6.56-59.05,21-59.64,45.51a2,2,0,0,1-3,1.62c-2.62-1.6-6.82-2.35-12.44,2.37-9.76,8.21-5.77,29.5,15.64,47a1.94,1.94,0,0,1-.1,3.13C225.8,1618,220,1624,235,1632c15.5,8.29,27.08,7.61,31.53,6.87a1.94,1.94,0,0,0,1.58-2.35L263.37,1615a2,2,0,0,1,1.91-2.38Z"/><path class="cls-36" d="M273.58,1617.12s-7.88-30.33-21.48-21.82,7.06,34,18,35.12Z"/><path class="cls-3" d="M714.26,1632.89a2.59,2.59,0,0,1-2-4.22c2.24-2.76,22.11-27.05,29.76-31.37,2.78-1.57,4.44-3.2,4.8-4.7a3.86,3.86,0,0,0-.35-2.44l-23.34,4.68-13.23,11.35a2.59,2.59,0,1,1-3.37-3.93l13.74-11.79a2.58,2.58,0,0,1,1.17-.58l25.84-5.18a2.59,2.59,0,0,1,2.66,1.1c1.9,2.81,2.53,5.42,1.92,8-.71,3-3.1,5.65-7.29,8-5.76,3.25-22.37,22.85-28.29,30.13A2.58,2.58,0,0,1,714.26,1632.89Z"/><path class="cls-37" d="M272.58,2064.06l91.37,1.13-32-30.1a23.86,23.86,0,0,0-29.25-2.74,69,69,0,0,0-16.25,14.47s-57-20.83-84.62-67.43a281.3,281.3,0,0,0-27.38,51.83C199.23,2045.76,231.34,2057.19,272.58,2064.06Z"/><path class="cls-38" d="M282.43,2075.84H283l231.92-.25a10.27,10.27,0,1,0,0-20.54l-231.91.25a10.27,10.27,0,0,0-.51,20.53Z"/><path class="cls-39" d="M723.36,1867.5H530.22a36.85,36.85,0,0,0-33.3,20.88l-89.29,187.34h240a22.36,22.36,0,0,0,20.8-14l69.25-173.35A15.28,15.28,0,0,0,723.36,1867.5Z"/><ellipse class="cls-5" cx="601.77" cy="1968.16" rx="24.5" ry="15.2" transform="translate(-1455.85 1923.59) rotate(-71.76)"/></g></svg>