<?xml version="1.0" encoding="utf-8"?>
<!-- Generator: Adobe Illustrator 24.0.1, SVG Export Plug-In . SVG Version: 6.00 Build 0)  -->
<svg version="1.1" id="Layer_1" xmlns="http://www.w3.org/2000/svg" xmlns:xlink="http://www.w3.org/1999/xlink" x="0px" y="0px"
	 viewBox="0 0 614.6 382.7" style="enable-background:new 0 0 614.6 382.7;" xml:space="preserve">
<style type="text/css">
	.st0{fill:#BDCAE0;}
	.st1{fill:#CDDCF4;}
	.st2{fill:#B0BDD1;}
	.st3{fill:#DBE9FF;}
	.st4{fill:#F6A397;}
	.st5{fill:#D65863;}
	.st6{fill:#6EC0E6;}
	.st7{fill:#348399;}
	.st8{fill:#314EC6;}
	.st9{fill:#504984;}
	.st10{fill:#372D5B;}
	.st11{fill:#BA6454;}
	.st12{fill:#874438;}
	.st13{fill:#FFFFFF;}
	.st14{fill:#3F1751;}
	.st15{fill:#BA5E5B;}
	.st16{fill:#FFA6A4;}
	.st17{fill:#D3458F;}
	.st18{fill:#282142;}
	.st19{fill:#7F74D1;}
	.st20{fill:#8E5058;}
	.st21{fill:#64364A;}
	.st22{clip-path:url(#SVGID_2_);}
	.st23{fill:#FFC5C7;}
	.st24{fill:#DCEDFF;}
	.st25{fill:#FE8A8B;}
	.st26{fill:#0C0835;}
	.st27{fill:#252384;}
	.st28{fill:#57AFF7;}
	.st29{fill:#C31F2A;}
	.st30{fill:#FB8384;}
	.st31{fill:#D1C8D9;}
	.st32{font-family:'ArialMT';}
	.st33{font-size:20.46px;}
</style>
<title>bn_con4</title>
<g id="OBJECTS">
	<path class="st0" d="M604,312.9c-26,39.5-70.6,62.6-117.9,62.6H93.8c-78.8,0-123.1-92.2-71.9-144.1s6-96.2,84.8-137.9
		c76.4-40.3,102.5,45.6,172.9-10.6S452.5,32.1,475,89.4s17.2,77.5,65,90.2s94.4,84.9,65.8,130.5C605.2,311.1,604.6,312,604,312.9z"
		/>
	<path class="st1" d="M586.5,328.9c-41.3,3.5-69.2,81-172.5,34.4c0,0,11.4-33.8,62.2-54.9S586.5,328.9,586.5,328.9z"/>
	<path class="st2" d="M428.2,357.5c10.8-5.6,22-10.5,33.4-14.6c2.8-1.1,5.7-2.1,8.6-3s5.8-1.9,8.7-2.8s5.9-1.7,8.8-2.5
		c1.5-0.4,2.9-0.8,4.4-1.2l4.5-1.1l4.5-1l4.5-0.9l4.5-0.9c1.5-0.3,3-0.5,4.5-0.7c3-0.4,6-1,9.1-1.2s6.1-0.8,9.1-0.9
		c12.2-1,24.4-0.6,36.5,1.4c-12.1-0.3-24.2,0.4-36.2,1.9l-2.2,0.3l-2.2,0.4l-4.5,0.6c-3,0.4-5.9,1-8.9,1.5c-1.5,0.3-3,0.5-4.5,0.8
		l-4.4,0.9l-4.4,0.9l-4.4,1l-4.4,1c-1.5,0.4-2.9,0.7-4.4,1.1l-4.4,1.1c-1.5,0.4-2.9,0.8-4.4,1.2c-2.9,0.8-5.8,1.6-8.7,2.5
		s-5.8,1.7-8.7,2.6C451.1,349.6,439.6,353.5,428.2,357.5z"/>
	<path class="st3" d="M591.6,197.1c-50.4,36-27.1,156.8-195.4,175.8c0,0-11.2-52.1,38-118S591.6,197.1,591.6,197.1z"/>
	<path class="st1" d="M407.4,358.4c7.4-15.9,16.3-31.1,26.6-45.3c10.2-14.4,21.6-27.9,34-40.3c12.4-12.6,25.9-23.9,40.5-33.9
		c14.5-9.9,30.2-18.5,46.9-23.8c-15.3,8.2-29.9,17.7-43.5,28.4c-13.6,10.7-26.5,22.2-38.6,34.5c-12.2,12.3-23.7,25.2-34.6,38.6
		C427.6,330,417.4,344,407.4,358.4z"/>
	<path class="st1" d="M47.7,318.2c41,6.4,63.3,85.6,169.6,46.5c0,0-8.9-34.5-58.1-59.1S47.7,318.2,47.7,318.2z"/>
	<path class="st2" d="M203.6,357.9c-11.2-4.8-22.3-9.6-33.5-14c-2.8-1.1-5.6-2.1-8.5-3.2s-5.7-2.1-8.5-3.1c-1.4-0.5-2.8-1-4.3-1.5
		l-4.3-1.4c-1.4-0.5-2.9-1-4.3-1.4l-4.3-1.3l-4.3-1.4l-4.4-1.2l-4.4-1.2c-1.4-0.4-2.9-0.7-4.4-1.1c-2.9-0.8-5.8-1.5-8.8-2.1l-4.4-1
		l-2.2-0.5l-2.2-0.4c-11.9-2.4-23.9-3.8-35.9-4.4c12.2-1.1,24.4-0.6,36.5,1.2c3,0.3,6,1,9,1.5s6,1.2,9,1.9c1.5,0.3,3,0.7,4.4,1.1
		l4.4,1.2l4.4,1.2l4.4,1.3l4.4,1.4c1.4,0.5,2.9,1,4.3,1.5c2.9,1,5.8,2,8.6,3.1s5.7,2.2,8.5,3.4s5.6,2.3,8.4,3.6
		C182.5,345.8,193.3,351.5,203.6,357.9z"/>
	<path class="st3" d="M74.9,191.6c45.4,37.6,15.2,150.5,173.5,179.8c0,0,14.1-48.7-28.1-114.4S74.9,191.6,74.9,191.6z"/>
	<path class="st1" d="M238.8,356.9c-8.5-14.3-17.4-28.3-26.8-41.7s-19.5-26.5-30.3-38.9c-10.7-12.4-22.2-24.2-34.3-35.3
		c-12.2-11.1-25.3-21.2-39.3-30c15.5,6.1,29.9,15.2,43,25.6c13.1,10.5,25.2,22.1,36.2,34.9c10.9,12.7,20.8,26.2,29.5,40.6
		C225.5,326.2,232.9,341.3,238.8,356.9z"/>
	<path class="st4" d="M341.9,296.8c-5.7,6.8-10.8,17.9-14,19.7s-8.6,2.4-13.7,18.8s20.6,14.1,20.6,14.1s11-6.3,15.4-21.6l11-9.8
		L341.9,296.8z"/>
	<path class="st5" d="M322,347.6c5.8-2.2,11.1-5.7,15.4-10.2c7.1-7.5,8-20.8,8-20.8l3.4,6.3l6.8-7.3l3.3-0.3l2.4,2.7l-11,9.8
		c-4.4,15.3-15.4,21.6-15.4,21.6c-4.4,0.3-8.8-0.1-13.1-1.2C321.9,347.9,322,347.6,322,347.6z"/>
	<path class="st6" d="M380.5,238c-7.9,5.8-12.6,9.9-16.5,17.8s-28.5,36-30,38.5s13.8,29.1,26.1,35.7c0,0,18.6-21.4,29.3-29.5
		s7-36.8,2.1-46.5C388.5,248.2,384.8,242.9,380.5,238z"/>
	<path class="st7" d="M380.2,289.9v-16c0,0,2.1-0.8,3.7,4.6c0.6,2.1,0.7,4.3,0.3,6.4l12-9c0.5,10.1-1.1,20.3-6.9,24.6
		c-10.7,8.1-29.3,29.5-29.3,29.5c-3.7-2.2-7-5-9.8-8.3C357.8,314.1,372.2,299.6,380.2,289.9z"/>
	<path class="st4" d="M303.8,343.1c-2,0.6-3.5,1.6-3.5,4.2s0.4,6.7,1.4,8.3s6,2.6,6,2.6s-0.3-10.6-1.4-12.6
		C305.8,344.4,304.9,343.6,303.8,343.1z"/>
	<path class="st5" d="M301.7,355.5c-0.3-0.6-0.6-1.2-0.7-1.9c0.7,0.8,1.7,1.3,2.8,1.2l3.8,1.2c0.1,1.2,0.1,2,0.1,2
		S302.7,357.1,301.7,355.5z"/>
	<path class="st4" d="M308.7,339.2c-2.5,0.3-5,2.1-5,4.7s-0.9,9.8,0,10.9s5.2,4.4,6.8,4.7s4.1-0.2,3.7-1S308.7,339.2,308.7,339.2z"
		/>
	<path class="st5" d="M303.4,352.9c1.9,2.1,6.7,1.9,6.7,1.9c0.9,0.9,1.7,1.9,2.4,3c0.2,0.4,1,1,1.1,1.5c-1,0.3-2.1,0.4-3.1,0.3
		c-1.5-0.3-5.7-3.4-6.7-4.6L303.4,352.9L303.4,352.9z"/>
	<path class="st4" d="M318,335c-7.6,0.4-9,1.1-9.3,4.3s-0.1,12.2,0.9,14.5s1.5,4.4,2.8,5.6c0.9,0.8,2,1.2,3.1,1.3
		c0,0,4.2-6.1,4.4-11.3S318,335,318,335z"/>
	<path class="st5" d="M313.6,355.4c0.9-3.7,1.4-7.6,1.4-11.4c0-2.6,2.5,11.2,1.4,15c-0.5,0.9-0.9,1.5-0.9,1.5
		c-1.1,0-2.2-0.5-3.1-1.3c-1.3-1.2-1.8-3.3-2.8-5.6c-0.1-0.2-0.1-0.4-0.2-0.5C309.9,354.4,311.5,355.3,313.6,355.4z"/>
	<path class="st4" d="M334.7,350.6c-0.5,4.2-6,5.8-6.7,7.9s-0.2,4.1-1.3,4.6s-5.5-2-5.3-4.8c-0.8,1.5-2.1,2.5-3.7,2.8
		c-2.6,0.4-3.2-1.4-2.8-4.3c0.4-2.6,0.5-5.1,0.3-7.7c-0.1-3.4-0.9-6.5,0.6-10.2s3.5-7,7.6-6.4s6.6,5.8,8.8,7.5
		S335.3,345.9,334.7,350.6z"/>
	<path class="st5" d="M321.5,358.3c0.3-5.4,0.5-9.8,0.5-10.7s-0.3-6.6,1.8-6.9c0.3-0.1,4.8,2.8,4.9,4.7s0,5.4-1.4,6.3
		S321.5,358.3,321.5,358.3z"/>
	<path class="st6" d="M506.6,249.5c-8.1-10.3-10.9-11.3-19.2-16.2s-40-17.2-46.6-18.8s-32.9,10.7-41.5,14.6s-19.6,7.8-21.5,11.6
		c-6.3,12.8,6.1,30.9,6.2,68.8c0,19.9,4.6,64.6,4.6,64.6s99.5,0.2,100.9-1.9s4.8-73.5,6.6-88S506.6,249.5,506.6,249.5z"/>
	<path class="st8" d="M378.1,260.8c-0.7-2.4-1.2-4.8-1.6-7.3c-0.4-2.5-0.6-5-0.6-7.5c0.7,2.4,1.2,4.8,1.6,7.3
		C377.9,255.8,378.1,258.3,378.1,260.8z"/>
	<path class="st7" d="M415.3,245.8c-3.8-1.4-13,1.1-14.6,1.6s1-6.5,2-7.4s2.5-2.9,5.5-2s5.5,4.4,6,5.5
		C414.6,244.3,414.9,245.1,415.3,245.8z"/>
	<path class="st7" d="M447.4,251.8c-1.4-0.1-9.4-3.8-11.3-4.7s-10.6-1.3-16.4,0.3c0,0,11.2-7.6,17.8-7.5s9,2.4,9.5,4.5
		C447.3,246.8,447.4,249.3,447.4,251.8z"/>
	<path class="st7" d="M404.6,358.2c1.1-1,66,1,67.3-5.7s2.2-19.1,2.2-19.1c-7.8,4.2-19.2,2.4-19.2,2.4c7.6-2.5,18.5-14.9,19.1-18.6
		c1.6-11.3-4.4-42.3-4.4-42.3l4.4-8.9l5.2-2.9c6.7,3.6,12.9,8.3,18.1,13.8c-0.6,2.4-1,4.8-1.3,7.2c-1.6,13.8-4.8,78-6.3,87.1
		c-20.1,0.7-56.6,2.1-81,2.9c-11.8,0-20.1,0-20.1,0s-0.1-5.9-0.5-14.3C394.8,359.5,403.9,358.8,404.6,358.2z"/>
	<path class="st6" d="M417.8,247.7c7-0.9,18.3-6.9,22.7-4.8c4.4,2.1,5.5,7.4,6.4,8.4s4.8-3.6,4.8-14.9s0.3-22.7-7.9-24.3
		s-29.7,6.5-34,9.8c-3.4,2.4-5.9,5.8-7.3,9.7c-1.2,3.2-4.3,16-2.9,16.1s5.5-8.2,8.5-8.5S415.9,247.9,417.8,247.7z"/>
	<path class="st7" d="M413.8,237.6c-1.8-4.2-3.8-8-3.7-10.9s0.7-5,4-5.9s4.6,0.9,4.8,5.3S413.8,237.6,413.8,237.6z"/>
	<path class="st7" d="M439.4,229.7c6.8-6.2,7.6-13.1,7-14.5s-3.5-2.5-3.5-2.5s-1.1,4.5-0.5,5.6S439.4,229.7,439.4,229.7z"/>
	<path class="st8" d="M428.5,244.7c1.7-0.7,3.4-1.3,5.2-1.8c1.8-0.5,3.6-0.7,5.5-0.6c1,0,2,0.3,2.8,0.9c0.7,0.7,1.3,1.3,1.9,2
		c1.2,1.4,2.1,3,2.9,4.7c0.1,0.3,0.3,0.6,0.6,0.9c0,0,0,0,0.2-0.1c0.1-0.1,0.3-0.2,0.4-0.4c0.5-0.7,1-1.5,1.3-2.3
		c0.8-1.6,1.3-3.3,1.6-5.1c0.3-1.8,0.6-3.6,0.7-5.4c0.2-1.8,0.2-3.6,0.2-5.4c0.4,3.6,0.3,7.3-0.1,10.9c-0.2,1.9-0.7,3.7-1.5,5.4
		c-0.4,0.9-0.9,1.7-1.4,2.5c-0.2,0.2-0.4,0.4-0.6,0.6c-0.1,0.1-0.3,0.2-0.5,0.2c-0.2,0-0.4,0-0.6-0.1c-0.3-0.2-0.5-0.4-0.7-0.6
		c-0.1-0.2-0.3-0.4-0.4-0.6c-0.7-1.6-1.6-3.2-2.7-4.6c-0.6-0.7-1.1-1.4-1.8-2c-0.7-0.5-1.5-0.8-2.3-0.9c-1.8-0.1-3.6,0-5.3,0.4
		C432,243.7,430.3,244.1,428.5,244.7z"/>
	<path class="st8" d="M412.4,242.4c-0.7-0.7-1.5-1.3-2.3-1.9c-0.4-0.3-0.8-0.5-1.2-0.7c-0.2-0.1-0.4-0.1-0.6-0.2c-0.1,0-0.2,0-0.3,0
		c-0.1,0-0.1,0-0.2,0.1c-1.6,1.1-3,2.5-4.1,4.1c-0.6,0.8-1.1,1.7-1.7,2.5c-0.3,0.4-0.7,0.8-1.1,1.1c-0.3,0.2-0.6,0.4-0.9,0.4
		c-0.2,0-0.5-0.1-0.7-0.2c-0.1-0.1-0.2-0.3-0.3-0.5c-0.1-0.5-0.2-1.1-0.1-1.7c0.1-0.5,0.2-1,0.3-1.5c0.2-1,0.5-2,0.9-2.9
		c-0.1,1-0.3,2-0.4,3c-0.1,0.5-0.1,1-0.1,1.5c0,0.5,0,0.9,0.1,1.3c0,0.1,0.1,0.1,0.1,0.1h0c0.2-0.1,0.3-0.1,0.4-0.3
		c0.4-0.3,0.7-0.6,0.9-1c0.6-0.8,1.1-1.6,1.6-2.5c0.6-0.9,1.3-1.6,2-2.4c0.7-0.7,1.6-1.3,2.5-1.8c0.1-0.1,0.3-0.1,0.5-0.2
		c0.2,0,0.3,0,0.5,0c0.3,0.1,0.6,0.2,0.8,0.3c0.5,0.3,0.9,0.6,1.3,0.9C411.2,240.8,411.8,241.6,412.4,242.4z"/>
	<path class="st4" d="M412.8,212.1c0,2.8,0.1,5.5,0.4,8.3c0.7,6.7,0,15.6,0.5,17.3c0.6,1.8,4.1,8.4,4.1,8.4s6.3-2.9,8.9-6
		s6-3.3,10.6-7.9s7.7-12,6.7-18.1c-0.1-0.8-0.9-8.6-1.1-16.7s-8.7-14.2-16.8-14.2s-12.9,12-13.2,20.1
		C412.8,206.5,412.8,209.6,412.8,212.1z"/>
	<path class="st5" d="M442.9,197.3c0.2,8.1,1,15.9,1.1,16.7c0.3,2,0.3,4-0.2,5.9c-1.8,0.3-24.9,0.9-30.8-1.9c-0.1-2-0.2-3.9-0.2-5.9
		c0-2.5,0-5.6,0.1-9c0.2-3.9,1.1-7.7,2.7-11.2l19-6.7C439.3,187.7,442.8,192.1,442.9,197.3z"/>
	<path class="st9" d="M398.6,163.6c-12.3,0-16.8,9.4-16.8,16.5c0,6.3,2,16.5,16.8,16.5c7.4,0,12.4-7.4,12.4-16.5
		S406,163.6,398.6,163.6z"/>
	<path class="st10" d="M398.1,167.6c-9.3,0-12.7,7.1-12.7,12.4c0,4.8,1.5,12.4,12.7,12.4c5.6,0,9.4-5.6,9.4-12.4
		S403.7,167.6,398.1,167.6z"/>
	<path class="st4" d="M383.2,169.2c0.7,4.3,2.9,5.9,3.8,11.7s-1.6,14.2,2.2,21.5s9.9,17,13.4,17.4s31.8-4.4,41.3-23.3
		c2.7-5.4,8.6-26.8,3.6-39.8s-13.1-25-31.9-25.3S379.3,146.4,383.2,169.2z"/>
	<path class="st5" d="M398.9,192.6c1,0.1,1.9-0.3,2.6-1c0.4-0.6,0.6-1.3,0.5-2c-1.4,1.1-3.3,1.5-5.1,1.1
		C396.7,192,397.7,192.6,398.9,192.6z"/>
	<path class="st11" d="M432.2,169.2c-0.5-2.7-1.7-5.1-3.7-7c0,0-7.2-3-12.8-3.5c-3.8-0.4-7.6-1.2-11.3-2.2c0,0,1.8,4.5,4.7,6.4
		c0,0-13.3-0.7-17.5-4.6c0,0,0.8,3.2,1.6,5.4c0,0-6.5-0.7-8.5-3.2c0,0-1.6,5.7-1.6,8.8c0,0-7.8-10.7-5.8-19.2s4.7-11.8,4.7-11.8
		c-2.9,0.3-5.8,0.3-8.7,0c0,0,7.2-6.3,12.7-10.5c5.4-4.2,21.7-4.3,21.7-4.3s-1.3-4.3,0.2-11.2c0,0,7,10.2,14.3,13.3
		c7.3,3.1,6.4,2.9,14.2,4.8s15.2,7,18.4,11.2s6.5,8.6,8.5,9.2c0,0-4.9-0.7-7.3-2.7c0,0,4.1,9.3-1.3,21.1s-18.9,8.4-21.5,5.8
		C431.7,173.4,431.3,171.1,432.2,169.2z"/>
	<path class="st12" d="M433.3,174.9c-1.5-1.5-1.9-3.8-1-5.8c-0.4-2.1-1.3-4.2-2.6-5.9c1.9-11.9,1.1-24.1-2.3-35.7
		c2,0.8,4.1,1.5,6.2,2c3.6,5.5,6.3,11.4,8.2,17.7c2.4,7.9,3.5,16.4,1.3,24.3c-0.6,2-1.4,4-2.4,5.9
		C437.1,177.2,434.3,176,433.3,174.9z"/>
	<path class="st9" d="M436.9,164.7c0,0,0.9-29.8-14.7-39.2c7.9-0.4,15.3,3.8,19,10.7c6.9,12.1,6.5,22.4,6.3,28.2
		S436.9,164.7,436.9,164.7z"/>
	<path class="st9" d="M441.7,163.6c12.3,0,16.8,9.4,16.8,16.5c0,6.3-2,16.5-16.8,16.5c-7.4,0-12.4-7.4-12.4-16.5
		S434.3,163.6,441.7,163.6z"/>
	<path class="st10" d="M435.1,180.1c0-8.1,5.3-14.6,11.9-14.6s11.5,6.5,11.5,14.6s-5,14.6-11.5,14.6S435.1,188.1,435.1,180.1z"/>
	<ellipse class="st9" cx="448.5" cy="180.1" rx="8.1" ry="9.9"/>
	<path class="st5" d="M410.6,196.5c-3.3,1.8-14.1,2.4-14.9,2.3s0.8,8.1,3.4,8.4s7.9-0.4,10.1-2.5S410.6,196.5,410.6,196.5z"/>
	<path class="st13" d="M409.9,198.9l-0.5-1.9c-3.6,1.2-10.8,1.8-13,1.8c0.2,1.1,0.5,2.2,1,3.3c0.1,0,0,0.1,0,0.1
		C401.8,202.9,406.4,201.7,409.9,198.9z"/>
	<path class="st14" d="M409.1,176.9c0-1.5,0.7-2.7,1.6-2.7s1.6,1.2,1.6,2.7s-0.7,2.7-1.6,2.7S409.1,178.4,409.1,176.9z"/>
	<path class="st14" d="M390.3,178.2c0-1.5,0.6-2.7,1.4-2.7s1.4,1.2,1.4,2.7s-0.6,2.7-1.4,2.7S390.3,179.7,390.3,178.2z"/>
	<path class="st14" d="M418.4,166.3c-2.3-1.2-4.8-1.9-7.5-2c-1.3-0.2-2.7,0-4,0.4c-1.3,0.4-2.4,1.2-3.3,2.3l0.1,0.2
		c1.4-0.1,2.5-0.5,3.7-0.6s2.3-0.6,3.5-0.7c2.5-0.2,5,0,7.3,0.7L418.4,166.3z"/>
	<path class="st14" d="M385.5,169.8c0.6-0.2,1.2-0.4,1.8-0.4c0.6-0.1,1.2-0.1,1.8-0.1c0.6,0.1,1.2,0.1,1.8,0.1
		c0.3-0.1,0.6-0.1,0.9-0.3c0.4-0.1,0.7-0.3,1-0.5v-0.2c-0.5-0.5-1.2-0.9-1.9-1c-0.7,0-1.4,0.1-2,0.3c-0.7,0.2-1.3,0.4-1.9,0.7
		c-0.6,0.3-1.2,0.7-1.6,1.2L385.5,169.8z"/>
	<path class="st9" d="M404.6,364.6c0,0.4-0.6,1-2,1h-45.3c-5.2,0-6.4-2.1-4.9-4.7s8.2-8.4,24.5-12.4s25,5.4,27.6,9.6
		C406.5,361.2,404.6,364.6,404.6,364.6z"/>
	<path class="st10" d="M352,361.7c0.9,3,35.5,1.4,35.5,1.4s-3.5-4.7-7.4-4.9s-5.8,1.2-11,2.1s-1.4-2.1-1.4-2.1s-3.7-0.8-5.2-2
		c0,0,8.6-2.5,12.1-3.1s12.7-0.2,13.9,0c0.8,0.1,5-2.3,10.1-1.1c2.3,1.6,4.2,3.7,5.7,6c2,3.1,0,6.4,0,6.4c0,0.4-0.6,1-2,1h-45.3
		C352.6,365.6,351.1,364,352,361.7z"/>
	<path class="st4" d="M499.8,336.3c0,0-32.2,5-49.7,8.1c-16.5,3-30.8,4.2-34.9,3.5s-17.9-5.9-22.3-7.7s-13.3-2.9-17.9-1.4
		s-8.3,3-10.1,3s-1.5,3,1,3.6c1.5,0.4,3.1,0.5,4.6,0.5c0,0-8.3,4.5-9.8,5s0.3,3.1,2.3,3c0,0-1.8,1-1.1,2.1s5,1,5,1s-5.3,2.6-0.9,3.6
		s9.8-3.9,11.9-4.4s7.2-0.2,9.7,1.6s12.9,10.3,27.2,5.2c0,0,96.9,3.9,106.6,3.9s15.5-8.5,12.4-25c-1.9-9.9-5-19.6-9.2-28.8
		l-33.4,2.4L499.8,336.3z"/>
	<path class="st5" d="M378.1,343.2c0.7-0.2,1.3-0.3,2-0.4L378.1,343.2z"/>
	<path class="st5" d="M370.5,345.8c-1.6,0-3.1-0.2-4.6-0.5c-0.6-0.2-1.2-0.5-1.5-1c2.7,1.2,6,0.4,7.9,0c1.1-0.3,4-0.8,5.9-1.1
		C375.5,343.8,373,344.7,370.5,345.8z"/>
	<path class="st5" d="M370.9,349.7c0.2-0.1,0.3-0.1,0.5-0.2L370.9,349.7z"/>
	<path class="st5" d="M360.8,352.7c0,0,1,0.9,3,0c1.7-0.7,5.7-2.4,7.2-3c-1.8,0.8-6.6,3.5-7.9,4
		C362.2,353.7,361.3,353.4,360.8,352.7z"/>
	<path class="st5" d="M365.8,355.9c1.5-0.4,4.6-2.3,6.5-3.2c1.4-0.6,2.8-0.9,4.3-1c-0.9,0.2-1.8,0.5-2.6,1c-1.9,0.9-7.1,4.2-7.1,4.2
		c-1.4,0-2.8-0.2-4.2-0.5C363.7,356.3,364.8,356.2,365.8,355.9z"/>
	<path class="st5" d="M393.3,358c2.7,1.7,10.8,3.9,15.7,3c2.7-0.4,5-2.4,5.9-5l1.4,4.4c0,0,67.2,1.9,80.9,1.3
		c13.5-0.6,34.6-0.9,37.3-9c-0.8,9.4-5.8,14.3-13.1,14.3c-9.7,0-106.6-3.9-106.6-3.9c-14.3,5-24.7-3.4-27.2-5.2
		c-2-1.5-5.9-2-8.3-1.8l0,0C382.9,354.7,390.6,356.3,393.3,358z"/>
	<path class="st5" d="M499.8,336.3c0,0,12.6-1.7,15.1-2l-1.9-7.8l-15.9,3.2L499.8,336.3z"/>
	<path class="st6" d="M533.5,314.4c0.5,1.2,0.2,2.6-0.8,3.5c-5.8,5.7-13.5,13.5-21.4,14.7c-8.6,1.3-23,1.8-23.8,0
		s-3.7-25.1-8.9-36.8s-8.6-17.8-9.9-24.5s10.5-22.7,15.7-24s17.2-2.1,22.2,2.4s8.6,21.4,14.4,34.2
		C525.6,294.1,531.4,309,533.5,314.4z"/>
	<path class="st8" d="M501.1,247c-1.6-0.2-3.2-0.3-4.8-0.4c-1.6-0.1-3.2-0.1-4.8,0c-1.6,0.1-3.2,0.3-4.7,0.5
		c-0.8,0.1-1.6,0.3-2.3,0.5c-0.7,0.2-1.4,0.5-2.1,0.9c-0.7,0.4-1.4,0.8-2,1.2c-0.6,0.5-1.2,1-1.8,1.6c-1.1,1.1-2.2,2.3-3.1,3.6
		c-1,1.3-1.8,2.6-2.7,4c-0.8,1.4-1.6,2.8-2.3,4.2c1.1-3,2.6-5.9,4.4-8.6c0.9-1.4,1.9-2.6,3-3.8c0.6-0.6,1.2-1.1,1.8-1.7
		c0.7-0.5,1.4-1,2.1-1.4c0.7-0.4,1.5-0.7,2.3-0.9c0.8-0.2,1.6-0.4,2.4-0.5c1.6-0.3,3.2-0.4,4.9-0.4C494.7,245.8,498,246.2,501.1,247
		z"/>
	<path class="st7" d="M527,319.2c0-4.2-8.9-42.4-16.6-63.7l0,0c3.3,7.3,6.4,18.9,10.6,28.3c4.6,10.3,10.5,25.2,12.5,30.6
		c0.5,1.2,0.2,2.6-0.8,3.5c-2.2,2.2-4.8,4.7-7.4,7C525.5,324.7,527,323.1,527,319.2z"/>
	<path class="st15" d="M106.9,276.1c-0.1,1.3,0.1,2.6,0.7,3.7c2.3,4.2,3.4,8.9,3.3,13.6c-0.1,3.1-0.7,6.3,0.1,9.3
		c1.5,5.2,6.9,8.4,8.7,13.5c1.6,4.5,0.1,10.2,3.3,13.7c0.7,1,2,1.4,3.1,1.1c0.5-0.3,1-0.7,1.4-1.1c3.7-4.2,7.7-9.3,6.5-14.8
		c-1.1-5.2-6.4-8.7-7.4-13.8c-0.8-4.2,1.3-9.1-1.1-12.7c-0.7-1-1.6-1.7-2.4-2.7c-2.9-3.7-1.8-9.6-5.1-12.9c-1.1-1-2.4-1.7-3.9-2
		c-3.3-0.7-6.5,1.4-7.2,4.7C106.9,275.7,106.9,275.9,106.9,276.1L106.9,276.1z"/>
	<path class="st16" d="M128,341.7c0.2-2.8,0.3-5.5,0.4-8.3c-0.1-2.8-0.3-5.5-0.5-8.3c-0.2-2.8-0.5-5.5-1-8.3c-0.4-2.7-1.2-5.4-2.3-8
		c-2-5.1-3.6-10.4-5.3-15.6l-2.4-7.9c-1-2.6-1.9-5.2-2.8-7.8c0.4,2.7,1,5.4,1.6,8.1l2.4,7.9c1.6,5.3,3.2,10.5,5.3,15.7
		c1,2.5,1.8,5.1,2.2,7.8c0.5,2.7,0.8,5.4,1,8.1s0.4,5.5,0.5,8.2L128,341.7z"/>
	<path class="st16" d="M113.5,285.9c0.4,0.7,1,1.2,1.7,1.7c0.3,0.2,0.7,0.4,1,0.5c0.4,0.2,0.7,0.4,1,0.7l0.1,0.1l0.1-0.2
		c0.3-0.4,0.6-0.8,0.8-1.2s0.5-0.8,0.7-1.2c0.4-0.9,0.7-1.8,0.9-2.8h-0.1c-0.7,0.7-1.2,1.5-1.6,2.4c-0.2,0.4-0.4,0.9-0.6,1.3
		s-0.3,0.9-0.4,1.4l0.2-0.1c-0.3-0.2-0.7-0.4-0.9-0.7c-0.3-0.3-0.5-0.6-0.8-0.9C115,286.4,114.3,286.1,113.5,285.9L113.5,285.9z"/>
	<path class="st16" d="M114.1,295.3c0.5,0.4,1,0.8,1.5,1.2c0.5,0.4,1,0.7,1.6,1c0.6,0.3,1.2,0.5,1.7,0.8c0.5,0.3,1.1,0.7,1.5,1.1
		l0.2,0.1l0.2-0.2c0.7-1,1.4-2,2-3.1c0.6-1.1,1.1-2.2,1.4-3.4h-0.1c-0.8,0.9-1.6,1.9-2.2,3c-0.6,1.1-1.2,2.2-1.6,3.3l0.4-0.1
		c-0.6-0.3-1.1-0.6-1.7-0.9c-0.5-0.4-1-0.8-1.5-1.2c-0.5-0.4-1.1-0.7-1.6-1C115.4,295.6,114.8,295.3,114.1,295.3L114.1,295.3z"/>
	<path class="st16" d="M117.5,307.7c0.5,0.5,1.1,0.9,1.7,1.3c0.6,0.4,1.3,0.6,1.9,0.8c0.7,0.2,1.3,0.5,1.9,0.9
		c0.6,0.4,1.1,0.9,1.6,1.2l0.4,0.3l0.3-0.5c0.5-0.7,0.9-1.4,1.2-2.2c0.3-0.8,0.6-1.6,0.8-2.4l-0.1,0c-0.6,0.6-1.1,1.2-1.6,1.9
		c-0.5,0.7-0.9,1.4-1.2,2.2l0.7-0.2c-0.6-0.3-1.3-0.6-2-0.8c-0.7-0.2-1.3-0.6-1.8-1c-0.5-0.5-1.1-0.8-1.8-1.1
		C118.9,307.9,118.2,307.7,117.5,307.7L117.5,307.7z"/>
	<path class="st17" d="M132.4,342.3c2.2-0.4,10.2-2.9,9.7-5c-2.4-9-4.8-19.3,3.5-23.8c4-2.1,9.1-3.2,11.4-7.1s0.6-9.2-1.5-13.4
		s-4.7-8.7-3.8-13.3c0.9-4.8,5.5-8.4,6.3-13.3c1-6.6-5.5-12-11.7-14.6c-2.1-0.9-4.4-1.6-6.6-1.1c-1.6,0.4-3,1.4-4,2.6
		c-4.4,4.9-4.2,12.2-3.2,18.7s2.5,13.3,0.1,19.3c-1.7,4.3-5.4,8.4-4.4,12.9c0.4,1.8,1.5,3.4,2,5.2c1.2,4.9-2.9,9.3-4.7,13.9
		c-2.3,6.2-0.8,13.2,3.8,17.9C130.1,342.1,131.3,342.5,132.4,342.3L132.4,342.3z"/>
	<path class="st16" d="M131.6,342.4c0.5-3.6,1-7.2,1.6-10.7c0.1-0.9,0.3-1.8,0.5-2.7s0.2-1.8,0.4-2.7c0.3-1.8,0.6-3.5,0.9-5.3
		c0.6-3.5,1.5-7,2.7-10.3c0.6-1.6,1.3-3.2,2.3-4.7c0.4-0.7,1-1.3,1.6-1.7c0.8-0.5,1.6-1.2,2.2-2c1.1-1.6,1.7-3.6,1.6-5.6
		c-0.1-1.9-0.4-3.7-0.8-5.5c-0.8-3.5-1.9-7-2.4-10.5c-0.7-3.4-0.6-7,0.2-10.4c0.3-0.8,0.5-1.6,0.8-2.5c0.3-0.8,0.6-1.6,1-2.4
		c0.8-1.6,1.8-3.1,3-4.4c-1.5,1.1-2.7,2.4-3.9,3.9c-0.5,0.7-1,1.5-1.5,2.3c-0.5,0.8-0.8,1.7-1,2.6c-0.9,3.6-1,7.4-0.3,11.1
		c0.6,3.6,1.7,7.1,2.5,10.6c0.4,1.7,0.7,3.4,0.8,5.2c0.1,1.6-0.3,3.3-1.3,4.6c-0.5,0.6-1.1,1.2-1.8,1.6c-0.8,0.6-1.5,1.3-2.1,2.2
		c-1,1.6-1.8,3.2-2.4,5c-1.2,3.5-2.1,7-2.8,10.6c-0.3,1.8-0.6,3.6-0.9,5.4c-0.1,0.9-0.3,1.8-0.4,2.7s-0.1,1.8-0.2,2.7
		C131.7,335.1,131.6,338.8,131.6,342.4z"/>
	<path class="st16" d="M145.9,271.7c-1.2,0.5-2.2,1.3-2.9,2.3c-0.3,0.5-0.7,1-1.1,1.5c-0.4,0.4-0.9,0.8-1.4,1.2h0.6
		c-0.2-0.5-0.5-0.9-0.7-1.4c-0.2-0.4-0.5-0.9-0.8-1.3c-0.3-0.4-0.6-0.8-0.9-1.2s-0.6-0.8-0.9-1.2h-0.1c0,0.5,0.1,1.1,0.3,1.6
		c0.2,0.5,0.4,1,0.7,1.4c0.2,0.5,0.5,0.9,0.8,1.3c0.3,0.4,0.6,0.8,1,1.2l0.4,0.4l0.2-0.4c0.3-0.5,0.6-1,1-1.5
		c0.4-0.4,0.9-0.8,1.4-1.2c0.5-0.4,0.9-0.8,1.3-1.3C145.3,272.8,145.7,272.3,145.9,271.7L145.9,271.7z"/>
	<path class="st16" d="M138.1,285.4c0.3,0.6,0.6,1.2,1,1.7c0.4,0.5,0.8,1,1.2,1.5c0.5,0.4,1,0.8,1.5,1.2c0.5,0.4,0.9,0.9,1.3,1.4
		l0.1,0.2l0.2-0.1c0.6-0.5,1.2-1,1.7-1.5c0.5-0.5,1-1.1,1.4-1.7s0.9-1.2,1.3-1.8s0.8-1.3,1.2-1.9l-0.1-0.1c-0.7,0.4-1.3,0.8-1.8,1.4
		c-0.5,0.5-1,1.1-1.5,1.6c-0.5,0.6-0.9,1.2-1.3,1.8s-0.8,1.3-1.2,1.8h0.3c-0.5-0.4-0.9-0.9-1.3-1.4c-0.4-0.5-0.7-1.1-1.1-1.6
		s-0.9-0.9-1.3-1.4c-0.5-0.4-1-0.9-1.5-1.2L138.1,285.4z"/>
	<path class="st16" d="M152.5,296c-0.7,0.8-1.4,1.5-2.1,2.2s-1.5,1.3-2.3,2c-0.8,0.7-1.7,1.2-2.6,1.5c-1,0.3-2,0.4-3,0.3l0.4,0.3
		c-0.2-0.8-0.4-1.6-0.7-2.5c-0.3-0.8-0.6-1.6-1-2.3c-0.4-0.8-0.9-1.5-1.5-2.1c-0.6-0.7-1.3-1.2-2.1-1.5v0.1c0.6,0.6,1.1,1.2,1.5,1.9
		c0.4,0.7,0.8,1.4,1.1,2.1l1,2.2c0.3,0.8,0.6,1.5,0.9,2.3l0.1,0.4h0.3c1.1-0.2,2.1-0.5,3.1-0.9c1-0.4,2-0.7,2.9-1.2
		c1-0.5,1.8-1.2,2.5-2c0.7-0.8,1.2-1.8,1.6-2.8L152.5,296z"/>
	<path class="st16" d="M133,304.1c-0.3,0.8-0.5,1.7-0.4,2.5c0,0.9,0.2,1.7,0.5,2.5c0.3,0.8,0.8,1.5,1.3,2.2l1.5,2l0.1,0.1l0.2-0.1
		c0.8-0.5,1.7-1,2.6-1.5c0.9-0.5,1.8-0.9,2.7-1.3s1.8-0.8,2.8-1.1s1.9-0.7,2.9-1.1v-0.1c-2.1,0-4.2,0.4-6.1,1.2
		c-0.9,0.4-1.9,0.9-2.7,1.5c-0.9,0.6-1.7,1.3-2.4,2h0.3c-0.6-0.6-1-1.3-1.4-2c-0.3-0.7-0.6-1.5-0.8-2.3c-0.5-1.5-0.8-3.1-0.9-4.7
		L133,304.1z"/>
	<path class="st9" d="M117.8,365.6h23.1c2.1,0,4-1.9,4.3-4.4l3.6-28.4c0.4-3.1-1.6-5.9-4.3-5.9h-30.4c-2.6,0-4.7,2.8-4.3,5.9
		l3.6,28.4C113.8,363.8,115.6,365.6,117.8,365.6z"/>
	<path class="st10" d="M114.1,327h15.5c-2.7,0-4.7,2.8-4.3,5.9l3.7,28.4c0.3,2.5,2.1,4.4,4.3,4.4h-15.5c-2.1,0-4-1.9-4.3-4.4
		l-3.6-28.4C109.4,329.8,111.5,327,114.1,327z"/>
	<path class="st18" d="M324.3,357.8h-96.4c-1,0-1.8,0.8-1.8,1.7c0,0,0,0,0,0v4.3c0,1,0.8,1.8,1.7,1.8c0,0,0,0,0,0h96.4V357.8z"/>
	<path class="st9" d="M349.1,363.2v1.7c0,0.4-0.3,0.7-0.7,0.7h-24.3c-0.8,0-1.4-0.6-1.4-1.3c0,0,0,0,0,0v-5.1c0-0.8,0.6-1.4,1.4-1.4
		c0.1,0,0.1,0,0.2,0l24.2,4.7C348.8,362.6,349.1,362.9,349.1,363.2z"/>
	<path class="st9" d="M155.8,193.9H336c3.6,0,6.9,2.3,8.1,5.7l39.4,109.5c1.6,5.6-2.5,9.9-9.1,10.6c-1,0.1-5.9-2.1-13.5-5.6H199.8
		c-3.6,0-6.9-2.3-8.1-5.7l-35.6-98.9l-9.4-4.9C146.6,204.5,144.4,193.9,155.8,193.9z"/>
	<path class="st10" d="M330.3,199.6H150.1c-2,0-3.7,1.7-3.7,3.7c0,0.4,0.1,0.8,0.2,1.2L186.1,314c1.2,3.4,4.5,5.7,8.1,5.7h180.2
		c2,0,3.7-1.7,3.7-3.7c0-0.4-0.1-0.8-0.2-1.2l-39.4-109.5C337.3,201.9,334,199.6,330.3,199.6z"/>
	<polygon class="st18" points="289.7,319.7 281.7,290 251.3,319.7 	"/>
	<path class="st9" d="M245.8,238c0.8,4.9,4,6.9,7.8,6.9c3.2,0.1,6-2.4,6.1-5.6c0-0.4,0-0.8-0.1-1.3c-0.7-3.8-3.9-6.7-7.7-6.9
		c-3.2-0.1-6,2.4-6.1,5.6C245.7,237.2,245.7,237.6,245.8,238z"/>
	<polygon class="st18" points="330.5,301.5 328.2,295.1 331.1,295.1 333.4,301.5 	"/>
	<polygon class="st18" points="324.3,301.5 322,295.1 324.9,295.1 327.3,301.5 	"/>
	<polygon class="st18" points="318.2,301.5 315.9,295.1 318.8,295.1 321.1,301.5 	"/>
	<polygon class="st18" points="312.1,301.5 309.8,295.1 312.7,295.1 315,301.5 	"/>
	<polygon class="st18" points="224.9,301.5 222.6,295.1 225.5,295.1 227.9,301.5 	"/>
	<polygon class="st18" points="218.8,301.5 216.5,295.1 219.4,295.1 221.7,301.5 	"/>
	<polygon class="st18" points="212.7,301.5 210.4,295.1 213.3,295.1 215.6,301.5 	"/>
	<polygon class="st18" points="206.5,301.5 204.2,295.1 207.1,295.1 209.5,301.5 	"/>
	<path class="st10" d="M228.8,355.1c1.8-5.1,23.3-74.7,23.3-74.7h27.7l1.8,9.7c0,0-18.6,59.9-20.3,65c-0.1,0.4-0.3,0.8-0.4,1.2l0,0
		c-1.6,5,2.7,5,7.5,5h48.8v4.4h-81.4C226.1,365.6,227,360.2,228.8,355.1z"/>
	<path class="st9" d="M279.8,280.3c0,0-21.6,69.6-23.4,74.7c-1.8,5.1-2.7,10.6,7.1,10.6h-32.5c-9.8,0-8.9-5.5-7.1-10.6
		s23.3-74.7,23.3-74.7H279.8z"/>
	<path class="st19" d="M273.1,280.3c-2.1-0.1-4.3-0.1-6.4-0.2s-4.3-0.1-6.4-0.1s-4.3-0.1-6.4-0.1h-6.4H247l-0.1,0.4
		c-0.9,2.8-1.8,5.6-2.6,8.4l-2.6,8.5c-1.6,5.6-3.3,11.3-4.8,17c2-5.5,3.8-11.1,5.7-16.7l2.7-8.4c0.9-2.8,1.8-5.6,2.6-8.4l-0.5,0.3
		h6.4c2.1,0,4.3-0.1,6.4-0.1s4.3-0.1,6.4-0.1S270.9,280.4,273.1,280.3z"/>
	<path class="st20" d="M84.5,382.7h477.3c4.7,0,8.5-3.8,8.5-8.5l0,0c0-4.7-3.8-8.5-8.5-8.5c0,0,0,0,0,0H84.5c-4.7,0-8.6,3.8-8.6,8.5
		l0,0C75.9,378.9,79.7,382.7,84.5,382.7z"/>
	<path class="st21" d="M84.5,382.7h477.3c4.7,0,8.5-3.8,8.5-8.5H75.9C75.9,378.9,79.7,382.7,84.5,382.7z"/>
	<circle class="st6" cx="113.5" cy="95.2" r="71.9"/>
	<g>
		<defs>
			<path id="SVGID_1_" d="M185.3,95.2c0,39.7-32.2,71.8-71.9,71.8c-39.7,0-71.8-32.2-71.8-71.8c0-39.7,32.2-85.8,71.8-85.8
				S185.3,55.6,185.3,95.2z"/>
		</defs>
		<clipPath id="SVGID_2_">
			<use xlink:href="#SVGID_1_"  style="overflow:visible;"/>
		</clipPath>
		<g class="st22">
			<path class="st23" d="M214.5,152.6c1.4,6.9-5,12.9-7,14.1s-15.3,6.5-23.3,6.7s-18.6-16.8-14.3-18.7s33.8-4,37-4
				S214.5,152.6,214.5,152.6z"/>
			<path class="st13" d="M193.5,149c-3.5,20.6-11.8,36.6-14.4,36.9s-27.5-8.3-34.3-11.4s2.1-51.4,6.4-50.6s13.6,10.1,21.4,14.6
				S193.5,149,193.5,149z"/>
			<path class="st24" d="M152.5,157.5c2.4,4.1,22.2,14.6,33.1,18.4c-2.7,6.1-5.2,9.8-6.5,9.9c-2.2,0.2-20.8-6-30.4-9.8
				C149.6,169.8,150.8,163.6,152.5,157.5z"/>
			<path class="st23" d="M214.5,151.6c0.2,8.1-7.2,9.3-16,7.2S175.4,137,169,128s-18.3-24.9-20.7-26.3s-8.1-2.2-13-10.2
				s1.5-24.9,3.8-26.9c2.3-2,21.9,4.7,24.2,8.1s-1.6,21.5-0.9,23.8s17.4,20.9,24.7,25.5S214.4,145.7,214.5,151.6z"/>
			<path class="st25" d="M149.1,78c-2.3-1.1-2.9-6.3-1.4-5.4s4,0.9,7.4,0.9c1.6,0,3.2-0.1,4.8-0.3c0.2,1.4,0.3,2.7,0.3,4.1
				C160.3,77.2,151.4,79.2,149.1,78z"/>
			<path class="st25" d="M133.8,79.2c1.4-2.6,2.5-4.6,2.5-4.6l13.5,13c2.6-2.2,5.3-4.2,8.2-6.1l1.2,2.1c-2.2,3.7-4.1,11.5-4.1,13.4
				c0,0-2.1,2.3-3.2,2.5c0,0,14.4,22.9,23.7,34.1s15.5,20.8,19.9,23.9c-8.8-5.1-20.7-21.6-26.4-29.5c-6.4-9-18.3-24.9-20.8-26.3
				s-8.1-2.2-13-10.2C133.3,88.3,133.2,83.7,133.8,79.2z"/>
			<path class="st26" d="M161.9,80.5c-0.2,1.3-13.6,13-15,14.3c-0.1,0.1-1.1,0.3-1.4,0c-3.6-3.1-19.1-31.4-19.4-32.4
				s10.1-10.7,13.2-13.3c0.8-0.3,1.8-0.2,2.5,0.3C145,54.1,162.1,78.8,161.9,80.5z"/>
			<path class="st27" d="M160.5,80.5c-0.2,1.3-13.6,13-15,14.3s-20.5-31.3-20.8-32.4c-0.3-1,11.2-10.5,14.4-13.1
				c0.4-0.3,0.9-0.3,1.2,0c0,0,0.1,0.1,0.1,0.1C143.6,54.1,160.7,78.8,160.5,80.5z"/>
			<path class="st28" d="M158.2,78.6c-0.1,1.3-12.7,12.1-14,13.4S125,62.7,124.7,61.6s10.5-9.8,13.5-12.3c0.3-0.3,0.9-0.3,1.2,0
				c0,0,0,0.1,0.1,0.1C142.4,53.9,158.4,77,158.2,78.6z"/>
			<path class="st23" d="M150.2,62.7c-2.1-1.3-4.6-5.5-4.9-6.9s-0.1-2.7,1-3s4.6,4.2,6.3,5.5s3.8,4.1,2.9,6
				c-0.8,1.9-4.6,1.1-5.1,0.9S150.2,62.7,150.2,62.7z"/>
			<path class="st25" d="M145.7,53.1c-0.7,1.6,3.6,8.1,7.4,10l-1.4,1.6l-1.4-0.3c-0.1-0.6-0.1-1.2-0.1-1.7c-2.1-1.3-4.6-5.5-4.9-6.9
				C145.1,54.9,145.2,53.9,145.7,53.1z"/>
			<path class="st23" d="M155,69.2c-3.6-1.9-6.4-1.7-8.3-2.5s-2.3-3.8-1-4.3s9.4,0.8,11.4,1.7c2.1,0.9,3.1,5.2,3.1,5.2L155,69.2z"/>
			<path class="st25" d="M153.4,67c2,0.4,2.7,0,2.7,0c0,0.8,0.7,1.2,1.5,2.3l-2.7-0.1c-3.6-1.9-6.4-1.7-8.3-2.5
				c-0.8-0.4-1.4-1.1-1.6-2C145.9,66.4,151.4,66.7,153.4,67z"/>
			<path class="st23" d="M163.3,72.6c-1.9,2.6-11.3,1.5-13.1,1.2s-3.1-1.5-2.9-2.7c0.4-2.4,12.7-2,13.8-1.6S163.3,72.6,163.3,72.6z"
				/>
			<path class="st25" d="M147.3,71.7c1.3,1.3,4.3,2,7.7,2.3c1.6,0.2,3.3,0.2,4.9,0.1c-3.3,0.3-6.6,0.2-9.8-0.3
				C148.8,73.8,147.7,72.9,147.3,71.7z"/>
			<path class="st13" d="M119.5,109.6c19.8,10.1,23.1,9.7,31.6,14.3c8.5,4.6,6,52.8,5.4,60.2S154,221,155.1,229s5.5,37.7,7.5,42.3
				s5.7,12.3-0.1,16.9s-17.9,7.7-44.4,6s-55-18-56.2-20.3s12.6-44.3,13.2-52.3c0.5-6,1.5-11.9,3-17.7c0.8-3.7-7.6-21.1-8.9-32.3
				S55.7,129.7,58,124c2.3-5.6,23.4-11.9,37.7-19.1S119.5,109.6,119.5,109.6z"/>
			<path class="st24" d="M139.2,122c-3.3,10.8-9.9,20.3-18.8,27.3c-10.7-2.6-21.7-7.4-30.5-14.1c9.8,7.3,20.6,13.2,32,17.5
				C131.5,145.1,137.6,134.1,139.2,122z"/>
			<path class="st23" d="M135.1,116.9c-3.8-1.6-8.7-3.9-15.6-7.4c0,0-9.4-11.7-23.8-4.6c-5,2.5-10.8,4.9-16.3,7.1
				c8.7,14.7,22.3,25.8,38.4,31.3C126.3,136.7,132.3,127.4,135.1,116.9z"/>
			<path class="st24" d="M61.9,273.8c-1.3-2.3,12.6-44.3,13.2-52.3c0.5-6,1.5-11.9,3-17.7c0.8-3.7-7.6-21.1-8.9-32.3
				c-0.4-2.5-0.9-4.9-1.6-7.4l8.9-6.7c5.3,14.6,8.5,40.3,13.5,46.6c5,6.3,17.4,8.9,17.4,8.9s-12.2,2.9-17.6,1.7
				c0,0-5.7,22.6-5.8,33.7s1,28,1.1,30.3c0.1,0.9-0.1,3.8-0.4,7.2C72,280.8,62.6,275.1,61.9,273.8z"/>
			<path class="st23" d="M98,84.7c-0.2,11.9-1,20.1-3.6,22.4c0,0,4.5,19.8,22.7,18.1c6.1-0.6,5.6-10.9,2.5-15.6l1.8-14.6L98,84.7z"
				/>
			<path class="st25" d="M95.8,105L95.8,105c1.6-3.7,2.1-10.8,2.3-20.3l23.3,10.3l-1.2,9.4l0,0C116,106.2,95.8,105,95.8,105z"/>
			<path class="st23" d="M33.7,181.1c-4,5.5-9.4,19.2-7.4,25.5s22.8,34.3,32.3,44.8S70.4,263.5,72,267s9.8,17.6,11.9,19.7
				s6,2.4,6,2.4c2.3,2.1,5.3,3,8.4,2.6c0,0,4.8,3.3,8.6,4.1c0,0,1.3,2.4,2.5,2.6s2.9-2.4,0.6-7.5s-6.2-7.3-6.8-10.6s-3.6-10-3.6-10
				s6.7,6.9,10.8,7.3s4.7-2,2.4-4c-3-2.6-5.6-5.6-7.9-8.9c-2.5-3.9-6.7-6.6-11.3-7.1c-5.2-0.7-8.9-1.3-10.3-2.3s-8.2-10.7-12.9-21.2
				s-8.9-23.9-20.8-35.6l5.2-9.1L33.7,181.1z"/>
			<path class="st25" d="M106.7,295.2c-1.1-2.8-2.8-5.4-4.9-7.6l-0.8-0.8c-0.2-0.2-0.7-0.6-0.8-0.7c-0.4-0.5-0.8-1.2-1.1-1.8
				c-0.8-1.3-1.5-2.6-2.3-3.9c0.4,1.5,0.9,2.9,1.5,4.3c0.3,0.7,0.7,1.4,1.1,2.1c0.3,0.3,0.5,0.6,0.8,0.9l0.8,0.8c1,1.1,2,2.2,3,3.3
				S105.8,294,106.7,295.2z"/>
			<path class="st25" d="M98,290.7c-0.8-1.5-1.7-2.9-2.6-4.3s-1.6-2.8-2.4-4.3c0,1.8,0.5,3.5,1.4,4.9
				C95.4,288.5,96.6,289.8,98,290.7z"/>
			<path class="st25" d="M93.9,291.3c-1.5-0.4-2.9-1.1-4-2.2c0,0-3.8-0.3-6-2.4c-1.8-2.2-3.4-4.6-4.8-7.1c0,0,2.4,2.6,4.2,4.8
				c1.4,1.8,3.7,2.5,5.9,2l-0.5-2.8C88.7,283.6,91.1,289.9,93.9,291.3z"/>
			<path class="st25" d="M26.3,199.6c0.1,2.6,0.1,4.7,4,11.5c4.3,7.7,30.5,40.1,36.2,46.1s5.5,6.4,8.9,15.9c-1.5-2.7-2.8-5-3.3-6.2
				c-1.7-3.4-3.8-5.1-13.3-15.6s-30.3-38.5-32.4-44.7C25.8,204.3,25.8,201.9,26.3,199.6z"/>
			<path class="st25" d="M46.8,192.1l-2.1,3.5c1.9,0.6,3.6,1.6,5,2.9l4.1-7L46.8,192.1z"/>
			<path class="st13" d="M71.8,172.8c5.5-10.7,7.6-28.2,2.7-37.3S60.3,122.9,58,124s-8.5,15.4-14.3,22s-21.6,25.2-22.1,26.7
				s11.4,14.1,33.9,23.4C58.2,197.2,71.8,172.8,71.8,172.8z"/>
			<path class="st24" d="M55.2,181.1l-3.6,7.4c0,0,17.6-17.7,25-30.9c-0.8,5.3-2.4,10.4-4.7,15.2c0,0-13.6,24.5-16.3,23.4
				c-3.8-1.6-7.3-3.3-10.6-5L55.2,181.1z"/>
			<path class="st10" d="M122.7,85.8c-1.2-4.9-1.2-9.9-1.5-15c-0.2-3.8-0.4-7.2-3.8-9.4c-2.6-1.5-5.6-2.1-8.6-1.6
				c-7.9,1-9.6,8.7-9,16c0.5,5.6,2.6,10.9,4.8,16c-2.9-0.1-6.9-1.6-8.6-4.1c0.7,3.2,2.3,6,4.6,8.3c-8.4-0.1-16.2-5.6-20.6-13
				s-5.9-16.4-5.4-25.1c0.6-10.3,3.8-20.6,10.1-28.6c12.8-16,37.5-17.8,52.6-4.1c5.2,4.8,9,11,10.8,17.9c2.4,9.1,2.5,18.6,0.5,27.8
				c-0.7,3.6-1.2,7.2-1.5,10.8c-0.1,1.2-1.5,14.8-0.7,14.7c-5.3,0.3-11.4-0.8-15-4.8c1.6,2.8,3,5.5,4.6,8.3
				C129.3,98.8,124.4,92.6,122.7,85.8z"/>
			<path class="st23" d="M95.2,67.2c-2.4-1.4-5.2-2.2-7.4,0.1c-3.2,3.3,1.4,18.6,8.4,14.8c0,0,10.1,14.1,17.5,18.1s12.7,2,15.5-0.9
				c2.8-2.9,12.3-14.6,14-27c0.6-4.4-0.1-13.1,0.1-15c0.4-5.7,2.6-10.4-1.9-14.9c-4.6-4.6-10.8-7.2-17.3-7.5
				c-8.2-0.2-16.1,3.3-21.5,9.4C96.5,51.2,95.5,58.7,95.2,67.2z"/>
			<path class="st25" d="M88.9,71.5c0.6-2.8,3-3.4,4.8-1.4s2.1,8.3,1.7,9.3s-3.6,0.9-4.2-1.1s1.2-3.1,3-2.6c0,0,0.5-2.8-0.9-4.6
				s-2.9-1.1-3.3-0.6C89.6,70.8,89.2,71.1,88.9,71.5z"/>
			<path class="st14" d="M108.3,59.1c0.7-0.6,1.4-1.2,2.1-1.8c0.8-0.6,1.6-1,2.4-1.4c0.8-0.5,1.7-0.8,2.7-0.9c0.9-0.1,1.9,0,2.7,0.4
				v0.1c-0.4,0.2-0.9,0.3-1.3,0.4l-1.3,0.3c-0.8,0.2-1.7,0.3-2.5,0.6c-0.8,0.3-1.7,0.6-2.4,1C109.9,58.2,109.2,58.7,108.3,59.1
				L108.3,59.1z"/>
			<path class="st14" d="M139.8,55.9c-0.8-0.4-1.6-0.7-2.4-0.9c-0.8-0.2-1.7-0.3-2.6-0.3c-0.9,0-1.7,0.2-2.6,0.2
				c-0.9,0-1.8,0-2.7-0.1v-0.1c0.8-0.6,1.7-0.9,2.7-1.1c0.9-0.1,1.9-0.1,2.8,0.1c0.9,0.1,1.8,0.4,2.6,0.7c0.8,0.3,1.6,0.8,2.3,1.4
				L139.8,55.9z"/>
			<path class="st14" d="M116.7,64.1c0-1.2-0.6-2.1-1.4-2.1s-1.3,1.1-1.3,2.3c0,1.2,0.6,2.1,1.4,2.1S116.7,65.3,116.7,64.1z"/>
			<path class="st14" d="M135.8,62.6c0-1.2-0.5-2.2-1.1-2.1s-1,1.1-1,2.3s0.5,2.1,1.1,2.1S135.8,63.8,135.8,62.6z"/>
			<path class="st25" d="M122.7,75.8c1.8,1.2,4.1,1.1,5.9-0.1c-0.1,0.9-0.7,1.8-1.5,2.2c-0.9,0.3-1.9,0.3-2.7-0.1
				C123.5,77.4,123.2,76.6,122.7,75.8z"/>
			<path class="st29" d="M116.1,82.9c5.6-0.1,11.1-0.5,16.7-1.1c-1.2,4-4.5,8-9,8C119.7,89.8,117,86.5,116.1,82.9z"/>
			<path class="st30" d="M119.7,88.5c1.3-0.3,2.6-0.3,3.8,0c1.6-0.9,3.5-1.1,5.2-0.5c-1.4,1.2-3.1,1.8-5,1.9
				C122.3,89.9,120.9,89.4,119.7,88.5z"/>
			<path class="st13" d="M130,85.2c-4,1.2-8.3,1-12.2-0.5c0-0.6,0-1.2-0.1-1.8c3.9-0.1,10.3-0.6,13.7-0.9
				C131.1,83.2,130.7,84.2,130,85.2z"/>
			<path class="st10" d="M99.1,54.1c6.5-0.3,12.9-1.7,18.9-4.2c1.1-2.7,1.2-5,1.4-7.9c1.6,3,2.6,6.3,2.8,9.8
				c3.8-0.3,7.6-0.4,11.4-0.7c0.9-3,1.3-6.1,1-9.3c1.2,3.2,2,6.6,2.4,10c2.3-0.8,5.2,0.4,7.6,0.8c3-6.6,2.8-18.5-3.5-23.5
				c-6.1-4.9-16.7-6.2-24.1-5.1c-15.8,2.3-28.3,15.4-27.3,31.8c0.6,9.3,5.3,18.2,12,24.7C97.6,72.3,96.8,62.9,99.1,54.1z"/>
		</g>
	</g>
	<circle class="st17" cx="256.4" cy="99.1" r="41.9"/>
	<path class="st3" d="M277.2,116.4H236c-1.9,0-3.4-1.5-3.4-3.4V87.1c0-1.9,1.5-3.4,3.4-3.4h41.2c1.9,0,3.4,1.5,3.4,3.4V113
		C280.6,114.9,279.1,116.4,277.2,116.4z"/>
	<path class="st1" d="M236,116.4h41.3c1.9,0,3.4-1.5,3.4-3.4l-24-15.1l-24,15.1C232.7,114.8,234.2,116.3,236,116.4z"/>
	<path class="st6" d="M236,83.7h41.3c1.9,0,3.4,1.5,3.4,3.4l-24,15.1l-24-15.1C232.7,85.3,234.2,83.7,236,83.7z"/>
	
		<ellipse transform="matrix(0.9742 -0.2256 0.2256 0.9742 -21.8921 128.8687)" class="st17" cx="552.8" cy="160.2" rx="41.8" ry="41.8"/>
	<path class="st3" d="M564.6,152h-4.2c-0.4-1.6-1-3.2-1.9-4.6l3-3c0.4-0.4,0.4-1,0.1-1.4c0,0,0,0-0.1-0.1l-3.3-3.3
		c-0.4-0.4-1-0.4-1.4-0.1c0,0,0,0-0.1,0.1l-3,3c-1.4-0.9-3-1.5-4.6-1.9v-4.2c0-0.6-0.4-1-1-1h-4.7c-0.6,0-1,0.4-1,1v4.2
		c-1.6,0.4-3.2,1-4.6,1.9l-3-3c-0.4-0.4-1-0.4-1.4-0.1c0,0,0,0-0.1,0.1l-3.3,3.3c-0.4,0.4-0.4,1.1,0,1.5l3,3c-0.9,1.4-1.5,3-1.9,4.6
		h-4.2c-0.6,0-1,0.4-1,1v4.7c0,0.6,0.4,1,1,1h4.2c0.4,1.6,1,3.2,1.9,4.6l-3,3c-0.4,0.4-0.4,1.1,0,1.5l3.3,3.3c0.4,0.4,1.1,0.4,1.5,0
		l3-3c1.4,0.9,3,1.5,4.6,1.9v4.3c0,0.6,0.4,1,1,1h4.7c0.6,0,1-0.4,1-1V170c1.6-0.4,3.2-1,4.6-1.9l3,3c0.4,0.4,1.1,0.4,1.5,0l3.3-3.3
		c0.4-0.4,0.4-1,0.1-1.4c0,0,0,0-0.1-0.1l-3-3c0.9-1.4,1.5-3,1.9-4.6h4.2c0.6,0,1-0.4,1-1V153C565.6,152.5,565.2,152,564.6,152
		C564.6,152,564.6,152,564.6,152z M545.7,161.8c-3.6,0-6.5-2.9-6.5-6.4c0-3.6,2.9-6.5,6.4-6.5c3.6,0,6.5,2.9,6.5,6.4c0,0,0,0,0,0
		C552.1,158.9,549.3,161.8,545.7,161.8L545.7,161.8z"/>
	<path class="st6" d="M545.7,146.4c-5,0-9,4-9,9s4,9,9,9s9-4,9-9S550.7,146.4,545.7,146.4z M545.7,160.8c-3,0-5.5-2.5-5.5-5.5
		c0-3,2.5-5.5,5.5-5.5c3,0,5.5,2.5,5.5,5.5c0,0,0,0,0,0C551.2,158.4,548.7,160.8,545.7,160.8z"/>
	<path class="st3" d="M582.5,170.4h-2.1c-0.2-0.8-0.5-1.6-1-2.4l1.5-1.5c0.2-0.2,0.2-0.5,0-0.7c0,0,0,0,0,0l-1.7-1.7
		c-0.2-0.2-0.5-0.2-0.7,0c0,0,0,0,0,0l-1.5,1.5c-0.7-0.5-1.5-0.8-2.3-1v-2.1c0-0.3-0.2-0.5-0.5-0.5l0,0h-2.4c-0.3,0-0.5,0.2-0.5,0.5
		c0,0,0,0,0,0v2.1c-0.8,0.2-1.6,0.5-2.3,1l-1.5-1.5c-0.2-0.2-0.5-0.2-0.7,0c0,0,0,0,0,0l-1.7,1.7c-0.2,0.2-0.2,0.5,0,0.8l1.5,1.5
		c-0.5,0.7-0.8,1.5-1,2.4h-2.1c-0.3,0-0.5,0.2-0.5,0.5c0,0,0,0,0,0v2.4c0,0.3,0.2,0.5,0.5,0.5l0,0h2.2c0.2,0.8,0.5,1.6,1,2.4
		l-1.5,1.5c-0.2,0.2-0.2,0.5,0,0.8l1.7,1.7c0.2,0.2,0.5,0.2,0.8,0l1.5-1.5c0.7,0.5,1.5,0.8,2.3,1v2.1c0,0.3,0.2,0.5,0.5,0.5l0,0h2.4
		c0.3,0,0.5-0.2,0.5-0.5c0,0,0,0,0,0v-2.1c0.8-0.2,1.6-0.5,2.3-1l1.5,1.5c0.2,0.2,0.5,0.2,0.8,0l1.7-1.7c0.2-0.2,0.2-0.5,0-0.7
		c0,0,0,0,0,0l-1.6-1.5c0.5-0.7,0.8-1.5,1-2.4h2.1c0.3,0,0.5-0.2,0.5-0.5c0,0,0,0,0,0V171C583.1,170.7,582.9,170.4,582.5,170.4
		C582.5,170.4,582.5,170.4,582.5,170.4z M572.9,175.4c-1.8,0-3.3-1.5-3.3-3.3s1.5-3.3,3.3-3.3c1.8,0,3.3,1.5,3.3,3.3c0,0,0,0,0,0
		C576.2,173.9,574.7,175.4,572.9,175.4C572.9,175.4,572.9,175.4,572.9,175.4L572.9,175.4z"/>
	<path class="st6" d="M572.9,167.5c-2.5,0-4.6,2-4.6,4.6s2,4.6,4.6,4.6s4.6-2,4.6-4.6c0,0,0,0,0,0
		C577.4,169.6,575.4,167.5,572.9,167.5L572.9,167.5z M572.9,174.9c-1.5,0-2.8-1.3-2.8-2.8c0-1.5,1.3-2.8,2.8-2.8
		c1.5,0,2.8,1.3,2.8,2.8c0,0,0,0,0,0C575.7,173.7,574.4,174.9,572.9,174.9L572.9,174.9z"/>
	<circle class="st17" cx="364.3" cy="41.8" r="41.8"/>
	<path class="st13" d="M385.1,63.3h-41.5c-1.8,0-3.3-1.5-3.3-3.3V25.5c0-1.8,1.5-3.3,3.3-3.3h41.5c1.8,0,3.3,1.5,3.3,3.3V60
		C388.4,61.8,386.9,63.3,385.1,63.3z"/>
	<path class="st6" d="M340.3,30.8h48.1v-5.3c0-1.8-1.5-3.3-3.3-3.3h-41.5c-1.8,0-3.3,1.5-3.3,3.3c0,0,0,0,0,0V30.8z"/>
	<path class="st13" d="M376.9,24L376.9,24c0.6,0,1-0.4,1-1v-1.7c0-0.6-0.4-1-1-1l0,0c-0.6,0-1,0.4-1,1V23
		C375.9,23.6,376.4,24,376.9,24z"/>
	<path class="st13" d="M379.7,24L379.7,24c0.6,0,1-0.4,1-1v-1.7c0-0.6-0.4-1-1-1l0,0c-0.6,0-1,0.4-1,1V23
		C378.7,23.6,379.1,24,379.7,24z"/>
	<path class="st13" d="M349,24L349,24c0.6,0,1-0.4,1-1v-1.7c0-0.6-0.4-1-1-1l0,0c-0.6,0-1,0.4-1,1V23C348,23.6,348.5,24,349,24z"/>
	<path class="st13" d="M351.8,24L351.8,24c0.6,0,1-0.4,1-1v-1.7c0-0.6-0.4-1-1-1l0,0c-0.6,0-1,0.4-1,1V23
		C350.8,23.6,351.2,24,351.8,24z"/>
	<path class="st3" d="M367.4,35.9h2.6c0.4,0,0.8,0.4,0.8,0.8v2.6c0,0.4-0.4,0.8-0.8,0.8h-2.6c-0.4,0-0.8-0.4-0.8-0.8v-2.6
		C366.6,36.2,366.9,35.9,367.4,35.9z"/>
	<path class="st3" d="M357.5,35.9h2.6c0.4,0,0.8,0.4,0.8,0.8v2.6c0,0.4-0.4,0.8-0.8,0.8h-2.6c-0.4,0-0.8-0.4-0.8-0.8v-2.6
		C356.7,36.2,357,35.9,357.5,35.9z"/>
	<path class="st3" d="M347.5,35.9h2.6c0.4,0,0.8,0.4,0.8,0.8v2.6c0,0.4-0.4,0.8-0.8,0.8h-2.6c-0.4,0-0.8-0.4-0.8-0.8v-2.6
		C346.8,36.2,347.1,35.9,347.5,35.9z"/>
	<path class="st3" d="M377.3,44.4h2.6c0.4,0,0.8,0.4,0.8,0.8v2.6c0,0.4-0.4,0.8-0.8,0.8h-2.6c-0.4,0-0.8-0.4-0.8-0.8v-2.6
		C376.5,44.8,376.9,44.4,377.3,44.4z"/>
	<path class="st3" d="M367.4,44.4h2.6c0.4,0,0.8,0.4,0.8,0.8v2.6c0,0.4-0.4,0.8-0.8,0.8h-2.6c-0.4,0-0.8-0.4-0.8-0.8v-2.6
		C366.6,44.8,366.9,44.4,367.4,44.4z"/>
	<path class="st3" d="M357.5,44.4h2.6c0.4,0,0.8,0.4,0.8,0.8v2.6c0,0.4-0.4,0.8-0.8,0.8h-2.6c-0.4,0-0.8-0.4-0.8-0.8v-2.6
		C356.7,44.8,357,44.4,357.5,44.4z"/>
	<path class="st3" d="M347.5,44.4h2.6c0.4,0,0.8,0.4,0.8,0.8v2.6c0,0.4-0.4,0.8-0.8,0.8h-2.6c-0.4,0-0.8-0.4-0.8-0.8v-2.6
		C346.8,44.8,347.1,44.4,347.5,44.4z"/>
	<path class="st3" d="M377.3,53h2.6c0.4,0,0.8,0.4,0.8,0.8v2.6c0,0.4-0.4,0.8-0.8,0.8h-2.6c-0.4,0-0.8-0.4-0.8-0.8v-2.6
		C376.5,53.3,376.9,53,377.3,53z"/>
	<path class="st3" d="M367.4,53h2.6c0.4,0,0.8,0.4,0.8,0.8v2.6c0,0.4-0.4,0.8-0.8,0.8h-2.6c-0.4,0-0.8-0.4-0.8-0.8v-2.6
		C366.6,53.3,366.9,53,367.4,53z"/>
	<path class="st3" d="M357.5,53h2.6c0.4,0,0.8,0.4,0.8,0.8v2.6c0,0.4-0.4,0.8-0.8,0.8h-2.6c-0.4,0-0.8-0.4-0.8-0.8v-2.6
		C356.7,53.3,357,53,357.5,53z"/>
	
		<ellipse transform="matrix(0.7071 -0.7071 0.7071 0.7071 96.9961 360.7341)" class="st17" cx="483.9" cy="63.3" rx="41.8" ry="41.8"/>
	<circle class="st13" cx="483.9" cy="63.3" r="28.6"/>
	<path class="st6" d="M483.9,34.7c-15.8,0-28.6,12.8-28.6,28.6s12.8,28.6,28.6,28.6s28.6-12.8,28.6-28.6c0,0,0,0,0,0
		C512.6,47.5,499.8,34.7,483.9,34.7C484,34.7,484,34.7,483.9,34.7z M486.3,87.7v-3.9c0-0.7-0.6-1.3-1.3-1.3c0,0,0,0,0,0h-2.2
		c-0.7,0-1.3,0.6-1.3,1.3c0,0,0,0,0,0v3.9c-11.6-1.1-20.9-10.4-22-22h3.9c0.7,0,1.3-0.6,1.3-1.3v-2.1c0-0.7-0.6-1.3-1.3-1.3l0,0
		h-3.9c1.1-11.6,10.4-20.9,22-22v3.9c0,0.7,0.6,1.3,1.3,1.3c0,0,0,0,0,0h2.2c0.7,0,1.3-0.6,1.3-1.3c0,0,0,0,0,0v-3.9
		c11.6,1.1,20.9,10.4,22,22h-3.9c-0.7,0-1.3,0.6-1.3,1.3v0v2.2c0,0.7,0.6,1.3,1.3,1.3h3.9C507.2,77.3,498,86.5,486.3,87.7z"/>
	<text transform="matrix(1 0 0 1 466.9177 70.0967)" class="st31 st32 st33">2</text>
	<text transform="matrix(1 0 0 1 476.5577 70.0967)" class="st31 st32 st33">4</text>
	<text transform="matrix(1 0 0 1 486.7377 70.0967)" class="st31 st32 st33">/7</text>
</g>
</svg>
