<?xml version="1.0" encoding="utf-8"?>
<!-- Generator: Adobe Illustrator 24.0.1, SVG Export Plug-In . SVG Version: 6.00 Build 0)  -->
<svg version="1.1" id="Layer_1" xmlns="http://www.w3.org/2000/svg" xmlns:xlink="http://www.w3.org/1999/xlink" x="0px" y="0px"
	 viewBox="0 0 2843 2000" style="enable-background:new 0 0 2843 2000;" xml:space="preserve">
<style type="text/css">
	.st0{fill:#F7CC7F;}
	.st1{fill:#12C2E9;}
	.st2{fill:#07345A;}
	.st3{fill:#F54394;}
	.st4{fill:#355389;}
	.st5{fill:#0EB2CC;}
	.st6{fill:#5184CE;}
	.st7{fill:#466EB6;}
	.st8{opacity:0.3;fill:#184655;enable-background:new    ;}
	.st9{fill:#184655;}
	.st10{fill:#CCE6FF;}
	.st11{fill:#E9FFFF;}
	.st12{opacity:0.6;fill:#9BC1F9;enable-background:new    ;}
	.st13{opacity:0.3;fill:#9BC1F9;enable-background:new    ;}
	.st14{fill:#FFFFFF;}
	.st15{fill:#13375B;}
	.st16{fill:#9BC1F9;}
	.st17{fill:#A34B3D;}
	.st18{fill:#A00854;}
	.st19{fill:#F7A491;}
	.st20{fill:#E0973F;}
	.st21{fill:#DD513A;}
	.st22{fill:#0E2E35;}
	.st23{fill:#F38B80;}
	.st24{fill:#F48C7F;}
	.st25{fill:#F47458;}
	.st26{opacity:0.6;fill:#C5DDF9;enable-background:new    ;}
	.st27{opacity:0.5;fill:#50BFA5;enable-background:new    ;}
	.st28{fill:#F8A492;}
</style>
<title>bn_con15</title>
<g>
	<g id="Layer_1_1_">
		<path class="st0" d="M2059.2,488.8c-38.5,151.7,53.5,306.4,205.2,345s306.4-53.5,345-205.2s-53.5-306.5-205.2-345
			S2097.7,337.1,2059.2,488.8z M2129.3,497L2129.3,497c34.1-113.2,153.4-177.4,266.7-143.3l0,0c113.2,34.1,177.4,153.5,143.3,266.7
			l0,0c-34.1,113.2-153.5,177.4-266.7,143.3l0,0C2159.4,729.6,2095.2,610.2,2129.3,497z"/>
		<path class="st0" d="M1862.5,489.2c1.3,6.8,7.5,9.1,22.6,15.1c27.1,10.8,54.2,21.5,80.9,33.2c4.2,1.8,8.4,8.4,8.9,13.2
			c3.1,28.3,4.4,56.9,7.8,85.2c1,8.8,0.2,13.4-7.7,18.4c-31.5,19.8-62.5,40.5-93.3,60.6c7.7,33,46.5,107.3,67.3,128.1
			c32.7-13.8,66.3-27.3,99.3-42.2c10.3-4.6,15.5-3.7,24.1,4.5c19.9,19,41.6,36.2,63.4,53c8.9,6.8,13.6,12.1,10.7,24.3
			c-7.4,31.6-13,63.7-19.9,95.4c-1.9,8.5-0.2,13.9,8.2,16.5c39.6,12.3,79.2,24.5,118.9,36.7c9.7,3,11.2-5,13.7-10.7
			c12.3-29,24.8-58,36.1-87.4c4.3-11,9.9-14.7,21.9-15c31.8-1,63.4-4.1,97.6-6.5l65.4,99.3c46-15.2,87.5-38,126.7-68.2L2570.4,835
			c23.5-29.8,45.9-56.9,66.6-85.2c6-8.2,10.7-9.5,19.7-7.6c31.3,6.9,62.7,12.8,94,19.4c6.8,1.4,11.7,1.7,15.2-5.7
			c17.5-37.4,31.6-75.7,37.4-116.9c1.3-9.2-2-12.8-9.6-15.9c-30.4-12.6-60.7-25.7-91.2-38.2c-7.4-3-10.5-6.2-11.1-15.2
			c-2.3-31.3-6-62.5-10.5-93.5c-1.1-7.9,1.4-11,7-14.7c31.1-20.5,62-41.2,93.8-62.4c-16.1-45.3-36.7-87.3-66.2-126l-112.2,46.7
			l-91.7-76.1c5.6-28,12.3-60.1,18.4-92.4c5-26.5,8.8-23-17.8-34.2c-2.5-1.1-4.7-3-7-4.6L2434,91.1c-5.6-0.6-11.4-0.4-16.6-2.1
			c-13.6-4.3-21.3-1.2-26.7,13.4c-11.3,30.4-24.5,60.1-37.7,89.8c-1.7,3.9-7.4,7.9-11.6,8.5c-27.8,3.5-56.1,4.6-83.6,9.6
			c-13.5,2.4-19.1-1.3-25.8-11.8c-18.9-29.8-39-58.8-60.5-91.1l-126.4,66.4c3.3,8.4,5.1,13.3,7.1,18c12.3,29.5,24.3,59.2,37.1,88.5
			c3.6,8.3,1.8,13-3.9,19.8c-19.6,23.3-37.7,47.8-57.1,71.2c-3,3.6-10.4,6.2-15.2,5.4c-25.8-4.5-51.5-10.4-77.2-15.4
			c-20.8-4-28.6-5.5-35.2,1.3L1862.5,489.2z M2049.4,486.3c40-157.3,199.9-252.4,357.2-212.5c157.3,40,252.4,199.9,212.5,357.2
			s-199.9,252.4-357.2,212.5c-75.5-19.2-140.4-67.6-180.2-134.6C2041.6,642,2030,561.8,2049.4,486.3z"/>
		<path class="st1" d="M258.9,882c4.4,3.4,9.3,1.6,21.7-2.7c22.1-7.7,44.2-15.4,66.5-22.4c3.5-1.1,9.5,0.7,12.3,3.3
			c16.8,15.6,32.6,32.2,49.5,47.6c5.3,4.8,7.2,8.1,5,15.2c-8.7,28.6-16.7,57.4-24.8,85.9c22.1,16,84.7,40.7,108.2,42.4
			c12.6-25.5,25.9-51.4,38.2-77.8c3.8-8.2,7.5-10.4,17-10c22.1,1.1,44.3,0.2,66.4-1.2c8.9-0.5,14.6,0.2,19.3,9.1
			c12.1,23.1,25.6,45.5,38.1,68.4c3.3,6.2,7.1,8.6,13.6,5.7c30.5-13.4,61-26.8,91.5-40.2c7.5-3.3,4.2-8.9,2.7-13.7
			c-7.8-24.1-15.4-48.3-24-72.1c-3.2-8.9-1.7-14.2,5.4-20.7c18.8-17.3,36.4-35.8,55.8-55.2l92,25.9c19.9-33.4,33.1-69.1,41.1-108
			l-83.8-41.8c-1.4-30.4-2-58.7-4.3-86.8c-0.7-8.1,1.5-11.4,8-15c22.6-12.3,44.8-25.2,67.3-37.7c4.9-2.7,8-5.1,6.2-11.5
			c-9-31.9-20.6-62.6-38.8-90.6c-4-6.2-8-6.7-14.2-4.6c-25.1,8.4-50.4,16.3-75.5,24.7c-6.1,2-9.6,1.8-14.7-3.4
			c-17.8-17.8-36.5-34.8-55.5-51.3c-4.9-4.2-5-7.4-3.5-12.6c8.1-28.8,16-57.6,24.2-87.2c-33.6-19-68.2-33.7-106.4-41.7l-43.6,87.3
			l-95.7,2c-11.3-19.9-24.1-43-37.4-65.8c-11-18.7-6.8-18.6-28.8-11.4c-2.1,0.7-4.5,0.6-6.7,0.9l-54.6,24.5
			c-3.7,2.5-7.1,5.8-11.2,7.5c-10.5,4.5-13.6,10.5-9.2,22.2c9.1,24.4,16.7,49.4,24.3,74.3c1,3.3-0.3,8.7-2.6,11.3
			c-15.1,16.8-31.6,32.3-45.7,49.8c-6.9,8.6-12.3,9.3-21.9,6.4c-27.1-8.2-54.6-15.2-84.6-23.5c-14.1,36-27.9,71.2-41.9,106.8
			c6.4,3.3,10.1,5.3,13.8,7.2c23,11.5,45.9,23.2,69.1,34.2c6.6,3.1,7.9,7,8,14.1c0.4,24.4,2.3,48.8,2.8,73.2
			c0.1,3.8-3.1,9.3-6.4,11.2c-18.1,10.9-36.7,20.7-55,31.2c-14.8,8.5-20.3,11.7-20.7,19.3L258.9,882z M370.9,782
			c-58.4-116.5-11.4-258.3,105.1-316.8s258.3-11.4,316.8,105.1s11.4,258.3-105.1,316.8c-56,28.1-120.8,32.7-180.2,13
			C448,880.6,398.8,838,370.9,782L370.9,782z"/>
		<path class="st0" d="M532.2,235.6l9-16.5l-8.5-16.8c-0.6-1.3-0.1-2.8,1.1-3.5c0.5-0.3,1.1-0.3,1.6-0.2l18.4,3.5l13.3-13.2
			c1-1,2.6-1,3.6,0c0.4,0.4,0.7,0.9,0.7,1.5L574,209l16.7,8.6c1.3,0.6,1.8,2.2,1.1,3.5c-0.3,0.5-0.7,0.9-1.2,1.2l-16.9,8l-3,18.5
			c-0.2,1.4-1.5,2.4-2.9,2.1c-0.6-0.1-1.1-0.4-1.5-0.8l-12.9-13.7l-18.5,2.9c-1.4,0.2-2.7-0.7-2.9-2.2
			C531.9,236.6,532,236.1,532.2,235.6z"/>
		<path class="st2" d="M1511.9,313.7l7.7-12.5l-6.2-2.5c-1.3-0.5-2-2.1-1.4-3.4l0,0c0.5-1.3,2.1-2,3.4-1.5c0,0,0,0,0,0l7.1,2.9
			l6.8-11.2l-6.6-2.7c-1.3-0.5-2-2.1-1.5-3.4c0,0,0,0,0,0l0,0c0.5-1.3,2.1-2,3.4-1.5c0,0,0,0,0,0l7.5,3l8-12.8c0.7-1.1,2-1.5,3.2-1
			l1.2,0.5c1.3,0.5,2,2.1,1.4,3.4c-0.1,0.1-0.1,0.3-0.2,0.4l-7.4,12.1l10.9,4.4l8-12.8c0.7-1.1,2-1.5,3.2-1l1.3,0.5
			c1.3,0.5,2,2.1,1.4,3.4c-0.1,0.1-0.1,0.3-0.2,0.4l-7.4,12.1l6.2,2.5c1.3,0.6,2,2.1,1.4,3.4l0,0c-0.5,1.3-2.1,2-3.4,1.5
			c0,0,0,0,0,0l-7.1-2.9l-6.8,11.2l6.6,2.7c1.3,0.6,2,2.1,1.4,3.4l0,0c-0.5,1.3-2.1,2-3.4,1.5c0,0,0,0,0,0l-7.5-3l-8.1,13.3
			c-0.7,1.1-2,1.5-3.2,1.1l-1.3-0.5c-1.4-0.5-2-2.1-1.5-3.4c0.1-0.1,0.1-0.3,0.2-0.4l7.7-12.5l-10.9-4.4l-8.1,13.2
			c-0.7,1.1-2.1,1.5-3.2,1l-1.3-0.5c-1.3-0.6-2-2.1-1.4-3.4C1511.8,313.9,1511.9,313.8,1511.9,313.7z M1539.7,303.7l6.8-11.2
			l-10.9-4.4l-6.8,11.2L1539.7,303.7z"/>
		<path class="st3" d="M1462.7,530.4l-10.4,55.2c0.9,2.8,3.6,3.5,10.2,5.4c11.9,3.3,23.8,6.6,35.6,10.3c1.9,0.6,3.9,3.2,4.4,5.2
			c2.6,11.8,4.4,23.8,7.1,35.6c0.8,3.7,0.7,5.7-2.4,8.1c-12.4,9.8-24.5,19.9-36.6,29.8c4.7,13.6,24.5,43.2,34.2,51
			c13.2-7.3,26.8-14.5,40-22.3c4.1-2.4,6.4-2.3,10.4,0.8c9.4,7,19.1,13.5,29.2,19.5c4.1,2.5,6.3,4.5,5.6,9.8
			c-1.7,13.7-2.6,27.4-4.1,41.1c-0.4,3.7,0.5,5.9,4.2,6.6l51.8,10.2c4.2,0.8,4.5-2.6,5.3-5.2c3.9-12.8,7.8-25.6,11.3-38.5
			c1.3-4.8,3.5-6.6,8.6-7.3c13.4-1.8,26.6-4.6,40.9-7.1l32.1,39c18.6-8.6,35.7-20.2,50.4-34.5l-23.7-43.4
			c8.6-13.6,16.8-26.1,24.3-38.9c2.2-3.7,4.1-4.5,8-4.1c13.5,1.5,27,2.6,40.6,4c2.9,0.3,5,0.2,6.2-3.1c5.7-16.6,10-33.4,10.5-51
			c0.1-3.9-1.4-5.3-4.8-6.3c-13.4-3.9-26.8-8.1-40.2-12c-3.3-0.9-4.7-2.1-5.4-5.9c-2.4-13.1-5.3-26.1-8.6-39
			c-0.8-3.3,0.1-4.7,2.3-6.5c12.2-10,24.3-20.2,36.8-30.5c-8.8-18.4-19.4-35.2-33.6-50.2l-45.2,24.8l-42.1-28
			c1.1-12,2.5-25.9,3.6-39.8c0.9-11.4,2.7-10.1-9-13.6c-1.1-0.4-2.2-1-3.2-1.6l-31.1-5.9c-2.4,0-4.8,0.4-7.1-0.1
			c-5.9-1.2-9,0.5-10.7,6.8c-3.4,13.3-7.6,26.5-11.8,39.6c-0.8,2-2.5,3.5-4.5,4.1c-11.6,2.7-23.4,4.5-34.8,7.8
			c-5.6,1.6-8.1,0.3-11.4-3.8c-9.3-11.7-19.1-23.1-29.7-35.7l-50.3,33.7c1.8,3.4,2.8,5.4,3.8,7.3c6.5,11.9,12.9,23.9,19.7,35.7
			c1.9,3.4,1.3,5.4-0.8,8.5c-7.2,10.7-13.7,21.9-20.9,32.6c-1.5,1.9-3.8,2.9-6.2,2.9c-11.1-0.7-22.2-2.1-33.3-3
			C1468.6,527.5,1465.2,527.3,1462.7,530.4z M1565.3,576.9c9.3-49.3,56.8-81.7,106.1-72.5l0,0c49.3,9.3,81.8,56.8,72.5,106.1
			c0,0,0,0,0,0l0,0c-9.3,49.3-56.8,81.8-106.1,72.5c0,0,0,0,0,0l0,0C1588.5,673.7,1556,626.2,1565.3,576.9
			C1565.3,576.9,1565.3,576.9,1565.3,576.9L1565.3,576.9z"/>
		<polygon class="st4" points="1102.1,228 1134.7,232 1120.8,206.6 		"/>
		<path class="st3" d="M1222,509.5c-1,11,8.5,21.1,19,23c10.9,1.9,20.6-5.2,24.4-15.2c7.4-19.8-14.3-35.4-26-23.5
			c-11,11.2-7.5,27.8,4.3,27.8c4.5,0,11.7-3.8,8.8-9.2c-0.5-0.9-1.6-1.1-2.5-0.6c-0.3,0.2-0.5,0.4-0.6,0.6c-1.4,2.4-1.3,2.5-2,3.1
			c-1.1,0.8-2.5,1.2-3.9,1.1c-12.1-0.2-4-27.8,10.2-21.1c7.8,3.7,10.1,12.5,7.4,20.3c-2.6,7.5-9.6,13.2-17.7,12.7
			c-9.7-0.6-17.8-9.5-18.4-19c0-0.8-0.7-1.5-1.5-1.5S1222,508.8,1222,509.5L1222,509.5z"/>
		<path class="st5" d="M1818.6,100.8l9.8,4.2c0,0,16.3-3.6,18.1-6.7s2.9-10.8,5.2-10.8c3.8-0.1,7,2.8,7.2,6.5
			c0.4,3.9-6.2,14.6-5.4,15.8c0.5,0.8,6,3.4,10.1,5.2c2.7,1.2,4.5,3.8,4.7,6.7l0,0c0.1,2-1.1,3.8-3.1,4.3l-3,0.8l0.7,3
			c0.5,2.2-0.9,4.5-3.1,5l-2.3,0.5l0.6,1.9c0.7,2.2-0.6,4.6-2.8,5.3c-0.1,0-0.3,0.1-0.4,0.1l-2,0.4v0.5c0.2,2.2-1.4,4.1-3.5,4.5
			l-2,0.3l-26-11.2c-2.4-1-4.6-2.6-6.5-4.5l-8.5-5.4c-0.9-0.6-1.3-1.8-0.8-2.8l10.1-22.7C1816.2,100.7,1817.5,100.3,1818.6,100.8
			C1818.6,100.8,1818.6,100.8,1818.6,100.8z"/>
		<path class="st6" d="M1367.7,566.1h176.5c18.1,0,32.7,14.6,32.7,32.7v57.8c0,18.1-14.6,32.7-32.7,32.7h-176.5
			c-18.1,0-32.7-14.6-32.7-32.7v-57.8C1335,580.7,1349.6,566.1,1367.7,566.1z"/>
		<polygon class="st7" points="1310.4,1780.8 1123.4,1867 1123.4,1886.1 1789.1,1886.1 1789.1,1867 1600.5,1780.8 		"/>
		<rect x="1310.4" y="1411.5" class="st7" width="290.3" height="369.4"/>
		<path class="st7" d="M2333.8,1527.4V694.4c0-39.6-32.1-71.7-71.7-71.7H646.9c-39.6,0-71.7,32.1-71.7,71.7v833.1L2333.8,1527.4z"/>
		<rect x="1123.4" y="1867" class="st8" width="665.7" height="19.1"/>
		<rect x="1310.4" y="1737.5" class="st8" width="290.2" height="43.3"/>
		<path class="st6" d="M575.3,1527.4v133.5c0,27.8,18.3,50.3,41,50.3h1676.6c22.6,0,41-22.5,41-50.3v-133.5H575.3z"/>
		<path class="st9" d="M1473.7,598.8c0,9-7.3,16.3-16.3,16.3c-9,0-16.3-7.3-16.3-16.3c0-9,7.3-16.3,16.3-16.3l0,0
			C1466.3,582.5,1473.7,589.8,1473.7,598.8z"/>
		<path class="st10" d="M2292.7,1491.3V696.6c0-20.8-17.5-37.7-39.1-37.7H655.5c-21.6,0-39.1,16.9-39.1,37.7v794.7H2292.7z"/>
		<rect x="690" y="723" class="st11" width="1007.5" height="703"/>
		<rect x="690" y="723" class="st6" width="1007.5" height="82.3"/>
		<rect x="2056.1" y="898.9" class="st12" width="68.8" height="532.3"/>
		<rect x="1960.1" y="1061.3" class="st12" width="68.8" height="369.9"/>
		<rect x="2153.5" y="1014.2" class="st12" width="68.8" height="417"/>
		<rect x="1864" y="997.8" class="st12" width="68.8" height="433.4"/>
		<rect x="1768" y="1126.3" class="st12" width="68.8" height="304.9"/>
		<rect x="2056.1" y="1021.6" class="st13" width="68.8" height="409.6"/>
		<rect x="1960.1" y="1146.5" class="st13" width="68.8" height="284.7"/>
		<rect x="2153.5" y="1110.3" class="st13" width="68.8" height="320.9"/>
		<rect x="1864" y="1097.7" class="st13" width="68.8" height="333.5"/>
		<rect x="1768" y="1196.6" class="st13" width="68.8" height="234.6"/>
		<rect x="724.8" y="839.2" class="st12" width="929.9" height="119.4"/>
		<rect x="1056.2" y="992.5" class="st12" width="598.5" height="30.6"/>
		<rect x="724.8" y="992.5" class="st6" width="294.5" height="353"/>
		<rect x="1056.2" y="1057" class="st12" width="598.5" height="30.6"/>
		<rect x="1056.2" y="1250.4" class="st12" width="598.5" height="30.6"/>
		<rect x="1056.2" y="1314.9" class="st12" width="598.5" height="30.6"/>
		<path class="st0" d="M304.5,1119.1l559-1c8.4,0,15.2,6.8,15.2,15.2l1.3,736.6c0,8.4-6.8,15.2-15.2,15.2l-559,1
			c-8.4,0-15.2-6.8-15.2-15.2l-1.3-736.6C289.3,1125.9,296,1119.1,304.5,1119.1C304.4,1119.1,304.4,1119.1,304.5,1119.1z"/>
		
			<rect x="320.5" y="1140" transform="matrix(1 -1.745326e-03 1.745326e-03 1 -2.6171 1.0226)" class="st14" width="528.1" height="720"/>
		<path class="st15" d="M698.4,1108.2c0-3.2-2.6-5.9-5.9-5.8l-221.7,0.4c-3.2,0-5.9,2.6-5.9,5.8c0,0,0,0,0,0v23.1l233.4-0.4V1108.2z
			"/>
		<path class="st15" d="M581.6,1074.5c-19.3,0-35,15.7-35,35c0,19.3,15.7,35,35,35s35-15.7,35-35c0,0,0-0.1,0-0.1
			C616.6,1090.1,600.9,1074.5,581.6,1074.5z M581.8,1131.9c-12.4,0-22.5-10-22.5-22.4s10-22.5,22.4-22.5c12.4,0,22.5,10,22.5,22.4
			c0,0,0,0,0,0C604.1,1121.8,594.1,1131.9,581.8,1131.9z"/>
		<path class="st4" d="M694.8,1102.8c2.2,0.9,3.6,3,3.6,5.4v23l-233.5,0.4c0,16,13,28.9,28.9,28.9c0,0,0,0,0.1,0l175.6-0.3
			c16,0,28.9-13,28.9-29c0,0,0,0,0,0v-23C698.4,1105.8,697,1103.7,694.8,1102.8z"/>
		<path class="st16" d="M470.8,1102.8L470.8,1102.8c-2,0-3.8,1-4.9,2.6C467.1,1103.7,468.9,1102.8,470.8,1102.8z"/>
		<path class="st16" d="M465.2,1106.9c0.1-0.4,0.3-0.7,0.4-1.1C465.5,1106.2,465.4,1106.5,465.2,1106.9z"/>
		<path class="st9" d="M787.5,1351.9l-75.1,0.1l-0.1-75.1l75.1-0.1L787.5,1351.9z M715.5,1349l68.9-0.1l-0.1-68.9l-68.9,0.1
			L715.5,1349z"/>
		<path class="st9" d="M787.7,1476.8l-75.1,0.1l-0.1-75.1l75.1-0.1L787.7,1476.8z M715.7,1473.9l68.9-0.1l-0.1-68.9l-68.9,0.1
			L715.7,1473.9z"/>
		<path class="st9" d="M787.9,1601.7l-75.1,0.1l-0.1-75.1l75.1-0.1L787.9,1601.7z M715.9,1598.8l68.9-0.1l-0.1-68.9l-68.9,0.1
			L715.9,1598.8z"/>
		<path class="st9" d="M788.2,1726.6l-75.1,0.1l-0.1-75.1l75.1-0.1L788.2,1726.6z M716.2,1723.7l68.9-0.1l-0.1-68.9l-68.9,0.1
			L716.2,1723.7z"/>
		
			<rect x="359.5" y="1278.9" transform="matrix(1 -1.745326e-03 1.745326e-03 1 -2.2407 0.9098)" class="st16" width="321.3" height="10.8"/>
		
			<rect x="359.6" y="1309.5" transform="matrix(1 -1.745326e-03 1.745326e-03 1 -2.2941 0.9099)" class="st16" width="321.3" height="10.8"/>
		
			<rect x="359.6" y="1340.1" transform="matrix(1 -1.745326e-03 1.745326e-03 1 -2.3475 0.91)" class="st16" width="321.3" height="10.8"/>
		
			<rect x="359.7" y="1408.1" transform="matrix(1 -1.745326e-03 1.745326e-03 1 -2.4661 0.9104)" class="st16" width="321.3" height="10.8"/>
		
			<rect x="359.8" y="1438.7" transform="matrix(1 -1.745326e-03 1.745326e-03 1 -2.5195 0.9105)" class="st16" width="321.3" height="10.8"/>
		
			<rect x="359.8" y="1469.3" transform="matrix(1 -1.745326e-03 1.745326e-03 1 -2.573 0.9107)" class="st16" width="321.3" height="10.8"/>
		
			<rect x="360" y="1530.4" transform="matrix(1 -1.745326e-03 1.745326e-03 1 -2.6798 0.9109)" class="st16" width="321.3" height="10.8"/>
		
			<rect x="360" y="1561" transform="matrix(1 -1.745326e-03 1.745326e-03 1 -2.7332 0.9111)" class="st16" width="321.3" height="10.8"/>
		
			<rect x="360.1" y="1591.6" transform="matrix(1 -1.745326e-03 1.745326e-03 1 -2.7866 0.9112)" class="st16" width="321.3" height="10.8"/>
		
			<rect x="360.2" y="1652.8" transform="matrix(1 -1.745326e-03 1.745326e-03 1 -2.8934 0.9115)" class="st16" width="321.3" height="10.8"/>
		
			<rect x="360.2" y="1683.4" transform="matrix(1 -1.745326e-03 1.745326e-03 1 -2.9468 0.9116)" class="st16" width="321.3" height="10.8"/>
		
			<rect x="360.3" y="1714" transform="matrix(1 -1.745326e-03 1.745326e-03 1 -3.0002 0.9118)" class="st16" width="321.3" height="10.8"/>
		
			<rect x="360.4" y="1793.1" transform="matrix(1 -1.745326e-03 1.745326e-03 1 -3.1381 0.9552)" class="st16" width="370.6" height="10.8"/>
		
			<rect x="360.4" y="1819.2" transform="matrix(1 -1.745326e-03 1.745326e-03 1 -3.1837 1.0191)" class="st16" width="443.7" height="10.8"/>
		<polygon class="st3" points="749.6,1339.6 726.3,1299.6 734.6,1294.8 748.1,1318 770.2,1265 779.1,1268.7 		"/>
		<polygon class="st3" points="749.8,1466.2 726.5,1426.2 734.8,1421.3 748.4,1444.5 770.5,1391.5 779.4,1395.3 		"/>
		<polygon class="st3" points="750.3,1713.6 726.9,1673.6 735.3,1668.7 748.8,1691.9 770.9,1638.9 779.8,1642.7 		"/>
		<polygon class="st3" points="776.2,1545.3 769.5,1538.5 750.3,1557.5 731.1,1538.6 724.4,1545.4 743.5,1564.3 724.4,1583.2 
			731.2,1590 750.3,1571 769.6,1589.9 776.3,1583.1 757.1,1564.2 		"/>
		<path class="st13" d="M374.4,1618.9c-18.4,0-36.6,3.7-53.5,10.8v17.6c60.7-29.7,134-4.7,163.7,56c27.4,55.9,8.5,123.3-43.9,156.9
			h26.4c1.9-1.7,3.8-3.5,5.6-5.3c53.9-54.1,53.8-141.7-0.4-195.7C446.3,1633.4,411.1,1618.9,374.4,1618.9L374.4,1618.9z"/>
		<path class="st13" d="M374.4,1656.4c-18.9,0-37.5,5.4-53.5,15.5v9.6c41.8-29.7,99.8-19.8,129.5,22s19.8,99.8-22,129.5
			c-32.1,22.8-75,22.8-107.2,0.2v9.6c47.2,29.5,109.4,15.1,138.9-32.2c29.5-47.2,15.1-109.4-32.2-138.9
			C411.9,1661.7,393.3,1656.4,374.4,1656.4L374.4,1656.4z"/>
		<path class="st9" d="M471.9,1243.7v-36h-14.3v-3.2h33.2v3.2h-14.3v36H471.9z"/>
		<path class="st9" d="M527.3,1240.6v3.2h-28.8v-39.1h27.8v3.2H503v13.7h16.8v3.2H503v16L527.3,1240.6z"/>
		<path class="st9" d="M531.9,1234.4l3.9-1.3c1.1,2.5,2.8,4.6,5,6.2c2.3,1.4,4.9,2.1,7.5,2c2.6,0.1,5.2-0.6,7.4-2.1
			c1.8-1.2,2.8-3.3,2.8-5.5c0-1.7-0.6-3.3-1.8-4.5c-1.8-1.5-3.9-2.6-6.2-3.2c-1.6-0.5-3.7-1.1-6.3-1.8c-1.7-0.4-3.4-1-5-1.6
			c-1.9-0.8-3.6-2-5-3.5c-1-1.3-1.5-2.9-1.5-4.6c-0.1-3,1.3-5.9,3.7-7.7c2.4-1.9,5.8-2.8,10.2-2.8c3.3-0.1,6.6,0.7,9.5,2.3
			c2.6,1.7,4.6,4.1,5.7,7l-3.8,1c-1-2.2-2.6-4.1-4.6-5.4c-2.1-1.2-4.5-1.8-7-1.7c-2.3-0.1-4.6,0.5-6.5,1.9c-1.6,1.1-2.5,3-2.5,4.9
			c0,1.4,0.6,2.8,1.6,3.8c1.4,1.2,3.2,2.1,5,2.5c0.9,0.3,2.1,0.6,3.8,1.1c3.2,0.7,6.2,1.8,9.2,3.1c1.9,0.9,3.5,2.2,4.8,3.8
			c1,1.4,1.5,3.2,1.5,4.9c0.1,3.2-1.4,6.3-4,8.2c-2.7,2-6.3,3-10.8,3c-3.5,0.1-7-0.7-10.1-2.4
			C535.4,1240.1,533.2,1237.5,531.9,1234.4z"/>
		<path class="st9" d="M581.8,1243.7v-36h-14.3v-3.2h33.2v3.2h-14.3v36H581.8z"/>
		<path class="st9" d="M609.2,1243.7v-39.1h4.5v39.1H609.2z"/>
		<path class="st9" d="M631.7,1207.4v36.3h-4.3v-39.1h7.3l23.2,33v-33h4.3v39.1h-4.8L631.7,1207.4z"/>
		<path class="st9" d="M703.3,1239.3c-1.6,1.7-3.6,3-5.7,3.9c-2.5,0.9-5.1,1.3-7.7,1.3c-6,0-10.6-1.7-13.7-5.2s-4.7-8.5-4.7-15.1
			c0-6.5,1.6-11.5,4.8-15.1s7.7-5.3,13.6-5.3c4.3,0,7.8,0.9,10.4,2.8s4.5,4.8,5.8,8.8l-4.2,0.7c-0.8-2.7-2.3-5.2-4.5-7
			c-2.2-1.6-4.8-2.4-7.5-2.3c-4.4,0-7.7,1.5-10.1,4.4s-3.6,7.1-3.6,12.4c0,5.8,1.2,10.1,3.6,13.1s6,4.4,10.8,4.4
			c3.1,0.1,6.1-0.7,8.6-2.5c2.1-1.5,3.3-4,3.3-6.6v-4.2h-12v-2.9h16.9v18.7h-4L703.3,1239.3z"/>
		<path class="st5" d="M1271.6,275l-10.2,39.7l31.2-17.5l93.2-34.4l-68.7-1.9c0,0-35.6,4.3-37.7,5.7S1271.6,275,1271.6,275z"/>
		<polygon class="st1" points="1244.4,247 1385.8,262.9 1271.6,275 		"/>
		<polygon class="st1" points="1312.1,321.1 1278.7,286.9 1385.8,262.9 		"/>
		<path class="st16" d="M1057.4,396.6c1.6-6.2,3.8-12.2,6.7-17.9l3,1.5c-1.3,2.7-2.5,5.4-3.6,8.2c-1.1,3-2.1,6-2.9,9.1
			c-0.2,0.9-0.4,1.8-0.7,2.7l-3.3-0.7C1057,398.5,1057.2,397.5,1057.4,396.6z M1075.9,360.2c4.5-5.7,9.6-11,15-15.9l2.2,2.5
			c-5.3,4.7-10.2,9.9-14.6,15.5L1075.9,360.2z M1182.1,366.2l-0.5-0.4l2.2-2.5l0.4,0.4c0.1,0.1,0.2,0.1,0.3,0.1
			c1.8,0.7,6.5,1.2,9.4,0c2.5-1.2,4.6-3.1,6.1-5.5l2.8,1.8c-1.8,2.9-4.4,5.2-7.6,6.7c-4,1.8-9.7,1-11.9,0.1
			C1182.9,366.8,1182.5,366.5,1182.1,366.2L1182.1,366.2z M1108.2,331c6.1-4,12.4-7.7,18.9-10.9l1.5,3c-6.4,3.2-12.6,6.7-18.5,10.7
			L1108.2,331z M1171.9,338.7c0.4-3.3,1.2-6.5,2.4-9.6c0.7-1.8,1.4-3.5,2.3-5.1l3,1.5c-0.8,1.6-1.5,3.2-2.2,4.8
			c-1.1,2.8-1.8,5.8-2.2,8.8c-0.2,2.1-0.3,4.2-0.1,6.3l-3.3,0.3C1171.6,343.3,1171.7,341,1171.9,338.7L1171.9,338.7z M1189.9,323.7
			l-0.4-0.3l1.8-2.9l0.4,0.3c6.3,4,11.2,10,13.7,17l-3.2,1.1C1200,332.6,1195.6,327.2,1189.9,323.7L1189.9,323.7z M1148.3,314.1
			c3.8-0.7,10.8-1.8,14.3-1.5c2.8,0.2,5.3,0.5,7.7,0.8l-0.5,3.3c-2.3-0.4-4.8-0.6-7.4-0.8c-2.3-0.2-7.3,0.4-13.5,1.5L1148.3,314.1z
			 M1190.2,306.5c5.4-5,11.6-9.2,18.2-12.4l1.5,3c-6.4,3.1-12.2,7.1-17.4,11.9L1190.2,306.5z"/>
		<path class="st16" d="M1230,290.9c3.6-0.5,7.1-0.8,10.7-0.7l0.1-3.4c-3.8-0.1-7.6,0.2-11.3,0.8L1230,290.9z"/>
		<path class="st17" d="M980.8,340.7c2,0.1,7.5,1.9,15.6,17.2c10.3,19.5,25.4,78.4,25.4,78.4l-45,16.8l-5.8-12.3l-9.5-94.6
			C961.5,346.1,980.3,340.7,980.8,340.7z"/>
		<path class="st18" d="M921.3,332.2c12.9,0,44.7,3.8,59.5,8.5c0,0,10.9,93.3-9.8,164.3c-4.6,15.9,3.8,65.8,3.8,65.8L841.5,569
			c0,0,15.8-120.7,9.8-140.2s-6.1-87.5-6.1-87.5l30-5.2C890.5,333.7,905.9,332.4,921.3,332.2z"/>
		<path class="st19" d="M905.8,744c0,0,3,34,8.4,43.5s-0.3,25.5-0.6,27.7s-11.4,5.3-29.1,3.5s-17.4-6-16-12.6s10.8-15.1,11.4-21.4
			s-5.4-28.9-5.4-28.9L905.8,744z"/>
		<path class="st20" d="M959.8,542.7c0,0,92.1-5.1,112.6,7.3s-14.6,73.6-14.6,73.6s-64.1-3-189.5,4.3c-29.7,1.7-32.3-77.5-26.7-84
			S959.8,542.7,959.8,542.7z"/>
		<path class="st21" d="M882.3,821.3c-18.2-1.9-16-10.9-14.5-17.7c0.9-4.3,6.2-9.3,9.3-14c1.6,1.3,4.3,3.6,12.2,5.9
			c8.2,2.4,19.5-2.4,26.7-5.4c1.9,7.7,2.7,15.6,2.4,23.5C918,815.9,900.5,823.2,882.3,821.3z"/>
		<path class="st0" d="M892.3,608.5c3.7,27.8,21.9,166.4,21.9,166.4l-42.2,5.2c0,0-52-180.9-49.3-208.5s22.1-30,22.1-30
			S882.6,534.9,892.3,608.5z"/>
		<path class="st19" d="M843.8,351.7c12.5-4.7,18.6,107.7,20.3,153.9c22.1,2.1,60.6,0,70.2-0.7c4.5-0.3,14.9-4.1,19.4-4.7
			s8.8-0.9,11-0.5c0.8,0.1,23.8,9.6,25.8,11.6c2.4,2.6,9,9,7.9,11.8s-12.7-7.8-12.7-7.8l-5.6-3.2c7,6.9,20.5,16,18.6,19.3
			s-14-6-22.7-12.3c7.4,6.7,16.6,18.7,14.5,20.5c-1.9,1.7-12.4-12.2-23.6-16.2c-4.2-1.5-8.3,2.6-11.5,3.1c-2.4,0.4-6.1,1.1-8.5,0.5
			l-12.1-3.4c-4.1,0.4-4.2,2.8-8.4,3.7c-4.8,1-12.8,2.1-19,3.6c-35.5,8.7-47.3,12.7-58.2,12.7C816.3,543.7,814.3,362.8,843.8,351.7z
			"/>
		<path class="st17" d="M820.2,457.2c-2.3-47.4-2-105.8,24.6-115.7c10.5-3.9,29,19.7,25.6,116.7
			C856.2,459.4,835.3,460.3,820.2,457.2z"/>
		<path class="st19" d="M1033.8,777c0,0-6.1,10.8-1.3,19.8s30,22.3,32.6,27.2s1.6,8.4,1.6,8.4l-74.8-18.3l5.7-22.5l7-15.6
			L1033.8,777z"/>
		<path class="st21" d="M1036.3,801.7c0,0-21,3.6-29.4-3s-7.8-7.9-10.9-6.7c-2,0.7-5,9.7-6.9,16c-1,3.3,0.9,6.7,4.1,7.7
			c0.1,0,0.2,0.1,0.3,0.1l77.9,19.3c5.9,1.1,9.8-2.5,5.8-7.3c-2.7-3.3-6.2-5.8-8-7.5C1063.6,814.9,1036.3,801.7,1036.3,801.7z"/>
		<path class="st0" d="M1026.5,564.5c6-12.5,19.5-28.8,43.3-19c22.7,9.4,28.8,32.4,21.6,56s-54.3,162.2-56,181.2l-37.7,0.3
			c0,0,6.8-109.7,8.5-136.3C1007.9,621.1,1016.2,586.2,1026.5,564.5z"/>
		<path class="st9" d="M1087.6,436.9H961.7c-3.3,0-6.3,2-7.6,5.1l-38.8,94.9h-69.4c-1.9,0-3.5,1.6-3.5,3.5v0l0,0
			c0,1.9,1.6,3.5,3.5,3.5h197.6c5.4,0,10.4-3.2,12.6-8.2l39-87.3c1.9-4.1,0-9-4.1-10.9C1089.9,437.1,1088.8,436.9,1087.6,436.9z"/>
		<path class="st14" d="M1019.8,492.1c-0.8,4.3-4.5,7.1-8.3,6.4s-6-4.8-5.2-9.1s4.6-7.1,8.3-6.4S1020.7,487.9,1019.8,492.1z"/>
		<path class="st22" d="M951.3,218.2c-3.8-1.2-7.5-2.7-11.1-4.5c-4.1-2-9.4-4.3-12.7-4.8c-7-1.1-19.1-0.4-25.8,6.9
			c-8.3,9-23.1,1.6-20.1,48.8c3.4,53.4,33.1,47.5,33.8,46.6s26.5-34.2,26.5-34.2s9,19.7,9,19S996.9,233.6,951.3,218.2z"/>
		<path class="st19" d="M928.7,315.3l2.6,19.1c0,0,5.7,27.5-1.7,32.8s-31.4-33.6-31.4-33.6l2.5-48.4L928.7,315.3z"/>
		<path class="st3" d="M899.9,300.9c6.1,16.5,20.6,26.6,31,30.6l-2.2-16.2l-28-30.1L899.9,300.9z"/>
		<path class="st19" d="M927.2,232.6c13.9-2.1,26.9,7.4,29,21.3c0.2,1.5,0.3,3,0.3,4.5c-0.2,8.2-0.9,16.4-2.1,24.5
			c-3.4,22-18.4,41.4-28.4,39.7s-34.9-20.7-30.5-52.1C898.2,251.1,910.8,235.2,927.2,232.6z"/>
		<path class="st19" d="M902.3,274.2c-0.8,4.9-4.7,8.2-8.7,7.5s-6.5-5.2-5.6-10s4.7-8.2,8.7-7.5S903.2,269.3,902.3,274.2z"/>
		<path class="st22" d="M896.7,264.1c0,0,12,3,16.5-4.7c4.5-7.7,20.4-24.4,40.7-17.5s-17.9-16.8-19.5-16.8s-21.1-0.1-21.1-0.1
			s-15,12.3-15.5,13.7s-4.9,16.1-4.9,16.1L896.7,264.1z"/>
		<path class="st14" d="M918.7,296.4l21.9,4.2c0,0-2.1,8.2-11.8,6.7C917,305.4,918.7,296.4,918.7,296.4z"/>
		<path class="st19" d="M1173.1,1802c0,0-4,27.9-10.9,36.9c-2.3,3-6.5,6.8-9.3,12.3c-4.3,8.5-1.9,21.2,1.3,28.2
			c1.6,3.6-0.1,3.6,3.6,4.7c11,3.4,22.7-2.3,27.4-12.9c3.3-7.5,5.1-15.6,5.4-23.8c1.2-25.3,9-38.2,9-38.2L1173.1,1802z"/>
		<path class="st19" d="M1293.5,1814.7c0,0,2.5,31.5,0.5,41.7c-1.1,5.5-7.1,16.8-4.3,21.9s5.9,6.4,5.9,6.4l71.1,1.2
			c3.9,0.1,1.3-2.4-1.8-4.8c-5.1-3.8-9.2-6.3-25.6-14.2c-1.1-0.5-5-3-6.3-3.8c-3.8-2.5-7.2-5.5-10.2-9c-5.1-5.7-5.6-33.4-5.6-33.4
			L1293.5,1814.7z"/>
		<path class="st18" d="M1349.1,1396.3c0,0,9,51.1,3.1,84.6s-34.1,344.1-34.1,344.1l-31.4,1.8c0,0-6.6-129.8-5.4-147.8
			s10.5-48.2,10.5-48.2l-3.1-104.8l39.6-137.6L1349.1,1396.3z"/>
		<path class="st3" d="M1257,1385.5c0,0-24.7,37.4-30.6,68.3s4.3,126-7,166.5c-6.1,21.9-29.3,55.8-32.8,84.2s-17.4,102.6-17.4,102.6
			l31.3,6.3l72.8-185.5l57.1-167.7l14.6-86.3L1257,1385.5z"/>
		<path class="st0" d="M1187.3,1865.6c-17.1,3.1-28.4-6.9-34.4-14.4c-4.3,8.5-6.5,21.2-3.3,28.2c2.8,6.2,11,6,17.5,6.2
			c6.8,0.3,12.1-3.6,15.5-9.6C1184.6,1872.7,1186.1,1869.2,1187.3,1865.6z"/>
		<path class="st0" d="M1333,1863.1c-18.8,4.8-32.7,1.6-40.5-1.6c-2,5.7-4.7,12.9-3.3,17c1.7,5.1,4.2,6.2,6.4,6.3
			c17.2,0.4,62.9,1.1,76,1.2c1.2,0,2.2-0.9,2.2-2.1c0-0.5-0.2-1-0.5-1.4C1370,1878.6,1334.4,1864,1333,1863.1z"/>
		<path class="st23" d="M1461.7,1308c1.3-2.8-12.5-6.6-13-9.6s18.1-1.3,19-3.8c1.7-4.6-20.2-3.1-19.5-5.3s23.1-4.8,21.2-8.9
			s-23,5.2-23.4,2.6s20.3-6.8,20.6-12.5c0.1-3-34.4,11.6-38.1,9.6s5.7-15.4,2.9-17.8s-14.9,25.6-17.1,26.4s-49.6,15.2-65.7,17.5
			c-1.4-5.5-13.5-35.5-14.7-40.7c-9.5,5.4-21.5-1.1-31.2,3.7c4.9,17.2,15.8,73.8,20.2,76.4c13.3,7.8,83.4-29.3,95-35.8
			s17.5-3.4,25.1-5.1S1460.3,1310.8,1461.7,1308z"/>
		<path class="st22" d="M1336.9,1141.1c3.5-16,7-32.2-2.3-49.8c-7.5-14.3-20.5-22.4-35.6-24.2c-42.7-5.1-33.5,34.8-93.1,43.4
			c-18.5,2.7-35.7,5.3-51.2,14.5c-27.9,16.6-38.5,43.3-20,86.8c45.3,106.4,153.8,14,170.4-4.9
			C1321.6,1188.2,1334.7,1151.4,1336.9,1141.1z"/>
		<path class="st0" d="M1269.8,1191.7c0,0-21.5,2.4-34.4,16.4s20.8,126.6,23.2,144.5s-22.4,67.2-22.4,67.2s84.1,16.7,106,2.3
			c0,0,1.9-137.8-0.4-150.6s-21.9-64.5-26.5-69.6S1269.8,1191.7,1269.8,1191.7z"/>
		<path class="st19" d="M1280.6,1148.3c0,0-0.2,1-0.5,2.6c-1.4,7.8-7,33.7-10.8,40.9c-4.6,8.6,15.6,36.1,35.1,32.7
			c5.8-1-4.9-25.2-4.4-27.8c1-4.9,2.3-11.6,3.7-18.5c0.8-3.9,1.5-7.8,2.3-11.5c2.1-10.5,3.8-19.1,3.8-19.1L1280.6,1148.3z"/>
		<path class="st3" d="M1280.2,1150.9c0.3-1.6,0.5-2.6,0.5-2.6l29.1-0.7c0,0-1.7,8.6-3.8,19.1c-0.7,3.7-1.5,7.6-2.3,11.4
			c-4.5-0.7-9.2-2.8-13.9-6.9c-4.8-4.2-8.4-9.6-10.5-15.6C1279.6,1153.7,1279.9,1152.1,1280.2,1150.9z"/>
		<path class="st19" d="M1298.2,1079.1c-8.1,1.6-15.4,6.2-20.5,12.8c-8.6,11.1-17.9,45.4,3.5,64.1s42.5-2.5,45.6-24.9
			S1329.3,1078.3,1298.2,1079.1z"/>
		<path class="st19" d="M1333,1125.6c-1.3,5.4-4.9,9-7.9,8.2s-4.4-6-3-11.4s4.9-9,7.9-8.2S1334.4,1120.2,1333,1125.6z"/>
		<path class="st22" d="M1311.3,1079.2c0,0-27.9,32-41,33.6s-14.8,18.9-14.8,18.9s4.7-40,17.7-47.7S1311.3,1079.2,1311.3,1079.2z"/>
		<path class="st19" d="M1274.6,1120.5c1.1,5.8-1.1,11.1-4.8,11.9s-7.6-3.3-8.7-9.1s1.1-11.1,4.8-11.9S1273.5,1114.7,1274.6,1120.5z
			"/>
		<path class="st9" d="M1274.2,1283.1l90.2,13.2c2.7,0.4,4.6,2.9,4.2,5.6l-17.6,120.3c-0.4,2.7-2.9,4.6-5.6,4.2l-90.2-13.2
			c-2.7-0.4-4.6-2.9-4.2-5.6l17.6-120.3C1269,1284.6,1271.5,1282.7,1274.2,1283.1z"/>
		<path class="st15" d="M1341.5,1289c0.1-0.5-0.3-1.1-0.8-1.1c0,0,0,0,0,0l-37.6-5.5c-0.5-0.1-1.1,0.3-1.1,0.8c0,0,0,0,0,0l-0.6,3.9
			l39.6,5.8L1341.5,1289z"/>
		<path class="st15" d="M1322.5,1280.3c-3.3-0.5-6.3,1.8-6.8,5.1c-0.5,3.3,1.8,6.3,5.1,6.8c3.3,0.5,6.3-1.8,6.8-5.1c0,0,0,0,0,0
			C1328,1283.9,1325.8,1280.8,1322.5,1280.3z M1321.1,1290.1c-2.1-0.3-3.6-2.3-3.3-4.4c0.3-2.1,2.3-3.6,4.4-3.3
			c2.1,0.3,3.6,2.3,3.3,4.4c0,0,0,0,0,0C1325.1,1288.9,1323.2,1290.4,1321.1,1290.1z"/>
		<path class="st4" d="M1341,1288c0.3,0.2,0.5,0.6,0.5,1l-0.6,3.9l-39.6-5.8c-0.4,2.7,1.5,5.2,4.2,5.6l29.8,4.4
			c2.7,0.4,5.2-1.5,5.6-4.2l0.6-3.9C1341.5,1288.6,1341.3,1288.2,1341,1288z"/>
		<path class="st14" d="M1313.4,1142.2l-20.3-0.1c0,0,0.4,7.7,9.3,8C1313.4,1150.5,1313.4,1142.2,1313.4,1142.2z"/>
		<path class="st19" d="M1210.9,1313.9l32.7,3.3c0,0-0.5,27.7,0,30.9c0,0,55.9,15.5,79.2,19.7c0,0,10.6-6,14.9-7.9s15.9-4,18.4-4.3
			s1.7,2.5-0.5,3.4s-7.9,3.7-9.5,6.9c0,0,4.6,0.5,7-0.6s5.8-3.4,5.9-4.6s0.6-4.1,1.4-3.9c0.2,0,0.5,1,0.8,2s0.5,1.9,0.8,2.8
			c0.4,1.7,0.9,4.2,1.1,5.3c0.4,2.5-1.1,9.6-1.4,12.1c-0.4,4.6-1.7,6.6-4.1,7.7c-4.5,1.5-9.2,2.5-14,2.8c-11.1,1.2-21.3-2-25.8-2.6
			s-75.6-7.6-75.6-7.6s-28.3-4.1-30.2-8.9S1210.9,1313.9,1210.9,1313.9z"/>
		<path class="st0" d="M1239.3,1204.1c0,0-10.3,4.9-19.4,26c-8.6,20.1-11.2,120.2-11.2,120.2l34.2-5.7l17.4-46.7
			c12.5-27.9,9.1-60.4-8.9-85.2C1246.7,1206.2,1242.3,1202.2,1239.3,1204.1z"/>
		<rect x="1778.3" y="723" class="st12" width="145.1" height="145.1"/>
		<rect x="1949" y="723" class="st12" width="283" height="19.7"/>
		<rect x="1949" y="764.7" class="st12" width="191" height="19.7"/>
		<rect x="1949" y="806.5" class="st12" width="254.2" height="19.7"/>
		<path class="st19" d="M2329.4,1204.5c-5.9-4.8-51.8,15.3-51.2,22.3s-32,74.9-32,74.9l-56.3-44.9l0,0c-0.5-1.6-5.8-19.1-6.1-22.2
			c-0.3-3.3-9.8-9-14.2-8.2s3.8,6.4,4.3,7.4c1.5,2.8-4.2,3.8-4.2,3.8s-16.1-5.2-16.4-10.4s-11.3,9.2-10,11.2s27.5,23.1,31.3,27.7
			c0,0,72.8,83.3,78,85.4c4.6,1.9,20.8-26.8,36.1-45.8S2347.9,1219.6,2329.4,1204.5z"/>
		<path class="st24" d="M2476.3,1816.7c0,0,10,9.8,10.2,13.3s0.9,42-3.2,45.6s-16.1,6.1-12.2,10.2c2.9,3,25.4,2.4,40.2,1.6
			c4.3-0.2,9.8-34.9,11.5-40c2.5-7.4,8.6-24,6.3-29.2c-1.1-2.5-6.4-7.7-13.9-12.5c-7.8-5.1-15.3-16.3-15.3-16.3L2476.3,1816.7z"/>
		<path class="st19" d="M2372.6,1839.4c0,0,9,25.3,9,25.4c0.7,4,3.3,13.9,3.3,17.6c0,13.7-61.7-11.6-47.9-17.7
			c1.3-0.5,5.2-4.9,5.6-9.6c0.6-7.2-5.2-16.2-5.2-16.2L2372.6,1839.4z"/>
		<path class="st5" d="M2275.8,1368.3c0,0-4.5,45.3-4.5,46c0,73.4-14.5,216.7-11.8,230.5c6.8,33.6,79.4,205.3,79.4,205.3l39.3-4.7
			L2336,1638l9.8-80.8l26.6-163.5L2275.8,1368.3z"/>
		<path class="st1" d="M2407.5,1408.4l7.4,43l20.1,176.9l76.7,172.9c0,0-10.8,25.2-26.7,28.7L2363,1652.4l-75.9-227.2l2.7-50.5
			L2407.5,1408.4z"/>
		<path class="st18" d="M2260.1,1260.3l54.4,5.6c0,0,2.5-44.6,2.5-65.9c0-25.8-2.2-59.1-5.3-58.4c-8.8,2-20.5,6.8-27.6,16.5
			C2259.9,1191.5,2260.1,1260.3,2260.1,1260.3z"/>
		<path class="st3" d="M2286.9,1195.4c-1.1,7.9-22.1,221.9-22.1,221.9c99.1,47.9,153.8,8.5,153.8,8.5s-3.2-150.3,0.6-170.8
			c2.6-13.5,5.8-103.5-3-106c-11.3-3.2-24.2-6.7-38.2-8.1c-12-1.3-58.6-2-67,0.8C2311,1141.8,2291.7,1162.3,2286.9,1195.4z"/>
		<path class="st3" d="M2514.8,1805.4c0,0-23.1,64.9-32.1,68.1c-2.4,0.8-13.9,3-16.1,8c-0.6,1.5,0,6.7,0,6.7h48.1
			c0,0,6.1-28.6,8.5-41.2c0,0,12.7-30.7,11.3-33.5S2514.8,1805.4,2514.8,1805.4z"/>
		<path class="st3" d="M2388.4,1886.9l-7.1-22.3c0,0-14.9,6.3-22.3,5.2s-21.9-5.2-21.9-5.2c-29.6,9.8-53.9,14.5-49.5,22.3H2388.4z"
			/>
		<path class="st19" d="M2252.5,1351.6c-0.5-0.3-1-0.7-1.5-1.1c1.8-21,1.4-41.3-5.1-48.2l3.1-6.6c7.6,5.9,11.3,21.6,9.8,47
			c-0.2,1.8-0.6,3.5-1,5.3C2255.6,1350.5,2253.6,1352.1,2252.5,1351.6z"/>
		<path class="st19" d="M2364.8,1099.6l6.4,42.1c0,0-23.3,50.1-37.3,45.8c-11.7-3.7-4.5-48-4.5-48s6.4-23.8,4.5-35.7
			S2364.8,1099.6,2364.8,1099.6z"/>
		<path class="st25" d="M2333.9,1103.8c-1.9-11.9,30.9-4.1,30.9-4.1l0.5,3.5c-0.8,2.2-2,4.1-3.6,5.9c-7.3,7.9-18.8,12.6-28.7,13
			C2334,1115.6,2334.6,1108.7,2333.9,1103.8z"/>
		<path class="st19" d="M2370.1,1040.1c0.9-0.3,7.4,48-4.9,61.2s-36.4,17.6-45,7.2c-9.6-11.6-9.1-63.5,10.1-77.1
			S2370.1,1040.1,2370.1,1040.1z"/>
		<path class="st22" d="M2337.6,1005.5c10.8,2.3,20.5,7.9,28,16c6.7,0.8,15.9,4.5,25.3,20.2c11.6,19.3,3,40.6-10.5,51
			s-13.4,22.6-13.4,22.6l-2.1-6.2c-1.6-4.7-2.2-9.8-1.7-14.7c0.3-3,1-6,2.2-8.8c3.3-7-7-11.6-9.9-17.4c-2.2-4.5-2.3-14.7-5.8-22.1
			l-4.2-5.7c0,0-9.6-7.5-19-5.4S2318.6,1001.6,2337.6,1005.5z"/>
		<path class="st19" d="M2356.3,1076.6c-0.1,5.9,2.6,10.7,6,10.8s6.2-4.7,6.3-10.6s-2.6-10.7-6-10.8S2356.4,1070.7,2356.3,1076.6z"
			/>
		<path class="st14" d="M2336.2,1090.2l-18.6-1c0,0,0.1,7.1,8.2,7.8C2335.8,1097.8,2336.2,1090.2,2336.2,1090.2z"/>
		<path class="st22" d="M2183.9,1200.2c4.4-4.5,8.4-9.1,12.2-13.8l81.2,79.3c5,4.9,3.3,14.7-3.8,22s-16.9,9.2-21.9,4.4l-81.2-79.3
			C2175,1208.9,2179.6,1204.7,2183.9,1200.2z"/>
		
			<ellipse transform="matrix(0.6988 -0.7153 0.7153 0.6988 -141.459 1773.228)" class="st26" cx="2034.8" cy="1054.6" rx="204.9" ry="206.2"/>
		<path class="st14" d="M2182.6,1196.5c-34.2,36.5-80.6,59.2-130.4,63.8l-222.2-225.9l0.1-1.3c5.2-49.5,28.2-95.4,64.6-129.3
			L2182.6,1196.5z"/>
		<path class="st14" d="M2033.1,848.9l205.5,208.9c-0.1,6.3-0.5,12.7-1.2,19.1c-3,28.2-11.8,55.6-25.8,80.3l-277.5-282.1
			C1964.3,858,1998.4,849,2033.1,848.9z"/>
		<path class="st9" d="M1873,1220.4c92.1,89.9,239.2,88.6,328.6-2.9s87.2-238.6-4.9-328.5s-239.2-88.7-328.6,2.9
			S1781,1130.4,1873,1220.4z M1891.7,1201.3c-81.4-79.6-83.4-209.7-4.3-290.6s209.2-82.1,290.6-2.5s83.4,209.6,4.3,290.6
			S1973.2,1280.8,1891.7,1201.3L1891.7,1201.3z"/>
		<path class="st27" d="M1882.9,1210.3c86.5,84.5,224.7,83.3,308.6-2.7s81.9-224.1-4.6-308.6s-224.7-83.3-308.6,2.7
			S1796.4,1125.8,1882.9,1210.3z M1891.7,1201.3c-81.4-79.6-83.4-209.7-4.3-290.6s209.2-82.1,290.6-2.5s83.4,209.6,4.3,290.6
			S1973.2,1280.8,1891.7,1201.3z"/>
		<path class="st9" d="M2529.7,1548.3l12.6-13.1c12.6-13.1,12.2-33.9-0.8-46.5c0,0,0,0,0,0l-234.5-227.4
			c-13.1-12.6-33.9-12.2-46.5,0.8l-12.6,13.1c-12.6,13.1-12.2,33.9,0.9,46.5l234.5,227.4C2496.2,1561.8,2517,1561.4,2529.7,1548.3
			C2529.7,1548.4,2529.7,1548.4,2529.7,1548.3z"/>
		<path class="st28" d="M2516.7,1419.6c0.1-0.5,0.1-0.9,0-1.4c-1.5-14.8-13.8-139.3-15.8-144.6c-1.9-4.8-57.1-83.7-57.1-83.7
			l-27.1,37l53.1,70.8c1.2,4.5,20.3,88.5,20.3,88.5s3.9,15.3,5.7,24.5c-0.8,2.2-1.6,4.3-2.3,6c-1.6,3.2-3.5,6.3-5.7,9.2
			c-2.4,3.2-6.3,10.1-6.8,12c-0.6,2.2-1.6,6.7-2.1,9.4s-1.4,5.9-1.5,7.3c-0.4,1.4-0.9,2.8-1.7,4c-0.6,1.1-0.2,2.6,0.9,3.2
			c0.6,0.3,1.3,0.4,1.9,0.2c1.9-0.6,3.4-3.1,4.4-4.7c2.6-4.4,4-12.4,4.7-12s2.9,14,3.3,15.6s3.1,17.3,4.7,20.2s3.6,2.4,4.1,0.6
			c0.5-1.6-1.7-23.7-1.7-23.7s-0.3-2.8,1-1.9s3.3,20.9,4.1,23.9s2.8,4.5,4.5,2.1c2-2.9-1.4-24.2-1.4-24.2s-0.4-2.7,0.8-2.4
			s2.6,17.3,3.5,18.8s3.1,2,4.2-0.4c1.3-2.9-2-21.9-2-21.9s0.2-1.5,0.9-1s3,15,4.4,16.3c0.6,0.6,1.6,0.6,2.2,0.1c0,0,0,0,0.1-0.1
			c2.7-1.8-1.4-15.6-1.4-22.5s-3.1-14.6-2.2-22.7C2516.5,1421.7,2516.6,1420.4,2516.7,1419.6z"/>
		<path class="st3" d="M2487,1239.9l-47.1,31.7c0,0-26.6-39.6-40.9-53.6c-17.9-17.6,6.5-71.7,18-68.6
			C2442.8,1156.2,2487,1239.9,2487,1239.9z"/>
		<rect x="238" y="1883" class="st22" width="2346" height="14"/>
	</g>
</g>
</svg>
